# Blender 4.1.1
# www.blender.org
mtllib ClearText_03.mtl
o テキスト.ア
v -0.392875 0.321793 -0.100000
v -0.379583 0.301431 -0.100000
v -0.364250 0.279297 -0.100000
v -0.347000 0.255778 -0.100000
v -0.327958 0.231259 -0.100000
v -0.307250 0.206125 -0.100000
v -0.285000 0.180762 -0.100000
v -0.261333 0.155556 -0.100000
v -0.236375 0.130891 -0.100000
v -0.210250 0.107153 -0.100000
v -0.183083 0.084727 -0.100000
v -0.155000 0.064000 -0.100000
v -0.089000 0.117000 -0.100000
v -0.112005 0.131357 -0.100000
v -0.134875 0.147690 -0.100000
v -0.157391 0.165641 -0.100000
v -0.179333 0.184852 -0.100000
v -0.200484 0.204966 -0.100000
v -0.220625 0.225625 -0.100000
v -0.239536 0.246472 -0.100000
v -0.257000 0.267148 -0.100000
v -0.272797 0.287297 -0.100000
v -0.286708 0.306560 -0.100000
v -0.298516 0.324580 -0.100000
v -0.308000 0.341000 -0.100000
v -0.282978 0.341000 -0.100000
v -0.244736 0.341000 -0.100000
v -0.196016 0.341000 -0.100000
v -0.139556 0.341000 -0.100000
v -0.078096 0.341000 -0.100000
v -0.014375 0.341000 -0.100000
v 0.048866 0.341000 -0.100000
v 0.108889 0.341000 -0.100000
v 0.162953 0.341000 -0.100000
v 0.208319 0.341000 -0.100000
v 0.242248 0.341000 -0.100000
v 0.262000 0.341000 -0.100000
v 0.271271 0.340958 -0.100000
v 0.280583 0.340833 -0.100000
v 0.289938 0.340625 -0.100000
v 0.299333 0.340333 -0.100000
v 0.308771 0.339958 -0.100000
v 0.318250 0.339500 -0.100000
v 0.327771 0.338958 -0.100000
v 0.337333 0.338333 -0.100000
v 0.346938 0.337625 -0.100000
v 0.356583 0.336833 -0.100000
v 0.366271 0.335958 -0.100000
v 0.376000 0.335000 -0.100000
v 0.376000 0.426000 -0.100000
v 0.367111 0.424773 -0.100000
v 0.357972 0.423597 -0.100000
v 0.348625 0.422484 -0.100000
v 0.339111 0.421444 -0.100000
v 0.329472 0.420488 -0.100000
v 0.319750 0.419625 -0.100000
v 0.309986 0.418866 -0.100000
v 0.300222 0.418222 -0.100000
v 0.290500 0.417703 -0.100000
v 0.280861 0.417319 -0.100000
v 0.271347 0.417082 -0.100000
v 0.262000 0.417000 -0.100000
v 0.241769 0.417000 -0.100000
v 0.206982 0.417000 -0.100000
v 0.160500 0.417000 -0.100000
v 0.105185 0.417000 -0.100000
v 0.043898 0.417000 -0.100000
v -0.020500 0.417000 -0.100000
v -0.085148 0.417000 -0.100000
v -0.147185 0.417000 -0.100000
v -0.203750 0.417000 -0.100000
v -0.251981 0.417000 -0.100000
v -0.289019 0.417000 -0.100000
v -0.312000 0.417000 -0.100000
v -0.317082 0.417061 -0.100000
v -0.322741 0.417236 -0.100000
v -0.328844 0.417516 -0.100000
v -0.335259 0.417889 -0.100000
v -0.341855 0.418345 -0.100000
v -0.348500 0.418875 -0.100000
v -0.355061 0.419467 -0.100000
v -0.361407 0.420111 -0.100000
v -0.367406 0.420797 -0.100000
v -0.372926 0.421514 -0.100000
v -0.377835 0.422252 -0.100000
v -0.382000 0.423000 -0.100000
v -0.431000 0.376000 -0.100000
v -0.429132 0.373401 -0.100000
v -0.427056 0.370625 -0.100000
v -0.424813 0.367703 -0.100000
v -0.422444 0.364667 -0.100000
v -0.419993 0.361547 -0.100000
v -0.417500 0.358375 -0.100000
v -0.415007 0.355182 -0.100000
v -0.412556 0.352000 -0.100000
v -0.410188 0.348859 -0.100000
v -0.407945 0.345792 -0.100000
v -0.405868 0.342828 -0.100000
v -0.404000 0.340000 -0.100000
v 0.321000 -0.277000 -0.100000
v 0.313882 -0.274606 -0.100000
v 0.306556 -0.271931 -0.100000
v 0.299063 -0.268984 -0.100000
v 0.291444 -0.265778 -0.100000
v 0.283743 -0.262321 -0.100000
v 0.276000 -0.258625 -0.100000
v 0.268257 -0.254700 -0.100000
v 0.260556 -0.250556 -0.100000
v 0.252937 -0.246203 -0.100000
v 0.245444 -0.241653 -0.100000
v 0.238118 -0.236915 -0.100000
v 0.231000 -0.232000 -0.100000
v 0.194957 -0.207494 -0.100000
v 0.164069 -0.181032 -0.100000
v 0.137953 -0.152703 -0.100000
v 0.116222 -0.122593 -0.100000
v 0.098491 -0.090788 -0.100000
v 0.084375 -0.057375 -0.100000
v 0.073488 -0.022442 -0.100000
v 0.065444 0.013926 -0.100000
v 0.059859 0.051641 -0.100000
v 0.056347 0.090616 -0.100000
v 0.054523 0.130764 -0.100000
v 0.054000 0.172000 -0.100000
v 0.054021 0.177962 -0.100000
v 0.054088 0.183861 -0.100000
v 0.054203 0.189719 -0.100000
v 0.054370 0.195556 -0.100000
v 0.054593 0.201392 -0.100000
v 0.054875 0.207250 -0.100000
v 0.055219 0.213149 -0.100000
v 0.055630 0.219111 -0.100000
v 0.056109 0.225156 -0.100000
v 0.056662 0.231306 -0.100000
v 0.057291 0.237580 -0.100000
v 0.058000 0.244000 -0.100000
v -0.032000 0.244000 -0.100000
v -0.031380 0.178065 -0.100000
v -0.029042 0.115685 -0.100000
v -0.024266 0.056750 -0.100000
v -0.016333 0.001148 -0.100000
v -0.004526 -0.051231 -0.100000
v 0.011875 -0.100500 -0.100000
v 0.033589 -0.146768 -0.100000
v 0.061333 -0.190148 -0.100000
v 0.095828 -0.230750 -0.100000
v 0.137792 -0.268685 -0.100000
v 0.187943 -0.304065 -0.100000
v 0.247000 -0.337000 -0.100000
v -0.392875 0.321793 0.100000
v -0.379583 0.301431 0.100000
v -0.364250 0.279297 0.100000
v -0.347000 0.255778 0.100000
v -0.327958 0.231259 0.100000
v -0.307250 0.206125 0.100000
v -0.285000 0.180762 0.100000
v -0.261333 0.155556 0.100000
v -0.236375 0.130891 0.100000
v -0.210250 0.107153 0.100000
v -0.183083 0.084727 0.100000
v -0.155000 0.064000 0.100000
v -0.089000 0.117000 0.100000
v -0.112005 0.131357 0.100000
v -0.134875 0.147690 0.100000
v -0.157391 0.165641 0.100000
v -0.179333 0.184852 0.100000
v -0.200484 0.204966 0.100000
v -0.220625 0.225625 0.100000
v -0.239536 0.246472 0.100000
v -0.257000 0.267148 0.100000
v -0.272797 0.287297 0.100000
v -0.286708 0.306560 0.100000
v -0.298516 0.324580 0.100000
v -0.308000 0.341000 0.100000
v -0.282978 0.341000 0.100000
v -0.244736 0.341000 0.100000
v -0.196016 0.341000 0.100000
v -0.139556 0.341000 0.100000
v -0.078096 0.341000 0.100000
v -0.014375 0.341000 0.100000
v 0.048866 0.341000 0.100000
v 0.108889 0.341000 0.100000
v 0.162953 0.341000 0.100000
v 0.208319 0.341000 0.100000
v 0.242248 0.341000 0.100000
v 0.262000 0.341000 0.100000
v 0.271271 0.340958 0.100000
v 0.280583 0.340833 0.100000
v 0.289938 0.340625 0.100000
v 0.299333 0.340333 0.100000
v 0.308771 0.339958 0.100000
v 0.318250 0.339500 0.100000
v 0.327771 0.338958 0.100000
v 0.337333 0.338333 0.100000
v 0.346938 0.337625 0.100000
v 0.356583 0.336833 0.100000
v 0.366271 0.335958 0.100000
v 0.376000 0.335000 0.100000
v 0.376000 0.426000 0.100000
v 0.367111 0.424773 0.100000
v 0.357972 0.423597 0.100000
v 0.348625 0.422484 0.100000
v 0.339111 0.421444 0.100000
v 0.329472 0.420488 0.100000
v 0.319750 0.419625 0.100000
v 0.309986 0.418866 0.100000
v 0.300222 0.418222 0.100000
v 0.290500 0.417703 0.100000
v 0.280861 0.417319 0.100000
v 0.271347 0.417082 0.100000
v 0.262000 0.417000 0.100000
v 0.241769 0.417000 0.100000
v 0.206982 0.417000 0.100000
v 0.160500 0.417000 0.100000
v 0.105185 0.417000 0.100000
v 0.043898 0.417000 0.100000
v -0.020500 0.417000 0.100000
v -0.085148 0.417000 0.100000
v -0.147185 0.417000 0.100000
v -0.203750 0.417000 0.100000
v -0.251981 0.417000 0.100000
v -0.289019 0.417000 0.100000
v -0.312000 0.417000 0.100000
v -0.317082 0.417061 0.100000
v -0.322741 0.417236 0.100000
v -0.328844 0.417516 0.100000
v -0.335259 0.417889 0.100000
v -0.341855 0.418345 0.100000
v -0.348500 0.418875 0.100000
v -0.355061 0.419467 0.100000
v -0.361407 0.420111 0.100000
v -0.367406 0.420797 0.100000
v -0.372926 0.421514 0.100000
v -0.377835 0.422252 0.100000
v -0.382000 0.423000 0.100000
v -0.431000 0.376000 0.100000
v -0.429132 0.373401 0.100000
v -0.427056 0.370625 0.100000
v -0.424813 0.367703 0.100000
v -0.422444 0.364667 0.100000
v -0.419993 0.361547 0.100000
v -0.417500 0.358375 0.100000
v -0.415007 0.355182 0.100000
v -0.412556 0.352000 0.100000
v -0.410188 0.348859 0.100000
v -0.407945 0.345792 0.100000
v -0.405868 0.342828 0.100000
v -0.404000 0.340000 0.100000
v 0.321000 -0.277000 0.100000
v 0.313882 -0.274606 0.100000
v 0.306556 -0.271931 0.100000
v 0.299063 -0.268984 0.100000
v 0.291444 -0.265778 0.100000
v 0.283743 -0.262321 0.100000
v 0.276000 -0.258625 0.100000
v 0.268257 -0.254700 0.100000
v 0.260556 -0.250556 0.100000
v 0.252937 -0.246203 0.100000
v 0.245444 -0.241653 0.100000
v 0.238118 -0.236915 0.100000
v 0.231000 -0.232000 0.100000
v 0.194957 -0.207494 0.100000
v 0.164069 -0.181032 0.100000
v 0.137953 -0.152703 0.100000
v 0.116222 -0.122593 0.100000
v 0.098491 -0.090788 0.100000
v 0.084375 -0.057375 0.100000
v 0.073488 -0.022442 0.100000
v 0.065444 0.013926 0.100000
v 0.059859 0.051641 0.100000
v 0.056347 0.090616 0.100000
v 0.054523 0.130764 0.100000
v 0.054000 0.172000 0.100000
v 0.054021 0.177962 0.100000
v 0.054088 0.183861 0.100000
v 0.054203 0.189719 0.100000
v 0.054370 0.195556 0.100000
v 0.054593 0.201392 0.100000
v 0.054875 0.207250 0.100000
v 0.055219 0.213149 0.100000
v 0.055630 0.219111 0.100000
v 0.056109 0.225156 0.100000
v 0.056662 0.231306 0.100000
v 0.057291 0.237580 0.100000
v 0.058000 0.244000 0.100000
v -0.032000 0.244000 0.100000
v -0.031380 0.178065 0.100000
v -0.029042 0.115685 0.100000
v -0.024266 0.056750 0.100000
v -0.016333 0.001148 0.100000
v -0.004526 -0.051231 0.100000
v 0.011875 -0.100500 0.100000
v 0.033589 -0.146768 0.100000
v 0.061333 -0.190148 0.100000
v 0.095828 -0.230750 0.100000
v 0.137792 -0.268685 0.100000
v 0.187943 -0.304065 0.100000
v 0.247000 -0.337000 0.100000
v -0.392875 0.321793 0.100000
v -0.392875 0.321793 -0.100000
v -0.379583 0.301431 0.100000
v -0.379583 0.301431 -0.100000
v -0.364250 0.279297 0.100000
v -0.364250 0.279297 -0.100000
v -0.347000 0.255778 0.100000
v -0.347000 0.255778 -0.100000
v -0.327958 0.231259 0.100000
v -0.327958 0.231259 -0.100000
v -0.307250 0.206125 0.100000
v -0.307250 0.206125 -0.100000
v -0.285000 0.180762 0.100000
v -0.285000 0.180762 -0.100000
v -0.261333 0.155556 0.100000
v -0.261333 0.155556 -0.100000
v -0.236375 0.130891 0.100000
v -0.236375 0.130891 -0.100000
v -0.210250 0.107153 0.100000
v -0.210250 0.107153 -0.100000
v -0.183083 0.084727 0.100000
v -0.183083 0.084727 -0.100000
v -0.155000 0.064000 0.100000
v -0.155000 0.064000 -0.100000
v -0.089000 0.117000 0.100000
v -0.089000 0.117000 -0.100000
v -0.112005 0.131357 0.100000
v -0.112005 0.131357 -0.100000
v -0.134875 0.147690 0.100000
v -0.134875 0.147690 -0.100000
v -0.157391 0.165641 0.100000
v -0.157391 0.165641 -0.100000
v -0.179333 0.184852 0.100000
v -0.179333 0.184852 -0.100000
v -0.200484 0.204966 0.100000
v -0.200484 0.204966 -0.100000
v -0.220625 0.225625 0.100000
v -0.220625 0.225625 -0.100000
v -0.239536 0.246472 0.100000
v -0.239536 0.246472 -0.100000
v -0.257000 0.267148 0.100000
v -0.257000 0.267148 -0.100000
v -0.272797 0.287297 0.100000
v -0.272797 0.287297 -0.100000
v -0.286708 0.306560 0.100000
v -0.286708 0.306560 -0.100000
v -0.298516 0.324580 0.100000
v -0.298516 0.324580 -0.100000
v -0.308000 0.341000 0.100000
v -0.308000 0.341000 -0.100000
v -0.282978 0.341000 0.100000
v -0.282978 0.341000 -0.100000
v -0.244736 0.341000 0.100000
v -0.244736 0.341000 -0.100000
v -0.196016 0.341000 0.100000
v -0.196016 0.341000 -0.100000
v -0.139556 0.341000 0.100000
v -0.139556 0.341000 -0.100000
v -0.078096 0.341000 0.100000
v -0.078096 0.341000 -0.100000
v -0.014375 0.341000 0.100000
v -0.014375 0.341000 -0.100000
v 0.048866 0.341000 0.100000
v 0.048866 0.341000 -0.100000
v 0.108889 0.341000 0.100000
v 0.108889 0.341000 -0.100000
v 0.162953 0.341000 0.100000
v 0.162953 0.341000 -0.100000
v 0.208319 0.341000 0.100000
v 0.208319 0.341000 -0.100000
v 0.242248 0.341000 0.100000
v 0.242248 0.341000 -0.100000
v 0.262000 0.341000 0.100000
v 0.262000 0.341000 -0.100000
v 0.271271 0.340958 0.100000
v 0.271271 0.340958 -0.100000
v 0.280583 0.340833 0.100000
v 0.280583 0.340833 -0.100000
v 0.289938 0.340625 0.100000
v 0.289938 0.340625 -0.100000
v 0.299333 0.340333 0.100000
v 0.299333 0.340333 -0.100000
v 0.308771 0.339958 0.100000
v 0.308771 0.339958 -0.100000
v 0.318250 0.339500 0.100000
v 0.318250 0.339500 -0.100000
v 0.327771 0.338958 0.100000
v 0.327771 0.338958 -0.100000
v 0.337333 0.338333 0.100000
v 0.337333 0.338333 -0.100000
v 0.346938 0.337625 0.100000
v 0.346938 0.337625 -0.100000
v 0.356583 0.336833 0.100000
v 0.356583 0.336833 -0.100000
v 0.366271 0.335958 0.100000
v 0.366271 0.335958 -0.100000
v 0.376000 0.335000 0.100000
v 0.376000 0.335000 -0.100000
v 0.376000 0.426000 0.100000
v 0.376000 0.426000 -0.100000
v 0.367111 0.424773 0.100000
v 0.367111 0.424773 -0.100000
v 0.357972 0.423597 0.100000
v 0.357972 0.423597 -0.100000
v 0.348625 0.422484 0.100000
v 0.348625 0.422484 -0.100000
v 0.339111 0.421444 0.100000
v 0.339111 0.421444 -0.100000
v 0.329472 0.420488 0.100000
v 0.329472 0.420488 -0.100000
v 0.319750 0.419625 0.100000
v 0.319750 0.419625 -0.100000
v 0.309986 0.418866 0.100000
v 0.309986 0.418866 -0.100000
v 0.300222 0.418222 0.100000
v 0.300222 0.418222 -0.100000
v 0.290500 0.417703 0.100000
v 0.290500 0.417703 -0.100000
v 0.280861 0.417319 0.100000
v 0.280861 0.417319 -0.100000
v 0.271347 0.417082 0.100000
v 0.271347 0.417082 -0.100000
v 0.262000 0.417000 0.100000
v 0.262000 0.417000 -0.100000
v 0.241769 0.417000 0.100000
v 0.241769 0.417000 -0.100000
v 0.206982 0.417000 0.100000
v 0.206982 0.417000 -0.100000
v 0.160500 0.417000 0.100000
v 0.160500 0.417000 -0.100000
v 0.105185 0.417000 0.100000
v 0.105185 0.417000 -0.100000
v 0.043898 0.417000 0.100000
v 0.043898 0.417000 -0.100000
v -0.020500 0.417000 0.100000
v -0.020500 0.417000 -0.100000
v -0.085148 0.417000 0.100000
v -0.085148 0.417000 -0.100000
v -0.147185 0.417000 0.100000
v -0.147185 0.417000 -0.100000
v -0.203750 0.417000 0.100000
v -0.203750 0.417000 -0.100000
v -0.251981 0.417000 0.100000
v -0.251981 0.417000 -0.100000
v -0.289019 0.417000 0.100000
v -0.289019 0.417000 -0.100000
v -0.312000 0.417000 0.100000
v -0.312000 0.417000 -0.100000
v -0.317082 0.417061 0.100000
v -0.317082 0.417061 -0.100000
v -0.322741 0.417236 0.100000
v -0.322741 0.417236 -0.100000
v -0.328844 0.417516 0.100000
v -0.328844 0.417516 -0.100000
v -0.335259 0.417889 0.100000
v -0.335259 0.417889 -0.100000
v -0.341855 0.418345 0.100000
v -0.341855 0.418345 -0.100000
v -0.348500 0.418875 0.100000
v -0.348500 0.418875 -0.100000
v -0.355061 0.419467 0.100000
v -0.355061 0.419467 -0.100000
v -0.361407 0.420111 0.100000
v -0.361407 0.420111 -0.100000
v -0.367406 0.420797 0.100000
v -0.367406 0.420797 -0.100000
v -0.372926 0.421514 0.100000
v -0.372926 0.421514 -0.100000
v -0.377835 0.422252 0.100000
v -0.377835 0.422252 -0.100000
v -0.382000 0.423000 0.100000
v -0.382000 0.423000 -0.100000
v -0.431000 0.376000 0.100000
v -0.431000 0.376000 -0.100000
v -0.429132 0.373401 0.100000
v -0.429132 0.373401 -0.100000
v -0.427056 0.370625 0.100000
v -0.427056 0.370625 -0.100000
v -0.424813 0.367703 0.100000
v -0.424813 0.367703 -0.100000
v -0.422444 0.364667 0.100000
v -0.422444 0.364667 -0.100000
v -0.419993 0.361547 0.100000
v -0.419993 0.361547 -0.100000
v -0.417500 0.358375 0.100000
v -0.417500 0.358375 -0.100000
v -0.415007 0.355182 0.100000
v -0.415007 0.355182 -0.100000
v -0.412556 0.352000 0.100000
v -0.412556 0.352000 -0.100000
v -0.410188 0.348859 0.100000
v -0.410188 0.348859 -0.100000
v -0.407945 0.345792 0.100000
v -0.407945 0.345792 -0.100000
v -0.405868 0.342828 0.100000
v -0.405868 0.342828 -0.100000
v -0.404000 0.340000 0.100000
v -0.404000 0.340000 -0.100000
v 0.321000 -0.277000 0.100000
v 0.321000 -0.277000 -0.100000
v 0.313882 -0.274606 0.100000
v 0.313882 -0.274606 -0.100000
v 0.306556 -0.271931 0.100000
v 0.306556 -0.271931 -0.100000
v 0.299063 -0.268984 0.100000
v 0.299063 -0.268984 -0.100000
v 0.291444 -0.265778 0.100000
v 0.291444 -0.265778 -0.100000
v 0.283743 -0.262321 0.100000
v 0.283743 -0.262321 -0.100000
v 0.276000 -0.258625 0.100000
v 0.276000 -0.258625 -0.100000
v 0.268257 -0.254700 0.100000
v 0.268257 -0.254700 -0.100000
v 0.260556 -0.250556 0.100000
v 0.260556 -0.250556 -0.100000
v 0.252937 -0.246203 0.100000
v 0.252937 -0.246203 -0.100000
v 0.245444 -0.241653 0.100000
v 0.245444 -0.241653 -0.100000
v 0.238118 -0.236915 0.100000
v 0.238118 -0.236915 -0.100000
v 0.231000 -0.232000 0.100000
v 0.231000 -0.232000 -0.100000
v 0.194957 -0.207494 0.100000
v 0.194957 -0.207494 -0.100000
v 0.164069 -0.181032 0.100000
v 0.164069 -0.181032 -0.100000
v 0.137953 -0.152703 0.100000
v 0.137953 -0.152703 -0.100000
v 0.116222 -0.122593 0.100000
v 0.116222 -0.122593 -0.100000
v 0.098491 -0.090788 0.100000
v 0.098491 -0.090788 -0.100000
v 0.084375 -0.057375 0.100000
v 0.084375 -0.057375 -0.100000
v 0.073488 -0.022442 0.100000
v 0.073488 -0.022442 -0.100000
v 0.065444 0.013926 0.100000
v 0.065444 0.013926 -0.100000
v 0.059859 0.051641 0.100000
v 0.059859 0.051641 -0.100000
v 0.056347 0.090616 0.100000
v 0.056347 0.090616 -0.100000
v 0.054523 0.130764 0.100000
v 0.054523 0.130764 -0.100000
v 0.054000 0.172000 0.100000
v 0.054000 0.172000 -0.100000
v 0.054021 0.177962 0.100000
v 0.054021 0.177962 -0.100000
v 0.054088 0.183861 0.100000
v 0.054088 0.183861 -0.100000
v 0.054203 0.189719 0.100000
v 0.054203 0.189719 -0.100000
v 0.054370 0.195556 0.100000
v 0.054370 0.195556 -0.100000
v 0.054593 0.201392 0.100000
v 0.054593 0.201392 -0.100000
v 0.054875 0.207250 0.100000
v 0.054875 0.207250 -0.100000
v 0.055219 0.213149 0.100000
v 0.055219 0.213149 -0.100000
v 0.055630 0.219111 0.100000
v 0.055630 0.219111 -0.100000
v 0.056109 0.225156 0.100000
v 0.056109 0.225156 -0.100000
v 0.056662 0.231306 0.100000
v 0.056662 0.231306 -0.100000
v 0.057291 0.237580 0.100000
v 0.057291 0.237580 -0.100000
v 0.058000 0.244000 0.100000
v 0.058000 0.244000 -0.100000
v -0.032000 0.244000 0.100000
v -0.032000 0.244000 -0.100000
v -0.031380 0.178065 0.100000
v -0.031380 0.178065 -0.100000
v -0.029042 0.115685 0.100000
v -0.029042 0.115685 -0.100000
v -0.024266 0.056750 0.100000
v -0.024266 0.056750 -0.100000
v -0.016333 0.001148 0.100000
v -0.016333 0.001148 -0.100000
v -0.004526 -0.051231 0.100000
v -0.004526 -0.051231 -0.100000
v 0.011875 -0.100500 0.100000
v 0.011875 -0.100500 -0.100000
v 0.033589 -0.146768 0.100000
v 0.033589 -0.146768 -0.100000
v 0.061333 -0.190148 0.100000
v 0.061333 -0.190148 -0.100000
v 0.095828 -0.230750 0.100000
v 0.095828 -0.230750 -0.100000
v 0.137792 -0.268685 0.100000
v 0.137792 -0.268685 -0.100000
v 0.187943 -0.304065 0.100000
v 0.187943 -0.304065 -0.100000
v 0.247000 -0.337000 0.100000
v 0.247000 -0.337000 -0.100000
vn -0.0000 -0.0000 -1.0000
vn -0.0002 -0.0000 -1.0000
vn -0.0000 -0.0000 1.0000
vn -0.0002 -0.0000 1.0000
vn -0.8298 -0.5581 -0.0000
vn -0.8454 -0.5341 -0.0000
vn -0.8143 -0.5805 -0.0000
vn -0.7982 -0.6025 -0.0000
vn -0.7809 -0.6247 -0.0000
vn -0.7982 -0.6024 -0.0000
vn -0.7618 -0.6478 -0.0000
vn -0.7405 -0.6721 -0.0000
vn -0.7161 -0.6980 -0.0000
vn -0.6878 -0.7259 -0.0000
vn -0.6547 -0.7559 -0.0000
vn -0.6879 -0.7259 -0.0000
vn -0.6154 -0.7882 -0.0000
vn 0.0204 -0.9998 -0.0000
vn 0.9982 0.0593 -0.0000
vn 0.5556 0.8315 -0.0000
vn 0.6025 0.7981 -0.0000
vn 0.6412 0.7674 -0.0000
vn 0.6741 0.7387 -0.0000
vn 0.7027 0.7115 -0.0000
vn 0.7285 0.6851 -0.0000
vn 0.7524 0.6587 -0.0000
vn 0.7756 0.6312 -0.0000
vn 0.7990 0.6013 -0.0000
vn 0.8238 0.5669 -0.0000
vn 0.8515 0.5243 -0.0000
vn 0.8661 -0.4999 -0.0000
vn -0.0000 -1.0000 -0.0000
vn -0.0022 -1.0000 -0.0000
vn -0.0090 -1.0000 -0.0000
vn -0.0178 -0.9998 -0.0000
vn -0.0266 -0.9996 -0.0000
vn -0.0354 -0.9994 -0.0000
vn -0.0440 -0.9990 -0.0000
vn -0.0525 -0.9986 -0.0000
vn -0.0610 -0.9981 -0.0000
vn -0.0694 -0.9976 -0.0000
vn -0.0777 -0.9970 -0.0000
vn -0.0859 -0.9963 -0.0000
vn -0.0940 -0.9956 -0.0000
vn 0.6715 -0.7410 -0.0000
vn 0.6569 0.7539 -0.0000
vn -0.1322 0.9912 -0.0000
vn 0.6570 0.7539 -0.0000
vn -0.1229 0.9924 -0.0000
vn -0.1134 0.9935 -0.0000
vn -0.1037 0.9946 -0.0000
vn -0.0936 0.9956 -0.0000
vn -0.0829 0.9966 -0.0000
vn -0.0716 0.9974 -0.0000
vn -0.0596 0.9982 -0.0000
vn -0.0465 0.9989 -0.0000
vn -0.0324 0.9995 -0.0000
vn -0.0169 0.9999 -0.0000
vn -0.0044 1.0000 -0.0000
vn -0.0000 1.0000 -0.0000
vn 0.0060 1.0000 -0.0000
vn 0.0215 0.9998 -0.0000
vn 0.0384 0.9993 -0.0000
vn 0.0519 0.9987 -0.0000
vn 0.0636 0.9980 -0.0000
vn 0.0743 0.9972 -0.0000
vn 0.0847 0.9964 -0.0000
vn 0.0954 0.9954 -0.0000
vn 0.1073 0.9942 -0.0000
vn 0.1212 0.9926 -0.0000
vn 0.1387 0.9903 -0.0000
vn 0.1627 0.9867 -0.0000
vn -0.2892 0.9573 -0.0000
vn -0.9958 0.0914 -0.0000
vn -0.8064 -0.5913 -0.0000
vn -0.7970 -0.6040 -0.0000
vn -0.7909 -0.6120 -0.0000
vn -0.7874 -0.6164 -0.0000
vn -0.7863 -0.6179 -0.0000
vn -0.7872 -0.6167 -0.0000
vn -0.7902 -0.6129 -0.0000
vn -0.7953 -0.6062 -0.0000
vn -0.8029 -0.5961 -0.0000
vn -0.8132 -0.5821 -0.0000
vn -0.8029 -0.5962 -0.0000
vn -0.8268 -0.5625 -0.0000
vn -0.8131 -0.5821 -0.0000
vn -0.8440 -0.5364 -0.0000
vn 0.3309 0.9437 -0.0000
vn 0.9841 0.1775 -0.0000
vn 0.3545 0.9351 -0.0000
vn 0.3770 0.9262 -0.0000
vn 0.3987 0.9171 -0.0000
vn 0.4202 0.9074 -0.0000
vn 0.4415 0.8973 -0.0000
vn 0.4630 0.8863 -0.0000
vn 0.4850 0.8745 -0.0000
vn 0.5076 0.8616 -0.0000
vn 0.5311 0.8473 -0.0000
vn 0.5557 0.8314 -0.0000
vn 0.5652 0.8249 -0.0000
vn 0.6074 0.7944 -0.0000
vn 0.6941 0.7199 -0.0000
vn 0.7744 0.6326 -0.0000
vn 0.8436 0.5370 -0.0000
vn 0.8986 0.4387 -0.0000
vn 0.9391 0.3438 -0.0000
vn 0.9664 0.2570 -0.0000
vn 0.9834 0.1813 -0.0000
vn 0.9930 0.1182 -0.0000
vn 0.9977 0.0676 -0.0000
vn 0.9996 0.0290 -0.0000
vn 1.0000 0.0045 -0.0000
vn 1.0000 -0.0074 -0.0000
vn 0.9999 -0.0155 -0.0000
vn 0.9997 -0.0241 -0.0000
vn 0.9994 -0.0334 -0.0000
vn 0.9991 -0.0431 -0.0000
vn 0.9986 -0.0532 -0.0000
vn 0.9980 -0.0635 -0.0000
vn 0.9973 -0.0739 -0.0000
vn 0.9964 -0.0843 -0.0000
vn 0.9955 -0.0946 -0.0000
vn 0.9945 -0.1048 -0.0000
vn 0.7449 0.6672 -0.0000
vn -0.7104 0.7038 -0.0000
vn -0.9997 -0.0234 -0.0000
vn -0.9983 -0.0591 -0.0000
vn -0.9938 -0.1111 -0.0000
vn -0.9835 -0.1807 -0.0000
vn -0.9634 -0.2682 -0.0000
vn -0.9286 -0.3710 -0.0000
vn -0.8757 -0.4828 -0.0000
vn -0.8041 -0.5945 -0.0000
vn -0.7179 -0.6961 -0.0000
vn -0.6247 -0.7809 -0.0000
vn -0.5325 -0.8464 -0.0000
vn 0.0862 -0.9963 -0.0000
vt 0.324324 0.000000
vt 0.337838 0.000000
vt 0.331081 0.000000
vt 0.344595 0.000000
vt 0.351351 0.000000
vt 0.567568 0.000000
vt 0.581081 0.000000
vt 0.574324 0.000000
vt 0.358108 0.000000
vt 0.560811 0.000000
vt 0.554054 0.000000
vt 0.364865 0.000000
vt 0.547297 0.000000
vt 0.371622 0.000000
vt 0.540541 0.000000
vt 0.378378 0.000000
vt 0.533784 0.000000
vt 0.527027 0.000000
vt 0.385135 0.000000
vt 0.520270 0.000000
vt 0.391892 0.000000
vt 0.513514 0.000000
vt 0.398649 0.000000
vt 0.506757 0.000000
vt 0.405405 0.000000
vt 0.500000 0.000000
vt 0.412162 0.000000
vt 0.493243 0.000000
vt 0.418919 0.000000
vt 0.425676 0.000000
vt 0.432432 0.000000
vt 0.439189 0.000000
vt 0.445946 0.000000
vt 0.452703 0.000000
vt 0.459459 0.000000
vt 0.466216 0.000000
vt 0.472973 0.000000
vt 0.479730 0.000000
vt 0.486486 0.000000
vt 0.317568 0.000000
vt 0.310811 0.000000
vt 0.304054 0.000000
vt 0.297297 0.000000
vt 0.290541 0.000000
vt 0.283784 0.000000
vt 0.277027 0.000000
vt 0.587838 0.000000
vt 0.594595 0.000000
vt 0.270270 0.000000
vt 0.601351 0.000000
vt 0.608108 0.000000
vt 0.263514 0.000000
vt 0.614865 0.000000
vt 0.621622 0.000000
vt 0.256757 0.000000
vt 0.628378 0.000000
vt 0.635135 0.000000
vt 0.250000 0.000000
vt 0.641892 0.000000
vt 0.648649 0.000000
vt 0.243243 0.000000
vt 0.655405 0.000000
vt 0.236486 0.000000
vt 0.229730 0.000000
vt 0.222973 0.000000
vt 0.216216 0.000000
vt 0.209459 0.000000
vt 0.202703 0.000000
vt 0.195946 0.000000
vt 0.189189 0.000000
vt 0.182432 0.000000
vt 0.175676 0.000000
vt 0.168919 0.000000
vt 0.162162 0.000000
vt 0.662162 0.000000
vt 0.155405 0.000000
vt 0.000000 0.000000
vt 0.148649 0.000000
vt 0.006757 0.000000
vt 0.141892 0.000000
vt 0.013514 0.000000
vt 0.135135 0.000000
vt 0.020270 0.000000
vt 0.128378 0.000000
vt 0.027027 0.000000
vt 0.121622 0.000000
vt 0.905405 0.000000
vt 0.918919 0.000000
vt 0.912162 0.000000
vt 0.925676 0.000000
vt 0.898649 0.000000
vt 0.891892 0.000000
vt 0.033784 0.000000
vt 0.114865 0.000000
vt 0.885135 0.000000
vt 0.878378 0.000000
vt 0.871622 0.000000
vt 0.864865 0.000000
vt 0.040541 0.000000
vt 0.108108 0.000000
vt 0.858108 0.000000
vt 0.851351 0.000000
vt 0.844595 0.000000
vt 0.101351 0.000000
vt 0.837838 0.000000
vt 0.047297 0.000000
vt 0.932432 0.000000
vt 0.831081 0.000000
vt 0.824324 0.000000
vt 0.094595 0.000000
vt 0.054054 0.000000
vt 0.087838 0.000000
vt 0.081081 0.000000
vt 0.060811 0.000000
vt 0.817568 0.000000
vt 0.074324 0.000000
vt 0.939189 0.000000
vt 0.067568 0.000000
vt 0.810811 0.000000
vt 0.945946 0.000000
vt 0.804054 0.000000
vt 0.797297 0.000000
vt 0.952703 0.000000
vt 0.790541 0.000000
vt 0.959459 0.000000
vt 0.783784 0.000000
vt 0.777027 0.000000
vt 0.966216 0.000000
vt 0.770270 0.000000
vt 0.972973 0.000000
vt 0.763514 0.000000
vt 0.756757 0.000000
vt 0.979730 0.000000
vt 0.750000 0.000000
vt 0.986486 0.000000
vt 0.743243 0.000000
vt 0.736486 0.000000
vt 0.729730 0.000000
vt 0.722973 0.000000
vt 0.716216 0.000000
vt 0.709459 0.000000
vt 0.702703 0.000000
vt 0.695946 0.000000
vt 0.689189 0.000000
vt 0.993243 0.000000
vt 0.682432 0.000000
vt 0.675676 0.000000
vt 0.668919 0.000000
vt 1.000000 0.000000
vt 0.010101 1.000000
vt 0.000000 1.000000
vt 0.020202 1.000000
vt 0.010101 0.000000
vt 0.030303 1.000000
vt 0.020202 0.000000
vt 0.040404 1.000000
vt 0.030303 0.000000
vt 0.050505 1.000000
vt 0.040404 0.000000
vt 0.060606 1.000000
vt 0.050505 0.000000
vt 0.070707 1.000000
vt 0.060606 0.000000
vt 0.080808 1.000000
vt 0.070707 0.000000
vt 0.090909 1.000000
vt 0.080808 0.000000
vt 0.101010 1.000000
vt 0.090909 0.000000
vt 0.111111 1.000000
vt 0.101010 0.000000
vt 0.121212 1.000000
vt 0.111111 0.000000
vt 0.131313 1.000000
vt 0.121212 0.000000
vt 0.141414 1.000000
vt 0.131313 0.000000
vt 0.151515 1.000000
vt 0.141414 0.000000
vt 0.161616 1.000000
vt 0.151515 0.000000
vt 0.171717 1.000000
vt 0.161616 0.000000
vt 0.181818 1.000000
vt 0.171717 0.000000
vt 0.191919 1.000000
vt 0.181818 0.000000
vt 0.202020 1.000000
vt 0.191919 0.000000
vt 0.212121 1.000000
vt 0.202020 0.000000
vt 0.222222 1.000000
vt 0.212121 0.000000
vt 0.232323 1.000000
vt 0.222222 0.000000
vt 0.242424 1.000000
vt 0.232323 0.000000
vt 0.252525 1.000000
vt 0.242424 0.000000
vt 0.262626 1.000000
vt 0.252525 0.000000
vt 0.272727 1.000000
vt 0.262626 0.000000
vt 0.282828 1.000000
vt 0.272727 0.000000
vt 0.292929 1.000000
vt 0.282828 0.000000
vt 0.303030 1.000000
vt 0.292929 0.000000
vt 0.313131 1.000000
vt 0.303030 0.000000
vt 0.323232 1.000000
vt 0.313131 0.000000
vt 0.333333 1.000000
vt 0.323232 0.000000
vt 0.343434 1.000000
vt 0.333333 0.000000
vt 0.353535 1.000000
vt 0.343434 0.000000
vt 0.363636 1.000000
vt 0.353535 0.000000
vt 0.373737 1.000000
vt 0.363636 0.000000
vt 0.383838 1.000000
vt 0.373737 0.000000
vt 0.393939 1.000000
vt 0.383838 0.000000
vt 0.404040 1.000000
vt 0.393939 0.000000
vt 0.414141 1.000000
vt 0.404040 0.000000
vt 0.424242 1.000000
vt 0.414141 0.000000
vt 0.434343 1.000000
vt 0.424242 0.000000
vt 0.444444 1.000000
vt 0.434343 0.000000
vt 0.454545 1.000000
vt 0.444444 0.000000
vt 0.464646 1.000000
vt 0.454545 0.000000
vt 0.474747 1.000000
vt 0.464646 0.000000
vt 0.484848 1.000000
vt 0.474747 0.000000
vt 0.494949 1.000000
vt 0.484848 0.000000
vt 0.505050 1.000000
vt 0.494949 0.000000
vt 0.515152 1.000000
vt 0.505050 0.000000
vt 0.525253 1.000000
vt 0.515152 0.000000
vt 0.535354 1.000000
vt 0.525253 0.000000
vt 0.545455 1.000000
vt 0.535354 0.000000
vt 0.555556 1.000000
vt 0.545455 0.000000
vt 0.565657 1.000000
vt 0.555556 0.000000
vt 0.575758 1.000000
vt 0.565657 0.000000
vt 0.585859 1.000000
vt 0.575758 0.000000
vt 0.595960 1.000000
vt 0.585859 0.000000
vt 0.606061 1.000000
vt 0.595960 0.000000
vt 0.616162 1.000000
vt 0.606061 0.000000
vt 0.626263 1.000000
vt 0.616162 0.000000
vt 0.636364 1.000000
vt 0.626263 0.000000
vt 0.646465 1.000000
vt 0.636364 0.000000
vt 0.656566 1.000000
vt 0.646465 0.000000
vt 0.666667 1.000000
vt 0.656566 0.000000
vt 0.676768 1.000000
vt 0.666667 0.000000
vt 0.686869 1.000000
vt 0.676768 0.000000
vt 0.696970 1.000000
vt 0.686869 0.000000
vt 0.707071 1.000000
vt 0.696970 0.000000
vt 0.717172 1.000000
vt 0.707071 0.000000
vt 0.727273 1.000000
vt 0.717172 0.000000
vt 0.737374 1.000000
vt 0.727273 0.000000
vt 0.747475 1.000000
vt 0.737374 0.000000
vt 0.757576 1.000000
vt 0.747475 0.000000
vt 0.767677 1.000000
vt 0.757576 0.000000
vt 0.777778 1.000000
vt 0.767677 0.000000
vt 0.787879 1.000000
vt 0.777778 0.000000
vt 0.797980 1.000000
vt 0.787879 0.000000
vt 0.808081 1.000000
vt 0.797980 0.000000
vt 0.818182 1.000000
vt 0.808081 0.000000
vt 0.828283 1.000000
vt 0.818182 0.000000
vt 0.838384 1.000000
vt 0.828283 0.000000
vt 0.848485 1.000000
vt 0.838384 0.000000
vt 0.858586 1.000000
vt 0.848485 0.000000
vt 0.868687 1.000000
vt 0.858586 0.000000
vt 0.878788 1.000000
vt 0.868687 0.000000
vt 0.888889 1.000000
vt 0.878788 0.000000
vt 0.898990 1.000000
vt 0.888889 0.000000
vt 0.909091 1.000000
vt 0.898990 0.000000
vt 0.919192 1.000000
vt 0.909091 0.000000
vt 0.929293 1.000000
vt 0.919192 0.000000
vt 0.939394 1.000000
vt 0.929293 0.000000
vt 0.949495 1.000000
vt 0.939394 0.000000
vt 0.959596 1.000000
vt 0.949495 0.000000
vt 0.969697 1.000000
vt 0.959596 0.000000
vt 0.979798 1.000000
vt 0.969697 0.000000
vt 0.989899 1.000000
vt 0.979798 0.000000
vt 1.000000 1.000000
vt 0.989899 0.000000
vt 0.020000 1.000000
vt 0.040000 1.000000
vt 0.020000 0.000000
vt 0.060000 1.000000
vt 0.040000 0.000000
vt 0.080000 1.000000
vt 0.060000 0.000000
vt 0.100000 1.000000
vt 0.080000 0.000000
vt 0.120000 1.000000
vt 0.100000 0.000000
vt 0.140000 1.000000
vt 0.120000 0.000000
vt 0.160000 1.000000
vt 0.140000 0.000000
vt 0.180000 1.000000
vt 0.160000 0.000000
vt 0.200000 1.000000
vt 0.180000 0.000000
vt 0.220000 1.000000
vt 0.200000 0.000000
vt 0.240000 1.000000
vt 0.220000 0.000000
vt 0.260000 1.000000
vt 0.240000 0.000000
vt 0.280000 1.000000
vt 0.260000 0.000000
vt 0.300000 1.000000
vt 0.280000 0.000000
vt 0.320000 1.000000
vt 0.300000 0.000000
vt 0.340000 1.000000
vt 0.320000 0.000000
vt 0.360000 1.000000
vt 0.340000 0.000000
vt 0.380000 1.000000
vt 0.360000 0.000000
vt 0.400000 1.000000
vt 0.380000 0.000000
vt 0.420000 1.000000
vt 0.400000 0.000000
vt 0.440000 1.000000
vt 0.420000 0.000000
vt 0.460000 1.000000
vt 0.440000 0.000000
vt 0.480000 1.000000
vt 0.460000 0.000000
vt 0.500000 1.000000
vt 0.480000 0.000000
vt 0.520000 1.000000
vt 0.540000 1.000000
vt 0.520000 0.000000
vt 0.560000 1.000000
vt 0.540000 0.000000
vt 0.580000 1.000000
vt 0.560000 0.000000
vt 0.600000 1.000000
vt 0.580000 0.000000
vt 0.620000 1.000000
vt 0.600000 0.000000
vt 0.640000 1.000000
vt 0.620000 0.000000
vt 0.660000 1.000000
vt 0.640000 0.000000
vt 0.680000 1.000000
vt 0.660000 0.000000
vt 0.700000 1.000000
vt 0.680000 0.000000
vt 0.720000 1.000000
vt 0.700000 0.000000
vt 0.740000 1.000000
vt 0.720000 0.000000
vt 0.760000 1.000000
vt 0.740000 0.000000
vt 0.780000 1.000000
vt 0.760000 0.000000
vt 0.800000 1.000000
vt 0.780000 0.000000
vt 0.820000 1.000000
vt 0.800000 0.000000
vt 0.840000 1.000000
vt 0.820000 0.000000
vt 0.860000 1.000000
vt 0.840000 0.000000
vt 0.880000 1.000000
vt 0.860000 0.000000
vt 0.900000 1.000000
vt 0.880000 0.000000
vt 0.920000 1.000000
vt 0.900000 0.000000
vt 0.940000 1.000000
vt 0.920000 0.000000
vt 0.960000 1.000000
vt 0.940000 0.000000
vt 0.980000 1.000000
vt 0.960000 0.000000
vt 0.980000 0.000000
s 0
usemtl マテリアル.004
f 49/1/1 51/2/1 50/3/1
f 49/1/1 52/4/1 51/2/1
f 49/1/1 53/5/1 52/4/1
f 85/6/1 87/7/1 86/8/1
f 49/1/1 54/9/1 53/5/1
f 84/10/1 87/7/1 85/6/1
f 83/11/1 87/7/1 84/10/1
f 49/1/1 55/12/1 54/9/1
f 82/13/1 87/7/1 83/11/1
f 49/1/1 56/14/1 55/12/1
f 81/15/1 87/7/1 82/13/1
f 49/1/1 57/16/1 56/14/1
f 80/17/1 87/7/1 81/15/1
f 79/18/1 87/7/1 80/17/1
f 49/1/1 58/19/1 57/16/1
f 78/20/1 87/7/1 79/18/1
f 49/1/1 59/21/1 58/19/1
f 77/22/1 87/7/1 78/20/1
f 49/1/1 60/23/1 59/21/1
f 76/24/1 87/7/1 77/22/1
f 49/1/1 61/25/1 60/23/1
f 75/26/1 87/7/1 76/24/1
f 49/1/1 62/27/1 61/25/1
f 74/28/1 87/7/1 75/26/1
f 49/1/1 63/29/1 62/27/1
f 49/1/1 64/30/1 63/29/1
f 49/1/1 65/31/1 64/30/1
f 49/1/1 66/32/1 65/31/1
f 49/1/1 67/33/1 66/32/1
f 49/1/1 68/34/1 67/33/1
f 49/1/1 69/35/1 68/34/1
f 49/1/1 70/36/1 69/35/1
f 49/1/1 71/37/1 70/36/1
f 49/1/1 72/38/1 71/37/1
f 49/1/1 73/39/1 72/38/1
f 49/1/1 74/28/1 73/39/1
f 49/1/1 48/40/1 74/28/1
f 48/40/1 47/41/1 74/28/1
f 47/41/1 46/42/1 74/28/1
f 46/42/1 45/43/1 74/28/1
f 45/43/1 44/44/1 74/28/1
f 44/44/1 43/45/1 74/28/1
f 43/45/1 87/7/1 74/28/1
f 43/45/2 42/46/2 87/7/2
f 42/46/1 88/47/1 87/7/1
f 42/46/1 89/48/1 88/47/1
f 42/46/1 41/49/1 89/48/1
f 41/49/1 90/50/1 89/48/1
f 41/49/1 91/51/1 90/50/1
f 41/49/1 40/52/1 91/51/1
f 40/52/1 92/53/1 91/51/1
f 40/52/1 93/54/1 92/53/1
f 40/52/1 39/55/1 93/54/1
f 39/55/1 94/56/1 93/54/1
f 39/55/1 95/57/1 94/56/1
f 39/55/1 38/58/1 95/57/1
f 38/58/1 96/59/1 95/57/1
f 38/58/1 97/60/1 96/59/1
f 38/58/1 37/61/1 97/60/1
f 37/61/1 98/62/1 97/60/1
f 37/61/1 36/63/1 98/62/1
f 36/63/1 35/64/1 98/62/1
f 35/64/1 34/65/1 98/62/1
f 34/65/1 33/66/1 98/62/1
f 33/66/1 32/67/1 98/62/1
f 32/67/1 31/68/1 98/62/1
f 31/68/1 30/69/1 98/62/1
f 30/69/1 29/70/1 98/62/1
f 29/70/1 28/71/1 98/62/1
f 28/71/1 27/72/1 98/62/1
f 27/72/1 26/73/1 98/62/1
f 26/73/1 25/74/1 98/62/1
f 25/74/1 99/75/1 98/62/1
f 24/76/1 99/75/1 25/74/1
f 24/76/1 1/77/1 99/75/1
f 23/78/1 1/77/1 24/76/1
f 23/78/1 2/79/1 1/77/1
f 22/80/1 2/79/1 23/78/1
f 22/80/1 3/81/1 2/79/1
f 21/82/1 3/81/1 22/80/1
f 21/82/1 4/83/1 3/81/1
f 20/84/1 4/83/1 21/82/1
f 20/84/1 5/85/1 4/83/1
f 19/86/1 5/85/1 20/84/1
f 135/87/1 137/88/1 136/89/1
f 135/87/1 138/90/1 137/88/1
f 134/91/1 138/90/1 135/87/1
f 133/92/1 138/90/1 134/91/1
f 19/86/1 6/93/1 5/85/1
f 18/94/1 6/93/1 19/86/1
f 132/95/1 138/90/1 133/92/1
f 131/96/1 138/90/1 132/95/1
f 130/97/1 138/90/1 131/96/1
f 129/98/1 138/90/1 130/97/1
f 18/94/1 7/99/1 6/93/1
f 17/100/1 7/99/1 18/94/1
f 128/101/1 138/90/1 129/98/1
f 127/102/1 138/90/1 128/101/1
f 126/103/1 138/90/1 127/102/1
f 16/104/1 7/99/1 17/100/1
f 125/105/1 138/90/1 126/103/1
f 16/104/1 8/106/1 7/99/1
f 125/105/1 139/107/1 138/90/1
f 124/108/1 139/107/1 125/105/1
f 123/109/1 139/107/1 124/108/1
f 15/110/1 8/106/1 16/104/1
f 15/110/1 9/111/1 8/106/1
f 14/112/1 9/111/1 15/110/1
f 13/113/1 9/111/1 14/112/1
f 13/113/1 10/114/1 9/111/1
f 122/115/1 139/107/1 123/109/1
f 12/116/1 10/114/1 13/113/1
f 122/115/1 140/117/1 139/107/1
f 12/116/1 11/118/1 10/114/1
f 121/119/1 140/117/1 122/115/1
f 121/119/1 141/120/1 140/117/1
f 120/121/1 141/120/1 121/119/1
f 119/122/1 141/120/1 120/121/1
f 119/122/1 142/123/1 141/120/1
f 118/124/1 142/123/1 119/122/1
f 118/124/1 143/125/1 142/123/1
f 117/126/1 143/125/1 118/124/1
f 116/127/1 143/125/1 117/126/1
f 116/127/1 144/128/1 143/125/1
f 115/129/1 144/128/1 116/127/1
f 115/129/1 145/130/1 144/128/1
f 114/131/1 145/130/1 115/129/1
f 113/132/1 145/130/1 114/131/1
f 113/132/1 146/133/1 145/130/1
f 112/134/1 146/133/1 113/132/1
f 112/134/1 147/135/1 146/133/1
f 111/136/1 147/135/1 112/134/1
f 110/137/1 147/135/1 111/136/1
f 109/138/1 147/135/1 110/137/1
f 108/139/1 147/135/1 109/138/1
f 107/140/1 147/135/1 108/139/1
f 106/141/1 147/135/1 107/140/1
f 105/142/1 147/135/1 106/141/1
f 104/143/1 147/135/1 105/142/1
f 103/144/1 147/135/1 104/143/1
f 103/144/1 148/145/1 147/135/1
f 102/146/1 148/145/1 103/144/1
f 101/147/1 148/145/1 102/146/1
f 100/148/1 148/145/1 101/147/1
f 149/149/1 148/145/1 100/148/1
f 198/1/3 199/3/3 200/2/3
f 198/1/3 200/2/3 201/4/3
f 198/1/3 201/4/3 202/5/3
f 234/6/3 235/8/3 236/7/3
f 198/1/3 202/5/3 203/9/3
f 233/10/3 234/6/3 236/7/3
f 232/11/3 233/10/3 236/7/3
f 198/1/3 203/9/3 204/12/3
f 231/13/3 232/11/3 236/7/3
f 198/1/3 204/12/3 205/14/3
f 230/15/3 231/13/3 236/7/3
f 198/1/3 205/14/3 206/16/3
f 229/17/3 230/15/3 236/7/3
f 228/18/3 229/17/3 236/7/3
f 198/1/3 206/16/3 207/19/3
f 227/20/3 228/18/3 236/7/3
f 198/1/3 207/19/3 208/21/3
f 226/22/3 227/20/3 236/7/3
f 198/1/3 208/21/3 209/23/3
f 225/24/3 226/22/3 236/7/3
f 198/1/3 209/23/3 210/25/3
f 224/26/3 225/24/3 236/7/3
f 198/1/3 210/25/3 211/27/3
f 223/28/3 224/26/3 236/7/3
f 198/1/3 211/27/3 212/29/3
f 198/1/3 212/29/3 213/30/3
f 198/1/3 213/30/3 214/31/3
f 198/1/3 214/31/3 215/32/3
f 198/1/3 215/32/3 216/33/3
f 198/1/3 216/33/3 217/34/3
f 198/1/3 217/34/3 218/35/3
f 198/1/3 218/35/3 219/36/3
f 198/1/3 219/36/3 220/37/3
f 198/1/3 220/37/3 221/38/3
f 198/1/3 221/38/3 222/39/3
f 198/1/3 222/39/3 223/28/3
f 198/1/3 223/28/3 197/40/3
f 197/40/3 223/28/3 196/41/3
f 196/41/3 223/28/3 195/42/3
f 195/42/3 223/28/3 194/43/3
f 194/43/3 223/28/3 193/44/3
f 193/44/3 223/28/3 192/45/3
f 192/45/3 223/28/3 236/7/3
f 192/45/4 236/7/4 191/46/4
f 191/46/3 236/7/3 237/47/3
f 191/46/3 237/47/3 238/48/3
f 191/46/3 238/48/3 190/49/3
f 190/49/3 238/48/3 239/50/3
f 190/49/3 239/50/3 240/51/3
f 190/49/3 240/51/3 189/52/3
f 189/52/3 240/51/3 241/53/3
f 189/52/3 241/53/3 242/54/3
f 189/52/3 242/54/3 188/55/3
f 188/55/3 242/54/3 243/56/3
f 188/55/3 243/56/3 244/57/3
f 188/55/3 244/57/3 187/58/3
f 187/58/3 244/57/3 245/59/3
f 187/58/3 245/59/3 246/60/3
f 187/58/3 246/60/3 186/61/3
f 186/61/3 246/60/3 247/62/3
f 186/61/3 247/62/3 185/63/3
f 185/63/3 247/62/3 184/64/3
f 184/64/3 247/62/3 183/65/3
f 183/65/3 247/62/3 182/66/3
f 182/66/3 247/62/3 181/67/3
f 181/67/3 247/62/3 180/68/3
f 180/68/3 247/62/3 179/69/3
f 179/69/3 247/62/3 178/70/3
f 178/70/3 247/62/3 177/71/3
f 177/71/3 247/62/3 176/72/3
f 176/72/3 247/62/3 175/73/3
f 175/73/3 247/62/3 174/74/3
f 174/74/3 247/62/3 248/75/3
f 173/76/3 174/74/3 248/75/3
f 173/76/3 248/75/3 150/77/3
f 172/78/3 173/76/3 150/77/3
f 172/78/3 150/77/3 151/79/3
f 171/80/3 172/78/3 151/79/3
f 171/80/3 151/79/3 152/81/3
f 170/82/3 171/80/3 152/81/3
f 170/82/3 152/81/3 153/83/3
f 169/84/3 170/82/3 153/83/3
f 169/84/3 153/83/3 154/85/3
f 168/86/3 169/84/3 154/85/3
f 284/87/3 285/89/3 286/88/3
f 284/87/3 286/88/3 287/90/3
f 283/91/3 284/87/3 287/90/3
f 282/92/3 283/91/3 287/90/3
f 168/86/3 154/85/3 155/93/3
f 167/94/3 168/86/3 155/93/3
f 281/95/3 282/92/3 287/90/3
f 280/96/3 281/95/3 287/90/3
f 279/97/3 280/96/3 287/90/3
f 278/98/3 279/97/3 287/90/3
f 167/94/3 155/93/3 156/99/3
f 166/100/3 167/94/3 156/99/3
f 277/101/3 278/98/3 287/90/3
f 276/102/3 277/101/3 287/90/3
f 275/103/3 276/102/3 287/90/3
f 165/104/3 166/100/3 156/99/3
f 274/105/3 275/103/3 287/90/3
f 165/104/3 156/99/3 157/106/3
f 274/105/3 287/90/3 288/107/3
f 273/108/3 274/105/3 288/107/3
f 272/109/3 273/108/3 288/107/3
f 164/110/3 165/104/3 157/106/3
f 164/110/3 157/106/3 158/111/3
f 163/112/3 164/110/3 158/111/3
f 162/113/3 163/112/3 158/111/3
f 162/113/3 158/111/3 159/114/3
f 271/115/3 272/109/3 288/107/3
f 161/116/3 162/113/3 159/114/3
f 271/115/3 288/107/3 289/117/3
f 161/116/3 159/114/3 160/118/3
f 270/119/3 271/115/3 289/117/3
f 270/119/3 289/117/3 290/120/3
f 269/121/3 270/119/3 290/120/3
f 268/122/3 269/121/3 290/120/3
f 268/122/3 290/120/3 291/123/3
f 267/124/3 268/122/3 291/123/3
f 267/124/3 291/123/3 292/125/3
f 266/126/3 267/124/3 292/125/3
f 265/127/3 266/126/3 292/125/3
f 265/127/3 292/125/3 293/128/3
f 264/129/3 265/127/3 293/128/3
f 264/129/3 293/128/3 294/130/3
f 263/131/3 264/129/3 294/130/3
f 262/132/3 263/131/3 294/130/3
f 262/132/3 294/130/3 295/133/3
f 261/134/3 262/132/3 295/133/3
f 261/134/3 295/133/3 296/135/3
f 260/136/3 261/134/3 296/135/3
f 259/137/3 260/136/3 296/135/3
f 258/138/3 259/137/3 296/135/3
f 257/139/3 258/138/3 296/135/3
f 256/140/3 257/139/3 296/135/3
f 255/141/3 256/140/3 296/135/3
f 254/142/3 255/141/3 296/135/3
f 253/143/3 254/142/3 296/135/3
f 252/144/3 253/143/3 296/135/3
f 252/144/3 296/135/3 297/145/3
f 251/146/3 252/144/3 297/145/3
f 250/147/3 251/146/3 297/145/3
f 249/148/3 250/147/3 297/145/3
f 298/149/3 249/148/3 297/145/3
s 1
f 302/150/5 299/77/6 300/151/6
f 304/152/7 301/153/5 302/150/5
f 306/154/8 303/155/7 304/152/7
f 308/156/9 305/157/10 306/154/8
f 310/158/11 307/159/9 308/156/9
f 312/160/12 309/161/11 310/158/11
f 314/162/13 311/163/12 312/160/12
f 316/164/14 313/165/13 314/162/13
f 318/166/15 315/167/16 316/164/14
f 320/168/17 317/169/15 318/166/15
f 322/170/18 319/171/17 320/168/17
f 324/172/19 321/173/18 322/170/18
f 326/174/20 323/175/19 324/172/19
f 328/176/21 325/177/20 326/174/20
f 330/178/22 327/179/21 328/176/21
f 332/180/23 329/181/22 330/178/22
f 334/182/24 331/183/23 332/180/23
f 336/184/25 333/185/24 334/182/24
f 338/186/26 335/187/25 336/184/25
f 340/188/27 337/189/26 338/186/26
f 342/190/28 339/191/27 340/188/27
f 344/192/29 341/193/28 342/190/28
f 346/194/30 343/195/29 344/192/29
f 348/196/31 345/197/30 346/194/30
f 350/198/32 347/199/31 348/196/31
f 352/200/32 349/201/32 350/198/32
f 354/202/32 351/203/32 352/200/32
f 356/204/32 353/205/32 354/202/32
f 358/206/32 355/207/32 356/204/32
f 360/208/32 357/209/32 358/206/32
f 362/210/32 359/211/32 360/208/32
f 364/212/32 361/213/32 362/210/32
f 366/214/32 363/215/32 364/212/32
f 368/216/32 365/217/32 366/214/32
f 370/218/32 367/219/32 368/216/32
f 372/220/33 369/221/32 370/218/32
f 374/222/34 371/223/33 372/220/33
f 376/224/35 373/225/34 374/222/34
f 378/226/36 375/227/35 376/224/35
f 380/228/37 377/229/36 378/226/36
f 382/230/38 379/231/37 380/228/37
f 384/232/39 381/233/38 382/230/38
f 386/234/40 383/235/39 384/232/39
f 388/236/41 385/237/40 386/234/40
f 390/238/42 387/239/41 388/236/41
f 392/240/43 389/241/42 390/238/42
f 394/242/44 391/243/43 392/240/43
f 396/244/45 393/245/44 394/242/44
f 398/246/46 395/247/45 396/244/45
f 400/248/47 397/249/48 398/246/46
f 402/250/49 399/251/47 400/248/47
f 404/252/50 401/253/49 402/250/49
f 406/254/51 403/255/50 404/252/50
f 408/256/52 405/257/51 406/254/51
f 410/258/53 407/259/52 408/256/52
f 412/260/54 409/261/53 410/258/53
f 414/262/55 411/263/54 412/260/54
f 416/264/56 413/265/55 414/262/55
f 418/266/57 415/267/56 416/264/56
f 420/268/58 417/269/57 418/266/57
f 422/270/59 419/271/58 420/268/58
f 424/272/60 421/273/59 422/270/59
f 426/274/60 423/275/60 424/272/60
f 428/276/60 425/277/60 426/274/60
f 430/278/60 427/279/60 428/276/60
f 432/280/60 429/281/60 430/278/60
f 434/282/60 431/283/60 432/280/60
f 436/284/60 433/285/60 434/282/60
f 438/286/60 435/287/60 436/284/60
f 440/288/60 437/289/60 438/286/60
f 442/290/60 439/291/60 440/288/60
f 444/292/60 441/293/60 442/290/60
f 446/294/61 443/295/60 444/292/60
f 448/296/62 445/297/61 446/294/61
f 450/298/63 447/299/62 448/296/62
f 452/300/64 449/301/63 450/298/63
f 454/302/65 451/303/64 452/300/64
f 456/304/66 453/305/65 454/302/65
f 458/306/67 455/307/66 456/304/66
f 460/308/68 457/309/67 458/306/67
f 462/310/69 459/311/68 460/308/68
f 464/312/70 461/313/69 462/310/69
f 466/314/71 463/315/70 464/312/70
f 468/316/72 465/317/71 466/314/71
f 470/318/73 467/319/72 468/316/72
f 472/320/74 469/321/73 470/318/73
f 474/322/75 471/323/74 472/320/74
f 476/324/76 473/325/75 474/322/75
f 478/326/77 475/327/76 476/324/76
f 480/328/78 477/329/77 478/326/77
f 482/330/79 479/331/78 480/328/78
f 484/332/80 481/333/79 482/330/79
f 486/334/81 483/335/80 484/332/80
f 488/336/82 485/337/81 486/334/81
f 490/338/83 487/339/82 488/336/82
f 492/340/84 489/341/85 490/338/83
f 494/342/86 491/343/87 492/340/84
f 496/344/88 493/345/86 494/342/86
f 300/346/6 495/347/88 496/344/88
f 500/348/89 497/77/90 498/151/90
f 502/349/91 499/350/89 500/348/89
f 504/351/92 501/352/91 502/349/91
f 506/353/93 503/354/92 504/351/92
f 508/355/94 505/356/93 506/353/93
f 510/357/95 507/358/94 508/355/94
f 512/359/96 509/360/95 510/357/95
f 514/361/97 511/362/96 512/359/96
f 516/363/98 513/364/97 514/361/97
f 518/365/99 515/366/98 516/363/98
f 520/367/100 517/368/99 518/365/99
f 522/369/101 519/370/100 520/367/100
f 524/371/102 521/372/101 522/369/101
f 526/373/103 523/374/102 524/371/102
f 528/375/104 525/376/103 526/373/103
f 530/377/105 527/378/104 528/375/104
f 532/379/106 529/380/105 530/377/105
f 534/381/107 531/382/106 532/379/106
f 536/383/108 533/384/107 534/381/107
f 538/385/109 535/386/108 536/383/108
f 540/387/110 537/388/109 538/385/109
f 542/389/111 539/390/110 540/387/110
f 544/391/112 541/392/111 542/389/111
f 546/393/113 543/394/112 544/391/112
f 548/395/114 545/396/113 546/393/113
f 550/397/115 547/26/114 548/395/114
f 552/398/116 549/399/115 550/397/115
f 554/400/117 551/401/116 552/398/116
f 556/402/118 553/403/117 554/400/117
f 558/404/119 555/405/118 556/402/118
f 560/406/120 557/407/119 558/404/119
f 562/408/121 559/409/120 560/406/120
f 564/410/122 561/411/121 562/408/121
f 566/412/123 563/413/122 564/410/122
f 568/414/124 565/415/123 566/412/123
f 570/416/125 567/417/124 568/414/124
f 572/418/126 569/419/125 570/416/125
f 574/420/127 571/421/126 572/418/126
f 576/422/128 573/423/127 574/420/127
f 578/424/129 575/425/128 576/422/128
f 580/426/130 577/427/129 578/424/129
f 582/428/131 579/429/130 580/426/130
f 584/430/132 581/431/131 582/428/131
f 586/432/133 583/433/132 584/430/132
f 588/434/134 585/435/133 586/432/133
f 590/436/135 587/437/134 588/434/134
f 592/438/136 589/439/135 590/436/135
f 594/440/137 591/441/136 592/438/136
f 596/442/138 593/443/137 594/440/137
f 498/346/90 595/444/138 596/442/138
f 302/150/5 301/153/5 299/77/6
f 304/152/7 303/155/7 301/153/5
f 306/154/8 305/157/10 303/155/7
f 308/156/9 307/159/9 305/157/10
f 310/158/11 309/161/11 307/159/9
f 312/160/12 311/163/12 309/161/11
f 314/162/13 313/165/13 311/163/12
f 316/164/14 315/167/16 313/165/13
f 318/166/15 317/169/15 315/167/16
f 320/168/17 319/171/17 317/169/15
f 322/170/18 321/173/18 319/171/17
f 324/172/19 323/175/19 321/173/18
f 326/174/20 325/177/20 323/175/19
f 328/176/21 327/179/21 325/177/20
f 330/178/22 329/181/22 327/179/21
f 332/180/23 331/183/23 329/181/22
f 334/182/24 333/185/24 331/183/23
f 336/184/25 335/187/25 333/185/24
f 338/186/26 337/189/26 335/187/25
f 340/188/27 339/191/27 337/189/26
f 342/190/28 341/193/28 339/191/27
f 344/192/29 343/195/29 341/193/28
f 346/194/30 345/197/30 343/195/29
f 348/196/31 347/199/31 345/197/30
f 350/198/32 349/201/32 347/199/31
f 352/200/32 351/203/32 349/201/32
f 354/202/32 353/205/32 351/203/32
f 356/204/32 355/207/32 353/205/32
f 358/206/32 357/209/32 355/207/32
f 360/208/32 359/211/32 357/209/32
f 362/210/32 361/213/32 359/211/32
f 364/212/32 363/215/32 361/213/32
f 366/214/32 365/217/32 363/215/32
f 368/216/32 367/219/32 365/217/32
f 370/218/32 369/221/32 367/219/32
f 372/220/33 371/223/33 369/221/32
f 374/222/34 373/225/34 371/223/33
f 376/224/35 375/227/35 373/225/34
f 378/226/36 377/229/36 375/227/35
f 380/228/37 379/231/37 377/229/36
f 382/230/38 381/233/38 379/231/37
f 384/232/39 383/235/39 381/233/38
f 386/234/40 385/237/40 383/235/39
f 388/236/41 387/239/41 385/237/40
f 390/238/42 389/241/42 387/239/41
f 392/240/43 391/243/43 389/241/42
f 394/242/44 393/245/44 391/243/43
f 396/244/45 395/247/45 393/245/44
f 398/246/46 397/249/48 395/247/45
f 400/248/47 399/251/47 397/249/48
f 402/250/49 401/253/49 399/251/47
f 404/252/50 403/255/50 401/253/49
f 406/254/51 405/257/51 403/255/50
f 408/256/52 407/259/52 405/257/51
f 410/258/53 409/261/53 407/259/52
f 412/260/54 411/263/54 409/261/53
f 414/262/55 413/265/55 411/263/54
f 416/264/56 415/267/56 413/265/55
f 418/266/57 417/269/57 415/267/56
f 420/268/58 419/271/58 417/269/57
f 422/270/59 421/273/59 419/271/58
f 424/272/60 423/275/60 421/273/59
f 426/274/60 425/277/60 423/275/60
f 428/276/60 427/279/60 425/277/60
f 430/278/60 429/281/60 427/279/60
f 432/280/60 431/283/60 429/281/60
f 434/282/60 433/285/60 431/283/60
f 436/284/60 435/287/60 433/285/60
f 438/286/60 437/289/60 435/287/60
f 440/288/60 439/291/60 437/289/60
f 442/290/60 441/293/60 439/291/60
f 444/292/60 443/295/60 441/293/60
f 446/294/61 445/297/61 443/295/60
f 448/296/62 447/299/62 445/297/61
f 450/298/63 449/301/63 447/299/62
f 452/300/64 451/303/64 449/301/63
f 454/302/65 453/305/65 451/303/64
f 456/304/66 455/307/66 453/305/65
f 458/306/67 457/309/67 455/307/66
f 460/308/68 459/311/68 457/309/67
f 462/310/69 461/313/69 459/311/68
f 464/312/70 463/315/70 461/313/69
f 466/314/71 465/317/71 463/315/70
f 468/316/72 467/319/72 465/317/71
f 470/318/73 469/321/73 467/319/72
f 472/320/74 471/323/74 469/321/73
f 474/322/75 473/325/75 471/323/74
f 476/324/76 475/327/76 473/325/75
f 478/326/77 477/329/77 475/327/76
f 480/328/78 479/331/78 477/329/77
f 482/330/79 481/333/79 479/331/78
f 484/332/80 483/335/80 481/333/79
f 486/334/81 485/337/81 483/335/80
f 488/336/82 487/339/82 485/337/81
f 490/338/83 489/341/85 487/339/82
f 492/340/84 491/343/87 489/341/85
f 494/342/86 493/345/86 491/343/87
f 496/344/88 495/347/88 493/345/86
f 300/346/6 299/149/6 495/347/88
f 500/348/89 499/350/89 497/77/90
f 502/349/91 501/352/91 499/350/89
f 504/351/92 503/354/92 501/352/91
f 506/353/93 505/356/93 503/354/92
f 508/355/94 507/358/94 505/356/93
f 510/357/95 509/360/95 507/358/94
f 512/359/96 511/362/96 509/360/95
f 514/361/97 513/364/97 511/362/96
f 516/363/98 515/366/98 513/364/97
f 518/365/99 517/368/99 515/366/98
f 520/367/100 519/370/100 517/368/99
f 522/369/101 521/372/101 519/370/100
f 524/371/102 523/374/102 521/372/101
f 526/373/103 525/376/103 523/374/102
f 528/375/104 527/378/104 525/376/103
f 530/377/105 529/380/105 527/378/104
f 532/379/106 531/382/106 529/380/105
f 534/381/107 533/384/107 531/382/106
f 536/383/108 535/386/108 533/384/107
f 538/385/109 537/388/109 535/386/108
f 540/387/110 539/390/110 537/388/109
f 542/389/111 541/392/111 539/390/110
f 544/391/112 543/394/112 541/392/111
f 546/393/113 545/396/113 543/394/112
f 548/395/114 547/26/114 545/396/113
f 550/397/115 549/399/115 547/26/114
f 552/398/116 551/401/116 549/399/115
f 554/400/117 553/403/117 551/401/116
f 556/402/118 555/405/118 553/403/117
f 558/404/119 557/407/119 555/405/118
f 560/406/120 559/409/120 557/407/119
f 562/408/121 561/411/121 559/409/120
f 564/410/122 563/413/122 561/411/121
f 566/412/123 565/415/123 563/413/122
f 568/414/124 567/417/124 565/415/123
f 570/416/125 569/419/125 567/417/124
f 572/418/126 571/421/126 569/419/125
f 574/420/127 573/423/127 571/421/126
f 576/422/128 575/425/128 573/423/127
f 578/424/129 577/427/129 575/425/128
f 580/426/130 579/429/130 577/427/129
f 582/428/131 581/431/131 579/429/130
f 584/430/132 583/433/132 581/431/131
f 586/432/133 585/435/133 583/433/132
f 588/434/134 587/437/134 585/435/133
f 590/436/135 589/439/135 587/437/134
f 592/438/136 591/441/136 589/439/135
f 594/440/137 593/443/137 591/441/136
f 596/442/138 595/444/138 593/443/137
f 498/346/90 497/149/90 595/444/138
