# Blender 4.1.1
# www.blender.org
mtllib ClearText_02.mtl
o テキスト.リ
v 0.192000 0.366928 -0.100000
v 0.192000 0.346759 -0.100000
v 0.192000 0.320063 -0.100000
v 0.192000 0.288407 -0.100000
v 0.192000 0.253363 -0.100000
v 0.192000 0.216500 -0.100000
v 0.192000 0.179387 -0.100000
v 0.192000 0.143593 -0.100000
v 0.192000 0.110688 -0.100000
v 0.192000 0.082241 -0.100000
v 0.192000 0.059822 -0.100000
v 0.192000 0.045000 -0.100000
v 0.191959 0.038597 -0.100000
v 0.191843 0.031940 -0.100000
v 0.191656 0.025109 -0.100000
v 0.191407 0.018185 -0.100000
v 0.191103 0.011247 -0.100000
v 0.190750 0.004375 -0.100000
v 0.190355 -0.002351 -0.100000
v 0.189926 -0.008852 -0.100000
v 0.189469 -0.015047 -0.100000
v 0.188991 -0.020856 -0.100000
v 0.188499 -0.026201 -0.100000
v 0.188000 -0.031000 -0.100000
v 0.280000 -0.031000 -0.100000
v 0.279482 -0.026907 -0.100000
v 0.278935 -0.022171 -0.100000
v 0.278375 -0.016859 -0.100000
v 0.277815 -0.011037 -0.100000
v 0.277268 -0.004770 -0.100000
v 0.276750 0.001875 -0.100000
v 0.276273 0.008833 -0.100000
v 0.275852 0.016037 -0.100000
v 0.275500 0.023422 -0.100000
v 0.275231 0.030921 -0.100000
v 0.275060 0.038469 -0.100000
v 0.275000 0.046000 -0.100000
v 0.275000 0.060802 -0.100000
v 0.275000 0.083167 -0.100000
v 0.275000 0.111531 -0.100000
v 0.275000 0.144333 -0.100000
v 0.275000 0.180010 -0.100000
v 0.275000 0.217000 -0.100000
v 0.275000 0.253740 -0.100000
v 0.275000 0.288667 -0.100000
v 0.275000 0.320219 -0.100000
v 0.275000 0.346833 -0.100000
v 0.275000 0.366948 -0.100000
v 0.275000 0.379000 -0.100000
v 0.275041 0.383835 -0.100000
v 0.275157 0.389264 -0.100000
v 0.275344 0.395172 -0.100000
v 0.275593 0.401444 -0.100000
v 0.275897 0.407967 -0.100000
v 0.276250 0.414625 -0.100000
v 0.276645 0.421304 -0.100000
v 0.277074 0.427889 -0.100000
v 0.277531 0.434266 -0.100000
v 0.278009 0.440319 -0.100000
v 0.278501 0.445936 -0.100000
v 0.279000 0.451000 -0.100000
v 0.188000 0.451000 -0.100000
v 0.188499 0.446050 -0.100000
v 0.188991 0.440736 -0.100000
v 0.189469 0.435109 -0.100000
v 0.189926 0.429222 -0.100000
v 0.190355 0.423127 -0.100000
v 0.190750 0.416875 -0.100000
v 0.191103 0.410519 -0.100000
v 0.191407 0.404111 -0.100000
v 0.191656 0.397703 -0.100000
v 0.191843 0.391347 -0.100000
v 0.191959 0.385096 -0.100000
v 0.192000 0.379000 -0.100000
v -0.273000 0.361135 -0.100000
v -0.273000 0.348750 -0.100000
v -0.273000 0.335156 -0.100000
v -0.273000 0.320667 -0.100000
v -0.273000 0.305594 -0.100000
v -0.273000 0.290250 -0.100000
v -0.273000 0.274948 -0.100000
v -0.273000 0.260000 -0.100000
v -0.273000 0.245719 -0.100000
v -0.273000 0.232417 -0.100000
v -0.273000 0.220406 -0.100000
v -0.273000 0.210000 -0.100000
v -0.272309 0.153257 -0.100000
v -0.270222 0.102639 -0.100000
v -0.266719 0.057562 -0.100000
v -0.261778 0.017444 -0.100000
v -0.255379 -0.018299 -0.100000
v -0.247500 -0.050250 -0.100000
v -0.238122 -0.078993 -0.100000
v -0.227222 -0.105111 -0.100000
v -0.214781 -0.129188 -0.100000
v -0.200778 -0.151806 -0.100000
v -0.185191 -0.173549 -0.100000
v -0.168000 -0.195000 -0.100000
v -0.151057 -0.213781 -0.100000
v -0.132870 -0.231162 -0.100000
v -0.113656 -0.247203 -0.100000
v -0.093630 -0.261963 -0.100000
v -0.073006 -0.275501 -0.100000
v -0.052000 -0.287875 -0.100000
v -0.030828 -0.299145 -0.100000
v -0.009704 -0.309370 -0.100000
v 0.011156 -0.318609 -0.100000
v 0.031537 -0.326921 -0.100000
v 0.051223 -0.334365 -0.100000
v 0.070000 -0.341000 -0.100000
v 0.135000 -0.272000 -0.100000
v 0.112155 -0.265888 -0.100000
v 0.089657 -0.259023 -0.100000
v 0.067562 -0.251359 -0.100000
v 0.045926 -0.242852 -0.100000
v 0.024803 -0.233455 -0.100000
v 0.004250 -0.223125 -0.100000
v -0.015678 -0.211815 -0.100000
v -0.034926 -0.199481 -0.100000
v -0.053438 -0.186078 -0.100000
v -0.071157 -0.171560 -0.100000
v -0.088030 -0.155883 -0.100000
v -0.104000 -0.139000 -0.100000
v -0.120548 -0.118228 -0.100000
v -0.134801 -0.097157 -0.100000
v -0.146922 -0.075406 -0.100000
v -0.157074 -0.052593 -0.100000
v -0.165421 -0.028334 -0.100000
v -0.172125 -0.002250 -0.100000
v -0.177350 0.026043 -0.100000
v -0.181259 0.056926 -0.100000
v -0.184016 0.090781 -0.100000
v -0.185782 0.127991 -0.100000
v -0.186723 0.168936 -0.100000
v -0.187000 0.214000 -0.100000
v -0.187000 0.224423 -0.100000
v -0.187000 0.236468 -0.100000
v -0.187000 0.249797 -0.100000
v -0.187000 0.264074 -0.100000
v -0.187000 0.278962 -0.100000
v -0.187000 0.294125 -0.100000
v -0.187000 0.309225 -0.100000
v -0.187000 0.323926 -0.100000
v -0.187000 0.337891 -0.100000
v -0.187000 0.350782 -0.100000
v -0.187000 0.362265 -0.100000
v -0.187000 0.372000 -0.100000
v -0.186959 0.380377 -0.100000
v -0.186838 0.388514 -0.100000
v -0.186641 0.396422 -0.100000
v -0.186370 0.404111 -0.100000
v -0.186031 0.411592 -0.100000
v -0.185625 0.418875 -0.100000
v -0.185157 0.425970 -0.100000
v -0.184630 0.432889 -0.100000
v -0.184047 0.439641 -0.100000
v -0.183412 0.446236 -0.100000
v -0.182729 0.452686 -0.100000
v -0.182000 0.459000 -0.100000
v -0.276000 0.459000 -0.100000
v -0.275521 0.452686 -0.100000
v -0.275083 0.446236 -0.100000
v -0.274688 0.439641 -0.100000
v -0.274333 0.432889 -0.100000
v -0.274021 0.425970 -0.100000
v -0.273750 0.418875 -0.100000
v -0.273521 0.411592 -0.100000
v -0.273333 0.404111 -0.100000
v -0.273188 0.396422 -0.100000
v -0.273083 0.388514 -0.100000
v -0.273021 0.380377 -0.100000
v -0.273000 0.372000 -0.100000
v 0.192000 0.366928 0.100000
v 0.192000 0.346759 0.100000
v 0.192000 0.320063 0.100000
v 0.192000 0.288407 0.100000
v 0.192000 0.253363 0.100000
v 0.192000 0.216500 0.100000
v 0.192000 0.179387 0.100000
v 0.192000 0.143593 0.100000
v 0.192000 0.110688 0.100000
v 0.192000 0.082241 0.100000
v 0.192000 0.059822 0.100000
v 0.192000 0.045000 0.100000
v 0.191959 0.038597 0.100000
v 0.191843 0.031940 0.100000
v 0.191656 0.025109 0.100000
v 0.191407 0.018185 0.100000
v 0.191103 0.011247 0.100000
v 0.190750 0.004375 0.100000
v 0.190355 -0.002351 0.100000
v 0.189926 -0.008852 0.100000
v 0.189469 -0.015047 0.100000
v 0.188991 -0.020856 0.100000
v 0.188499 -0.026201 0.100000
v 0.188000 -0.031000 0.100000
v 0.280000 -0.031000 0.100000
v 0.279482 -0.026907 0.100000
v 0.278935 -0.022171 0.100000
v 0.278375 -0.016859 0.100000
v 0.277815 -0.011037 0.100000
v 0.277268 -0.004770 0.100000
v 0.276750 0.001875 0.100000
v 0.276273 0.008833 0.100000
v 0.275852 0.016037 0.100000
v 0.275500 0.023422 0.100000
v 0.275231 0.030921 0.100000
v 0.275060 0.038469 0.100000
v 0.275000 0.046000 0.100000
v 0.275000 0.060802 0.100000
v 0.275000 0.083167 0.100000
v 0.275000 0.111531 0.100000
v 0.275000 0.144333 0.100000
v 0.275000 0.180010 0.100000
v 0.275000 0.217000 0.100000
v 0.275000 0.253740 0.100000
v 0.275000 0.288667 0.100000
v 0.275000 0.320219 0.100000
v 0.275000 0.346833 0.100000
v 0.275000 0.366948 0.100000
v 0.275000 0.379000 0.100000
v 0.275041 0.383835 0.100000
v 0.275157 0.389264 0.100000
v 0.275344 0.395172 0.100000
v 0.275593 0.401444 0.100000
v 0.275897 0.407967 0.100000
v 0.276250 0.414625 0.100000
v 0.276645 0.421304 0.100000
v 0.277074 0.427889 0.100000
v 0.277531 0.434266 0.100000
v 0.278009 0.440319 0.100000
v 0.278501 0.445936 0.100000
v 0.279000 0.451000 0.100000
v 0.188000 0.451000 0.100000
v 0.188499 0.446050 0.100000
v 0.188991 0.440736 0.100000
v 0.189469 0.435109 0.100000
v 0.189926 0.429222 0.100000
v 0.190355 0.423127 0.100000
v 0.190750 0.416875 0.100000
v 0.191103 0.410519 0.100000
v 0.191407 0.404111 0.100000
v 0.191656 0.397703 0.100000
v 0.191843 0.391347 0.100000
v 0.191959 0.385096 0.100000
v 0.192000 0.379000 0.100000
v -0.273000 0.361135 0.100000
v -0.273000 0.348750 0.100000
v -0.273000 0.335156 0.100000
v -0.273000 0.320667 0.100000
v -0.273000 0.305594 0.100000
v -0.273000 0.290250 0.100000
v -0.273000 0.274948 0.100000
v -0.273000 0.260000 0.100000
v -0.273000 0.245719 0.100000
v -0.273000 0.232417 0.100000
v -0.273000 0.220406 0.100000
v -0.273000 0.210000 0.100000
v -0.272309 0.153257 0.100000
v -0.270222 0.102639 0.100000
v -0.266719 0.057562 0.100000
v -0.261778 0.017444 0.100000
v -0.255379 -0.018299 0.100000
v -0.247500 -0.050250 0.100000
v -0.238122 -0.078993 0.100000
v -0.227222 -0.105111 0.100000
v -0.214781 -0.129188 0.100000
v -0.200778 -0.151806 0.100000
v -0.185191 -0.173549 0.100000
v -0.168000 -0.195000 0.100000
v -0.151057 -0.213781 0.100000
v -0.132870 -0.231162 0.100000
v -0.113656 -0.247203 0.100000
v -0.093630 -0.261963 0.100000
v -0.073006 -0.275501 0.100000
v -0.052000 -0.287875 0.100000
v -0.030828 -0.299145 0.100000
v -0.009704 -0.309370 0.100000
v 0.011156 -0.318609 0.100000
v 0.031537 -0.326921 0.100000
v 0.051223 -0.334365 0.100000
v 0.070000 -0.341000 0.100000
v 0.135000 -0.272000 0.100000
v 0.112155 -0.265888 0.100000
v 0.089657 -0.259023 0.100000
v 0.067562 -0.251359 0.100000
v 0.045926 -0.242852 0.100000
v 0.024803 -0.233455 0.100000
v 0.004250 -0.223125 0.100000
v -0.015678 -0.211815 0.100000
v -0.034926 -0.199481 0.100000
v -0.053438 -0.186078 0.100000
v -0.071157 -0.171560 0.100000
v -0.088030 -0.155883 0.100000
v -0.104000 -0.139000 0.100000
v -0.120548 -0.118228 0.100000
v -0.134801 -0.097157 0.100000
v -0.146922 -0.075406 0.100000
v -0.157074 -0.052593 0.100000
v -0.165421 -0.028334 0.100000
v -0.172125 -0.002250 0.100000
v -0.177350 0.026043 0.100000
v -0.181259 0.056926 0.100000
v -0.184016 0.090781 0.100000
v -0.185782 0.127991 0.100000
v -0.186723 0.168936 0.100000
v -0.187000 0.214000 0.100000
v -0.187000 0.224423 0.100000
v -0.187000 0.236468 0.100000
v -0.187000 0.249797 0.100000
v -0.187000 0.264074 0.100000
v -0.187000 0.278962 0.100000
v -0.187000 0.294125 0.100000
v -0.187000 0.309225 0.100000
v -0.187000 0.323926 0.100000
v -0.187000 0.337891 0.100000
v -0.187000 0.350782 0.100000
v -0.187000 0.362265 0.100000
v -0.187000 0.372000 0.100000
v -0.186959 0.380377 0.100000
v -0.186838 0.388514 0.100000
v -0.186641 0.396422 0.100000
v -0.186370 0.404111 0.100000
v -0.186031 0.411592 0.100000
v -0.185625 0.418875 0.100000
v -0.185157 0.425970 0.100000
v -0.184630 0.432889 0.100000
v -0.184047 0.439641 0.100000
v -0.183412 0.446236 0.100000
v -0.182729 0.452686 0.100000
v -0.182000 0.459000 0.100000
v -0.276000 0.459000 0.100000
v -0.275521 0.452686 0.100000
v -0.275083 0.446236 0.100000
v -0.274688 0.439641 0.100000
v -0.274333 0.432889 0.100000
v -0.274021 0.425970 0.100000
v -0.273750 0.418875 0.100000
v -0.273521 0.411592 0.100000
v -0.273333 0.404111 0.100000
v -0.273188 0.396422 0.100000
v -0.273083 0.388514 0.100000
v -0.273021 0.380377 0.100000
v -0.273000 0.372000 0.100000
v -0.273000 0.361135 0.100000
v -0.273000 0.361135 -0.100000
v -0.273000 0.348750 0.100000
v -0.273000 0.348750 -0.100000
v -0.273000 0.335156 0.100000
v -0.273000 0.335156 -0.100000
v -0.273000 0.320667 0.100000
v -0.273000 0.320667 -0.100000
v -0.273000 0.305594 0.100000
v -0.273000 0.305594 -0.100000
v -0.273000 0.290250 0.100000
v -0.273000 0.290250 -0.100000
v -0.273000 0.274948 0.100000
v -0.273000 0.274948 -0.100000
v -0.273000 0.260000 0.100000
v -0.273000 0.260000 -0.100000
v -0.273000 0.245719 0.100000
v -0.273000 0.245719 -0.100000
v -0.273000 0.232417 0.100000
v -0.273000 0.232417 -0.100000
v -0.273000 0.220406 0.100000
v -0.273000 0.220406 -0.100000
v -0.273000 0.210000 0.100000
v -0.273000 0.210000 -0.100000
v -0.272309 0.153257 0.100000
v -0.272309 0.153257 -0.100000
v -0.270222 0.102639 0.100000
v -0.270222 0.102639 -0.100000
v -0.266719 0.057562 0.100000
v -0.266719 0.057562 -0.100000
v -0.261778 0.017444 0.100000
v -0.261778 0.017444 -0.100000
v -0.255379 -0.018299 0.100000
v -0.255379 -0.018299 -0.100000
v -0.247500 -0.050250 0.100000
v -0.247500 -0.050250 -0.100000
v -0.238122 -0.078993 0.100000
v -0.238122 -0.078993 -0.100000
v -0.227222 -0.105111 0.100000
v -0.227222 -0.105111 -0.100000
v -0.214781 -0.129188 0.100000
v -0.214781 -0.129188 -0.100000
v -0.200778 -0.151806 0.100000
v -0.200778 -0.151806 -0.100000
v -0.185191 -0.173549 0.100000
v -0.185191 -0.173549 -0.100000
v -0.168000 -0.195000 0.100000
v -0.168000 -0.195000 -0.100000
v -0.151057 -0.213781 0.100000
v -0.151057 -0.213781 -0.100000
v -0.132870 -0.231162 0.100000
v -0.132870 -0.231162 -0.100000
v -0.113656 -0.247203 0.100000
v -0.113656 -0.247203 -0.100000
v -0.093630 -0.261963 0.100000
v -0.093630 -0.261963 -0.100000
v -0.073006 -0.275501 0.100000
v -0.073006 -0.275501 -0.100000
v -0.052000 -0.287875 0.100000
v -0.052000 -0.287875 -0.100000
v -0.030828 -0.299145 0.100000
v -0.030828 -0.299145 -0.100000
v -0.009704 -0.309370 0.100000
v -0.009704 -0.309370 -0.100000
v 0.011156 -0.318609 0.100000
v 0.011156 -0.318609 -0.100000
v 0.031537 -0.326921 0.100000
v 0.031537 -0.326921 -0.100000
v 0.051223 -0.334365 0.100000
v 0.051223 -0.334365 -0.100000
v 0.070000 -0.341000 0.100000
v 0.070000 -0.341000 -0.100000
v 0.135000 -0.272000 0.100000
v 0.135000 -0.272000 -0.100000
v 0.112155 -0.265888 0.100000
v 0.112155 -0.265888 -0.100000
v 0.089657 -0.259023 0.100000
v 0.089657 -0.259023 -0.100000
v 0.067562 -0.251359 0.100000
v 0.067562 -0.251359 -0.100000
v 0.045926 -0.242852 0.100000
v 0.045926 -0.242852 -0.100000
v 0.024803 -0.233455 0.100000
v 0.024803 -0.233455 -0.100000
v 0.004250 -0.223125 0.100000
v 0.004250 -0.223125 -0.100000
v -0.015678 -0.211815 0.100000
v -0.015678 -0.211815 -0.100000
v -0.034926 -0.199481 0.100000
v -0.034926 -0.199481 -0.100000
v -0.053438 -0.186078 0.100000
v -0.053438 -0.186078 -0.100000
v -0.071157 -0.171560 0.100000
v -0.071157 -0.171560 -0.100000
v -0.088030 -0.155883 0.100000
v -0.088030 -0.155883 -0.100000
v -0.104000 -0.139000 0.100000
v -0.104000 -0.139000 -0.100000
v -0.120548 -0.118228 0.100000
v -0.120548 -0.118228 -0.100000
v -0.134801 -0.097157 0.100000
v -0.134801 -0.097157 -0.100000
v -0.146922 -0.075406 0.100000
v -0.146922 -0.075406 -0.100000
v -0.157074 -0.052593 0.100000
v -0.157074 -0.052593 -0.100000
v -0.165421 -0.028334 0.100000
v -0.165421 -0.028334 -0.100000
v -0.172125 -0.002250 0.100000
v -0.172125 -0.002250 -0.100000
v -0.177350 0.026043 0.100000
v -0.177350 0.026043 -0.100000
v -0.181259 0.056926 0.100000
v -0.181259 0.056926 -0.100000
v -0.184016 0.090781 0.100000
v -0.184016 0.090781 -0.100000
v -0.185782 0.127991 0.100000
v -0.185782 0.127991 -0.100000
v -0.186723 0.168936 0.100000
v -0.186723 0.168936 -0.100000
v -0.187000 0.214000 0.100000
v -0.187000 0.214000 -0.100000
v -0.187000 0.224423 0.100000
v -0.187000 0.224423 -0.100000
v -0.187000 0.236468 0.100000
v -0.187000 0.236468 -0.100000
v -0.187000 0.249797 0.100000
v -0.187000 0.249797 -0.100000
v -0.187000 0.264074 0.100000
v -0.187000 0.264074 -0.100000
v -0.187000 0.278962 0.100000
v -0.187000 0.278962 -0.100000
v -0.187000 0.294125 0.100000
v -0.187000 0.294125 -0.100000
v -0.187000 0.309225 0.100000
v -0.187000 0.309225 -0.100000
v -0.187000 0.323926 0.100000
v -0.187000 0.323926 -0.100000
v -0.187000 0.337891 0.100000
v -0.187000 0.337891 -0.100000
v -0.187000 0.350782 0.100000
v -0.187000 0.350782 -0.100000
v -0.187000 0.362265 0.100000
v -0.187000 0.362265 -0.100000
v -0.187000 0.372000 0.100000
v -0.187000 0.372000 -0.100000
v -0.186959 0.380377 0.100000
v -0.186959 0.380377 -0.100000
v -0.186838 0.388514 0.100000
v -0.186838 0.388514 -0.100000
v -0.186641 0.396422 0.100000
v -0.186641 0.396422 -0.100000
v -0.186370 0.404111 0.100000
v -0.186370 0.404111 -0.100000
v -0.186031 0.411592 0.100000
v -0.186031 0.411592 -0.100000
v -0.185625 0.418875 0.100000
v -0.185625 0.418875 -0.100000
v -0.185157 0.425970 0.100000
v -0.185157 0.425970 -0.100000
v -0.184630 0.432889 0.100000
v -0.184630 0.432889 -0.100000
v -0.184047 0.439641 0.100000
v -0.184047 0.439641 -0.100000
v -0.183412 0.446236 0.100000
v -0.183412 0.446236 -0.100000
v -0.182729 0.452686 0.100000
v -0.182729 0.452686 -0.100000
v -0.182000 0.459000 0.100000
v -0.182000 0.459000 -0.100000
v -0.276000 0.459000 0.100000
v -0.276000 0.459000 -0.100000
v -0.275521 0.452686 0.100000
v -0.275521 0.452686 -0.100000
v -0.275083 0.446236 0.100000
v -0.275083 0.446236 -0.100000
v -0.274688 0.439641 0.100000
v -0.274688 0.439641 -0.100000
v -0.274333 0.432889 0.100000
v -0.274333 0.432889 -0.100000
v -0.274021 0.425970 0.100000
v -0.274021 0.425970 -0.100000
v -0.273750 0.418875 0.100000
v -0.273750 0.418875 -0.100000
v -0.273521 0.411592 0.100000
v -0.273521 0.411592 -0.100000
v -0.273333 0.404111 0.100000
v -0.273333 0.404111 -0.100000
v -0.273188 0.396422 0.100000
v -0.273188 0.396422 -0.100000
v -0.273083 0.388514 0.100000
v -0.273083 0.388514 -0.100000
v -0.273021 0.380377 0.100000
v -0.273021 0.380377 -0.100000
v -0.273000 0.372000 0.100000
v -0.273000 0.372000 -0.100000
v 0.192000 0.366928 0.100000
v 0.192000 0.366928 -0.100000
v 0.192000 0.346759 0.100000
v 0.192000 0.346759 -0.100000
v 0.192000 0.320063 0.100000
v 0.192000 0.320063 -0.100000
v 0.192000 0.288407 0.100000
v 0.192000 0.288407 -0.100000
v 0.192000 0.253363 0.100000
v 0.192000 0.253363 -0.100000
v 0.192000 0.216500 0.100000
v 0.192000 0.216500 -0.100000
v 0.192000 0.179387 0.100000
v 0.192000 0.179387 -0.100000
v 0.192000 0.143593 0.100000
v 0.192000 0.143593 -0.100000
v 0.192000 0.110688 0.100000
v 0.192000 0.110688 -0.100000
v 0.192000 0.082241 0.100000
v 0.192000 0.082241 -0.100000
v 0.192000 0.059822 0.100000
v 0.192000 0.059822 -0.100000
v 0.192000 0.045000 0.100000
v 0.192000 0.045000 -0.100000
v 0.191959 0.038597 0.100000
v 0.191959 0.038597 -0.100000
v 0.191843 0.031940 0.100000
v 0.191843 0.031940 -0.100000
v 0.191656 0.025109 0.100000
v 0.191656 0.025109 -0.100000
v 0.191407 0.018185 0.100000
v 0.191407 0.018185 -0.100000
v 0.191103 0.011247 0.100000
v 0.191103 0.011247 -0.100000
v 0.190750 0.004375 0.100000
v 0.190750 0.004375 -0.100000
v 0.190355 -0.002351 0.100000
v 0.190355 -0.002351 -0.100000
v 0.189926 -0.008852 0.100000
v 0.189926 -0.008852 -0.100000
v 0.189469 -0.015047 0.100000
v 0.189469 -0.015047 -0.100000
v 0.188991 -0.020856 0.100000
v 0.188991 -0.020856 -0.100000
v 0.188499 -0.026201 0.100000
v 0.188499 -0.026201 -0.100000
v 0.188000 -0.031000 0.100000
v 0.188000 -0.031000 -0.100000
v 0.280000 -0.031000 0.100000
v 0.280000 -0.031000 -0.100000
v 0.279482 -0.026907 0.100000
v 0.279482 -0.026907 -0.100000
v 0.278935 -0.022171 0.100000
v 0.278935 -0.022171 -0.100000
v 0.278375 -0.016859 0.100000
v 0.278375 -0.016859 -0.100000
v 0.277815 -0.011037 0.100000
v 0.277815 -0.011037 -0.100000
v 0.277268 -0.004770 0.100000
v 0.277268 -0.004770 -0.100000
v 0.276750 0.001875 0.100000
v 0.276750 0.001875 -0.100000
v 0.276273 0.008833 0.100000
v 0.276273 0.008833 -0.100000
v 0.275852 0.016037 0.100000
v 0.275852 0.016037 -0.100000
v 0.275500 0.023422 0.100000
v 0.275500 0.023422 -0.100000
v 0.275231 0.030921 0.100000
v 0.275231 0.030921 -0.100000
v 0.275060 0.038469 0.100000
v 0.275060 0.038469 -0.100000
v 0.275000 0.046000 0.100000
v 0.275000 0.046000 -0.100000
v 0.275000 0.060802 0.100000
v 0.275000 0.060802 -0.100000
v 0.275000 0.083167 0.100000
v 0.275000 0.083167 -0.100000
v 0.275000 0.111531 0.100000
v 0.275000 0.111531 -0.100000
v 0.275000 0.144333 0.100000
v 0.275000 0.144333 -0.100000
v 0.275000 0.180010 0.100000
v 0.275000 0.180010 -0.100000
v 0.275000 0.217000 0.100000
v 0.275000 0.217000 -0.100000
v 0.275000 0.253740 0.100000
v 0.275000 0.253740 -0.100000
v 0.275000 0.288667 0.100000
v 0.275000 0.288667 -0.100000
v 0.275000 0.320219 0.100000
v 0.275000 0.320219 -0.100000
v 0.275000 0.346833 0.100000
v 0.275000 0.346833 -0.100000
v 0.275000 0.366948 0.100000
v 0.275000 0.366948 -0.100000
v 0.275000 0.379000 0.100000
v 0.275000 0.379000 -0.100000
v 0.275041 0.383835 0.100000
v 0.275041 0.383835 -0.100000
v 0.275157 0.389264 0.100000
v 0.275157 0.389264 -0.100000
v 0.275344 0.395172 0.100000
v 0.275344 0.395172 -0.100000
v 0.275593 0.401444 0.100000
v 0.275593 0.401444 -0.100000
v 0.275897 0.407967 0.100000
v 0.275897 0.407967 -0.100000
v 0.276250 0.414625 0.100000
v 0.276250 0.414625 -0.100000
v 0.276645 0.421304 0.100000
v 0.276645 0.421304 -0.100000
v 0.277074 0.427889 0.100000
v 0.277074 0.427889 -0.100000
v 0.277531 0.434266 0.100000
v 0.277531 0.434266 -0.100000
v 0.278009 0.440319 0.100000
v 0.278009 0.440319 -0.100000
v 0.278501 0.445936 0.100000
v 0.278501 0.445936 -0.100000
v 0.279000 0.451000 0.100000
v 0.279000 0.451000 -0.100000
v 0.188000 0.451000 0.100000
v 0.188000 0.451000 -0.100000
v 0.188499 0.446050 0.100000
v 0.188499 0.446050 -0.100000
v 0.188991 0.440736 0.100000
v 0.188991 0.440736 -0.100000
v 0.189469 0.435109 0.100000
v 0.189469 0.435109 -0.100000
v 0.189926 0.429222 0.100000
v 0.189926 0.429222 -0.100000
v 0.190355 0.423127 0.100000
v 0.190355 0.423127 -0.100000
v 0.190750 0.416875 0.100000
v 0.190750 0.416875 -0.100000
v 0.191103 0.410519 0.100000
v 0.191103 0.410519 -0.100000
v 0.191407 0.404111 0.100000
v 0.191407 0.404111 -0.100000
v 0.191656 0.397703 0.100000
v 0.191656 0.397703 -0.100000
v 0.191843 0.391347 0.100000
v 0.191843 0.391347 -0.100000
v 0.191959 0.385096 0.100000
v 0.191959 0.385096 -0.100000
v 0.192000 0.379000 0.100000
v 0.192000 0.379000 -0.100000
vn -0.0000 -0.0000 -1.0000
vn -0.0000 -0.0000 1.0000
vn -1.0000 -0.0000 -0.0000
vn -1.0000 -0.0061 -0.0000
vn -0.9996 -0.0267 -0.0000
vn -0.9982 -0.0594 -0.0000
vn -0.9950 -0.0999 -0.0000
vn -0.9888 -0.1493 -0.0000
vn -0.9781 -0.2079 -0.0000
vn -0.9614 -0.2750 -0.0000
vn -0.9375 -0.3479 -0.0000
vn -0.9064 -0.4224 -0.0000
vn -0.8700 -0.4931 -0.0000
vn -0.8320 -0.5548 -0.0000
vn -0.7968 -0.6042 -0.0000
vn -0.7617 -0.6479 -0.0000
vn -0.7172 -0.6969 -0.0000
vn -0.6663 -0.7457 -0.0000
vn -0.6174 -0.7867 -0.0000
vn -0.5712 -0.8208 -0.0000
vn -0.5283 -0.8490 -0.0000
vn -0.4888 -0.8724 -0.0000
vn -0.4529 -0.8916 -0.0000
vn -0.4204 -0.9073 -0.0000
vn -0.3913 -0.9202 -0.0000
vn -0.3657 -0.9307 -0.0000
vn -0.3434 -0.9392 -0.0000
vn 0.2356 -0.9719 -0.0000
vn 0.9619 0.2734 -0.0000
vn 0.2355 -0.9719 -0.0000
vn 0.2752 0.9614 -0.0000
vn 0.3098 0.9508 -0.0000
vn 0.3469 0.9379 -0.0000
vn 0.3863 0.9224 -0.0000
vn 0.4279 0.9038 -0.0000
vn 0.4715 0.8819 -0.0000
vn 0.5167 0.8561 -0.0000
vn 0.5632 0.8263 -0.0000
vn 0.6104 0.7921 -0.0000
vn 0.6575 0.7534 -0.0000
vn 0.7039 0.7103 -0.0000
vn 0.7550 0.6557 -0.0000
vn 0.8058 0.5921 -0.0000
vn 0.8517 0.5240 -0.0000
vn 0.8945 0.4471 -0.0000
vn 0.9305 0.3663 -0.0000
vn 0.9578 0.2874 -0.0000
vn 0.9765 0.2154 -0.0000
vn 0.9881 0.1537 -0.0000
vn 0.9946 0.1034 -0.0000
vn 0.9979 0.0643 -0.0000
vn 0.9994 0.0352 -0.0000
vn 0.9999 0.0146 -0.0000
vn 1.0000 0.0031 -0.0000
vn 1.0000 -0.0000 -0.0000
vn 1.0000 -0.0025 -0.0000
vn 1.0000 -0.0099 -0.0000
vn 0.9998 -0.0199 -0.0000
vn 0.9995 -0.0300 -0.0000
vn 0.9992 -0.0402 -0.0000
vn 0.9987 -0.0505 -0.0000
vn 0.9982 -0.0607 -0.0000
vn 0.9975 -0.0709 -0.0000
vn 0.9967 -0.0810 -0.0000
vn 0.9959 -0.0909 -0.0000
vn 0.9949 -0.1006 -0.0000
vn 0.9939 -0.1100 -0.0000
vn 0.7465 0.6653 -0.0000
vn -0.7334 0.6798 -0.0000
vn -0.9974 -0.0717 -0.0000
vn -0.9980 -0.0638 -0.0000
vn -0.9984 -0.0561 -0.0000
vn -0.9988 -0.0488 -0.0000
vn -0.9991 -0.0416 -0.0000
vn -0.9994 -0.0348 -0.0000
vn -0.9996 -0.0282 -0.0000
vn -0.9998 -0.0220 -0.0000
vn -0.9996 -0.0283 -0.0000
vn -0.9999 -0.0161 -0.0000
vn -0.9999 -0.0104 -0.0000
vn -1.0000 -0.0051 -0.0000
vn -1.0000 -0.0012 -0.0000
vn -1.0000 0.0032 -0.0000
vn -0.9999 0.0119 -0.0000
vn -0.9997 0.0224 -0.0000
vn -0.9995 0.0316 -0.0000
vn -0.9992 0.0399 -0.0000
vn -0.9989 0.0476 -0.0000
vn -0.9985 0.0549 -0.0000
vn -0.9981 0.0622 -0.0000
vn -0.9976 0.0698 -0.0000
vn -0.9970 0.0778 -0.0000
vn -0.9962 0.0868 -0.0000
vn -0.9952 0.0975 -0.0000
vn -0.7428 -0.6695 -0.0000
vn 0.7502 -0.6612 -0.0000
vn 0.9928 0.1201 -0.0000
vn 0.9940 0.1097 -0.0000
vn 0.9950 0.1003 -0.0000
vn 0.9940 0.1098 -0.0000
vn 0.9958 0.0913 -0.0000
vn 0.9966 0.0823 -0.0000
vn 0.9973 0.0731 -0.0000
vn 0.9980 0.0634 -0.0000
vn 0.9986 0.0530 -0.0000
vn 0.9991 0.0417 -0.0000
vn 0.9996 0.0292 -0.0000
vn 0.9999 0.0153 -0.0000
vn 1.0000 0.0040 -0.0000
vn 1.0000 -0.0042 -0.0000
vn 0.9999 -0.0150 -0.0000
vn 0.9996 -0.0265 -0.0000
vn 0.9994 -0.0356 -0.0000
vn 0.9991 -0.0431 -0.0000
vn 0.9988 -0.0498 -0.0000
vn 0.9984 -0.0560 -0.0000
vn 0.9981 -0.0620 -0.0000
vn 0.9977 -0.0683 -0.0000
vn 0.9972 -0.0751 -0.0000
vn 0.9966 -0.0830 -0.0000
vn 0.9957 -0.0926 -0.0000
vn 0.7410 0.6716 -0.0000
vn -0.7417 0.6707 -0.0000
vn 0.7410 0.6715 -0.0000
vn -0.9954 -0.0962 -0.0000
vn -0.9961 -0.0884 -0.0000
vn -0.9967 -0.0810 -0.0000
vn -0.9973 -0.0738 -0.0000
vn -0.9978 -0.0666 -0.0000
vn -0.9982 -0.0592 -0.0000
vn -0.9987 -0.0515 -0.0000
vn -0.9991 -0.0431 -0.0000
vn -0.9994 -0.0340 -0.0000
vn -0.9997 -0.0240 -0.0000
vn -0.9994 -0.0341 -0.0000
vn -0.9999 -0.0127 -0.0000
vn -1.0000 -0.0033 -0.0000
vt 0.918129 0.000000
vt 0.929825 0.000000
vt 0.923977 0.000000
vt 0.935673 0.000000
vt 0.912281 0.000000
vt 0.941520 0.000000
vt 0.906433 0.000000
vt 0.947368 0.000000
vt 0.900585 0.000000
vt 0.953216 0.000000
vt 0.894737 0.000000
vt 0.959064 0.000000
vt 0.888889 0.000000
vt 0.964912 0.000000
vt 0.883041 0.000000
vt 0.970760 0.000000
vt 0.877193 0.000000
vt 0.976608 0.000000
vt 0.871345 0.000000
vt 0.982456 0.000000
vt 0.865497 0.000000
vt 0.988304 0.000000
vt 0.859649 0.000000
vt 0.994152 0.000000
vt 0.853801 0.000000
vt 1.000000 0.000000
vt 0.847953 0.000000
vt 0.432749 0.000000
vt 0.842105 0.000000
vt 0.438596 0.000000
vt 0.836257 0.000000
vt 0.444444 0.000000
vt 0.830409 0.000000
vt 0.450292 0.000000
vt 0.824561 0.000000
vt 0.456140 0.000000
vt 0.818713 0.000000
vt 0.461988 0.000000
vt 0.812865 0.000000
vt 0.467836 0.000000
vt 0.807018 0.000000
vt 0.473684 0.000000
vt 0.801170 0.000000
vt 0.479532 0.000000
vt 0.795322 0.000000
vt 0.485380 0.000000
vt 0.789474 0.000000
vt 0.491228 0.000000
vt 0.783626 0.000000
vt 0.497076 0.000000
vt 0.777778 0.000000
vt 0.502924 0.000000
vt 0.771930 0.000000
vt 0.508772 0.000000
vt 0.766082 0.000000
vt 0.514620 0.000000
vt 0.760234 0.000000
vt 0.520468 0.000000
vt 0.754386 0.000000
vt 0.748538 0.000000
vt 0.526316 0.000000
vt 0.742690 0.000000
vt 0.532164 0.000000
vt 0.736842 0.000000
vt 0.538012 0.000000
vt 0.730994 0.000000
vt 0.725146 0.000000
vt 0.543860 0.000000
vt 0.719298 0.000000
vt 0.549708 0.000000
vt 0.713450 0.000000
vt 0.555556 0.000000
vt 0.707602 0.000000
vt 0.561404 0.000000
vt 0.701754 0.000000
vt 0.695906 0.000000
vt 0.567251 0.000000
vt 0.690058 0.000000
vt 0.573099 0.000000
vt 0.684211 0.000000
vt 0.678363 0.000000
vt 0.578947 0.000000
vt 0.672515 0.000000
vt 0.584795 0.000000
vt 0.666667 0.000000
vt 0.660819 0.000000
vt 0.590643 0.000000
vt 0.654971 0.000000
vt 0.649123 0.000000
vt 0.596491 0.000000
vt 0.643275 0.000000
vt 0.637427 0.000000
vt 0.602339 0.000000
vt 0.608187 0.000000
vt 0.614035 0.000000
vt 0.619883 0.000000
vt 0.625731 0.000000
vt 0.631579 0.000000
vt 0.345029 0.000000
vt 0.356725 0.000000
vt 0.350877 0.000000
vt 0.362573 0.000000
vt 0.368421 0.000000
vt 0.339181 0.000000
vt 0.374269 0.000000
vt 0.333333 0.000000
vt 0.380117 0.000000
vt 0.327485 0.000000
vt 0.385965 0.000000
vt 0.321637 0.000000
vt 0.391813 0.000000
vt 0.315789 0.000000
vt 0.397661 0.000000
vt 0.309942 0.000000
vt 0.403509 0.000000
vt 0.304094 0.000000
vt 0.409357 0.000000
vt 0.298246 0.000000
vt 0.415205 0.000000
vt 0.292398 0.000000
vt 0.421053 0.000000
vt 0.286550 0.000000
vt 0.426901 0.000000
vt 0.280702 0.000000
vt 0.274854 0.000000
vt 0.000000 0.000000
vt 0.269006 0.000000
vt 0.005848 0.000000
vt 0.263158 0.000000
vt 0.011696 0.000000
vt 0.257310 0.000000
vt 0.017544 0.000000
vt 0.251462 0.000000
vt 0.023392 0.000000
vt 0.245614 0.000000
vt 0.029240 0.000000
vt 0.239766 0.000000
vt 0.035088 0.000000
vt 0.233918 0.000000
vt 0.040936 0.000000
vt 0.228070 0.000000
vt 0.046784 0.000000
vt 0.222222 0.000000
vt 0.052632 0.000000
vt 0.216374 0.000000
vt 0.058480 0.000000
vt 0.210526 0.000000
vt 0.064327 0.000000
vt 0.204678 0.000000
vt 0.070175 0.000000
vt 0.076023 0.000000
vt 0.198830 0.000000
vt 0.081871 0.000000
vt 0.192982 0.000000
vt 0.087719 0.000000
vt 0.187135 0.000000
vt 0.093567 0.000000
vt 0.181287 0.000000
vt 0.099415 0.000000
vt 0.175439 0.000000
vt 0.105263 0.000000
vt 0.169591 0.000000
vt 0.111111 0.000000
vt 0.163743 0.000000
vt 0.116959 0.000000
vt 0.157895 0.000000
vt 0.122807 0.000000
vt 0.152047 0.000000
vt 0.128655 0.000000
vt 0.146199 0.000000
vt 0.134503 0.000000
vt 0.140351 0.000000
vt 0.010204 1.000000
vt 0.000000 1.000000
vt 0.020408 1.000000
vt 0.010204 0.000000
vt 0.030612 1.000000
vt 0.020408 0.000000
vt 0.040816 1.000000
vt 0.030612 0.000000
vt 0.051020 1.000000
vt 0.040816 0.000000
vt 0.061224 1.000000
vt 0.051020 0.000000
vt 0.071429 1.000000
vt 0.061224 0.000000
vt 0.081633 1.000000
vt 0.071429 0.000000
vt 0.091837 1.000000
vt 0.081633 0.000000
vt 0.102041 1.000000
vt 0.091837 0.000000
vt 0.112245 1.000000
vt 0.102041 0.000000
vt 0.122449 1.000000
vt 0.112245 0.000000
vt 0.132653 1.000000
vt 0.122449 0.000000
vt 0.142857 1.000000
vt 0.132653 0.000000
vt 0.153061 1.000000
vt 0.142857 0.000000
vt 0.163265 1.000000
vt 0.153061 0.000000
vt 0.173469 1.000000
vt 0.163265 0.000000
vt 0.183673 1.000000
vt 0.173469 0.000000
vt 0.193878 1.000000
vt 0.183673 0.000000
vt 0.204082 1.000000
vt 0.193878 0.000000
vt 0.214286 1.000000
vt 0.204082 0.000000
vt 0.224490 1.000000
vt 0.214286 0.000000
vt 0.234694 1.000000
vt 0.224490 0.000000
vt 0.244898 1.000000
vt 0.234694 0.000000
vt 0.255102 1.000000
vt 0.244898 0.000000
vt 0.265306 1.000000
vt 0.255102 0.000000
vt 0.275510 1.000000
vt 0.265306 0.000000
vt 0.285714 1.000000
vt 0.275510 0.000000
vt 0.295918 1.000000
vt 0.285714 0.000000
vt 0.306122 1.000000
vt 0.295918 0.000000
vt 0.316327 1.000000
vt 0.306122 0.000000
vt 0.326531 1.000000
vt 0.316327 0.000000
vt 0.336735 1.000000
vt 0.326531 0.000000
vt 0.346939 1.000000
vt 0.336735 0.000000
vt 0.357143 1.000000
vt 0.346939 0.000000
vt 0.367347 1.000000
vt 0.357143 0.000000
vt 0.377551 1.000000
vt 0.367347 0.000000
vt 0.387755 1.000000
vt 0.377551 0.000000
vt 0.397959 1.000000
vt 0.387755 0.000000
vt 0.408163 1.000000
vt 0.397959 0.000000
vt 0.418367 1.000000
vt 0.408163 0.000000
vt 0.428571 1.000000
vt 0.418367 0.000000
vt 0.438776 1.000000
vt 0.428571 0.000000
vt 0.448980 1.000000
vt 0.438776 0.000000
vt 0.459184 1.000000
vt 0.448980 0.000000
vt 0.469388 1.000000
vt 0.459184 0.000000
vt 0.479592 1.000000
vt 0.469388 0.000000
vt 0.489796 1.000000
vt 0.479592 0.000000
vt 0.500000 1.000000
vt 0.489796 0.000000
vt 0.510204 1.000000
vt 0.500000 0.000000
vt 0.520408 1.000000
vt 0.510204 0.000000
vt 0.530612 1.000000
vt 0.520408 0.000000
vt 0.540816 1.000000
vt 0.530612 0.000000
vt 0.551020 1.000000
vt 0.540816 0.000000
vt 0.561224 1.000000
vt 0.551020 0.000000
vt 0.571429 1.000000
vt 0.561224 0.000000
vt 0.581633 1.000000
vt 0.571429 0.000000
vt 0.591837 1.000000
vt 0.581633 0.000000
vt 0.602041 1.000000
vt 0.591837 0.000000
vt 0.612245 1.000000
vt 0.602041 0.000000
vt 0.622449 1.000000
vt 0.612245 0.000000
vt 0.632653 1.000000
vt 0.622449 0.000000
vt 0.642857 1.000000
vt 0.632653 0.000000
vt 0.653061 1.000000
vt 0.642857 0.000000
vt 0.663265 1.000000
vt 0.653061 0.000000
vt 0.673469 1.000000
vt 0.663265 0.000000
vt 0.683673 1.000000
vt 0.673469 0.000000
vt 0.693878 1.000000
vt 0.683673 0.000000
vt 0.704082 1.000000
vt 0.693878 0.000000
vt 0.714286 1.000000
vt 0.704082 0.000000
vt 0.724490 1.000000
vt 0.714286 0.000000
vt 0.734694 1.000000
vt 0.724490 0.000000
vt 0.744898 1.000000
vt 0.734694 0.000000
vt 0.755102 1.000000
vt 0.744898 0.000000
vt 0.765306 1.000000
vt 0.755102 0.000000
vt 0.775510 1.000000
vt 0.765306 0.000000
vt 0.785714 1.000000
vt 0.775510 0.000000
vt 0.795918 1.000000
vt 0.785714 0.000000
vt 0.806122 1.000000
vt 0.795918 0.000000
vt 0.816327 1.000000
vt 0.806122 0.000000
vt 0.826531 1.000000
vt 0.816327 0.000000
vt 0.836735 1.000000
vt 0.826531 0.000000
vt 0.846939 1.000000
vt 0.836735 0.000000
vt 0.857143 1.000000
vt 0.846939 0.000000
vt 0.867347 1.000000
vt 0.857143 0.000000
vt 0.877551 1.000000
vt 0.867347 0.000000
vt 0.887755 1.000000
vt 0.877551 0.000000
vt 0.897959 1.000000
vt 0.887755 0.000000
vt 0.908163 1.000000
vt 0.897959 0.000000
vt 0.918367 1.000000
vt 0.908163 0.000000
vt 0.928571 1.000000
vt 0.918367 0.000000
vt 0.938776 1.000000
vt 0.928571 0.000000
vt 0.948980 1.000000
vt 0.938776 0.000000
vt 0.959184 1.000000
vt 0.948980 0.000000
vt 0.969388 1.000000
vt 0.959184 0.000000
vt 0.979592 1.000000
vt 0.969388 0.000000
vt 0.989796 1.000000
vt 0.979592 0.000000
vt 1.000000 1.000000
vt 0.989796 0.000000
vt 0.013514 1.000000
vt 0.027027 1.000000
vt 0.013514 0.000000
vt 0.040541 1.000000
vt 0.027027 0.000000
vt 0.054054 1.000000
vt 0.040541 0.000000
vt 0.067568 1.000000
vt 0.054054 0.000000
vt 0.081081 1.000000
vt 0.067568 0.000000
vt 0.094595 1.000000
vt 0.081081 0.000000
vt 0.108108 1.000000
vt 0.094595 0.000000
vt 0.121622 1.000000
vt 0.108108 0.000000
vt 0.135135 1.000000
vt 0.121622 0.000000
vt 0.148649 1.000000
vt 0.135135 0.000000
vt 0.162162 1.000000
vt 0.148649 0.000000
vt 0.175676 1.000000
vt 0.162162 0.000000
vt 0.189189 1.000000
vt 0.175676 0.000000
vt 0.202703 1.000000
vt 0.189189 0.000000
vt 0.216216 1.000000
vt 0.202703 0.000000
vt 0.229730 1.000000
vt 0.216216 0.000000
vt 0.243243 1.000000
vt 0.229730 0.000000
vt 0.256757 1.000000
vt 0.243243 0.000000
vt 0.270270 1.000000
vt 0.256757 0.000000
vt 0.283784 1.000000
vt 0.270270 0.000000
vt 0.297297 1.000000
vt 0.283784 0.000000
vt 0.310811 1.000000
vt 0.297297 0.000000
vt 0.324324 1.000000
vt 0.310811 0.000000
vt 0.337838 1.000000
vt 0.324324 0.000000
vt 0.351351 1.000000
vt 0.337838 0.000000
vt 0.364865 1.000000
vt 0.351351 0.000000
vt 0.378378 1.000000
vt 0.364865 0.000000
vt 0.391892 1.000000
vt 0.378378 0.000000
vt 0.405405 1.000000
vt 0.391892 0.000000
vt 0.418919 1.000000
vt 0.405405 0.000000
vt 0.432432 1.000000
vt 0.418919 0.000000
vt 0.445946 1.000000
vt 0.432432 0.000000
vt 0.459459 1.000000
vt 0.445946 0.000000
vt 0.472973 1.000000
vt 0.459459 0.000000
vt 0.486486 1.000000
vt 0.472973 0.000000
vt 0.486486 0.000000
vt 0.513514 1.000000
vt 0.527027 1.000000
vt 0.513514 0.000000
vt 0.540541 1.000000
vt 0.527027 0.000000
vt 0.554054 1.000000
vt 0.540541 0.000000
vt 0.567568 1.000000
vt 0.554054 0.000000
vt 0.581081 1.000000
vt 0.567568 0.000000
vt 0.594595 1.000000
vt 0.581081 0.000000
vt 0.608108 1.000000
vt 0.594595 0.000000
vt 0.621622 1.000000
vt 0.608108 0.000000
vt 0.635135 1.000000
vt 0.621622 0.000000
vt 0.648649 1.000000
vt 0.635135 0.000000
vt 0.662162 1.000000
vt 0.648649 0.000000
vt 0.675676 1.000000
vt 0.662162 0.000000
vt 0.689189 1.000000
vt 0.675676 0.000000
vt 0.702703 1.000000
vt 0.689189 0.000000
vt 0.716216 1.000000
vt 0.702703 0.000000
vt 0.729730 1.000000
vt 0.716216 0.000000
vt 0.743243 1.000000
vt 0.729730 0.000000
vt 0.756757 1.000000
vt 0.743243 0.000000
vt 0.770270 1.000000
vt 0.756757 0.000000
vt 0.783784 1.000000
vt 0.770270 0.000000
vt 0.797297 1.000000
vt 0.783784 0.000000
vt 0.810811 1.000000
vt 0.797297 0.000000
vt 0.824324 1.000000
vt 0.810811 0.000000
vt 0.837838 1.000000
vt 0.824324 0.000000
vt 0.851351 1.000000
vt 0.837838 0.000000
vt 0.864865 1.000000
vt 0.851351 0.000000
vt 0.878378 1.000000
vt 0.864865 0.000000
vt 0.891892 1.000000
vt 0.878378 0.000000
vt 0.905405 1.000000
vt 0.891892 0.000000
vt 0.918919 1.000000
vt 0.905405 0.000000
vt 0.932432 1.000000
vt 0.918919 0.000000
vt 0.945946 1.000000
vt 0.932432 0.000000
vt 0.959459 1.000000
vt 0.945946 0.000000
vt 0.972973 1.000000
vt 0.959459 0.000000
vt 0.986486 1.000000
vt 0.972973 0.000000
vt 0.986486 0.000000
s 0
usemtl マテリアル.002
f 158/1/1 160/2/1 159/3/1
f 158/1/1 161/4/1 160/2/1
f 157/5/1 161/4/1 158/1/1
f 157/5/1 162/6/1 161/4/1
f 156/7/1 162/6/1 157/5/1
f 156/7/1 163/8/1 162/6/1
f 155/9/1 163/8/1 156/7/1
f 155/9/1 164/10/1 163/8/1
f 154/11/1 164/10/1 155/9/1
f 154/11/1 165/12/1 164/10/1
f 153/13/1 165/12/1 154/11/1
f 153/13/1 166/14/1 165/12/1
f 152/15/1 166/14/1 153/13/1
f 152/15/1 167/16/1 166/14/1
f 151/17/1 167/16/1 152/15/1
f 151/17/1 168/18/1 167/16/1
f 150/19/1 168/18/1 151/17/1
f 150/19/1 169/20/1 168/18/1
f 149/21/1 169/20/1 150/19/1
f 149/21/1 170/22/1 169/20/1
f 148/23/1 170/22/1 149/21/1
f 148/23/1 171/24/1 170/22/1
f 147/25/1 171/24/1 148/23/1
f 147/25/1 172/26/1 171/24/1
f 146/27/1 172/26/1 147/25/1
f 146/27/1 75/28/1 172/26/1
f 145/29/1 75/28/1 146/27/1
f 145/29/1 76/30/1 75/28/1
f 144/31/1 76/30/1 145/29/1
f 144/31/1 77/32/1 76/30/1
f 143/33/1 77/32/1 144/31/1
f 143/33/1 78/34/1 77/32/1
f 142/35/1 78/34/1 143/33/1
f 142/35/1 79/36/1 78/34/1
f 141/37/1 79/36/1 142/35/1
f 141/37/1 80/38/1 79/36/1
f 140/39/1 80/38/1 141/37/1
f 140/39/1 81/40/1 80/38/1
f 139/41/1 81/40/1 140/39/1
f 139/41/1 82/42/1 81/40/1
f 138/43/1 82/42/1 139/41/1
f 138/43/1 83/44/1 82/42/1
f 137/45/1 83/44/1 138/43/1
f 137/45/1 84/46/1 83/44/1
f 136/47/1 84/46/1 137/45/1
f 136/47/1 85/48/1 84/46/1
f 135/49/1 85/48/1 136/47/1
f 135/49/1 86/50/1 85/48/1
f 134/51/1 86/50/1 135/49/1
f 134/51/1 87/52/1 86/50/1
f 133/53/1 87/52/1 134/51/1
f 133/53/1 88/54/1 87/52/1
f 132/55/1 88/54/1 133/53/1
f 132/55/1 89/56/1 88/54/1
f 131/57/1 89/56/1 132/55/1
f 131/57/1 90/58/1 89/56/1
f 130/59/1 90/58/1 131/57/1
f 129/60/1 90/58/1 130/59/1
f 129/60/1 91/61/1 90/58/1
f 128/62/1 91/61/1 129/60/1
f 128/62/1 92/63/1 91/61/1
f 127/64/1 92/63/1 128/62/1
f 127/64/1 93/65/1 92/63/1
f 126/66/1 93/65/1 127/64/1
f 125/67/1 93/65/1 126/66/1
f 125/67/1 94/68/1 93/65/1
f 124/69/1 94/68/1 125/67/1
f 124/69/1 95/70/1 94/68/1
f 123/71/1 95/70/1 124/69/1
f 123/71/1 96/72/1 95/70/1
f 122/73/1 96/72/1 123/71/1
f 122/73/1 97/74/1 96/72/1
f 121/75/1 97/74/1 122/73/1
f 120/76/1 97/74/1 121/75/1
f 120/76/1 98/77/1 97/74/1
f 119/78/1 98/77/1 120/76/1
f 119/78/1 99/79/1 98/77/1
f 118/80/1 99/79/1 119/78/1
f 117/81/1 99/79/1 118/80/1
f 117/81/1 100/82/1 99/79/1
f 116/83/1 100/82/1 117/81/1
f 116/83/1 101/84/1 100/82/1
f 115/85/1 101/84/1 116/83/1
f 114/86/1 101/84/1 115/85/1
f 114/86/1 102/87/1 101/84/1
f 113/88/1 102/87/1 114/86/1
f 112/89/1 102/87/1 113/88/1
f 112/89/1 103/90/1 102/87/1
f 111/91/1 103/90/1 112/89/1
f 110/92/1 103/90/1 111/91/1
f 110/92/1 104/93/1 103/90/1
f 110/92/1 105/94/1 104/93/1
f 110/92/1 106/95/1 105/94/1
f 110/92/1 107/96/1 106/95/1
f 110/92/1 108/97/1 107/96/1
f 110/92/1 109/98/1 108/97/1
f 60/99/1 62/100/1 61/101/1
f 60/99/1 63/102/1 62/100/1
f 60/99/1 64/103/1 63/102/1
f 59/104/1 64/103/1 60/99/1
f 59/104/1 65/105/1 64/103/1
f 58/106/1 65/105/1 59/104/1
f 58/106/1 66/107/1 65/105/1
f 57/108/1 66/107/1 58/106/1
f 57/108/1 67/109/1 66/107/1
f 56/110/1 67/109/1 57/108/1
f 56/110/1 68/111/1 67/109/1
f 55/112/1 68/111/1 56/110/1
f 55/112/1 69/113/1 68/111/1
f 54/114/1 69/113/1 55/112/1
f 54/114/1 70/115/1 69/113/1
f 53/116/1 70/115/1 54/114/1
f 53/116/1 71/117/1 70/115/1
f 52/118/1 71/117/1 53/116/1
f 52/118/1 72/119/1 71/117/1
f 51/120/1 72/119/1 52/118/1
f 51/120/1 73/121/1 72/119/1
f 50/122/1 73/121/1 51/120/1
f 50/122/1 74/123/1 73/121/1
f 49/124/1 74/123/1 50/122/1
f 48/125/1 74/123/1 49/124/1
f 48/125/1 1/126/1 74/123/1
f 47/127/1 1/126/1 48/125/1
f 47/127/1 2/128/1 1/126/1
f 46/129/1 2/128/1 47/127/1
f 46/129/1 3/130/1 2/128/1
f 45/131/1 3/130/1 46/129/1
f 45/131/1 4/132/1 3/130/1
f 44/133/1 4/132/1 45/131/1
f 44/133/1 5/134/1 4/132/1
f 43/135/1 5/134/1 44/133/1
f 43/135/1 6/136/1 5/134/1
f 42/137/1 6/136/1 43/135/1
f 42/137/1 7/138/1 6/136/1
f 41/139/1 7/138/1 42/137/1
f 41/139/1 8/140/1 7/138/1
f 40/141/1 8/140/1 41/139/1
f 40/141/1 9/142/1 8/140/1
f 39/143/1 9/142/1 40/141/1
f 39/143/1 10/144/1 9/142/1
f 38/145/1 10/144/1 39/143/1
f 38/145/1 11/146/1 10/144/1
f 37/147/1 11/146/1 38/145/1
f 37/147/1 12/148/1 11/146/1
f 36/149/1 12/148/1 37/147/1
f 36/149/1 13/150/1 12/148/1
f 36/149/1 14/151/1 13/150/1
f 35/152/1 14/151/1 36/149/1
f 35/152/1 15/153/1 14/151/1
f 34/154/1 15/153/1 35/152/1
f 34/154/1 16/155/1 15/153/1
f 33/156/1 16/155/1 34/154/1
f 33/156/1 17/157/1 16/155/1
f 32/158/1 17/157/1 33/156/1
f 32/158/1 18/159/1 17/157/1
f 31/160/1 18/159/1 32/158/1
f 31/160/1 19/161/1 18/159/1
f 30/162/1 19/161/1 31/160/1
f 30/162/1 20/163/1 19/161/1
f 29/164/1 20/163/1 30/162/1
f 29/164/1 21/165/1 20/163/1
f 28/166/1 21/165/1 29/164/1
f 28/166/1 22/167/1 21/165/1
f 27/168/1 22/167/1 28/166/1
f 27/168/1 23/169/1 22/167/1
f 26/170/1 23/169/1 27/168/1
f 26/170/1 24/171/1 23/169/1
f 25/172/1 24/171/1 26/170/1
f 330/1/2 331/3/2 332/2/2
f 330/1/2 332/2/2 333/4/2
f 329/5/2 330/1/2 333/4/2
f 329/5/2 333/4/2 334/6/2
f 328/7/2 329/5/2 334/6/2
f 328/7/2 334/6/2 335/8/2
f 327/9/2 328/7/2 335/8/2
f 327/9/2 335/8/2 336/10/2
f 326/11/2 327/9/2 336/10/2
f 326/11/2 336/10/2 337/12/2
f 325/13/2 326/11/2 337/12/2
f 325/13/2 337/12/2 338/14/2
f 324/15/2 325/13/2 338/14/2
f 324/15/2 338/14/2 339/16/2
f 323/17/2 324/15/2 339/16/2
f 323/17/2 339/16/2 340/18/2
f 322/19/2 323/17/2 340/18/2
f 322/19/2 340/18/2 341/20/2
f 321/21/2 322/19/2 341/20/2
f 321/21/2 341/20/2 342/22/2
f 320/23/2 321/21/2 342/22/2
f 320/23/2 342/22/2 343/24/2
f 319/25/2 320/23/2 343/24/2
f 319/25/2 343/24/2 344/26/2
f 318/27/2 319/25/2 344/26/2
f 318/27/2 344/26/2 247/28/2
f 317/29/2 318/27/2 247/28/2
f 317/29/2 247/28/2 248/30/2
f 316/31/2 317/29/2 248/30/2
f 316/31/2 248/30/2 249/32/2
f 315/33/2 316/31/2 249/32/2
f 315/33/2 249/32/2 250/34/2
f 314/35/2 315/33/2 250/34/2
f 314/35/2 250/34/2 251/36/2
f 313/37/2 314/35/2 251/36/2
f 313/37/2 251/36/2 252/38/2
f 312/39/2 313/37/2 252/38/2
f 312/39/2 252/38/2 253/40/2
f 311/41/2 312/39/2 253/40/2
f 311/41/2 253/40/2 254/42/2
f 310/43/2 311/41/2 254/42/2
f 310/43/2 254/42/2 255/44/2
f 309/45/2 310/43/2 255/44/2
f 309/45/2 255/44/2 256/46/2
f 308/47/2 309/45/2 256/46/2
f 308/47/2 256/46/2 257/48/2
f 307/49/2 308/47/2 257/48/2
f 307/49/2 257/48/2 258/50/2
f 306/51/2 307/49/2 258/50/2
f 306/51/2 258/50/2 259/52/2
f 305/53/2 306/51/2 259/52/2
f 305/53/2 259/52/2 260/54/2
f 304/55/2 305/53/2 260/54/2
f 304/55/2 260/54/2 261/56/2
f 303/57/2 304/55/2 261/56/2
f 303/57/2 261/56/2 262/58/2
f 302/59/2 303/57/2 262/58/2
f 301/60/2 302/59/2 262/58/2
f 301/60/2 262/58/2 263/61/2
f 300/62/2 301/60/2 263/61/2
f 300/62/2 263/61/2 264/63/2
f 299/64/2 300/62/2 264/63/2
f 299/64/2 264/63/2 265/65/2
f 298/66/2 299/64/2 265/65/2
f 297/67/2 298/66/2 265/65/2
f 297/67/2 265/65/2 266/68/2
f 296/69/2 297/67/2 266/68/2
f 296/69/2 266/68/2 267/70/2
f 295/71/2 296/69/2 267/70/2
f 295/71/2 267/70/2 268/72/2
f 294/73/2 295/71/2 268/72/2
f 294/73/2 268/72/2 269/74/2
f 293/75/2 294/73/2 269/74/2
f 292/76/2 293/75/2 269/74/2
f 292/76/2 269/74/2 270/77/2
f 291/78/2 292/76/2 270/77/2
f 291/78/2 270/77/2 271/79/2
f 290/80/2 291/78/2 271/79/2
f 289/81/2 290/80/2 271/79/2
f 289/81/2 271/79/2 272/82/2
f 288/83/2 289/81/2 272/82/2
f 288/83/2 272/82/2 273/84/2
f 287/85/2 288/83/2 273/84/2
f 286/86/2 287/85/2 273/84/2
f 286/86/2 273/84/2 274/87/2
f 285/88/2 286/86/2 274/87/2
f 284/89/2 285/88/2 274/87/2
f 284/89/2 274/87/2 275/90/2
f 283/91/2 284/89/2 275/90/2
f 282/92/2 283/91/2 275/90/2
f 282/92/2 275/90/2 276/93/2
f 282/92/2 276/93/2 277/94/2
f 282/92/2 277/94/2 278/95/2
f 282/92/2 278/95/2 279/96/2
f 282/92/2 279/96/2 280/97/2
f 282/92/2 280/97/2 281/98/2
f 232/99/2 233/101/2 234/100/2
f 232/99/2 234/100/2 235/102/2
f 232/99/2 235/102/2 236/103/2
f 231/104/2 232/99/2 236/103/2
f 231/104/2 236/103/2 237/105/2
f 230/106/2 231/104/2 237/105/2
f 230/106/2 237/105/2 238/107/2
f 229/108/2 230/106/2 238/107/2
f 229/108/2 238/107/2 239/109/2
f 228/110/2 229/108/2 239/109/2
f 228/110/2 239/109/2 240/111/2
f 227/112/2 228/110/2 240/111/2
f 227/112/2 240/111/2 241/113/2
f 226/114/2 227/112/2 241/113/2
f 226/114/2 241/113/2 242/115/2
f 225/116/2 226/114/2 242/115/2
f 225/116/2 242/115/2 243/117/2
f 224/118/2 225/116/2 243/117/2
f 224/118/2 243/117/2 244/119/2
f 223/120/2 224/118/2 244/119/2
f 223/120/2 244/119/2 245/121/2
f 222/122/2 223/120/2 245/121/2
f 222/122/2 245/121/2 246/123/2
f 221/124/2 222/122/2 246/123/2
f 220/125/2 221/124/2 246/123/2
f 220/125/2 246/123/2 173/126/2
f 219/127/2 220/125/2 173/126/2
f 219/127/2 173/126/2 174/128/2
f 218/129/2 219/127/2 174/128/2
f 218/129/2 174/128/2 175/130/2
f 217/131/2 218/129/2 175/130/2
f 217/131/2 175/130/2 176/132/2
f 216/133/2 217/131/2 176/132/2
f 216/133/2 176/132/2 177/134/2
f 215/135/2 216/133/2 177/134/2
f 215/135/2 177/134/2 178/136/2
f 214/137/2 215/135/2 178/136/2
f 214/137/2 178/136/2 179/138/2
f 213/139/2 214/137/2 179/138/2
f 213/139/2 179/138/2 180/140/2
f 212/141/2 213/139/2 180/140/2
f 212/141/2 180/140/2 181/142/2
f 211/143/2 212/141/2 181/142/2
f 211/143/2 181/142/2 182/144/2
f 210/145/2 211/143/2 182/144/2
f 210/145/2 182/144/2 183/146/2
f 209/147/2 210/145/2 183/146/2
f 209/147/2 183/146/2 184/148/2
f 208/149/2 209/147/2 184/148/2
f 208/149/2 184/148/2 185/150/2
f 208/149/2 185/150/2 186/151/2
f 207/152/2 208/149/2 186/151/2
f 207/152/2 186/151/2 187/153/2
f 206/154/2 207/152/2 187/153/2
f 206/154/2 187/153/2 188/155/2
f 205/156/2 206/154/2 188/155/2
f 205/156/2 188/155/2 189/157/2
f 204/158/2 205/156/2 189/157/2
f 204/158/2 189/157/2 190/159/2
f 203/160/2 204/158/2 190/159/2
f 203/160/2 190/159/2 191/161/2
f 202/162/2 203/160/2 191/161/2
f 202/162/2 191/161/2 192/163/2
f 201/164/2 202/162/2 192/163/2
f 201/164/2 192/163/2 193/165/2
f 200/166/2 201/164/2 193/165/2
f 200/166/2 193/165/2 194/167/2
f 199/168/2 200/166/2 194/167/2
f 199/168/2 194/167/2 195/169/2
f 198/170/2 199/168/2 195/169/2
f 198/170/2 195/169/2 196/171/2
f 197/172/2 198/170/2 196/171/2
s 1
f 348/173/3 345/126/3 346/174/3
f 350/175/3 347/176/3 348/173/3
f 352/177/3 349/178/3 350/175/3
f 354/179/3 351/180/3 352/177/3
f 356/181/3 353/182/3 354/179/3
f 358/183/3 355/184/3 356/181/3
f 360/185/3 357/186/3 358/183/3
f 362/187/3 359/188/3 360/185/3
f 364/189/3 361/190/3 362/187/3
f 366/191/3 363/192/3 364/189/3
f 368/193/4 365/194/3 366/191/3
f 370/195/5 367/196/4 368/193/4
f 372/197/6 369/198/5 370/195/5
f 374/199/7 371/200/6 372/197/6
f 376/201/8 373/202/7 374/199/7
f 378/203/9 375/204/8 376/201/8
f 380/205/10 377/206/9 378/203/9
f 382/207/11 379/208/10 380/205/10
f 384/209/12 381/210/11 382/207/11
f 386/211/13 383/212/12 384/209/12
f 388/213/14 385/214/13 386/211/13
f 390/215/15 387/216/14 388/213/14
f 392/217/16 389/218/15 390/215/15
f 394/219/17 391/220/16 392/217/16
f 396/221/18 393/222/17 394/219/17
f 398/223/19 395/224/18 396/221/18
f 400/225/20 397/226/19 398/223/19
f 402/227/21 399/228/20 400/225/20
f 404/229/22 401/230/21 402/227/21
f 406/231/23 403/232/22 404/229/22
f 408/233/24 405/234/23 406/231/23
f 410/235/25 407/236/24 408/233/24
f 412/237/26 409/238/25 410/235/25
f 414/239/27 411/240/26 412/237/26
f 416/241/28 413/242/27 414/239/27
f 418/243/29 415/244/30 416/241/28
f 420/245/31 417/246/29 418/243/29
f 422/247/32 419/248/31 420/245/31
f 424/249/33 421/250/32 422/247/32
f 426/251/34 423/252/33 424/249/33
f 428/253/35 425/254/34 426/251/34
f 430/255/36 427/256/35 428/253/35
f 432/257/37 429/258/36 430/255/36
f 434/259/38 431/260/37 432/257/37
f 436/261/39 433/262/38 434/259/38
f 438/263/40 435/264/39 436/261/39
f 440/265/41 437/266/40 438/263/40
f 442/267/42 439/268/41 440/265/41
f 444/269/43 441/270/42 442/267/42
f 446/271/44 443/272/43 444/269/43
f 448/273/45 445/274/44 446/271/44
f 450/275/46 447/276/45 448/273/45
f 452/277/47 449/278/46 450/275/46
f 454/279/48 451/280/47 452/277/47
f 456/281/49 453/282/48 454/279/48
f 458/283/50 455/284/49 456/281/49
f 460/285/51 457/286/50 458/283/50
f 462/287/52 459/288/51 460/285/51
f 464/289/53 461/290/52 462/287/52
f 466/291/54 463/292/53 464/289/53
f 468/293/55 465/294/54 466/291/54
f 470/295/55 467/296/55 468/293/55
f 472/297/55 469/298/55 470/295/55
f 474/299/55 471/300/55 472/297/55
f 476/301/55 473/302/55 474/299/55
f 478/303/55 475/304/55 476/301/55
f 480/305/55 477/306/55 478/303/55
f 482/307/55 479/308/55 480/305/55
f 484/309/55 481/310/55 482/307/55
f 486/311/55 483/312/55 484/309/55
f 488/313/55 485/314/55 486/311/55
f 490/315/56 487/316/55 488/313/55
f 492/317/57 489/318/56 490/315/56
f 494/319/58 491/320/57 492/317/57
f 496/321/59 493/322/58 494/319/58
f 498/323/60 495/324/59 496/321/59
f 500/325/61 497/326/60 498/323/60
f 502/327/62 499/328/61 500/325/61
f 504/329/63 501/330/62 502/327/62
f 506/331/64 503/332/63 504/329/63
f 508/333/65 505/334/64 506/331/64
f 510/335/66 507/336/65 508/333/65
f 512/337/67 509/338/66 510/335/66
f 514/339/68 511/340/67 512/337/67
f 516/341/69 513/342/68 514/339/68
f 518/343/70 515/344/69 516/341/69
f 520/345/71 517/346/70 518/343/70
f 522/347/72 519/348/71 520/345/71
f 524/349/73 521/350/72 522/347/72
f 526/351/74 523/352/73 524/349/73
f 528/353/75 525/354/74 526/351/74
f 530/355/76 527/356/75 528/353/75
f 532/357/77 529/358/78 530/355/76
f 534/359/79 531/360/77 532/357/77
f 536/361/80 533/362/79 534/359/79
f 538/363/81 535/364/80 536/361/80
f 540/365/82 537/366/81 538/363/81
f 346/367/3 539/368/82 540/365/82
f 544/369/3 541/126/3 542/174/3
f 546/370/3 543/371/3 544/369/3
f 548/372/3 545/373/3 546/370/3
f 550/374/3 547/375/3 548/372/3
f 552/376/3 549/377/3 550/374/3
f 554/378/3 551/379/3 552/376/3
f 556/380/3 553/381/3 554/378/3
f 558/382/3 555/383/3 556/380/3
f 560/384/3 557/385/3 558/382/3
f 562/386/3 559/387/3 560/384/3
f 564/388/83 561/389/3 562/386/3
f 566/390/84 563/391/83 564/388/83
f 568/392/85 565/393/84 566/390/84
f 570/394/86 567/395/85 568/392/85
f 572/396/87 569/397/86 570/394/86
f 574/398/88 571/399/87 572/396/87
f 576/400/89 573/401/88 574/398/88
f 578/402/90 575/403/89 576/400/89
f 580/404/91 577/405/90 578/402/90
f 582/406/92 579/407/91 580/404/91
f 584/408/93 581/409/92 582/406/92
f 586/410/94 583/411/93 584/408/93
f 588/412/95 585/413/94 586/410/94
f 590/414/96 587/415/95 588/412/95
f 592/416/97 589/417/96 590/414/96
f 594/418/98 591/419/97 592/416/97
f 596/420/99 593/421/100 594/418/98
f 598/422/101 595/423/99 596/420/99
f 600/424/102 597/425/101 598/422/101
f 602/426/103 599/427/102 600/424/102
f 604/428/104 601/429/103 602/426/103
f 606/430/105 603/431/104 604/428/104
f 608/432/106 605/433/105 606/430/105
f 610/434/107 607/435/106 608/432/106
f 612/436/108 609/437/107 610/434/107
f 614/438/109 611/439/108 612/436/108
f 616/269/55 613/440/109 614/438/109
f 618/441/55 615/272/55 616/269/55
f 620/442/55 617/443/55 618/441/55
f 622/444/55 619/445/55 620/442/55
f 624/446/55 621/447/55 622/444/55
f 626/448/55 623/449/55 624/446/55
f 628/450/55 625/451/55 626/448/55
f 630/452/55 627/453/55 628/450/55
f 632/454/55 629/455/55 630/452/55
f 634/456/55 631/457/55 632/454/55
f 636/458/55 633/459/55 634/456/55
f 638/460/110 635/461/55 636/458/55
f 640/462/111 637/463/110 638/460/110
f 642/464/112 639/465/111 640/462/111
f 644/466/113 641/467/112 642/464/112
f 646/468/114 643/469/113 644/466/113
f 648/470/115 645/471/114 646/468/114
f 650/472/116 647/473/115 648/470/115
f 652/474/117 649/475/116 650/472/116
f 654/476/118 651/477/117 652/474/117
f 656/478/119 653/479/118 654/476/118
f 658/480/120 655/481/119 656/478/119
f 660/482/121 657/483/120 658/480/120
f 662/484/122 659/485/121 660/482/121
f 664/486/123 661/487/124 662/484/122
f 666/488/125 663/489/123 664/486/123
f 668/490/126 665/491/125 666/488/125
f 670/492/127 667/493/126 668/490/126
f 672/494/128 669/495/127 670/492/127
f 674/496/129 671/497/128 672/494/128
f 676/498/130 673/499/129 674/496/129
f 678/500/131 675/501/130 676/498/130
f 680/502/132 677/503/131 678/500/131
f 682/504/133 679/505/132 680/502/132
f 684/506/134 681/507/135 682/504/133
f 686/508/136 683/509/134 684/506/134
f 688/510/137 685/511/136 686/508/136
f 542/367/3 687/512/137 688/510/137
f 348/173/3 347/176/3 345/126/3
f 350/175/3 349/178/3 347/176/3
f 352/177/3 351/180/3 349/178/3
f 354/179/3 353/182/3 351/180/3
f 356/181/3 355/184/3 353/182/3
f 358/183/3 357/186/3 355/184/3
f 360/185/3 359/188/3 357/186/3
f 362/187/3 361/190/3 359/188/3
f 364/189/3 363/192/3 361/190/3
f 366/191/3 365/194/3 363/192/3
f 368/193/4 367/196/4 365/194/3
f 370/195/5 369/198/5 367/196/4
f 372/197/6 371/200/6 369/198/5
f 374/199/7 373/202/7 371/200/6
f 376/201/8 375/204/8 373/202/7
f 378/203/9 377/206/9 375/204/8
f 380/205/10 379/208/10 377/206/9
f 382/207/11 381/210/11 379/208/10
f 384/209/12 383/212/12 381/210/11
f 386/211/13 385/214/13 383/212/12
f 388/213/14 387/216/14 385/214/13
f 390/215/15 389/218/15 387/216/14
f 392/217/16 391/220/16 389/218/15
f 394/219/17 393/222/17 391/220/16
f 396/221/18 395/224/18 393/222/17
f 398/223/19 397/226/19 395/224/18
f 400/225/20 399/228/20 397/226/19
f 402/227/21 401/230/21 399/228/20
f 404/229/22 403/232/22 401/230/21
f 406/231/23 405/234/23 403/232/22
f 408/233/24 407/236/24 405/234/23
f 410/235/25 409/238/25 407/236/24
f 412/237/26 411/240/26 409/238/25
f 414/239/27 413/242/27 411/240/26
f 416/241/28 415/244/30 413/242/27
f 418/243/29 417/246/29 415/244/30
f 420/245/31 419/248/31 417/246/29
f 422/247/32 421/250/32 419/248/31
f 424/249/33 423/252/33 421/250/32
f 426/251/34 425/254/34 423/252/33
f 428/253/35 427/256/35 425/254/34
f 430/255/36 429/258/36 427/256/35
f 432/257/37 431/260/37 429/258/36
f 434/259/38 433/262/38 431/260/37
f 436/261/39 435/264/39 433/262/38
f 438/263/40 437/266/40 435/264/39
f 440/265/41 439/268/41 437/266/40
f 442/267/42 441/270/42 439/268/41
f 444/269/43 443/272/43 441/270/42
f 446/271/44 445/274/44 443/272/43
f 448/273/45 447/276/45 445/274/44
f 450/275/46 449/278/46 447/276/45
f 452/277/47 451/280/47 449/278/46
f 454/279/48 453/282/48 451/280/47
f 456/281/49 455/284/49 453/282/48
f 458/283/50 457/286/50 455/284/49
f 460/285/51 459/288/51 457/286/50
f 462/287/52 461/290/52 459/288/51
f 464/289/53 463/292/53 461/290/52
f 466/291/54 465/294/54 463/292/53
f 468/293/55 467/296/55 465/294/54
f 470/295/55 469/298/55 467/296/55
f 472/297/55 471/300/55 469/298/55
f 474/299/55 473/302/55 471/300/55
f 476/301/55 475/304/55 473/302/55
f 478/303/55 477/306/55 475/304/55
f 480/305/55 479/308/55 477/306/55
f 482/307/55 481/310/55 479/308/55
f 484/309/55 483/312/55 481/310/55
f 486/311/55 485/314/55 483/312/55
f 488/313/55 487/316/55 485/314/55
f 490/315/56 489/318/56 487/316/55
f 492/317/57 491/320/57 489/318/56
f 494/319/58 493/322/58 491/320/57
f 496/321/59 495/324/59 493/322/58
f 498/323/60 497/326/60 495/324/59
f 500/325/61 499/328/61 497/326/60
f 502/327/62 501/330/62 499/328/61
f 504/329/63 503/332/63 501/330/62
f 506/331/64 505/334/64 503/332/63
f 508/333/65 507/336/65 505/334/64
f 510/335/66 509/338/66 507/336/65
f 512/337/67 511/340/67 509/338/66
f 514/339/68 513/342/68 511/340/67
f 516/341/69 515/344/69 513/342/68
f 518/343/70 517/346/70 515/344/69
f 520/345/71 519/348/71 517/346/70
f 522/347/72 521/350/72 519/348/71
f 524/349/73 523/352/73 521/350/72
f 526/351/74 525/354/74 523/352/73
f 528/353/75 527/356/75 525/354/74
f 530/355/76 529/358/78 527/356/75
f 532/357/77 531/360/77 529/358/78
f 534/359/79 533/362/79 531/360/77
f 536/361/80 535/364/80 533/362/79
f 538/363/81 537/366/81 535/364/80
f 540/365/82 539/368/82 537/366/81
f 346/367/3 345/26/3 539/368/82
f 544/369/3 543/371/3 541/126/3
f 546/370/3 545/373/3 543/371/3
f 548/372/3 547/375/3 545/373/3
f 550/374/3 549/377/3 547/375/3
f 552/376/3 551/379/3 549/377/3
f 554/378/3 553/381/3 551/379/3
f 556/380/3 555/383/3 553/381/3
f 558/382/3 557/385/3 555/383/3
f 560/384/3 559/387/3 557/385/3
f 562/386/3 561/389/3 559/387/3
f 564/388/83 563/391/83 561/389/3
f 566/390/84 565/393/84 563/391/83
f 568/392/85 567/395/85 565/393/84
f 570/394/86 569/397/86 567/395/85
f 572/396/87 571/399/87 569/397/86
f 574/398/88 573/401/88 571/399/87
f 576/400/89 575/403/89 573/401/88
f 578/402/90 577/405/90 575/403/89
f 580/404/91 579/407/91 577/405/90
f 582/406/92 581/409/92 579/407/91
f 584/408/93 583/411/93 581/409/92
f 586/410/94 585/413/94 583/411/93
f 588/412/95 587/415/95 585/413/94
f 590/414/96 589/417/96 587/415/95
f 592/416/97 591/419/97 589/417/96
f 594/418/98 593/421/100 591/419/97
f 596/420/99 595/423/99 593/421/100
f 598/422/101 597/425/101 595/423/99
f 600/424/102 599/427/102 597/425/101
f 602/426/103 601/429/103 599/427/102
f 604/428/104 603/431/104 601/429/103
f 606/430/105 605/433/105 603/431/104
f 608/432/106 607/435/106 605/433/105
f 610/434/107 609/437/107 607/435/106
f 612/436/108 611/439/108 609/437/107
f 614/438/109 613/440/109 611/439/108
f 616/269/55 615/272/55 613/440/109
f 618/441/55 617/443/55 615/272/55
f 620/442/55 619/445/55 617/443/55
f 622/444/55 621/447/55 619/445/55
f 624/446/55 623/449/55 621/447/55
f 626/448/55 625/451/55 623/449/55
f 628/450/55 627/453/55 625/451/55
f 630/452/55 629/455/55 627/453/55
f 632/454/55 631/457/55 629/455/55
f 634/456/55 633/459/55 631/457/55
f 636/458/55 635/461/55 633/459/55
f 638/460/110 637/463/110 635/461/55
f 640/462/111 639/465/111 637/463/110
f 642/464/112 641/467/112 639/465/111
f 644/466/113 643/469/113 641/467/112
f 646/468/114 645/471/114 643/469/113
f 648/470/115 647/473/115 645/471/114
f 650/472/116 649/475/116 647/473/115
f 652/474/117 651/477/117 649/475/116
f 654/476/118 653/479/118 651/477/117
f 656/478/119 655/481/119 653/479/118
f 658/480/120 657/483/120 655/481/119
f 660/482/121 659/485/121 657/483/120
f 662/484/122 661/487/124 659/485/121
f 664/486/123 663/489/123 661/487/124
f 666/488/125 665/491/125 663/489/123
f 668/490/126 667/493/126 665/491/125
f 670/492/127 669/495/127 667/493/126
f 672/494/128 671/497/128 669/495/127
f 674/496/129 673/499/129 671/497/128
f 676/498/130 675/501/130 673/499/129
f 678/500/131 677/503/131 675/501/130
f 680/502/132 679/505/132 677/503/131
f 682/504/133 681/507/135 679/505/132
f 684/506/134 683/509/134 681/507/135
f 686/508/136 685/511/136 683/509/134
f 688/510/137 687/512/137 685/511/136
f 542/367/3 541/26/3 687/512/137
