# Blender 4.1.1
# www.blender.org
mtllib GoalBase.mtl
o 円柱
v -0.516607 0.000000 0.277284
v -0.516607 -0.000000 -0.277284
v -0.506689 -0.161093 0.277284
v -0.506689 -0.161093 -0.277284
v -0.477317 -0.315996 0.277284
v -0.477317 -0.315996 -0.277284
v -0.429620 -0.458755 0.277284
v -0.429620 -0.458755 -0.277284
v -0.365430 -0.583884 0.277284
v -0.365430 -0.583884 -0.277284
v -0.287214 -0.686575 0.277284
v -0.287214 -0.686575 -0.277284
v -0.197979 -0.762881 0.277284
v -0.197979 -0.762881 -0.277284
v -0.101153 -0.809870 0.277284
v -0.101153 -0.809870 -0.277284
v -0.000457 -0.825736 0.277284
v -0.000457 -0.825736 -0.277284
v 0.100239 -0.809870 0.277284
v 0.100239 -0.809870 -0.277284
v 0.197065 -0.762881 0.277284
v 0.197065 -0.762881 -0.277284
v 0.286301 -0.686575 0.277284
v 0.286301 -0.686575 -0.277284
v 0.364517 -0.583884 0.277284
v 0.364517 -0.583884 -0.277284
v 0.428706 -0.458755 0.277284
v 0.428706 -0.458755 -0.277284
v 0.476404 -0.315996 0.277284
v 0.476404 -0.315996 -0.277284
v 0.505776 -0.161093 0.277284
v 0.505776 -0.161093 -0.277284
v 0.515693 0.000000 0.277284
v 0.515693 -0.000000 -0.277284
v 0.505776 0.161093 0.277284
v 0.505776 0.161093 -0.277284
v 0.476404 0.315996 0.277284
v 0.476404 0.315996 -0.277284
v 0.428706 0.458755 0.277284
v 0.428706 0.458755 -0.277284
v 0.364517 0.583884 0.277284
v 0.364517 0.583884 -0.277284
v 0.286301 0.686575 0.277284
v 0.286301 0.686575 -0.277284
v 0.197065 0.762881 0.277284
v 0.197065 0.762881 -0.277284
v 0.100239 0.809870 0.277284
v 0.100239 0.809870 -0.277284
v -0.000457 0.825736 0.277284
v -0.000457 0.825736 -0.277284
v -0.101153 0.809870 0.277284
v -0.101153 0.809870 -0.277284
v -0.197979 0.762881 0.277284
v -0.197979 0.762881 -0.277284
v -0.287214 0.686575 0.277284
v -0.287214 0.686575 -0.277284
v -0.365430 0.583884 0.277284
v -0.365430 0.583884 -0.277284
v -0.429620 0.458755 0.277284
v -0.429620 0.458755 -0.277284
v -0.477317 0.315996 0.277284
v -0.477317 0.315996 -0.277284
v -0.506689 0.161093 0.277284
v -0.506689 0.161093 -0.277284
v -0.327174 -0.000000 -0.277284
v 0.326261 -0.000000 -0.277284
v -0.327174 0.000000 0.277284
v 0.326261 0.000000 0.277284
v -0.320897 -0.129031 -0.277284
v -0.312265 -0.186637 -0.277284
v 0.311351 0.186636 -0.277284
v 0.301391 0.253103 -0.277284
v -0.000457 0.661389 -0.277284
v 0.063283 0.648681 -0.277284
v 0.124573 0.611044 -0.277284
v 0.181058 0.549925 -0.277284
v 0.271199 0.367448 -0.277284
v -0.272113 0.367448 -0.277284
v -0.302305 0.253103 -0.277284
v -0.320897 0.129031 -0.277284
v -0.064196 0.648681 -0.277284
v 0.230568 0.467673 -0.277284
v -0.231481 0.467673 -0.277284
v -0.125486 0.611044 -0.277284
v -0.181971 0.549925 -0.277284
v 0.319983 0.129031 -0.277284
v -0.302305 -0.253103 -0.277284
v -0.125486 -0.611044 -0.277284
v -0.181971 -0.549925 -0.277284
v -0.000457 -0.661389 -0.277284
v -0.064196 -0.648681 -0.277284
v -0.272113 -0.367448 -0.277284
v 0.319983 -0.129031 -0.277284
v 0.271199 -0.367448 -0.277284
v 0.301391 -0.253103 -0.277284
v -0.231481 -0.467673 -0.277284
v 0.063283 -0.648681 -0.277284
v 0.230568 -0.467673 -0.277284
v 0.124573 -0.611044 -0.277284
v 0.181058 -0.549925 -0.277284
v -0.322706 0.091848 0.277284
v 0.321792 -0.091848 0.277284
v 0.319983 -0.129031 0.277284
v -0.320897 -0.129031 0.277284
v 0.181058 -0.549925 0.277284
v 0.230568 -0.467673 0.277284
v 0.124573 -0.611044 0.277284
v 0.063283 -0.648681 0.277284
v 0.301391 -0.253103 0.277284
v -0.302305 -0.253103 0.277284
v -0.231481 -0.467673 0.277284
v -0.272113 -0.367448 0.277284
v -0.181971 -0.549925 0.277284
v 0.271199 -0.367448 0.277284
v -0.000457 -0.661389 0.277284
v -0.125486 -0.611044 0.277284
v -0.064196 -0.648681 0.277284
v -0.320897 0.129031 0.277284
v -0.000457 0.661389 0.277284
v 0.063283 0.648681 0.277284
v 0.124573 0.611044 0.277284
v 0.181058 0.549925 0.277284
v -0.272113 0.367448 0.277284
v -0.302305 0.253103 0.277284
v 0.319983 0.129031 0.277284
v -0.231481 0.467673 0.277284
v 0.301391 0.253103 0.277284
v -0.181971 0.549925 0.277284
v 0.271199 0.367448 0.277284
v -0.125486 0.611044 0.277284
v -0.064196 0.648681 0.277284
v 0.230568 0.467673 0.277284
vn -0.9981 -0.0614 -0.0000
vn -0.9825 -0.1863 -0.0000
vn -0.9485 -0.3169 -0.0000
vn -0.8898 -0.4564 -0.0000
vn -0.7955 -0.6059 -0.0000
vn -0.6499 -0.7600 -0.0000
vn -0.4366 -0.8997 -0.0000
vn -0.1556 -0.9878 -0.0000
vn 0.1556 -0.9878 -0.0000
vn 0.4366 -0.8997 -0.0000
vn 0.6499 -0.7600 -0.0000
vn 0.7955 -0.6059 -0.0000
vn 0.8898 -0.4564 -0.0000
vn 0.9485 -0.3169 -0.0000
vn 0.9825 -0.1863 -0.0000
vn 0.9981 -0.0614 -0.0000
vn 0.9981 0.0614 -0.0000
vn 0.9825 0.1863 -0.0000
vn 0.9485 0.3169 -0.0000
vn 0.8898 0.4564 -0.0000
vn 0.7955 0.6059 -0.0000
vn 0.6499 0.7600 -0.0000
vn 0.4366 0.8997 -0.0000
vn 0.1556 0.9878 -0.0000
vn -0.1556 0.9878 -0.0000
vn -0.4366 0.8997 -0.0000
vn -0.6499 0.7600 -0.0000
vn -0.7955 0.6059 -0.0000
vn -0.8898 0.4564 -0.0000
vn -0.9485 0.3169 -0.0000
vn -0.0000 -0.0000 -1.0000
vn -0.9825 0.1863 -0.0000
vn -0.9981 0.0614 -0.0000
vn -0.0000 -0.0000 1.0000
vn 0.9988 0.0486 -0.0000
vn 0.9890 0.1482 -0.0000
vn 0.9669 0.2553 -0.0000
vn 0.9267 0.3757 -0.0000
vn 0.8568 0.5157 -0.0000
vn 0.7344 0.6787 -0.0000
vn 0.5233 0.8522 -0.0000
vn 0.1955 0.9807 -0.0000
vn -0.1955 0.9807 -0.0000
vn -0.5233 0.8522 -0.0000
vn -0.7344 0.6787 -0.0000
vn -0.8568 0.5157 -0.0000
vn -0.9267 0.3757 -0.0000
vn -0.9669 0.2553 -0.0000
vn -0.9890 0.1482 -0.0000
vn -0.9988 0.0486 -0.0000
vn -0.9988 -0.0486 -0.0000
vn -0.9890 -0.1482 -0.0000
vn -0.9669 -0.2553 -0.0000
vn -0.9267 -0.3757 -0.0000
vn -0.8568 -0.5157 -0.0000
vn -0.7344 -0.6787 -0.0000
vn -0.5233 -0.8522 -0.0000
vn -0.1955 -0.9807 -0.0000
vn 0.1955 -0.9807 -0.0000
vn 0.5233 -0.8522 -0.0000
vn 0.7344 -0.6787 -0.0000
vn 0.8568 -0.5157 -0.0000
vn 0.9267 -0.3757 -0.0000
vn 0.9669 -0.2553 -0.0000
vn 0.9890 -0.1482 -0.0000
vn 0.9988 -0.0486 -0.0000
vt 0.137461 0.010049
vt 0.010049 0.047130
vt 0.010049 0.010049
vt 0.137461 0.047130
vt 0.010049 0.083353
vt 0.137461 0.117934
vt 0.010049 0.117934
vt 0.010049 0.150244
vt 0.137461 0.150244
vt 0.010049 0.179902
vt 0.137461 0.179902
vt 0.010049 0.206877
vt 0.137461 0.206877
vt 0.010049 0.231604
vt 0.137461 0.231604
vt 0.010049 0.255024
vt 0.137461 0.255024
vt 0.010049 0.278445
vt 0.137461 0.278445
vt 0.010049 0.303172
vt 0.137461 0.303172
vt 0.010049 0.330147
vt 0.137461 0.330147
vt 0.010049 0.359804
vt 0.137461 0.359804
vt 0.010049 0.392115
vt 0.137461 0.392115
vt 0.010049 0.426696
vt 0.137461 0.426696
vt 0.010049 0.462919
vt 0.137461 0.462919
vt 0.010049 0.500000
vt 0.137461 0.537081
vt 0.010049 0.537081
vt 0.010049 0.573304
vt 0.137461 0.573304
vt 0.010049 0.607885
vt 0.137461 0.607885
vt 0.010049 0.640196
vt 0.137461 0.640195
vt 0.010049 0.669853
vt 0.137461 0.669853
vt 0.010049 0.696828
vt 0.137461 0.696828
vt 0.010049 0.721555
vt 0.137461 0.721555
vt 0.010049 0.744976
vt 0.137461 0.744976
vt 0.010049 0.768396
vt 0.137461 0.768396
vt 0.010049 0.793123
vt 0.137461 0.793123
vt 0.010049 0.820098
vt 0.137461 0.820098
vt 0.010049 0.849756
vt 0.137461 0.849756
vt 0.010049 0.882066
vt 0.137461 0.916647
vt 0.010049 0.916647
vt 0.699545 0.371555
vt 0.652817 0.351070
vt 0.667254 0.347256
vt 0.587415 0.027251
vt 0.634143 0.047736
vt 0.619706 0.051550
vt 0.010049 0.952870
vt 0.137461 0.952870
vt 0.010049 0.989951
vt 0.608955 0.420480
vt 0.699545 0.426057
vt 0.638021 0.448557
vt 0.678005 0.775938
vt 0.587415 0.770361
vt 0.648939 0.747862
vt 0.157559 0.039729
vt 0.284970 0.010049
vt 0.284970 0.039729
vt 0.157559 0.068553
vt 0.157559 0.053111
vt 0.157559 0.095724
vt 0.284970 0.068553
vt 0.284970 0.095724
vt 0.157559 0.120571
vt 0.284970 0.120571
vt 0.157559 0.142627
vt 0.284970 0.142627
vt 0.284970 0.161748
vt 0.157559 0.161748
vt 0.284970 0.178272
vt 0.157559 0.178272
vt 0.157559 0.193205
vt 0.284970 0.193205
vt 0.284970 0.208137
vt 0.157559 0.208137
vt 0.284970 0.224661
vt 0.157559 0.224661
vt 0.284970 0.243782
vt 0.157559 0.243782
vt 0.284970 0.265839
vt 0.157559 0.265839
vt 0.284970 0.290685
vt 0.157559 0.290685
vt 0.284970 0.317857
vt 0.157559 0.317857
vt 0.284970 0.346680
vt 0.157559 0.346680
vt 0.157559 0.376360
vt 0.284970 0.355233
vt 0.284970 0.406040
vt 0.157559 0.406040
vt 0.157559 0.419423
vt 0.284970 0.434864
vt 0.157559 0.462035
vt 0.284970 0.462035
vt 0.284970 0.486882
vt 0.157559 0.486882
vt 0.284970 0.508939
vt 0.157559 0.508939
vt 0.157559 0.528059
vt 0.284970 0.528059
vt 0.157559 0.544583
vt 0.284970 0.544583
vt 0.157559 0.559516
vt 0.284970 0.559516
vt 0.157559 0.574448
vt 0.284970 0.574448
vt 0.157559 0.590973
vt 0.284970 0.590973
vt 0.157559 0.610093
vt 0.284970 0.610093
vt 0.157559 0.632150
vt 0.284970 0.632150
vt 0.157559 0.656997
vt 0.284970 0.656997
vt 0.157559 0.684168
vt 0.284970 0.684168
vt 0.157559 0.712992
vt 0.284970 0.712992
vt 0.284970 0.721545
vt 0.157559 0.742671
vt 0.137461 0.083353
vt 0.137461 0.500000
vt 0.137461 0.882066
vt 0.715140 0.165290
vt 0.712347 0.152202
vt 0.748370 0.120208
vt 0.757293 0.155315
vt 0.761841 0.192116
vt 0.761841 0.229197
vt 0.757293 0.265134
vt 0.748370 0.298544
vt 0.735417 0.328144
vt 0.718931 0.352797
vt 0.678005 0.383697
vt 0.655138 0.388757
vt 0.631822 0.386540
vt 0.608955 0.377132
vt 0.587415 0.360894
vt 0.568029 0.338449
vt 0.551543 0.310661
vt 0.538590 0.278598
vt 0.574613 0.246604
vt 0.577835 0.261705
vt 0.586373 0.287500
vt 0.718401 0.194791
vt 0.718783 0.224468
vt 0.597105 0.309909
vt 0.716272 0.253182
vt 0.710962 0.279829
vt 0.609620 0.328072
vt 0.623435 0.341290
vt 0.703060 0.303386
vt 0.638021 0.349055
vt 0.692868 0.322947
vt 0.680778 0.337760
vt 0.571820 0.233516
vt 0.529667 0.243491
vt 0.525119 0.206690
vt 0.525119 0.169609
vt 0.529667 0.133673
vt 0.538590 0.100262
vt 0.551543 0.070662
vt 0.568029 0.046009
vt 0.608955 0.015109
vt 0.631822 0.010049
vt 0.655138 0.012266
vt 0.678005 0.021674
vt 0.699545 0.037913
vt 0.718931 0.060357
vt 0.735417 0.088145
vt 0.709125 0.137101
vt 0.700587 0.111306
vt 0.568559 0.204016
vt 0.568177 0.174338
vt 0.689855 0.088897
vt 0.570688 0.145624
vt 0.575998 0.118977
vt 0.677340 0.070734
vt 0.663525 0.057516
vt 0.583900 0.095420
vt 0.648939 0.049751
vt 0.594092 0.075859
vt 0.606182 0.061046
vt 0.137461 0.989951
vt 0.568287 0.614722
vt 0.525119 0.628004
vt 0.525119 0.590922
vt 0.529667 0.554121
vt 0.538590 0.519014
vt 0.551543 0.486951
vt 0.568029 0.459163
vt 0.587415 0.436719
vt 0.631822 0.411072
vt 0.655138 0.408855
vt 0.678005 0.413915
vt 0.718931 0.444815
vt 0.735417 0.469468
vt 0.748370 0.499069
vt 0.757293 0.532479
vt 0.761841 0.568415
vt 0.718673 0.581697
vt 0.718783 0.573144
vt 0.568559 0.593597
vt 0.716272 0.544430
vt 0.710962 0.517783
vt 0.571820 0.564097
vt 0.577835 0.535907
vt 0.703060 0.494226
vt 0.586373 0.510112
vt 0.692868 0.474665
vt 0.680778 0.459853
vt 0.597105 0.487703
vt 0.609620 0.469540
vt 0.667254 0.450357
vt 0.652817 0.446542
vt 0.623435 0.456322
vt 0.761841 0.605496
vt 0.757293 0.642297
vt 0.748370 0.677404
vt 0.735417 0.709468
vt 0.718931 0.737255
vt 0.699545 0.759700
vt 0.655138 0.785347
vt 0.631822 0.787563
vt 0.608955 0.782503
vt 0.568029 0.751603
vt 0.551543 0.726950
vt 0.538590 0.697350
vt 0.529667 0.663940
vt 0.568177 0.623274
vt 0.718401 0.602822
vt 0.570688 0.651988
vt 0.575998 0.678636
vt 0.715140 0.632322
vt 0.709125 0.660511
vt 0.583900 0.702192
vt 0.700587 0.686306
vt 0.594092 0.721753
vt 0.606182 0.736566
vt 0.689855 0.708715
vt 0.677340 0.726878
vt 0.619706 0.746062
vt 0.634143 0.749876
vt 0.663525 0.740096
vt 0.157559 0.010049
vt 0.284970 0.376360
vt 0.157559 0.434864
vt 0.284970 0.742671
s 0
usemtl マテリアル
f 2/1/1 3/2/1 1/3/1
f 4/4/2 5/5/2 3/2/2
f 5/5/3 8/6/3 7/7/3
f 8/6/4 9/8/4 7/7/4
f 10/9/5 11/10/5 9/8/5
f 12/11/6 13/12/6 11/10/6
f 14/13/7 15/14/7 13/12/7
f 16/15/8 17/16/8 15/14/8
f 18/17/9 19/18/9 17/16/9
f 20/19/10 21/20/10 19/18/10
f 22/21/11 23/22/11 21/20/11
f 24/23/12 25/24/12 23/22/12
f 26/25/13 27/26/13 25/24/13
f 28/27/14 29/28/14 27/26/14
f 30/29/15 31/30/15 29/28/15
f 32/31/16 33/32/16 31/30/16
f 33/32/17 36/33/17 35/34/17
f 36/33/18 37/35/18 35/34/18
f 38/36/19 39/37/19 37/35/19
f 40/38/20 41/39/20 39/37/20
f 42/40/21 43/41/21 41/39/21
f 44/42/22 45/43/22 43/41/22
f 46/44/23 47/45/23 45/43/23
f 48/46/24 49/47/24 47/45/24
f 50/48/25 51/49/25 49/47/25
f 52/50/26 53/51/26 51/49/26
f 54/52/27 55/53/27 53/51/27
f 56/54/28 57/55/28 55/53/28
f 58/56/29 59/57/29 57/55/29
f 59/57/30 62/58/30 61/59/30
f 54/60/31 73/61/31 81/62/31
f 22/63/31 90/64/31 97/65/31
f 62/58/32 63/66/32 61/59/32
f 64/67/33 1/68/33 63/66/33
f 13/69/34 21/70/34 117/71/34
f 45/72/34 53/73/34 120/74/34
f 2/1/1 4/4/1 3/2/1
f 4/4/2 6/141/2 5/5/2
f 5/5/3 6/141/3 8/6/3
f 8/6/4 10/9/4 9/8/4
f 10/9/5 12/11/5 11/10/5
f 12/11/6 14/13/6 13/12/6
f 14/13/7 16/15/7 15/14/7
f 16/15/8 18/17/8 17/16/8
f 18/17/9 20/19/9 19/18/9
f 20/19/10 22/21/10 21/20/10
f 22/21/11 24/23/11 23/22/11
f 24/23/12 26/25/12 25/24/12
f 26/25/13 28/27/13 27/26/13
f 28/27/14 30/29/14 29/28/14
f 30/29/15 32/31/15 31/30/15
f 32/31/16 34/142/16 33/32/16
f 33/32/17 34/142/17 36/33/17
f 36/33/18 38/36/18 37/35/18
f 38/36/19 40/38/19 39/37/19
f 40/38/20 42/40/20 41/39/20
f 42/40/21 44/42/21 43/41/21
f 44/42/22 46/44/22 45/43/22
f 46/44/23 48/46/23 47/45/23
f 48/46/24 50/48/24 49/47/24
f 50/48/25 52/50/25 51/49/25
f 52/50/26 54/52/26 53/51/26
f 54/52/27 56/54/27 55/53/27
f 56/54/28 58/56/28 57/55/28
f 58/56/29 60/143/29 59/57/29
f 59/57/30 60/143/30 62/58/30
f 69/144/31 70/145/31 6/146/31
f 6/146/31 4/147/31 2/148/31
f 2/148/31 64/149/31 62/150/31
f 62/150/31 60/151/31 58/152/31
f 58/152/31 56/153/31 54/60/31
f 54/60/31 52/154/31 50/155/31
f 50/155/31 48/156/31 46/157/31
f 46/157/31 44/158/31 42/159/31
f 42/159/31 40/160/31 38/161/31
f 38/161/31 71/162/31 72/163/31
f 38/161/31 72/163/31 77/164/31
f 46/157/31 42/159/31 38/161/31
f 54/60/31 50/155/31 46/157/31
f 62/150/31 58/152/31 54/60/31
f 6/146/31 2/148/31 62/150/31
f 65/165/31 69/144/31 6/146/31
f 80/166/31 65/165/31 6/146/31
f 6/146/31 62/150/31 54/60/31
f 46/157/31 38/161/31 77/164/31
f 46/157/31 77/164/31 82/167/31
f 79/168/31 80/166/31 6/146/31
f 78/169/31 79/168/31 6/146/31
f 46/157/31 82/167/31 76/170/31
f 46/157/31 76/170/31 75/171/31
f 78/169/31 6/146/31 54/60/31
f 83/172/31 78/169/31 54/60/31
f 46/157/31 75/171/31 74/173/31
f 46/157/31 74/173/31 73/61/31
f 85/174/31 83/172/31 54/60/31
f 84/175/31 85/174/31 54/60/31
f 54/60/31 46/157/31 73/61/31
f 81/62/31 84/175/31 54/60/31
f 86/176/31 71/162/31 38/161/31
f 38/161/31 36/177/31 34/178/31
f 34/178/31 32/179/31 30/180/31
f 30/180/31 28/181/31 26/182/31
f 26/182/31 24/183/31 22/63/31
f 22/63/31 20/184/31 18/185/31
f 18/185/31 16/186/31 14/187/31
f 14/187/31 12/188/31 10/189/31
f 10/189/31 8/190/31 6/146/31
f 6/146/31 70/145/31 87/191/31
f 6/146/31 87/191/31 92/192/31
f 14/187/31 10/189/31 6/146/31
f 22/63/31 18/185/31 14/187/31
f 30/180/31 26/182/31 22/63/31
f 38/161/31 34/178/31 30/180/31
f 66/193/31 86/176/31 38/161/31
f 93/194/31 66/193/31 38/161/31
f 38/161/31 30/180/31 22/63/31
f 14/187/31 6/146/31 92/192/31
f 14/187/31 92/192/31 96/195/31
f 95/196/31 93/194/31 38/161/31
f 94/197/31 95/196/31 38/161/31
f 14/187/31 96/195/31 89/198/31
f 14/187/31 89/198/31 88/199/31
f 94/197/31 38/161/31 22/63/31
f 98/200/31 94/197/31 22/63/31
f 14/187/31 88/199/31 91/201/31
f 14/187/31 91/201/31 90/64/31
f 100/202/31 98/200/31 22/63/31
f 99/203/31 100/202/31 22/63/31
f 22/63/31 14/187/31 90/64/31
f 97/65/31 99/203/31 22/63/31
f 62/58/32 64/67/32 63/66/32
f 64/67/33 2/204/33 1/68/33
f 101/205/34 63/206/34 1/207/34
f 1/207/34 3/208/34 5/209/34
f 5/209/34 7/210/34 9/211/34
f 9/211/34 11/212/34 13/69/34
f 13/69/34 15/213/34 17/214/34
f 17/214/34 19/215/34 21/70/34
f 21/70/34 23/216/34 25/217/34
f 25/217/34 27/218/34 29/219/34
f 29/219/34 31/220/34 102/221/34
f 29/219/34 102/221/34 103/222/34
f 21/70/34 25/217/34 29/219/34
f 13/69/34 17/214/34 21/70/34
f 5/209/34 9/211/34 13/69/34
f 101/205/34 1/207/34 5/209/34
f 67/223/34 101/205/34 5/209/34
f 29/219/34 103/222/34 109/224/34
f 29/219/34 109/224/34 114/225/34
f 104/226/34 67/223/34 5/209/34
f 110/227/34 104/226/34 5/209/34
f 21/70/34 29/219/34 114/225/34
f 21/70/34 114/225/34 106/228/34
f 110/227/34 5/209/34 13/69/34
f 112/229/34 110/227/34 13/69/34
f 21/70/34 106/228/34 105/230/34
f 21/70/34 105/230/34 107/231/34
f 111/232/34 112/229/34 13/69/34
f 113/233/34 111/232/34 13/69/34
f 21/70/34 107/231/34 108/234/34
f 21/70/34 108/234/34 115/235/34
f 116/236/34 113/233/34 13/69/34
f 21/70/34 115/235/34 117/71/34
f 117/71/34 116/236/34 13/69/34
f 102/221/34 31/220/34 33/237/34
f 33/237/34 35/238/34 37/239/34
f 37/239/34 39/240/34 41/241/34
f 41/241/34 43/242/34 45/72/34
f 45/72/34 47/243/34 49/244/34
f 49/244/34 51/245/34 53/73/34
f 53/73/34 55/246/34 57/247/34
f 57/247/34 59/248/34 61/249/34
f 61/249/34 63/206/34 101/205/34
f 61/249/34 101/205/34 118/250/34
f 53/73/34 57/247/34 61/249/34
f 45/72/34 49/244/34 53/73/34
f 37/239/34 41/241/34 45/72/34
f 102/221/34 33/237/34 37/239/34
f 68/251/34 102/221/34 37/239/34
f 61/249/34 118/250/34 124/252/34
f 61/249/34 124/252/34 123/253/34
f 125/254/34 68/251/34 37/239/34
f 127/255/34 125/254/34 37/239/34
f 53/73/34 61/249/34 123/253/34
f 53/73/34 123/253/34 126/256/34
f 127/255/34 37/239/34 45/72/34
f 129/257/34 127/255/34 45/72/34
f 53/73/34 126/256/34 128/258/34
f 53/73/34 128/258/34 130/259/34
f 132/260/34 129/257/34 45/72/34
f 122/261/34 132/260/34 45/72/34
f 53/73/34 130/259/34 131/262/34
f 53/73/34 131/262/34 119/263/34
f 121/264/34 122/261/34 45/72/34
f 53/73/34 119/263/34 120/74/34
f 120/74/34 121/264/34 45/72/34
usemtl 
f 69/75/35 67/76/35 104/77/35
f 87/78/36 70/79/36 104/77/36
f 92/80/37 110/81/37 112/82/37
f 96/83/38 112/82/38 111/84/38
f 89/85/39 111/84/39 113/86/39
f 89/85/40 116/87/40 88/88/40
f 88/88/41 117/89/41 91/90/41
f 90/91/42 117/89/42 115/92/42
f 90/91/43 108/93/43 97/94/43
f 97/94/44 107/95/44 99/96/44
f 99/96/45 105/97/45 100/98/45
f 100/98/46 106/99/46 98/100/46
f 98/100/47 114/101/47 94/102/47
f 94/102/48 109/103/48 95/104/48
f 95/104/49 103/105/49 93/106/49
f 66/107/50 103/105/50 102/108/50
f 66/107/51 125/109/51 86/110/51
f 71/111/52 125/109/52 127/112/52
f 77/113/53 127/112/53 129/114/53
f 77/113/54 132/115/54 82/116/54
f 82/116/55 122/117/55 76/118/55
f 75/119/56 122/117/56 121/120/56
f 74/121/57 121/120/57 120/122/57
f 73/123/58 120/122/58 119/124/58
f 81/125/59 119/124/59 131/126/59
f 84/127/60 131/126/60 130/128/60
f 85/129/61 130/128/61 128/130/61
f 83/131/62 128/130/62 126/132/62
f 78/133/63 126/132/63 123/134/63
f 79/135/64 123/134/64 124/136/64
f 80/137/65 124/136/65 118/138/65
f 118/138/66 101/139/66 65/140/66
f 69/75/35 65/265/35 67/76/35
f 104/77/36 110/81/36 87/78/36
f 70/79/36 69/75/36 104/77/36
f 92/80/37 87/78/37 110/81/37
f 96/83/38 92/80/38 112/82/38
f 89/85/39 96/83/39 111/84/39
f 89/85/40 113/86/40 116/87/40
f 88/88/41 116/87/41 117/89/41
f 90/91/42 91/90/42 117/89/42
f 90/91/43 115/92/43 108/93/43
f 97/94/44 108/93/44 107/95/44
f 99/96/45 107/95/45 105/97/45
f 100/98/46 105/97/46 106/99/46
f 98/100/47 106/99/47 114/101/47
f 94/102/48 114/101/48 109/103/48
f 95/104/49 109/103/49 103/105/49
f 102/108/50 68/266/50 66/107/50
f 66/107/50 93/106/50 103/105/50
f 66/107/51 68/266/51 125/109/51
f 127/112/52 72/267/52 71/111/52
f 71/111/52 86/110/52 125/109/52
f 77/113/53 72/267/53 127/112/53
f 77/113/54 129/114/54 132/115/54
f 82/116/55 132/115/55 122/117/55
f 75/119/56 76/118/56 122/117/56
f 74/121/57 75/119/57 121/120/57
f 73/123/58 74/121/58 120/122/58
f 81/125/59 73/123/59 119/124/59
f 84/127/60 81/125/60 131/126/60
f 85/129/61 84/127/61 130/128/61
f 83/131/62 85/129/62 128/130/62
f 78/133/63 83/131/63 126/132/63
f 79/135/64 78/133/64 123/134/64
f 80/137/65 79/135/65 124/136/65
f 65/140/66 80/137/66 118/138/66
f 101/139/66 67/268/66 65/140/66
o 円柱.001
v -0.324935 0.000000 0.269050
v -0.324935 -0.000000 -0.269050
v -0.318692 -0.134309 0.269050
v -0.318692 -0.134309 -0.269050
v -0.300201 -0.263457 0.269050
v -0.300201 -0.263457 -0.269050
v -0.270174 -0.382480 0.269050
v -0.270174 -0.382480 -0.269050
v -0.229764 -0.486805 0.269050
v -0.229764 -0.486805 -0.269050
v -0.180524 -0.572422 0.269050
v -0.180524 -0.572422 -0.269050
v -0.124347 -0.636042 0.269050
v -0.124347 -0.636042 -0.269050
v -0.063392 -0.675218 0.269050
v -0.063392 -0.675218 -0.269050
v 0.000000 -0.688446 0.269050
v -0.000000 -0.688446 -0.269050
v 0.063392 -0.675218 0.269050
v 0.063392 -0.675218 -0.269050
v 0.124347 -0.636042 0.269050
v 0.124347 -0.636042 -0.269050
v 0.180524 -0.572422 0.269050
v 0.180524 -0.572422 -0.269050
v 0.229764 -0.486805 0.269050
v 0.229764 -0.486805 -0.269050
v 0.270174 -0.382480 0.269050
v 0.270174 -0.382480 -0.269050
v 0.300201 -0.263457 0.269050
v 0.300201 -0.263457 -0.269050
v 0.318692 -0.134309 0.269050
v 0.318692 -0.134309 -0.269050
v 0.324935 0.000000 0.269050
v 0.324935 -0.000000 -0.269050
v 0.318692 0.134309 0.269050
v 0.318692 0.134309 -0.269050
v 0.300201 0.263457 0.269050
v 0.300201 0.263457 -0.269050
v 0.270174 0.382480 0.269050
v 0.270174 0.382480 -0.269050
v 0.229764 0.486805 0.269050
v 0.229764 0.486805 -0.269050
v 0.180524 0.572422 0.269050
v 0.180524 0.572422 -0.269050
v 0.124347 0.636042 0.269050
v 0.124347 0.636042 -0.269050
v 0.063392 0.675218 0.269050
v 0.063392 0.675218 -0.269050
v 0.000000 0.688446 0.269050
v -0.000000 0.688446 -0.269050
v -0.063392 0.675218 0.269050
v -0.063392 0.675218 -0.269050
v -0.124347 0.636042 0.269050
v -0.124347 0.636042 -0.269050
v -0.180524 0.572422 0.269050
v -0.180524 0.572422 -0.269050
v -0.229764 0.486805 0.269050
v -0.229764 0.486805 -0.269050
v -0.270174 0.382480 0.269050
v -0.270174 0.382480 -0.269050
v -0.300201 0.263457 0.269050
v -0.300201 0.263457 -0.269050
v -0.318692 0.134309 0.269050
v -0.318692 0.134309 -0.269050
vn -0.9989 -0.0464 -0.0000
vn -0.9899 -0.1417 -0.0000
vn -0.9696 -0.2446 -0.0000
vn -0.9325 -0.3612 -0.0000
vn -0.8669 -0.4985 -0.0000
vn -0.7496 -0.6619 -0.0000
vn -0.5407 -0.8412 -0.0000
vn -0.2043 -0.9789 -0.0000
vn 0.2043 -0.9789 -0.0000
vn 0.5407 -0.8412 -0.0000
vn 0.7496 -0.6619 -0.0000
vn 0.8669 -0.4985 -0.0000
vn 0.9325 -0.3612 -0.0000
vn 0.9696 -0.2446 -0.0000
vn 0.9899 -0.1417 -0.0000
vn 0.9989 -0.0464 -0.0000
vn 0.9989 0.0464 -0.0000
vn 0.9899 0.1417 -0.0000
vn 0.9696 0.2446 -0.0000
vn 0.9325 0.3612 -0.0000
vn 0.8669 0.4985 -0.0000
vn 0.7496 0.6619 -0.0000
vn 0.5407 0.8412 -0.0000
vn 0.2043 0.9789 -0.0000
vn -0.2043 0.9789 -0.0000
vn -0.5407 0.8412 -0.0000
vn -0.7496 0.6619 -0.0000
vn -0.8669 0.4985 -0.0000
vn -0.9325 0.3612 -0.0000
vn -0.9696 0.2446 -0.0000
vn -0.0000 -0.0000 -1.0000
vn -0.9899 0.1417 -0.0000
vn -0.9989 0.0464 -0.0000
vn -0.0000 -0.0000 1.0000
vt 0.505021 0.010049
vt 0.305068 0.029648
vt 0.305068 0.010049
vt 0.505021 0.029648
vt 0.305068 0.049247
vt 0.505021 0.049246
vt 0.305068 0.068845
vt 0.505021 0.068845
vt 0.305068 0.088444
vt 0.505021 0.088444
vt 0.305068 0.108043
vt 0.505021 0.108043
vt 0.305068 0.127642
vt 0.505021 0.127641
vt 0.305068 0.147240
vt 0.505021 0.147240
vt 0.305068 0.166839
vt 0.505021 0.166839
vt 0.305068 0.186438
vt 0.505021 0.186438
vt 0.305068 0.206037
vt 0.505021 0.206037
vt 0.305068 0.225635
vt 0.505021 0.225635
vt 0.305068 0.245234
vt 0.505021 0.245234
vt 0.305068 0.264833
vt 0.505021 0.264833
vt 0.305069 0.284432
vt 0.505021 0.284432
vt 0.305069 0.304030
vt 0.505021 0.304030
vt 0.305069 0.323629
vt 0.505021 0.323629
vt 0.305069 0.343228
vt 0.505021 0.343228
vt 0.305069 0.362827
vt 0.505021 0.362827
vt 0.305069 0.382425
vt 0.505021 0.382425
vt 0.305069 0.402024
vt 0.505021 0.402024
vt 0.305069 0.421623
vt 0.505021 0.421623
vt 0.305069 0.441222
vt 0.505021 0.441222
vt 0.305069 0.460820
vt 0.505021 0.460820
vt 0.305069 0.480419
vt 0.505021 0.480419
vt 0.305069 0.500018
vt 0.505021 0.500018
vt 0.305069 0.519617
vt 0.505021 0.519617
vt 0.305069 0.539215
vt 0.505021 0.539215
vt 0.305069 0.558814
vt 0.505021 0.558814
vt 0.305069 0.578413
vt 0.505021 0.578413
vt 0.305069 0.598012
vt 0.891233 0.010049
vt 0.980929 0.119343
vt 0.871634 0.209038
vt 0.505021 0.598012
vt 0.305069 0.617610
vt 0.505021 0.617610
vt 0.305069 0.637209
vt 0.500234 0.727780
vt 0.433585 0.852473
vt 0.308892 0.785823
vt 0.852412 0.205215
vt 0.834305 0.197715
vt 0.818010 0.186826
vt 0.804151 0.172968
vt 0.793263 0.156672
vt 0.785763 0.138565
vt 0.781939 0.119343
vt 0.781939 0.099744
vt 0.785763 0.080522
vt 0.793263 0.062415
vt 0.804151 0.046119
vt 0.818010 0.032261
vt 0.834305 0.021373
vt 0.852412 0.013873
vt 0.871634 0.010049
vt 0.910455 0.013873
vt 0.928562 0.021373
vt 0.944858 0.032261
vt 0.958716 0.046120
vt 0.969605 0.062415
vt 0.977105 0.080522
vt 0.980929 0.099744
vt 0.977105 0.138565
vt 0.969605 0.156672
vt 0.958716 0.172968
vt 0.944858 0.186826
vt 0.928562 0.197715
vt 0.910455 0.205215
vt 0.891233 0.209038
vt 0.505021 0.637209
vt 0.305068 0.766601
vt 0.305068 0.747002
vt 0.308892 0.727780
vt 0.316392 0.709673
vt 0.327281 0.693378
vt 0.341139 0.679519
vt 0.357435 0.668631
vt 0.375542 0.661131
vt 0.394764 0.657307
vt 0.414363 0.657307
vt 0.433585 0.661131
vt 0.451692 0.668631
vt 0.467987 0.679519
vt 0.481846 0.693378
vt 0.492734 0.709673
vt 0.504058 0.747003
vt 0.504058 0.766601
vt 0.500234 0.785823
vt 0.492734 0.803930
vt 0.481846 0.820226
vt 0.467987 0.834085
vt 0.451692 0.844973
vt 0.414363 0.856297
vt 0.394764 0.856297
vt 0.375542 0.852473
vt 0.357435 0.844973
vt 0.341139 0.834084
vt 0.327281 0.820226
vt 0.316392 0.803930
s 0
usemtl マテリアル.001
f 134/269/67 135/270/67 133/271/67
f 136/272/68 137/273/68 135/270/68
f 138/274/69 139/275/69 137/273/69
f 140/276/70 141/277/70 139/275/70
f 142/278/71 143/279/71 141/277/71
f 144/280/72 145/281/72 143/279/72
f 146/282/73 147/283/73 145/281/73
f 148/284/74 149/285/74 147/283/74
f 150/286/75 151/287/75 149/285/75
f 152/288/76 153/289/76 151/287/76
f 154/290/77 155/291/77 153/289/77
f 156/292/78 157/293/78 155/291/78
f 158/294/79 159/295/79 157/293/79
f 160/296/80 161/297/80 159/295/80
f 162/298/81 163/299/81 161/297/81
f 164/300/82 165/301/82 163/299/82
f 166/302/83 167/303/83 165/301/83
f 168/304/84 169/305/84 167/303/84
f 170/306/85 171/307/85 169/305/85
f 172/308/86 173/309/86 171/307/86
f 174/310/87 175/311/87 173/309/87
f 176/312/88 177/313/88 175/311/88
f 178/314/89 179/315/89 177/313/89
f 180/316/90 181/317/90 179/315/90
f 182/318/91 183/319/91 181/317/91
f 184/320/92 185/321/92 183/319/92
f 186/322/93 187/323/93 185/321/93
f 188/324/94 189/325/94 187/323/94
f 190/326/95 191/327/95 189/325/95
f 192/328/96 193/329/96 191/327/96
f 170/330/97 154/331/97 138/332/97
f 194/333/98 195/334/98 193/329/98
f 196/335/99 133/336/99 195/334/99
f 163/337/100 179/338/100 195/339/100
f 134/269/67 136/272/67 135/270/67
f 136/272/68 138/274/68 137/273/68
f 138/274/69 140/276/69 139/275/69
f 140/276/70 142/278/70 141/277/70
f 142/278/71 144/280/71 143/279/71
f 144/280/72 146/282/72 145/281/72
f 146/282/73 148/284/73 147/283/73
f 148/284/74 150/286/74 149/285/74
f 150/286/75 152/288/75 151/287/75
f 152/288/76 154/290/76 153/289/76
f 154/290/77 156/292/77 155/291/77
f 156/292/78 158/294/78 157/293/78
f 158/294/79 160/296/79 159/295/79
f 160/296/80 162/298/80 161/297/80
f 162/298/81 164/300/81 163/299/81
f 164/300/82 166/302/82 165/301/82
f 166/302/83 168/304/83 167/303/83
f 168/304/84 170/306/84 169/305/84
f 170/306/85 172/308/85 171/307/85
f 172/308/86 174/310/86 173/309/86
f 174/310/87 176/312/87 175/311/87
f 176/312/88 178/314/88 177/313/88
f 178/314/89 180/316/89 179/315/89
f 180/316/90 182/318/90 181/317/90
f 182/318/91 184/320/91 183/319/91
f 184/320/92 186/322/92 185/321/92
f 186/322/93 188/324/93 187/323/93
f 188/324/94 190/326/94 189/325/94
f 190/326/95 192/328/95 191/327/95
f 192/328/96 194/333/96 193/329/96
f 138/332/97 136/340/97 134/341/97
f 134/341/97 196/342/97 194/343/97
f 194/343/97 192/344/97 190/345/97
f 190/345/97 188/346/97 186/347/97
f 186/347/97 184/348/97 182/349/97
f 182/349/97 180/350/97 178/351/97
f 178/351/97 176/352/97 174/353/97
f 174/353/97 172/354/97 170/330/97
f 170/330/97 168/355/97 166/356/97
f 166/356/97 164/357/97 162/358/97
f 162/358/97 160/359/97 158/360/97
f 158/360/97 156/361/97 154/331/97
f 154/331/97 152/362/97 150/363/97
f 150/363/97 148/364/97 146/365/97
f 146/365/97 144/366/97 142/367/97
f 142/367/97 140/368/97 138/332/97
f 138/332/97 134/341/97 194/343/97
f 194/343/97 190/345/97 186/347/97
f 186/347/97 182/349/97 178/351/97
f 178/351/97 174/353/97 170/330/97
f 170/330/97 166/356/97 162/358/97
f 162/358/97 158/360/97 154/331/97
f 154/331/97 150/363/97 146/365/97
f 146/365/97 142/367/97 138/332/97
f 138/332/97 194/343/97 186/347/97
f 186/347/97 178/351/97 170/330/97
f 170/330/97 162/358/97 154/331/97
f 154/331/97 146/365/97 138/332/97
f 138/332/97 186/347/97 170/330/97
f 194/333/98 196/335/98 195/334/98
f 196/335/99 134/369/99 133/336/99
f 195/339/100 133/370/100 135/371/100
f 135/371/100 137/372/100 139/373/100
f 139/373/100 141/374/100 143/375/100
f 143/375/100 145/376/100 147/377/100
f 147/377/100 149/378/100 151/379/100
f 151/379/100 153/380/100 155/381/100
f 155/381/100 157/382/100 159/383/100
f 159/383/100 161/384/100 163/337/100
f 163/337/100 165/385/100 167/386/100
f 167/386/100 169/387/100 171/388/100
f 171/388/100 173/389/100 175/390/100
f 175/390/100 177/391/100 179/338/100
f 179/338/100 181/392/100 183/393/100
f 183/393/100 185/394/100 187/395/100
f 187/395/100 189/396/100 191/397/100
f 191/397/100 193/398/100 195/339/100
f 195/339/100 135/371/100 139/373/100
f 139/373/100 143/375/100 147/377/100
f 147/377/100 151/379/100 155/381/100
f 155/381/100 159/383/100 163/337/100
f 163/337/100 167/386/100 171/388/100
f 171/388/100 175/390/100 179/338/100
f 179/338/100 183/393/100 187/395/100
f 187/395/100 191/397/100 195/339/100
f 195/339/100 139/373/100 147/377/100
f 147/377/100 155/381/100 163/337/100
f 163/337/100 171/388/100 179/338/100
f 179/338/100 187/395/100 195/339/100
f 195/339/100 147/377/100 163/337/100
