# Blender 4.1.1
# www.blender.org
mtllib goalup.mtl
o 円柱.001
v 0.000000 1.224591 -0.034096
v 0.000000 1.224591 0.034096
v 0.238906 1.201061 -0.034096
v 0.238906 1.201061 0.034096
v 0.468631 1.131375 -0.034096
v 0.468631 1.131375 0.034096
v 0.680347 1.018211 -0.034096
v 0.680347 1.018211 0.034096
v 0.865917 0.865917 -0.034096
v 0.865917 0.865917 0.034096
v 1.018211 0.680347 -0.034096
v 1.018211 0.680347 0.034096
v 1.131375 0.468631 -0.034096
v 1.131375 0.468631 0.034096
v 1.201061 0.238906 -0.034096
v 1.201061 0.238906 0.034096
v 1.224591 0.000000 -0.034096
v 1.224591 -0.000000 0.034096
v 1.201061 -0.238906 -0.034096
v 1.201061 -0.238906 0.034096
v 1.131375 -0.468631 -0.034096
v 1.131375 -0.468631 0.034096
v 1.018211 -0.680347 -0.034096
v 1.018211 -0.680347 0.034096
v 0.865917 -0.865917 -0.034096
v 0.865917 -0.865917 0.034096
v 0.680347 -1.018211 -0.034096
v 0.680347 -1.018211 0.034096
v 0.468631 -1.131375 -0.034096
v 0.468631 -1.131375 0.034096
v 0.238906 -1.201061 -0.034096
v 0.238906 -1.201061 0.034096
v 0.000000 -1.224591 -0.034096
v 0.000000 -1.224591 0.034096
v -0.238906 -1.201061 -0.034096
v -0.238906 -1.201061 0.034096
v -0.468631 -1.131375 -0.034096
v -0.468631 -1.131375 0.034096
v -0.680347 -1.018211 -0.034096
v -0.680347 -1.018211 0.034096
v -0.865917 -0.865917 -0.034096
v -0.865917 -0.865917 0.034096
v -1.018211 -0.680347 -0.034096
v -1.018211 -0.680347 0.034096
v -1.131375 -0.468631 -0.034096
v -1.131375 -0.468631 0.034096
v -1.201061 -0.238906 -0.034096
v -1.201061 -0.238906 0.034096
v -1.224591 0.000000 -0.034096
v -1.224591 -0.000000 0.034096
v -1.201061 0.238906 -0.034096
v -1.201061 0.238906 0.034096
v -1.131375 0.468631 -0.034096
v -1.131375 0.468631 0.034096
v -1.018211 0.680347 -0.034096
v -1.018211 0.680347 0.034096
v -0.865917 0.865917 -0.034096
v -0.865917 0.865917 0.034096
v -0.680347 1.018211 -0.034096
v -0.680347 1.018211 0.034096
v -0.468631 1.131375 -0.034096
v -0.468631 1.131375 0.034096
v -0.238906 1.201061 -0.034096
v -0.238906 1.201061 0.034096
v -0.707107 0.707107 0.034096
v -0.555570 0.831470 0.034096
v -0.195090 0.980785 0.034096
v 0.000000 1.000000 0.034096
v -0.382683 0.923880 0.034096
v -1.000000 -0.000000 0.034096
v -0.980785 -0.195090 0.034096
v -0.831470 -0.555570 0.034096
v -0.707107 -0.707107 0.034096
v -0.923880 -0.382683 0.034096
v 0.000000 -1.000000 0.034096
v 0.195090 -0.980785 0.034096
v 0.555570 -0.831470 0.034096
v 0.707107 -0.707107 0.034096
v 0.382683 -0.923880 0.034096
v 0.707107 0.707107 0.034096
v 0.831470 0.555570 0.034096
v 1.000000 -0.000000 0.034096
v 0.980785 0.195090 0.034096
v 0.923880 0.382683 0.034096
v -0.980785 0.195090 0.034096
v -0.831470 0.555570 0.034096
v -0.923880 0.382683 0.034096
v -0.555570 -0.831470 0.034096
v 0.382683 0.923880 0.034096
v 0.195090 0.980785 0.034096
v -0.382683 -0.923880 0.034096
v -0.195090 -0.980785 0.034096
v 0.831470 -0.555570 0.034096
v 0.980785 -0.195090 0.034096
v 0.923880 -0.382683 0.034096
v 0.555570 0.831470 0.034096
v 0.195090 0.980785 -0.034096
v 0.382683 0.923880 -0.034096
v 0.707107 0.707107 -0.034096
v 0.831470 0.555570 -0.034096
v 0.555570 0.831470 -0.034096
v 0.555570 -0.831470 -0.034096
v 0.707107 -0.707107 -0.034096
v 0.923880 -0.382683 -0.034096
v 0.980785 -0.195090 -0.034096
v 0.831470 -0.555570 -0.034096
v -0.831470 -0.555570 -0.034096
v -0.707107 -0.707107 -0.034096
v -0.382683 -0.923880 -0.034096
v -0.195090 -0.980785 -0.034096
v -0.555570 -0.831470 -0.034096
v -0.923880 0.382683 -0.034096
v -0.980785 0.195090 -0.034096
v -0.707107 0.707107 -0.034096
v -0.555570 0.831470 -0.034096
v -0.831470 0.555570 -0.034096
v -0.195090 0.980785 -0.034096
v 0.000000 1.000000 -0.034096
v 0.923880 0.382683 -0.034096
v 1.000000 0.000000 -0.034096
v 0.980785 0.195090 -0.034096
v 0.382683 -0.923880 -0.034096
v -1.000000 0.000000 -0.034096
v -0.923880 -0.382683 -0.034096
v -0.980785 -0.195090 -0.034096
v -0.382683 0.923880 -0.034096
v 0.195090 -0.980785 -0.034096
v 0.000000 -1.000000 -0.034096
vn -0.0000 1.0000 -0.0000
vn 0.1951 0.9808 -0.0000
vn 0.3827 0.9239 -0.0000
vn 0.5556 0.8315 -0.0000
vn 0.7071 0.7071 -0.0000
vn 0.8315 0.5556 -0.0000
vn 0.9239 0.3827 -0.0000
vn 0.9808 0.1951 -0.0000
vn 1.0000 -0.0000 -0.0000
vn 0.9808 -0.1951 -0.0000
vn 0.9239 -0.3827 -0.0000
vn 0.8315 -0.5556 -0.0000
vn 0.7071 -0.7071 -0.0000
vn 0.5556 -0.8315 -0.0000
vn 0.3827 -0.9239 -0.0000
vn 0.1951 -0.9808 -0.0000
vn -0.0000 -1.0000 -0.0000
vn -0.1951 -0.9808 -0.0000
vn -0.3827 -0.9239 -0.0000
vn -0.5556 -0.8315 -0.0000
vn -0.7071 -0.7071 -0.0000
vn -0.8315 -0.5556 -0.0000
vn -0.9239 -0.3827 -0.0000
vn -0.9808 -0.1951 -0.0000
vn -1.0000 -0.0000 -0.0000
vn -0.9808 0.1951 -0.0000
vn -0.9239 0.3827 -0.0000
vn -0.8315 0.5556 -0.0000
vn -0.7071 0.7071 -0.0000
vn -0.5556 0.8315 -0.0000
vn -0.3827 0.9239 -0.0000
vn -0.0000 -0.0000 1.0000
vn -0.1951 0.9808 -0.0000
vn -0.0000 -0.0000 -1.0000
vt 0.092884 0.071540
vt 0.037622 0.091504
vt 0.037622 0.071540
vt 0.092884 0.091504
vt 0.037622 0.111468
vt 0.092884 0.111468
vt 0.037622 0.131431
vt 0.092884 0.131431
vt 0.037622 0.151395
vt 0.092884 0.151395
vt 0.037622 0.171359
vt 0.092884 0.171359
vt 0.037622 0.191323
vt 0.092884 0.191323
vt 0.037622 0.211286
vt 0.092884 0.211286
vt 0.037622 0.231250
vt 0.092884 0.231250
vt 0.037622 0.251214
vt 0.092884 0.251214
vt 0.037622 0.271178
vt 0.092884 0.271178
vt 0.037622 0.291142
vt 0.092884 0.291142
vt 0.037622 0.311105
vt 0.092884 0.311105
vt 0.037622 0.331069
vt 0.092884 0.331069
vt 0.037622 0.351033
vt 0.092884 0.351033
vt 0.037622 0.370997
vt 0.092884 0.370997
vt 0.037622 0.390960
vt 0.092884 0.390960
vt 0.037622 0.410924
vt 0.092884 0.430888
vt 0.037622 0.430888
vt 0.092884 0.450852
vt 0.037622 0.450852
vt 0.037622 0.470815
vt 0.092884 0.470815
vt 0.037622 0.490779
vt 0.092884 0.510743
vt 0.037622 0.510743
vt 0.037622 0.530707
vt 0.092884 0.550671
vt 0.037622 0.550671
vt 0.092884 0.570634
vt 0.037622 0.570634
vt 0.037622 0.590598
vt 0.092884 0.610562
vt 0.037622 0.610562
vt 0.037622 0.630526
vt 0.092884 0.630526
vt 0.037622 0.650489
vt 0.092884 0.670453
vt 0.037622 0.670453
vt 0.381770 0.519398
vt 0.444720 0.579734
vt 0.412272 0.566294
vt 0.296578 0.947686
vt 0.308258 0.909181
vt 0.342705 0.916033
vt 0.092884 0.690417
vt 0.037622 0.690417
vt 0.037622 0.710381
vt 0.220506 0.907332
vt 0.246032 0.876228
vt 0.221198 0.851394
vt 0.498872 0.568142
vt 0.473345 0.599246
vt 0.498180 0.624081
vt 0.091307 0.091504
vt 0.037163 0.071540
vt 0.037163 0.091504
vt 0.091307 0.111468
vt 0.037163 0.111468
vt 0.091307 0.131431
vt 0.037163 0.131431
vt 0.091307 0.151395
vt 0.037163 0.151395
vt 0.037163 0.171359
vt 0.091307 0.171359
vt 0.037163 0.191323
vt 0.091307 0.191323
vt 0.037163 0.211286
vt 0.091307 0.211286
vt 0.091307 0.231250
vt 0.037163 0.231250
vt 0.091307 0.251214
vt 0.037163 0.251214
vt 0.037163 0.271178
vt 0.091307 0.271178
vt 0.037163 0.291141
vt 0.091307 0.291141
vt 0.037163 0.311105
vt 0.091307 0.311105
vt 0.037163 0.331069
vt 0.091307 0.331069
vt 0.037163 0.351033
vt 0.091307 0.351033
vt 0.037163 0.370997
vt 0.091307 0.370997
vt 0.037163 0.390960
vt 0.091307 0.390960
vt 0.037163 0.410924
vt 0.091307 0.410924
vt 0.037163 0.430888
vt 0.091307 0.430888
vt 0.037163 0.450852
vt 0.091307 0.450852
vt 0.037163 0.470815
vt 0.091307 0.470815
vt 0.091307 0.490779
vt 0.037163 0.490779
vt 0.091307 0.510743
vt 0.037163 0.510743
vt 0.091307 0.530707
vt 0.037163 0.530707
vt 0.091307 0.550670
vt 0.037163 0.550670
vt 0.091307 0.570634
vt 0.037163 0.570634
vt 0.091307 0.590598
vt 0.037163 0.590598
vt 0.091307 0.610562
vt 0.037163 0.610562
vt 0.091307 0.630526
vt 0.037163 0.630526
vt 0.091307 0.650489
vt 0.037163 0.650489
vt 0.091307 0.670453
vt 0.037163 0.670453
vt 0.091307 0.690417
vt 0.037163 0.690417
vt 0.091307 0.710381
vt 0.037163 0.710381
vt 0.092884 0.410924
vt 0.092884 0.490779
vt 0.092884 0.530707
vt 0.092884 0.590598
vt 0.092884 0.650489
vt 0.275811 0.579734
vt 0.256843 0.544248
vt 0.296578 0.527789
vt 0.338761 0.519398
vt 0.423952 0.527789
vt 0.463688 0.544248
vt 0.499448 0.568142
vt 0.529860 0.598554
vt 0.553755 0.634315
vt 0.518269 0.653283
vt 0.498756 0.624081
vt 0.308258 0.566294
vt 0.473922 0.599246
vt 0.342705 0.559442
vt 0.377826 0.559442
vt 0.531709 0.685730
vt 0.570214 0.674050
vt 0.578604 0.716233
vt 0.578604 0.759242
vt 0.570214 0.801424
vt 0.553755 0.841160
vt 0.529860 0.876920
vt 0.499448 0.907332
vt 0.463688 0.931227
vt 0.423952 0.947686
vt 0.381770 0.956076
vt 0.338761 0.956076
vt 0.256843 0.931227
vt 0.221082 0.907332
vt 0.190670 0.876920
vt 0.166776 0.841160
vt 0.150317 0.801424
vt 0.141926 0.759242
vt 0.141926 0.716233
vt 0.150317 0.674050
vt 0.166776 0.634315
vt 0.190670 0.598554
vt 0.221082 0.568142
vt 0.246609 0.599246
vt 0.221774 0.624081
vt 0.538561 0.720177
vt 0.538561 0.755298
vt 0.202262 0.653283
vt 0.531709 0.789744
vt 0.188822 0.685730
vt 0.181970 0.720177
vt 0.518269 0.822192
vt 0.498756 0.851394
vt 0.181970 0.755298
vt 0.473922 0.876228
vt 0.188822 0.789744
vt 0.202262 0.822192
vt 0.444720 0.895741
vt 0.412272 0.909181
vt 0.221774 0.851394
vt 0.246609 0.876228
vt 0.377826 0.916033
vt 0.275811 0.895741
vt 0.092884 0.710381
vt 0.188245 0.789744
vt 0.181393 0.755298
vt 0.141350 0.759242
vt 0.149740 0.801424
vt 0.166199 0.841160
vt 0.190094 0.876920
vt 0.256266 0.931227
vt 0.296002 0.947686
vt 0.338184 0.956076
vt 0.381193 0.956076
vt 0.377249 0.916033
vt 0.342128 0.916032
vt 0.307682 0.909181
vt 0.201685 0.822192
vt 0.275234 0.895740
vt 0.411696 0.909181
vt 0.423376 0.947686
vt 0.463111 0.931227
vt 0.498872 0.907332
vt 0.529284 0.876920
vt 0.553178 0.841160
vt 0.569637 0.801424
vt 0.578028 0.759242
vt 0.578028 0.716233
vt 0.569637 0.674050
vt 0.553178 0.634315
vt 0.529284 0.598554
vt 0.463111 0.544248
vt 0.423376 0.527789
vt 0.381193 0.519398
vt 0.338184 0.519398
vt 0.296001 0.527789
vt 0.256266 0.544248
vt 0.220506 0.568142
vt 0.190094 0.598554
vt 0.166199 0.634315
vt 0.149740 0.674050
vt 0.141350 0.716233
vt 0.181393 0.720177
vt 0.188245 0.685731
vt 0.444143 0.895741
vt 0.473345 0.876228
vt 0.201685 0.653283
vt 0.498180 0.851394
vt 0.221198 0.624081
vt 0.246032 0.599246
vt 0.517692 0.822192
vt 0.531132 0.789744
vt 0.275234 0.579734
vt 0.537984 0.755298
vt 0.307682 0.566294
vt 0.342128 0.559442
vt 0.537984 0.720177
vt 0.531132 0.685730
vt 0.377249 0.559442
vt 0.411695 0.566294
vt 0.517692 0.653283
vt 0.444143 0.579734
vt 0.091307 0.071540
s 1
usemtl マテリアル.001
f 2/1/1 3/2/2 1/3/1
f 4/4/2 5/5/3 3/2/2
f 6/6/3 7/7/4 5/5/3
f 8/8/4 9/9/5 7/7/4
f 10/10/5 11/11/6 9/9/5
f 12/12/6 13/13/7 11/11/6
f 14/14/7 15/15/8 13/13/7
f 16/16/8 17/17/9 15/15/8
f 18/18/9 19/19/10 17/17/9
f 20/20/10 21/21/11 19/19/10
f 22/22/11 23/23/12 21/21/11
f 24/24/12 25/25/13 23/23/12
f 26/26/13 27/27/14 25/25/13
f 28/28/14 29/29/15 27/27/14
f 30/30/15 31/31/16 29/29/15
f 32/32/16 33/33/17 31/31/16
f 34/34/17 35/35/18 33/33/17
f 35/35/18 38/36/19 37/37/19
f 37/37/19 40/38/20 39/39/20
f 40/38/20 41/40/21 39/39/20
f 42/41/21 43/42/22 41/40/21
f 43/42/22 46/43/23 45/44/23
f 46/43/23 47/45/24 45/44/23
f 47/45/24 50/46/25 49/47/25
f 49/47/25 52/48/26 51/49/26
f 52/48/26 53/50/27 51/49/26
f 53/50/27 56/51/28 55/52/28
f 56/51/28 57/53/29 55/52/28
f 58/54/29 59/55/30 57/53/29
f 59/55/30 62/56/31 61/57/31
s 0
f 24/58/32 94/59/32 95/60/32
f 54/61/32 87/62/32 86/63/32
s 1
f 61/57/31 64/64/33 63/65/33
f 64/64/33 1/66/1 63/65/33
s 0
f 7/67/34 101/68/34 98/69/34
f 39/70/34 111/71/34 109/72/34
s 1
f 2/1/1 4/4/2 3/2/2
f 4/4/2 6/6/3 5/5/3
f 6/6/3 8/8/4 7/7/4
f 8/8/4 10/10/5 9/9/5
f 10/10/5 12/12/6 11/11/6
f 12/12/6 14/14/7 13/13/7
f 14/14/7 16/16/8 15/15/8
f 16/16/8 18/18/9 17/17/9
f 18/18/9 20/20/10 19/19/10
f 20/20/10 22/22/11 21/21/11
f 22/22/11 24/24/12 23/23/12
f 24/24/12 26/26/13 25/25/13
f 26/26/13 28/28/14 27/27/14
f 28/28/14 30/30/15 29/29/15
f 30/30/15 32/32/16 31/31/16
f 32/32/16 34/34/17 33/33/17
f 34/34/17 36/138/18 35/35/18
f 35/35/18 36/138/18 38/36/19
f 37/37/19 38/36/19 40/38/20
f 40/38/20 42/41/21 41/40/21
f 42/41/21 44/139/22 43/42/22
f 43/42/22 44/139/22 46/43/23
f 46/43/23 48/140/24 47/45/24
f 47/45/24 48/140/24 50/46/25
f 49/47/25 50/46/25 52/48/26
f 52/48/26 54/141/27 53/50/27
f 53/50/27 54/141/27 56/51/28
f 56/51/28 58/54/29 57/53/29
f 58/54/29 60/142/30 59/55/30
f 59/55/30 60/142/30 62/56/31
s 0
f 79/143/32 30/144/32 28/145/32
f 28/145/32 26/146/32 24/58/32
f 24/58/32 22/147/32 20/148/32
f 20/148/32 18/149/32 16/150/32
f 16/150/32 14/151/32 84/152/32
f 16/150/32 84/152/32 83/153/32
f 24/58/32 20/148/32 16/150/32
f 79/143/32 28/145/32 24/58/32
f 77/154/32 79/143/32 24/58/32
f 16/150/32 83/153/32 82/155/32
f 16/150/32 82/155/32 94/59/32
f 78/156/32 77/154/32 24/58/32
f 93/157/32 78/156/32 24/58/32
f 24/58/32 16/150/32 94/59/32
f 95/60/32 93/157/32 24/58/32
f 81/158/32 84/152/32 14/151/32
f 14/151/32 12/159/32 10/160/32
f 10/160/32 8/161/32 6/162/32
f 6/162/32 4/163/32 2/164/32
f 2/164/32 64/165/32 62/166/32
f 62/166/32 60/167/32 58/168/32
f 58/168/32 56/169/32 54/61/32
f 54/61/32 52/170/32 50/171/32
f 50/171/32 48/172/32 46/173/32
f 46/173/32 44/174/32 42/175/32
f 42/175/32 40/176/32 38/177/32
f 38/177/32 36/178/32 34/179/32
f 34/179/32 32/180/32 30/144/32
f 30/144/32 79/143/32 76/181/32
f 30/144/32 76/181/32 75/182/32
f 38/177/32 34/179/32 30/144/32
f 46/173/32 42/175/32 38/177/32
f 54/61/32 50/171/32 46/173/32
f 62/166/32 58/168/32 54/61/32
f 6/162/32 2/164/32 62/166/32
f 14/151/32 10/160/32 6/162/32
f 80/183/32 81/158/32 14/151/32
f 96/184/32 80/183/32 14/151/32
f 38/177/32 30/144/32 75/182/32
f 38/177/32 75/182/32 92/185/32
f 96/184/32 14/151/32 6/162/32
f 89/186/32 96/184/32 6/162/32
f 38/177/32 92/185/32 91/187/32
f 38/177/32 91/187/32 88/188/32
f 90/189/32 89/186/32 6/162/32
f 68/190/32 90/189/32 6/162/32
f 46/173/32 38/177/32 88/188/32
f 46/173/32 88/188/32 73/191/32
f 68/190/32 6/162/32 62/166/32
f 67/192/32 68/190/32 62/166/32
f 46/173/32 73/191/32 72/193/32
f 46/173/32 72/193/32 74/194/32
f 69/195/32 67/192/32 62/166/32
f 66/196/32 69/195/32 62/166/32
f 46/173/32 74/194/32 71/197/32
f 46/173/32 71/197/32 70/198/32
f 66/196/32 62/166/32 54/61/32
f 65/199/32 66/196/32 54/61/32
f 54/61/32 46/173/32 70/198/32
f 54/61/32 70/198/32 85/200/32
f 86/63/32 65/199/32 54/61/32
f 54/61/32 85/200/32 87/62/32
s 1
f 61/57/31 62/56/31 64/64/33
f 64/64/33 2/201/1 1/66/1
s 0
f 118/202/34 117/203/34 63/204/34
f 63/204/34 1/205/34 3/206/34
f 3/206/34 5/207/34 7/67/34
f 7/67/34 9/208/34 11/209/34
f 11/209/34 13/210/34 15/211/34
f 15/211/34 121/212/34 119/213/34
f 15/211/34 119/213/34 100/214/34
f 7/67/34 11/209/34 15/211/34
f 63/204/34 3/206/34 7/67/34
f 97/215/34 118/202/34 63/204/34
f 98/69/34 97/215/34 63/204/34
f 7/67/34 15/211/34 100/214/34
f 7/67/34 100/214/34 99/216/34
f 98/69/34 63/204/34 7/67/34
f 7/67/34 99/216/34 101/68/34
f 120/217/34 121/212/34 15/211/34
f 15/211/34 17/218/34 19/219/34
f 19/219/34 21/220/34 23/221/34
f 23/221/34 25/222/34 27/223/34
f 27/223/34 29/224/34 31/225/34
f 31/225/34 33/226/34 35/227/34
f 35/227/34 37/228/34 39/70/34
f 39/70/34 41/229/34 43/230/34
f 43/230/34 45/231/34 47/232/34
f 47/232/34 49/233/34 51/234/34
f 51/234/34 53/235/34 55/236/34
f 55/236/34 57/237/34 59/238/34
f 59/238/34 61/239/34 63/204/34
f 63/204/34 117/203/34 126/240/34
f 63/204/34 126/240/34 115/241/34
f 55/236/34 59/238/34 63/204/34
f 47/232/34 51/234/34 55/236/34
f 39/70/34 43/230/34 47/232/34
f 31/225/34 35/227/34 39/70/34
f 23/221/34 27/223/34 31/225/34
f 15/211/34 19/219/34 23/221/34
f 105/242/34 120/217/34 15/211/34
f 104/243/34 105/242/34 15/211/34
f 55/236/34 63/204/34 115/241/34
f 55/236/34 115/241/34 114/244/34
f 104/243/34 15/211/34 23/221/34
f 106/245/34 104/243/34 23/221/34
f 55/236/34 114/244/34 116/246/34
f 55/236/34 116/246/34 112/247/34
f 103/248/34 106/245/34 23/221/34
f 102/249/34 103/248/34 23/221/34
f 47/232/34 55/236/34 112/247/34
f 47/232/34 112/247/34 113/250/34
f 102/249/34 23/221/34 31/225/34
f 122/251/34 102/249/34 31/225/34
f 47/232/34 113/250/34 123/252/34
f 47/232/34 123/252/34 125/253/34
f 127/254/34 122/251/34 31/225/34
f 128/255/34 127/254/34 31/225/34
f 47/232/34 125/253/34 124/256/34
f 47/232/34 124/256/34 107/257/34
f 128/255/34 31/225/34 39/70/34
f 110/258/34 128/255/34 39/70/34
f 39/70/34 47/232/34 107/257/34
f 39/70/34 107/257/34 108/259/34
f 109/72/34 110/258/34 39/70/34
f 39/70/34 108/259/34 111/71/34
s 1
usemtl 
f 90/73/18 118/74/17 97/75/18
f 89/76/19 97/75/18 98/77/19
f 96/78/20 98/77/19 101/79/20
f 80/80/21 101/79/20 99/81/21
f 80/80/21 100/82/22 81/83/22
f 81/83/22 119/84/23 84/85/23
f 84/85/23 121/86/24 83/87/24
f 82/88/25 121/86/24 120/89/25
f 94/90/26 120/89/25 105/91/26
f 94/90/26 104/92/27 95/93/27
f 95/93/27 106/94/28 93/95/28
f 93/95/28 103/96/29 78/97/29
f 78/97/29 102/98/30 77/99/30
f 77/99/30 122/100/31 79/101/31
f 79/101/31 127/102/33 76/103/33
f 76/103/33 128/104/1 75/105/1
f 75/105/1 110/106/2 92/107/2
f 92/107/2 109/108/3 91/109/3
f 91/109/3 111/110/4 88/111/4
f 88/111/4 108/112/5 73/113/5
f 72/114/6 108/112/5 107/115/6
f 74/116/7 107/115/6 124/117/7
f 71/118/8 124/117/7 125/119/8
f 70/120/9 125/119/8 123/121/9
f 85/122/10 123/121/9 113/123/10
f 87/124/11 113/123/10 112/125/11
f 86/126/12 112/125/11 116/127/12
f 65/128/13 116/127/12 114/129/13
f 66/130/14 114/129/13 115/131/14
f 69/132/15 115/131/14 126/133/15
f 67/134/16 126/133/15 117/135/16
f 68/136/17 117/135/16 118/137/17
f 90/73/18 68/260/17 118/74/17
f 89/76/19 90/73/18 97/75/18
f 96/78/20 89/76/19 98/77/19
f 80/80/21 96/78/20 101/79/20
f 80/80/21 99/81/21 100/82/22
f 81/83/22 100/82/22 119/84/23
f 84/85/23 119/84/23 121/86/24
f 82/88/25 83/87/24 121/86/24
f 94/90/26 82/88/25 120/89/25
f 94/90/26 105/91/26 104/92/27
f 95/93/27 104/92/27 106/94/28
f 93/95/28 106/94/28 103/96/29
f 78/97/29 103/96/29 102/98/30
f 77/99/30 102/98/30 122/100/31
f 79/101/31 122/100/31 127/102/33
f 76/103/33 127/102/33 128/104/1
f 75/105/1 128/104/1 110/106/2
f 92/107/2 110/106/2 109/108/3
f 91/109/3 109/108/3 111/110/4
f 88/111/4 111/110/4 108/112/5
f 72/114/6 73/113/5 108/112/5
f 74/116/7 72/114/6 107/115/6
f 71/118/8 74/116/7 124/117/7
f 70/120/9 71/118/8 125/119/8
f 85/122/10 70/120/9 123/121/9
f 87/124/11 85/122/10 113/123/10
f 86/126/12 87/124/11 112/125/11
f 65/128/13 86/126/12 116/127/12
f 66/130/14 65/128/13 114/129/13
f 69/132/15 66/130/14 115/131/14
f 67/134/16 69/132/15 126/133/15
f 68/136/17 67/134/16 117/135/16
