# Blender 4.1.1
# www.blender.org
mtllib Text_1-2.mtl
o テキスト
v -0.426374 -0.354257 -0.090320
v -0.426374 -0.347257 -0.090320
v -0.445685 -0.323853 -0.090320
v -0.465943 -0.299275 -0.090320
v -0.486890 -0.273725 -0.090320
v -0.508263 -0.247405 -0.090320
v -0.529803 -0.220515 -0.090320
v -0.551249 -0.193257 -0.090320
v -0.572341 -0.165832 -0.090320
v -0.592818 -0.138442 -0.090320
v -0.612421 -0.111288 -0.090320
v -0.630888 -0.084571 -0.090320
v -0.647959 -0.058494 -0.090320
v -0.663374 -0.033257 -0.090320
v -0.671041 -0.019919 -0.090320
v -0.678041 -0.007303 -0.090320
v -0.684374 0.004743 -0.090320
v -0.690041 0.016373 -0.090320
v -0.695041 0.027739 -0.090320
v -0.699374 0.038993 -0.090320
v -0.703041 0.050290 -0.090320
v -0.706041 0.061780 -0.090320
v -0.708374 0.073618 -0.090320
v -0.710041 0.085956 -0.090320
v -0.711041 0.098947 -0.090320
v -0.711374 0.112743 -0.090320
v -0.710351 0.131017 -0.090320
v -0.707360 0.148267 -0.090320
v -0.702515 0.164384 -0.090320
v -0.695929 0.179262 -0.090320
v -0.687719 0.192793 -0.090320
v -0.677999 0.204868 -0.090320
v -0.666883 0.215382 -0.090320
v -0.654485 0.224225 -0.090320
v -0.640921 0.231290 -0.090320
v -0.626304 0.236470 -0.090320
v -0.610751 0.239657 -0.090320
v -0.594374 0.240743 -0.090320
v -0.582101 0.240270 -0.090320
v -0.569772 0.238790 -0.090320
v -0.557374 0.236212 -0.090320
v -0.544892 0.232447 -0.090320
v -0.532314 0.227404 -0.090320
v -0.519624 0.220993 -0.090320
v -0.506809 0.213124 -0.090320
v -0.493855 0.203706 -0.090320
v -0.480749 0.192650 -0.090320
v -0.467476 0.179864 -0.090320
v -0.454022 0.165258 -0.090320
v -0.440374 0.148743 -0.090320
v -0.440374 0.271743 -0.090320
v -0.454045 0.282265 -0.090320
v -0.467578 0.291836 -0.090320
v -0.480999 0.300462 -0.090320
v -0.494337 0.308151 -0.090320
v -0.507619 0.314909 -0.090320
v -0.520874 0.320743 -0.090320
v -0.534128 0.325661 -0.090320
v -0.547411 0.329669 -0.090320
v -0.560749 0.332775 -0.090320
v -0.574170 0.334984 -0.090320
v -0.587703 0.336305 -0.090320
v -0.601374 0.336743 -0.090320
v -0.631305 0.334959 -0.090320
v -0.659490 0.329716 -0.090320
v -0.685764 0.321181 -0.090320
v -0.709966 0.309521 -0.090320
v -0.731932 0.294903 -0.090320
v -0.751499 0.277493 -0.090320
v -0.768503 0.257459 -0.090320
v -0.782781 0.234966 -0.090320
v -0.794171 0.210181 -0.090320
v -0.802508 0.183271 -0.090320
v -0.807630 0.154403 -0.090320
v -0.809374 0.123743 -0.090320
v -0.808105 0.096307 -0.090320
v -0.804226 0.069253 -0.090320
v -0.797624 0.042212 -0.090320
v -0.788189 0.014818 -0.090320
v -0.775809 -0.013299 -0.090320
v -0.760374 -0.042507 -0.090320
v -0.741772 -0.073172 -0.090320
v -0.719892 -0.105664 -0.090320
v -0.694624 -0.140350 -0.090320
v -0.665855 -0.177599 -0.090320
v -0.633476 -0.217779 -0.090320
v -0.597374 -0.261257 -0.090320
v -0.858374 -0.261257 -0.090320
v -0.858374 -0.354257 -0.090320
v 0.705626 -0.354257 -0.090320
v 0.705626 0.327743 -0.090320
v 0.607626 0.327743 -0.090320
v 0.607626 -0.354257 -0.090320
v -0.426374 -0.354257 0.109680
v -0.426374 -0.347257 0.109680
v -0.445685 -0.323853 0.109680
v -0.465943 -0.299275 0.109680
v -0.486890 -0.273725 0.109680
v -0.508263 -0.247405 0.109680
v -0.529803 -0.220515 0.109680
v -0.551249 -0.193257 0.109680
v -0.572341 -0.165832 0.109680
v -0.592818 -0.138442 0.109680
v -0.612421 -0.111288 0.109680
v -0.630888 -0.084571 0.109680
v -0.647959 -0.058494 0.109680
v -0.663374 -0.033257 0.109680
v -0.671041 -0.019919 0.109680
v -0.678041 -0.007303 0.109680
v -0.684374 0.004743 0.109680
v -0.690041 0.016373 0.109680
v -0.695041 0.027739 0.109680
v -0.699374 0.038993 0.109680
v -0.703041 0.050290 0.109680
v -0.706041 0.061780 0.109680
v -0.708374 0.073618 0.109680
v -0.710041 0.085956 0.109680
v -0.711041 0.098947 0.109680
v -0.711374 0.112743 0.109680
v -0.710351 0.131017 0.109680
v -0.707360 0.148267 0.109680
v -0.702515 0.164384 0.109680
v -0.695929 0.179262 0.109680
v -0.687719 0.192793 0.109680
v -0.677999 0.204868 0.109680
v -0.666883 0.215382 0.109680
v -0.654485 0.224225 0.109680
v -0.640921 0.231290 0.109680
v -0.626304 0.236470 0.109680
v -0.610751 0.239657 0.109680
v -0.594374 0.240743 0.109680
v -0.582101 0.240270 0.109680
v -0.569772 0.238790 0.109680
v -0.557374 0.236212 0.109680
v -0.544892 0.232447 0.109680
v -0.532314 0.227404 0.109680
v -0.519624 0.220993 0.109680
v -0.506809 0.213124 0.109680
v -0.493855 0.203706 0.109680
v -0.480749 0.192650 0.109680
v -0.467476 0.179864 0.109680
v -0.454022 0.165258 0.109680
v -0.440374 0.148743 0.109680
v -0.440374 0.271743 0.109680
v -0.454045 0.282265 0.109680
v -0.467578 0.291836 0.109680
v -0.480999 0.300462 0.109680
v -0.494337 0.308151 0.109680
v -0.507619 0.314909 0.109680
v -0.520874 0.320743 0.109680
v -0.534128 0.325661 0.109680
v -0.547411 0.329669 0.109680
v -0.560749 0.332775 0.109680
v -0.574170 0.334984 0.109680
v -0.587703 0.336305 0.109680
v -0.601374 0.336743 0.109680
v -0.631305 0.334959 0.109680
v -0.659490 0.329716 0.109680
v -0.685764 0.321181 0.109680
v -0.709966 0.309521 0.109680
v -0.731932 0.294903 0.109680
v -0.751499 0.277493 0.109680
v -0.768503 0.257459 0.109680
v -0.782781 0.234966 0.109680
v -0.794171 0.210181 0.109680
v -0.802508 0.183271 0.109680
v -0.807630 0.154403 0.109680
v -0.809374 0.123743 0.109680
v -0.808105 0.096307 0.109680
v -0.804226 0.069253 0.109680
v -0.797624 0.042212 0.109680
v -0.788189 0.014818 0.109680
v -0.775809 -0.013299 0.109680
v -0.760374 -0.042507 0.109680
v -0.741772 -0.073172 0.109680
v -0.719892 -0.105664 0.109680
v -0.694624 -0.140350 0.109680
v -0.665855 -0.177599 0.109680
v -0.633476 -0.217779 0.109680
v -0.597374 -0.261257 0.109680
v -0.858374 -0.261257 0.109680
v -0.858374 -0.354257 0.109680
v 0.705626 -0.354257 0.109680
v 0.705626 0.327743 0.109680
v 0.607626 0.327743 0.109680
v 0.607626 -0.354257 0.109680
v 0.705626 -0.354257 0.109680
v 0.705626 -0.354257 -0.090320
v 0.705626 0.327743 0.109680
v 0.705626 0.327743 -0.090320
v 0.607626 0.327743 0.109680
v 0.607626 0.327743 -0.090320
v 0.607626 -0.354257 0.109680
v 0.607626 -0.354257 -0.090320
v -0.426374 -0.354257 0.109680
v -0.426374 -0.354257 -0.090320
v -0.426374 -0.347257 0.109680
v -0.426374 -0.347257 -0.090320
v -0.445685 -0.323853 0.109680
v -0.445685 -0.323853 -0.090320
v -0.465943 -0.299275 0.109680
v -0.465943 -0.299275 -0.090320
v -0.486890 -0.273725 0.109680
v -0.486890 -0.273725 -0.090320
v -0.508263 -0.247405 0.109680
v -0.508263 -0.247405 -0.090320
v -0.529803 -0.220515 0.109680
v -0.529803 -0.220515 -0.090320
v -0.551249 -0.193257 0.109680
v -0.551249 -0.193257 -0.090320
v -0.572341 -0.165832 0.109680
v -0.572341 -0.165832 -0.090320
v -0.592818 -0.138442 0.109680
v -0.592818 -0.138442 -0.090320
v -0.612421 -0.111288 0.109680
v -0.612421 -0.111288 -0.090320
v -0.630888 -0.084571 0.109680
v -0.630888 -0.084571 -0.090320
v -0.647959 -0.058494 0.109680
v -0.647959 -0.058494 -0.090320
v -0.663374 -0.033257 0.109680
v -0.663374 -0.033257 -0.090320
v -0.671041 -0.019919 0.109680
v -0.671041 -0.019919 -0.090320
v -0.678041 -0.007303 0.109680
v -0.678041 -0.007303 -0.090320
v -0.684374 0.004743 0.109680
v -0.684374 0.004743 -0.090320
v -0.690041 0.016373 0.109680
v -0.690041 0.016373 -0.090320
v -0.695041 0.027739 0.109680
v -0.695041 0.027739 -0.090320
v -0.699374 0.038993 0.109680
v -0.699374 0.038993 -0.090320
v -0.703041 0.050290 0.109680
v -0.703041 0.050290 -0.090320
v -0.706041 0.061780 0.109680
v -0.706041 0.061780 -0.090320
v -0.708374 0.073618 0.109680
v -0.708374 0.073618 -0.090320
v -0.710041 0.085956 0.109680
v -0.710041 0.085956 -0.090320
v -0.711041 0.098947 0.109680
v -0.711041 0.098947 -0.090320
v -0.711374 0.112743 0.109680
v -0.711374 0.112743 -0.090320
v -0.710351 0.131017 0.109680
v -0.710351 0.131017 -0.090320
v -0.707360 0.148267 0.109680
v -0.707360 0.148267 -0.090320
v -0.702515 0.164384 0.109680
v -0.702515 0.164384 -0.090320
v -0.695929 0.179262 0.109680
v -0.695929 0.179262 -0.090320
v -0.687719 0.192793 0.109680
v -0.687719 0.192793 -0.090320
v -0.677999 0.204868 0.109680
v -0.677999 0.204868 -0.090320
v -0.666883 0.215382 0.109680
v -0.666883 0.215382 -0.090320
v -0.654485 0.224225 0.109680
v -0.654485 0.224225 -0.090320
v -0.640921 0.231290 0.109680
v -0.640921 0.231290 -0.090320
v -0.626304 0.236470 0.109680
v -0.626304 0.236470 -0.090320
v -0.610751 0.239657 0.109680
v -0.610751 0.239657 -0.090320
v -0.594374 0.240743 0.109680
v -0.594374 0.240743 -0.090320
v -0.582101 0.240270 0.109680
v -0.582101 0.240270 -0.090320
v -0.569772 0.238790 0.109680
v -0.569772 0.238790 -0.090320
v -0.557374 0.236212 0.109680
v -0.557374 0.236212 -0.090320
v -0.544892 0.232447 0.109680
v -0.544892 0.232447 -0.090320
v -0.532314 0.227404 0.109680
v -0.532314 0.227404 -0.090320
v -0.519624 0.220993 0.109680
v -0.519624 0.220993 -0.090320
v -0.506809 0.213124 0.109680
v -0.506809 0.213124 -0.090320
v -0.493855 0.203706 0.109680
v -0.493855 0.203706 -0.090320
v -0.480749 0.192650 0.109680
v -0.480749 0.192650 -0.090320
v -0.467476 0.179864 0.109680
v -0.467476 0.179864 -0.090320
v -0.454022 0.165258 0.109680
v -0.454022 0.165258 -0.090320
v -0.440374 0.148743 0.109680
v -0.440374 0.148743 -0.090320
v -0.440374 0.271743 0.109680
v -0.440374 0.271743 -0.090320
v -0.454045 0.282265 0.109680
v -0.454045 0.282265 -0.090320
v -0.467578 0.291836 0.109680
v -0.467578 0.291836 -0.090320
v -0.480999 0.300462 0.109680
v -0.480999 0.300462 -0.090320
v -0.494337 0.308151 0.109680
v -0.494337 0.308151 -0.090320
v -0.507619 0.314909 0.109680
v -0.507619 0.314909 -0.090320
v -0.520874 0.320743 0.109680
v -0.520874 0.320743 -0.090320
v -0.534128 0.325661 0.109680
v -0.534128 0.325661 -0.090320
v -0.547411 0.329669 0.109680
v -0.547411 0.329669 -0.090320
v -0.560749 0.332775 0.109680
v -0.560749 0.332775 -0.090320
v -0.574170 0.334984 0.109680
v -0.574170 0.334984 -0.090320
v -0.587703 0.336305 0.109680
v -0.587703 0.336305 -0.090320
v -0.601374 0.336743 0.109680
v -0.601374 0.336743 -0.090320
v -0.631305 0.334959 0.109680
v -0.631305 0.334959 -0.090320
v -0.659490 0.329716 0.109680
v -0.659490 0.329716 -0.090320
v -0.685764 0.321181 0.109680
v -0.685764 0.321181 -0.090320
v -0.709966 0.309521 0.109680
v -0.709966 0.309521 -0.090320
v -0.731932 0.294903 0.109680
v -0.731932 0.294903 -0.090320
v -0.751499 0.277493 0.109680
v -0.751499 0.277493 -0.090320
v -0.768503 0.257459 0.109680
v -0.768503 0.257459 -0.090320
v -0.782781 0.234966 0.109680
v -0.782781 0.234966 -0.090320
v -0.794171 0.210181 0.109680
v -0.794171 0.210181 -0.090320
v -0.802508 0.183271 0.109680
v -0.802508 0.183271 -0.090320
v -0.807630 0.154403 0.109680
v -0.807630 0.154403 -0.090320
v -0.809374 0.123743 0.109680
v -0.809374 0.123743 -0.090320
v -0.808105 0.096307 0.109680
v -0.808105 0.096307 -0.090320
v -0.804226 0.069253 0.109680
v -0.804226 0.069253 -0.090320
v -0.797624 0.042212 0.109680
v -0.797624 0.042212 -0.090320
v -0.788189 0.014818 0.109680
v -0.788189 0.014818 -0.090320
v -0.775809 -0.013299 0.109680
v -0.775809 -0.013299 -0.090320
v -0.760374 -0.042507 0.109680
v -0.760374 -0.042507 -0.090320
v -0.741772 -0.073172 0.109680
v -0.741772 -0.073172 -0.090320
v -0.719892 -0.105664 0.109680
v -0.719892 -0.105664 -0.090320
v -0.694624 -0.140350 0.109680
v -0.694624 -0.140350 -0.090320
v -0.665855 -0.177599 0.109680
v -0.665855 -0.177599 -0.090320
v -0.633476 -0.217779 0.109680
v -0.633476 -0.217779 -0.090320
v -0.597374 -0.261257 0.109680
v -0.597374 -0.261257 -0.090320
v -0.858374 -0.261257 0.109680
v -0.858374 -0.261257 -0.090320
v -0.858374 -0.354257 0.109680
v -0.858374 -0.354257 -0.090320
vn -0.0000 -0.0000 -1.0000
vn -0.0000 -0.0000 1.0000
vn 0.7071 0.7071 -0.0000
vn 0.7071 -0.7071 -0.0000
vn -0.7071 0.7071 -0.0000
vn -0.7071 -0.7071 -0.0000
vn 0.9411 0.3381 -0.0000
vn 0.7715 0.6362 -0.0000
vn 0.7725 0.6350 -0.0000
vn 0.7748 0.6322 -0.0000
vn 0.7784 0.6278 -0.0000
vn 0.7832 0.6218 -0.0000
vn 0.7893 0.6140 -0.0000
vn 0.7968 0.6042 -0.0000
vn 0.8059 0.5921 -0.0000
vn 0.8167 0.5770 -0.0000
vn 0.8297 0.5582 -0.0000
vn 0.8451 0.5346 -0.0000
vn 0.8603 0.5098 -0.0000
vn 0.8451 0.5345 -0.0000
vn 0.8707 0.4918 -0.0000
vn 0.8798 0.4753 -0.0000
vn 0.8921 0.4517 -0.0000
vn 0.9073 0.4204 -0.0000
vn 0.9245 0.3811 -0.0000
vn 0.9425 0.3341 -0.0000
vn 0.9598 0.2808 -0.0000
vn 0.9748 0.2231 -0.0000
vn 0.9865 0.1637 -0.0000
vn 0.9944 0.1053 -0.0000
vn 0.9987 0.0505 -0.0000
vn 0.9944 0.1054 -0.0000
vn 0.9999 -0.0159 -0.0000
vn 0.9935 -0.1136 -0.0000
vn 0.9732 -0.2298 -0.0000
vn 0.9379 -0.3470 -0.0000
vn 0.8865 -0.4627 -0.0000
vn 0.8187 -0.5742 -0.0000
vn 0.7347 -0.6783 -0.0000
vn 0.6354 -0.7722 -0.0000
vn 0.7347 -0.6784 -0.0000
vn 0.5226 -0.8526 -0.0000
vn 0.3990 -0.9170 -0.0000
vn 0.2680 -0.9634 -0.0000
vn 0.1338 -0.9910 -0.0000
vn 0.0138 -0.9999 -0.0000
vn -0.0789 -0.9969 -0.0000
vn -0.1615 -0.9869 -0.0000
vn -0.2464 -0.9692 -0.0000
vn -0.3308 -0.9437 -0.0000
vn -0.4119 -0.9112 -0.0000
vn -0.4875 -0.8731 -0.0000
vn -0.5561 -0.8311 -0.0000
vn -0.6168 -0.7871 -0.0000
vn -0.6696 -0.7427 -0.0000
vn -0.7150 -0.6992 -0.0000
vn -0.7534 -0.6575 -0.0000
vn 0.3385 -0.9410 -0.0000
vn 0.8972 0.4416 -0.0000
vn 0.5938 0.8046 -0.0000
vn 0.5592 0.8290 -0.0000
vn 0.5202 0.8540 -0.0000
vn 0.4766 0.8791 -0.0000
vn 0.4283 0.9036 -0.0000
vn 0.3755 0.9268 -0.0000
vn 0.3185 0.9479 -0.0000
vn 0.2580 0.9662 -0.0000
vn 0.1947 0.9809 -0.0000
vn 0.1299 0.9915 -0.0000
vn 0.0646 0.9979 -0.0000
vn -0.0137 0.9999 -0.0000
vn -0.1214 0.9926 -0.0000
vn -0.2464 0.9692 -0.0000
vn -0.3723 0.9281 -0.0000
vn -0.4952 0.8688 -0.0000
vn -0.6109 0.7917 -0.0000
vn -0.7153 0.6988 -0.0000
vn -0.8053 0.5929 -0.0000
vn -0.8785 0.4778 -0.0000
vn -0.9339 0.3575 -0.0000
vn -0.9718 0.2358 -0.0000
vn -0.9933 0.1159 -0.0000
vn -1.0000 0.0053 -0.0000
vn -0.9956 -0.0942 -0.0000
vn -0.9818 -0.1898 -0.0000
vn -0.9595 -0.2817 -0.0000
vn -0.9312 -0.3646 -0.0000
vn -0.9002 -0.4354 -0.0000
vn -0.8699 -0.4932 -0.0000
vn -0.8425 -0.5387 -0.0000
vn -0.8190 -0.5738 -0.0000
vn -0.7999 -0.6001 -0.0000
vn -0.7851 -0.6194 -0.0000
vn -0.7740 -0.6332 -0.0000
vn -0.9052 0.4250 -0.0000
vt 0.693182 0.000000
vt 0.715909 0.000000
vt 0.704545 0.000000
vt 0.681818 0.000000
vt 0.670455 0.000000
vt 0.727273 0.000000
vt 0.659091 0.000000
vt 0.738636 0.000000
vt 0.647727 0.000000
vt 0.636364 0.000000
vt 0.750000 0.000000
vt 0.625000 0.000000
vt 0.613636 0.000000
vt 0.761364 0.000000
vt 0.602273 0.000000
vt 0.590909 0.000000
vt 0.772727 0.000000
vt 0.579545 0.000000
vt 0.568182 0.000000
vt 0.784091 0.000000
vt 0.556818 0.000000
vt 0.545455 0.000000
vt 0.534091 0.000000
vt 0.522727 0.000000
vt 0.511364 0.000000
vt 0.500000 0.000000
vt 0.488636 0.000000
vt 0.477273 0.000000
vt 0.465909 0.000000
vt 0.454545 0.000000
vt 0.443182 0.000000
vt 0.431818 0.000000
vt 0.420455 0.000000
vt 0.795455 0.000000
vt 0.409091 0.000000
vt 0.397727 0.000000
vt 0.386364 0.000000
vt 0.806818 0.000000
vt 0.375000 0.000000
vt 0.363636 0.000000
vt 0.352273 0.000000
vt 0.818182 0.000000
vt 0.340909 0.000000
vt 0.329545 0.000000
vt 0.829545 0.000000
vt 0.318182 0.000000
vt 0.306818 0.000000
vt 0.840909 0.000000
vt 0.295455 0.000000
vt 0.284091 0.000000
vt 0.852273 0.000000
vt 0.272727 0.000000
vt 0.261364 0.000000
vt 0.863636 0.000000
vt 0.250000 0.000000
vt 0.238636 0.000000
vt 0.875000 0.000000
vt 0.227273 0.000000
vt 0.215909 0.000000
vt 0.886364 0.000000
vt 0.204545 0.000000
vt 0.193182 0.000000
vt 0.181818 0.000000
vt 0.897727 0.000000
vt 0.170455 0.000000
vt 0.159091 0.000000
vt 0.909091 0.000000
vt 0.147727 0.000000
vt 0.136364 0.000000
vt 0.920455 0.000000
vt 0.125000 0.000000
vt 0.931818 0.000000
vt 0.113636 0.000000
vt 0.943182 0.000000
vt 0.102273 0.000000
vt 0.090909 0.000000
vt 0.954545 0.000000
vt 0.079545 0.000000
vt 0.965909 0.000000
vt 0.068182 0.000000
vt 0.977273 0.000000
vt 0.056818 0.000000
vt 0.045455 0.000000
vt 0.988636 0.000000
vt 1.000000 0.000000
vt 0.034091 0.000000
vt 0.022727 0.000000
vt 0.011364 0.000000
vt 0.000000 0.000000
vt 0.666667 0.000000
vt 0.333333 0.000000
vt 0.250000 1.000000
vt 0.000000 1.000000
vt 0.500000 1.000000
vt 0.750000 1.000000
vt 1.000000 1.000000
vt 0.011236 1.000000
vt 0.022472 1.000000
vt 0.011236 0.000000
vt 0.033708 1.000000
vt 0.022472 0.000000
vt 0.044944 1.000000
vt 0.033708 0.000000
vt 0.056180 1.000000
vt 0.044944 0.000000
vt 0.067416 1.000000
vt 0.056180 0.000000
vt 0.078652 1.000000
vt 0.067416 0.000000
vt 0.089888 1.000000
vt 0.078652 0.000000
vt 0.101124 1.000000
vt 0.089888 0.000000
vt 0.112360 1.000000
vt 0.101124 0.000000
vt 0.123596 1.000000
vt 0.112360 0.000000
vt 0.134831 1.000000
vt 0.123596 0.000000
vt 0.146067 1.000000
vt 0.134831 0.000000
vt 0.157303 1.000000
vt 0.146067 0.000000
vt 0.168539 1.000000
vt 0.157303 0.000000
vt 0.179775 1.000000
vt 0.168539 0.000000
vt 0.191011 1.000000
vt 0.179775 0.000000
vt 0.202247 1.000000
vt 0.191011 0.000000
vt 0.213483 1.000000
vt 0.202247 0.000000
vt 0.224719 1.000000
vt 0.213483 0.000000
vt 0.235955 1.000000
vt 0.224719 0.000000
vt 0.247191 1.000000
vt 0.235955 0.000000
vt 0.258427 1.000000
vt 0.247191 0.000000
vt 0.269663 1.000000
vt 0.258427 0.000000
vt 0.280899 1.000000
vt 0.269663 0.000000
vt 0.292135 1.000000
vt 0.280899 0.000000
vt 0.303371 1.000000
vt 0.292135 0.000000
vt 0.314607 1.000000
vt 0.303371 0.000000
vt 0.325843 1.000000
vt 0.314607 0.000000
vt 0.337079 1.000000
vt 0.325843 0.000000
vt 0.348315 1.000000
vt 0.337079 0.000000
vt 0.359551 1.000000
vt 0.348315 0.000000
vt 0.370787 1.000000
vt 0.359551 0.000000
vt 0.382022 1.000000
vt 0.370787 0.000000
vt 0.393258 1.000000
vt 0.382022 0.000000
vt 0.404494 1.000000
vt 0.393258 0.000000
vt 0.415730 1.000000
vt 0.404494 0.000000
vt 0.426966 1.000000
vt 0.415730 0.000000
vt 0.438202 1.000000
vt 0.426966 0.000000
vt 0.449438 1.000000
vt 0.438202 0.000000
vt 0.460674 1.000000
vt 0.449438 0.000000
vt 0.471910 1.000000
vt 0.460674 0.000000
vt 0.483146 1.000000
vt 0.471910 0.000000
vt 0.494382 1.000000
vt 0.483146 0.000000
vt 0.505618 1.000000
vt 0.494382 0.000000
vt 0.516854 1.000000
vt 0.505618 0.000000
vt 0.528090 1.000000
vt 0.516854 0.000000
vt 0.539326 1.000000
vt 0.528090 0.000000
vt 0.550562 1.000000
vt 0.539326 0.000000
vt 0.561798 1.000000
vt 0.550562 0.000000
vt 0.573034 1.000000
vt 0.561798 0.000000
vt 0.584270 1.000000
vt 0.573034 0.000000
vt 0.595506 1.000000
vt 0.584270 0.000000
vt 0.606742 1.000000
vt 0.595506 0.000000
vt 0.617977 1.000000
vt 0.606742 0.000000
vt 0.629214 1.000000
vt 0.617977 0.000000
vt 0.640449 1.000000
vt 0.629214 0.000000
vt 0.651685 1.000000
vt 0.640449 0.000000
vt 0.662921 1.000000
vt 0.651685 0.000000
vt 0.674157 1.000000
vt 0.662921 0.000000
vt 0.685393 1.000000
vt 0.674157 0.000000
vt 0.696629 1.000000
vt 0.685393 0.000000
vt 0.707865 1.000000
vt 0.696629 0.000000
vt 0.719101 1.000000
vt 0.707865 0.000000
vt 0.730337 1.000000
vt 0.719101 0.000000
vt 0.741573 1.000000
vt 0.730337 0.000000
vt 0.752809 1.000000
vt 0.741573 0.000000
vt 0.764045 1.000000
vt 0.752809 0.000000
vt 0.775281 1.000000
vt 0.764045 0.000000
vt 0.786517 1.000000
vt 0.775281 0.000000
vt 0.797753 1.000000
vt 0.786517 0.000000
vt 0.808989 1.000000
vt 0.797753 0.000000
vt 0.820225 1.000000
vt 0.808989 0.000000
vt 0.831461 1.000000
vt 0.820225 0.000000
vt 0.842697 1.000000
vt 0.831461 0.000000
vt 0.853933 1.000000
vt 0.842697 0.000000
vt 0.865169 1.000000
vt 0.853933 0.000000
vt 0.876405 1.000000
vt 0.865169 0.000000
vt 0.887640 1.000000
vt 0.876405 0.000000
vt 0.898876 1.000000
vt 0.887640 0.000000
vt 0.910112 1.000000
vt 0.898876 0.000000
vt 0.921348 1.000000
vt 0.910112 0.000000
vt 0.932584 1.000000
vt 0.921348 0.000000
vt 0.943820 1.000000
vt 0.932584 0.000000
vt 0.955056 1.000000
vt 0.943820 0.000000
vt 0.966292 1.000000
vt 0.955056 0.000000
vt 0.977528 1.000000
vt 0.966292 0.000000
vt 0.988764 1.000000
vt 0.977528 0.000000
vt 0.988764 0.000000
s 0
usemtl マテリアル
f 62/1/1 64/2/1 63/3/1
f 61/4/1 64/2/1 62/1/1
f 60/5/1 64/2/1 61/4/1
f 60/5/1 65/6/1 64/2/1
f 59/7/1 65/6/1 60/5/1
f 59/7/1 66/8/1 65/6/1
f 58/9/1 66/8/1 59/7/1
f 57/10/1 66/8/1 58/9/1
f 57/10/1 67/11/1 66/8/1
f 56/12/1 67/11/1 57/10/1
f 55/13/1 67/11/1 56/12/1
f 55/13/1 68/14/1 67/11/1
f 54/15/1 68/14/1 55/13/1
f 53/16/1 68/14/1 54/15/1
f 53/16/1 69/17/1 68/14/1
f 52/18/1 69/17/1 53/16/1
f 51/19/1 69/17/1 52/18/1
f 51/19/1 70/20/1 69/17/1
f 50/21/1 49/22/1 51/19/1
f 49/22/1 48/23/1 51/19/1
f 48/23/1 47/24/1 51/19/1
f 47/24/1 46/25/1 51/19/1
f 46/25/1 45/26/1 51/19/1
f 45/26/1 44/27/1 51/19/1
f 44/27/1 43/28/1 51/19/1
f 43/28/1 42/29/1 51/19/1
f 42/29/1 41/30/1 51/19/1
f 41/30/1 40/31/1 51/19/1
f 40/31/1 39/32/1 51/19/1
f 39/32/1 70/20/1 51/19/1
f 39/32/1 38/33/1 70/20/1
f 38/33/1 71/34/1 70/20/1
f 37/35/1 71/34/1 38/33/1
f 36/36/1 71/34/1 37/35/1
f 35/37/1 71/34/1 36/36/1
f 35/37/1 72/38/1 71/34/1
f 34/39/1 72/38/1 35/37/1
f 33/40/1 72/38/1 34/39/1
f 32/41/1 72/38/1 33/40/1
f 32/41/1 73/42/1 72/38/1
f 31/43/1 73/42/1 32/41/1
f 30/44/1 73/42/1 31/43/1
f 30/44/1 74/45/1 73/42/1
f 29/46/1 74/45/1 30/44/1
f 28/47/1 74/45/1 29/46/1
f 28/47/1 75/48/1 74/45/1
f 27/49/1 75/48/1 28/47/1
f 26/50/1 75/48/1 27/49/1
f 26/50/1 76/51/1 75/48/1
f 25/52/1 76/51/1 26/50/1
f 24/53/1 76/51/1 25/52/1
f 24/53/1 77/54/1 76/51/1
f 23/55/1 77/54/1 24/53/1
f 22/56/1 77/54/1 23/55/1
f 22/56/1 78/57/1 77/54/1
f 21/58/1 78/57/1 22/56/1
f 20/59/1 78/57/1 21/58/1
f 20/59/1 79/60/1 78/57/1
f 19/61/1 79/60/1 20/59/1
f 18/62/1 79/60/1 19/61/1
f 17/63/1 79/60/1 18/62/1
f 17/63/1 80/64/1 79/60/1
f 16/65/1 80/64/1 17/63/1
f 15/66/1 80/64/1 16/65/1
f 15/66/1 81/67/1 80/64/1
f 14/68/1 81/67/1 15/66/1
f 13/69/1 81/67/1 14/68/1
f 13/69/1 82/70/1 81/67/1
f 12/71/1 82/70/1 13/69/1
f 12/71/1 83/72/1 82/70/1
f 11/73/1 83/72/1 12/71/1
f 11/73/1 84/74/1 83/72/1
f 10/75/1 84/74/1 11/73/1
f 9/76/1 84/74/1 10/75/1
f 9/76/1 85/77/1 84/74/1
f 8/78/1 85/77/1 9/76/1
f 8/78/1 86/79/1 85/77/1
f 7/80/1 86/79/1 8/78/1
f 7/80/1 87/81/1 86/79/1
f 6/82/1 87/81/1 7/80/1
f 5/83/1 87/81/1 6/82/1
f 5/83/1 88/84/1 87/81/1
f 5/83/1 89/85/1 88/84/1
f 4/86/1 89/85/1 5/83/1
f 3/87/1 89/85/1 4/86/1
f 2/88/1 89/85/1 3/87/1
f 1/89/1 89/85/1 2/88/1
f 90/89/1 92/90/1 91/91/1
f 90/89/1 93/85/1 92/90/1
f 155/1/2 156/3/2 157/2/2
f 154/4/2 155/1/2 157/2/2
f 153/5/2 154/4/2 157/2/2
f 153/5/2 157/2/2 158/6/2
f 152/7/2 153/5/2 158/6/2
f 152/7/2 158/6/2 159/8/2
f 151/9/2 152/7/2 159/8/2
f 150/10/2 151/9/2 159/8/2
f 150/10/2 159/8/2 160/11/2
f 149/12/2 150/10/2 160/11/2
f 148/13/2 149/12/2 160/11/2
f 148/13/2 160/11/2 161/14/2
f 147/15/2 148/13/2 161/14/2
f 146/16/2 147/15/2 161/14/2
f 146/16/2 161/14/2 162/17/2
f 145/18/2 146/16/2 162/17/2
f 144/19/2 145/18/2 162/17/2
f 144/19/2 162/17/2 163/20/2
f 143/21/2 144/19/2 142/22/2
f 142/22/2 144/19/2 141/23/2
f 141/23/2 144/19/2 140/24/2
f 140/24/2 144/19/2 139/25/2
f 139/25/2 144/19/2 138/26/2
f 138/26/2 144/19/2 137/27/2
f 137/27/2 144/19/2 136/28/2
f 136/28/2 144/19/2 135/29/2
f 135/29/2 144/19/2 134/30/2
f 134/30/2 144/19/2 133/31/2
f 133/31/2 144/19/2 132/32/2
f 132/32/2 144/19/2 163/20/2
f 132/32/2 163/20/2 131/33/2
f 131/33/2 163/20/2 164/34/2
f 130/35/2 131/33/2 164/34/2
f 129/36/2 130/35/2 164/34/2
f 128/37/2 129/36/2 164/34/2
f 128/37/2 164/34/2 165/38/2
f 127/39/2 128/37/2 165/38/2
f 126/40/2 127/39/2 165/38/2
f 125/41/2 126/40/2 165/38/2
f 125/41/2 165/38/2 166/42/2
f 124/43/2 125/41/2 166/42/2
f 123/44/2 124/43/2 166/42/2
f 123/44/2 166/42/2 167/45/2
f 122/46/2 123/44/2 167/45/2
f 121/47/2 122/46/2 167/45/2
f 121/47/2 167/45/2 168/48/2
f 120/49/2 121/47/2 168/48/2
f 119/50/2 120/49/2 168/48/2
f 119/50/2 168/48/2 169/51/2
f 118/52/2 119/50/2 169/51/2
f 117/53/2 118/52/2 169/51/2
f 117/53/2 169/51/2 170/54/2
f 116/55/2 117/53/2 170/54/2
f 115/56/2 116/55/2 170/54/2
f 115/56/2 170/54/2 171/57/2
f 114/58/2 115/56/2 171/57/2
f 113/59/2 114/58/2 171/57/2
f 113/59/2 171/57/2 172/60/2
f 112/61/2 113/59/2 172/60/2
f 111/62/2 112/61/2 172/60/2
f 110/63/2 111/62/2 172/60/2
f 110/63/2 172/60/2 173/64/2
f 109/65/2 110/63/2 173/64/2
f 108/66/2 109/65/2 173/64/2
f 108/66/2 173/64/2 174/67/2
f 107/68/2 108/66/2 174/67/2
f 106/69/2 107/68/2 174/67/2
f 106/69/2 174/67/2 175/70/2
f 105/71/2 106/69/2 175/70/2
f 105/71/2 175/70/2 176/72/2
f 104/73/2 105/71/2 176/72/2
f 104/73/2 176/72/2 177/74/2
f 103/75/2 104/73/2 177/74/2
f 102/76/2 103/75/2 177/74/2
f 102/76/2 177/74/2 178/77/2
f 101/78/2 102/76/2 178/77/2
f 101/78/2 178/77/2 179/79/2
f 100/80/2 101/78/2 179/79/2
f 100/80/2 179/79/2 180/81/2
f 99/82/2 100/80/2 180/81/2
f 98/83/2 99/82/2 180/81/2
f 98/83/2 180/81/2 181/84/2
f 98/83/2 181/84/2 182/85/2
f 97/86/2 98/83/2 182/85/2
f 96/87/2 97/86/2 182/85/2
f 95/88/2 96/87/2 182/85/2
f 94/89/2 95/88/2 182/85/2
f 183/89/2 184/91/2 185/90/2
f 183/89/2 185/90/2 186/85/2
s 1
f 190/92/3 187/89/4 188/93/4
f 192/94/5 189/55/3 190/92/3
f 194/95/6 191/26/5 192/94/5
f 188/96/4 193/11/6 194/95/6
f 198/97/7 195/89/4 196/93/4
f 200/98/8 197/99/7 198/97/7
f 202/100/9 199/101/8 200/98/8
f 204/102/10 201/103/9 202/100/9
f 206/104/11 203/105/10 204/102/10
f 208/106/12 205/107/11 206/104/11
f 210/108/13 207/109/12 208/106/12
f 212/110/14 209/111/13 210/108/13
f 214/112/15 211/113/14 212/110/14
f 216/114/16 213/115/15 214/112/15
f 218/116/17 215/117/16 216/114/16
f 220/118/18 217/119/17 218/116/17
f 222/120/19 219/121/20 220/118/18
f 224/122/21 221/123/19 222/120/19
f 226/124/22 223/125/21 224/122/21
f 228/126/23 225/127/22 226/124/22
f 230/128/24 227/129/23 228/126/23
f 232/130/25 229/131/24 230/128/24
f 234/132/26 231/133/25 232/130/25
f 236/134/27 233/135/26 234/132/26
f 238/136/28 235/137/27 236/134/27
f 240/138/29 237/139/28 238/136/28
f 242/140/30 239/141/29 240/138/29
f 244/142/31 241/143/32 242/140/30
f 246/144/33 243/145/31 244/142/31
f 248/146/34 245/147/33 246/144/33
f 250/148/35 247/149/34 248/146/34
f 252/150/36 249/151/35 250/148/35
f 254/152/37 251/153/36 252/150/36
f 256/154/38 253/155/37 254/152/37
f 258/156/39 255/157/38 256/154/38
f 260/158/40 257/159/41 258/156/39
f 262/160/42 259/161/40 260/158/40
f 264/162/43 261/163/42 262/160/42
f 266/164/44 263/165/43 264/162/43
f 268/166/45 265/167/44 266/164/44
f 270/168/46 267/169/45 268/166/45
f 272/170/47 269/171/46 270/168/46
f 274/172/48 271/173/47 272/170/47
f 276/174/49 273/175/48 274/172/48
f 278/176/50 275/177/49 276/174/49
f 280/178/51 277/179/50 278/176/50
f 282/180/52 279/181/51 280/178/51
f 284/182/53 281/183/52 282/180/52
f 286/184/54 283/185/53 284/182/53
f 288/186/55 285/187/54 286/184/54
f 290/188/56 287/189/55 288/186/55
f 292/190/57 289/191/56 290/188/56
f 294/192/58 291/193/57 292/190/57
f 296/194/59 293/195/58 294/192/58
f 298/196/60 295/197/59 296/194/59
f 300/198/61 297/199/60 298/196/60
f 302/200/62 299/201/61 300/198/61
f 304/202/63 301/203/62 302/200/62
f 306/204/64 303/205/63 304/202/63
f 308/206/65 305/207/64 306/204/64
f 310/208/66 307/209/65 308/206/65
f 312/210/67 309/211/66 310/208/66
f 314/212/68 311/213/67 312/210/67
f 316/214/69 313/215/68 314/212/68
f 318/216/70 315/217/69 316/214/69
f 320/218/71 317/219/70 318/216/70
f 322/220/72 319/221/71 320/218/71
f 324/222/73 321/223/72 322/220/72
f 326/224/74 323/225/73 324/222/73
f 328/226/75 325/227/74 326/224/74
f 330/228/76 327/229/75 328/226/75
f 332/230/77 329/231/76 330/228/76
f 334/232/78 331/233/77 332/230/77
f 336/234/79 333/235/78 334/232/78
f 338/236/80 335/237/79 336/234/79
f 340/238/81 337/239/80 338/236/80
f 342/240/82 339/241/81 340/238/81
f 344/242/83 341/243/82 342/240/82
f 346/244/84 343/245/83 344/242/83
f 348/246/85 345/247/84 346/244/84
f 350/248/86 347/249/85 348/246/85
f 352/250/87 349/251/86 350/248/86
f 354/252/88 351/253/87 352/250/87
f 356/254/89 353/255/88 354/252/88
f 358/256/90 355/257/89 356/254/89
f 360/258/91 357/259/90 358/256/90
f 362/260/92 359/261/91 360/258/91
f 364/262/93 361/263/92 362/260/92
f 366/264/94 363/265/93 364/262/93
f 368/266/95 365/267/94 366/264/94
f 370/268/5 367/269/95 368/266/95
f 372/270/6 369/271/5 370/268/5
f 196/96/4 371/272/6 372/270/6
f 190/92/3 189/55/3 187/89/4
f 192/94/5 191/26/5 189/55/3
f 194/95/6 193/11/6 191/26/5
f 188/96/4 187/85/4 193/11/6
f 198/97/7 197/99/7 195/89/4
f 200/98/8 199/101/8 197/99/7
f 202/100/9 201/103/9 199/101/8
f 204/102/10 203/105/10 201/103/9
f 206/104/11 205/107/11 203/105/10
f 208/106/12 207/109/12 205/107/11
f 210/108/13 209/111/13 207/109/12
f 212/110/14 211/113/14 209/111/13
f 214/112/15 213/115/15 211/113/14
f 216/114/16 215/117/16 213/115/15
f 218/116/17 217/119/17 215/117/16
f 220/118/18 219/121/20 217/119/17
f 222/120/19 221/123/19 219/121/20
f 224/122/21 223/125/21 221/123/19
f 226/124/22 225/127/22 223/125/21
f 228/126/23 227/129/23 225/127/22
f 230/128/24 229/131/24 227/129/23
f 232/130/25 231/133/25 229/131/24
f 234/132/26 233/135/26 231/133/25
f 236/134/27 235/137/27 233/135/26
f 238/136/28 237/139/28 235/137/27
f 240/138/29 239/141/29 237/139/28
f 242/140/30 241/143/32 239/141/29
f 244/142/31 243/145/31 241/143/32
f 246/144/33 245/147/33 243/145/31
f 248/146/34 247/149/34 245/147/33
f 250/148/35 249/151/35 247/149/34
f 252/150/36 251/153/36 249/151/35
f 254/152/37 253/155/37 251/153/36
f 256/154/38 255/157/38 253/155/37
f 258/156/39 257/159/41 255/157/38
f 260/158/40 259/161/40 257/159/41
f 262/160/42 261/163/42 259/161/40
f 264/162/43 263/165/43 261/163/42
f 266/164/44 265/167/44 263/165/43
f 268/166/45 267/169/45 265/167/44
f 270/168/46 269/171/46 267/169/45
f 272/170/47 271/173/47 269/171/46
f 274/172/48 273/175/48 271/173/47
f 276/174/49 275/177/49 273/175/48
f 278/176/50 277/179/50 275/177/49
f 280/178/51 279/181/51 277/179/50
f 282/180/52 281/183/52 279/181/51
f 284/182/53 283/185/53 281/183/52
f 286/184/54 285/187/54 283/185/53
f 288/186/55 287/189/55 285/187/54
f 290/188/56 289/191/56 287/189/55
f 292/190/57 291/193/57 289/191/56
f 294/192/58 293/195/58 291/193/57
f 296/194/59 295/197/59 293/195/58
f 298/196/60 297/199/60 295/197/59
f 300/198/61 299/201/61 297/199/60
f 302/200/62 301/203/62 299/201/61
f 304/202/63 303/205/63 301/203/62
f 306/204/64 305/207/64 303/205/63
f 308/206/65 307/209/65 305/207/64
f 310/208/66 309/211/66 307/209/65
f 312/210/67 311/213/67 309/211/66
f 314/212/68 313/215/68 311/213/67
f 316/214/69 315/217/69 313/215/68
f 318/216/70 317/219/70 315/217/69
f 320/218/71 319/221/71 317/219/70
f 322/220/72 321/223/72 319/221/71
f 324/222/73 323/225/73 321/223/72
f 326/224/74 325/227/74 323/225/73
f 328/226/75 327/229/75 325/227/74
f 330/228/76 329/231/76 327/229/75
f 332/230/77 331/233/77 329/231/76
f 334/232/78 333/235/78 331/233/77
f 336/234/79 335/237/79 333/235/78
f 338/236/80 337/239/80 335/237/79
f 340/238/81 339/241/81 337/239/80
f 342/240/82 341/243/82 339/241/81
f 344/242/83 343/245/83 341/243/82
f 346/244/84 345/247/84 343/245/83
f 348/246/85 347/249/85 345/247/84
f 350/248/86 349/251/86 347/249/85
f 352/250/87 351/253/87 349/251/86
f 354/252/88 353/255/88 351/253/87
f 356/254/89 355/257/89 353/255/88
f 358/256/90 357/259/90 355/257/89
f 360/258/91 359/261/91 357/259/90
f 362/260/92 361/263/92 359/261/91
f 364/262/93 363/265/93 361/263/92
f 366/264/94 365/267/94 363/265/93
f 368/266/95 367/269/95 365/267/94
f 370/268/5 369/271/5 367/269/95
f 372/270/6 371/272/6 369/271/5
f 196/96/4 195/85/4 371/272/6
o テキスト.001
v -0.250688 -0.030241 -0.113593
v 0.261312 -0.030241 -0.113593
v 0.261312 0.019759 -0.113593
v -0.250688 0.019759 -0.113593
v -0.250688 -0.030241 0.086407
v 0.261312 -0.030241 0.086407
v 0.261312 0.019759 0.086407
v -0.250688 0.019759 0.086407
v -0.250688 -0.030241 0.086407
v -0.250688 -0.030241 -0.113593
v 0.261312 -0.030241 0.086407
v 0.261312 -0.030241 -0.113593
v 0.261312 0.019759 0.086407
v 0.261312 0.019759 -0.113593
v -0.250688 0.019759 0.086407
v -0.250688 0.019759 -0.113593
vn -0.0000 -0.0000 -1.0000
vn -0.0000 -0.0000 1.0000
vn 0.7071 -0.7071 -0.0000
vn -0.7071 -0.7071 -0.0000
vn 0.7071 0.7071 -0.0000
vn -0.7071 0.7071 -0.0000
vt 0.333333 0.000000
vt 1.000000 0.000000
vt 0.666667 0.000000
vt 0.000000 0.000000
vt 0.250000 1.000000
vt 0.000000 1.000000
vt 0.500000 1.000000
vt 0.250000 0.000000
vt 0.750000 1.000000
vt 0.500000 0.000000
vt 1.000000 1.000000
vt 0.750000 0.000000
s 0
usemtl マテリアル.001
f 374/273/96 376/274/96 375/275/96
f 374/273/96 373/276/96 376/274/96
f 378/273/97 379/275/97 380/274/97
f 378/273/97 380/274/97 377/276/97
s 1
f 384/277/98 381/276/99 382/278/99
f 386/279/100 383/280/98 384/277/98
f 388/281/101 385/282/100 386/279/100
f 382/283/99 387/284/101 388/281/101
f 384/277/98 383/280/98 381/276/99
f 386/279/100 385/282/100 383/280/98
f 388/281/101 387/284/101 385/282/100
f 382/283/99 381/274/99 387/284/101
