# Blender 4.1.1
# www.blender.org
mtllib UI_Title_Stsrt.mtl
o テキスト
v -1.067972 0.179339 -0.000000
v -1.068048 0.184524 -0.000000
v -1.068257 0.189712 -0.000000
v -1.068572 0.194904 -0.000000
v -1.068968 0.200105 -0.000000
v -1.069417 0.205317 -0.000000
v -1.069892 0.210541 -0.000000
v -1.070368 0.215782 -0.000000
v -1.070817 0.221042 -0.000000
v -1.071212 0.226322 -0.000000
v -1.071528 0.231627 -0.000000
v -1.071737 0.236959 -0.000000
v -1.071813 0.242319 -0.000000
v -1.071639 0.250305 -0.000000
v -1.071066 0.258072 -0.000000
v -1.070012 0.265529 -0.000000
v -1.068399 0.272586 -0.000000
v -1.066145 0.279153 -0.000000
v -1.063172 0.285138 -0.000000
v -1.059398 0.290451 -0.000000
v -1.054745 0.295002 -0.000000
v -1.049131 0.298699 -0.000000
v -1.042477 0.301452 -0.000000
v -1.034703 0.303171 -0.000000
v -1.025730 0.303763 -0.000000
v -1.016577 0.303751 -0.000000
v -1.007229 0.303664 -0.000000
v -0.997780 0.303427 -0.000000
v -0.988323 0.302967 -0.000000
v -0.978951 0.302208 -0.000000
v -0.969758 0.301075 -0.000000
v -0.960837 0.299495 -0.000000
v -0.952281 0.297391 -0.000000
v -0.944184 0.294691 -0.000000
v -0.936639 0.291318 -0.000000
v -0.929740 0.287199 -0.000000
v -0.923579 0.282258 -0.000000
v -0.913188 0.268531 -0.000000
v -0.904904 0.249506 -0.000000
v -0.898498 0.226154 -0.000000
v -0.893739 0.199451 -0.000000
v -0.890399 0.170369 -0.000000
v -0.888249 0.139881 -0.000000
v -0.887059 0.108961 -0.000000
v -0.886599 0.078583 -0.000000
v -0.886641 0.049719 -0.000000
v -0.886955 0.023344 -0.000000
v -0.887311 0.000430 -0.000000
v -0.887481 -0.018049 0.000000
v -0.887405 -0.036255 0.000000
v -0.887321 -0.058411 0.000000
v -0.887445 -0.083633 0.000000
v -0.887993 -0.111040 0.000000
v -0.889181 -0.139748 0.000000
v -0.891225 -0.168875 0.000000
v -0.894341 -0.197538 0.000000
v -0.898746 -0.224854 0.000000
v -0.904654 -0.249940 0.000000
v -0.912282 -0.271914 0.000000
v -0.921847 -0.289894 0.000000
v -0.933564 -0.302995 0.000000
v -0.938197 -0.306172 0.000000
v -0.943239 -0.308820 0.000000
v -0.948649 -0.310988 0.000000
v -0.954386 -0.312724 0.000000
v -0.960412 -0.314076 0.000000
v -0.966686 -0.315092 0.000000
v -0.973168 -0.315820 0.000000
v -0.979817 -0.316308 0.000000
v -0.986595 -0.316604 0.000000
v -0.993461 -0.316756 0.000000
v -1.000375 -0.316812 0.000000
v -1.007297 -0.316820 0.000000
v -1.016749 -0.316569 0.000000
v -1.025506 -0.315771 0.000000
v -1.033542 -0.314360 0.000000
v -1.040835 -0.312269 0.000000
v -1.047359 -0.309431 0.000000
v -1.053091 -0.305780 0.000000
v -1.058008 -0.301248 0.000000
v -1.062084 -0.295770 0.000000
v -1.065296 -0.289278 0.000000
v -1.067620 -0.281707 0.000000
v -1.069032 -0.272989 0.000000
v -1.069508 -0.263057 0.000000
v -1.069433 -0.255391 0.000000
v -1.069224 -0.247753 0.000000
v -1.068908 -0.240135 0.000000
v -1.068513 -0.232534 0.000000
v -1.068064 -0.224943 0.000000
v -1.067588 -0.217358 0.000000
v -1.067113 -0.209773 0.000000
v -1.066664 -0.202182 0.000000
v -1.066268 -0.194580 0.000000
v -1.065953 -0.186963 0.000000
v -1.065744 -0.179324 0.000000
v -1.065668 -0.171659 0.000000
v -1.065706 -0.164748 0.000000
v -1.065903 -0.155864 0.000000
v -1.066388 -0.145497 0.000000
v -1.067290 -0.134138 0.000000
v -1.068735 -0.122278 0.000000
v -1.070853 -0.110407 0.000000
v -1.073770 -0.099016 0.000000
v -1.077616 -0.088596 0.000000
v -1.082517 -0.079637 0.000000
v -1.088603 -0.072630 0.000000
v -1.096001 -0.068067 0.000000
v -1.104839 -0.066436 0.000000
v -1.129972 -0.067721 0.000000
v -1.154723 -0.071272 0.000000
v -1.179160 -0.076637 0.000000
v -1.203348 -0.083362 0.000000
v -1.227355 -0.090993 0.000000
v -1.251248 -0.099078 0.000000
v -1.275093 -0.107163 0.000000
v -1.298956 -0.114795 0.000000
v -1.322905 -0.121520 0.000000
v -1.347005 -0.126885 0.000000
v -1.371325 -0.130436 0.000000
v -1.395929 -0.131720 0.000000
v -1.407515 -0.130113 0.000000
v -1.418078 -0.126927 0.000000
v -1.427623 -0.122312 0.000000
v -1.436152 -0.116416 0.000000
v -1.443668 -0.109390 0.000000
v -1.450173 -0.101383 0.000000
v -1.455670 -0.092543 0.000000
v -1.460161 -0.083020 0.000000
v -1.463650 -0.072965 0.000000
v -1.466138 -0.062525 0.000000
v -1.467630 -0.051850 0.000000
v -1.468126 -0.041091 0.000000
v -1.468129 -0.036938 0.000000
v -1.468083 -0.032575 0.000000
v -1.467910 -0.028046 0.000000
v -1.467529 -0.023397 0.000000
v -1.466859 -0.018674 0.000000
v -1.465822 -0.013921 0.000000
v -1.464337 -0.009184 0.000000
v -1.462323 -0.004509 0.000000
v -1.459702 0.000060 -0.000000
v -1.456392 0.004477 -0.000000
v -1.452314 0.008696 -0.000000
v -1.447389 0.012673 -0.000000
v -1.433699 0.021025 -0.000000
v -1.417495 0.028478 -0.000000
v -1.399206 0.035126 -0.000000
v -1.379260 0.041062 -0.000000
v -1.358087 0.046379 -0.000000
v -1.336118 0.051171 -0.000000
v -1.313780 0.055531 -0.000000
v -1.291503 0.059552 -0.000000
v -1.269717 0.063328 -0.000000
v -1.248852 0.066952 -0.000000
v -1.229335 0.070517 -0.000000
v -1.211598 0.074117 -0.000000
v -1.196187 0.078769 -0.000000
v -1.180157 0.082978 -0.000000
v -1.163882 0.087102 -0.000000
v -1.147736 0.091497 -0.000000
v -1.132090 0.096523 -0.000000
v -1.117320 0.102535 -0.000000
v -1.103797 0.109891 -0.000000
v -1.091896 0.118948 -0.000000
v -1.081989 0.130064 -0.000000
v -1.074451 0.143597 -0.000000
v -1.069654 0.159903 -0.000000
v -0.254608 0.067204 -0.000000
v -0.251152 0.067219 -0.000000
v -0.247696 0.067261 -0.000000
v -0.244240 0.067324 -0.000000
v -0.240783 0.067403 -0.000000
v -0.237327 0.067493 -0.000000
v -0.233871 0.067588 -0.000000
v -0.230415 0.067683 -0.000000
v -0.226959 0.067773 -0.000000
v -0.223502 0.067852 -0.000000
v -0.220046 0.067915 -0.000000
v -0.216590 0.067957 -0.000000
v -0.213134 0.067972 -0.000000
v -0.199095 0.067885 -0.000000
v -0.182429 0.067467 -0.000000
v -0.163870 0.066484 -0.000000
v -0.144151 0.064701 -0.000000
v -0.124006 0.061883 -0.000000
v -0.104167 0.057796 -0.000000
v -0.085368 0.052204 -0.000000
v -0.068342 0.044874 -0.000000
v -0.053823 0.035570 -0.000000
v -0.042545 0.024058 -0.000000
v -0.035240 0.010104 -0.000000
v -0.032642 -0.006528 0.000000
v -0.036073 -0.024935 0.000000
v -0.045685 -0.040049 0.000000
v -0.060460 -0.052191 0.000000
v -0.079379 -0.061686 0.000000
v -0.101424 -0.068855 0.000000
v -0.125576 -0.074021 0.000000
v -0.150816 -0.077507 0.000000
v -0.176125 -0.079635 0.000000
v -0.200485 -0.080729 0.000000
v -0.222877 -0.081111 0.000000
v -0.242281 -0.081103 0.000000
v -0.257680 -0.081029 0.000000
v -0.441244 -0.081029 0.000000
v -0.446828 -0.081059 0.000000
v -0.452438 -0.081143 0.000000
v -0.458069 -0.081269 0.000000
v -0.463717 -0.081427 0.000000
v -0.469375 -0.081607 0.000000
v -0.475038 -0.081797 0.000000
v -0.480702 -0.081987 0.000000
v -0.486360 -0.082167 0.000000
v -0.492008 -0.082325 0.000000
v -0.497639 -0.082452 0.000000
v -0.503249 -0.082535 0.000000
v -0.508833 -0.082565 0.000000
v -0.523410 -0.082492 0.000000
v -0.541226 -0.082107 0.000000
v -0.561420 -0.081161 0.000000
v -0.583134 -0.079408 0.000000
v -0.605510 -0.076598 0.000000
v -0.627688 -0.072485 0.000000
v -0.648810 -0.066819 0.000000
v -0.668018 -0.059353 0.000000
v -0.684452 -0.049839 0.000000
v -0.697253 -0.038029 0.000000
v -0.705564 -0.023675 0.000000
v -0.708525 -0.006528 0.000000
v -0.707506 0.004379 -0.000000
v -0.704596 0.014106 -0.000000
v -0.700017 0.022717 -0.000000
v -0.693989 0.030281 -0.000000
v -0.686735 0.036863 -0.000000
v -0.678475 0.042531 -0.000000
v -0.669432 0.047350 -0.000000
v -0.659825 0.051388 -0.000000
v -0.649877 0.054711 -0.000000
v -0.639810 0.057387 -0.000000
v -0.629843 0.059481 -0.000000
v -0.620200 0.061060 -0.000000
v -0.612888 0.062164 -0.000000
v -0.605550 0.063172 -0.000000
v -0.598190 0.064084 -0.000000
v -0.590815 0.064900 -0.000000
v -0.583428 0.065620 -0.000000
v -0.576037 0.066244 -0.000000
v -0.568645 0.066772 -0.000000
v -0.561259 0.067204 -0.000000
v -0.553883 0.067540 -0.000000
v -0.546524 0.067780 -0.000000
v -0.539186 0.067924 -0.000000
v -0.531874 0.067972 -0.000000
v -0.528403 0.067957 -0.000000
v -0.524905 0.067915 -0.000000
v -0.521385 0.067852 -0.000000
v -0.517850 0.067773 -0.000000
v -0.514304 0.067683 -0.000000
v -0.510753 0.067588 -0.000000
v -0.507201 0.067493 -0.000000
v -0.503655 0.067403 -0.000000
v -0.500120 0.067324 -0.000000
v -0.496601 0.067261 -0.000000
v -0.493103 0.067219 -0.000000
v -0.489631 0.067204 -0.000000
v 0.277650 0.053379 -0.000000
v 0.279778 0.049135 -0.000000
v 0.281302 0.044895 -0.000000
v 0.282414 0.040731 -0.000000
v 0.283311 0.036710 -0.000000
v 0.284186 0.032903 -0.000000
v 0.285234 0.029378 -0.000000
v 0.286651 0.026205 -0.000000
v 0.288630 0.023454 -0.000000
v 0.291367 0.021193 -0.000000
v 0.295055 0.019493 -0.000000
v 0.299891 0.018422 -0.000000
v 0.306068 0.018049 -0.000000
v 0.313632 0.019107 -0.000000
v 0.322741 0.022032 -0.000000
v 0.333177 0.026450 -0.000000
v 0.344726 0.031988 -0.000000
v 0.357171 0.038273 -0.000000
v 0.370296 0.044931 -0.000000
v 0.383885 0.051589 -0.000000
v 0.397721 0.057874 -0.000000
v 0.411590 0.063412 -0.000000
v 0.425275 0.067830 -0.000000
v 0.438560 0.070755 -0.000000
v 0.451229 0.071813 -0.000000
v 0.459149 0.070406 -0.000000
v 0.467415 0.066450 -0.000000
v 0.475830 0.060340 -0.000000
v 0.484198 0.052469 -0.000000
v 0.492320 0.043233 -0.000000
v 0.500000 0.033026 -0.000000
v 0.507040 0.022243 -0.000000
v 0.513242 0.011279 -0.000000
v 0.518409 0.000528 -0.000000
v 0.522344 -0.009615 0.000000
v 0.524850 -0.018755 0.000000
v 0.525730 -0.026498 0.000000
v 0.523342 -0.037156 0.000000
v 0.516741 -0.046606 0.000000
v 0.506768 -0.055048 0.000000
v 0.494268 -0.062681 0.000000
v 0.480082 -0.069707 0.000000
v 0.465054 -0.076325 0.000000
v 0.450025 -0.082735 0.000000
v 0.435839 -0.089136 0.000000
v 0.423339 -0.095730 0.000000
v 0.413367 -0.102716 0.000000
v 0.406766 -0.110294 0.000000
v 0.404378 -0.118664 0.000000
v 0.408553 -0.129813 0.000000
v 0.420176 -0.139628 0.000000
v 0.437896 -0.148378 0.000000
v 0.460360 -0.156326 0.000000
v 0.486216 -0.163742 0.000000
v 0.514113 -0.170891 0.000000
v 0.542697 -0.178040 0.000000
v 0.570618 -0.185455 0.000000
v 0.596522 -0.193404 0.000000
v 0.619058 -0.202153 0.000000
v 0.636874 -0.211969 0.000000
v 0.648618 -0.223118 0.000000
v 0.647501 -0.235555 0.000000
v 0.645634 -0.247792 0.000000
v 0.642941 -0.259661 0.000000
v 0.639344 -0.270993 0.000000
v 0.634766 -0.281622 0.000000
v 0.629128 -0.291379 0.000000
v 0.622355 -0.300095 0.000000
v 0.614368 -0.307604 0.000000
v 0.605091 -0.313736 0.000000
v 0.594445 -0.318324 0.000000
v 0.582354 -0.321201 0.000000
v 0.568740 -0.322197 0.000000
v 0.551284 -0.321545 0.000000
v 0.532521 -0.319672 0.000000
v 0.512745 -0.316700 0.000000
v 0.492248 -0.312752 0.000000
v 0.471325 -0.307951 0.000000
v 0.450269 -0.302419 0.000000
v 0.429372 -0.296279 0.000000
v 0.408929 -0.289654 0.000000
v 0.389233 -0.282666 0.000000
v 0.370577 -0.275438 0.000000
v 0.353254 -0.268093 0.000000
v 0.337558 -0.260753 0.000000
v 0.296687 -0.237961 0.000000
v 0.260013 -0.212312 0.000000
v 0.227415 -0.183960 0.000000
v 0.198768 -0.153055 0.000000
v 0.173952 -0.119750 0.000000
v 0.152842 -0.084197 0.000000
v 0.135316 -0.046548 0.000000
v 0.121252 -0.006955 0.000000
v 0.110527 0.034430 -0.000000
v 0.103018 0.077456 -0.000000
v 0.098603 0.121969 -0.000000
v 0.097158 0.167819 -0.000000
v 0.097064 0.177118 -0.000000
v 0.096920 0.186149 -0.000000
v 0.096930 0.194832 -0.000000
v 0.097300 0.203092 -0.000000
v 0.098236 0.210850 -0.000000
v 0.099942 0.218030 -0.000000
v 0.102625 0.224553 -0.000000
v 0.106489 0.230344 -0.000000
v 0.111739 0.235323 -0.000000
v 0.118582 0.239414 -0.000000
v 0.127222 0.242540 -0.000000
v 0.137865 0.244624 -0.000000
v 0.137865 0.245392 -0.000000
v 0.155563 0.248323 -0.000000
v 0.178006 0.250345 -0.000000
v 0.204145 0.251668 -0.000000
v 0.232932 0.252503 -0.000000
v 0.263320 0.253061 -0.000000
v 0.294259 0.253552 -0.000000
v 0.324702 0.254187 -0.000000
v 0.353601 0.255177 -0.000000
v 0.379908 0.256732 -0.000000
v 0.402575 0.259064 -0.000000
v 0.420554 0.262382 -0.000000
v 0.432796 0.266897 -0.000000
v 0.432494 0.279557 -0.000000
v 0.433137 0.290024 -0.000000
v 0.434740 0.298507 -0.000000
v 0.437319 0.305214 -0.000000
v 0.440890 0.310353 -0.000000
v 0.445469 0.314132 -0.000000
v 0.451072 0.316759 -0.000000
v 0.457715 0.318442 -0.000000
v 0.465414 0.319388 -0.000000
v 0.474185 0.319807 -0.000000
v 0.484044 0.319906 -0.000000
v 0.495008 0.319892 -0.000000
v 0.500752 0.319900 -0.000000
v 0.506461 0.319892 -0.000000
v 0.512133 0.319820 -0.000000
v 0.517765 0.319636 -0.000000
v 0.523354 0.319292 -0.000000
v 0.528898 0.318740 -0.000000
v 0.534394 0.317932 -0.000000
v 0.539839 0.316820 -0.000000
v 0.545231 0.315356 -0.000000
v 0.550567 0.313492 -0.000000
v 0.555844 0.311180 -0.000000
v 0.561060 0.308372 -0.000000
v 0.565597 0.305139 -0.000000
v 0.569640 0.301264 -0.000000
v 0.573241 0.296839 -0.000000
v 0.576449 0.291958 -0.000000
v 0.579317 0.286715 -0.000000
v 0.581893 0.281202 -0.000000
v 0.584230 0.275513 -0.000000
v 0.586377 0.269742 -0.000000
v 0.588386 0.263981 -0.000000
v 0.590306 0.258324 -0.000000
v 0.592189 0.252865 -0.000000
v 0.594086 0.247696 -0.000000
v 0.601443 0.229965 -0.000000
v 0.609291 0.212483 -0.000000
v 0.617608 0.195240 -0.000000
v 0.626373 0.178230 -0.000000
v 0.635564 0.161444 -0.000000
v 0.645161 0.144873 -0.000000
v 0.655142 0.128511 -0.000000
v 0.665486 0.112348 -0.000000
v 0.676171 0.096378 -0.000000
v 0.687177 0.080592 -0.000000
v 0.698480 0.064981 -0.000000
v 0.710061 0.049539 -0.000000
v 0.711228 0.048003 -0.000000
v 0.712419 0.046467 -0.000000
v 0.713626 0.044931 -0.000000
v 0.714840 0.043395 -0.000000
v 0.716055 0.041859 -0.000000
v 0.717262 0.040323 -0.000000
v 0.718453 0.038786 -0.000000
v 0.719619 0.037250 -0.000000
v 0.720754 0.035714 -0.000000
v 0.721849 0.034178 -0.000000
v 0.722896 0.032642 -0.000000
v 0.723886 0.031106 -0.000000
v 0.724713 0.029848 -0.000000
v 0.725636 0.028404 -0.000000
v 0.726623 0.026810 -0.000000
v 0.727641 0.025104 -0.000000
v 0.728660 0.023323 -0.000000
v 0.729647 0.021505 -0.000000
v 0.730569 0.019687 -0.000000
v 0.731396 0.017907 -0.000000
v 0.732095 0.016201 -0.000000
v 0.732634 0.014607 -0.000000
v 0.732980 0.013163 -0.000000
v 0.733103 0.011905 -0.000000
v 0.731803 0.004308 -0.000000
v 0.728143 -0.003748 0.000000
v 0.722482 -0.012049 0.000000
v 0.715182 -0.020382 0.000000
v 0.706601 -0.028533 0.000000
v 0.697101 -0.036290 0.000000
v 0.687040 -0.043439 0.000000
v 0.676779 -0.049767 0.000000
v 0.666679 -0.055060 0.000000
v 0.657098 -0.059104 0.000000
v 0.648397 -0.061688 0.000000
v 0.640937 -0.062596 0.000000
v 0.624692 -0.059456 0.000000
v 0.608586 -0.050723 0.000000
v 0.592598 -0.037430 0.000000
v 0.576705 -0.020609 0.000000
v 0.560887 -0.001292 0.000000
v 0.545123 0.019489 -0.000000
v 0.529390 0.040703 -0.000000
v 0.513668 0.061316 -0.000000
v 0.497936 0.080297 -0.000000
v 0.482171 0.096614 -0.000000
v 0.466353 0.109235 -0.000000
v 0.450461 0.117127 -0.000000
v 0.443902 0.119023 -0.000000
v 0.437287 0.120516 -0.000000
v 0.430624 0.121652 -0.000000
v 0.423921 0.122475 -0.000000
v 0.417185 0.123032 -0.000000
v 0.410426 0.123368 -0.000000
v 0.403651 0.123527 -0.000000
v 0.396868 0.123556 -0.000000
v 0.390085 0.123500 -0.000000
v 0.383310 0.123403 -0.000000
v 0.376551 0.123312 -0.000000
v 0.369816 0.123272 -0.000000
v 0.367319 0.123287 -0.000000
v 0.364820 0.123329 -0.000000
v 0.362315 0.123392 -0.000000
v 0.359803 0.123471 -0.000000
v 0.357279 0.123561 -0.000000
v 0.354743 0.123656 -0.000000
v 0.352190 0.123751 -0.000000
v 0.349619 0.123841 -0.000000
v 0.347026 0.123920 -0.000000
v 0.344410 0.123983 -0.000000
v 0.341766 0.124025 -0.000000
v 0.339094 0.124040 -0.000000
v 0.333438 0.123963 -0.000000
v 0.327001 0.123677 -0.000000
v 0.320025 0.123104 -0.000000
v 0.312752 0.122162 -0.000000
v 0.305427 0.120773 -0.000000
v 0.298291 0.118856 -0.000000
v 0.291587 0.116330 -0.000000
v 0.285558 0.113117 -0.000000
v 0.280446 0.109135 -0.000000
v 0.276494 0.104305 -0.000000
v 0.273945 0.098548 -0.000000
v 0.273041 0.091782 -0.000000
v 0.273118 0.088548 -0.000000
v 0.273333 0.085371 -0.000000
v 0.273666 0.082241 -0.000000
v 0.274094 0.079152 -0.000000
v 0.274597 0.076094 -0.000000
v 0.275154 0.073061 -0.000000
v 0.275742 0.070043 -0.000000
v 0.276341 0.067034 -0.000000
v 0.276930 0.064024 -0.000000
v 0.277486 0.061007 -0.000000
v 0.277989 0.057973 -0.000000
v 0.278418 0.054915 -0.000000
v 1.224654 0.286866 -0.000000
v 1.234921 0.286764 -0.000000
v 1.248034 0.286429 -0.000000
v 1.263381 0.285822 -0.000000
v 1.280352 0.284904 -0.000000
v 1.298337 0.283633 -0.000000
v 1.316725 0.281970 -0.000000
v 1.334904 0.279875 -0.000000
v 1.352265 0.277308 -0.000000
v 1.368196 0.274230 -0.000000
v 1.382087 0.270599 -0.000000
v 1.393327 0.266376 -0.000000
v 1.401306 0.261521 -0.000000
v 1.405793 0.257272 -0.000000
v 1.409680 0.252624 -0.000000
v 1.413006 0.247624 -0.000000
v 1.415813 0.242319 -0.000000
v 1.418140 0.236759 -0.000000
v 1.420027 0.230991 -0.000000
v 1.421514 0.225062 -0.000000
v 1.422641 0.219022 -0.000000
v 1.423447 0.212918 -0.000000
v 1.423974 0.206797 -0.000000
v 1.424261 0.200709 -0.000000
v 1.424347 0.194700 -0.000000
v 1.423316 0.184728 -0.000000
v 1.420386 0.176239 -0.000000
v 1.415803 0.169115 -0.000000
v 1.409811 0.163239 -0.000000
v 1.402657 0.158494 -0.000000
v 1.394585 0.154762 -0.000000
v 1.385842 0.151926 -0.000000
v 1.376671 0.149869 -0.000000
v 1.367320 0.148474 -0.000000
v 1.358032 0.147622 -0.000000
v 1.349054 0.147197 -0.000000
v 1.340630 0.147081 -0.000000
v 1.333156 0.147142 -0.000000
v 1.325710 0.147309 -0.000000
v 1.318285 0.147561 -0.000000
v 1.310875 0.147878 -0.000000
v 1.303476 0.148237 -0.000000
v 1.296083 0.148618 -0.000000
v 1.288690 0.148998 -0.000000
v 1.281291 0.149357 -0.000000
v 1.273882 0.149674 -0.000000
v 1.266456 0.149926 -0.000000
v 1.259009 0.150093 -0.000000
v 1.251536 0.150154 -0.000000
v 1.242866 0.150129 -0.000000
v 1.231844 0.149954 -0.000000
v 1.219062 0.149482 -0.000000
v 1.205112 0.148561 -0.000000
v 1.190586 0.147042 -0.000000
v 1.176075 0.144777 -0.000000
v 1.162173 0.141616 -0.000000
v 1.149471 0.137410 -0.000000
v 1.138561 0.132008 -0.000000
v 1.130035 0.125263 -0.000000
v 1.124486 0.117024 -0.000000
v 1.122504 0.107143 -0.000000
v 1.127129 0.090605 -0.000000
v 1.140048 0.070013 -0.000000
v 1.159826 0.046275 -0.000000
v 1.185029 0.020296 -0.000000
v 1.214221 -0.007016 0.000000
v 1.245968 -0.034754 0.000000
v 1.278835 -0.062013 0.000000
v 1.311387 -0.087885 0.000000
v 1.342190 -0.111463 0.000000
v 1.369809 -0.131841 0.000000
v 1.392808 -0.148113 0.000000
v 1.409754 -0.159370 0.000000
v 1.409754 -0.158602 0.000000
v 1.413822 -0.161127 0.000000
v 1.418935 -0.164402 0.000000
v 1.424827 -0.168311 0.000000
v 1.431231 -0.172740 0.000000
v 1.437880 -0.177574 0.000000
v 1.444508 -0.182700 0.000000
v 1.450848 -0.188001 0.000000
v 1.456633 -0.193364 0.000000
v 1.461597 -0.198673 0.000000
v 1.465473 -0.203814 0.000000
v 1.467994 -0.208672 0.000000
v 1.468894 -0.213134 0.000000
v 1.467865 -0.220806 0.000000
v 1.464947 -0.229071 0.000000
v 1.460397 -0.237687 0.000000
v 1.454472 -0.246416 0.000000
v 1.447426 -0.255016 0.000000
v 1.439516 -0.263249 0.000000
v 1.430998 -0.270873 0.000000
v 1.422129 -0.277650 0.000000
v 1.413163 -0.283338 0.000000
v 1.404357 -0.287698 0.000000
v 1.395967 -0.290491 0.000000
v 1.388249 -0.291475 0.000000
v 1.369519 -0.289042 0.000000
v 1.348947 -0.282315 0.000000
v 1.326961 -0.272153 0.000000
v 1.303991 -0.259416 0.000000
v 1.280466 -0.244961 0.000000
v 1.256816 -0.229647 0.000000
v 1.233470 -0.214333 0.000000
v 1.210858 -0.199878 0.000000
v 1.189408 -0.187140 0.000000
v 1.169550 -0.176978 0.000000
v 1.151714 -0.170252 0.000000
v 1.136329 -0.167819 0.000000
v 1.120074 -0.170222 0.000000
v 1.103644 -0.176865 0.000000
v 1.087150 -0.186900 0.000000
v 1.070703 -0.199479 0.000000
v 1.054417 -0.213755 0.000000
v 1.038403 -0.228879 0.000000
v 1.022772 -0.244002 0.000000
v 1.007638 -0.258278 0.000000
v 0.993112 -0.270857 0.000000
v 0.979305 -0.280893 0.000000
v 0.966331 -0.287536 0.000000
v 0.954301 -0.289939 0.000000
v 0.946795 -0.288759 0.000000
v 0.937969 -0.285430 0.000000
v 0.928199 -0.280266 0.000000
v 0.917861 -0.273582 0.000000
v 0.907331 -0.265693 0.000000
v 0.896985 -0.256912 0.000000
v 0.887199 -0.247556 0.000000
v 0.878350 -0.237939 0.000000
v 0.870812 -0.228375 0.000000
v 0.864962 -0.219178 0.000000
v 0.861176 -0.210665 0.000000
v 0.859831 -0.203149 0.000000
v 0.862597 -0.191149 0.000000
v 0.870242 -0.178579 0.000000
v 0.881793 -0.165443 0.000000
v 0.896271 -0.151747 0.000000
v 0.912701 -0.137496 0.000000
v 0.930108 -0.122696 0.000000
v 0.947514 -0.107352 0.000000
v 0.963944 -0.091469 0.000000
v 0.978423 -0.075053 0.000000
v 0.989973 -0.058109 0.000000
v 0.997619 -0.040642 0.000000
v 1.000384 -0.022657 0.000000
v 0.998495 -0.010895 0.000000
v 0.993273 0.001742 -0.000000
v 0.985383 0.015265 -0.000000
v 0.975494 0.029684 -0.000000
v 0.964271 0.045009 -0.000000
v 0.952381 0.061252 -0.000000
v 0.940491 0.078423 -0.000000
v 0.929268 0.096532 -0.000000
v 0.919379 0.115591 -0.000000
v 0.911489 0.135610 -0.000000
v 0.906267 0.156600 -0.000000
v 0.904378 0.178571 -0.000000
v 0.904504 0.183526 -0.000000
v 0.904876 0.189086 -0.000000
v 0.905482 0.195120 -0.000000
v 0.906312 0.201499 -0.000000
v 0.907356 0.208091 -0.000000
v 0.908602 0.214766 -0.000000
v 0.910040 0.221392 -0.000000
v 0.911660 0.227840 -0.000000
v 0.913450 0.233979 -0.000000
v 0.915401 0.239678 -0.000000
v 0.917500 0.244805 -0.000000
v 0.919739 0.249232 -0.000000
v 0.927271 0.257556 -0.000000
v 0.938652 0.264554 -0.000000
v 0.953185 0.270341 -0.000000
v 0.970174 0.275033 -0.000000
v 0.988923 0.278743 -0.000000
v 1.008737 0.281586 -0.000000
v 1.028918 0.283677 -0.000000
v 1.048771 0.285131 -0.000000
v 1.067600 0.286062 -0.000000
v 1.084709 0.286585 -0.000000
v 1.099402 0.286815 -0.000000
v 1.110983 0.286866 -0.000000
vn -0.0000 -0.0000 -1.0000
vt 0.149701 0.000000
vt 0.137725 0.000000
vt 0.143713 0.000000
vt 0.155689 0.000000
vt 0.161677 0.000000
vt 0.167665 0.000000
vt 0.131737 0.000000
vt 0.173653 0.000000
vt 0.179641 0.000000
vt 0.125749 0.000000
vt 0.185629 0.000000
vt 0.191617 0.000000
vt 0.119760 0.000000
vt 0.197605 0.000000
vt 0.113772 0.000000
vt 0.203593 0.000000
vt 0.209581 0.000000
vt 0.107784 0.000000
vt 0.215569 0.000000
vt 0.101796 0.000000
vt 0.221557 0.000000
vt 0.095808 0.000000
vt 0.089820 0.000000
vt 0.227545 0.000000
vt 0.083832 0.000000
vt 0.077844 0.000000
vt 0.071856 0.000000
vt 0.233533 0.000000
vt 0.065868 0.000000
vt 0.059880 0.000000
vt 0.053892 0.000000
vt 0.047904 0.000000
vt 0.239521 0.000000
vt 0.041916 0.000000
vt 0.035928 0.000000
vt 0.029940 0.000000
vt 0.023952 0.000000
vt 0.017964 0.000000
vt 0.245509 0.000000
vt 0.011976 0.000000
vt 0.005988 0.000000
vt 0.000000 0.000000
vt 1.000000 0.000000
vt 0.251497 0.000000
vt 0.994012 0.000000
vt 0.988024 0.000000
vt 0.257485 0.000000
vt 0.982036 0.000000
vt 0.976048 0.000000
vt 0.970060 0.000000
vt 0.263473 0.000000
vt 0.964072 0.000000
vt 0.958084 0.000000
vt 0.952096 0.000000
vt 0.946108 0.000000
vt 0.940120 0.000000
vt 0.934132 0.000000
vt 0.269461 0.000000
vt 0.928144 0.000000
vt 0.922156 0.000000
vt 0.916168 0.000000
vt 0.910180 0.000000
vt 0.904192 0.000000
vt 0.898204 0.000000
vt 0.892216 0.000000
vt 0.275449 0.000000
vt 0.886228 0.000000
vt 0.880240 0.000000
vt 0.874251 0.000000
vt 0.868263 0.000000
vt 0.281437 0.000000
vt 0.862275 0.000000
vt 0.856287 0.000000
vt 0.850299 0.000000
vt 0.844311 0.000000
vt 0.287425 0.000000
vt 0.838323 0.000000
vt 0.832335 0.000000
vt 0.826347 0.000000
vt 0.820359 0.000000
vt 0.293413 0.000000
vt 0.814371 0.000000
vt 0.808383 0.000000
vt 0.802395 0.000000
vt 0.796407 0.000000
vt 0.299401 0.000000
vt 0.790419 0.000000
vt 0.784431 0.000000
vt 0.778443 0.000000
vt 0.305389 0.000000
vt 0.646707 0.000000
vt 0.772455 0.000000
vt 0.640719 0.000000
vt 0.652695 0.000000
vt 0.658683 0.000000
vt 0.634731 0.000000
vt 0.664671 0.000000
vt 0.628743 0.000000
vt 0.766467 0.000000
vt 0.670659 0.000000
vt 0.622755 0.000000
vt 0.760479 0.000000
vt 0.676647 0.000000
vt 0.311377 0.000000
vt 0.616766 0.000000
vt 0.682635 0.000000
vt 0.754491 0.000000
vt 0.610778 0.000000
vt 0.688623 0.000000
vt 0.748503 0.000000
vt 0.694611 0.000000
vt 0.742515 0.000000
vt 0.604790 0.000000
vt 0.317365 0.000000
vt 0.700599 0.000000
vt 0.736527 0.000000
vt 0.706587 0.000000
vt 0.598802 0.000000
vt 0.730539 0.000000
vt 0.712575 0.000000
vt 0.724551 0.000000
vt 0.718563 0.000000
vt 0.592814 0.000000
vt 0.323353 0.000000
vt 0.586826 0.000000
vt 0.580838 0.000000
vt 0.574850 0.000000
vt 0.329341 0.000000
vt 0.568862 0.000000
vt 0.562874 0.000000
vt 0.556886 0.000000
vt 0.550898 0.000000
vt 0.335329 0.000000
vt 0.544910 0.000000
vt 0.538922 0.000000
vt 0.532934 0.000000
vt 0.341317 0.000000
vt 0.526946 0.000000
vt 0.520958 0.000000
vt 0.514970 0.000000
vt 0.508982 0.000000
vt 0.347305 0.000000
vt 0.502994 0.000000
vt 0.497006 0.000000
vt 0.353293 0.000000
vt 0.491018 0.000000
vt 0.485030 0.000000
vt 0.479042 0.000000
vt 0.359281 0.000000
vt 0.473054 0.000000
vt 0.467066 0.000000
vt 0.365269 0.000000
vt 0.461078 0.000000
vt 0.371257 0.000000
vt 0.377246 0.000000
vt 0.455090 0.000000
vt 0.383234 0.000000
vt 0.449102 0.000000
vt 0.389222 0.000000
vt 0.395210 0.000000
vt 0.443114 0.000000
vt 0.401198 0.000000
vt 0.437126 0.000000
vt 0.407186 0.000000
vt 0.413174 0.000000
vt 0.431138 0.000000
vt 0.419162 0.000000
vt 0.425150 0.000000
vt 0.134021 0.000000
vt 0.113402 0.000000
vt 0.123711 0.000000
vt 0.886598 0.000000
vt 0.865979 0.000000
vt 0.876289 0.000000
vt 0.103093 0.000000
vt 0.896907 0.000000
vt 0.855670 0.000000
vt 0.092784 0.000000
vt 0.907216 0.000000
vt 0.144330 0.000000
vt 0.082474 0.000000
vt 0.917526 0.000000
vt 0.845361 0.000000
vt 0.072165 0.000000
vt 0.927835 0.000000
vt 0.061856 0.000000
vt 0.938144 0.000000
vt 0.051546 0.000000
vt 0.948454 0.000000
vt 0.835052 0.000000
vt 0.041237 0.000000
vt 0.958763 0.000000
vt 0.154639 0.000000
vt 0.030928 0.000000
vt 0.969072 0.000000
vt 0.020619 0.000000
vt 0.979381 0.000000
vt 0.010309 0.000000
vt 0.989691 0.000000
vt 0.824742 0.000000
vt 0.814433 0.000000
vt 0.164948 0.000000
vt 0.804124 0.000000
vt 0.793814 0.000000
vt 0.783505 0.000000
vt 0.175258 0.000000
vt 0.773196 0.000000
vt 0.762887 0.000000
vt 0.752577 0.000000
vt 0.185567 0.000000
vt 0.742268 0.000000
vt 0.731959 0.000000
vt 0.195876 0.000000
vt 0.721649 0.000000
vt 0.711340 0.000000
vt 0.206186 0.000000
vt 0.701031 0.000000
vt 0.690722 0.000000
vt 0.216495 0.000000
vt 0.680412 0.000000
vt 0.670103 0.000000
vt 0.226804 0.000000
vt 0.659794 0.000000
vt 0.237113 0.000000
vt 0.649485 0.000000
vt 0.639175 0.000000
vt 0.247423 0.000000
vt 0.628866 0.000000
vt 0.257732 0.000000
vt 0.618557 0.000000
vt 0.608247 0.000000
vt 0.268041 0.000000
vt 0.597938 0.000000
vt 0.278351 0.000000
vt 0.587629 0.000000
vt 0.288660 0.000000
vt 0.577320 0.000000
vt 0.298969 0.000000
vt 0.567010 0.000000
vt 0.309278 0.000000
vt 0.556701 0.000000
vt 0.319588 0.000000
vt 0.546392 0.000000
vt 0.329897 0.000000
vt 0.536082 0.000000
vt 0.340206 0.000000
vt 0.350515 0.000000
vt 0.371134 0.000000
vt 0.381443 0.000000
vt 0.360825 0.000000
vt 0.391753 0.000000
vt 0.402062 0.000000
vt 0.412371 0.000000
vt 0.525773 0.000000
vt 0.422680 0.000000
vt 0.432990 0.000000
vt 0.443299 0.000000
vt 0.453608 0.000000
vt 0.463918 0.000000
vt 0.515464 0.000000
vt 0.474227 0.000000
vt 0.484536 0.000000
vt 0.494845 0.000000
vt 0.505155 0.000000
vt 0.501887 0.000000
vt 0.494340 0.000000
vt 0.498113 0.000000
vt 0.509434 0.000000
vt 0.505660 0.000000
vt 0.513208 0.000000
vt 0.516981 0.000000
vt 0.490566 0.000000
vt 0.520755 0.000000
vt 0.486792 0.000000
vt 0.524528 0.000000
vt 0.528302 0.000000
vt 0.483019 0.000000
vt 0.532075 0.000000
vt 0.535849 0.000000
vt 0.479245 0.000000
vt 0.539623 0.000000
vt 0.475472 0.000000
vt 0.543396 0.000000
vt 0.547170 0.000000
vt 0.471698 0.000000
vt 0.550943 0.000000
vt 0.467925 0.000000
vt 0.554717 0.000000
vt 0.558491 0.000000
vt 0.464151 0.000000
vt 0.562264 0.000000
vt 0.566038 0.000000
vt 0.460377 0.000000
vt 0.569811 0.000000
vt 0.573585 0.000000
vt 0.456604 0.000000
vt 0.577358 0.000000
vt 0.581132 0.000000
vt 0.452830 0.000000
vt 0.584906 0.000000
vt 0.449057 0.000000
vt 0.445283 0.000000
vt 0.588679 0.000000
vt 0.441509 0.000000
vt 0.437736 0.000000
vt 0.433962 0.000000
vt 0.430189 0.000000
vt 0.426415 0.000000
vt 0.592453 0.000000
vt 0.422642 0.000000
vt 0.418868 0.000000
vt 0.415094 0.000000
vt 0.411321 0.000000
vt 0.596226 0.000000
vt 0.407547 0.000000
vt 0.403774 0.000000
vt 0.400000 0.000000
vt 0.396226 0.000000
vt 0.392453 0.000000
vt 0.388679 0.000000
vt 0.600000 0.000000
vt 0.384906 0.000000
vt 0.381132 0.000000
vt 0.603774 0.000000
vt 0.377358 0.000000
vt 0.373585 0.000000
vt 0.607547 0.000000
vt 0.369811 0.000000
vt 0.366038 0.000000
vt 0.611321 0.000000
vt 0.362264 0.000000
vt 0.358491 0.000000
vt 0.615094 0.000000
vt 0.618868 0.000000
vt 0.622642 0.000000
vt 0.841509 0.000000
vt 0.845283 0.000000
vt 0.905660 0.000000
vt 0.909434 0.000000
vt 0.913208 0.000000
vt 0.901887 0.000000
vt 0.898113 0.000000
vt 0.916981 0.000000
vt 0.894340 0.000000
vt 0.890566 0.000000
vt 0.849057 0.000000
vt 0.886792 0.000000
vt 0.920755 0.000000
vt 0.883019 0.000000
vt 0.879245 0.000000
vt 0.852830 0.000000
vt 0.856604 0.000000
vt 0.875472 0.000000
vt 0.860377 0.000000
vt 0.871698 0.000000
vt 0.837736 0.000000
vt 0.867925 0.000000
vt 0.864151 0.000000
vt 0.924528 0.000000
vt 0.833962 0.000000
vt 0.830189 0.000000
vt 0.928302 0.000000
vt 0.354717 0.000000
vt 0.826415 0.000000
vt 0.932076 0.000000
vt 0.822641 0.000000
vt 0.818868 0.000000
vt 0.935849 0.000000
vt 0.815094 0.000000
vt 0.939623 0.000000
vt 0.943396 0.000000
vt 0.626415 0.000000
vt 0.811321 0.000000
vt 0.947170 0.000000
vt 0.950943 0.000000
vt 0.954717 0.000000
vt 0.807547 0.000000
vt 0.630189 0.000000
vt 0.958491 0.000000
vt 0.962264 0.000000
vt 0.966038 0.000000
vt 0.969811 0.000000
vt 0.633962 0.000000
vt 0.803774 0.000000
vt 0.973585 0.000000
vt 0.350943 0.000000
vt 0.977359 0.000000
vt 0.981132 0.000000
vt 0.094340 0.000000
vt 0.086792 0.000000
vt 0.090566 0.000000
vt 0.083019 0.000000
vt 0.098113 0.000000
vt 0.984906 0.000000
vt 0.079245 0.000000
vt 0.988679 0.000000
vt 0.101887 0.000000
vt 0.637736 0.000000
vt 0.992453 0.000000
vt 0.075472 0.000000
vt 0.800000 0.000000
vt 0.996226 0.000000
vt 0.105660 0.000000
vt 0.071698 0.000000
vt 0.003774 0.000000
vt 0.109434 0.000000
vt 0.067925 0.000000
vt 0.641509 0.000000
vt 0.007547 0.000000
vt 0.645283 0.000000
vt 0.649057 0.000000
vt 0.652830 0.000000
vt 0.064151 0.000000
vt 0.011321 0.000000
vt 0.656604 0.000000
vt 0.113208 0.000000
vt 0.660377 0.000000
vt 0.015094 0.000000
vt 0.796226 0.000000
vt 0.664151 0.000000
vt 0.667925 0.000000
vt 0.060377 0.000000
vt 0.671698 0.000000
vt 0.018868 0.000000
vt 0.675472 0.000000
vt 0.347170 0.000000
vt 0.679245 0.000000
vt 0.116981 0.000000
vt 0.022642 0.000000
vt 0.683019 0.000000
vt 0.056604 0.000000
vt 0.686792 0.000000
vt 0.690566 0.000000
vt 0.026415 0.000000
vt 0.694340 0.000000
vt 0.698113 0.000000
vt 0.052830 0.000000
vt 0.030189 0.000000
vt 0.701887 0.000000
vt 0.033962 0.000000
vt 0.705660 0.000000
vt 0.120755 0.000000
vt 0.049057 0.000000
vt 0.709434 0.000000
vt 0.037736 0.000000
vt 0.713208 0.000000
vt 0.041509 0.000000
vt 0.792453 0.000000
vt 0.045283 0.000000
vt 0.716981 0.000000
vt 0.720755 0.000000
vt 0.724528 0.000000
vt 0.728302 0.000000
vt 0.732075 0.000000
vt 0.124528 0.000000
vt 0.735849 0.000000
vt 0.128302 0.000000
vt 0.788679 0.000000
vt 0.739623 0.000000
vt 0.343396 0.000000
vt 0.132075 0.000000
vt 0.743396 0.000000
vt 0.135849 0.000000
vt 0.747170 0.000000
vt 0.784906 0.000000
vt 0.139623 0.000000
vt 0.750943 0.000000
vt 0.754717 0.000000
vt 0.143396 0.000000
vt 0.781132 0.000000
vt 0.758491 0.000000
vt 0.339623 0.000000
vt 0.147170 0.000000
vt 0.762264 0.000000
vt 0.777358 0.000000
vt 0.150943 0.000000
vt 0.766038 0.000000
vt 0.769811 0.000000
vt 0.773585 0.000000
vt 0.154717 0.000000
vt 0.158491 0.000000
vt 0.162264 0.000000
vt 0.166038 0.000000
vt 0.335849 0.000000
vt 0.169811 0.000000
vt 0.173585 0.000000
vt 0.177358 0.000000
vt 0.181132 0.000000
vt 0.184906 0.000000
vt 0.332075 0.000000
vt 0.188679 0.000000
vt 0.192453 0.000000
vt 0.196226 0.000000
vt 0.328302 0.000000
vt 0.200000 0.000000
vt 0.203774 0.000000
vt 0.207547 0.000000
vt 0.211321 0.000000
vt 0.324528 0.000000
vt 0.215094 0.000000
vt 0.218868 0.000000
vt 0.222642 0.000000
vt 0.226415 0.000000
vt 0.320755 0.000000
vt 0.230189 0.000000
vt 0.233962 0.000000
vt 0.316981 0.000000
vt 0.237736 0.000000
vt 0.241509 0.000000
vt 0.313208 0.000000
vt 0.309434 0.000000
vt 0.245283 0.000000
vt 0.305660 0.000000
vt 0.249057 0.000000
vt 0.301887 0.000000
vt 0.298113 0.000000
vt 0.252830 0.000000
vt 0.294340 0.000000
vt 0.256604 0.000000
vt 0.290566 0.000000
vt 0.260377 0.000000
vt 0.286792 0.000000
vt 0.283019 0.000000
vt 0.264151 0.000000
vt 0.279245 0.000000
vt 0.267925 0.000000
vt 0.275472 0.000000
vt 0.271698 0.000000
vt 0.005525 0.000000
vt 0.994475 0.000000
vt 0.988950 0.000000
vt 0.011050 0.000000
vt 0.983425 0.000000
vt 0.016575 0.000000
vt 0.977901 0.000000
vt 0.022099 0.000000
vt 0.972376 0.000000
vt 0.027624 0.000000
vt 0.966851 0.000000
vt 0.033149 0.000000
vt 0.038674 0.000000
vt 0.961326 0.000000
vt 0.044199 0.000000
vt 0.955801 0.000000
vt 0.049724 0.000000
vt 0.950276 0.000000
vt 0.055249 0.000000
vt 0.060773 0.000000
vt 0.944751 0.000000
vt 0.066298 0.000000
vt 0.939227 0.000000
vt 0.071823 0.000000
vt 0.933702 0.000000
vt 0.077348 0.000000
vt 0.082873 0.000000
vt 0.928177 0.000000
vt 0.088398 0.000000
vt 0.922652 0.000000
vt 0.093923 0.000000
vt 0.917127 0.000000
vt 0.099448 0.000000
vt 0.911602 0.000000
vt 0.104972 0.000000
vt 0.906077 0.000000
vt 0.110497 0.000000
vt 0.900553 0.000000
vt 0.116022 0.000000
vt 0.895028 0.000000
vt 0.121547 0.000000
vt 0.889503 0.000000
vt 0.127072 0.000000
vt 0.883978 0.000000
vt 0.132597 0.000000
vt 0.878453 0.000000
vt 0.138122 0.000000
vt 0.872928 0.000000
vt 0.143646 0.000000
vt 0.867403 0.000000
vt 0.861878 0.000000
vt 0.149171 0.000000
vt 0.154696 0.000000
vt 0.160221 0.000000
vt 0.165746 0.000000
vt 0.276243 0.000000
vt 0.281768 0.000000
vt 0.856354 0.000000
vt 0.171271 0.000000
vt 0.270718 0.000000
vt 0.176796 0.000000
vt 0.265193 0.000000
vt 0.259668 0.000000
vt 0.254144 0.000000
vt 0.248619 0.000000
vt 0.182320 0.000000
vt 0.243094 0.000000
vt 0.287293 0.000000
vt 0.237569 0.000000
vt 0.232044 0.000000
vt 0.226519 0.000000
vt 0.292818 0.000000
vt 0.187845 0.000000
vt 0.220994 0.000000
vt 0.215470 0.000000
vt 0.193370 0.000000
vt 0.209945 0.000000
vt 0.204420 0.000000
vt 0.198895 0.000000
vt 0.298343 0.000000
vt 0.303867 0.000000
vt 0.309392 0.000000
vt 0.314917 0.000000
vt 0.850829 0.000000
vt 0.320442 0.000000
vt 0.325967 0.000000
vt 0.331492 0.000000
vt 0.845304 0.000000
vt 0.337017 0.000000
vt 0.839779 0.000000
vt 0.342541 0.000000
vt 0.834254 0.000000
vt 0.348066 0.000000
vt 0.828729 0.000000
vt 0.353591 0.000000
vt 0.823204 0.000000
vt 0.817680 0.000000
vt 0.359116 0.000000
vt 0.812155 0.000000
vt 0.806630 0.000000
vt 0.364641 0.000000
vt 0.801105 0.000000
vt 0.795580 0.000000
vt 0.370166 0.000000
vt 0.790055 0.000000
vt 0.784530 0.000000
vt 0.375691 0.000000
vt 0.779006 0.000000
vt 0.381215 0.000000
vt 0.773481 0.000000
vt 0.767956 0.000000
vt 0.386740 0.000000
vt 0.762431 0.000000
vt 0.392265 0.000000
vt 0.756906 0.000000
vt 0.397790 0.000000
vt 0.751381 0.000000
vt 0.408840 0.000000
vt 0.403315 0.000000
vt 0.414365 0.000000
vt 0.419890 0.000000
vt 0.602210 0.000000
vt 0.745856 0.000000
vt 0.596685 0.000000
vt 0.607735 0.000000
vt 0.425414 0.000000
vt 0.613260 0.000000
vt 0.591160 0.000000
vt 0.430939 0.000000
vt 0.618785 0.000000
vt 0.585635 0.000000
vt 0.436464 0.000000
vt 0.740331 0.000000
vt 0.441989 0.000000
vt 0.624309 0.000000
vt 0.580110 0.000000
vt 0.447514 0.000000
vt 0.734807 0.000000
vt 0.453039 0.000000
vt 0.458564 0.000000
vt 0.629834 0.000000
vt 0.574586 0.000000
vt 0.729282 0.000000
vt 0.464088 0.000000
vt 0.469613 0.000000
vt 0.723757 0.000000
vt 0.475138 0.000000
vt 0.635359 0.000000
vt 0.569061 0.000000
vt 0.718232 0.000000
vt 0.480663 0.000000
vt 0.712707 0.000000
vt 0.640884 0.000000
vt 0.486188 0.000000
vt 0.563536 0.000000
vt 0.491713 0.000000
vt 0.707182 0.000000
vt 0.646409 0.000000
vt 0.558011 0.000000
vt 0.497238 0.000000
vt 0.701657 0.000000
vt 0.502762 0.000000
vt 0.696133 0.000000
vt 0.651934 0.000000
vt 0.552486 0.000000
vt 0.508287 0.000000
vt 0.690608 0.000000
vt 0.657459 0.000000
vt 0.513812 0.000000
vt 0.546961 0.000000
vt 0.685083 0.000000
vt 0.519337 0.000000
vt 0.679558 0.000000
vt 0.662983 0.000000
vt 0.541436 0.000000
vt 0.524862 0.000000
vt 0.674033 0.000000
vt 0.668508 0.000000
vt 0.530387 0.000000
vt 0.535912 0.000000
s 0
usemtl マテリアル.001
f 26/1/1 24/2/1 25/3/1
f 27/4/1 24/2/1 26/1/1
f 28/5/1 24/2/1 27/4/1
f 29/6/1 24/2/1 28/5/1
f 29/6/1 23/7/1 24/2/1
f 30/8/1 23/7/1 29/6/1
f 31/9/1 23/7/1 30/8/1
f 31/9/1 22/10/1 23/7/1
f 32/11/1 22/10/1 31/9/1
f 33/12/1 22/10/1 32/11/1
f 33/12/1 21/13/1 22/10/1
f 34/14/1 21/13/1 33/12/1
f 34/14/1 20/15/1 21/13/1
f 35/16/1 20/15/1 34/14/1
f 36/17/1 20/15/1 35/16/1
f 36/17/1 19/18/1 20/15/1
f 37/19/1 19/18/1 36/17/1
f 37/19/1 18/20/1 19/18/1
f 38/21/1 18/20/1 37/19/1
f 38/21/1 17/22/1 18/20/1
f 38/21/1 16/23/1 17/22/1
f 39/24/1 16/23/1 38/21/1
f 39/24/1 15/25/1 16/23/1
f 39/24/1 14/26/1 15/25/1
f 39/24/1 13/27/1 14/26/1
f 40/28/1 13/27/1 39/24/1
f 40/28/1 12/29/1 13/27/1
f 40/28/1 11/30/1 12/29/1
f 40/28/1 10/31/1 11/30/1
f 40/28/1 9/32/1 10/31/1
f 41/33/1 9/32/1 40/28/1
f 41/33/1 8/34/1 9/32/1
f 41/33/1 7/35/1 8/34/1
f 41/33/1 6/36/1 7/35/1
f 41/33/1 5/37/1 6/36/1
f 41/33/1 4/38/1 5/37/1
f 42/39/1 4/38/1 41/33/1
f 42/39/1 3/40/1 4/38/1
f 42/39/1 2/41/1 3/40/1
f 42/39/1 1/42/1 2/41/1
f 42/39/1 168/43/1 1/42/1
f 43/44/1 168/43/1 42/39/1
f 43/44/1 167/45/1 168/43/1
f 43/44/1 166/46/1 167/45/1
f 44/47/1 166/46/1 43/44/1
f 44/47/1 165/48/1 166/46/1
f 44/47/1 164/49/1 165/48/1
f 44/47/1 163/50/1 164/49/1
f 45/51/1 163/50/1 44/47/1
f 45/51/1 162/52/1 163/50/1
f 45/51/1 161/53/1 162/52/1
f 45/51/1 160/54/1 161/53/1
f 45/51/1 159/55/1 160/54/1
f 45/51/1 158/56/1 159/55/1
f 45/51/1 157/57/1 158/56/1
f 46/58/1 157/57/1 45/51/1
f 46/58/1 156/59/1 157/57/1
f 46/58/1 155/60/1 156/59/1
f 46/58/1 154/61/1 155/60/1
f 46/58/1 153/62/1 154/61/1
f 46/58/1 152/63/1 153/62/1
f 46/58/1 151/64/1 152/63/1
f 46/58/1 150/65/1 151/64/1
f 47/66/1 150/65/1 46/58/1
f 47/66/1 149/67/1 150/65/1
f 47/66/1 148/68/1 149/67/1
f 47/66/1 147/69/1 148/68/1
f 47/66/1 146/70/1 147/69/1
f 48/71/1 146/70/1 47/66/1
f 48/71/1 145/72/1 146/70/1
f 48/71/1 144/73/1 145/72/1
f 48/71/1 143/74/1 144/73/1
f 48/71/1 142/75/1 143/74/1
f 49/76/1 142/75/1 48/71/1
f 49/76/1 141/77/1 142/75/1
f 49/76/1 140/78/1 141/77/1
f 49/76/1 139/79/1 140/78/1
f 49/76/1 138/80/1 139/79/1
f 50/81/1 138/80/1 49/76/1
f 50/81/1 137/82/1 138/80/1
f 50/81/1 136/83/1 137/82/1
f 50/81/1 135/84/1 136/83/1
f 50/81/1 134/85/1 135/84/1
f 51/86/1 134/85/1 50/81/1
f 51/86/1 133/87/1 134/85/1
f 51/86/1 132/88/1 133/87/1
f 51/86/1 131/89/1 132/88/1
f 52/90/1 109/91/1 51/86/1
f 109/91/1 131/89/1 51/86/1
f 109/91/1 130/92/1 131/89/1
f 52/90/1 108/93/1 109/91/1
f 110/94/1 130/92/1 109/91/1
f 111/95/1 130/92/1 110/94/1
f 52/90/1 107/96/1 108/93/1
f 112/97/1 130/92/1 111/95/1
f 52/90/1 106/98/1 107/96/1
f 112/97/1 129/99/1 130/92/1
f 113/100/1 129/99/1 112/97/1
f 52/90/1 105/101/1 106/98/1
f 113/100/1 128/102/1 129/99/1
f 114/103/1 128/102/1 113/100/1
f 53/104/1 105/101/1 52/90/1
f 53/104/1 104/105/1 105/101/1
f 115/106/1 128/102/1 114/103/1
f 115/106/1 127/107/1 128/102/1
f 53/104/1 103/108/1 104/105/1
f 116/109/1 127/107/1 115/106/1
f 116/109/1 126/110/1 127/107/1
f 117/111/1 126/110/1 116/109/1
f 117/111/1 125/112/1 126/110/1
f 53/104/1 102/113/1 103/108/1
f 54/114/1 102/113/1 53/104/1
f 118/115/1 125/112/1 117/111/1
f 118/115/1 124/116/1 125/112/1
f 119/117/1 124/116/1 118/115/1
f 54/114/1 101/118/1 102/113/1
f 119/117/1 123/119/1 124/116/1
f 120/120/1 123/119/1 119/117/1
f 120/120/1 122/121/1 123/119/1
f 120/120/1 121/122/1 122/121/1
f 54/114/1 100/123/1 101/118/1
f 55/124/1 100/123/1 54/114/1
f 55/124/1 99/125/1 100/123/1
f 55/124/1 98/126/1 99/125/1
f 55/124/1 97/127/1 98/126/1
f 56/128/1 97/127/1 55/124/1
f 56/128/1 96/129/1 97/127/1
f 56/128/1 95/130/1 96/129/1
f 56/128/1 94/131/1 95/130/1
f 56/128/1 93/132/1 94/131/1
f 57/133/1 93/132/1 56/128/1
f 57/133/1 92/134/1 93/132/1
f 57/133/1 91/135/1 92/134/1
f 57/133/1 90/136/1 91/135/1
f 58/137/1 90/136/1 57/133/1
f 58/137/1 89/138/1 90/136/1
f 58/137/1 88/139/1 89/138/1
f 58/137/1 87/140/1 88/139/1
f 58/137/1 86/141/1 87/140/1
f 59/142/1 86/141/1 58/137/1
f 59/142/1 85/143/1 86/141/1
f 59/142/1 84/144/1 85/143/1
f 60/145/1 84/144/1 59/142/1
f 60/145/1 83/146/1 84/144/1
f 60/145/1 82/147/1 83/146/1
f 60/145/1 81/148/1 82/147/1
f 61/149/1 81/148/1 60/145/1
f 61/149/1 80/150/1 81/148/1
f 61/149/1 79/151/1 80/150/1
f 62/152/1 79/151/1 61/149/1
f 62/152/1 78/153/1 79/151/1
f 63/154/1 78/153/1 62/152/1
f 64/155/1 78/153/1 63/154/1
f 64/155/1 77/156/1 78/153/1
f 65/157/1 77/156/1 64/155/1
f 65/157/1 76/158/1 77/156/1
f 66/159/1 76/158/1 65/157/1
f 67/160/1 76/158/1 66/159/1
f 67/160/1 75/161/1 76/158/1
f 68/162/1 75/161/1 67/160/1
f 68/162/1 74/163/1 75/161/1
f 69/164/1 74/163/1 68/162/1
f 70/165/1 74/163/1 69/164/1
f 70/165/1 73/166/1 74/163/1
f 71/167/1 73/166/1 70/165/1
f 72/168/1 73/166/1 71/167/1
f 182/169/1 180/170/1 181/171/1
f 255/172/1 253/173/1 254/174/1
f 182/169/1 179/175/1 180/170/1
f 256/176/1 253/173/1 255/172/1
f 256/176/1 252/177/1 253/173/1
f 182/169/1 178/178/1 179/175/1
f 257/179/1 252/177/1 256/176/1
f 183/180/1 178/178/1 182/169/1
f 183/180/1 177/181/1 178/178/1
f 258/182/1 252/177/1 257/179/1
f 258/182/1 251/183/1 252/177/1
f 183/180/1 176/184/1 177/181/1
f 259/185/1 251/183/1 258/182/1
f 183/180/1 175/186/1 176/184/1
f 260/187/1 251/183/1 259/185/1
f 183/180/1 174/188/1 175/186/1
f 261/189/1 251/183/1 260/187/1
f 261/189/1 250/190/1 251/183/1
f 183/180/1 173/191/1 174/188/1
f 262/192/1 250/190/1 261/189/1
f 184/193/1 173/191/1 183/180/1
f 184/193/1 172/194/1 173/191/1
f 263/195/1 250/190/1 262/192/1
f 184/193/1 171/196/1 172/194/1
f 264/197/1 250/190/1 263/195/1
f 184/193/1 170/198/1 171/196/1
f 265/199/1 250/190/1 264/197/1
f 184/193/1 169/42/1 170/198/1
f 266/43/1 250/190/1 265/199/1
f 184/193/1 266/43/1 169/42/1
f 184/193/1 250/190/1 266/43/1
f 184/193/1 249/200/1 250/190/1
f 184/193/1 248/201/1 249/200/1
f 185/202/1 248/201/1 184/193/1
f 185/202/1 247/203/1 248/201/1
f 185/202/1 246/204/1 247/203/1
f 185/202/1 245/205/1 246/204/1
f 186/206/1 245/205/1 185/202/1
f 186/206/1 244/207/1 245/205/1
f 186/206/1 243/208/1 244/207/1
f 186/206/1 242/209/1 243/208/1
f 187/210/1 242/209/1 186/206/1
f 187/210/1 241/211/1 242/209/1
f 187/210/1 240/212/1 241/211/1
f 188/213/1 240/212/1 187/210/1
f 188/213/1 239/214/1 240/212/1
f 188/213/1 238/215/1 239/214/1
f 189/216/1 238/215/1 188/213/1
f 189/216/1 237/217/1 238/215/1
f 189/216/1 236/218/1 237/217/1
f 190/219/1 236/218/1 189/216/1
f 190/219/1 235/220/1 236/218/1
f 190/219/1 234/221/1 235/220/1
f 191/222/1 234/221/1 190/219/1
f 191/222/1 233/223/1 234/221/1
f 192/224/1 233/223/1 191/222/1
f 192/224/1 232/225/1 233/223/1
f 192/224/1 231/226/1 232/225/1
f 193/227/1 231/226/1 192/224/1
f 193/227/1 230/228/1 231/226/1
f 194/229/1 230/228/1 193/227/1
f 194/229/1 229/230/1 230/228/1
f 194/229/1 228/231/1 229/230/1
f 195/232/1 228/231/1 194/229/1
f 195/232/1 227/233/1 228/231/1
f 196/234/1 227/233/1 195/232/1
f 196/234/1 226/235/1 227/233/1
f 197/236/1 226/235/1 196/234/1
f 197/236/1 225/237/1 226/235/1
f 198/238/1 225/237/1 197/236/1
f 198/238/1 224/239/1 225/237/1
f 199/240/1 224/239/1 198/238/1
f 199/240/1 223/241/1 224/239/1
f 200/242/1 223/241/1 199/240/1
f 200/242/1 222/243/1 223/241/1
f 201/244/1 222/243/1 200/242/1
f 201/244/1 221/245/1 222/243/1
f 202/246/1 221/245/1 201/244/1
f 203/247/1 205/248/1 202/246/1
f 205/248/1 206/249/1 202/246/1
f 206/249/1 221/245/1 202/246/1
f 203/247/1 204/250/1 205/248/1
f 207/251/1 221/245/1 206/249/1
f 208/252/1 221/245/1 207/251/1
f 209/253/1 221/245/1 208/252/1
f 209/253/1 220/254/1 221/245/1
f 210/255/1 220/254/1 209/253/1
f 211/256/1 220/254/1 210/255/1
f 212/257/1 220/254/1 211/256/1
f 213/258/1 220/254/1 212/257/1
f 214/259/1 220/254/1 213/258/1
f 214/259/1 219/260/1 220/254/1
f 215/261/1 219/260/1 214/259/1
f 216/262/1 219/260/1 215/261/1
f 217/263/1 219/260/1 216/262/1
f 217/263/1 218/264/1 219/260/1
f 400/265/1 398/266/1 399/267/1
f 402/268/1 400/265/1 401/269/1
f 403/270/1 400/265/1 402/268/1
f 403/270/1 398/266/1 400/265/1
f 404/271/1 398/266/1 403/270/1
f 404/271/1 397/272/1 398/266/1
f 405/273/1 397/272/1 404/271/1
f 405/273/1 396/274/1 397/272/1
f 406/275/1 396/274/1 405/273/1
f 407/276/1 396/274/1 406/275/1
f 407/276/1 395/277/1 396/274/1
f 408/278/1 395/277/1 407/276/1
f 409/279/1 395/277/1 408/278/1
f 409/279/1 394/280/1 395/277/1
f 410/281/1 394/280/1 409/279/1
f 410/281/1 393/282/1 394/280/1
f 411/283/1 393/282/1 410/281/1
f 412/284/1 393/282/1 411/283/1
f 412/284/1 392/285/1 393/282/1
f 413/286/1 392/285/1 412/284/1
f 413/286/1 391/287/1 392/285/1
f 414/288/1 391/287/1 413/286/1
f 415/289/1 391/287/1 414/288/1
f 415/289/1 390/290/1 391/287/1
f 416/291/1 390/290/1 415/289/1
f 417/292/1 390/290/1 416/291/1
f 417/292/1 389/293/1 390/290/1
f 418/294/1 389/293/1 417/292/1
f 419/295/1 389/293/1 418/294/1
f 419/295/1 388/296/1 389/293/1
f 420/297/1 388/296/1 419/295/1
f 421/298/1 388/296/1 420/297/1
f 421/298/1 387/299/1 388/296/1
f 422/300/1 387/299/1 421/298/1
f 422/300/1 386/301/1 387/299/1
f 422/300/1 385/302/1 386/301/1
f 423/303/1 385/302/1 422/300/1
f 423/303/1 384/304/1 385/302/1
f 423/303/1 383/305/1 384/304/1
f 423/303/1 382/306/1 383/305/1
f 423/303/1 381/307/1 382/306/1
f 423/303/1 380/308/1 381/307/1
f 424/309/1 380/308/1 423/303/1
f 424/309/1 379/310/1 380/308/1
f 424/309/1 378/311/1 379/310/1
f 424/309/1 377/312/1 378/311/1
f 424/309/1 376/313/1 377/312/1
f 425/314/1 376/313/1 424/309/1
f 425/314/1 375/315/1 376/313/1
f 425/314/1 374/316/1 375/315/1
f 425/314/1 373/317/1 374/316/1
f 425/314/1 372/318/1 373/317/1
f 425/314/1 371/319/1 372/318/1
f 425/314/1 370/320/1 371/319/1
f 426/321/1 370/320/1 425/314/1
f 426/321/1 369/322/1 370/320/1
f 426/321/1 368/323/1 369/322/1
f 427/324/1 368/323/1 426/321/1
f 427/324/1 367/325/1 368/323/1
f 427/324/1 366/326/1 367/325/1
f 428/327/1 366/326/1 427/324/1
f 428/327/1 365/328/1 366/326/1
f 428/327/1 364/329/1 365/328/1
f 429/330/1 364/329/1 428/327/1
f 429/330/1 363/331/1 364/329/1
f 429/330/1 362/332/1 363/331/1
f 430/333/1 362/332/1 429/330/1
f 431/334/1 362/332/1 430/333/1
f 432/335/1 490/336/1 431/334/1
f 490/336/1 491/337/1 431/334/1
f 491/337/1 507/338/1 431/334/1
f 507/338/1 508/339/1 431/334/1
f 508/339/1 362/332/1 431/334/1
f 509/340/1 362/332/1 508/339/1
f 491/337/1 506/341/1 507/338/1
f 491/337/1 505/342/1 506/341/1
f 510/343/1 362/332/1 509/340/1
f 491/337/1 504/344/1 505/342/1
f 491/337/1 503/345/1 504/344/1
f 491/337/1 492/346/1 503/345/1
f 492/346/1 502/347/1 503/345/1
f 511/348/1 362/332/1 510/343/1
f 492/346/1 501/349/1 502/347/1
f 492/346/1 500/350/1 501/349/1
f 493/351/1 500/350/1 492/346/1
f 494/352/1 500/350/1 493/351/1
f 494/352/1 499/353/1 500/350/1
f 495/354/1 499/353/1 494/352/1
f 495/354/1 498/355/1 499/353/1
f 432/335/1 489/356/1 490/336/1
f 495/354/1 497/357/1 498/355/1
f 496/358/1 497/357/1 495/354/1
f 512/359/1 362/332/1 511/348/1
f 432/335/1 488/360/1 489/356/1
f 432/335/1 487/361/1 488/360/1
f 513/362/1 362/332/1 512/359/1
f 513/362/1 361/363/1 362/332/1
f 432/335/1 486/364/1 487/361/1
f 514/365/1 361/363/1 513/362/1
f 432/335/1 485/366/1 486/364/1
f 432/335/1 484/367/1 485/366/1
f 515/368/1 361/363/1 514/365/1
f 432/335/1 483/369/1 484/367/1
f 516/370/1 361/363/1 515/368/1
f 517/371/1 361/363/1 516/370/1
f 433/372/1 483/369/1 432/335/1
f 433/372/1 482/373/1 483/369/1
f 518/374/1 361/363/1 517/371/1
f 519/375/1 361/363/1 518/374/1
f 520/376/1 361/363/1 519/375/1
f 433/372/1 481/377/1 482/373/1
f 434/378/1 481/377/1 433/372/1
f 521/379/1 361/363/1 520/376/1
f 522/380/1 361/363/1 521/379/1
f 523/381/1 361/363/1 522/380/1
f 524/382/1 361/363/1 523/381/1
f 435/383/1 481/377/1 434/378/1
f 435/383/1 480/384/1 481/377/1
f 525/385/1 361/363/1 524/382/1
f 525/385/1 360/386/1 361/363/1
f 526/387/1 360/386/1 525/385/1
f 527/388/1 360/386/1 526/387/1
f 292/389/1 290/390/1 291/391/1
f 292/389/1 289/392/1 290/390/1
f 293/393/1 289/392/1 292/389/1
f 528/394/1 360/386/1 527/388/1
f 293/393/1 288/395/1 289/392/1
f 529/396/1 360/386/1 528/394/1
f 294/397/1 288/395/1 293/393/1
f 436/398/1 480/384/1 435/383/1
f 530/399/1 360/386/1 529/396/1
f 294/397/1 287/400/1 288/395/1
f 436/398/1 479/401/1 480/384/1
f 531/402/1 360/386/1 530/399/1
f 295/403/1 287/400/1 294/397/1
f 532/43/1 360/386/1 531/402/1
f 295/403/1 286/404/1 287/400/1
f 267/42/1 360/386/1 532/43/1
f 268/405/1 360/386/1 267/42/1
f 296/406/1 286/404/1 295/403/1
f 296/406/1 285/407/1 286/404/1
f 437/408/1 479/401/1 436/398/1
f 269/409/1 360/386/1 268/405/1
f 438/410/1 479/401/1 437/408/1
f 439/411/1 479/401/1 438/410/1
f 440/412/1 479/401/1 439/411/1
f 296/406/1 284/413/1 285/407/1
f 270/414/1 360/386/1 269/409/1
f 441/415/1 479/401/1 440/412/1
f 297/416/1 284/413/1 296/406/1
f 442/417/1 479/401/1 441/415/1
f 271/418/1 360/386/1 270/414/1
f 442/417/1 478/419/1 479/401/1
f 443/420/1 478/419/1 442/417/1
f 444/421/1 478/419/1 443/420/1
f 297/416/1 283/422/1 284/413/1
f 445/423/1 478/419/1 444/421/1
f 272/424/1 360/386/1 271/418/1
f 446/425/1 478/419/1 445/423/1
f 272/424/1 359/426/1 360/386/1
f 447/427/1 478/419/1 446/425/1
f 298/428/1 283/422/1 297/416/1
f 273/429/1 359/426/1 272/424/1
f 448/430/1 478/419/1 447/427/1
f 298/428/1 282/431/1 283/422/1
f 449/432/1 478/419/1 448/430/1
f 450/433/1 478/419/1 449/432/1
f 274/434/1 359/426/1 273/429/1
f 451/435/1 478/419/1 450/433/1
f 452/436/1 478/419/1 451/435/1
f 298/428/1 281/437/1 282/431/1
f 275/438/1 359/426/1 274/434/1
f 453/439/1 478/419/1 452/436/1
f 276/440/1 359/426/1 275/438/1
f 454/441/1 478/419/1 453/439/1
f 299/442/1 281/437/1 298/428/1
f 299/442/1 280/443/1 281/437/1
f 455/444/1 478/419/1 454/441/1
f 277/445/1 359/426/1 276/440/1
f 456/446/1 478/419/1 455/444/1
f 278/447/1 359/426/1 277/445/1
f 456/446/1 477/448/1 478/419/1
f 299/442/1 279/449/1 280/443/1
f 279/449/1 359/426/1 278/447/1
f 299/442/1 359/426/1 279/449/1
f 457/450/1 477/448/1 456/446/1
f 458/451/1 477/448/1 457/450/1
f 459/452/1 477/448/1 458/451/1
f 460/453/1 477/448/1 459/452/1
f 461/454/1 477/448/1 460/453/1
f 300/455/1 359/426/1 299/442/1
f 462/456/1 477/448/1 461/454/1
f 301/457/1 359/426/1 300/455/1
f 462/456/1 476/458/1 477/448/1
f 463/459/1 476/458/1 462/456/1
f 301/457/1 358/460/1 359/426/1
f 302/461/1 358/460/1 301/457/1
f 464/462/1 476/458/1 463/459/1
f 303/463/1 358/460/1 302/461/1
f 465/464/1 476/458/1 464/462/1
f 465/464/1 475/465/1 476/458/1
f 304/466/1 358/460/1 303/463/1
f 466/467/1 475/465/1 465/464/1
f 467/468/1 475/465/1 466/467/1
f 305/469/1 358/460/1 304/466/1
f 467/468/1 474/470/1 475/465/1
f 468/471/1 474/470/1 467/468/1
f 305/469/1 357/472/1 358/460/1
f 306/473/1 357/472/1 305/469/1
f 469/474/1 474/470/1 468/471/1
f 469/474/1 473/475/1 474/470/1
f 307/476/1 357/472/1 306/473/1
f 470/477/1 473/475/1 469/474/1
f 471/478/1 473/475/1 470/477/1
f 471/478/1 472/479/1 473/475/1
f 308/480/1 357/472/1 307/476/1
f 309/481/1 357/472/1 308/480/1
f 310/482/1 357/472/1 309/481/1
f 311/483/1 357/472/1 310/482/1
f 311/483/1 356/484/1 357/472/1
f 312/485/1 356/484/1 311/483/1
f 313/486/1 356/484/1 312/485/1
f 314/487/1 356/484/1 313/486/1
f 315/488/1 356/484/1 314/487/1
f 316/489/1 356/484/1 315/488/1
f 316/489/1 355/490/1 356/484/1
f 317/491/1 355/490/1 316/489/1
f 318/492/1 355/490/1 317/491/1
f 319/493/1 355/490/1 318/492/1
f 319/493/1 354/494/1 355/490/1
f 320/495/1 354/494/1 319/493/1
f 321/496/1 354/494/1 320/495/1
f 322/497/1 354/494/1 321/496/1
f 323/498/1 354/494/1 322/497/1
f 323/498/1 353/499/1 354/494/1
f 324/500/1 353/499/1 323/498/1
f 325/501/1 353/499/1 324/500/1
f 326/502/1 353/499/1 325/501/1
f 327/503/1 353/499/1 326/502/1
f 327/503/1 352/504/1 353/499/1
f 328/505/1 352/504/1 327/503/1
f 329/506/1 352/504/1 328/505/1
f 329/506/1 351/507/1 352/504/1
f 330/508/1 351/507/1 329/506/1
f 331/509/1 351/507/1 330/508/1
f 331/509/1 350/510/1 351/507/1
f 331/509/1 349/511/1 350/510/1
f 332/512/1 349/511/1 331/509/1
f 332/512/1 348/513/1 349/511/1
f 333/514/1 348/513/1 332/512/1
f 333/514/1 347/515/1 348/513/1
f 333/514/1 346/516/1 347/515/1
f 334/517/1 346/516/1 333/514/1
f 334/517/1 345/518/1 346/516/1
f 335/519/1 345/518/1 334/517/1
f 335/519/1 344/520/1 345/518/1
f 336/521/1 344/520/1 335/519/1
f 336/521/1 343/522/1 344/520/1
f 336/521/1 342/523/1 343/522/1
f 337/524/1 342/523/1 336/521/1
f 337/524/1 341/525/1 342/523/1
f 338/526/1 341/525/1 337/524/1
f 338/526/1 340/527/1 341/525/1
f 339/528/1 340/527/1 338/526/1
f 534/529/1 714/43/1 533/42/1
f 534/529/1 713/530/1 714/43/1
f 534/529/1 712/531/1 713/530/1
f 535/532/1 712/531/1 534/529/1
f 535/532/1 711/533/1 712/531/1
f 536/534/1 711/533/1 535/532/1
f 536/534/1 710/535/1 711/533/1
f 537/536/1 710/535/1 536/534/1
f 537/536/1 709/537/1 710/535/1
f 538/538/1 709/537/1 537/536/1
f 538/538/1 708/539/1 709/537/1
f 539/540/1 708/539/1 538/538/1
f 540/541/1 708/539/1 539/540/1
f 540/541/1 707/542/1 708/539/1
f 541/543/1 707/542/1 540/541/1
f 541/543/1 706/544/1 707/542/1
f 542/545/1 706/544/1 541/543/1
f 542/545/1 705/546/1 706/544/1
f 543/547/1 705/546/1 542/545/1
f 544/548/1 705/546/1 543/547/1
f 544/548/1 704/549/1 705/546/1
f 545/550/1 704/549/1 544/548/1
f 545/550/1 703/551/1 704/549/1
f 546/552/1 703/551/1 545/550/1
f 546/552/1 702/553/1 703/551/1
f 547/554/1 702/553/1 546/552/1
f 548/555/1 702/553/1 547/554/1
f 548/555/1 701/556/1 702/553/1
f 549/557/1 701/556/1 548/555/1
f 549/557/1 700/558/1 701/556/1
f 550/559/1 700/558/1 549/557/1
f 550/559/1 699/560/1 700/558/1
f 551/561/1 699/560/1 550/559/1
f 551/561/1 698/562/1 699/560/1
f 552/563/1 698/562/1 551/561/1
f 552/563/1 697/564/1 698/562/1
f 553/565/1 697/564/1 552/563/1
f 553/565/1 696/566/1 697/564/1
f 554/567/1 696/566/1 553/565/1
f 554/567/1 695/568/1 696/566/1
f 555/569/1 695/568/1 554/567/1
f 555/569/1 694/570/1 695/568/1
f 556/571/1 694/570/1 555/569/1
f 556/571/1 693/572/1 694/570/1
f 557/573/1 693/572/1 556/571/1
f 557/573/1 692/574/1 693/572/1
f 558/575/1 692/574/1 557/573/1
f 558/575/1 691/576/1 692/574/1
f 559/577/1 691/576/1 558/575/1
f 559/577/1 690/578/1 691/576/1
f 559/577/1 689/579/1 690/578/1
f 560/580/1 689/579/1 559/577/1
f 561/581/1 689/579/1 560/580/1
f 562/582/1 689/579/1 561/581/1
f 563/583/1 689/579/1 562/582/1
f 563/583/1 583/584/1 689/579/1
f 583/584/1 584/585/1 689/579/1
f 584/585/1 688/586/1 689/579/1
f 564/587/1 582/588/1 563/583/1
f 582/588/1 583/584/1 563/583/1
f 565/589/1 581/590/1 564/587/1
f 581/590/1 582/588/1 564/587/1
f 565/589/1 580/591/1 581/590/1
f 565/589/1 579/592/1 580/591/1
f 565/589/1 578/593/1 579/592/1
f 566/594/1 578/593/1 565/589/1
f 566/594/1 577/595/1 578/593/1
f 585/596/1 688/586/1 584/585/1
f 566/594/1 576/597/1 577/595/1
f 566/594/1 575/598/1 576/597/1
f 566/594/1 574/599/1 575/598/1
f 586/600/1 688/586/1 585/596/1
f 567/601/1 574/599/1 566/594/1
f 567/601/1 573/602/1 574/599/1
f 567/601/1 572/603/1 573/602/1
f 568/604/1 572/603/1 567/601/1
f 568/604/1 571/605/1 572/603/1
f 568/604/1 570/606/1 571/605/1
f 569/607/1 570/606/1 568/604/1
f 587/608/1 688/586/1 586/600/1
f 588/609/1 688/586/1 587/608/1
f 589/610/1 688/586/1 588/609/1
f 590/611/1 688/586/1 589/610/1
f 590/611/1 687/612/1 688/586/1
f 591/613/1 687/612/1 590/611/1
f 592/614/1 687/612/1 591/613/1
f 593/615/1 687/612/1 592/614/1
f 593/615/1 686/616/1 687/612/1
f 594/617/1 686/616/1 593/615/1
f 594/617/1 685/618/1 686/616/1
f 595/619/1 685/618/1 594/617/1
f 595/619/1 684/620/1 685/618/1
f 596/621/1 684/620/1 595/619/1
f 596/621/1 683/622/1 684/620/1
f 597/623/1 683/622/1 596/621/1
f 597/623/1 682/624/1 683/622/1
f 597/623/1 681/625/1 682/624/1
f 598/626/1 681/625/1 597/623/1
f 598/626/1 680/627/1 681/625/1
f 598/626/1 679/628/1 680/627/1
f 599/629/1 679/628/1 598/626/1
f 599/629/1 678/630/1 679/628/1
f 599/629/1 677/631/1 678/630/1
f 600/632/1 677/631/1 599/629/1
f 600/632/1 676/633/1 677/631/1
f 600/632/1 675/634/1 676/633/1
f 601/635/1 675/634/1 600/632/1
f 601/635/1 674/636/1 675/634/1
f 602/637/1 674/636/1 601/635/1
f 602/637/1 673/638/1 674/636/1
f 602/637/1 672/639/1 673/638/1
f 603/640/1 672/639/1 602/637/1
f 603/640/1 671/641/1 672/639/1
f 604/642/1 671/641/1 603/640/1
f 604/642/1 670/643/1 671/641/1
f 605/644/1 670/643/1 604/642/1
f 605/644/1 669/645/1 670/643/1
f 607/646/1 605/644/1 606/647/1
f 607/646/1 669/645/1 605/644/1
f 608/648/1 669/645/1 607/646/1
f 609/649/1 669/645/1 608/648/1
f 609/649/1 642/650/1 669/645/1
f 642/650/1 668/651/1 669/645/1
f 609/649/1 641/652/1 642/650/1
f 643/653/1 668/651/1 642/650/1
f 610/654/1 641/652/1 609/649/1
f 644/655/1 668/651/1 643/653/1
f 610/654/1 640/656/1 641/652/1
f 611/657/1 640/656/1 610/654/1
f 645/658/1 668/651/1 644/655/1
f 611/657/1 639/659/1 640/656/1
f 612/660/1 639/659/1 611/657/1
f 645/658/1 667/661/1 668/651/1
f 613/662/1 639/659/1 612/660/1
f 646/663/1 667/661/1 645/658/1
f 613/662/1 638/664/1 639/659/1
f 614/665/1 638/664/1 613/662/1
f 646/663/1 666/666/1 667/661/1
f 615/667/1 638/664/1 614/665/1
f 616/668/1 638/664/1 615/667/1
f 647/669/1 666/666/1 646/663/1
f 616/668/1 637/670/1 638/664/1
f 647/669/1 665/671/1 666/666/1
f 617/672/1 637/670/1 616/668/1
f 618/673/1 637/670/1 617/672/1
f 647/669/1 664/674/1 665/671/1
f 619/675/1 637/670/1 618/673/1
f 648/676/1 664/674/1 647/669/1
f 619/675/1 636/677/1 637/670/1
f 648/676/1 663/678/1 664/674/1
f 620/679/1 636/677/1 619/675/1
f 648/676/1 662/680/1 663/678/1
f 649/681/1 662/680/1 648/676/1
f 621/682/1 636/677/1 620/679/1
f 621/682/1 635/683/1 636/677/1
f 622/684/1 635/683/1 621/682/1
f 649/681/1 661/685/1 662/680/1
f 650/686/1 661/685/1 649/681/1
f 622/684/1 634/687/1 635/683/1
f 623/688/1 634/687/1 622/684/1
f 650/686/1 660/689/1 661/685/1
f 624/690/1 634/687/1 623/688/1
f 650/686/1 659/691/1 660/689/1
f 651/692/1 659/691/1 650/686/1
f 624/690/1 633/693/1 634/687/1
f 625/694/1 633/693/1 624/690/1
f 651/692/1 658/695/1 659/691/1
f 652/696/1 658/695/1 651/692/1
f 626/697/1 633/693/1 625/694/1
f 626/697/1 632/698/1 633/693/1
f 652/696/1 657/699/1 658/695/1
f 627/700/1 632/698/1 626/697/1
f 652/696/1 656/701/1 657/699/1
f 653/702/1 656/701/1 652/696/1
f 627/700/1 631/703/1 632/698/1
f 628/704/1 631/703/1 627/700/1
f 653/702/1 655/705/1 656/701/1
f 654/706/1 655/705/1 653/702/1
f 629/707/1 631/703/1 628/704/1
f 629/707/1 630/708/1 631/703/1
