# Blender 4.1.1
# www.blender.org
mtllib UI_Title_A.mtl
o テキスト.001
v -2.656048 0.442336 0.000000
v -2.587048 0.442336 0.000000
v -2.294048 -0.243664 0.000000
v -2.394048 -0.243664 0.000000
v -2.480048 -0.042664 0.000000
v -2.770048 -0.042664 0.000000
v -2.861048 -0.243664 0.000000
v -2.961048 -0.243664 0.000000
v -2.620048 0.292336 0.000000
v -2.730048 0.045336 0.000000
v -2.518048 0.045336 0.000000
vn -0.0000 -0.0000 -1.0000
vt 0.200000 0.000000
vt 0.000000 0.000000
vt 0.100000 0.000000
vt 0.800000 0.000000
vt 0.700000 0.000000
vt 1.000000 0.000000
vt 0.900000 0.000000
vt 0.400000 0.000000
vt 0.500000 0.000000
vt 0.300000 0.000000
vt 0.600000 0.000000
s 0
usemtl マテリアル.001
f 3/1/1 1/2/1 2/3/1
f 3/1/1 9/4/1 1/2/1
f 9/4/1 8/5/1 1/2/1
f 3/1/1 11/6/1 9/4/1
f 10/7/1 8/5/1 9/4/1
f 3/1/1 5/8/1 11/6/1
f 5/8/1 10/7/1 11/6/1
f 5/8/1 6/9/1 10/7/1
f 6/9/1 8/5/1 10/7/1
f 3/1/1 4/10/1 5/8/1
f 7/11/1 8/5/1 6/9/1
