# Blender 4.1.1
# www.blender.org
mtllib Text_1-3.mtl
o テキスト
v -0.483590 -0.312515 0.090320
v -0.493772 -0.316836 0.090320
v -0.503968 -0.320712 0.090320
v -0.514226 -0.324151 0.090320
v -0.524595 -0.327159 0.090320
v -0.535124 -0.329743 0.090320
v -0.545861 -0.331911 0.090320
v -0.556855 -0.333669 0.090320
v -0.568155 -0.335025 0.090320
v -0.579809 -0.335984 0.090320
v -0.591866 -0.336555 0.090320
v -0.604374 -0.336743 0.090320
v -0.633957 -0.335304 0.090320
v -0.661624 -0.331058 0.090320
v -0.687249 -0.324118 0.090320
v -0.710707 -0.314595 0.090320
v -0.731874 -0.302600 0.090320
v -0.750624 -0.288243 0.090320
v -0.766832 -0.271637 0.090320
v -0.780374 -0.252892 0.090320
v -0.791124 -0.232118 0.090320
v -0.798957 -0.209429 0.090320
v -0.803749 -0.184933 0.090320
v -0.805374 -0.158743 0.090320
v -0.804846 -0.140417 0.090320
v -0.803235 -0.123382 0.090320
v -0.800499 -0.107556 0.090320
v -0.796596 -0.092855 0.090320
v -0.791485 -0.079195 0.090320
v -0.785124 -0.066493 0.090320
v -0.777471 -0.054667 0.090320
v -0.768485 -0.043632 0.090320
v -0.758124 -0.033306 0.090320
v -0.746346 -0.023605 0.090320
v -0.733110 -0.014445 0.090320
v -0.718374 -0.005743 0.090320
v -0.734587 0.000519 0.090320
v -0.749244 0.008687 0.090320
v -0.762374 0.018585 0.090320
v -0.774004 0.030034 0.090320
v -0.784161 0.042859 0.090320
v -0.792874 0.056882 0.090320
v -0.800170 0.071925 0.090320
v -0.806078 0.087812 0.090320
v -0.810624 0.104366 0.090320
v -0.813837 0.121409 0.090320
v -0.815744 0.138765 0.090320
v -0.816374 0.156257 0.090320
v -0.814550 0.185958 0.090320
v -0.809198 0.213951 0.090320
v -0.800499 0.240069 0.090320
v -0.788633 0.264145 0.090320
v -0.773781 0.286014 0.090320
v -0.756124 0.305507 0.090320
v -0.735841 0.322458 0.090320
v -0.713115 0.336701 0.090320
v -0.688124 0.348069 0.090320
v -0.661050 0.356396 0.090320
v -0.632073 0.361514 0.090320
v -0.601374 0.363257 0.090320
v -0.589583 0.362967 0.090320
v -0.577716 0.362104 0.090320
v -0.565780 0.360679 0.090320
v -0.553781 0.358701 0.090320
v -0.541727 0.356182 0.090320
v -0.529624 0.353132 0.090320
v -0.517479 0.349560 0.090320
v -0.505300 0.345479 0.090320
v -0.493093 0.340897 0.090320
v -0.480865 0.335826 0.090320
v -0.468623 0.330276 0.090320
v -0.456374 0.324257 0.090320
v -0.456374 0.218257 0.090320
v -0.469333 0.226632 0.090320
v -0.482216 0.234261 0.090320
v -0.495030 0.241147 0.090320
v -0.507781 0.247294 0.090320
v -0.520477 0.252704 0.090320
v -0.533124 0.257382 0.090320
v -0.545729 0.261330 0.090320
v -0.558300 0.264553 0.090320
v -0.570843 0.267053 0.090320
v -0.583365 0.268835 0.090320
v -0.595873 0.269902 0.090320
v -0.608374 0.270257 0.090320
v -0.624613 0.269372 0.090320
v -0.639786 0.266766 0.090320
v -0.653827 0.262507 0.090320
v -0.666670 0.256664 0.090320
v -0.678249 0.249308 0.090320
v -0.688499 0.240507 0.090320
v -0.697352 0.230331 0.090320
v -0.704744 0.218849 0.090320
v -0.710608 0.206132 0.090320
v -0.714879 0.192247 0.090320
v -0.717489 0.177266 0.090320
v -0.718374 0.161257 0.090320
v -0.717354 0.144843 0.090320
v -0.714295 0.129201 0.090320
v -0.709202 0.114475 0.090320
v -0.702078 0.100812 0.090320
v -0.692925 0.088357 0.090320
v -0.681749 0.077257 0.090320
v -0.668552 0.067656 0.090320
v -0.653337 0.059701 0.090320
v -0.636108 0.053538 0.090320
v -0.616869 0.049312 0.090320
v -0.595623 0.047170 0.090320
v -0.572374 0.047257 0.090320
v -0.572374 -0.042743 0.090320
v -0.593936 -0.043507 0.090320
v -0.613624 -0.045771 0.090320
v -0.631436 -0.049493 0.090320
v -0.647374 -0.054632 0.090320
v -0.661436 -0.061146 0.090320
v -0.673624 -0.068993 0.090320
v -0.683936 -0.078132 0.090320
v -0.692374 -0.088521 0.090320
v -0.698936 -0.100118 0.090320
v -0.703624 -0.112882 0.090320
v -0.706436 -0.126771 0.090320
v -0.707374 -0.141743 0.090320
v -0.706427 -0.156985 0.090320
v -0.703633 -0.171174 0.090320
v -0.699061 -0.184259 0.090320
v -0.692781 -0.196188 0.090320
v -0.684862 -0.206908 0.090320
v -0.675374 -0.216368 0.090320
v -0.664385 -0.224516 0.090320
v -0.651967 -0.231299 0.090320
v -0.638186 -0.236665 0.090320
v -0.623115 -0.240563 0.090320
v -0.606821 -0.242940 0.090320
v -0.589374 -0.243743 0.090320
v -0.580217 -0.243574 0.090320
v -0.571198 -0.243054 0.090320
v -0.562249 -0.242165 0.090320
v -0.553300 -0.240892 0.090320
v -0.544281 -0.239215 0.090320
v -0.535124 -0.237118 0.090320
v -0.525758 -0.234584 0.090320
v -0.516115 -0.231595 0.090320
v -0.506124 -0.228134 0.090320
v -0.495716 -0.224183 0.090320
v -0.484823 -0.219725 0.090320
v -0.473374 -0.214743 0.090320
v -0.473374 -0.307743 0.090320
v 0.705626 0.354257 0.090320
v 0.705626 -0.327743 0.090320
v 0.607626 -0.327743 0.090320
v 0.607626 0.354257 0.090320
v -0.483590 -0.312515 -0.109680
v -0.493772 -0.316836 -0.109680
v -0.503968 -0.320712 -0.109680
v -0.514226 -0.324151 -0.109680
v -0.524595 -0.327159 -0.109680
v -0.535124 -0.329743 -0.109680
v -0.545861 -0.331911 -0.109680
v -0.556855 -0.333669 -0.109680
v -0.568155 -0.335025 -0.109680
v -0.579809 -0.335984 -0.109680
v -0.591866 -0.336555 -0.109680
v -0.604374 -0.336743 -0.109680
v -0.633957 -0.335304 -0.109680
v -0.661624 -0.331058 -0.109680
v -0.687249 -0.324118 -0.109680
v -0.710707 -0.314595 -0.109680
v -0.731874 -0.302600 -0.109680
v -0.750624 -0.288243 -0.109680
v -0.766832 -0.271637 -0.109680
v -0.780374 -0.252892 -0.109680
v -0.791124 -0.232118 -0.109680
v -0.798957 -0.209429 -0.109680
v -0.803749 -0.184933 -0.109680
v -0.805374 -0.158743 -0.109680
v -0.804846 -0.140417 -0.109680
v -0.803235 -0.123382 -0.109680
v -0.800499 -0.107556 -0.109680
v -0.796596 -0.092855 -0.109680
v -0.791485 -0.079195 -0.109680
v -0.785124 -0.066493 -0.109680
v -0.777471 -0.054667 -0.109680
v -0.768485 -0.043632 -0.109680
v -0.758124 -0.033306 -0.109680
v -0.746346 -0.023605 -0.109680
v -0.733110 -0.014445 -0.109680
v -0.718374 -0.005743 -0.109680
v -0.734587 0.000519 -0.109680
v -0.749244 0.008687 -0.109680
v -0.762374 0.018585 -0.109680
v -0.774004 0.030034 -0.109680
v -0.784161 0.042859 -0.109680
v -0.792874 0.056882 -0.109680
v -0.800170 0.071925 -0.109680
v -0.806078 0.087812 -0.109680
v -0.810624 0.104366 -0.109680
v -0.813837 0.121409 -0.109680
v -0.815744 0.138765 -0.109680
v -0.816374 0.156257 -0.109680
v -0.814550 0.185958 -0.109680
v -0.809198 0.213951 -0.109680
v -0.800499 0.240069 -0.109680
v -0.788633 0.264145 -0.109680
v -0.773781 0.286014 -0.109680
v -0.756124 0.305507 -0.109680
v -0.735841 0.322458 -0.109680
v -0.713115 0.336701 -0.109680
v -0.688124 0.348069 -0.109680
v -0.661050 0.356396 -0.109680
v -0.632073 0.361514 -0.109680
v -0.601374 0.363257 -0.109680
v -0.589583 0.362967 -0.109680
v -0.577716 0.362104 -0.109680
v -0.565780 0.360679 -0.109680
v -0.553781 0.358701 -0.109680
v -0.541727 0.356182 -0.109680
v -0.529624 0.353132 -0.109680
v -0.517479 0.349560 -0.109680
v -0.505300 0.345479 -0.109680
v -0.493093 0.340897 -0.109680
v -0.480865 0.335826 -0.109680
v -0.468623 0.330276 -0.109680
v -0.456374 0.324257 -0.109680
v -0.456374 0.218257 -0.109680
v -0.469333 0.226632 -0.109680
v -0.482216 0.234261 -0.109680
v -0.495030 0.241147 -0.109680
v -0.507781 0.247294 -0.109680
v -0.520477 0.252704 -0.109680
v -0.533124 0.257382 -0.109680
v -0.545729 0.261330 -0.109680
v -0.558300 0.264553 -0.109680
v -0.570843 0.267053 -0.109680
v -0.583365 0.268835 -0.109680
v -0.595873 0.269902 -0.109680
v -0.608374 0.270257 -0.109680
v -0.624613 0.269372 -0.109680
v -0.639786 0.266766 -0.109680
v -0.653827 0.262507 -0.109680
v -0.666670 0.256664 -0.109680
v -0.678249 0.249308 -0.109680
v -0.688499 0.240507 -0.109680
v -0.697352 0.230331 -0.109680
v -0.704744 0.218849 -0.109680
v -0.710608 0.206132 -0.109680
v -0.714879 0.192247 -0.109680
v -0.717489 0.177266 -0.109680
v -0.718374 0.161257 -0.109680
v -0.717354 0.144843 -0.109680
v -0.714295 0.129201 -0.109680
v -0.709202 0.114475 -0.109680
v -0.702078 0.100812 -0.109680
v -0.692925 0.088357 -0.109680
v -0.681749 0.077257 -0.109680
v -0.668552 0.067656 -0.109680
v -0.653337 0.059701 -0.109680
v -0.636108 0.053538 -0.109680
v -0.616869 0.049312 -0.109680
v -0.595623 0.047170 -0.109680
v -0.572374 0.047257 -0.109680
v -0.572374 -0.042743 -0.109680
v -0.593936 -0.043507 -0.109680
v -0.613624 -0.045771 -0.109680
v -0.631436 -0.049493 -0.109680
v -0.647374 -0.054632 -0.109680
v -0.661436 -0.061146 -0.109680
v -0.673624 -0.068993 -0.109680
v -0.683936 -0.078132 -0.109680
v -0.692374 -0.088521 -0.109680
v -0.698936 -0.100118 -0.109680
v -0.703624 -0.112882 -0.109680
v -0.706436 -0.126771 -0.109680
v -0.707374 -0.141743 -0.109680
v -0.706427 -0.156985 -0.109680
v -0.703633 -0.171174 -0.109680
v -0.699061 -0.184259 -0.109680
v -0.692781 -0.196188 -0.109680
v -0.684862 -0.206908 -0.109680
v -0.675374 -0.216368 -0.109680
v -0.664385 -0.224516 -0.109680
v -0.651967 -0.231299 -0.109680
v -0.638186 -0.236665 -0.109680
v -0.623115 -0.240563 -0.109680
v -0.606821 -0.242940 -0.109680
v -0.589374 -0.243743 -0.109680
v -0.580217 -0.243574 -0.109680
v -0.571198 -0.243054 -0.109680
v -0.562249 -0.242165 -0.109680
v -0.553300 -0.240892 -0.109680
v -0.544281 -0.239215 -0.109680
v -0.535124 -0.237118 -0.109680
v -0.525758 -0.234584 -0.109680
v -0.516115 -0.231595 -0.109680
v -0.506124 -0.228134 -0.109680
v -0.495716 -0.224183 -0.109680
v -0.484823 -0.219725 -0.109680
v -0.473374 -0.214743 -0.109680
v -0.473374 -0.307743 -0.109680
v 0.705626 0.354257 -0.109680
v 0.705626 -0.327743 -0.109680
v 0.607626 -0.327743 -0.109680
v 0.607626 0.354257 -0.109680
v 0.705626 0.354257 -0.109680
v 0.705626 0.354257 0.090320
v 0.705626 -0.327743 -0.109680
v 0.705626 -0.327743 0.090320
v 0.607626 -0.327743 -0.109680
v 0.607626 -0.327743 0.090320
v 0.607626 0.354257 -0.109680
v 0.607626 0.354257 0.090320
v -0.483590 -0.312515 -0.109680
v -0.483590 -0.312515 0.090320
v -0.493772 -0.316836 -0.109680
v -0.493772 -0.316836 0.090320
v -0.503968 -0.320712 -0.109680
v -0.503968 -0.320712 0.090320
v -0.514226 -0.324151 -0.109680
v -0.514226 -0.324151 0.090320
v -0.524595 -0.327159 -0.109680
v -0.524595 -0.327159 0.090320
v -0.535124 -0.329743 -0.109680
v -0.535124 -0.329743 0.090320
v -0.545861 -0.331911 -0.109680
v -0.545861 -0.331911 0.090320
v -0.556855 -0.333669 -0.109680
v -0.556855 -0.333669 0.090320
v -0.568155 -0.335025 -0.109680
v -0.568155 -0.335025 0.090320
v -0.579809 -0.335984 -0.109680
v -0.579809 -0.335984 0.090320
v -0.591866 -0.336555 -0.109680
v -0.591866 -0.336555 0.090320
v -0.604374 -0.336743 -0.109680
v -0.604374 -0.336743 0.090320
v -0.633957 -0.335304 -0.109680
v -0.633957 -0.335304 0.090320
v -0.661624 -0.331058 -0.109680
v -0.661624 -0.331058 0.090320
v -0.687249 -0.324118 -0.109680
v -0.687249 -0.324118 0.090320
v -0.710707 -0.314595 -0.109680
v -0.710707 -0.314595 0.090320
v -0.731874 -0.302600 -0.109680
v -0.731874 -0.302600 0.090320
v -0.750624 -0.288243 -0.109680
v -0.750624 -0.288243 0.090320
v -0.766832 -0.271637 -0.109680
v -0.766832 -0.271637 0.090320
v -0.780374 -0.252892 -0.109680
v -0.780374 -0.252892 0.090320
v -0.791124 -0.232118 -0.109680
v -0.791124 -0.232118 0.090320
v -0.798957 -0.209429 -0.109680
v -0.798957 -0.209429 0.090320
v -0.803749 -0.184933 -0.109680
v -0.803749 -0.184933 0.090320
v -0.805374 -0.158743 -0.109680
v -0.805374 -0.158743 0.090320
v -0.804846 -0.140417 -0.109680
v -0.804846 -0.140417 0.090320
v -0.803235 -0.123382 -0.109680
v -0.803235 -0.123382 0.090320
v -0.800499 -0.107556 -0.109680
v -0.800499 -0.107556 0.090320
v -0.796596 -0.092855 -0.109680
v -0.796596 -0.092855 0.090320
v -0.791485 -0.079195 -0.109680
v -0.791485 -0.079195 0.090320
v -0.785124 -0.066493 -0.109680
v -0.785124 -0.066493 0.090320
v -0.777471 -0.054667 -0.109680
v -0.777471 -0.054667 0.090320
v -0.768485 -0.043632 -0.109680
v -0.768485 -0.043632 0.090320
v -0.758124 -0.033306 -0.109680
v -0.758124 -0.033306 0.090320
v -0.746346 -0.023605 -0.109680
v -0.746346 -0.023605 0.090320
v -0.733110 -0.014445 -0.109680
v -0.733110 -0.014445 0.090320
v -0.718374 -0.005743 -0.109680
v -0.718374 -0.005743 0.090320
v -0.734587 0.000519 -0.109680
v -0.734587 0.000519 0.090320
v -0.749244 0.008687 -0.109680
v -0.749244 0.008687 0.090320
v -0.762374 0.018585 -0.109680
v -0.762374 0.018585 0.090320
v -0.774004 0.030034 -0.109680
v -0.774004 0.030034 0.090320
v -0.784161 0.042859 -0.109680
v -0.784161 0.042859 0.090320
v -0.792874 0.056882 -0.109680
v -0.792874 0.056882 0.090320
v -0.800170 0.071925 -0.109680
v -0.800170 0.071925 0.090320
v -0.806078 0.087812 -0.109680
v -0.806078 0.087812 0.090320
v -0.810624 0.104366 -0.109680
v -0.810624 0.104366 0.090320
v -0.813837 0.121409 -0.109680
v -0.813837 0.121409 0.090320
v -0.815744 0.138765 -0.109680
v -0.815744 0.138765 0.090320
v -0.816374 0.156257 -0.109680
v -0.816374 0.156257 0.090320
v -0.814550 0.185958 -0.109680
v -0.814550 0.185958 0.090320
v -0.809198 0.213951 -0.109680
v -0.809198 0.213951 0.090320
v -0.800499 0.240069 -0.109680
v -0.800499 0.240069 0.090320
v -0.788633 0.264145 -0.109680
v -0.788633 0.264145 0.090320
v -0.773781 0.286014 -0.109680
v -0.773781 0.286014 0.090320
v -0.756124 0.305507 -0.109680
v -0.756124 0.305507 0.090320
v -0.735841 0.322458 -0.109680
v -0.735841 0.322458 0.090320
v -0.713115 0.336701 -0.109680
v -0.713115 0.336701 0.090320
v -0.688124 0.348069 -0.109680
v -0.688124 0.348069 0.090320
v -0.661050 0.356396 -0.109680
v -0.661050 0.356396 0.090320
v -0.632073 0.361514 -0.109680
v -0.632073 0.361514 0.090320
v -0.601374 0.363257 -0.109680
v -0.601374 0.363257 0.090320
v -0.589583 0.362967 -0.109680
v -0.589583 0.362967 0.090320
v -0.577716 0.362104 -0.109680
v -0.577716 0.362104 0.090320
v -0.565780 0.360679 -0.109680
v -0.565780 0.360679 0.090320
v -0.553781 0.358701 -0.109680
v -0.553781 0.358701 0.090320
v -0.541727 0.356182 -0.109680
v -0.541727 0.356182 0.090320
v -0.529624 0.353132 -0.109680
v -0.529624 0.353132 0.090320
v -0.517479 0.349560 -0.109680
v -0.517479 0.349560 0.090320
v -0.505300 0.345479 -0.109680
v -0.505300 0.345479 0.090320
v -0.493093 0.340897 -0.109680
v -0.493093 0.340897 0.090320
v -0.480865 0.335826 -0.109680
v -0.480865 0.335826 0.090320
v -0.468623 0.330276 -0.109680
v -0.468623 0.330276 0.090320
v -0.456374 0.324257 -0.109680
v -0.456374 0.324257 0.090320
v -0.456374 0.218257 -0.109680
v -0.456374 0.218257 0.090320
v -0.469333 0.226632 -0.109680
v -0.469333 0.226632 0.090320
v -0.482216 0.234261 -0.109680
v -0.482216 0.234261 0.090320
v -0.495030 0.241147 -0.109680
v -0.495030 0.241147 0.090320
v -0.507781 0.247294 -0.109680
v -0.507781 0.247294 0.090320
v -0.520477 0.252704 -0.109680
v -0.520477 0.252704 0.090320
v -0.533124 0.257382 -0.109680
v -0.533124 0.257382 0.090320
v -0.545729 0.261330 -0.109680
v -0.545729 0.261330 0.090320
v -0.558300 0.264553 -0.109680
v -0.558300 0.264553 0.090320
v -0.570843 0.267053 -0.109680
v -0.570843 0.267053 0.090320
v -0.583365 0.268835 -0.109680
v -0.583365 0.268835 0.090320
v -0.595873 0.269902 -0.109680
v -0.595873 0.269902 0.090320
v -0.608374 0.270257 -0.109680
v -0.608374 0.270257 0.090320
v -0.624613 0.269372 -0.109680
v -0.624613 0.269372 0.090320
v -0.639786 0.266766 -0.109680
v -0.639786 0.266766 0.090320
v -0.653827 0.262507 -0.109680
v -0.653827 0.262507 0.090320
v -0.666670 0.256664 -0.109680
v -0.666670 0.256664 0.090320
v -0.678249 0.249308 -0.109680
v -0.678249 0.249308 0.090320
v -0.688499 0.240507 -0.109680
v -0.688499 0.240507 0.090320
v -0.697352 0.230331 -0.109680
v -0.697352 0.230331 0.090320
v -0.704744 0.218849 -0.109680
v -0.704744 0.218849 0.090320
v -0.710608 0.206132 -0.109680
v -0.710608 0.206132 0.090320
v -0.714879 0.192247 -0.109680
v -0.714879 0.192247 0.090320
v -0.717489 0.177266 -0.109680
v -0.717489 0.177266 0.090320
v -0.718374 0.161257 -0.109680
v -0.718374 0.161257 0.090320
v -0.717354 0.144843 -0.109680
v -0.717354 0.144843 0.090320
v -0.714295 0.129201 -0.109680
v -0.714295 0.129201 0.090320
v -0.709202 0.114475 -0.109680
v -0.709202 0.114475 0.090320
v -0.702078 0.100812 -0.109680
v -0.702078 0.100812 0.090320
v -0.692925 0.088357 -0.109680
v -0.692925 0.088357 0.090320
v -0.681749 0.077257 -0.109680
v -0.681749 0.077257 0.090320
v -0.668552 0.067656 -0.109680
v -0.668552 0.067656 0.090320
v -0.653337 0.059701 -0.109680
v -0.653337 0.059701 0.090320
v -0.636108 0.053538 -0.109680
v -0.636108 0.053538 0.090320
v -0.616869 0.049312 -0.109680
v -0.616869 0.049312 0.090320
v -0.595623 0.047170 -0.109680
v -0.595623 0.047170 0.090320
v -0.572374 0.047257 -0.109680
v -0.572374 0.047257 0.090320
v -0.572374 -0.042743 -0.109680
v -0.572374 -0.042743 0.090320
v -0.593936 -0.043507 -0.109680
v -0.593936 -0.043507 0.090320
v -0.613624 -0.045771 -0.109680
v -0.613624 -0.045771 0.090320
v -0.631436 -0.049493 -0.109680
v -0.631436 -0.049493 0.090320
v -0.647374 -0.054632 -0.109680
v -0.647374 -0.054632 0.090320
v -0.661436 -0.061146 -0.109680
v -0.661436 -0.061146 0.090320
v -0.673624 -0.068993 -0.109680
v -0.673624 -0.068993 0.090320
v -0.683936 -0.078132 -0.109680
v -0.683936 -0.078132 0.090320
v -0.692374 -0.088521 -0.109680
v -0.692374 -0.088521 0.090320
v -0.698936 -0.100118 -0.109680
v -0.698936 -0.100118 0.090320
v -0.703624 -0.112882 -0.109680
v -0.703624 -0.112882 0.090320
v -0.706436 -0.126771 -0.109680
v -0.706436 -0.126771 0.090320
v -0.707374 -0.141743 -0.109680
v -0.707374 -0.141743 0.090320
v -0.706427 -0.156985 -0.109680
v -0.706427 -0.156985 0.090320
v -0.703633 -0.171174 -0.109680
v -0.703633 -0.171174 0.090320
v -0.699061 -0.184259 -0.109680
v -0.699061 -0.184259 0.090320
v -0.692781 -0.196188 -0.109680
v -0.692781 -0.196188 0.090320
v -0.684862 -0.206908 -0.109680
v -0.684862 -0.206908 0.090320
v -0.675374 -0.216368 -0.109680
v -0.675374 -0.216368 0.090320
v -0.664385 -0.224516 -0.109680
v -0.664385 -0.224516 0.090320
v -0.651967 -0.231299 -0.109680
v -0.651967 -0.231299 0.090320
v -0.638186 -0.236665 -0.109680
v -0.638186 -0.236665 0.090320
v -0.623115 -0.240563 -0.109680
v -0.623115 -0.240563 0.090320
v -0.606821 -0.242940 -0.109680
v -0.606821 -0.242940 0.090320
v -0.589374 -0.243743 -0.109680
v -0.589374 -0.243743 0.090320
v -0.580217 -0.243574 -0.109680
v -0.580217 -0.243574 0.090320
v -0.571198 -0.243054 -0.109680
v -0.571198 -0.243054 0.090320
v -0.562249 -0.242165 -0.109680
v -0.562249 -0.242165 0.090320
v -0.553300 -0.240892 -0.109680
v -0.553300 -0.240892 0.090320
v -0.544281 -0.239215 -0.109680
v -0.544281 -0.239215 0.090320
v -0.535124 -0.237118 -0.109680
v -0.535124 -0.237118 0.090320
v -0.525758 -0.234584 -0.109680
v -0.525758 -0.234584 0.090320
v -0.516115 -0.231595 -0.109680
v -0.516115 -0.231595 0.090320
v -0.506124 -0.228134 -0.109680
v -0.506124 -0.228134 0.090320
v -0.495716 -0.224183 -0.109680
v -0.495716 -0.224183 0.090320
v -0.484823 -0.219725 -0.109680
v -0.484823 -0.219725 0.090320
v -0.473374 -0.214743 -0.109680
v -0.473374 -0.214743 0.090320
v -0.473374 -0.307743 -0.109680
v -0.473374 -0.307743 0.090320
vn -0.0000 -0.0000 1.0000
vn -0.0001 -0.0000 1.0000
vn -0.0000 -0.0000 -1.0000
vn -0.0001 -0.0000 -1.0000
vn 0.7071 -0.7071 -0.0000
vn 0.7071 0.7071 -0.0000
vn -0.7071 -0.7071 -0.0000
vn -0.7071 0.7071 -0.0000
vn 0.3731 -0.9278 -0.0000
vn 0.4070 -0.9134 -0.0000
vn 0.3367 -0.9416 -0.0000
vn 0.2983 -0.9545 -0.0000
vn 0.2586 -0.9660 -0.0000
vn 0.2182 -0.9759 -0.0000
vn 0.1779 -0.9840 -0.0000
vn 0.1385 -0.9904 -0.0000
vn 0.1006 -0.9949 -0.0000
vn 0.0647 -0.9979 -0.0000
vn 0.0312 -0.9995 -0.0000
vn -0.0168 -0.9999 -0.0000
vn -0.1003 -0.9950 -0.0000
vn -0.2069 -0.9784 -0.0000
vn -0.3194 -0.9476 -0.0000
vn -0.4355 -0.9002 -0.0000
vn -0.5518 -0.8340 -0.0000
vn -0.6635 -0.7482 -0.0000
vn -0.7652 -0.6438 -0.0000
vn -0.8517 -0.5240 -0.0000
vn -0.9191 -0.3940 -0.0000
vn -0.9657 -0.2598 -0.0000
vn -0.9919 -0.1272 -0.0000
vn -0.9999 -0.0166 -0.0000
vn -0.9981 0.0615 -0.0000
vn -0.9912 0.1324 -0.0000
vn -0.9769 0.2137 -0.0000
vn -0.9527 0.3039 -0.0000
vn -0.9167 0.3997 -0.0000
vn -0.8682 0.4963 -0.0000
vn -0.8087 0.5882 -0.0000
vn -0.7417 0.6708 -0.0000
vn -0.6716 0.7409 -0.0000
vn -0.6030 0.7978 -0.0000
vn -0.5391 0.8422 -0.0000
vn -0.6029 0.7978 -0.0000
vn -0.9966 -0.0823 -0.0000
vn -0.4246 -0.9054 -0.0000
vn -0.5457 -0.8380 -0.0000
vn -0.6532 -0.7572 -0.0000
vn -0.7442 -0.6680 -0.0000
vn -0.8180 -0.5752 -0.0000
vn -0.8758 -0.4827 -0.0000
vn -0.8180 -0.5753 -0.0000
vn -0.9196 -0.3929 -0.0000
vn -0.9517 -0.3070 -0.0000
vn -0.9743 -0.2252 -0.0000
vn -0.9891 -0.1474 -0.0000
vn -0.9974 -0.0727 -0.0000
vn -0.9999 0.0127 -0.0000
vn -0.9922 0.1248 -0.0000
vn -0.9676 0.2524 -0.0000
vn -0.9250 0.3799 -0.0000
vn -0.8642 0.5032 -0.0000
vn -0.7861 0.6181 -0.0000
vn -0.6929 0.7211 -0.0000
vn -0.5875 0.8092 -0.0000
vn -0.4736 0.8807 -0.0000
vn -0.3547 0.9350 -0.0000
vn -0.2344 0.9721 -0.0000
vn -0.1155 0.9933 -0.0000
vn -0.0161 0.9999 -0.0000
vn 0.0486 0.9988 -0.0000
vn 0.0956 0.9954 -0.0000
vn 0.1406 0.9901 -0.0000
vn 0.1836 0.9830 -0.0000
vn 0.2245 0.9745 -0.0000
vn 0.2633 0.9647 -0.0000
vn 0.3000 0.9539 -0.0000
vn 0.3346 0.9424 -0.0000
vn 0.3673 0.9301 -0.0000
vn 0.3981 0.9174 -0.0000
vn 0.4270 0.9042 -0.0000
vn 0.8488 0.5287 -0.0000
vn 0.4781 -0.8783 -0.0000
vn -0.5263 -0.8503 -0.0000
vn -0.4916 -0.8708 -0.0000
vn -0.4539 -0.8911 -0.0000
vn -0.4132 -0.9106 -0.0000
vn -0.3696 -0.9292 -0.0000
vn -0.3230 -0.9464 -0.0000
vn -0.2737 -0.9618 -0.0000
vn -0.2220 -0.9750 -0.0000
vn -0.1683 -0.9857 -0.0000
vn -0.1130 -0.9936 -0.0000
vn -0.0567 -0.9984 -0.0000
vn 0.0130 -0.9999 -0.0000
vn 0.1120 -0.9937 -0.0000
vn 0.2302 -0.9731 -0.0000
vn 0.3530 -0.9356 -0.0000
vn 0.4763 -0.8793 -0.0000
vn 0.5954 -0.8034 -0.0000
vn 0.7048 -0.7094 -0.0000
vn 0.7997 -0.6004 -0.0000
vn 0.8766 -0.4812 -0.0000
vn 0.9341 -0.3571 -0.0000
vn 0.9724 -0.2333 -0.0000
vn 0.9340 -0.3571 -0.0000
vn 0.9935 -0.1136 -0.0000
vn 1.0000 0.0034 -0.0000
vn 0.9919 0.1272 -0.0000
vn 0.9656 0.2600 -0.0000
vn 0.9184 0.3957 -0.0000
vn 0.8487 0.5288 -0.0000
vn 0.7575 0.6528 -0.0000
vn 0.6484 0.7613 -0.0000
vn 0.5272 0.8497 -0.0000
vn 0.4010 0.9161 -0.0000
vn 0.2762 0.9611 -0.0000
vn 0.1577 0.9875 -0.0000
vn 0.0484 0.9988 -0.0000
vn 0.7058 0.7084 -0.0000
vn 0.7195 -0.6945 -0.0000
vn 0.0749 -0.9972 -0.0000
vn 0.1596 -0.9872 -0.0000
vn 0.2561 -0.9667 -0.0000
vn 0.3643 -0.9313 -0.0000
vn 0.4820 -0.8762 -0.0000
vn 0.6041 -0.7969 -0.0000
vn 0.7222 -0.6917 -0.0000
vn 0.8262 -0.5634 -0.0000
vn 0.9075 -0.4200 -0.0000
vn 0.9622 -0.2724 -0.0000
vn 0.9914 -0.1308 -0.0000
vn 1.0000 -0.0002 -0.0000
vn 0.9918 0.1279 -0.0000
vn 0.9650 0.2622 -0.0000
vn 0.9170 0.3989 -0.0000
vn 0.8470 0.5315 -0.0000
vn 0.7573 0.6530 -0.0000
vn 0.6526 0.7577 -0.0000
vn 0.5388 0.8425 -0.0000
vn 0.4220 0.9066 -0.0000
vn 0.3072 0.9517 -0.0000
vn 0.1976 0.9803 -0.0000
vn 0.0953 0.9954 -0.0000
vn 0.0138 0.9999 -0.0000
vn -0.0381 0.9993 -0.0000
vn -0.0782 0.9969 -0.0000
vn -0.1199 0.9928 -0.0000
vn -0.1619 0.9868 -0.0000
vn -0.2030 0.9792 -0.0000
vn -0.2422 0.9702 -0.0000
vn -0.2787 0.9604 -0.0000
vn -0.3117 0.9502 -0.0000
vn -0.3412 0.9400 -0.0000
vn -0.3668 0.9303 -0.0000
vn -0.3889 0.9213 -0.0000
vn 0.5482 0.8364 -0.0000
vn 0.8436 -0.5370 -0.0000
vn 0.5481 0.8364 -0.0000
vt 0.068493 0.000000
vt 0.082192 0.000000
vt 0.075342 0.000000
vt 0.061644 0.000000
vt 0.054795 0.000000
vt 0.089041 0.000000
vt 0.047945 0.000000
vt 0.041096 0.000000
vt 0.034247 0.000000
vt 0.095890 0.000000
vt 0.027397 0.000000
vt 0.020548 0.000000
vt 0.013699 0.000000
vt 0.102740 0.000000
vt 0.006849 0.000000
vt 0.000000 0.000000
vt 0.109589 0.000000
vt 1.000000 0.000000
vt 0.993151 0.000000
vt 0.986301 0.000000
vt 0.979452 0.000000
vt 0.972603 0.000000
vt 0.965753 0.000000
vt 0.958904 0.000000
vt 0.952055 0.000000
vt 0.116438 0.000000
vt 0.945205 0.000000
vt 0.938356 0.000000
vt 0.123288 0.000000
vt 0.931507 0.000000
vt 0.924658 0.000000
vt 0.917808 0.000000
vt 0.130137 0.000000
vt 0.910959 0.000000
vt 0.904110 0.000000
vt 0.136986 0.000000
vt 0.897260 0.000000
vt 0.890411 0.000000
vt 0.883562 0.000000
vt 0.143836 0.000000
vt 0.876712 0.000000
vt 0.869863 0.000000
vt 0.863014 0.000000
vt 0.150685 0.000000
vt 0.856164 0.000000
vt 0.849315 0.000000
vt 0.157534 0.000000
vt 0.842466 0.000000
vt 0.835616 0.000000
vt 0.164384 0.000000
vt 0.828767 0.000000
vt 0.821918 0.000000
vt 0.171233 0.000000
vt 0.815068 0.000000
vt 0.178082 0.000000
vt 0.808219 0.000000
vt 0.184932 0.000000
vt 0.801370 0.000000
vt 0.191781 0.000000
vt 0.794521 0.000000
vt 0.198630 0.000000
vt 0.787671 0.000000
vt 0.780822 0.000000
vt 0.205479 0.000000
vt 0.773973 0.000000
vt 0.212329 0.000000
vt 0.767123 0.000000
vt 0.760274 0.000000
vt 0.753425 0.000000
vt 0.219178 0.000000
vt 0.746575 0.000000
vt 0.739726 0.000000
vt 0.226027 0.000000
vt 0.232877 0.000000
vt 0.239726 0.000000
vt 0.246575 0.000000
vt 0.253425 0.000000
vt 0.260274 0.000000
vt 0.267123 0.000000
vt 0.273973 0.000000
vt 0.732877 0.000000
vt 0.280822 0.000000
vt 0.726027 0.000000
vt 0.719178 0.000000
vt 0.712329 0.000000
vt 0.287671 0.000000
vt 0.705479 0.000000
vt 0.698630 0.000000
vt 0.294521 0.000000
vt 0.691781 0.000000
vt 0.301370 0.000000
vt 0.684932 0.000000
vt 0.678082 0.000000
vt 0.308219 0.000000
vt 0.671233 0.000000
vt 0.315068 0.000000
vt 0.664384 0.000000
vt 0.321918 0.000000
vt 0.657534 0.000000
vt 0.328767 0.000000
vt 0.650685 0.000000
vt 0.643836 0.000000
vt 0.335616 0.000000
vt 0.636986 0.000000
vt 0.630137 0.000000
vt 0.342466 0.000000
vt 0.486301 0.000000
vt 0.500000 0.000000
vt 0.493151 0.000000
vt 0.623288 0.000000
vt 0.506849 0.000000
vt 0.616438 0.000000
vt 0.513699 0.000000
vt 0.349315 0.000000
vt 0.609589 0.000000
vt 0.520548 0.000000
vt 0.527397 0.000000
vt 0.602740 0.000000
vt 0.534247 0.000000
vt 0.595890 0.000000
vt 0.541096 0.000000
vt 0.547945 0.000000
vt 0.589041 0.000000
vt 0.356164 0.000000
vt 0.554795 0.000000
vt 0.582192 0.000000
vt 0.561644 0.000000
vt 0.568493 0.000000
vt 0.575342 0.000000
vt 0.363014 0.000000
vt 0.369863 0.000000
vt 0.376712 0.000000
vt 0.479452 0.000000
vt 0.472603 0.000000
vt 0.465753 0.000000
vt 0.383562 0.000000
vt 0.458904 0.000000
vt 0.452055 0.000000
vt 0.390411 0.000000
vt 0.445205 0.000000
vt 0.438356 0.000000
vt 0.431507 0.000000
vt 0.397260 0.000000
vt 0.424658 0.000000
vt 0.417808 0.000000
vt 0.404110 0.000000
vt 0.410959 0.000000
vt 0.666667 0.000000
vt 0.333333 0.000000
vt 0.250000 1.000000
vt 0.000000 1.000000
vt 0.500000 1.000000
vt 0.250000 0.000000
vt 0.750000 1.000000
vt 1.000000 1.000000
vt 0.750000 0.000000
vt 0.006803 1.000000
vt 0.013605 1.000000
vt 0.006803 0.000000
vt 0.020408 1.000000
vt 0.013605 0.000000
vt 0.027211 1.000000
vt 0.020408 0.000000
vt 0.034014 1.000000
vt 0.027211 0.000000
vt 0.040816 1.000000
vt 0.034014 0.000000
vt 0.047619 1.000000
vt 0.040816 0.000000
vt 0.054422 1.000000
vt 0.047619 0.000000
vt 0.061224 1.000000
vt 0.054422 0.000000
vt 0.068027 1.000000
vt 0.061224 0.000000
vt 0.074830 1.000000
vt 0.068027 0.000000
vt 0.081633 1.000000
vt 0.074830 0.000000
vt 0.088435 1.000000
vt 0.081633 0.000000
vt 0.095238 1.000000
vt 0.088435 0.000000
vt 0.102041 1.000000
vt 0.095238 0.000000
vt 0.108844 1.000000
vt 0.102041 0.000000
vt 0.115646 1.000000
vt 0.108844 0.000000
vt 0.122449 1.000000
vt 0.115646 0.000000
vt 0.129252 1.000000
vt 0.122449 0.000000
vt 0.136054 1.000000
vt 0.129252 0.000000
vt 0.142857 1.000000
vt 0.136054 0.000000
vt 0.149660 1.000000
vt 0.142857 0.000000
vt 0.156463 1.000000
vt 0.149660 0.000000
vt 0.163265 1.000000
vt 0.156463 0.000000
vt 0.170068 1.000000
vt 0.163265 0.000000
vt 0.176871 1.000000
vt 0.170068 0.000000
vt 0.183673 1.000000
vt 0.176871 0.000000
vt 0.190476 1.000000
vt 0.183673 0.000000
vt 0.197279 1.000000
vt 0.190476 0.000000
vt 0.204082 1.000000
vt 0.197279 0.000000
vt 0.210884 1.000000
vt 0.204082 0.000000
vt 0.217687 1.000000
vt 0.210884 0.000000
vt 0.224490 1.000000
vt 0.217687 0.000000
vt 0.231293 1.000000
vt 0.224490 0.000000
vt 0.238095 1.000000
vt 0.231293 0.000000
vt 0.244898 1.000000
vt 0.238095 0.000000
vt 0.251701 1.000000
vt 0.244898 0.000000
vt 0.258503 1.000000
vt 0.251701 0.000000
vt 0.265306 1.000000
vt 0.258503 0.000000
vt 0.272109 1.000000
vt 0.265306 0.000000
vt 0.278912 1.000000
vt 0.272109 0.000000
vt 0.285714 1.000000
vt 0.278912 0.000000
vt 0.292517 1.000000
vt 0.285714 0.000000
vt 0.299320 1.000000
vt 0.292517 0.000000
vt 0.306122 1.000000
vt 0.299320 0.000000
vt 0.312925 1.000000
vt 0.306122 0.000000
vt 0.319728 1.000000
vt 0.312925 0.000000
vt 0.326531 1.000000
vt 0.319728 0.000000
vt 0.333333 1.000000
vt 0.326531 0.000000
vt 0.340136 1.000000
vt 0.346939 1.000000
vt 0.340136 0.000000
vt 0.353741 1.000000
vt 0.346939 0.000000
vt 0.360544 1.000000
vt 0.353741 0.000000
vt 0.367347 1.000000
vt 0.360544 0.000000
vt 0.374150 1.000000
vt 0.367347 0.000000
vt 0.380952 1.000000
vt 0.374150 0.000000
vt 0.387755 1.000000
vt 0.380952 0.000000
vt 0.394558 1.000000
vt 0.387755 0.000000
vt 0.401361 1.000000
vt 0.394558 0.000000
vt 0.408163 1.000000
vt 0.401361 0.000000
vt 0.414966 1.000000
vt 0.408163 0.000000
vt 0.421769 1.000000
vt 0.414966 0.000000
vt 0.428571 1.000000
vt 0.421769 0.000000
vt 0.435374 1.000000
vt 0.428571 0.000000
vt 0.442177 1.000000
vt 0.435374 0.000000
vt 0.448980 1.000000
vt 0.442177 0.000000
vt 0.455782 1.000000
vt 0.448980 0.000000
vt 0.462585 1.000000
vt 0.455782 0.000000
vt 0.469388 1.000000
vt 0.462585 0.000000
vt 0.476190 1.000000
vt 0.469388 0.000000
vt 0.482993 1.000000
vt 0.476190 0.000000
vt 0.489796 1.000000
vt 0.482993 0.000000
vt 0.496599 1.000000
vt 0.489796 0.000000
vt 0.503401 1.000000
vt 0.496599 0.000000
vt 0.510204 1.000000
vt 0.503401 0.000000
vt 0.517007 1.000000
vt 0.510204 0.000000
vt 0.523810 1.000000
vt 0.517007 0.000000
vt 0.530612 1.000000
vt 0.523810 0.000000
vt 0.537415 1.000000
vt 0.530612 0.000000
vt 0.544218 1.000000
vt 0.537415 0.000000
vt 0.551020 1.000000
vt 0.544218 0.000000
vt 0.557823 1.000000
vt 0.551020 0.000000
vt 0.564626 1.000000
vt 0.557823 0.000000
vt 0.571429 1.000000
vt 0.564626 0.000000
vt 0.578231 1.000000
vt 0.571429 0.000000
vt 0.585034 1.000000
vt 0.578231 0.000000
vt 0.591837 1.000000
vt 0.585034 0.000000
vt 0.598639 1.000000
vt 0.591837 0.000000
vt 0.605442 1.000000
vt 0.598639 0.000000
vt 0.612245 1.000000
vt 0.605442 0.000000
vt 0.619048 1.000000
vt 0.612245 0.000000
vt 0.625850 1.000000
vt 0.619048 0.000000
vt 0.632653 1.000000
vt 0.625850 0.000000
vt 0.639456 1.000000
vt 0.632653 0.000000
vt 0.646259 1.000000
vt 0.639456 0.000000
vt 0.653061 1.000000
vt 0.646259 0.000000
vt 0.659864 1.000000
vt 0.653061 0.000000
vt 0.666667 1.000000
vt 0.659864 0.000000
vt 0.673469 1.000000
vt 0.680272 1.000000
vt 0.673469 0.000000
vt 0.687075 1.000000
vt 0.680272 0.000000
vt 0.693878 1.000000
vt 0.687075 0.000000
vt 0.700680 1.000000
vt 0.693878 0.000000
vt 0.707483 1.000000
vt 0.700680 0.000000
vt 0.714286 1.000000
vt 0.707483 0.000000
vt 0.721088 1.000000
vt 0.714286 0.000000
vt 0.727891 1.000000
vt 0.721088 0.000000
vt 0.734694 1.000000
vt 0.727891 0.000000
vt 0.741497 1.000000
vt 0.734694 0.000000
vt 0.748299 1.000000
vt 0.741497 0.000000
vt 0.755102 1.000000
vt 0.748299 0.000000
vt 0.761905 1.000000
vt 0.755102 0.000000
vt 0.768707 1.000000
vt 0.761905 0.000000
vt 0.775510 1.000000
vt 0.768707 0.000000
vt 0.782313 1.000000
vt 0.775510 0.000000
vt 0.789116 1.000000
vt 0.782313 0.000000
vt 0.795918 1.000000
vt 0.789116 0.000000
vt 0.802721 1.000000
vt 0.795918 0.000000
vt 0.809524 1.000000
vt 0.802721 0.000000
vt 0.816327 1.000000
vt 0.809524 0.000000
vt 0.823129 1.000000
vt 0.816327 0.000000
vt 0.829932 1.000000
vt 0.823129 0.000000
vt 0.836735 1.000000
vt 0.829932 0.000000
vt 0.843537 1.000000
vt 0.836735 0.000000
vt 0.850340 1.000000
vt 0.843537 0.000000
vt 0.857143 1.000000
vt 0.850340 0.000000
vt 0.863946 1.000000
vt 0.857143 0.000000
vt 0.870748 1.000000
vt 0.863946 0.000000
vt 0.877551 1.000000
vt 0.870748 0.000000
vt 0.884354 1.000000
vt 0.877551 0.000000
vt 0.891156 1.000000
vt 0.884354 0.000000
vt 0.897959 1.000000
vt 0.891156 0.000000
vt 0.904762 1.000000
vt 0.897959 0.000000
vt 0.911565 1.000000
vt 0.904762 0.000000
vt 0.918367 1.000000
vt 0.911565 0.000000
vt 0.925170 1.000000
vt 0.918367 0.000000
vt 0.931973 1.000000
vt 0.925170 0.000000
vt 0.938776 1.000000
vt 0.931973 0.000000
vt 0.945578 1.000000
vt 0.938776 0.000000
vt 0.952381 1.000000
vt 0.945578 0.000000
vt 0.959184 1.000000
vt 0.952381 0.000000
vt 0.965986 1.000000
vt 0.959184 0.000000
vt 0.972789 1.000000
vt 0.965986 0.000000
vt 0.979592 1.000000
vt 0.972789 0.000000
vt 0.986395 1.000000
vt 0.979592 0.000000
vt 0.993197 1.000000
vt 0.986395 0.000000
vt 0.993197 0.000000
s 0
usemtl マテリアル
f 11/1/1 13/2/1 12/3/1
f 10/4/1 13/2/1 11/1/1
f 9/5/1 13/2/1 10/4/1
f 9/5/1 14/6/1 13/2/1
f 8/7/1 14/6/1 9/5/1
f 7/8/1 14/6/1 8/7/1
f 6/9/1 14/6/1 7/8/1
f 6/9/1 15/10/1 14/6/1
f 5/11/1 15/10/1 6/9/1
f 4/12/1 15/10/1 5/11/1
f 3/13/1 15/10/1 4/12/1
f 3/13/1 16/14/1 15/10/1
f 2/15/1 16/14/1 3/13/1
f 1/16/1 16/14/1 2/15/1
f 1/16/1 17/17/1 16/14/1
f 147/18/1 17/17/1 1/16/1
f 146/19/1 145/20/1 147/18/1
f 145/20/1 144/21/1 147/18/1
f 144/21/1 143/22/1 147/18/1
f 143/22/1 142/23/1 147/18/1
f 142/23/1 17/17/1 147/18/1
f 142/23/1 141/24/1 17/17/1
f 141/24/1 140/25/1 17/17/1
f 140/25/1 18/26/1 17/17/1
f 140/25/1 139/27/1 18/26/1
f 139/27/1 138/28/1 18/26/1
f 138/28/1 19/29/1 18/26/1
f 138/28/2 137/30/2 19/29/2
f 137/30/1 136/31/1 19/29/1
f 136/31/1 135/32/1 19/29/1
f 135/32/1 20/33/1 19/29/1
f 135/32/1 134/34/1 20/33/1
f 134/34/1 133/35/1 20/33/1
f 133/35/1 21/36/1 20/33/1
f 132/37/1 21/36/1 133/35/1
f 131/38/1 21/36/1 132/37/1
f 130/39/1 21/36/1 131/38/1
f 130/39/1 22/40/1 21/36/1
f 129/41/1 22/40/1 130/39/1
f 128/42/1 22/40/1 129/41/1
f 127/43/1 22/40/1 128/42/1
f 127/43/1 23/44/1 22/40/1
f 126/45/1 23/44/1 127/43/1
f 125/46/1 23/44/1 126/45/1
f 125/46/1 24/47/1 23/44/1
f 124/48/1 24/47/1 125/46/1
f 123/49/1 24/47/1 124/48/1
f 123/49/1 25/50/1 24/47/1
f 122/51/1 25/50/1 123/49/1
f 121/52/1 25/50/1 122/51/1
f 121/52/1 26/53/1 25/50/1
f 120/54/1 26/53/1 121/52/1
f 120/54/1 27/55/1 26/53/1
f 119/56/1 27/55/1 120/54/1
f 119/56/1 28/57/1 27/55/1
f 118/58/1 28/57/1 119/56/1
f 118/58/1 29/59/1 28/57/1
f 117/60/1 29/59/1 118/58/1
f 117/60/1 30/61/1 29/59/1
f 116/62/1 30/61/1 117/60/1
f 115/63/1 30/61/1 116/62/1
f 115/63/1 31/64/1 30/61/1
f 114/65/1 31/64/1 115/63/1
f 114/65/1 32/66/1 31/64/1
f 113/67/1 32/66/1 114/65/1
f 112/68/1 32/66/1 113/67/1
f 111/69/1 32/66/1 112/68/1
f 111/69/1 33/70/1 32/66/1
f 110/71/1 33/70/1 111/69/1
f 109/72/1 33/70/1 110/71/1
f 109/72/1 34/73/1 33/70/1
f 109/72/1 35/74/1 34/73/1
f 109/72/1 36/75/1 35/74/1
f 109/72/1 37/76/1 36/75/1
f 109/72/1 38/77/1 37/76/1
f 109/72/1 39/78/1 38/77/1
f 109/72/1 40/79/1 39/78/1
f 109/72/1 41/80/1 40/79/1
f 109/72/1 108/81/1 41/80/1
f 108/81/1 42/82/1 41/80/1
f 107/83/1 42/82/1 108/81/1
f 106/84/1 42/82/1 107/83/1
f 105/85/1 42/82/1 106/84/1
f 105/85/1 43/86/1 42/82/1
f 104/87/1 43/86/1 105/85/1
f 103/88/1 43/86/1 104/87/1
f 103/88/1 44/89/1 43/86/1
f 102/90/1 44/89/1 103/88/1
f 102/90/1 45/91/1 44/89/1
f 101/92/1 45/91/1 102/90/1
f 100/93/1 45/91/1 101/92/1
f 100/93/1 46/94/1 45/91/1
f 99/95/1 46/94/1 100/93/1
f 99/95/1 47/96/1 46/94/1
f 98/97/1 47/96/1 99/95/1
f 98/97/1 48/98/1 47/96/1
f 97/99/1 48/98/1 98/97/1
f 97/99/1 49/100/1 48/98/1
f 96/101/1 49/100/1 97/99/1
f 95/102/1 49/100/1 96/101/1
f 95/102/1 50/103/1 49/100/1
f 94/104/1 50/103/1 95/102/1
f 93/105/1 50/103/1 94/104/1
f 93/105/1 51/106/1 50/103/1
f 72/107/1 74/108/1 73/109/1
f 92/110/1 51/106/1 93/105/1
f 72/107/1 75/111/1 74/108/1
f 91/112/1 51/106/1 92/110/1
f 72/107/1 76/113/1 75/111/1
f 91/112/1 52/114/1 51/106/1
f 90/115/1 52/114/1 91/112/1
f 72/107/1 77/116/1 76/113/1
f 72/107/1 78/117/1 77/116/1
f 89/118/1 52/114/1 90/115/1
f 72/107/1 79/119/1 78/117/1
f 88/120/1 52/114/1 89/118/1
f 72/107/1 80/121/1 79/119/1
f 72/107/1 81/122/1 80/121/1
f 87/123/1 52/114/1 88/120/1
f 87/123/1 53/124/1 52/114/1
f 72/107/1 82/125/1 81/122/1
f 86/126/1 53/124/1 87/123/1
f 72/107/1 83/127/1 82/125/1
f 72/107/1 84/128/1 83/127/1
f 85/129/1 53/124/1 86/126/1
f 72/107/1 85/129/1 84/128/1
f 72/107/1 53/124/1 85/129/1
f 72/107/1 54/130/1 53/124/1
f 72/107/1 55/131/1 54/130/1
f 72/107/1 56/132/1 55/131/1
f 71/133/1 56/132/1 72/107/1
f 70/134/1 56/132/1 71/133/1
f 69/135/1 56/132/1 70/134/1
f 69/135/1 57/136/1 56/132/1
f 68/137/1 57/136/1 69/135/1
f 67/138/1 57/136/1 68/137/1
f 67/138/1 58/139/1 57/136/1
f 66/140/1 58/139/1 67/138/1
f 65/141/1 58/139/1 66/140/1
f 64/142/1 58/139/1 65/141/1
f 64/142/1 59/143/1 58/139/1
f 63/144/1 59/143/1 64/142/1
f 62/145/1 59/143/1 63/144/1
f 62/145/1 60/146/1 59/143/1
f 61/147/1 60/146/1 62/145/1
f 148/16/1 150/148/1 149/149/1
f 148/16/1 151/18/1 150/148/1
f 162/1/3 163/3/3 164/2/3
f 161/4/3 162/1/3 164/2/3
f 160/5/3 161/4/3 164/2/3
f 160/5/3 164/2/3 165/6/3
f 159/7/3 160/5/3 165/6/3
f 158/8/3 159/7/3 165/6/3
f 157/9/3 158/8/3 165/6/3
f 157/9/3 165/6/3 166/10/3
f 156/11/3 157/9/3 166/10/3
f 155/12/3 156/11/3 166/10/3
f 154/13/3 155/12/3 166/10/3
f 154/13/3 166/10/3 167/14/3
f 153/15/3 154/13/3 167/14/3
f 152/16/3 153/15/3 167/14/3
f 152/16/3 167/14/3 168/17/3
f 298/18/3 152/16/3 168/17/3
f 297/19/3 298/18/3 296/20/3
f 296/20/3 298/18/3 295/21/3
f 295/21/3 298/18/3 294/22/3
f 294/22/3 298/18/3 293/23/3
f 293/23/3 298/18/3 168/17/3
f 293/23/3 168/17/3 292/24/3
f 292/24/3 168/17/3 291/25/3
f 291/25/3 168/17/3 169/26/3
f 291/25/3 169/26/3 290/27/3
f 290/27/3 169/26/3 289/28/3
f 289/28/3 169/26/3 170/29/3
f 289/28/4 170/29/4 288/30/4
f 288/30/3 170/29/3 287/31/3
f 287/31/3 170/29/3 286/32/3
f 286/32/3 170/29/3 171/33/3
f 286/32/3 171/33/3 285/34/3
f 285/34/3 171/33/3 284/35/3
f 284/35/3 171/33/3 172/36/3
f 283/37/3 284/35/3 172/36/3
f 282/38/3 283/37/3 172/36/3
f 281/39/3 282/38/3 172/36/3
f 281/39/3 172/36/3 173/40/3
f 280/41/3 281/39/3 173/40/3
f 279/42/3 280/41/3 173/40/3
f 278/43/3 279/42/3 173/40/3
f 278/43/3 173/40/3 174/44/3
f 277/45/3 278/43/3 174/44/3
f 276/46/3 277/45/3 174/44/3
f 276/46/3 174/44/3 175/47/3
f 275/48/3 276/46/3 175/47/3
f 274/49/3 275/48/3 175/47/3
f 274/49/3 175/47/3 176/50/3
f 273/51/3 274/49/3 176/50/3
f 272/52/3 273/51/3 176/50/3
f 272/52/3 176/50/3 177/53/3
f 271/54/3 272/52/3 177/53/3
f 271/54/3 177/53/3 178/55/3
f 270/56/3 271/54/3 178/55/3
f 270/56/3 178/55/3 179/57/3
f 269/58/3 270/56/3 179/57/3
f 269/58/3 179/57/3 180/59/3
f 268/60/3 269/58/3 180/59/3
f 268/60/3 180/59/3 181/61/3
f 267/62/3 268/60/3 181/61/3
f 266/63/3 267/62/3 181/61/3
f 266/63/3 181/61/3 182/64/3
f 265/65/3 266/63/3 182/64/3
f 265/65/3 182/64/3 183/66/3
f 264/67/3 265/65/3 183/66/3
f 263/68/3 264/67/3 183/66/3
f 262/69/3 263/68/3 183/66/3
f 262/69/3 183/66/3 184/70/3
f 261/71/3 262/69/3 184/70/3
f 260/72/3 261/71/3 184/70/3
f 260/72/3 184/70/3 185/73/3
f 260/72/3 185/73/3 186/74/3
f 260/72/3 186/74/3 187/75/3
f 260/72/3 187/75/3 188/76/3
f 260/72/3 188/76/3 189/77/3
f 260/72/3 189/77/3 190/78/3
f 260/72/3 190/78/3 191/79/3
f 260/72/3 191/79/3 192/80/3
f 260/72/3 192/80/3 259/81/3
f 259/81/3 192/80/3 193/82/3
f 258/83/3 259/81/3 193/82/3
f 257/84/3 258/83/3 193/82/3
f 256/85/3 257/84/3 193/82/3
f 256/85/3 193/82/3 194/86/3
f 255/87/3 256/85/3 194/86/3
f 254/88/3 255/87/3 194/86/3
f 254/88/3 194/86/3 195/89/3
f 253/90/3 254/88/3 195/89/3
f 253/90/3 195/89/3 196/91/3
f 252/92/3 253/90/3 196/91/3
f 251/93/3 252/92/3 196/91/3
f 251/93/3 196/91/3 197/94/3
f 250/95/3 251/93/3 197/94/3
f 250/95/3 197/94/3 198/96/3
f 249/97/3 250/95/3 198/96/3
f 249/97/3 198/96/3 199/98/3
f 248/99/3 249/97/3 199/98/3
f 248/99/3 199/98/3 200/100/3
f 247/101/3 248/99/3 200/100/3
f 246/102/3 247/101/3 200/100/3
f 246/102/3 200/100/3 201/103/3
f 245/104/3 246/102/3 201/103/3
f 244/105/3 245/104/3 201/103/3
f 244/105/3 201/103/3 202/106/3
f 223/107/3 224/109/3 225/108/3
f 243/110/3 244/105/3 202/106/3
f 223/107/3 225/108/3 226/111/3
f 242/112/3 243/110/3 202/106/3
f 223/107/3 226/111/3 227/113/3
f 242/112/3 202/106/3 203/114/3
f 241/115/3 242/112/3 203/114/3
f 223/107/3 227/113/3 228/116/3
f 223/107/3 228/116/3 229/117/3
f 240/118/3 241/115/3 203/114/3
f 223/107/3 229/117/3 230/119/3
f 239/120/3 240/118/3 203/114/3
f 223/107/3 230/119/3 231/121/3
f 223/107/3 231/121/3 232/122/3
f 238/123/3 239/120/3 203/114/3
f 238/123/3 203/114/3 204/124/3
f 223/107/3 232/122/3 233/125/3
f 237/126/3 238/123/3 204/124/3
f 223/107/3 233/125/3 234/127/3
f 223/107/3 234/127/3 235/128/3
f 236/129/3 237/126/3 204/124/3
f 223/107/3 235/128/3 236/129/3
f 223/107/3 236/129/3 204/124/3
f 223/107/3 204/124/3 205/130/3
f 223/107/3 205/130/3 206/131/3
f 223/107/3 206/131/3 207/132/3
f 222/133/3 223/107/3 207/132/3
f 221/134/3 222/133/3 207/132/3
f 220/135/3 221/134/3 207/132/3
f 220/135/3 207/132/3 208/136/3
f 219/137/3 220/135/3 208/136/3
f 218/138/3 219/137/3 208/136/3
f 218/138/3 208/136/3 209/139/3
f 217/140/3 218/138/3 209/139/3
f 216/141/3 217/140/3 209/139/3
f 215/142/3 216/141/3 209/139/3
f 215/142/3 209/139/3 210/143/3
f 214/144/3 215/142/3 210/143/3
f 213/145/3 214/144/3 210/143/3
f 213/145/3 210/143/3 211/146/3
f 212/147/3 213/145/3 211/146/3
f 299/16/3 300/149/3 301/148/3
f 299/16/3 301/148/3 302/18/3
s 1
f 306/150/5 303/16/6 304/151/6
f 308/152/7 305/153/5 306/150/5
f 310/154/8 307/108/7 308/152/7
f 304/155/6 309/156/8 310/154/8
f 314/157/9 311/16/10 312/151/10
f 316/158/11 313/159/9 314/157/9
f 318/160/12 315/161/11 316/158/11
f 320/162/13 317/163/12 318/160/12
f 322/164/14 319/165/13 320/162/13
f 324/166/15 321/167/14 322/164/14
f 326/168/16 323/169/15 324/166/15
f 328/170/17 325/171/16 326/168/16
f 330/172/18 327/173/17 328/170/17
f 332/174/19 329/175/18 330/172/18
f 334/176/20 331/177/19 332/174/19
f 336/178/21 333/179/20 334/176/20
f 338/180/22 335/181/21 336/178/21
f 340/182/23 337/183/22 338/180/22
f 342/184/24 339/185/23 340/182/23
f 344/186/25 341/187/24 342/184/24
f 346/188/26 343/189/25 344/186/25
f 348/190/27 345/191/26 346/188/26
f 350/192/28 347/193/27 348/190/27
f 352/194/29 349/195/28 350/192/28
f 354/196/30 351/197/29 352/194/29
f 356/198/31 353/199/30 354/196/30
f 358/200/32 355/201/31 356/198/31
f 360/202/33 357/203/32 358/200/32
f 362/204/34 359/205/33 360/202/33
f 364/206/35 361/207/34 362/204/34
f 366/208/36 363/209/35 364/206/35
f 368/210/37 365/211/36 366/208/36
f 370/212/38 367/213/37 368/210/37
f 372/214/39 369/215/38 370/212/38
f 374/216/40 371/217/39 372/214/39
f 376/218/41 373/219/40 374/216/40
f 378/220/42 375/221/41 376/218/41
f 380/222/43 377/223/44 378/220/42
f 382/224/45 379/225/43 380/222/43
f 384/226/46 381/227/45 382/224/45
f 386/228/47 383/229/46 384/226/46
f 388/230/48 385/231/47 386/228/47
f 390/232/49 387/233/48 388/230/48
f 392/234/50 389/235/49 390/232/49
f 394/236/51 391/237/52 392/234/50
f 396/238/53 393/239/51 394/236/51
f 398/240/54 395/241/53 396/238/53
f 400/242/55 397/243/54 398/240/54
f 402/244/56 399/245/55 400/242/55
f 404/246/57 401/247/56 402/244/56
f 406/248/58 403/249/57 404/246/57
f 408/250/59 405/251/58 406/248/58
f 410/252/60 407/253/59 408/250/59
f 412/254/61 409/149/60 410/252/60
f 414/255/62 411/256/61 412/254/61
f 416/257/63 413/258/62 414/255/62
f 418/259/64 415/260/63 416/257/63
f 420/261/65 417/262/64 418/259/64
f 422/263/66 419/264/65 420/261/65
f 424/265/67 421/266/66 422/263/66
f 426/267/68 423/268/67 424/265/67
f 428/269/69 425/270/68 426/267/68
f 430/271/70 427/272/69 428/269/69
f 432/273/71 429/274/70 430/271/70
f 434/275/72 431/276/71 432/273/71
f 436/277/73 433/278/72 434/275/72
f 438/279/74 435/280/73 436/277/73
f 440/281/75 437/282/74 438/279/74
f 442/283/76 439/284/75 440/281/75
f 444/285/77 441/286/76 442/283/76
f 446/287/78 443/288/77 444/285/77
f 448/289/79 445/290/78 446/287/78
f 450/291/80 447/292/79 448/289/79
f 452/293/81 449/294/80 450/291/80
f 454/295/82 451/296/81 452/293/81
f 456/297/83 453/298/82 454/295/82
f 458/299/84 455/300/83 456/297/83
f 460/301/85 457/302/84 458/299/84
f 462/303/86 459/304/85 460/301/85
f 464/305/87 461/306/86 462/303/86
f 466/307/88 463/308/87 464/305/87
f 468/309/89 465/310/88 466/307/88
f 470/311/90 467/312/89 468/309/89
f 472/313/91 469/314/90 470/311/90
f 474/315/92 471/316/91 472/313/91
f 476/317/93 473/318/92 474/315/92
f 478/319/94 475/320/93 476/317/93
f 480/321/95 477/322/94 478/319/94
f 482/323/96 479/324/95 480/321/95
f 484/325/97 481/326/96 482/323/96
f 486/327/98 483/328/97 484/325/97
f 488/329/99 485/330/98 486/327/98
f 490/331/100 487/332/99 488/329/99
f 492/333/101 489/334/100 490/331/100
f 494/335/102 491/336/101 492/333/101
f 496/337/103 493/338/102 494/335/102
f 498/339/104 495/340/103 496/337/103
f 500/341/105 497/342/106 498/339/104
f 502/343/107 499/344/105 500/341/105
f 504/345/108 501/346/107 502/343/107
f 506/347/109 503/348/108 504/345/108
f 508/349/110 505/350/109 506/347/109
f 510/351/111 507/148/110 508/349/110
f 512/352/112 509/353/111 510/351/111
f 514/354/113 511/355/112 512/352/112
f 516/356/114 513/357/113 514/354/113
f 518/358/115 515/359/114 516/356/114
f 520/360/116 517/361/115 518/358/115
f 522/362/117 519/363/116 520/360/116
f 524/364/118 521/365/117 522/362/117
f 526/366/119 523/367/118 524/364/118
f 528/368/120 525/369/119 526/366/119
f 530/370/121 527/371/120 528/368/120
f 532/372/122 529/373/121 530/370/121
f 534/374/123 531/375/122 532/372/122
f 536/376/124 533/377/123 534/374/123
f 538/378/125 535/379/124 536/376/124
f 540/380/126 537/381/125 538/378/125
f 542/382/127 539/383/126 540/380/126
f 544/384/128 541/385/127 542/382/127
f 546/386/129 543/387/128 544/384/128
f 548/388/130 545/389/129 546/386/129
f 550/390/131 547/391/130 548/388/130
f 552/392/132 549/393/131 550/390/131
f 554/394/133 551/395/132 552/392/132
f 556/396/134 553/397/133 554/394/133
f 558/398/135 555/399/134 556/396/134
f 560/400/136 557/401/135 558/398/135
f 562/402/137 559/403/136 560/400/136
f 564/404/138 561/405/137 562/402/137
f 566/406/139 563/407/138 564/404/138
f 568/408/140 565/409/139 566/406/139
f 570/410/141 567/411/140 568/408/140
f 572/412/142 569/413/141 570/410/141
f 574/414/143 571/415/142 572/412/142
f 576/416/144 573/417/143 574/414/143
f 578/418/145 575/419/144 576/416/144
f 580/420/146 577/421/145 578/418/145
f 582/422/147 579/423/146 580/420/146
f 584/424/148 581/425/147 582/422/147
f 586/426/149 583/427/148 584/424/148
f 588/428/150 585/429/149 586/426/149
f 590/430/151 587/431/150 588/428/150
f 592/432/152 589/433/151 590/430/151
f 594/434/153 591/435/152 592/432/152
f 596/436/154 593/437/153 594/434/153
f 598/438/155 595/439/154 596/436/154
f 600/440/156 597/441/155 598/438/155
f 602/442/157 599/443/156 600/440/156
f 604/444/158 601/445/159 602/442/157
f 312/155/10 603/446/158 604/444/158
f 306/150/5 305/153/5 303/16/6
f 308/152/7 307/108/7 305/153/5
f 310/154/8 309/156/8 307/108/7
f 304/155/6 303/18/6 309/156/8
f 314/157/9 313/159/9 311/16/10
f 316/158/11 315/161/11 313/159/9
f 318/160/12 317/163/12 315/161/11
f 320/162/13 319/165/13 317/163/12
f 322/164/14 321/167/14 319/165/13
f 324/166/15 323/169/15 321/167/14
f 326/168/16 325/171/16 323/169/15
f 328/170/17 327/173/17 325/171/16
f 330/172/18 329/175/18 327/173/17
f 332/174/19 331/177/19 329/175/18
f 334/176/20 333/179/20 331/177/19
f 336/178/21 335/181/21 333/179/20
f 338/180/22 337/183/22 335/181/21
f 340/182/23 339/185/23 337/183/22
f 342/184/24 341/187/24 339/185/23
f 344/186/25 343/189/25 341/187/24
f 346/188/26 345/191/26 343/189/25
f 348/190/27 347/193/27 345/191/26
f 350/192/28 349/195/28 347/193/27
f 352/194/29 351/197/29 349/195/28
f 354/196/30 353/199/30 351/197/29
f 356/198/31 355/201/31 353/199/30
f 358/200/32 357/203/32 355/201/31
f 360/202/33 359/205/33 357/203/32
f 362/204/34 361/207/34 359/205/33
f 364/206/35 363/209/35 361/207/34
f 366/208/36 365/211/36 363/209/35
f 368/210/37 367/213/37 365/211/36
f 370/212/38 369/215/38 367/213/37
f 372/214/39 371/217/39 369/215/38
f 374/216/40 373/219/40 371/217/39
f 376/218/41 375/221/41 373/219/40
f 378/220/42 377/223/44 375/221/41
f 380/222/43 379/225/43 377/223/44
f 382/224/45 381/227/45 379/225/43
f 384/226/46 383/229/46 381/227/45
f 386/228/47 385/231/47 383/229/46
f 388/230/48 387/233/48 385/231/47
f 390/232/49 389/235/49 387/233/48
f 392/234/50 391/237/52 389/235/49
f 394/236/51 393/239/51 391/237/52
f 396/238/53 395/241/53 393/239/51
f 398/240/54 397/243/54 395/241/53
f 400/242/55 399/245/55 397/243/54
f 402/244/56 401/247/56 399/245/55
f 404/246/57 403/249/57 401/247/56
f 406/248/58 405/251/58 403/249/57
f 408/250/59 407/253/59 405/251/58
f 410/252/60 409/149/60 407/253/59
f 412/254/61 411/256/61 409/149/60
f 414/255/62 413/258/62 411/256/61
f 416/257/63 415/260/63 413/258/62
f 418/259/64 417/262/64 415/260/63
f 420/261/65 419/264/65 417/262/64
f 422/263/66 421/266/66 419/264/65
f 424/265/67 423/268/67 421/266/66
f 426/267/68 425/270/68 423/268/67
f 428/269/69 427/272/69 425/270/68
f 430/271/70 429/274/70 427/272/69
f 432/273/71 431/276/71 429/274/70
f 434/275/72 433/278/72 431/276/71
f 436/277/73 435/280/73 433/278/72
f 438/279/74 437/282/74 435/280/73
f 440/281/75 439/284/75 437/282/74
f 442/283/76 441/286/76 439/284/75
f 444/285/77 443/288/77 441/286/76
f 446/287/78 445/290/78 443/288/77
f 448/289/79 447/292/79 445/290/78
f 450/291/80 449/294/80 447/292/79
f 452/293/81 451/296/81 449/294/80
f 454/295/82 453/298/82 451/296/81
f 456/297/83 455/300/83 453/298/82
f 458/299/84 457/302/84 455/300/83
f 460/301/85 459/304/85 457/302/84
f 462/303/86 461/306/86 459/304/85
f 464/305/87 463/308/87 461/306/86
f 466/307/88 465/310/88 463/308/87
f 468/309/89 467/312/89 465/310/88
f 470/311/90 469/314/90 467/312/89
f 472/313/91 471/316/91 469/314/90
f 474/315/92 473/318/92 471/316/91
f 476/317/93 475/320/93 473/318/92
f 478/319/94 477/322/94 475/320/93
f 480/321/95 479/324/95 477/322/94
f 482/323/96 481/326/96 479/324/95
f 484/325/97 483/328/97 481/326/96
f 486/327/98 485/330/98 483/328/97
f 488/329/99 487/332/99 485/330/98
f 490/331/100 489/334/100 487/332/99
f 492/333/101 491/336/101 489/334/100
f 494/335/102 493/338/102 491/336/101
f 496/337/103 495/340/103 493/338/102
f 498/339/104 497/342/106 495/340/103
f 500/341/105 499/344/105 497/342/106
f 502/343/107 501/346/107 499/344/105
f 504/345/108 503/348/108 501/346/107
f 506/347/109 505/350/109 503/348/108
f 508/349/110 507/148/110 505/350/109
f 510/351/111 509/353/111 507/148/110
f 512/352/112 511/355/112 509/353/111
f 514/354/113 513/357/113 511/355/112
f 516/356/114 515/359/114 513/357/113
f 518/358/115 517/361/115 515/359/114
f 520/360/116 519/363/116 517/361/115
f 522/362/117 521/365/117 519/363/116
f 524/364/118 523/367/118 521/365/117
f 526/366/119 525/369/119 523/367/118
f 528/368/120 527/371/120 525/369/119
f 530/370/121 529/373/121 527/371/120
f 532/372/122 531/375/122 529/373/121
f 534/374/123 533/377/123 531/375/122
f 536/376/124 535/379/124 533/377/123
f 538/378/125 537/381/125 535/379/124
f 540/380/126 539/383/126 537/381/125
f 542/382/127 541/385/127 539/383/126
f 544/384/128 543/387/128 541/385/127
f 546/386/129 545/389/129 543/387/128
f 548/388/130 547/391/130 545/389/129
f 550/390/131 549/393/131 547/391/130
f 552/392/132 551/395/132 549/393/131
f 554/394/133 553/397/133 551/395/132
f 556/396/134 555/399/134 553/397/133
f 558/398/135 557/401/135 555/399/134
f 560/400/136 559/403/136 557/401/135
f 562/402/137 561/405/137 559/403/136
f 564/404/138 563/407/138 561/405/137
f 566/406/139 565/409/139 563/407/138
f 568/408/140 567/411/140 565/409/139
f 570/410/141 569/413/141 567/411/140
f 572/412/142 571/415/142 569/413/141
f 574/414/143 573/417/143 571/415/142
f 576/416/144 575/419/144 573/417/143
f 578/418/145 577/421/145 575/419/144
f 580/420/146 579/423/146 577/421/145
f 582/422/147 581/425/147 579/423/146
f 584/424/148 583/427/148 581/425/147
f 586/426/149 585/429/149 583/427/148
f 588/428/150 587/431/150 585/429/149
f 590/430/151 589/433/151 587/431/150
f 592/432/152 591/435/152 589/433/151
f 594/434/153 593/437/153 591/435/152
f 596/436/154 595/439/154 593/437/153
f 598/438/155 597/441/155 595/439/154
f 600/440/156 599/443/156 597/441/155
f 602/442/157 601/445/159 599/443/156
f 604/444/158 603/446/158 601/445/159
f 312/155/10 311/18/10 603/446/158
o テキスト.001
v -0.250688 0.030241 0.113593
v 0.261312 0.030241 0.113593
v 0.261312 -0.019759 0.113593
v -0.250688 -0.019759 0.113593
v -0.250688 0.030241 -0.086407
v 0.261312 0.030241 -0.086407
v 0.261312 -0.019759 -0.086407
v -0.250688 -0.019759 -0.086407
v -0.250688 0.030241 -0.086407
v -0.250688 0.030241 0.113593
v 0.261312 0.030241 -0.086407
v 0.261312 0.030241 0.113593
v 0.261312 -0.019759 -0.086407
v 0.261312 -0.019759 0.113593
v -0.250688 -0.019759 -0.086407
v -0.250688 -0.019759 0.113593
vn -0.0000 -0.0000 1.0000
vn -0.0000 -0.0000 -1.0000
vn 0.7071 0.7071 -0.0000
vn -0.7071 0.7071 -0.0000
vn 0.7071 -0.7071 -0.0000
vn -0.7071 -0.7071 -0.0000
vt 0.333333 0.000000
vt 1.000000 0.000000
vt 0.666667 0.000000
vt 0.000000 0.000000
vt 0.250000 1.000000
vt 0.000000 1.000000
vt 0.500000 1.000000
vt 0.250000 0.000000
vt 0.750000 1.000000
vt 0.500000 0.000000
vt 1.000000 1.000000
vt 0.750000 0.000000
s 0
usemtl マテリアル.001
f 606/447/160 608/448/160 607/449/160
f 606/447/160 605/450/160 608/448/160
f 610/447/161 611/449/161 612/448/161
f 610/447/161 612/448/161 609/450/161
s 1
f 616/451/162 613/450/163 614/452/163
f 618/453/164 615/454/162 616/451/162
f 620/455/165 617/456/164 618/453/164
f 614/457/163 619/458/165 620/455/165
f 616/451/162 615/454/162 613/450/163
f 618/453/164 617/456/164 615/454/162
f 620/455/165 619/458/165 617/456/164
f 614/457/163 613/448/163 619/458/165
