# Blender 4.1.1
# www.blender.org
mtllib ClearText_01.mtl
o ク
v 0.231375 0.155722 -0.100000
v 0.229266 0.159374 -0.100000
v 0.227163 0.163030 -0.100000
v 0.225067 0.166695 -0.100000
v 0.222982 0.170370 -0.100000
v 0.220910 0.174059 -0.100000
v 0.218854 0.177764 -0.100000
v 0.216817 0.181487 -0.100000
v 0.214802 0.185232 -0.100000
v 0.212810 0.189001 -0.100000
v 0.210845 0.192796 -0.100000
v 0.208909 0.196621 -0.100000
v 0.207021 0.200461 -0.100000
v 0.205194 0.204305 -0.100000
v 0.203425 0.208153 -0.100000
v 0.201712 0.212010 -0.100000
v 0.200053 0.215877 -0.100000
v 0.198445 0.219758 -0.100000
v 0.196884 0.223655 -0.100000
v 0.195369 0.227570 -0.100000
v 0.193896 0.231507 -0.100000
v 0.192464 0.235468 -0.100000
v 0.191069 0.239455 -0.100000
v 0.189708 0.243472 -0.100000
v 0.188091 0.248510 -0.100000
v 0.186305 0.253950 -0.100000
v 0.184344 0.259685 -0.100000
v 0.182198 0.265603 -0.100000
v 0.179861 0.271596 -0.100000
v 0.177323 0.277554 -0.100000
v 0.174578 0.283368 -0.100000
v 0.171616 0.288929 -0.100000
v 0.168431 0.294127 -0.100000
v 0.165013 0.298853 -0.100000
v 0.161356 0.302998 -0.100000
v 0.157450 0.306452 -0.100000
v 0.155499 0.307925 -0.100000
v 0.153489 0.309275 -0.100000
v 0.151426 0.310508 -0.100000
v 0.149314 0.311629 -0.100000
v 0.147161 0.312643 -0.100000
v 0.144969 0.313556 -0.100000
v 0.142746 0.314373 -0.100000
v 0.140496 0.315099 -0.100000
v 0.138225 0.315740 -0.100000
v 0.135938 0.316301 -0.100000
v 0.133640 0.316787 -0.100000
v 0.131336 0.317204 -0.100000
v 0.125501 0.318218 -0.100000
v 0.119531 0.318975 -0.100000
v 0.113455 0.319508 -0.100000
v 0.107299 0.319850 -0.100000
v 0.101090 0.320031 -0.100000
v 0.094854 0.320084 -0.100000
v 0.088618 0.320042 -0.100000
v 0.082409 0.319935 -0.100000
v 0.076253 0.319796 -0.100000
v 0.070177 0.319658 -0.100000
v 0.064208 0.319551 -0.100000
v 0.058372 0.319508 -0.100000
v 0.051384 0.319071 -0.100000
v 0.045354 0.317798 -0.100000
v 0.040215 0.315752 -0.100000
v 0.035899 0.312994 -0.100000
v 0.032341 0.309586 -0.100000
v 0.029474 0.305588 -0.100000
v 0.027231 0.301062 -0.100000
v 0.025545 0.296069 -0.100000
v 0.024350 0.290671 -0.100000
v 0.023578 0.284928 -0.100000
v 0.023165 0.278904 -0.100000
v 0.023041 0.272657 -0.100000
v 0.022963 0.271199 -0.100000
v 0.022736 0.269888 -0.100000
v 0.022369 0.268709 -0.100000
v 0.021875 0.267651 -0.100000
v 0.021264 0.266699 -0.100000
v 0.020545 0.265841 -0.100000
v 0.019731 0.265063 -0.100000
v 0.018831 0.264351 -0.100000
v 0.017857 0.263693 -0.100000
v 0.016819 0.263075 -0.100000
v 0.015727 0.262483 -0.100000
v 0.014593 0.261905 -0.100000
v 0.011711 0.260846 -0.100000
v 0.008303 0.259963 -0.100000
v 0.004164 0.259241 -0.100000
v -0.000910 0.258662 -0.100000
v -0.007126 0.258211 -0.100000
v -0.014689 0.257872 -0.100000
v -0.023804 0.257630 -0.100000
v -0.034676 0.257467 -0.100000
v -0.047511 0.257368 -0.100000
v -0.062514 0.257318 -0.100000
v -0.079891 0.257299 -0.100000
v -0.099846 0.257296 -0.100000
v -0.110864 0.257296 -0.100000
v -0.124691 0.257229 -0.100000
v -0.140709 0.256996 -0.100000
v -0.158303 0.256500 -0.100000
v -0.176858 0.255641 -0.100000
v -0.195757 0.254320 -0.100000
v -0.214383 0.252440 -0.100000
v -0.232122 0.249900 -0.100000
v -0.248356 0.246604 -0.100000
v -0.262470 0.242451 -0.100000
v -0.273848 0.237344 -0.100000
v -0.281874 0.231183 -0.100000
v -0.286285 0.225652 -0.100000
v -0.289963 0.219836 -0.100000
v -0.292975 0.213770 -0.100000
v -0.295386 0.207487 -0.100000
v -0.297264 0.201023 -0.100000
v -0.298675 0.194412 -0.100000
v -0.299686 0.187690 -0.100000
v -0.300364 0.180890 -0.100000
v -0.300775 0.174047 -0.100000
v -0.300986 0.167196 -0.100000
v -0.301064 0.160372 -0.100000
v -0.301075 0.153610 -0.100000
v -0.299078 0.095322 -0.100000
v -0.292904 0.040991 -0.100000
v -0.282282 -0.009457 -0.100000
v -0.266940 -0.056096 -0.100000
v -0.246605 -0.099002 -0.100000
v -0.221006 -0.138249 -0.100000
v -0.189871 -0.173912 -0.100000
v -0.152927 -0.206065 -0.100000
v -0.109903 -0.234783 -0.100000
v -0.060527 -0.260141 -0.100000
v -0.004526 -0.282214 -0.100000
v 0.058372 -0.301075 -0.100000
v 0.066754 -0.303228 -0.100000
v 0.075699 -0.305431 -0.100000
v 0.085097 -0.307640 -0.100000
v 0.094840 -0.309808 -0.100000
v 0.104817 -0.311892 -0.100000
v 0.114919 -0.313844 -0.100000
v 0.125038 -0.315621 -0.100000
v 0.135063 -0.317176 -0.100000
v 0.144885 -0.318464 -0.100000
v 0.154396 -0.319441 -0.100000
v 0.163485 -0.320060 -0.100000
v 0.172043 -0.320276 -0.100000
v 0.185362 -0.319055 -0.100000
v 0.197630 -0.315558 -0.100000
v 0.208789 -0.310040 -0.100000
v 0.218780 -0.302754 -0.100000
v 0.227544 -0.293953 -0.100000
v 0.235023 -0.283890 -0.100000
v 0.241158 -0.272820 -0.100000
v 0.245890 -0.260994 -0.100000
v 0.249160 -0.248668 -0.100000
v 0.250910 -0.236093 -0.100000
v 0.251082 -0.223524 -0.100000
v 0.249616 -0.211214 -0.100000
v 0.247444 -0.202384 -0.100000
v 0.244467 -0.194658 -0.100000
v 0.240807 -0.187956 -0.100000
v 0.236588 -0.182198 -0.100000
v 0.231930 -0.177305 -0.100000
v 0.226959 -0.173195 -0.100000
v 0.221795 -0.169790 -0.100000
v 0.216561 -0.167008 -0.100000
v 0.211382 -0.164771 -0.100000
v 0.206378 -0.162997 -0.100000
v 0.201672 -0.161608 -0.100000
v 0.197389 -0.160522 -0.100000
v 0.161654 -0.152310 -0.100000
v 0.127461 -0.144557 -0.100000
v 0.094878 -0.136665 -0.100000
v 0.063976 -0.128037 -0.100000
v 0.034823 -0.118075 -0.100000
v 0.007488 -0.106183 -0.100000
v -0.017958 -0.091762 -0.100000
v -0.041446 -0.074216 -0.100000
v -0.062908 -0.052947 -0.100000
v -0.082274 -0.027358 -0.100000
v -0.099474 0.003149 -0.100000
v -0.114439 0.039171 -0.100000
v -0.115750 0.043188 -0.100000
v -0.116989 0.047182 -0.100000
v -0.118148 0.051159 -0.100000
v -0.119218 0.055129 -0.100000
v -0.120193 0.059098 -0.100000
v -0.121064 0.063076 -0.100000
v -0.121822 0.067070 -0.100000
v -0.122461 0.071087 -0.100000
v -0.122972 0.075137 -0.100000
v -0.123347 0.079226 -0.100000
v -0.123577 0.083364 -0.100000
v -0.123656 0.087558 -0.100000
v -0.123471 0.089960 -0.100000
v -0.122941 0.092184 -0.100000
v -0.122108 0.094242 -0.100000
v -0.121010 0.096148 -0.100000
v -0.119689 0.097916 -0.100000
v -0.118184 0.099558 -0.100000
v -0.116534 0.101089 -0.100000
v -0.114781 0.102520 -0.100000
v -0.112963 0.103867 -0.100000
v -0.111122 0.105141 -0.100000
v -0.109296 0.106357 -0.100000
v -0.107527 0.107527 -0.100000
v -0.100013 0.111848 -0.100000
v -0.091768 0.115275 -0.100000
v -0.082925 0.117908 -0.100000
v -0.073619 0.119844 -0.100000
v -0.063982 0.121183 -0.100000
v -0.054147 0.122024 -0.100000
v -0.044249 0.122464 -0.100000
v -0.034420 0.122603 -0.100000
v -0.024794 0.122540 -0.100000
v -0.015503 0.122372 -0.100000
v -0.006682 0.122199 -0.100000
v 0.001536 0.122120 -0.100000
v 0.005169 0.122086 -0.100000
v 0.008772 0.121981 -0.100000
v 0.012349 0.121796 -0.100000
v 0.015901 0.121522 -0.100000
v 0.019433 0.121153 -0.100000
v 0.022945 0.120680 -0.100000
v 0.026442 0.120094 -0.100000
v 0.029925 0.119389 -0.100000
v 0.033398 0.118556 -0.100000
v 0.036863 0.117586 -0.100000
v 0.040322 0.116473 -0.100000
v 0.043779 0.115207 -0.100000
v 0.057945 0.106948 -0.100000
v 0.070383 0.094001 -0.100000
v 0.081509 0.077405 -0.100000
v 0.091739 0.058201 -0.100000
v 0.101489 0.037429 -0.100000
v 0.111175 0.016129 -0.100000
v 0.121213 -0.004659 -0.100000
v 0.132019 -0.023895 -0.100000
v 0.144009 -0.040539 -0.100000
v 0.157599 -0.053550 -0.100000
v 0.173206 -0.061889 -0.100000
v 0.191244 -0.064516 -0.100000
v 0.199213 -0.063814 -0.100000
v 0.210317 -0.062102 -0.100000
v 0.223790 -0.059392 -0.100000
v 0.238863 -0.055698 -0.100000
v 0.254768 -0.051033 -0.100000
v 0.270737 -0.045411 -0.100000
v 0.286002 -0.038845 -0.100000
v 0.299795 -0.031348 -0.100000
v 0.311348 -0.022933 -0.100000
v 0.319892 -0.013615 -0.100000
v 0.324661 -0.003406 -0.100000
v 0.324885 0.007681 -0.100000
v 0.321708 0.018603 -0.100000
v 0.316301 0.031124 -0.100000
v 0.309092 0.044823 -0.100000
v 0.300506 0.059282 -0.100000
v 0.290972 0.074083 -0.100000
v 0.280914 0.088806 -0.100000
v 0.270760 0.103033 -0.100000
v 0.260938 0.116345 -0.100000
v 0.251872 0.128324 -0.100000
v 0.243991 0.138551 -0.100000
v 0.237720 0.146607 -0.100000
v 0.233487 0.152074 -0.100000
v 0.231375 0.155722 0.100000
v 0.229266 0.159374 0.100000
v 0.227163 0.163030 0.100000
v 0.225067 0.166695 0.100000
v 0.222982 0.170370 0.100000
v 0.220910 0.174059 0.100000
v 0.218854 0.177764 0.100000
v 0.216817 0.181487 0.100000
v 0.214802 0.185232 0.100000
v 0.212810 0.189001 0.100000
v 0.210845 0.192796 0.100000
v 0.208909 0.196621 0.100000
v 0.207021 0.200461 0.100000
v 0.205194 0.204305 0.100000
v 0.203425 0.208153 0.100000
v 0.201712 0.212010 0.100000
v 0.200053 0.215877 0.100000
v 0.198445 0.219758 0.100000
v 0.196884 0.223655 0.100000
v 0.195369 0.227570 0.100000
v 0.193896 0.231507 0.100000
v 0.192464 0.235468 0.100000
v 0.191069 0.239455 0.100000
v 0.189708 0.243472 0.100000
v 0.188091 0.248510 0.100000
v 0.186305 0.253950 0.100000
v 0.184344 0.259685 0.100000
v 0.182198 0.265603 0.100000
v 0.179861 0.271596 0.100000
v 0.177323 0.277554 0.100000
v 0.174578 0.283368 0.100000
v 0.171616 0.288929 0.100000
v 0.168431 0.294127 0.100000
v 0.165013 0.298853 0.100000
v 0.161356 0.302998 0.100000
v 0.157450 0.306452 0.100000
v 0.155499 0.307925 0.100000
v 0.153489 0.309275 0.100000
v 0.151426 0.310508 0.100000
v 0.149314 0.311629 0.100000
v 0.147161 0.312643 0.100000
v 0.144969 0.313556 0.100000
v 0.142746 0.314373 0.100000
v 0.140496 0.315099 0.100000
v 0.138225 0.315740 0.100000
v 0.135938 0.316301 0.100000
v 0.133640 0.316787 0.100000
v 0.131336 0.317204 0.100000
v 0.125501 0.318218 0.100000
v 0.119531 0.318975 0.100000
v 0.113455 0.319508 0.100000
v 0.107299 0.319850 0.100000
v 0.101090 0.320031 0.100000
v 0.094854 0.320084 0.100000
v 0.088618 0.320042 0.100000
v 0.082409 0.319935 0.100000
v 0.076253 0.319796 0.100000
v 0.070177 0.319658 0.100000
v 0.064208 0.319551 0.100000
v 0.058372 0.319508 0.100000
v 0.051384 0.319071 0.100000
v 0.045354 0.317798 0.100000
v 0.040215 0.315752 0.100000
v 0.035899 0.312994 0.100000
v 0.032341 0.309586 0.100000
v 0.029474 0.305588 0.100000
v 0.027231 0.301062 0.100000
v 0.025545 0.296069 0.100000
v 0.024350 0.290671 0.100000
v 0.023578 0.284928 0.100000
v 0.023165 0.278904 0.100000
v 0.023041 0.272657 0.100000
v 0.022963 0.271199 0.100000
v 0.022736 0.269888 0.100000
v 0.022369 0.268709 0.100000
v 0.021875 0.267651 0.100000
v 0.021264 0.266699 0.100000
v 0.020545 0.265841 0.100000
v 0.019731 0.265063 0.100000
v 0.018831 0.264351 0.100000
v 0.017857 0.263693 0.100000
v 0.016819 0.263075 0.100000
v 0.015727 0.262483 0.100000
v 0.014593 0.261905 0.100000
v 0.011711 0.260846 0.100000
v 0.008303 0.259963 0.100000
v 0.004164 0.259241 0.100000
v -0.000910 0.258662 0.100000
v -0.007126 0.258211 0.100000
v -0.014689 0.257872 0.100000
v -0.023804 0.257630 0.100000
v -0.034676 0.257467 0.100000
v -0.047511 0.257368 0.100000
v -0.062514 0.257318 0.100000
v -0.079891 0.257299 0.100000
v -0.099846 0.257296 0.100000
v -0.110864 0.257296 0.100000
v -0.124691 0.257229 0.100000
v -0.140709 0.256996 0.100000
v -0.158303 0.256500 0.100000
v -0.176858 0.255641 0.100000
v -0.195757 0.254320 0.100000
v -0.214383 0.252440 0.100000
v -0.232122 0.249900 0.100000
v -0.248356 0.246604 0.100000
v -0.262470 0.242451 0.100000
v -0.273848 0.237344 0.100000
v -0.281874 0.231183 0.100000
v -0.286285 0.225652 0.100000
v -0.289963 0.219836 0.100000
v -0.292975 0.213770 0.100000
v -0.295386 0.207487 0.100000
v -0.297264 0.201023 0.100000
v -0.298675 0.194412 0.100000
v -0.299686 0.187690 0.100000
v -0.300364 0.180890 0.100000
v -0.300775 0.174047 0.100000
v -0.300986 0.167196 0.100000
v -0.301064 0.160372 0.100000
v -0.301075 0.153610 0.100000
v -0.299078 0.095322 0.100000
v -0.292904 0.040991 0.100000
v -0.282282 -0.009457 0.100000
v -0.266940 -0.056096 0.100000
v -0.246605 -0.099002 0.100000
v -0.221006 -0.138249 0.100000
v -0.189871 -0.173912 0.100000
v -0.152927 -0.206065 0.100000
v -0.109903 -0.234783 0.100000
v -0.060527 -0.260141 0.100000
v -0.004526 -0.282214 0.100000
v 0.058372 -0.301075 0.100000
v 0.066754 -0.303228 0.100000
v 0.075699 -0.305431 0.100000
v 0.085097 -0.307640 0.100000
v 0.094840 -0.309808 0.100000
v 0.104817 -0.311892 0.100000
v 0.114919 -0.313844 0.100000
v 0.125038 -0.315621 0.100000
v 0.135063 -0.317176 0.100000
v 0.144885 -0.318464 0.100000
v 0.154396 -0.319441 0.100000
v 0.163485 -0.320060 0.100000
v 0.172043 -0.320276 0.100000
v 0.185362 -0.319055 0.100000
v 0.197630 -0.315558 0.100000
v 0.208789 -0.310040 0.100000
v 0.218780 -0.302754 0.100000
v 0.227544 -0.293953 0.100000
v 0.235023 -0.283890 0.100000
v 0.241158 -0.272820 0.100000
v 0.245890 -0.260994 0.100000
v 0.249160 -0.248668 0.100000
v 0.250910 -0.236093 0.100000
v 0.251082 -0.223524 0.100000
v 0.249616 -0.211214 0.100000
v 0.247444 -0.202384 0.100000
v 0.244467 -0.194658 0.100000
v 0.240807 -0.187956 0.100000
v 0.236588 -0.182198 0.100000
v 0.231930 -0.177305 0.100000
v 0.226959 -0.173195 0.100000
v 0.221795 -0.169790 0.100000
v 0.216561 -0.167008 0.100000
v 0.211382 -0.164771 0.100000
v 0.206378 -0.162997 0.100000
v 0.201672 -0.161608 0.100000
v 0.197389 -0.160522 0.100000
v 0.161654 -0.152310 0.100000
v 0.127461 -0.144557 0.100000
v 0.094878 -0.136665 0.100000
v 0.063976 -0.128037 0.100000
v 0.034823 -0.118075 0.100000
v 0.007488 -0.106183 0.100000
v -0.017958 -0.091762 0.100000
v -0.041446 -0.074216 0.100000
v -0.062908 -0.052947 0.100000
v -0.082274 -0.027358 0.100000
v -0.099474 0.003149 0.100000
v -0.114439 0.039171 0.100000
v -0.115750 0.043188 0.100000
v -0.116989 0.047182 0.100000
v -0.118148 0.051159 0.100000
v -0.119218 0.055129 0.100000
v -0.120193 0.059098 0.100000
v -0.121064 0.063076 0.100000
v -0.121822 0.067070 0.100000
v -0.122461 0.071087 0.100000
v -0.122972 0.075137 0.100000
v -0.123347 0.079226 0.100000
v -0.123577 0.083364 0.100000
v -0.123656 0.087558 0.100000
v -0.123471 0.089960 0.100000
v -0.122941 0.092184 0.100000
v -0.122108 0.094242 0.100000
v -0.121010 0.096148 0.100000
v -0.119689 0.097916 0.100000
v -0.118184 0.099558 0.100000
v -0.116534 0.101089 0.100000
v -0.114781 0.102520 0.100000
v -0.112963 0.103867 0.100000
v -0.111122 0.105141 0.100000
v -0.109296 0.106357 0.100000
v -0.107527 0.107527 0.100000
v -0.100013 0.111848 0.100000
v -0.091768 0.115275 0.100000
v -0.082925 0.117908 0.100000
v -0.073619 0.119844 0.100000
v -0.063982 0.121183 0.100000
v -0.054147 0.122024 0.100000
v -0.044249 0.122464 0.100000
v -0.034420 0.122603 0.100000
v -0.024794 0.122540 0.100000
v -0.015503 0.122372 0.100000
v -0.006682 0.122199 0.100000
v 0.001536 0.122120 0.100000
v 0.005169 0.122086 0.100000
v 0.008772 0.121981 0.100000
v 0.012349 0.121796 0.100000
v 0.015901 0.121522 0.100000
v 0.019433 0.121153 0.100000
v 0.022945 0.120680 0.100000
v 0.026442 0.120094 0.100000
v 0.029925 0.119389 0.100000
v 0.033398 0.118556 0.100000
v 0.036863 0.117586 0.100000
v 0.040322 0.116473 0.100000
v 0.043779 0.115207 0.100000
v 0.057945 0.106948 0.100000
v 0.070383 0.094001 0.100000
v 0.081509 0.077405 0.100000
v 0.091739 0.058201 0.100000
v 0.101489 0.037429 0.100000
v 0.111175 0.016129 0.100000
v 0.121213 -0.004659 0.100000
v 0.132019 -0.023895 0.100000
v 0.144009 -0.040539 0.100000
v 0.157599 -0.053550 0.100000
v 0.173206 -0.061889 0.100000
v 0.191244 -0.064516 0.100000
v 0.199213 -0.063814 0.100000
v 0.210317 -0.062102 0.100000
v 0.223790 -0.059392 0.100000
v 0.238863 -0.055698 0.100000
v 0.254768 -0.051033 0.100000
v 0.270737 -0.045411 0.100000
v 0.286002 -0.038845 0.100000
v 0.299795 -0.031348 0.100000
v 0.311348 -0.022933 0.100000
v 0.319892 -0.013615 0.100000
v 0.324661 -0.003406 0.100000
v 0.324885 0.007681 0.100000
v 0.321708 0.018603 0.100000
v 0.316301 0.031124 0.100000
v 0.309092 0.044823 0.100000
v 0.300506 0.059282 0.100000
v 0.290972 0.074083 0.100000
v 0.280914 0.088806 0.100000
v 0.270760 0.103033 0.100000
v 0.260938 0.116345 0.100000
v 0.251872 0.128324 0.100000
v 0.243991 0.138551 0.100000
v 0.237720 0.146607 0.100000
v 0.233487 0.152074 0.100000
v 0.231375 0.155722 0.100000
v 0.231375 0.155722 -0.100000
v 0.229266 0.159374 0.100000
v 0.229266 0.159374 -0.100000
v 0.227163 0.163030 0.100000
v 0.227163 0.163030 -0.100000
v 0.225067 0.166695 0.100000
v 0.225067 0.166695 -0.100000
v 0.222982 0.170370 0.100000
v 0.222982 0.170370 -0.100000
v 0.220910 0.174059 0.100000
v 0.220910 0.174059 -0.100000
v 0.218854 0.177764 0.100000
v 0.218854 0.177764 -0.100000
v 0.216817 0.181487 0.100000
v 0.216817 0.181487 -0.100000
v 0.214802 0.185232 0.100000
v 0.214802 0.185232 -0.100000
v 0.212810 0.189001 0.100000
v 0.212810 0.189001 -0.100000
v 0.210845 0.192796 0.100000
v 0.210845 0.192796 -0.100000
v 0.208909 0.196621 0.100000
v 0.208909 0.196621 -0.100000
v 0.207021 0.200461 0.100000
v 0.207021 0.200461 -0.100000
v 0.205194 0.204305 0.100000
v 0.205194 0.204305 -0.100000
v 0.203425 0.208153 0.100000
v 0.203425 0.208153 -0.100000
v 0.201712 0.212010 0.100000
v 0.201712 0.212010 -0.100000
v 0.200053 0.215877 0.100000
v 0.200053 0.215877 -0.100000
v 0.198445 0.219758 0.100000
v 0.198445 0.219758 -0.100000
v 0.196884 0.223655 0.100000
v 0.196884 0.223655 -0.100000
v 0.195369 0.227570 0.100000
v 0.195369 0.227570 -0.100000
v 0.193896 0.231507 0.100000
v 0.193896 0.231507 -0.100000
v 0.192464 0.235468 0.100000
v 0.192464 0.235468 -0.100000
v 0.191069 0.239455 0.100000
v 0.191069 0.239455 -0.100000
v 0.189708 0.243472 0.100000
v 0.189708 0.243472 -0.100000
v 0.188091 0.248510 0.100000
v 0.188091 0.248510 -0.100000
v 0.186305 0.253950 0.100000
v 0.186305 0.253950 -0.100000
v 0.184344 0.259685 0.100000
v 0.184344 0.259685 -0.100000
v 0.182198 0.265603 0.100000
v 0.182198 0.265603 -0.100000
v 0.179861 0.271596 0.100000
v 0.179861 0.271596 -0.100000
v 0.177323 0.277554 0.100000
v 0.177323 0.277554 -0.100000
v 0.174578 0.283368 0.100000
v 0.174578 0.283368 -0.100000
v 0.171616 0.288929 0.100000
v 0.171616 0.288929 -0.100000
v 0.168431 0.294127 0.100000
v 0.168431 0.294127 -0.100000
v 0.165013 0.298853 0.100000
v 0.165013 0.298853 -0.100000
v 0.161356 0.302998 0.100000
v 0.161356 0.302998 -0.100000
v 0.157450 0.306452 0.100000
v 0.157450 0.306452 -0.100000
v 0.155499 0.307925 0.100000
v 0.155499 0.307925 -0.100000
v 0.153489 0.309275 0.100000
v 0.153489 0.309275 -0.100000
v 0.151426 0.310508 0.100000
v 0.151426 0.310508 -0.100000
v 0.149314 0.311629 0.100000
v 0.149314 0.311629 -0.100000
v 0.147161 0.312643 0.100000
v 0.147161 0.312643 -0.100000
v 0.144969 0.313556 0.100000
v 0.144969 0.313556 -0.100000
v 0.142746 0.314373 0.100000
v 0.142746 0.314373 -0.100000
v 0.140496 0.315099 0.100000
v 0.140496 0.315099 -0.100000
v 0.138225 0.315740 0.100000
v 0.138225 0.315740 -0.100000
v 0.135938 0.316301 0.100000
v 0.135938 0.316301 -0.100000
v 0.133640 0.316787 0.100000
v 0.133640 0.316787 -0.100000
v 0.131336 0.317204 0.100000
v 0.131336 0.317204 -0.100000
v 0.125501 0.318218 0.100000
v 0.125501 0.318218 -0.100000
v 0.119531 0.318975 0.100000
v 0.119531 0.318975 -0.100000
v 0.113455 0.319508 0.100000
v 0.113455 0.319508 -0.100000
v 0.107299 0.319850 0.100000
v 0.107299 0.319850 -0.100000
v 0.101090 0.320031 0.100000
v 0.101090 0.320031 -0.100000
v 0.094854 0.320084 0.100000
v 0.094854 0.320084 -0.100000
v 0.088618 0.320042 0.100000
v 0.088618 0.320042 -0.100000
v 0.082409 0.319935 0.100000
v 0.082409 0.319935 -0.100000
v 0.076253 0.319796 0.100000
v 0.076253 0.319796 -0.100000
v 0.070177 0.319658 0.100000
v 0.070177 0.319658 -0.100000
v 0.064208 0.319551 0.100000
v 0.064208 0.319551 -0.100000
v 0.058372 0.319508 0.100000
v 0.058372 0.319508 -0.100000
v 0.051384 0.319071 0.100000
v 0.051384 0.319071 -0.100000
v 0.045354 0.317798 0.100000
v 0.045354 0.317798 -0.100000
v 0.040215 0.315752 0.100000
v 0.040215 0.315752 -0.100000
v 0.035899 0.312994 0.100000
v 0.035899 0.312994 -0.100000
v 0.032341 0.309586 0.100000
v 0.032341 0.309586 -0.100000
v 0.029474 0.305588 0.100000
v 0.029474 0.305588 -0.100000
v 0.027231 0.301062 0.100000
v 0.027231 0.301062 -0.100000
v 0.025545 0.296069 0.100000
v 0.025545 0.296069 -0.100000
v 0.024350 0.290671 0.100000
v 0.024350 0.290671 -0.100000
v 0.023578 0.284928 0.100000
v 0.023578 0.284928 -0.100000
v 0.023165 0.278904 0.100000
v 0.023165 0.278904 -0.100000
v 0.023041 0.272657 0.100000
v 0.023041 0.272657 -0.100000
v 0.022963 0.271199 0.100000
v 0.022963 0.271199 -0.100000
v 0.022736 0.269888 0.100000
v 0.022736 0.269888 -0.100000
v 0.022369 0.268709 0.100000
v 0.022369 0.268709 -0.100000
v 0.021875 0.267651 0.100000
v 0.021875 0.267651 -0.100000
v 0.021264 0.266699 0.100000
v 0.021264 0.266699 -0.100000
v 0.020545 0.265841 0.100000
v 0.020545 0.265841 -0.100000
v 0.019731 0.265063 0.100000
v 0.019731 0.265063 -0.100000
v 0.018831 0.264351 0.100000
v 0.018831 0.264351 -0.100000
v 0.017857 0.263693 0.100000
v 0.017857 0.263693 -0.100000
v 0.016819 0.263075 0.100000
v 0.016819 0.263075 -0.100000
v 0.015727 0.262483 0.100000
v 0.015727 0.262483 -0.100000
v 0.014593 0.261905 0.100000
v 0.014593 0.261905 -0.100000
v 0.011711 0.260846 0.100000
v 0.011711 0.260846 -0.100000
v 0.008303 0.259963 0.100000
v 0.008303 0.259963 -0.100000
v 0.004164 0.259241 0.100000
v 0.004164 0.259241 -0.100000
v -0.000910 0.258662 0.100000
v -0.000910 0.258662 -0.100000
v -0.007126 0.258211 0.100000
v -0.007126 0.258211 -0.100000
v -0.014689 0.257872 0.100000
v -0.014689 0.257872 -0.100000
v -0.023804 0.257630 0.100000
v -0.023804 0.257630 -0.100000
v -0.034676 0.257467 0.100000
v -0.034676 0.257467 -0.100000
v -0.047511 0.257368 0.100000
v -0.047511 0.257368 -0.100000
v -0.062514 0.257318 0.100000
v -0.062514 0.257318 -0.100000
v -0.079891 0.257299 0.100000
v -0.079891 0.257299 -0.100000
v -0.099846 0.257296 0.100000
v -0.099846 0.257296 -0.100000
v -0.110864 0.257296 0.100000
v -0.110864 0.257296 -0.100000
v -0.124691 0.257229 0.100000
v -0.124691 0.257229 -0.100000
v -0.140709 0.256996 0.100000
v -0.140709 0.256996 -0.100000
v -0.158303 0.256500 0.100000
v -0.158303 0.256500 -0.100000
v -0.176858 0.255641 0.100000
v -0.176858 0.255641 -0.100000
v -0.195757 0.254320 0.100000
v -0.195757 0.254320 -0.100000
v -0.214383 0.252440 0.100000
v -0.214383 0.252440 -0.100000
v -0.232122 0.249900 0.100000
v -0.232122 0.249900 -0.100000
v -0.248356 0.246604 0.100000
v -0.248356 0.246604 -0.100000
v -0.262470 0.242451 0.100000
v -0.262470 0.242451 -0.100000
v -0.273848 0.237344 0.100000
v -0.273848 0.237344 -0.100000
v -0.281874 0.231183 0.100000
v -0.281874 0.231183 -0.100000
v -0.286285 0.225652 0.100000
v -0.286285 0.225652 -0.100000
v -0.289963 0.219836 0.100000
v -0.289963 0.219836 -0.100000
v -0.292975 0.213770 0.100000
v -0.292975 0.213770 -0.100000
v -0.295386 0.207487 0.100000
v -0.295386 0.207487 -0.100000
v -0.297264 0.201023 0.100000
v -0.297264 0.201023 -0.100000
v -0.298675 0.194412 0.100000
v -0.298675 0.194412 -0.100000
v -0.299686 0.187690 0.100000
v -0.299686 0.187690 -0.100000
v -0.300364 0.180890 0.100000
v -0.300364 0.180890 -0.100000
v -0.300775 0.174047 0.100000
v -0.300775 0.174047 -0.100000
v -0.300986 0.167196 0.100000
v -0.300986 0.167196 -0.100000
v -0.301064 0.160372 0.100000
v -0.301064 0.160372 -0.100000
v -0.301075 0.153610 0.100000
v -0.301075 0.153610 -0.100000
v -0.299078 0.095322 0.100000
v -0.299078 0.095322 -0.100000
v -0.292904 0.040991 0.100000
v -0.292904 0.040991 -0.100000
v -0.282282 -0.009457 0.100000
v -0.282282 -0.009457 -0.100000
v -0.266940 -0.056096 0.100000
v -0.266940 -0.056096 -0.100000
v -0.246605 -0.099002 0.100000
v -0.246605 -0.099002 -0.100000
v -0.221006 -0.138249 0.100000
v -0.221006 -0.138249 -0.100000
v -0.189871 -0.173912 0.100000
v -0.189871 -0.173912 -0.100000
v -0.152927 -0.206065 0.100000
v -0.152927 -0.206065 -0.100000
v -0.109903 -0.234783 0.100000
v -0.109903 -0.234783 -0.100000
v -0.060527 -0.260141 0.100000
v -0.060527 -0.260141 -0.100000
v -0.004526 -0.282214 0.100000
v -0.004526 -0.282214 -0.100000
v 0.058372 -0.301075 0.100000
v 0.058372 -0.301075 -0.100000
v 0.066754 -0.303228 0.100000
v 0.066754 -0.303228 -0.100000
v 0.075699 -0.305431 0.100000
v 0.075699 -0.305431 -0.100000
v 0.085097 -0.307640 0.100000
v 0.085097 -0.307640 -0.100000
v 0.094840 -0.309808 0.100000
v 0.094840 -0.309808 -0.100000
v 0.104817 -0.311892 0.100000
v 0.104817 -0.311892 -0.100000
v 0.114919 -0.313844 0.100000
v 0.114919 -0.313844 -0.100000
v 0.125038 -0.315621 0.100000
v 0.125038 -0.315621 -0.100000
v 0.135063 -0.317176 0.100000
v 0.135063 -0.317176 -0.100000
v 0.144885 -0.318464 0.100000
v 0.144885 -0.318464 -0.100000
v 0.154396 -0.319441 0.100000
v 0.154396 -0.319441 -0.100000
v 0.163485 -0.320060 0.100000
v 0.163485 -0.320060 -0.100000
v 0.172043 -0.320276 0.100000
v 0.172043 -0.320276 -0.100000
v 0.185362 -0.319055 0.100000
v 0.185362 -0.319055 -0.100000
v 0.197630 -0.315558 0.100000
v 0.197630 -0.315558 -0.100000
v 0.208789 -0.310040 0.100000
v 0.208789 -0.310040 -0.100000
v 0.218780 -0.302754 0.100000
v 0.218780 -0.302754 -0.100000
v 0.227544 -0.293953 0.100000
v 0.227544 -0.293953 -0.100000
v 0.235023 -0.283890 0.100000
v 0.235023 -0.283890 -0.100000
v 0.241158 -0.272820 0.100000
v 0.241158 -0.272820 -0.100000
v 0.245890 -0.260994 0.100000
v 0.245890 -0.260994 -0.100000
v 0.249160 -0.248668 0.100000
v 0.249160 -0.248668 -0.100000
v 0.250910 -0.236093 0.100000
v 0.250910 -0.236093 -0.100000
v 0.251082 -0.223524 0.100000
v 0.251082 -0.223524 -0.100000
v 0.249616 -0.211214 0.100000
v 0.249616 -0.211214 -0.100000
v 0.247444 -0.202384 0.100000
v 0.247444 -0.202384 -0.100000
v 0.244467 -0.194658 0.100000
v 0.244467 -0.194658 -0.100000
v 0.240807 -0.187956 0.100000
v 0.240807 -0.187956 -0.100000
v 0.236588 -0.182198 0.100000
v 0.236588 -0.182198 -0.100000
v 0.231930 -0.177305 0.100000
v 0.231930 -0.177305 -0.100000
v 0.226959 -0.173195 0.100000
v 0.226959 -0.173195 -0.100000
v 0.221795 -0.169790 0.100000
v 0.221795 -0.169790 -0.100000
v 0.216561 -0.167008 0.100000
v 0.216561 -0.167008 -0.100000
v 0.211382 -0.164771 0.100000
v 0.211382 -0.164771 -0.100000
v 0.206378 -0.162997 0.100000
v 0.206378 -0.162997 -0.100000
v 0.201672 -0.161608 0.100000
v 0.201672 -0.161608 -0.100000
v 0.197389 -0.160522 0.100000
v 0.197389 -0.160522 -0.100000
v 0.161654 -0.152310 0.100000
v 0.161654 -0.152310 -0.100000
v 0.127461 -0.144557 0.100000
v 0.127461 -0.144557 -0.100000
v 0.094878 -0.136665 0.100000
v 0.094878 -0.136665 -0.100000
v 0.063976 -0.128037 0.100000
v 0.063976 -0.128037 -0.100000
v 0.034823 -0.118075 0.100000
v 0.034823 -0.118075 -0.100000
v 0.007488 -0.106183 0.100000
v 0.007488 -0.106183 -0.100000
v -0.017958 -0.091762 0.100000
v -0.017958 -0.091762 -0.100000
v -0.041446 -0.074216 0.100000
v -0.041446 -0.074216 -0.100000
v -0.062908 -0.052947 0.100000
v -0.062908 -0.052947 -0.100000
v -0.082274 -0.027358 0.100000
v -0.082274 -0.027358 -0.100000
v -0.099474 0.003149 0.100000
v -0.099474 0.003149 -0.100000
v -0.114439 0.039171 0.100000
v -0.114439 0.039171 -0.100000
v -0.115750 0.043188 0.100000
v -0.115750 0.043188 -0.100000
v -0.116989 0.047182 0.100000
v -0.116989 0.047182 -0.100000
v -0.118148 0.051159 0.100000
v -0.118148 0.051159 -0.100000
v -0.119218 0.055129 0.100000
v -0.119218 0.055129 -0.100000
v -0.120193 0.059098 0.100000
v -0.120193 0.059098 -0.100000
v -0.121064 0.063076 0.100000
v -0.121064 0.063076 -0.100000
v -0.121822 0.067070 0.100000
v -0.121822 0.067070 -0.100000
v -0.122461 0.071087 0.100000
v -0.122461 0.071087 -0.100000
v -0.122972 0.075137 0.100000
v -0.122972 0.075137 -0.100000
v -0.123347 0.079226 0.100000
v -0.123347 0.079226 -0.100000
v -0.123577 0.083364 0.100000
v -0.123577 0.083364 -0.100000
v -0.123656 0.087558 0.100000
v -0.123656 0.087558 -0.100000
v -0.123471 0.089960 0.100000
v -0.123471 0.089960 -0.100000
v -0.122941 0.092184 0.100000
v -0.122941 0.092184 -0.100000
v -0.122108 0.094242 0.100000
v -0.122108 0.094242 -0.100000
v -0.121010 0.096148 0.100000
v -0.121010 0.096148 -0.100000
v -0.119689 0.097916 0.100000
v -0.119689 0.097916 -0.100000
v -0.118184 0.099558 0.100000
v -0.118184 0.099558 -0.100000
v -0.116534 0.101089 0.100000
v -0.116534 0.101089 -0.100000
v -0.114781 0.102520 0.100000
v -0.114781 0.102520 -0.100000
v -0.112963 0.103867 0.100000
v -0.112963 0.103867 -0.100000
v -0.111122 0.105141 0.100000
v -0.111122 0.105141 -0.100000
v -0.109296 0.106357 0.100000
v -0.109296 0.106357 -0.100000
v -0.107527 0.107527 0.100000
v -0.107527 0.107527 -0.100000
v -0.100013 0.111848 0.100000
v -0.100013 0.111848 -0.100000
v -0.091768 0.115275 0.100000
v -0.091768 0.115275 -0.100000
v -0.082925 0.117908 0.100000
v -0.082925 0.117908 -0.100000
v -0.073619 0.119844 0.100000
v -0.073619 0.119844 -0.100000
v -0.063982 0.121183 0.100000
v -0.063982 0.121183 -0.100000
v -0.054147 0.122024 0.100000
v -0.054147 0.122024 -0.100000
v -0.044249 0.122464 0.100000
v -0.044249 0.122464 -0.100000
v -0.034420 0.122603 0.100000
v -0.034420 0.122603 -0.100000
v -0.024794 0.122540 0.100000
v -0.024794 0.122540 -0.100000
v -0.015503 0.122372 0.100000
v -0.015503 0.122372 -0.100000
v -0.006682 0.122199 0.100000
v -0.006682 0.122199 -0.100000
v 0.001536 0.122120 0.100000
v 0.001536 0.122120 -0.100000
v 0.005169 0.122086 0.100000
v 0.005169 0.122086 -0.100000
v 0.008772 0.121981 0.100000
v 0.008772 0.121981 -0.100000
v 0.012349 0.121796 0.100000
v 0.012349 0.121796 -0.100000
v 0.015901 0.121522 0.100000
v 0.015901 0.121522 -0.100000
v 0.019433 0.121153 0.100000
v 0.019433 0.121153 -0.100000
v 0.022945 0.120680 0.100000
v 0.022945 0.120680 -0.100000
v 0.026442 0.120094 0.100000
v 0.026442 0.120094 -0.100000
v 0.029925 0.119389 0.100000
v 0.029925 0.119389 -0.100000
v 0.033398 0.118556 0.100000
v 0.033398 0.118556 -0.100000
v 0.036863 0.117586 0.100000
v 0.036863 0.117586 -0.100000
v 0.040322 0.116473 0.100000
v 0.040322 0.116473 -0.100000
v 0.043779 0.115207 0.100000
v 0.043779 0.115207 -0.100000
v 0.057945 0.106948 0.100000
v 0.057945 0.106948 -0.100000
v 0.070383 0.094001 0.100000
v 0.070383 0.094001 -0.100000
v 0.081509 0.077405 0.100000
v 0.081509 0.077405 -0.100000
v 0.091739 0.058201 0.100000
v 0.091739 0.058201 -0.100000
v 0.101489 0.037429 0.100000
v 0.101489 0.037429 -0.100000
v 0.111175 0.016129 0.100000
v 0.111175 0.016129 -0.100000
v 0.121213 -0.004659 0.100000
v 0.121213 -0.004659 -0.100000
v 0.132019 -0.023895 0.100000
v 0.132019 -0.023895 -0.100000
v 0.144009 -0.040539 0.100000
v 0.144009 -0.040539 -0.100000
v 0.157599 -0.053550 0.100000
v 0.157599 -0.053550 -0.100000
v 0.173206 -0.061889 0.100000
v 0.173206 -0.061889 -0.100000
v 0.191244 -0.064516 0.100000
v 0.191244 -0.064516 -0.100000
v 0.199213 -0.063814 0.100000
v 0.199213 -0.063814 -0.100000
v 0.210317 -0.062102 0.100000
v 0.210317 -0.062102 -0.100000
v 0.223790 -0.059392 0.100000
v 0.223790 -0.059392 -0.100000
v 0.238863 -0.055698 0.100000
v 0.238863 -0.055698 -0.100000
v 0.254768 -0.051033 0.100000
v 0.254768 -0.051033 -0.100000
v 0.270737 -0.045411 0.100000
v 0.270737 -0.045411 -0.100000
v 0.286002 -0.038845 0.100000
v 0.286002 -0.038845 -0.100000
v 0.299795 -0.031348 0.100000
v 0.299795 -0.031348 -0.100000
v 0.311348 -0.022933 0.100000
v 0.311348 -0.022933 -0.100000
v 0.319892 -0.013615 0.100000
v 0.319892 -0.013615 -0.100000
v 0.324661 -0.003406 0.100000
v 0.324661 -0.003406 -0.100000
v 0.324885 0.007681 0.100000
v 0.324885 0.007681 -0.100000
v 0.321708 0.018603 0.100000
v 0.321708 0.018603 -0.100000
v 0.316301 0.031124 0.100000
v 0.316301 0.031124 -0.100000
v 0.309092 0.044823 0.100000
v 0.309092 0.044823 -0.100000
v 0.300506 0.059282 0.100000
v 0.300506 0.059282 -0.100000
v 0.290972 0.074083 0.100000
v 0.290972 0.074083 -0.100000
v 0.280914 0.088806 0.100000
v 0.280914 0.088806 -0.100000
v 0.270760 0.103033 0.100000
v 0.270760 0.103033 -0.100000
v 0.260938 0.116345 0.100000
v 0.260938 0.116345 -0.100000
v 0.251872 0.128324 0.100000
v 0.251872 0.128324 -0.100000
v 0.243991 0.138551 0.100000
v 0.243991 0.138551 -0.100000
v 0.237720 0.146607 0.100000
v 0.237720 0.146607 -0.100000
v 0.233487 0.152074 0.100000
v 0.233487 0.152074 -0.100000
vn -0.0000 -0.0000 -1.0000
vn 0.0001 -0.0000 -1.0000
vn -0.0000 -0.0000 1.0000
vn 0.0001 -0.0000 1.0000
vn 0.8664 0.4994 -0.0000
vn 0.8657 0.5005 -0.0000
vn 0.8674 0.4975 -0.0000
vn 0.8689 0.4949 -0.0000
vn 0.8708 0.4916 -0.0000
vn 0.8732 0.4874 -0.0000
vn 0.8759 0.4826 -0.0000
vn 0.8789 0.4770 -0.0000
vn 0.8758 0.4826 -0.0000
vn 0.8823 0.4706 -0.0000
vn 0.8861 0.4635 -0.0000
vn 0.8901 0.4557 -0.0000
vn 0.8948 0.4464 -0.0000
vn 0.9003 0.4353 -0.0000
vn 0.9059 0.4235 -0.0000
vn 0.9113 0.4117 -0.0000
vn 0.9165 0.4001 -0.0000
vn 0.9214 0.3886 -0.0000
vn 0.9261 0.3773 -0.0000
vn 0.9305 0.3663 -0.0000
vn 0.9346 0.3556 -0.0000
vn 0.9385 0.3452 -0.0000
vn 0.9421 0.3352 -0.0000
vn 0.9455 0.3255 -0.0000
vn 0.9497 0.3133 -0.0000
vn 0.9511 0.3087 -0.0000
vn 0.9482 0.3177 -0.0000
vn 0.9432 0.3322 -0.0000
vn 0.9360 0.3521 -0.0000
vn 0.9259 0.3777 -0.0000
vn 0.9123 0.4095 -0.0000
vn 0.8937 0.4487 -0.0000
vn 0.8680 0.4965 -0.0000
vn 0.8321 0.5546 -0.0000
vn 0.7810 0.6246 -0.0000
vn 0.7075 0.7067 -0.0000
vn 0.6330 0.7742 -0.0000
vn 0.5803 0.8144 -0.0000
vn 0.5355 0.8445 -0.0000
vn 0.4911 0.8711 -0.0000
vn 0.4476 0.8942 -0.0000
vn 0.4054 0.9141 -0.0000
vn 0.3648 0.9311 -0.0000
vn 0.3261 0.9453 -0.0000
vn 0.2894 0.9572 -0.0000
vn 0.2549 0.9670 -0.0000
vn 0.2226 0.9749 -0.0000
vn 0.1926 0.9813 -0.0000
vn 0.1746 0.9846 -0.0000
vn 0.1485 0.9889 -0.0000
vn 0.1067 0.9943 -0.0000
vn 0.0714 0.9974 -0.0000
vn 0.0423 0.9991 -0.0000
vn 0.0189 0.9998 -0.0000
vn 0.0009 1.0000 -0.0000
vn -0.0120 0.9999 -0.0000
vn -0.0198 0.9998 -0.0000
vn -0.0227 0.9997 -0.0000
vn -0.0203 0.9998 -0.0000
vn -0.0126 0.9999 -0.0000
vn -0.0349 0.9994 -0.0000
vn -0.1349 0.9909 -0.0000
vn -0.2892 0.9573 -0.0000
vn -0.4562 0.8899 -0.0000
vn -0.6181 0.7861 -0.0000
vn -0.7554 0.6552 -0.0000
vn -0.8571 0.5151 -0.0000
vn -0.9238 0.3829 -0.0000
vn -0.9633 0.2684 -0.0000
vn -0.9846 0.1748 -0.0000
vn -0.9949 0.1009 -0.0000
vn -0.9990 0.0441 -0.0000
vn -0.9993 0.0366 -0.0000
vn -0.9937 0.1125 -0.0000
vn -0.9721 0.2344 -0.0000
vn -0.9326 0.3608 -0.0000
vn -0.8756 0.4830 -0.0000
vn -0.8057 0.5924 -0.0000
vn -0.7300 0.6834 -0.0000
vn -0.6564 0.7544 -0.0000
vn -0.5905 0.8070 -0.0000
vn -0.5360 0.8442 -0.0000
vn -0.4942 0.8694 -0.0000
vn -0.4654 0.8851 -0.0000
vn -0.4002 0.9164 -0.0000
vn -0.2981 0.9545 -0.0000
vn -0.2116 0.9774 -0.0000
vn -0.1427 0.9898 -0.0000
vn -0.0928 0.9957 -0.0000
vn -0.0585 0.9983 -0.0000
vn -0.0357 0.9994 -0.0000
vn -0.0208 0.9998 -0.0000
vn -0.0113 0.9999 -0.0000
vn -0.0055 1.0000 -0.0000
vn -0.0022 1.0000 -0.0000
vn -0.0006 1.0000 -0.0000
vn -0.0001 1.0000 -0.0000
vn -0.0024 1.0000 -0.0000
vn -0.0097 1.0000 -0.0000
vn -0.0214 0.9998 -0.0000
vn -0.0372 0.9993 -0.0000
vn -0.0580 0.9983 -0.0000
vn -0.0851 0.9964 -0.0000
vn -0.1211 0.9926 -0.0000
vn -0.1704 0.9854 -0.0000
vn -0.2409 0.9706 -0.0000
vn -0.3467 0.9380 -0.0000
vn -0.5127 0.8586 -0.0000
vn -0.7005 0.7137 -0.0000
vn -0.8147 0.5799 -0.0000
vn -0.8716 0.4902 -0.0000
vn -0.9157 0.4019 -0.0000
vn -0.9478 0.3189 -0.0000
vn -0.9698 0.2440 -0.0000
vn -0.9839 0.1788 -0.0000
vn -0.9923 0.1240 -0.0000
vn -0.9968 0.0796 -0.0000
vn -0.9990 0.0454 -0.0000
vn -0.9998 0.0211 -0.0000
vn -1.0000 0.0065 -0.0000
vn -0.9999 -0.0163 -0.0000
vn -0.9973 -0.0736 -0.0000
vn -0.9872 -0.1597 -0.0000
vn -0.9657 -0.2597 -0.0000
vn -0.9872 -0.1596 -0.0000
vn -0.9286 -0.3711 -0.0000
vn -0.8726 -0.4884 -0.0000
vn -0.7974 -0.6035 -0.0000
vn -0.7066 -0.7077 -0.0000
vn -0.6071 -0.7946 -0.0000
vn -0.5068 -0.8620 -0.0000
vn -0.4123 -0.9111 -0.0000
vn -0.3273 -0.9449 -0.0000
vn -0.2680 -0.9634 -0.0000
vn -0.2439 -0.9698 -0.0000
vn -0.2340 -0.9722 -0.0000
vn -0.2230 -0.9748 -0.0000
vn -0.2108 -0.9775 -0.0000
vn -0.1971 -0.9804 -0.0000
vn -0.1814 -0.9834 -0.0000
vn -0.1631 -0.9866 -0.0000
vn -0.1417 -0.9899 -0.0000
vn -0.1161 -0.9932 -0.0000
vn -0.0851 -0.9964 -0.0000
vn -0.0466 -0.9989 -0.0000
vn 0.0331 -0.9995 -0.0000
vn 0.1835 -0.9830 -0.0000
vn 0.3602 -0.9329 -0.0000
vn 0.5181 -0.8553 -0.0000
vn 0.6509 -0.7591 -0.0000
vn 0.7576 -0.6528 -0.0000
vn 0.8405 -0.5418 -0.0000
vn 0.9033 -0.4289 -0.0000
vn 0.9492 -0.3146 -0.0000
vn 0.9803 -0.1975 -0.0000
vn 0.9971 -0.0759 -0.0000
vn 0.9986 0.0524 -0.0000
vn 0.9839 0.1789 -0.0000
vn 0.9540 0.2998 -0.0000
vn 0.9074 0.4203 -0.0000
vn 0.8440 0.5364 -0.0000
vn 0.7671 0.6416 -0.0000
vn 0.6820 0.7314 -0.0000
vn 0.5947 0.8040 -0.0000
vn 0.5105 0.8599 -0.0000
vn 0.4333 0.9013 -0.0000
vn 0.3655 0.9308 -0.0000
vn 0.3087 0.9511 -0.0000
vn 0.2645 0.9644 -0.0000
vn 0.2348 0.9720 -0.0000
vn 0.2283 0.9736 -0.0000
vn 0.2522 0.9677 -0.0000
vn 0.2963 0.9551 -0.0000
vn 0.3614 0.9324 -0.0000
vn 0.4466 0.8947 -0.0000
vn 0.5468 0.8372 -0.0000
vn 0.6528 0.7576 -0.0000
vn 0.7525 0.6585 -0.0000
vn 0.8361 0.5485 -0.0000
vn 0.8989 0.4382 -0.0000
vn 0.9378 0.3472 -0.0000
vn 0.9529 0.3032 -0.0000
vn 0.9576 0.2880 -0.0000
vn 0.9628 0.2701 -0.0000
vn 0.9684 0.2495 -0.0000
vn 0.9741 0.2262 -0.0000
vn 0.9797 0.2003 -0.0000
vn 0.9851 0.1718 -0.0000
vn 0.9900 0.1411 -0.0000
vn 0.9941 0.1082 -0.0000
vn 0.9973 0.0735 -0.0000
vn 0.9993 0.0372 -0.0000
vn 0.9996 -0.0291 -0.0000
vn 0.9880 -0.1547 -0.0000
vn 0.9526 -0.3043 -0.0000
vn 0.8989 -0.4381 -0.0000
vn 0.8353 -0.5498 -0.0000
vn 0.7700 -0.6380 -0.0000
vn 0.7092 -0.7050 -0.0000
vn 0.6566 -0.7542 -0.0000
vn 0.6140 -0.7893 -0.0000
vn 0.5822 -0.8130 -0.0000
vn 0.5617 -0.8274 -0.0000
vn 0.5530 -0.8332 -0.0000
vn 0.5253 -0.8509 -0.0000
vn 0.4421 -0.8970 -0.0000
vn 0.3351 -0.9422 -0.0000
vn 0.2448 -0.9696 -0.0000
vn 0.1708 -0.9853 -0.0000
vn 0.1114 -0.9938 -0.0000
vn 0.0648 -0.9979 -0.0000
vn 0.0293 -0.9996 -0.0000
vn 0.0038 -1.0000 -0.0000
vn -0.0123 -0.9999 -0.0000
vn -0.0188 -0.9998 -0.0000
vn -0.0146 -0.9999 -0.0000
vn -0.0094 -1.0000 -0.0000
vn -0.0192 -0.9998 -0.0000
vn -0.0405 -0.9992 -0.0000
vn -0.0642 -0.9979 -0.0000
vn -0.0904 -0.9959 -0.0000
vn -0.1188 -0.9929 -0.0000
vn -0.1494 -0.9888 -0.0000
vn -0.1818 -0.9833 -0.0000
vn -0.2159 -0.9764 -0.0000
vn -0.2514 -0.9679 -0.0000
vn -0.2880 -0.9576 -0.0000
vn -0.3251 -0.9457 -0.0000
vn -0.4254 -0.9050 -0.0000
vn -0.6184 -0.7859 -0.0000
vn -0.7789 -0.6272 -0.0000
vn -0.8577 -0.5142 -0.0000
vn -0.8942 -0.4477 -0.0000
vn -0.9078 -0.4194 -0.0000
vn -0.9055 -0.4244 -0.0000
vn -0.8866 -0.4625 -0.0000
vn -0.8429 -0.5380 -0.0000
vn -0.7546 -0.6562 -0.0000
vn -0.5869 -0.8097 -0.0000
vn -0.3124 -0.9500 -0.0000
vn -0.0284 -0.9996 -0.0000
vn 0.1201 -0.9928 -0.0000
vn 0.1748 -0.9846 -0.0000
vn 0.2177 -0.9760 -0.0000
vn 0.1749 -0.9846 -0.0000
vn 0.2598 -0.9657 -0.0000
vn 0.3069 -0.9518 -0.0000
vn 0.3638 -0.9315 -0.0000
vn 0.4368 -0.8996 -0.0000
vn 0.5343 -0.8453 -0.0000
vn 0.6662 -0.7458 -0.0000
vn 0.8312 -0.5560 -0.0000
vn 0.9740 -0.2266 -0.0000
vn 0.9914 0.1310 -0.0000
vn 0.9410 0.3385 -0.0000
vn 0.9914 0.1311 -0.0000
vn 0.9022 0.4314 -0.0000
vn 0.8727 0.4883 -0.0000
vn 0.8504 0.5261 -0.0000
vn 0.8333 0.5529 -0.0000
vn 0.8199 0.5725 -0.0000
vn 0.8093 0.5873 -0.0000
vn 0.8010 0.5986 -0.0000
vn 0.7947 0.6069 -0.0000
vn 0.7906 0.6123 -0.0000
vn 0.7899 0.6132 -0.0000
vn 0.8299 0.5578 -0.0000
vt 0.197719 0.000000
vt 0.205323 0.000000
vt 0.201521 0.000000
vt 0.209125 0.000000
vt 0.193916 0.000000
vt 0.212928 0.000000
vt 0.190114 0.000000
vt 0.216730 0.000000
vt 0.220532 0.000000
vt 0.224335 0.000000
vt 0.228137 0.000000
vt 0.186312 0.000000
vt 0.231939 0.000000
vt 0.182510 0.000000
vt 0.178707 0.000000
vt 0.235741 0.000000
vt 0.174905 0.000000
vt 0.171103 0.000000
vt 0.167300 0.000000
vt 0.239544 0.000000
vt 0.163498 0.000000
vt 0.159696 0.000000
vt 0.155894 0.000000
vt 0.152091 0.000000
vt 0.243346 0.000000
vt 0.148289 0.000000
vt 0.144487 0.000000
vt 0.140684 0.000000
vt 0.247148 0.000000
vt 0.136882 0.000000
vt 0.133080 0.000000
vt 0.129278 0.000000
vt 0.250951 0.000000
vt 0.125475 0.000000
vt 0.254753 0.000000
vt 0.121673 0.000000
vt 0.258555 0.000000
vt 0.117871 0.000000
vt 0.262357 0.000000
vt 0.114068 0.000000
vt 0.266160 0.000000
vt 0.110266 0.000000
vt 0.269962 0.000000
vt 0.106464 0.000000
vt 0.273764 0.000000
vt 0.102662 0.000000
vt 0.277567 0.000000
vt 0.281369 0.000000
vt 0.285171 0.000000
vt 0.288973 0.000000
vt 0.292776 0.000000
vt 0.296578 0.000000
vt 0.098859 0.000000
vt 0.300380 0.000000
vt 0.304182 0.000000
vt 0.307985 0.000000
vt 0.311787 0.000000
vt 0.315589 0.000000
vt 0.319392 0.000000
vt 0.323194 0.000000
vt 0.326996 0.000000
vt 0.095057 0.000000
vt 0.330798 0.000000
vt 0.334601 0.000000
vt 0.338403 0.000000
vt 0.342205 0.000000
vt 0.346008 0.000000
vt 0.349810 0.000000
vt 0.353612 0.000000
vt 0.357414 0.000000
vt 0.361217 0.000000
vt 0.365019 0.000000
vt 0.368821 0.000000
vt 0.372624 0.000000
vt 0.376426 0.000000
vt 0.380228 0.000000
vt 0.384030 0.000000
vt 0.387833 0.000000
vt 0.091255 0.000000
vt 0.391635 0.000000
vt 0.395437 0.000000
vt 0.087452 0.000000
vt 0.399240 0.000000
vt 0.083650 0.000000
vt 0.403042 0.000000
vt 0.079848 0.000000
vt 0.406844 0.000000
vt 0.076046 0.000000
vt 0.072243 0.000000
vt 0.410646 0.000000
vt 0.068441 0.000000
vt 0.414449 0.000000
vt 0.064639 0.000000
vt 0.418251 0.000000
vt 0.060837 0.000000
vt 0.057034 0.000000
vt 0.422053 0.000000
vt 0.053232 0.000000
vt 0.049430 0.000000
vt 0.425856 0.000000
vt 0.045627 0.000000
vt 0.429658 0.000000
vt 0.041825 0.000000
vt 0.038023 0.000000
vt 0.433460 0.000000
vt 0.034221 0.000000
vt 0.030418 0.000000
vt 0.437262 0.000000
vt 0.026616 0.000000
vt 0.022814 0.000000
vt 0.441065 0.000000
vt 0.019011 0.000000
vt 0.015209 0.000000
vt 0.444867 0.000000
vt 0.011407 0.000000
vt 0.448669 0.000000
vt 0.007605 0.000000
vt 0.003802 0.000000
vt 0.452471 0.000000
vt 0.000000 0.000000
vt 1.000000 0.000000
vt 0.790875 0.000000
vt 0.456274 0.000000
vt 0.996198 0.000000
vt 0.794677 0.000000
vt 0.992395 0.000000
vt 0.988593 0.000000
vt 0.798479 0.000000
vt 0.984791 0.000000
vt 0.821293 0.000000
vt 0.806084 0.000000
vt 0.802281 0.000000
vt 0.809886 0.000000
vt 0.813688 0.000000
vt 0.817491 0.000000
vt 0.825095 0.000000
vt 0.828897 0.000000
vt 0.832700 0.000000
vt 0.836502 0.000000
vt 0.787072 0.000000
vt 0.840304 0.000000
vt 0.844106 0.000000
vt 0.847909 0.000000
vt 0.783270 0.000000
vt 0.851711 0.000000
vt 0.855513 0.000000
vt 0.779468 0.000000
vt 0.859316 0.000000
vt 0.863118 0.000000
vt 0.980989 0.000000
vt 0.775665 0.000000
vt 0.866920 0.000000
vt 0.771863 0.000000
vt 0.768061 0.000000
vt 0.870722 0.000000
vt 0.764259 0.000000
vt 0.760456 0.000000
vt 0.756654 0.000000
vt 0.977186 0.000000
vt 0.752852 0.000000
vt 0.749049 0.000000
vt 0.745247 0.000000
vt 0.741445 0.000000
vt 0.737643 0.000000
vt 0.460076 0.000000
vt 0.733840 0.000000
vt 0.874525 0.000000
vt 0.730038 0.000000
vt 0.726236 0.000000
vt 0.973384 0.000000
vt 0.722433 0.000000
vt 0.718631 0.000000
vt 0.714829 0.000000
vt 0.878327 0.000000
vt 0.711027 0.000000
vt 0.969582 0.000000
vt 0.707224 0.000000
vt 0.703422 0.000000
vt 0.699620 0.000000
vt 0.965779 0.000000
vt 0.695817 0.000000
vt 0.882129 0.000000
vt 0.692015 0.000000
vt 0.688213 0.000000
vt 0.684411 0.000000
vt 0.961977 0.000000
vt 0.680608 0.000000
vt 0.463878 0.000000
vt 0.676806 0.000000
vt 0.885932 0.000000
vt 0.958175 0.000000
vt 0.954373 0.000000
vt 0.889734 0.000000
vt 0.950570 0.000000
vt 0.673004 0.000000
vt 0.946768 0.000000
vt 0.893536 0.000000
vt 0.467681 0.000000
vt 0.942966 0.000000
vt 0.939164 0.000000
vt 0.897338 0.000000
vt 0.669201 0.000000
vt 0.935361 0.000000
vt 0.931559 0.000000
vt 0.901141 0.000000
vt 0.927757 0.000000
vt 0.923954 0.000000
vt 0.665399 0.000000
vt 0.904943 0.000000
vt 0.920152 0.000000
vt 0.471483 0.000000
vt 0.916350 0.000000
vt 0.908745 0.000000
vt 0.912548 0.000000
vt 0.661597 0.000000
vt 0.657795 0.000000
vt 0.475285 0.000000
vt 0.653992 0.000000
vt 0.650190 0.000000
vt 0.646388 0.000000
vt 0.642586 0.000000
vt 0.479087 0.000000
vt 0.638783 0.000000
vt 0.634981 0.000000
vt 0.631179 0.000000
vt 0.627376 0.000000
vt 0.623574 0.000000
vt 0.619772 0.000000
vt 0.615970 0.000000
vt 0.612167 0.000000
vt 0.608365 0.000000
vt 0.482890 0.000000
vt 0.604563 0.000000
vt 0.600760 0.000000
vt 0.596958 0.000000
vt 0.593156 0.000000
vt 0.589354 0.000000
vt 0.486692 0.000000
vt 0.585551 0.000000
vt 0.581749 0.000000
vt 0.490494 0.000000
vt 0.577947 0.000000
vt 0.574144 0.000000
vt 0.494297 0.000000
vt 0.570342 0.000000
vt 0.566540 0.000000
vt 0.498099 0.000000
vt 0.562738 0.000000
vt 0.558935 0.000000
vt 0.501901 0.000000
vt 0.555133 0.000000
vt 0.505703 0.000000
vt 0.509506 0.000000
vt 0.513308 0.000000
vt 0.517110 0.000000
vt 0.551331 0.000000
vt 0.520913 0.000000
vt 0.524715 0.000000
vt 0.547529 0.000000
vt 0.528517 0.000000
vt 0.532319 0.000000
vt 0.536122 0.000000
vt 0.543726 0.000000
vt 0.539924 0.000000
vt 0.003788 1.000000
vt 0.000000 1.000000
vt 0.007576 1.000000
vt 0.003788 0.000000
vt 0.011364 1.000000
vt 0.007576 0.000000
vt 0.015152 1.000000
vt 0.011364 0.000000
vt 0.018939 1.000000
vt 0.015152 0.000000
vt 0.022727 1.000000
vt 0.018939 0.000000
vt 0.026515 1.000000
vt 0.022727 0.000000
vt 0.030303 1.000000
vt 0.026515 0.000000
vt 0.034091 1.000000
vt 0.030303 0.000000
vt 0.037879 1.000000
vt 0.034091 0.000000
vt 0.041667 1.000000
vt 0.037879 0.000000
vt 0.045455 1.000000
vt 0.041667 0.000000
vt 0.049242 1.000000
vt 0.045455 0.000000
vt 0.053030 1.000000
vt 0.049242 0.000000
vt 0.056818 1.000000
vt 0.053030 0.000000
vt 0.060606 1.000000
vt 0.056818 0.000000
vt 0.064394 1.000000
vt 0.060606 0.000000
vt 0.068182 1.000000
vt 0.064394 0.000000
vt 0.071970 1.000000
vt 0.068182 0.000000
vt 0.075758 1.000000
vt 0.071970 0.000000
vt 0.079545 1.000000
vt 0.075758 0.000000
vt 0.083333 1.000000
vt 0.079545 0.000000
vt 0.087121 1.000000
vt 0.083333 0.000000
vt 0.090909 1.000000
vt 0.087121 0.000000
vt 0.094697 1.000000
vt 0.090909 0.000000
vt 0.098485 1.000000
vt 0.094697 0.000000
vt 0.102273 1.000000
vt 0.098485 0.000000
vt 0.106061 1.000000
vt 0.102273 0.000000
vt 0.109848 1.000000
vt 0.106061 0.000000
vt 0.113636 1.000000
vt 0.109848 0.000000
vt 0.117424 1.000000
vt 0.113636 0.000000
vt 0.121212 1.000000
vt 0.117424 0.000000
vt 0.125000 1.000000
vt 0.121212 0.000000
vt 0.128788 1.000000
vt 0.125000 0.000000
vt 0.132576 1.000000
vt 0.128788 0.000000
vt 0.136364 1.000000
vt 0.132576 0.000000
vt 0.140152 1.000000
vt 0.136364 0.000000
vt 0.143939 1.000000
vt 0.140152 0.000000
vt 0.147727 1.000000
vt 0.143939 0.000000
vt 0.151515 1.000000
vt 0.147727 0.000000
vt 0.155303 1.000000
vt 0.151515 0.000000
vt 0.159091 1.000000
vt 0.155303 0.000000
vt 0.162879 1.000000
vt 0.159091 0.000000
vt 0.166667 1.000000
vt 0.162879 0.000000
vt 0.170455 1.000000
vt 0.166667 0.000000
vt 0.174242 1.000000
vt 0.170455 0.000000
vt 0.178030 1.000000
vt 0.174242 0.000000
vt 0.181818 1.000000
vt 0.178030 0.000000
vt 0.185606 1.000000
vt 0.181818 0.000000
vt 0.189394 1.000000
vt 0.185606 0.000000
vt 0.193182 1.000000
vt 0.189394 0.000000
vt 0.196970 1.000000
vt 0.193182 0.000000
vt 0.200758 1.000000
vt 0.196970 0.000000
vt 0.204545 1.000000
vt 0.200758 0.000000
vt 0.208333 1.000000
vt 0.204545 0.000000
vt 0.212121 1.000000
vt 0.208333 0.000000
vt 0.215909 1.000000
vt 0.212121 0.000000
vt 0.219697 1.000000
vt 0.215909 0.000000
vt 0.223485 1.000000
vt 0.219697 0.000000
vt 0.227273 1.000000
vt 0.223485 0.000000
vt 0.231061 1.000000
vt 0.227273 0.000000
vt 0.234848 1.000000
vt 0.231061 0.000000
vt 0.238636 1.000000
vt 0.234848 0.000000
vt 0.242424 1.000000
vt 0.238636 0.000000
vt 0.246212 1.000000
vt 0.242424 0.000000
vt 0.250000 1.000000
vt 0.246212 0.000000
vt 0.253788 1.000000
vt 0.250000 0.000000
vt 0.257576 1.000000
vt 0.253788 0.000000
vt 0.261364 1.000000
vt 0.257576 0.000000
vt 0.265152 1.000000
vt 0.261364 0.000000
vt 0.268939 1.000000
vt 0.265152 0.000000
vt 0.272727 1.000000
vt 0.268939 0.000000
vt 0.276515 1.000000
vt 0.272727 0.000000
vt 0.280303 1.000000
vt 0.276515 0.000000
vt 0.284091 1.000000
vt 0.280303 0.000000
vt 0.287879 1.000000
vt 0.284091 0.000000
vt 0.291667 1.000000
vt 0.287879 0.000000
vt 0.295455 1.000000
vt 0.291667 0.000000
vt 0.299242 1.000000
vt 0.295455 0.000000
vt 0.303030 1.000000
vt 0.299242 0.000000
vt 0.306818 1.000000
vt 0.303030 0.000000
vt 0.310606 1.000000
vt 0.306818 0.000000
vt 0.314394 1.000000
vt 0.310606 0.000000
vt 0.318182 1.000000
vt 0.314394 0.000000
vt 0.321970 1.000000
vt 0.318182 0.000000
vt 0.325758 1.000000
vt 0.321970 0.000000
vt 0.329545 1.000000
vt 0.325758 0.000000
vt 0.333333 1.000000
vt 0.329545 0.000000
vt 0.337121 1.000000
vt 0.333333 0.000000
vt 0.340909 1.000000
vt 0.337121 0.000000
vt 0.344697 1.000000
vt 0.340909 0.000000
vt 0.348485 1.000000
vt 0.344697 0.000000
vt 0.352273 1.000000
vt 0.348485 0.000000
vt 0.356061 1.000000
vt 0.352273 0.000000
vt 0.359848 1.000000
vt 0.356061 0.000000
vt 0.363636 1.000000
vt 0.359848 0.000000
vt 0.367424 1.000000
vt 0.363636 0.000000
vt 0.371212 1.000000
vt 0.367424 0.000000
vt 0.375000 1.000000
vt 0.371212 0.000000
vt 0.378788 1.000000
vt 0.375000 0.000000
vt 0.382576 1.000000
vt 0.378788 0.000000
vt 0.386364 1.000000
vt 0.382576 0.000000
vt 0.390152 1.000000
vt 0.386364 0.000000
vt 0.393939 1.000000
vt 0.390152 0.000000
vt 0.397727 1.000000
vt 0.393939 0.000000
vt 0.401515 1.000000
vt 0.397727 0.000000
vt 0.405303 1.000000
vt 0.401515 0.000000
vt 0.409091 1.000000
vt 0.405303 0.000000
vt 0.412879 1.000000
vt 0.409091 0.000000
vt 0.416667 1.000000
vt 0.412879 0.000000
vt 0.420455 1.000000
vt 0.416667 0.000000
vt 0.424242 1.000000
vt 0.420455 0.000000
vt 0.428030 1.000000
vt 0.424242 0.000000
vt 0.431818 1.000000
vt 0.428030 0.000000
vt 0.435606 1.000000
vt 0.431818 0.000000
vt 0.439394 1.000000
vt 0.435606 0.000000
vt 0.443182 1.000000
vt 0.439394 0.000000
vt 0.446970 1.000000
vt 0.443182 0.000000
vt 0.450758 1.000000
vt 0.446970 0.000000
vt 0.454545 1.000000
vt 0.450758 0.000000
vt 0.458333 1.000000
vt 0.454545 0.000000
vt 0.462121 1.000000
vt 0.458333 0.000000
vt 0.465909 1.000000
vt 0.462121 0.000000
vt 0.469697 1.000000
vt 0.465909 0.000000
vt 0.473485 1.000000
vt 0.469697 0.000000
vt 0.477273 1.000000
vt 0.473485 0.000000
vt 0.481061 1.000000
vt 0.477273 0.000000
vt 0.484848 1.000000
vt 0.481061 0.000000
vt 0.488636 1.000000
vt 0.484848 0.000000
vt 0.492424 1.000000
vt 0.488636 0.000000
vt 0.496212 1.000000
vt 0.492424 0.000000
vt 0.500000 1.000000
vt 0.496212 0.000000
vt 0.503788 1.000000
vt 0.500000 0.000000
vt 0.507576 1.000000
vt 0.503788 0.000000
vt 0.511364 1.000000
vt 0.507576 0.000000
vt 0.515152 1.000000
vt 0.511364 0.000000
vt 0.518939 1.000000
vt 0.515152 0.000000
vt 0.522727 1.000000
vt 0.518939 0.000000
vt 0.526515 1.000000
vt 0.522727 0.000000
vt 0.530303 1.000000
vt 0.526515 0.000000
vt 0.534091 1.000000
vt 0.530303 0.000000
vt 0.537879 1.000000
vt 0.534091 0.000000
vt 0.541667 1.000000
vt 0.537879 0.000000
vt 0.545455 1.000000
vt 0.541667 0.000000
vt 0.549242 1.000000
vt 0.545455 0.000000
vt 0.553030 1.000000
vt 0.549242 0.000000
vt 0.556818 1.000000
vt 0.553030 0.000000
vt 0.560606 1.000000
vt 0.556818 0.000000
vt 0.564394 1.000000
vt 0.560606 0.000000
vt 0.568182 1.000000
vt 0.564394 0.000000
vt 0.571970 1.000000
vt 0.568182 0.000000
vt 0.575758 1.000000
vt 0.571970 0.000000
vt 0.579545 1.000000
vt 0.575758 0.000000
vt 0.583333 1.000000
vt 0.579545 0.000000
vt 0.587121 1.000000
vt 0.583333 0.000000
vt 0.590909 1.000000
vt 0.587121 0.000000
vt 0.594697 1.000000
vt 0.590909 0.000000
vt 0.598485 1.000000
vt 0.594697 0.000000
vt 0.602273 1.000000
vt 0.598485 0.000000
vt 0.606061 1.000000
vt 0.602273 0.000000
vt 0.609848 1.000000
vt 0.606061 0.000000
vt 0.613636 1.000000
vt 0.609848 0.000000
vt 0.617424 1.000000
vt 0.613636 0.000000
vt 0.621212 1.000000
vt 0.617424 0.000000
vt 0.625000 1.000000
vt 0.621212 0.000000
vt 0.628788 1.000000
vt 0.625000 0.000000
vt 0.632576 1.000000
vt 0.628788 0.000000
vt 0.636364 1.000000
vt 0.632576 0.000000
vt 0.640152 1.000000
vt 0.636364 0.000000
vt 0.643939 1.000000
vt 0.640152 0.000000
vt 0.647727 1.000000
vt 0.643939 0.000000
vt 0.651515 1.000000
vt 0.647727 0.000000
vt 0.655303 1.000000
vt 0.651515 0.000000
vt 0.659091 1.000000
vt 0.655303 0.000000
vt 0.662879 1.000000
vt 0.659091 0.000000
vt 0.666667 1.000000
vt 0.662879 0.000000
vt 0.670455 1.000000
vt 0.666667 0.000000
vt 0.674242 1.000000
vt 0.670455 0.000000
vt 0.678030 1.000000
vt 0.674242 0.000000
vt 0.681818 1.000000
vt 0.678030 0.000000
vt 0.685606 1.000000
vt 0.681818 0.000000
vt 0.689394 1.000000
vt 0.685606 0.000000
vt 0.693182 1.000000
vt 0.689394 0.000000
vt 0.696970 1.000000
vt 0.693182 0.000000
vt 0.700758 1.000000
vt 0.696970 0.000000
vt 0.704545 1.000000
vt 0.700758 0.000000
vt 0.708333 1.000000
vt 0.704545 0.000000
vt 0.712121 1.000000
vt 0.708333 0.000000
vt 0.715909 1.000000
vt 0.712121 0.000000
vt 0.719697 1.000000
vt 0.715909 0.000000
vt 0.723485 1.000000
vt 0.719697 0.000000
vt 0.727273 1.000000
vt 0.723485 0.000000
vt 0.731061 1.000000
vt 0.727273 0.000000
vt 0.734848 1.000000
vt 0.731061 0.000000
vt 0.738636 1.000000
vt 0.734848 0.000000
vt 0.742424 1.000000
vt 0.738636 0.000000
vt 0.746212 1.000000
vt 0.742424 0.000000
vt 0.750000 1.000000
vt 0.746212 0.000000
vt 0.753788 1.000000
vt 0.750000 0.000000
vt 0.757576 1.000000
vt 0.753788 0.000000
vt 0.761364 1.000000
vt 0.757576 0.000000
vt 0.765152 1.000000
vt 0.761364 0.000000
vt 0.768939 1.000000
vt 0.765152 0.000000
vt 0.772727 1.000000
vt 0.768939 0.000000
vt 0.776515 1.000000
vt 0.772727 0.000000
vt 0.780303 1.000000
vt 0.776515 0.000000
vt 0.784091 1.000000
vt 0.780303 0.000000
vt 0.787879 1.000000
vt 0.784091 0.000000
vt 0.791667 1.000000
vt 0.787879 0.000000
vt 0.795455 1.000000
vt 0.791667 0.000000
vt 0.799242 1.000000
vt 0.795455 0.000000
vt 0.803030 1.000000
vt 0.799242 0.000000
vt 0.806818 1.000000
vt 0.803030 0.000000
vt 0.810606 1.000000
vt 0.806818 0.000000
vt 0.814394 1.000000
vt 0.810606 0.000000
vt 0.818182 1.000000
vt 0.814394 0.000000
vt 0.821970 1.000000
vt 0.818182 0.000000
vt 0.825758 1.000000
vt 0.821970 0.000000
vt 0.829545 1.000000
vt 0.825758 0.000000
vt 0.833333 1.000000
vt 0.829545 0.000000
vt 0.837121 1.000000
vt 0.833333 0.000000
vt 0.840909 1.000000
vt 0.837121 0.000000
vt 0.844697 1.000000
vt 0.840909 0.000000
vt 0.848485 1.000000
vt 0.844697 0.000000
vt 0.852273 1.000000
vt 0.848485 0.000000
vt 0.856061 1.000000
vt 0.852273 0.000000
vt 0.859848 1.000000
vt 0.856061 0.000000
vt 0.863636 1.000000
vt 0.859848 0.000000
vt 0.867424 1.000000
vt 0.863636 0.000000
vt 0.871212 1.000000
vt 0.867424 0.000000
vt 0.875000 1.000000
vt 0.871212 0.000000
vt 0.878788 1.000000
vt 0.875000 0.000000
vt 0.882576 1.000000
vt 0.878788 0.000000
vt 0.886364 1.000000
vt 0.882576 0.000000
vt 0.890152 1.000000
vt 0.886364 0.000000
vt 0.893939 1.000000
vt 0.890152 0.000000
vt 0.897727 1.000000
vt 0.893939 0.000000
vt 0.901515 1.000000
vt 0.897727 0.000000
vt 0.905303 1.000000
vt 0.901515 0.000000
vt 0.909091 1.000000
vt 0.905303 0.000000
vt 0.912879 1.000000
vt 0.909091 0.000000
vt 0.916667 1.000000
vt 0.912879 0.000000
vt 0.920455 1.000000
vt 0.916667 0.000000
vt 0.924242 1.000000
vt 0.920455 0.000000
vt 0.928030 1.000000
vt 0.924242 0.000000
vt 0.931818 1.000000
vt 0.928030 0.000000
vt 0.935606 1.000000
vt 0.931818 0.000000
vt 0.939394 1.000000
vt 0.935606 0.000000
vt 0.943182 1.000000
vt 0.939394 0.000000
vt 0.946970 1.000000
vt 0.943182 0.000000
vt 0.950758 1.000000
vt 0.946970 0.000000
vt 0.954545 1.000000
vt 0.950758 0.000000
vt 0.958333 1.000000
vt 0.954545 0.000000
vt 0.962121 1.000000
vt 0.958333 0.000000
vt 0.965909 1.000000
vt 0.962121 0.000000
vt 0.969697 1.000000
vt 0.965909 0.000000
vt 0.973485 1.000000
vt 0.969697 0.000000
vt 0.977273 1.000000
vt 0.973485 0.000000
vt 0.981061 1.000000
vt 0.977273 0.000000
vt 0.984848 1.000000
vt 0.981061 0.000000
vt 0.988636 1.000000
vt 0.984848 0.000000
vt 0.992424 1.000000
vt 0.988636 0.000000
vt 0.996212 1.000000
vt 0.992424 0.000000
vt 1.000000 1.000000
vt 0.996212 0.000000
s 0
usemtl マテリアル.006
f 53/1/1 55/2/1 54/3/1
f 53/1/1 56/4/1 55/2/1
f 52/5/1 56/4/1 53/1/1
f 52/5/1 57/6/1 56/4/1
f 51/7/1 57/6/1 52/5/1
f 51/7/1 58/8/1 57/6/1
f 51/7/1 59/9/1 58/8/1
f 51/7/1 60/10/1 59/9/1
f 51/7/1 61/11/1 60/10/1
f 50/12/1 61/11/1 51/7/1
f 50/12/1 62/13/1 61/11/1
f 49/14/1 62/13/1 50/12/1
f 48/15/1 62/13/1 49/14/1
f 48/15/1 63/16/1 62/13/1
f 47/17/1 63/16/1 48/15/1
f 46/18/1 63/16/1 47/17/1
f 45/19/1 63/16/1 46/18/1
f 45/19/1 64/20/1 63/16/1
f 44/21/1 64/20/1 45/19/1
f 43/22/1 64/20/1 44/21/1
f 42/23/1 64/20/1 43/22/1
f 41/24/1 64/20/1 42/23/1
f 41/24/1 65/25/1 64/20/1
f 40/26/1 65/25/1 41/24/1
f 39/27/1 65/25/1 40/26/1
f 38/28/1 65/25/1 39/27/1
f 38/28/1 66/29/1 65/25/1
f 37/30/1 66/29/1 38/28/1
f 36/31/1 66/29/1 37/30/1
f 35/32/1 66/29/1 36/31/1
f 35/32/1 67/33/1 66/29/1
f 34/34/1 67/33/1 35/32/1
f 34/34/1 68/35/1 67/33/1
f 33/36/1 68/35/1 34/34/1
f 33/36/1 69/37/1 68/35/1
f 32/38/1 69/37/1 33/36/1
f 32/38/1 70/39/1 69/37/1
f 31/40/1 70/39/1 32/38/1
f 31/40/1 71/41/1 70/39/1
f 30/42/1 71/41/1 31/40/1
f 30/42/1 72/43/1 71/41/1
f 29/44/1 72/43/1 30/42/1
f 29/44/1 73/45/1 72/43/1
f 28/46/1 73/45/1 29/44/1
f 28/46/1 74/47/1 73/45/1
f 28/46/1 75/48/1 74/47/1
f 28/46/1 76/49/1 75/48/1
f 28/46/1 77/50/1 76/49/1
f 28/46/1 78/51/1 77/50/1
f 28/46/1 79/52/1 78/51/1
f 27/53/1 79/52/1 28/46/1
f 27/53/1 80/54/1 79/52/1
f 27/53/1 81/55/1 80/54/1
f 27/53/1 82/56/1 81/55/1
f 27/53/1 83/57/1 82/56/1
f 27/53/1 84/58/1 83/57/1
f 27/53/1 85/59/1 84/58/1
f 27/53/1 86/60/1 85/59/1
f 27/53/1 87/61/1 86/60/1
f 26/62/1 87/61/1 27/53/1
f 26/62/1 88/63/1 87/61/1
f 26/62/1 89/64/1 88/63/1
f 26/62/1 90/65/1 89/64/1
f 26/62/1 91/66/1 90/65/1
f 26/62/1 92/67/1 91/66/1
f 26/62/1 93/68/1 92/67/1
f 26/62/1 94/69/1 93/68/1
f 26/62/1 95/70/1 94/69/1
f 26/62/1 96/71/1 95/70/1
f 26/62/1 97/72/1 96/71/1
f 26/62/1 98/73/1 97/72/1
f 26/62/1 99/74/1 98/73/1
f 26/62/1 100/75/1 99/74/1
f 26/62/1 101/76/1 100/75/1
f 26/62/1 102/77/1 101/76/1
f 26/62/1 103/78/1 102/77/1
f 25/79/1 103/78/1 26/62/1
f 25/79/1 104/80/1 103/78/1
f 25/79/1 105/81/1 104/80/1
f 24/82/1 105/81/1 25/79/1
f 24/82/1 106/83/1 105/81/1
f 23/84/1 106/83/1 24/82/1
f 23/84/1 107/85/1 106/83/1
f 22/86/1 107/85/1 23/84/1
f 22/86/1 108/87/1 107/85/1
f 21/88/1 108/87/1 22/86/1
f 20/89/1 108/87/1 21/88/1
f 20/89/1 109/90/1 108/87/1
f 19/91/1 109/90/1 20/89/1
f 19/91/1 110/92/1 109/90/1
f 18/93/1 110/92/1 19/91/1
f 18/93/1 111/94/1 110/92/1
f 17/95/1 111/94/1 18/93/1
f 16/96/1 111/94/1 17/95/1
f 16/96/1 112/97/1 111/94/1
f 15/98/1 112/97/1 16/96/1
f 14/99/1 112/97/1 15/98/1
f 14/99/1 113/100/1 112/97/1
f 13/101/1 113/100/1 14/99/1
f 13/101/1 114/102/1 113/100/1
f 12/103/1 114/102/1 13/101/1
f 11/104/1 114/102/1 12/103/1
f 11/104/1 115/105/1 114/102/1
f 10/106/1 115/105/1 11/104/1
f 9/107/1 115/105/1 10/106/1
f 9/107/1 116/108/1 115/105/1
f 8/109/1 116/108/1 9/107/1
f 7/110/1 116/108/1 8/109/1
f 7/110/1 117/111/1 116/108/1
f 6/112/1 117/111/1 7/110/1
f 5/113/1 117/111/1 6/112/1
f 5/113/1 118/114/1 117/111/1
f 4/115/1 118/114/1 5/113/1
f 4/115/1 119/116/1 118/114/1
f 3/117/1 119/116/1 4/115/1
f 2/118/1 119/116/1 3/117/1
f 2/118/1 120/119/1 119/116/1
f 1/120/1 120/119/1 2/118/1
f 264/121/1 120/119/1 1/120/1
f 264/121/1 209/122/1 120/119/1
f 209/122/1 121/123/1 120/119/1
f 263/124/1 210/125/1 264/121/1
f 210/125/1 209/122/1 264/121/1
f 262/126/1 210/125/1 263/124/1
f 261/127/1 211/128/1 262/126/1
f 211/128/1 210/125/1 262/126/1
f 260/129/1 217/130/1 261/127/1
f 217/130/1 213/131/1 261/127/1
f 213/131/1 212/132/1 261/127/1
f 212/132/1 211/128/1 261/127/1
f 217/130/1 214/133/1 213/131/1
f 217/130/1 215/134/1 214/133/1
f 217/130/2 216/135/2 215/134/2
f 260/129/1 218/136/1 217/130/1
f 260/129/1 219/137/1 218/136/1
f 260/129/1 220/138/1 219/137/1
f 260/129/1 221/139/1 220/138/1
f 208/140/1 121/123/1 209/122/1
f 260/129/1 222/141/1 221/139/1
f 260/129/1 223/142/1 222/141/1
f 260/129/1 224/143/1 223/142/1
f 207/144/1 121/123/1 208/140/1
f 260/129/1 225/145/1 224/143/1
f 260/129/1 226/146/1 225/145/1
f 206/147/1 121/123/1 207/144/1
f 260/129/1 227/148/1 226/146/1
f 260/129/1 228/149/1 227/148/1
f 259/150/1 228/149/1 260/129/1
f 205/151/1 121/123/1 206/147/1
f 259/150/1 229/152/1 228/149/1
f 204/153/1 121/123/1 205/151/1
f 203/154/1 121/123/1 204/153/1
f 259/150/1 230/155/1 229/152/1
f 202/156/1 121/123/1 203/154/1
f 201/157/1 121/123/1 202/156/1
f 200/158/1 121/123/1 201/157/1
f 258/159/1 230/155/1 259/150/1
f 199/160/1 121/123/1 200/158/1
f 198/161/1 121/123/1 199/160/1
f 197/162/1 121/123/1 198/161/1
f 196/163/1 121/123/1 197/162/1
f 195/164/1 121/123/1 196/163/1
f 195/164/1 122/165/1 121/123/1
f 194/166/1 122/165/1 195/164/1
f 258/159/1 231/167/1 230/155/1
f 193/168/1 122/165/1 194/166/1
f 192/169/1 122/165/1 193/168/1
f 257/170/1 231/167/1 258/159/1
f 191/171/1 122/165/1 192/169/1
f 190/172/1 122/165/1 191/171/1
f 189/173/1 122/165/1 190/172/1
f 257/170/1 232/174/1 231/167/1
f 188/175/1 122/165/1 189/173/1
f 256/176/1 232/174/1 257/170/1
f 187/177/1 122/165/1 188/175/1
f 186/178/1 122/165/1 187/177/1
f 185/179/1 122/165/1 186/178/1
f 255/180/1 232/174/1 256/176/1
f 184/181/1 122/165/1 185/179/1
f 255/180/1 233/182/1 232/174/1
f 183/183/1 122/165/1 184/181/1
f 182/184/1 122/165/1 183/183/1
f 181/185/1 122/165/1 182/184/1
f 254/186/1 233/182/1 255/180/1
f 180/187/1 122/165/1 181/185/1
f 180/187/1 123/188/1 122/165/1
f 179/189/1 123/188/1 180/187/1
f 254/186/1 234/190/1 233/182/1
f 253/191/1 234/190/1 254/186/1
f 252/192/1 234/190/1 253/191/1
f 252/192/1 235/193/1 234/190/1
f 251/194/1 235/193/1 252/192/1
f 178/195/1 123/188/1 179/189/1
f 250/196/1 235/193/1 251/194/1
f 250/196/1 236/197/1 235/193/1
f 178/195/1 124/198/1 123/188/1
f 249/199/1 236/197/1 250/196/1
f 248/200/1 236/197/1 249/199/1
f 248/200/1 237/201/1 236/197/1
f 177/202/1 124/198/1 178/195/1
f 247/203/1 237/201/1 248/200/1
f 246/204/1 237/201/1 247/203/1
f 246/204/1 238/205/1 237/201/1
f 245/206/1 238/205/1 246/204/1
f 244/207/1 238/205/1 245/206/1
f 176/208/1 124/198/1 177/202/1
f 244/207/1 239/209/1 238/205/1
f 243/210/1 239/209/1 244/207/1
f 176/208/1 125/211/1 124/198/1
f 242/212/1 239/209/1 243/210/1
f 242/212/1 240/213/1 239/209/1
f 241/214/1 240/213/1 242/212/1
f 175/215/1 125/211/1 176/208/1
f 174/216/1 125/211/1 175/215/1
f 174/216/1 126/217/1 125/211/1
f 173/218/1 126/217/1 174/216/1
f 172/219/1 126/217/1 173/218/1
f 171/220/1 126/217/1 172/219/1
f 170/221/1 126/217/1 171/220/1
f 170/221/1 127/222/1 126/217/1
f 169/223/1 127/222/1 170/221/1
f 168/224/1 127/222/1 169/223/1
f 167/225/1 127/222/1 168/224/1
f 166/226/1 127/222/1 167/225/1
f 165/227/1 127/222/1 166/226/1
f 164/228/1 127/222/1 165/227/1
f 163/229/1 127/222/1 164/228/1
f 162/230/1 127/222/1 163/229/1
f 161/231/1 127/222/1 162/230/1
f 161/231/1 128/232/1 127/222/1
f 160/233/1 128/232/1 161/231/1
f 159/234/1 128/232/1 160/233/1
f 158/235/1 128/232/1 159/234/1
f 157/236/1 128/232/1 158/235/1
f 156/237/1 128/232/1 157/236/1
f 156/237/1 129/238/1 128/232/1
f 155/239/1 129/238/1 156/237/1
f 154/240/1 129/238/1 155/239/1
f 154/240/1 130/241/1 129/238/1
f 153/242/1 130/241/1 154/240/1
f 152/243/1 130/241/1 153/242/1
f 152/243/1 131/244/1 130/241/1
f 151/245/1 131/244/1 152/243/1
f 150/246/1 131/244/1 151/245/1
f 150/246/1 132/247/1 131/244/1
f 149/248/1 132/247/1 150/246/1
f 148/249/1 132/247/1 149/248/1
f 148/249/1 133/250/1 132/247/1
f 147/251/1 133/250/1 148/249/1
f 147/251/1 134/252/1 133/250/1
f 147/251/1 135/253/1 134/252/1
f 147/251/1 136/254/1 135/253/1
f 147/251/1 137/255/1 136/254/1
f 146/256/1 137/255/1 147/251/1
f 146/256/1 138/257/1 137/255/1
f 146/256/1 139/258/1 138/257/1
f 145/259/1 139/258/1 146/256/1
f 145/259/1 140/260/1 139/258/1
f 145/259/1 141/261/1 140/260/1
f 145/259/1 142/262/1 141/261/1
f 144/263/1 142/262/1 145/259/1
f 144/263/1 143/264/1 142/262/1
f 317/1/3 318/3/3 319/2/3
f 317/1/3 319/2/3 320/4/3
f 316/5/3 317/1/3 320/4/3
f 316/5/3 320/4/3 321/6/3
f 315/7/3 316/5/3 321/6/3
f 315/7/3 321/6/3 322/8/3
f 315/7/3 322/8/3 323/9/3
f 315/7/3 323/9/3 324/10/3
f 315/7/3 324/10/3 325/11/3
f 314/12/3 315/7/3 325/11/3
f 314/12/3 325/11/3 326/13/3
f 313/14/3 314/12/3 326/13/3
f 312/15/3 313/14/3 326/13/3
f 312/15/3 326/13/3 327/16/3
f 311/17/3 312/15/3 327/16/3
f 310/18/3 311/17/3 327/16/3
f 309/19/3 310/18/3 327/16/3
f 309/19/3 327/16/3 328/20/3
f 308/21/3 309/19/3 328/20/3
f 307/22/3 308/21/3 328/20/3
f 306/23/3 307/22/3 328/20/3
f 305/24/3 306/23/3 328/20/3
f 305/24/3 328/20/3 329/25/3
f 304/26/3 305/24/3 329/25/3
f 303/27/3 304/26/3 329/25/3
f 302/28/3 303/27/3 329/25/3
f 302/28/3 329/25/3 330/29/3
f 301/30/3 302/28/3 330/29/3
f 300/31/3 301/30/3 330/29/3
f 299/32/3 300/31/3 330/29/3
f 299/32/3 330/29/3 331/33/3
f 298/34/3 299/32/3 331/33/3
f 298/34/3 331/33/3 332/35/3
f 297/36/3 298/34/3 332/35/3
f 297/36/3 332/35/3 333/37/3
f 296/38/3 297/36/3 333/37/3
f 296/38/3 333/37/3 334/39/3
f 295/40/3 296/38/3 334/39/3
f 295/40/3 334/39/3 335/41/3
f 294/42/3 295/40/3 335/41/3
f 294/42/3 335/41/3 336/43/3
f 293/44/3 294/42/3 336/43/3
f 293/44/3 336/43/3 337/45/3
f 292/46/3 293/44/3 337/45/3
f 292/46/3 337/45/3 338/47/3
f 292/46/3 338/47/3 339/48/3
f 292/46/3 339/48/3 340/49/3
f 292/46/3 340/49/3 341/50/3
f 292/46/3 341/50/3 342/51/3
f 292/46/3 342/51/3 343/52/3
f 291/53/3 292/46/3 343/52/3
f 291/53/3 343/52/3 344/54/3
f 291/53/3 344/54/3 345/55/3
f 291/53/3 345/55/3 346/56/3
f 291/53/3 346/56/3 347/57/3
f 291/53/3 347/57/3 348/58/3
f 291/53/3 348/58/3 349/59/3
f 291/53/3 349/59/3 350/60/3
f 291/53/3 350/60/3 351/61/3
f 290/62/3 291/53/3 351/61/3
f 290/62/3 351/61/3 352/63/3
f 290/62/3 352/63/3 353/64/3
f 290/62/3 353/64/3 354/65/3
f 290/62/3 354/65/3 355/66/3
f 290/62/3 355/66/3 356/67/3
f 290/62/3 356/67/3 357/68/3
f 290/62/3 357/68/3 358/69/3
f 290/62/3 358/69/3 359/70/3
f 290/62/3 359/70/3 360/71/3
f 290/62/3 360/71/3 361/72/3
f 290/62/3 361/72/3 362/73/3
f 290/62/3 362/73/3 363/74/3
f 290/62/3 363/74/3 364/75/3
f 290/62/3 364/75/3 365/76/3
f 290/62/3 365/76/3 366/77/3
f 290/62/3 366/77/3 367/78/3
f 289/79/3 290/62/3 367/78/3
f 289/79/3 367/78/3 368/80/3
f 289/79/3 368/80/3 369/81/3
f 288/82/3 289/79/3 369/81/3
f 288/82/3 369/81/3 370/83/3
f 287/84/3 288/82/3 370/83/3
f 287/84/3 370/83/3 371/85/3
f 286/86/3 287/84/3 371/85/3
f 286/86/3 371/85/3 372/87/3
f 285/88/3 286/86/3 372/87/3
f 284/89/3 285/88/3 372/87/3
f 284/89/3 372/87/3 373/90/3
f 283/91/3 284/89/3 373/90/3
f 283/91/3 373/90/3 374/92/3
f 282/93/3 283/91/3 374/92/3
f 282/93/3 374/92/3 375/94/3
f 281/95/3 282/93/3 375/94/3
f 280/96/3 281/95/3 375/94/3
f 280/96/3 375/94/3 376/97/3
f 279/98/3 280/96/3 376/97/3
f 278/99/3 279/98/3 376/97/3
f 278/99/3 376/97/3 377/100/3
f 277/101/3 278/99/3 377/100/3
f 277/101/3 377/100/3 378/102/3
f 276/103/3 277/101/3 378/102/3
f 275/104/3 276/103/3 378/102/3
f 275/104/3 378/102/3 379/105/3
f 274/106/3 275/104/3 379/105/3
f 273/107/3 274/106/3 379/105/3
f 273/107/3 379/105/3 380/108/3
f 272/109/3 273/107/3 380/108/3
f 271/110/3 272/109/3 380/108/3
f 271/110/3 380/108/3 381/111/3
f 270/112/3 271/110/3 381/111/3
f 269/113/3 270/112/3 381/111/3
f 269/113/3 381/111/3 382/114/3
f 268/115/3 269/113/3 382/114/3
f 268/115/3 382/114/3 383/116/3
f 267/117/3 268/115/3 383/116/3
f 266/118/3 267/117/3 383/116/3
f 266/118/3 383/116/3 384/119/3
f 265/120/3 266/118/3 384/119/3
f 528/121/3 265/120/3 384/119/3
f 528/121/3 384/119/3 473/122/3
f 473/122/3 384/119/3 385/123/3
f 527/124/3 528/121/3 474/125/3
f 474/125/3 528/121/3 473/122/3
f 526/126/3 527/124/3 474/125/3
f 525/127/3 526/126/3 475/128/3
f 475/128/3 526/126/3 474/125/3
f 524/129/3 525/127/3 481/130/3
f 481/130/3 525/127/3 477/131/3
f 477/131/3 525/127/3 476/132/3
f 476/132/3 525/127/3 475/128/3
f 481/130/3 477/131/3 478/133/3
f 481/130/3 478/133/3 479/134/3
f 481/130/4 479/134/4 480/135/4
f 524/129/3 481/130/3 482/136/3
f 524/129/3 482/136/3 483/137/3
f 524/129/3 483/137/3 484/138/3
f 524/129/3 484/138/3 485/139/3
f 472/140/3 473/122/3 385/123/3
f 524/129/3 485/139/3 486/141/3
f 524/129/3 486/141/3 487/142/3
f 524/129/3 487/142/3 488/143/3
f 471/144/3 472/140/3 385/123/3
f 524/129/3 488/143/3 489/145/3
f 524/129/3 489/145/3 490/146/3
f 470/147/3 471/144/3 385/123/3
f 524/129/3 490/146/3 491/148/3
f 524/129/3 491/148/3 492/149/3
f 523/150/3 524/129/3 492/149/3
f 469/151/3 470/147/3 385/123/3
f 523/150/3 492/149/3 493/152/3
f 468/153/3 469/151/3 385/123/3
f 467/154/3 468/153/3 385/123/3
f 523/150/3 493/152/3 494/155/3
f 466/156/3 467/154/3 385/123/3
f 465/157/3 466/156/3 385/123/3
f 464/158/3 465/157/3 385/123/3
f 522/159/3 523/150/3 494/155/3
f 463/160/3 464/158/3 385/123/3
f 462/161/3 463/160/3 385/123/3
f 461/162/3 462/161/3 385/123/3
f 460/163/3 461/162/3 385/123/3
f 459/164/3 460/163/3 385/123/3
f 459/164/3 385/123/3 386/165/3
f 458/166/3 459/164/3 386/165/3
f 522/159/3 494/155/3 495/167/3
f 457/168/3 458/166/3 386/165/3
f 456/169/3 457/168/3 386/165/3
f 521/170/3 522/159/3 495/167/3
f 455/171/3 456/169/3 386/165/3
f 454/172/3 455/171/3 386/165/3
f 453/173/3 454/172/3 386/165/3
f 521/170/3 495/167/3 496/174/3
f 452/175/3 453/173/3 386/165/3
f 520/176/3 521/170/3 496/174/3
f 451/177/3 452/175/3 386/165/3
f 450/178/3 451/177/3 386/165/3
f 449/179/3 450/178/3 386/165/3
f 519/180/3 520/176/3 496/174/3
f 448/181/3 449/179/3 386/165/3
f 519/180/3 496/174/3 497/182/3
f 447/183/3 448/181/3 386/165/3
f 446/184/3 447/183/3 386/165/3
f 445/185/3 446/184/3 386/165/3
f 518/186/3 519/180/3 497/182/3
f 444/187/3 445/185/3 386/165/3
f 444/187/3 386/165/3 387/188/3
f 443/189/3 444/187/3 387/188/3
f 518/186/3 497/182/3 498/190/3
f 517/191/3 518/186/3 498/190/3
f 516/192/3 517/191/3 498/190/3
f 516/192/3 498/190/3 499/193/3
f 515/194/3 516/192/3 499/193/3
f 442/195/3 443/189/3 387/188/3
f 514/196/3 515/194/3 499/193/3
f 514/196/3 499/193/3 500/197/3
f 442/195/3 387/188/3 388/198/3
f 513/199/3 514/196/3 500/197/3
f 512/200/3 513/199/3 500/197/3
f 512/200/3 500/197/3 501/201/3
f 441/202/3 442/195/3 388/198/3
f 511/203/3 512/200/3 501/201/3
f 510/204/3 511/203/3 501/201/3
f 510/204/3 501/201/3 502/205/3
f 509/206/3 510/204/3 502/205/3
f 508/207/3 509/206/3 502/205/3
f 440/208/3 441/202/3 388/198/3
f 508/207/3 502/205/3 503/209/3
f 507/210/3 508/207/3 503/209/3
f 440/208/3 388/198/3 389/211/3
f 506/212/3 507/210/3 503/209/3
f 506/212/3 503/209/3 504/213/3
f 505/214/3 506/212/3 504/213/3
f 439/215/3 440/208/3 389/211/3
f 438/216/3 439/215/3 389/211/3
f 438/216/3 389/211/3 390/217/3
f 437/218/3 438/216/3 390/217/3
f 436/219/3 437/218/3 390/217/3
f 435/220/3 436/219/3 390/217/3
f 434/221/3 435/220/3 390/217/3
f 434/221/3 390/217/3 391/222/3
f 433/223/3 434/221/3 391/222/3
f 432/224/3 433/223/3 391/222/3
f 431/225/3 432/224/3 391/222/3
f 430/226/3 431/225/3 391/222/3
f 429/227/3 430/226/3 391/222/3
f 428/228/3 429/227/3 391/222/3
f 427/229/3 428/228/3 391/222/3
f 426/230/3 427/229/3 391/222/3
f 425/231/3 426/230/3 391/222/3
f 425/231/3 391/222/3 392/232/3
f 424/233/3 425/231/3 392/232/3
f 423/234/3 424/233/3 392/232/3
f 422/235/3 423/234/3 392/232/3
f 421/236/3 422/235/3 392/232/3
f 420/237/3 421/236/3 392/232/3
f 420/237/3 392/232/3 393/238/3
f 419/239/3 420/237/3 393/238/3
f 418/240/3 419/239/3 393/238/3
f 418/240/3 393/238/3 394/241/3
f 417/242/3 418/240/3 394/241/3
f 416/243/3 417/242/3 394/241/3
f 416/243/3 394/241/3 395/244/3
f 415/245/3 416/243/3 395/244/3
f 414/246/3 415/245/3 395/244/3
f 414/246/3 395/244/3 396/247/3
f 413/248/3 414/246/3 396/247/3
f 412/249/3 413/248/3 396/247/3
f 412/249/3 396/247/3 397/250/3
f 411/251/3 412/249/3 397/250/3
f 411/251/3 397/250/3 398/252/3
f 411/251/3 398/252/3 399/253/3
f 411/251/3 399/253/3 400/254/3
f 411/251/3 400/254/3 401/255/3
f 410/256/3 411/251/3 401/255/3
f 410/256/3 401/255/3 402/257/3
f 410/256/3 402/257/3 403/258/3
f 409/259/3 410/256/3 403/258/3
f 409/259/3 403/258/3 404/260/3
f 409/259/3 404/260/3 405/261/3
f 409/259/3 405/261/3 406/262/3
f 408/263/3 409/259/3 406/262/3
f 408/263/3 406/262/3 407/264/3
s 1
f 532/265/5 529/120/6 530/266/6
f 534/267/7 531/268/5 532/265/5
f 536/269/8 533/270/7 534/267/7
f 538/271/9 535/272/8 536/269/8
f 540/273/10 537/274/9 538/271/9
f 542/275/11 539/276/10 540/273/10
f 544/277/12 541/278/13 542/275/11
f 546/279/14 543/280/12 544/277/12
f 548/281/15 545/282/14 546/279/14
f 550/283/16 547/284/15 548/281/15
f 552/285/17 549/286/16 550/283/16
f 554/287/18 551/288/17 552/285/17
f 556/289/19 553/290/18 554/287/18
f 558/291/20 555/292/19 556/289/19
f 560/293/21 557/294/20 558/291/20
f 562/295/22 559/296/21 560/293/21
f 564/297/23 561/298/22 562/295/22
f 566/299/24 563/300/23 564/297/23
f 568/301/25 565/302/24 566/299/24
f 570/303/26 567/304/25 568/301/25
f 572/305/27 569/306/26 570/303/26
f 574/307/28 571/308/27 572/305/27
f 576/309/29 573/310/28 574/307/28
f 578/311/30 575/312/29 576/309/29
f 580/313/31 577/314/30 578/311/30
f 582/315/32 579/316/31 580/313/31
f 584/317/33 581/318/32 582/315/32
f 586/319/34 583/320/33 584/317/33
f 588/321/35 585/322/34 586/319/34
f 590/323/36 587/324/35 588/321/35
f 592/325/37 589/326/36 590/323/36
f 594/327/38 591/328/37 592/325/37
f 596/329/39 593/330/38 594/327/38
f 598/331/40 595/332/39 596/329/39
f 600/333/41 597/334/40 598/331/40
f 602/335/42 599/336/41 600/333/41
f 604/337/43 601/338/42 602/335/42
f 606/339/44 603/340/43 604/337/43
f 608/341/45 605/342/44 606/339/44
f 610/343/46 607/344/45 608/341/45
f 612/345/47 609/346/46 610/343/46
f 614/347/48 611/348/47 612/345/47
f 616/349/49 613/350/48 614/347/48
f 618/351/50 615/352/49 616/349/49
f 620/353/51 617/354/50 618/351/50
f 622/355/52 619/356/51 620/353/51
f 624/357/53 621/358/52 622/355/52
f 626/359/54 623/360/53 624/357/53
f 628/361/55 625/362/54 626/359/54
f 630/363/56 627/364/55 628/361/55
f 632/365/57 629/366/56 630/363/56
f 634/367/58 631/368/57 632/365/57
f 636/369/59 633/370/58 634/367/58
f 638/371/60 635/372/59 636/369/59
f 640/373/61 637/374/60 638/371/60
f 642/375/62 639/376/61 640/373/61
f 644/377/63 641/378/62 642/375/62
f 646/379/64 643/380/63 644/377/63
f 648/381/65 645/382/64 646/379/64
f 650/383/66 647/384/65 648/381/65
f 652/385/67 649/386/66 650/383/66
f 654/387/68 651/388/67 652/385/67
f 656/389/69 653/390/68 654/387/68
f 658/391/70 655/392/69 656/389/69
f 660/393/71 657/394/70 658/391/70
f 662/395/72 659/396/71 660/393/71
f 664/397/73 661/398/72 662/395/72
f 666/399/74 663/400/73 664/397/73
f 668/401/75 665/402/74 666/399/74
f 670/403/76 667/404/75 668/401/75
f 672/405/77 669/406/76 670/403/76
f 674/407/78 671/408/77 672/405/77
f 676/409/79 673/410/78 674/407/78
f 678/411/80 675/412/79 676/409/79
f 680/413/81 677/414/80 678/411/80
f 682/415/82 679/416/81 680/413/81
f 684/417/83 681/418/82 682/415/82
f 686/419/84 683/420/83 684/417/83
f 688/421/85 685/422/84 686/419/84
f 690/423/86 687/424/85 688/421/85
f 692/425/87 689/426/86 690/423/86
f 694/427/88 691/428/87 692/425/87
f 696/429/89 693/430/88 694/427/88
f 698/431/90 695/432/89 696/429/89
f 700/433/91 697/434/90 698/431/90
f 702/435/92 699/436/91 700/433/91
f 704/437/93 701/438/92 702/435/92
f 706/439/94 703/440/93 704/437/93
f 708/441/95 705/442/94 706/439/94
f 710/443/96 707/444/95 708/441/95
f 712/445/97 709/446/96 710/443/96
f 714/447/98 711/448/97 712/445/97
f 716/449/99 713/450/98 714/447/98
f 718/451/100 715/452/99 716/449/99
f 720/453/101 717/454/100 718/451/100
f 722/455/102 719/456/101 720/453/101
f 724/457/103 721/458/102 722/455/102
f 726/459/104 723/460/103 724/457/103
f 728/461/105 725/462/104 726/459/104
f 730/463/106 727/464/105 728/461/105
f 732/465/107 729/466/106 730/463/106
f 734/467/108 731/468/107 732/465/107
f 736/469/109 733/470/108 734/467/108
f 738/471/110 735/472/109 736/469/109
f 740/473/111 737/474/110 738/471/110
f 742/475/112 739/476/111 740/473/111
f 744/477/113 741/478/112 742/475/112
f 746/479/114 743/480/113 744/477/113
f 748/481/115 745/482/114 746/479/114
f 750/483/116 747/484/115 748/481/115
f 752/485/117 749/486/116 750/483/116
f 754/487/118 751/488/117 752/485/117
f 756/489/119 753/490/118 754/487/118
f 758/491/120 755/492/119 756/489/119
f 760/493/121 757/494/120 758/491/120
f 762/495/122 759/496/121 760/493/121
f 764/497/123 761/498/122 762/495/122
f 766/499/124 763/500/123 764/497/123
f 768/501/125 765/502/124 766/499/124
f 770/503/126 767/504/125 768/501/125
f 772/505/127 769/506/126 770/503/126
f 774/507/128 771/508/129 772/505/127
f 776/509/130 773/510/128 774/507/128
f 778/511/131 775/512/130 776/509/130
f 780/513/132 777/514/131 778/511/131
f 782/515/133 779/516/132 780/513/132
f 784/517/134 781/518/133 782/515/133
f 786/519/135 783/520/134 784/517/134
f 788/521/136 785/522/135 786/519/135
f 790/523/137 787/524/136 788/521/136
f 792/525/138 789/526/137 790/523/137
f 794/527/139 791/528/138 792/525/138
f 796/529/140 793/530/139 794/527/139
f 798/531/141 795/532/140 796/529/140
f 800/533/142 797/534/141 798/531/141
f 802/535/143 799/536/142 800/533/142
f 804/537/144 801/538/143 802/535/143
f 806/539/145 803/540/144 804/537/144
f 808/541/146 805/542/145 806/539/145
f 810/543/147 807/544/146 808/541/146
f 812/545/148 809/546/147 810/543/147
f 814/547/149 811/548/148 812/545/148
f 816/549/150 813/550/149 814/547/149
f 818/551/151 815/552/150 816/549/150
f 820/553/152 817/554/151 818/551/151
f 822/555/153 819/556/152 820/553/152
f 824/557/154 821/558/153 822/555/153
f 826/559/155 823/560/154 824/557/154
f 828/561/156 825/562/155 826/559/155
f 830/563/157 827/564/156 828/561/156
f 832/565/158 829/566/157 830/563/157
f 834/567/159 831/568/158 832/565/158
f 836/569/160 833/570/159 834/567/159
f 838/571/161 835/572/160 836/569/160
f 840/573/162 837/574/161 838/571/161
f 842/575/163 839/576/162 840/573/162
f 844/577/164 841/578/163 842/575/163
f 846/579/165 843/580/164 844/577/164
f 848/581/166 845/582/165 846/579/165
f 850/583/167 847/584/166 848/581/166
f 852/585/168 849/586/167 850/583/167
f 854/587/169 851/588/168 852/585/168
f 856/589/170 853/590/169 854/587/169
f 858/591/171 855/592/170 856/589/170
f 860/593/172 857/594/171 858/591/171
f 862/595/173 859/596/172 860/593/172
f 864/597/174 861/598/173 862/595/173
f 866/599/51 863/600/174 864/597/174
f 868/601/175 865/602/51 866/599/51
f 870/603/176 867/604/175 868/601/175
f 872/605/177 869/606/176 870/603/176
f 874/607/178 871/608/177 872/605/177
f 876/609/179 873/610/178 874/607/178
f 878/611/180 875/612/179 876/609/179
f 880/613/181 877/614/180 878/611/180
f 882/615/182 879/616/181 880/613/181
f 884/617/183 881/618/182 882/615/182
f 886/619/184 883/620/183 884/617/183
f 888/621/185 885/622/184 886/619/184
f 890/623/186 887/624/185 888/621/185
f 892/625/187 889/626/186 890/623/186
f 894/627/188 891/628/187 892/625/187
f 896/629/189 893/630/188 894/627/188
f 898/631/190 895/632/189 896/629/189
f 900/633/191 897/634/190 898/631/190
f 902/635/192 899/636/191 900/633/191
f 904/637/193 901/638/192 902/635/192
f 906/639/194 903/640/193 904/637/193
f 908/641/195 905/642/194 906/639/194
f 910/643/196 907/644/195 908/641/195
f 912/645/197 909/646/196 910/643/196
f 914/647/198 911/648/197 912/645/197
f 916/649/199 913/650/198 914/647/198
f 918/651/200 915/652/199 916/649/199
f 920/653/201 917/654/200 918/651/200
f 922/655/202 919/656/201 920/653/201
f 924/657/203 921/658/202 922/655/202
f 926/659/204 923/660/203 924/657/203
f 928/661/205 925/662/204 926/659/204
f 930/663/206 927/664/205 928/661/205
f 932/665/207 929/666/206 930/663/206
f 934/667/208 931/668/207 932/665/207
f 936/669/209 933/670/208 934/667/208
f 938/671/210 935/672/209 936/669/209
f 940/673/211 937/674/210 938/671/210
f 942/675/212 939/676/211 940/673/211
f 944/677/213 941/678/212 942/675/212
f 946/679/214 943/680/213 944/677/213
f 948/681/215 945/682/214 946/679/214
f 950/683/216 947/684/215 948/681/215
f 952/685/217 949/686/216 950/683/216
f 954/687/218 951/688/217 952/685/217
f 956/689/219 953/690/218 954/687/218
f 958/691/220 955/692/219 956/689/219
f 960/693/221 957/694/220 958/691/220
f 962/695/222 959/696/221 960/693/221
f 964/697/223 961/698/222 962/695/222
f 966/699/224 963/700/223 964/697/223
f 968/701/225 965/702/224 966/699/224
f 970/703/226 967/704/225 968/701/225
f 972/705/227 969/706/226 970/703/226
f 974/707/228 971/708/227 972/705/227
f 976/709/229 973/710/228 974/707/228
f 978/711/230 975/712/229 976/709/229
f 980/713/231 977/714/230 978/711/230
f 982/715/232 979/716/231 980/713/231
f 984/717/233 981/718/232 982/715/232
f 986/719/234 983/720/233 984/717/233
f 988/721/235 985/722/234 986/719/234
f 990/723/236 987/724/235 988/721/235
f 992/725/237 989/726/236 990/723/236
f 994/727/238 991/728/237 992/725/237
f 996/729/239 993/730/238 994/727/238
f 998/731/240 995/732/239 996/729/239
f 1000/733/241 997/734/240 998/731/240
f 1002/735/242 999/736/241 1000/733/241
f 1004/737/243 1001/738/242 1002/735/242
f 1006/739/244 1003/740/243 1004/737/243
f 1008/741/245 1005/742/244 1006/739/244
f 1010/743/246 1007/744/245 1008/741/245
f 1012/745/247 1009/746/246 1010/743/246
f 1014/747/248 1011/748/249 1012/745/247
f 1016/749/250 1013/750/248 1014/747/248
f 1018/751/251 1015/752/250 1016/749/250
f 1020/753/252 1017/754/251 1018/751/251
f 1022/755/253 1019/756/252 1020/753/252
f 1024/757/254 1021/758/253 1022/755/253
f 1026/759/255 1023/760/254 1024/757/254
f 1028/761/256 1025/762/255 1026/759/255
f 1030/763/257 1027/764/256 1028/761/256
f 1032/765/258 1029/766/257 1030/763/257
f 1034/767/259 1031/768/260 1032/765/258
f 1036/769/261 1033/770/259 1034/767/259
f 1038/771/262 1035/772/261 1036/769/261
f 1040/773/263 1037/774/262 1038/771/262
f 1042/775/264 1039/776/263 1040/773/263
f 1044/777/265 1041/778/264 1042/775/264
f 1046/779/266 1043/780/265 1044/777/265
f 1048/781/267 1045/782/266 1046/779/266
f 1050/783/268 1047/784/267 1048/781/267
f 1052/785/269 1049/786/268 1050/783/268
f 1054/787/270 1051/788/269 1052/785/269
f 1056/789/271 1053/790/270 1054/787/270
f 530/791/6 1055/792/271 1056/789/271
f 532/265/5 531/268/5 529/120/6
f 534/267/7 533/270/7 531/268/5
f 536/269/8 535/272/8 533/270/7
f 538/271/9 537/274/9 535/272/8
f 540/273/10 539/276/10 537/274/9
f 542/275/11 541/278/13 539/276/10
f 544/277/12 543/280/12 541/278/13
f 546/279/14 545/282/14 543/280/12
f 548/281/15 547/284/15 545/282/14
f 550/283/16 549/286/16 547/284/15
f 552/285/17 551/288/17 549/286/16
f 554/287/18 553/290/18 551/288/17
f 556/289/19 555/292/19 553/290/18
f 558/291/20 557/294/20 555/292/19
f 560/293/21 559/296/21 557/294/20
f 562/295/22 561/298/22 559/296/21
f 564/297/23 563/300/23 561/298/22
f 566/299/24 565/302/24 563/300/23
f 568/301/25 567/304/25 565/302/24
f 570/303/26 569/306/26 567/304/25
f 572/305/27 571/308/27 569/306/26
f 574/307/28 573/310/28 571/308/27
f 576/309/29 575/312/29 573/310/28
f 578/311/30 577/314/30 575/312/29
f 580/313/31 579/316/31 577/314/30
f 582/315/32 581/318/32 579/316/31
f 584/317/33 583/320/33 581/318/32
f 586/319/34 585/322/34 583/320/33
f 588/321/35 587/324/35 585/322/34
f 590/323/36 589/326/36 587/324/35
f 592/325/37 591/328/37 589/326/36
f 594/327/38 593/330/38 591/328/37
f 596/329/39 595/332/39 593/330/38
f 598/331/40 597/334/40 595/332/39
f 600/333/41 599/336/41 597/334/40
f 602/335/42 601/338/42 599/336/41
f 604/337/43 603/340/43 601/338/42
f 606/339/44 605/342/44 603/340/43
f 608/341/45 607/344/45 605/342/44
f 610/343/46 609/346/46 607/344/45
f 612/345/47 611/348/47 609/346/46
f 614/347/48 613/350/48 611/348/47
f 616/349/49 615/352/49 613/350/48
f 618/351/50 617/354/50 615/352/49
f 620/353/51 619/356/51 617/354/50
f 622/355/52 621/358/52 619/356/51
f 624/357/53 623/360/53 621/358/52
f 626/359/54 625/362/54 623/360/53
f 628/361/55 627/364/55 625/362/54
f 630/363/56 629/366/56 627/364/55
f 632/365/57 631/368/57 629/366/56
f 634/367/58 633/370/58 631/368/57
f 636/369/59 635/372/59 633/370/58
f 638/371/60 637/374/60 635/372/59
f 640/373/61 639/376/61 637/374/60
f 642/375/62 641/378/62 639/376/61
f 644/377/63 643/380/63 641/378/62
f 646/379/64 645/382/64 643/380/63
f 648/381/65 647/384/65 645/382/64
f 650/383/66 649/386/66 647/384/65
f 652/385/67 651/388/67 649/386/66
f 654/387/68 653/390/68 651/388/67
f 656/389/69 655/392/69 653/390/68
f 658/391/70 657/394/70 655/392/69
f 660/393/71 659/396/71 657/394/70
f 662/395/72 661/398/72 659/396/71
f 664/397/73 663/400/73 661/398/72
f 666/399/74 665/402/74 663/400/73
f 668/401/75 667/404/75 665/402/74
f 670/403/76 669/406/76 667/404/75
f 672/405/77 671/408/77 669/406/76
f 674/407/78 673/410/78 671/408/77
f 676/409/79 675/412/79 673/410/78
f 678/411/80 677/414/80 675/412/79
f 680/413/81 679/416/81 677/414/80
f 682/415/82 681/418/82 679/416/81
f 684/417/83 683/420/83 681/418/82
f 686/419/84 685/422/84 683/420/83
f 688/421/85 687/424/85 685/422/84
f 690/423/86 689/426/86 687/424/85
f 692/425/87 691/428/87 689/426/86
f 694/427/88 693/430/88 691/428/87
f 696/429/89 695/432/89 693/430/88
f 698/431/90 697/434/90 695/432/89
f 700/433/91 699/436/91 697/434/90
f 702/435/92 701/438/92 699/436/91
f 704/437/93 703/440/93 701/438/92
f 706/439/94 705/442/94 703/440/93
f 708/441/95 707/444/95 705/442/94
f 710/443/96 709/446/96 707/444/95
f 712/445/97 711/448/97 709/446/96
f 714/447/98 713/450/98 711/448/97
f 716/449/99 715/452/99 713/450/98
f 718/451/100 717/454/100 715/452/99
f 720/453/101 719/456/101 717/454/100
f 722/455/102 721/458/102 719/456/101
f 724/457/103 723/460/103 721/458/102
f 726/459/104 725/462/104 723/460/103
f 728/461/105 727/464/105 725/462/104
f 730/463/106 729/466/106 727/464/105
f 732/465/107 731/468/107 729/466/106
f 734/467/108 733/470/108 731/468/107
f 736/469/109 735/472/109 733/470/108
f 738/471/110 737/474/110 735/472/109
f 740/473/111 739/476/111 737/474/110
f 742/475/112 741/478/112 739/476/111
f 744/477/113 743/480/113 741/478/112
f 746/479/114 745/482/114 743/480/113
f 748/481/115 747/484/115 745/482/114
f 750/483/116 749/486/116 747/484/115
f 752/485/117 751/488/117 749/486/116
f 754/487/118 753/490/118 751/488/117
f 756/489/119 755/492/119 753/490/118
f 758/491/120 757/494/120 755/492/119
f 760/493/121 759/496/121 757/494/120
f 762/495/122 761/498/122 759/496/121
f 764/497/123 763/500/123 761/498/122
f 766/499/124 765/502/124 763/500/123
f 768/501/125 767/504/125 765/502/124
f 770/503/126 769/506/126 767/504/125
f 772/505/127 771/508/129 769/506/126
f 774/507/128 773/510/128 771/508/129
f 776/509/130 775/512/130 773/510/128
f 778/511/131 777/514/131 775/512/130
f 780/513/132 779/516/132 777/514/131
f 782/515/133 781/518/133 779/516/132
f 784/517/134 783/520/134 781/518/133
f 786/519/135 785/522/135 783/520/134
f 788/521/136 787/524/136 785/522/135
f 790/523/137 789/526/137 787/524/136
f 792/525/138 791/528/138 789/526/137
f 794/527/139 793/530/139 791/528/138
f 796/529/140 795/532/140 793/530/139
f 798/531/141 797/534/141 795/532/140
f 800/533/142 799/536/142 797/534/141
f 802/535/143 801/538/143 799/536/142
f 804/537/144 803/540/144 801/538/143
f 806/539/145 805/542/145 803/540/144
f 808/541/146 807/544/146 805/542/145
f 810/543/147 809/546/147 807/544/146
f 812/545/148 811/548/148 809/546/147
f 814/547/149 813/550/149 811/548/148
f 816/549/150 815/552/150 813/550/149
f 818/551/151 817/554/151 815/552/150
f 820/553/152 819/556/152 817/554/151
f 822/555/153 821/558/153 819/556/152
f 824/557/154 823/560/154 821/558/153
f 826/559/155 825/562/155 823/560/154
f 828/561/156 827/564/156 825/562/155
f 830/563/157 829/566/157 827/564/156
f 832/565/158 831/568/158 829/566/157
f 834/567/159 833/570/159 831/568/158
f 836/569/160 835/572/160 833/570/159
f 838/571/161 837/574/161 835/572/160
f 840/573/162 839/576/162 837/574/161
f 842/575/163 841/578/163 839/576/162
f 844/577/164 843/580/164 841/578/163
f 846/579/165 845/582/165 843/580/164
f 848/581/166 847/584/166 845/582/165
f 850/583/167 849/586/167 847/584/166
f 852/585/168 851/588/168 849/586/167
f 854/587/169 853/590/169 851/588/168
f 856/589/170 855/592/170 853/590/169
f 858/591/171 857/594/171 855/592/170
f 860/593/172 859/596/172 857/594/171
f 862/595/173 861/598/173 859/596/172
f 864/597/174 863/600/174 861/598/173
f 866/599/51 865/602/51 863/600/174
f 868/601/175 867/604/175 865/602/51
f 870/603/176 869/606/176 867/604/175
f 872/605/177 871/608/177 869/606/176
f 874/607/178 873/610/178 871/608/177
f 876/609/179 875/612/179 873/610/178
f 878/611/180 877/614/180 875/612/179
f 880/613/181 879/616/181 877/614/180
f 882/615/182 881/618/182 879/616/181
f 884/617/183 883/620/183 881/618/182
f 886/619/184 885/622/184 883/620/183
f 888/621/185 887/624/185 885/622/184
f 890/623/186 889/626/186 887/624/185
f 892/625/187 891/628/187 889/626/186
f 894/627/188 893/630/188 891/628/187
f 896/629/189 895/632/189 893/630/188
f 898/631/190 897/634/190 895/632/189
f 900/633/191 899/636/191 897/634/190
f 902/635/192 901/638/192 899/636/191
f 904/637/193 903/640/193 901/638/192
f 906/639/194 905/642/194 903/640/193
f 908/641/195 907/644/195 905/642/194
f 910/643/196 909/646/196 907/644/195
f 912/645/197 911/648/197 909/646/196
f 914/647/198 913/650/198 911/648/197
f 916/649/199 915/652/199 913/650/198
f 918/651/200 917/654/200 915/652/199
f 920/653/201 919/656/201 917/654/200
f 922/655/202 921/658/202 919/656/201
f 924/657/203 923/660/203 921/658/202
f 926/659/204 925/662/204 923/660/203
f 928/661/205 927/664/205 925/662/204
f 930/663/206 929/666/206 927/664/205
f 932/665/207 931/668/207 929/666/206
f 934/667/208 933/670/208 931/668/207
f 936/669/209 935/672/209 933/670/208
f 938/671/210 937/674/210 935/672/209
f 940/673/211 939/676/211 937/674/210
f 942/675/212 941/678/212 939/676/211
f 944/677/213 943/680/213 941/678/212
f 946/679/214 945/682/214 943/680/213
f 948/681/215 947/684/215 945/682/214
f 950/683/216 949/686/216 947/684/215
f 952/685/217 951/688/217 949/686/216
f 954/687/218 953/690/218 951/688/217
f 956/689/219 955/692/219 953/690/218
f 958/691/220 957/694/220 955/692/219
f 960/693/221 959/696/221 957/694/220
f 962/695/222 961/698/222 959/696/221
f 964/697/223 963/700/223 961/698/222
f 966/699/224 965/702/224 963/700/223
f 968/701/225 967/704/225 965/702/224
f 970/703/226 969/706/226 967/704/225
f 972/705/227 971/708/227 969/706/226
f 974/707/228 973/710/228 971/708/227
f 976/709/229 975/712/229 973/710/228
f 978/711/230 977/714/230 975/712/229
f 980/713/231 979/716/231 977/714/230
f 982/715/232 981/718/232 979/716/231
f 984/717/233 983/720/233 981/718/232
f 986/719/234 985/722/234 983/720/233
f 988/721/235 987/724/235 985/722/234
f 990/723/236 989/726/236 987/724/235
f 992/725/237 991/728/237 989/726/236
f 994/727/238 993/730/238 991/728/237
f 996/729/239 995/732/239 993/730/238
f 998/731/240 997/734/240 995/732/239
f 1000/733/241 999/736/241 997/734/240
f 1002/735/242 1001/738/242 999/736/241
f 1004/737/243 1003/740/243 1001/738/242
f 1006/739/244 1005/742/244 1003/740/243
f 1008/741/245 1007/744/245 1005/742/244
f 1010/743/246 1009/746/246 1007/744/245
f 1012/745/247 1011/748/249 1009/746/246
f 1014/747/248 1013/750/248 1011/748/249
f 1016/749/250 1015/752/250 1013/750/248
f 1018/751/251 1017/754/251 1015/752/250
f 1020/753/252 1019/756/252 1017/754/251
f 1022/755/253 1021/758/253 1019/756/252
f 1024/757/254 1023/760/254 1021/758/253
f 1026/759/255 1025/762/255 1023/760/254
f 1028/761/256 1027/764/256 1025/762/255
f 1030/763/257 1029/766/257 1027/764/256
f 1032/765/258 1031/768/260 1029/766/257
f 1034/767/259 1033/770/259 1031/768/260
f 1036/769/261 1035/772/261 1033/770/259
f 1038/771/262 1037/774/262 1035/772/261
f 1040/773/263 1039/776/263 1037/774/262
f 1042/775/264 1041/778/264 1039/776/263
f 1044/777/265 1043/780/265 1041/778/264
f 1046/779/266 1045/782/266 1043/780/265
f 1048/781/267 1047/784/267 1045/782/266
f 1050/783/268 1049/786/268 1047/784/267
f 1052/785/269 1051/788/269 1049/786/268
f 1054/787/270 1053/790/270 1051/788/269
f 1056/789/271 1055/792/271 1053/790/270
f 530/791/6 529/121/6 1055/792/271
