# Blender 4.1.1
# www.blender.org
mtllib ClearText_02.mtl
o リ
v -0.157347 0.303387 -0.100000
v -0.164309 0.303376 -0.100000
v -0.171383 0.303295 -0.100000
v -0.178529 0.303095 -0.100000
v -0.185707 0.302724 -0.100000
v -0.192876 0.302131 -0.100000
v -0.199998 0.301267 -0.100000
v -0.207032 0.300080 -0.100000
v -0.213938 0.298519 -0.100000
v -0.220675 0.296535 -0.100000
v -0.227205 0.294075 -0.100000
v -0.233487 0.291091 -0.100000
v -0.243106 0.282981 -0.100000
v -0.251301 0.269994 -0.100000
v -0.258184 0.253012 -0.100000
v -0.263868 0.232918 -0.100000
v -0.268462 0.210594 -0.100000
v -0.272081 0.186924 -0.100000
v -0.274836 0.162790 -0.100000
v -0.276839 0.139074 -0.100000
v -0.278202 0.116659 -0.100000
v -0.279037 0.096429 -0.100000
v -0.279455 0.079266 -0.100000
v -0.279570 0.066052 -0.100000
v -0.277576 0.023839 -0.100000
v -0.271680 -0.016022 -0.100000
v -0.262013 -0.053547 -0.100000
v -0.248706 -0.088752 -0.100000
v -0.231889 -0.121653 -0.100000
v -0.211694 -0.152266 -0.100000
v -0.188250 -0.180606 -0.100000
v -0.161689 -0.206691 -0.100000
v -0.132140 -0.230535 -0.100000
v -0.099736 -0.252155 -0.100000
v -0.064606 -0.271567 -0.100000
v -0.026882 -0.288786 -0.100000
v -0.016420 -0.293132 -0.100000
v -0.005785 -0.297310 -0.100000
v 0.005004 -0.301279 -0.100000
v 0.015930 -0.305001 -0.100000
v 0.026973 -0.308434 -0.100000
v 0.038114 -0.311540 -0.100000
v 0.049336 -0.314277 -0.100000
v 0.060619 -0.316607 -0.100000
v 0.071945 -0.318488 -0.100000
v 0.083294 -0.319882 -0.100000
v 0.094649 -0.320747 -0.100000
v 0.105991 -0.321045 -0.100000
v 0.119124 -0.319853 -0.100000
v 0.131240 -0.316440 -0.100000
v 0.142317 -0.311048 -0.100000
v 0.152330 -0.303920 -0.100000
v 0.161254 -0.295298 -0.100000
v 0.169067 -0.285426 -0.100000
v 0.175743 -0.274546 -0.100000
v 0.181260 -0.262900 -0.100000
v 0.185592 -0.250732 -0.100000
v 0.188716 -0.238284 -0.100000
v 0.190608 -0.225798 -0.100000
v 0.191244 -0.213518 -0.100000
v 0.188933 -0.205260 -0.100000
v 0.182479 -0.198082 -0.100000
v 0.172607 -0.191880 -0.100000
v 0.160039 -0.186551 -0.100000
v 0.145497 -0.181989 -0.100000
v 0.129704 -0.178091 -0.100000
v 0.113384 -0.174754 -0.100000
v 0.097258 -0.171872 -0.100000
v 0.082049 -0.169343 -0.100000
v 0.068481 -0.167061 -0.100000
v 0.057275 -0.164924 -0.100000
v 0.049155 -0.162826 -0.100000
v 0.042438 -0.160441 -0.100000
v 0.035739 -0.157887 -0.100000
v 0.029078 -0.155158 -0.100000
v 0.022473 -0.152244 -0.100000
v 0.015942 -0.149139 -0.100000
v 0.009505 -0.145833 -0.100000
v 0.003179 -0.142320 -0.100000
v -0.003015 -0.138590 -0.100000
v -0.009061 -0.134637 -0.100000
v -0.014938 -0.130451 -0.100000
v -0.020628 -0.126025 -0.100000
v -0.026114 -0.121352 -0.100000
v -0.041984 -0.105891 -0.100000
v -0.055538 -0.089513 -0.100000
v -0.066952 -0.072293 -0.100000
v -0.076407 -0.054304 -0.100000
v -0.084080 -0.035622 -0.100000
v -0.090150 -0.016321 -0.100000
v -0.094796 0.003524 -0.100000
v -0.098196 0.023838 -0.100000
v -0.100530 0.044547 -0.100000
v -0.101976 0.065576 -0.100000
v -0.102713 0.086850 -0.100000
v -0.102919 0.108295 -0.100000
v -0.102843 0.119063 -0.100000
v -0.102634 0.129857 -0.100000
v -0.102319 0.140673 -0.100000
v -0.101923 0.151505 -0.100000
v -0.101474 0.162347 -0.100000
v -0.100998 0.173195 -0.100000
v -0.100523 0.184043 -0.100000
v -0.100074 0.194885 -0.100000
v -0.099678 0.205717 -0.100000
v -0.099363 0.216533 -0.100000
v -0.099154 0.227327 -0.100000
v -0.099078 0.238095 -0.100000
v -0.099196 0.247608 -0.100000
v -0.099637 0.256532 -0.100000
v -0.100530 0.264821 -0.100000
v -0.102008 0.272430 -0.100000
v -0.104201 0.279313 -0.100000
v -0.107239 0.285426 -0.100000
v -0.111253 0.290723 -0.100000
v -0.116374 0.295158 -0.100000
v -0.122732 0.298687 -0.100000
v -0.130458 0.301264 -0.100000
v -0.139683 0.302843 -0.100000
v -0.150538 0.303379 -0.100000
v 0.102903 0.117911 -0.100000
v 0.102862 0.112960 -0.100000
v 0.102799 0.108031 -0.100000
v 0.102719 0.103118 -0.100000
v 0.102630 0.098215 -0.100000
v 0.102535 0.093318 -0.100000
v 0.102439 0.088421 -0.100000
v 0.102350 0.083518 -0.100000
v 0.102271 0.078605 -0.100000
v 0.102207 0.073676 -0.100000
v 0.102166 0.068725 -0.100000
v 0.102151 0.063748 -0.100000
v 0.102505 0.050207 -0.100000
v 0.103644 0.036962 -0.100000
v 0.105679 0.024182 -0.100000
v 0.108722 0.012033 -0.100000
v 0.112885 0.000684 -0.100000
v 0.118280 -0.009697 -0.100000
v 0.125019 -0.018941 -0.100000
v 0.133214 -0.026882 -0.100000
v 0.142977 -0.033350 -0.100000
v 0.154421 -0.038178 -0.100000
v 0.167656 -0.041199 -0.100000
v 0.182796 -0.042243 -0.100000
v 0.203517 -0.041577 -0.100000
v 0.220939 -0.039540 -0.100000
v 0.235347 -0.036074 -0.100000
v 0.247027 -0.031120 -0.100000
v 0.256265 -0.024619 -0.100000
v 0.263345 -0.016513 -0.100000
v 0.268553 -0.006743 -0.100000
v 0.272174 0.004751 -0.100000
v 0.274494 0.018025 -0.100000
v 0.275797 0.033140 -0.100000
v 0.276370 0.050153 -0.100000
v 0.276498 0.069124 -0.100000
v 0.276388 0.081087 -0.100000
v 0.276007 0.097169 -0.100000
v 0.275274 0.116467 -0.100000
v 0.274108 0.138078 -0.100000
v 0.272431 0.161097 -0.100000
v 0.270161 0.184620 -0.100000
v 0.267220 0.207743 -0.100000
v 0.263526 0.229561 -0.100000
v 0.259001 0.249172 -0.100000
v 0.253563 0.265670 -0.100000
v 0.247133 0.278152 -0.100000
v 0.239631 0.285714 -0.100000
v 0.235039 0.287998 -0.100000
v 0.229451 0.290223 -0.100000
v 0.223058 0.292363 -0.100000
v 0.216049 0.294390 -0.100000
v 0.208614 0.296279 -0.100000
v 0.200941 0.298003 -0.100000
v 0.193220 0.299535 -0.100000
v 0.185640 0.300848 -0.100000
v 0.178391 0.301915 -0.100000
v 0.171663 0.302711 -0.100000
v 0.165643 0.303208 -0.100000
v 0.160522 0.303379 -0.100000
v 0.150984 0.302963 -0.100000
v 0.142331 0.301715 -0.100000
v 0.134553 0.299635 -0.100000
v 0.127638 0.296723 -0.100000
v 0.121578 0.292979 -0.100000
v 0.116359 0.288402 -0.100000
v 0.111973 0.282994 -0.100000
v 0.108409 0.276754 -0.100000
v 0.105655 0.269681 -0.100000
v 0.103701 0.261777 -0.100000
v 0.102536 0.253040 -0.100000
v 0.102151 0.243472 -0.100000
v 0.102166 0.240591 -0.100000
v 0.102207 0.237708 -0.100000
v 0.102271 0.234819 -0.100000
v 0.102350 0.231922 -0.100000
v 0.102439 0.229015 -0.100000
v 0.102535 0.226094 -0.100000
v 0.102630 0.223158 -0.100000
v 0.102719 0.220203 -0.100000
v 0.102799 0.217226 -0.100000
v 0.102862 0.214225 -0.100000
v 0.102903 0.211198 -0.100000
v 0.102919 0.208141 -0.100000
v 0.102919 0.122888 -0.100000
v -0.157347 0.303387 0.100000
v -0.164309 0.303376 0.100000
v -0.171383 0.303295 0.100000
v -0.178529 0.303095 0.100000
v -0.185707 0.302724 0.100000
v -0.192876 0.302131 0.100000
v -0.199998 0.301267 0.100000
v -0.207032 0.300080 0.100000
v -0.213938 0.298519 0.100000
v -0.220675 0.296535 0.100000
v -0.227205 0.294075 0.100000
v -0.233487 0.291091 0.100000
v -0.243106 0.282981 0.100000
v -0.251301 0.269994 0.100000
v -0.258184 0.253012 0.100000
v -0.263868 0.232918 0.100000
v -0.268462 0.210594 0.100000
v -0.272081 0.186924 0.100000
v -0.274836 0.162790 0.100000
v -0.276839 0.139074 0.100000
v -0.278202 0.116659 0.100000
v -0.279037 0.096429 0.100000
v -0.279455 0.079266 0.100000
v -0.279570 0.066052 0.100000
v -0.277576 0.023839 0.100000
v -0.271680 -0.016022 0.100000
v -0.262013 -0.053547 0.100000
v -0.248706 -0.088752 0.100000
v -0.231889 -0.121653 0.100000
v -0.211694 -0.152266 0.100000
v -0.188250 -0.180606 0.100000
v -0.161689 -0.206691 0.100000
v -0.132140 -0.230535 0.100000
v -0.099736 -0.252155 0.100000
v -0.064606 -0.271567 0.100000
v -0.026882 -0.288786 0.100000
v -0.016420 -0.293132 0.100000
v -0.005785 -0.297310 0.100000
v 0.005004 -0.301279 0.100000
v 0.015930 -0.305001 0.100000
v 0.026973 -0.308434 0.100000
v 0.038114 -0.311540 0.100000
v 0.049336 -0.314277 0.100000
v 0.060619 -0.316607 0.100000
v 0.071945 -0.318488 0.100000
v 0.083294 -0.319882 0.100000
v 0.094649 -0.320747 0.100000
v 0.105991 -0.321045 0.100000
v 0.119124 -0.319853 0.100000
v 0.131240 -0.316440 0.100000
v 0.142317 -0.311048 0.100000
v 0.152330 -0.303920 0.100000
v 0.161254 -0.295298 0.100000
v 0.169067 -0.285426 0.100000
v 0.175743 -0.274546 0.100000
v 0.181260 -0.262900 0.100000
v 0.185592 -0.250732 0.100000
v 0.188716 -0.238284 0.100000
v 0.190608 -0.225798 0.100000
v 0.191244 -0.213518 0.100000
v 0.188933 -0.205260 0.100000
v 0.182479 -0.198082 0.100000
v 0.172607 -0.191880 0.100000
v 0.160039 -0.186551 0.100000
v 0.145497 -0.181989 0.100000
v 0.129704 -0.178091 0.100000
v 0.113384 -0.174754 0.100000
v 0.097258 -0.171872 0.100000
v 0.082049 -0.169343 0.100000
v 0.068481 -0.167061 0.100000
v 0.057275 -0.164924 0.100000
v 0.049155 -0.162826 0.100000
v 0.042438 -0.160441 0.100000
v 0.035739 -0.157887 0.100000
v 0.029078 -0.155158 0.100000
v 0.022473 -0.152244 0.100000
v 0.015942 -0.149139 0.100000
v 0.009505 -0.145833 0.100000
v 0.003179 -0.142320 0.100000
v -0.003015 -0.138590 0.100000
v -0.009061 -0.134637 0.100000
v -0.014938 -0.130451 0.100000
v -0.020628 -0.126025 0.100000
v -0.026114 -0.121352 0.100000
v -0.041984 -0.105891 0.100000
v -0.055538 -0.089513 0.100000
v -0.066952 -0.072293 0.100000
v -0.076407 -0.054304 0.100000
v -0.084080 -0.035622 0.100000
v -0.090150 -0.016321 0.100000
v -0.094796 0.003524 0.100000
v -0.098196 0.023838 0.100000
v -0.100530 0.044547 0.100000
v -0.101976 0.065576 0.100000
v -0.102713 0.086850 0.100000
v -0.102919 0.108295 0.100000
v -0.102843 0.119063 0.100000
v -0.102634 0.129857 0.100000
v -0.102319 0.140673 0.100000
v -0.101923 0.151505 0.100000
v -0.101474 0.162347 0.100000
v -0.100998 0.173195 0.100000
v -0.100523 0.184043 0.100000
v -0.100074 0.194885 0.100000
v -0.099678 0.205717 0.100000
v -0.099363 0.216533 0.100000
v -0.099154 0.227327 0.100000
v -0.099078 0.238095 0.100000
v -0.099196 0.247608 0.100000
v -0.099637 0.256532 0.100000
v -0.100530 0.264821 0.100000
v -0.102008 0.272430 0.100000
v -0.104201 0.279313 0.100000
v -0.107239 0.285426 0.100000
v -0.111253 0.290723 0.100000
v -0.116374 0.295158 0.100000
v -0.122732 0.298687 0.100000
v -0.130458 0.301264 0.100000
v -0.139683 0.302843 0.100000
v -0.150538 0.303379 0.100000
v 0.102903 0.117911 0.100000
v 0.102862 0.112960 0.100000
v 0.102799 0.108031 0.100000
v 0.102719 0.103118 0.100000
v 0.102630 0.098215 0.100000
v 0.102535 0.093318 0.100000
v 0.102439 0.088421 0.100000
v 0.102350 0.083518 0.100000
v 0.102271 0.078605 0.100000
v 0.102207 0.073676 0.100000
v 0.102166 0.068725 0.100000
v 0.102151 0.063748 0.100000
v 0.102505 0.050207 0.100000
v 0.103644 0.036962 0.100000
v 0.105679 0.024182 0.100000
v 0.108722 0.012033 0.100000
v 0.112885 0.000684 0.100000
v 0.118280 -0.009697 0.100000
v 0.125019 -0.018941 0.100000
v 0.133214 -0.026882 0.100000
v 0.142977 -0.033350 0.100000
v 0.154421 -0.038178 0.100000
v 0.167656 -0.041199 0.100000
v 0.182796 -0.042243 0.100000
v 0.203517 -0.041577 0.100000
v 0.220939 -0.039540 0.100000
v 0.235347 -0.036074 0.100000
v 0.247027 -0.031120 0.100000
v 0.256265 -0.024619 0.100000
v 0.263345 -0.016513 0.100000
v 0.268553 -0.006743 0.100000
v 0.272174 0.004751 0.100000
v 0.274494 0.018025 0.100000
v 0.275797 0.033140 0.100000
v 0.276370 0.050153 0.100000
v 0.276498 0.069124 0.100000
v 0.276388 0.081087 0.100000
v 0.276007 0.097169 0.100000
v 0.275274 0.116467 0.100000
v 0.274108 0.138078 0.100000
v 0.272431 0.161097 0.100000
v 0.270161 0.184620 0.100000
v 0.267220 0.207743 0.100000
v 0.263526 0.229561 0.100000
v 0.259001 0.249172 0.100000
v 0.253563 0.265670 0.100000
v 0.247133 0.278152 0.100000
v 0.239631 0.285714 0.100000
v 0.235039 0.287998 0.100000
v 0.229451 0.290223 0.100000
v 0.223058 0.292363 0.100000
v 0.216049 0.294390 0.100000
v 0.208614 0.296279 0.100000
v 0.200941 0.298003 0.100000
v 0.193220 0.299535 0.100000
v 0.185640 0.300848 0.100000
v 0.178391 0.301915 0.100000
v 0.171663 0.302711 0.100000
v 0.165643 0.303208 0.100000
v 0.160522 0.303379 0.100000
v 0.150984 0.302963 0.100000
v 0.142331 0.301715 0.100000
v 0.134553 0.299635 0.100000
v 0.127638 0.296723 0.100000
v 0.121578 0.292979 0.100000
v 0.116359 0.288402 0.100000
v 0.111973 0.282994 0.100000
v 0.108409 0.276754 0.100000
v 0.105655 0.269681 0.100000
v 0.103701 0.261777 0.100000
v 0.102536 0.253040 0.100000
v 0.102151 0.243472 0.100000
v 0.102166 0.240591 0.100000
v 0.102207 0.237708 0.100000
v 0.102271 0.234819 0.100000
v 0.102350 0.231922 0.100000
v 0.102439 0.229015 0.100000
v 0.102535 0.226094 0.100000
v 0.102630 0.223158 0.100000
v 0.102719 0.220203 0.100000
v 0.102799 0.217226 0.100000
v 0.102862 0.214225 0.100000
v 0.102903 0.211198 0.100000
v 0.102919 0.208141 0.100000
v 0.102919 0.122888 0.100000
v -0.157347 0.303387 0.100000
v -0.157347 0.303387 -0.100000
v -0.164309 0.303376 0.100000
v -0.164309 0.303376 -0.100000
v -0.171383 0.303295 0.100000
v -0.171383 0.303295 -0.100000
v -0.178529 0.303095 0.100000
v -0.178529 0.303095 -0.100000
v -0.185707 0.302724 0.100000
v -0.185707 0.302724 -0.100000
v -0.192876 0.302131 0.100000
v -0.192876 0.302131 -0.100000
v -0.199998 0.301267 0.100000
v -0.199998 0.301267 -0.100000
v -0.207032 0.300080 0.100000
v -0.207032 0.300080 -0.100000
v -0.213938 0.298519 0.100000
v -0.213938 0.298519 -0.100000
v -0.220675 0.296535 0.100000
v -0.220675 0.296535 -0.100000
v -0.227205 0.294075 0.100000
v -0.227205 0.294075 -0.100000
v -0.233487 0.291091 0.100000
v -0.233487 0.291091 -0.100000
v -0.243106 0.282981 0.100000
v -0.243106 0.282981 -0.100000
v -0.251301 0.269994 0.100000
v -0.251301 0.269994 -0.100000
v -0.258184 0.253012 0.100000
v -0.258184 0.253012 -0.100000
v -0.263868 0.232918 0.100000
v -0.263868 0.232918 -0.100000
v -0.268462 0.210594 0.100000
v -0.268462 0.210594 -0.100000
v -0.272081 0.186924 0.100000
v -0.272081 0.186924 -0.100000
v -0.274836 0.162790 0.100000
v -0.274836 0.162790 -0.100000
v -0.276839 0.139074 0.100000
v -0.276839 0.139074 -0.100000
v -0.278202 0.116659 0.100000
v -0.278202 0.116659 -0.100000
v -0.279037 0.096429 0.100000
v -0.279037 0.096429 -0.100000
v -0.279455 0.079266 0.100000
v -0.279455 0.079266 -0.100000
v -0.279570 0.066052 0.100000
v -0.279570 0.066052 -0.100000
v -0.277576 0.023839 0.100000
v -0.277576 0.023839 -0.100000
v -0.271680 -0.016022 0.100000
v -0.271680 -0.016022 -0.100000
v -0.262013 -0.053547 0.100000
v -0.262013 -0.053547 -0.100000
v -0.248706 -0.088752 0.100000
v -0.248706 -0.088752 -0.100000
v -0.231889 -0.121653 0.100000
v -0.231889 -0.121653 -0.100000
v -0.211694 -0.152266 0.100000
v -0.211694 -0.152266 -0.100000
v -0.188250 -0.180606 0.100000
v -0.188250 -0.180606 -0.100000
v -0.161689 -0.206691 0.100000
v -0.161689 -0.206691 -0.100000
v -0.132140 -0.230535 0.100000
v -0.132140 -0.230535 -0.100000
v -0.099736 -0.252155 0.100000
v -0.099736 -0.252155 -0.100000
v -0.064606 -0.271567 0.100000
v -0.064606 -0.271567 -0.100000
v -0.026882 -0.288786 0.100000
v -0.026882 -0.288786 -0.100000
v -0.016420 -0.293132 0.100000
v -0.016420 -0.293132 -0.100000
v -0.005785 -0.297310 0.100000
v -0.005785 -0.297310 -0.100000
v 0.005004 -0.301279 0.100000
v 0.005004 -0.301279 -0.100000
v 0.015930 -0.305001 0.100000
v 0.015930 -0.305001 -0.100000
v 0.026973 -0.308434 0.100000
v 0.026973 -0.308434 -0.100000
v 0.038114 -0.311540 0.100000
v 0.038114 -0.311540 -0.100000
v 0.049336 -0.314277 0.100000
v 0.049336 -0.314277 -0.100000
v 0.060619 -0.316607 0.100000
v 0.060619 -0.316607 -0.100000
v 0.071945 -0.318488 0.100000
v 0.071945 -0.318488 -0.100000
v 0.083294 -0.319882 0.100000
v 0.083294 -0.319882 -0.100000
v 0.094649 -0.320747 0.100000
v 0.094649 -0.320747 -0.100000
v 0.105991 -0.321045 0.100000
v 0.105991 -0.321045 -0.100000
v 0.119124 -0.319853 0.100000
v 0.119124 -0.319853 -0.100000
v 0.131240 -0.316440 0.100000
v 0.131240 -0.316440 -0.100000
v 0.142317 -0.311048 0.100000
v 0.142317 -0.311048 -0.100000
v 0.152330 -0.303920 0.100000
v 0.152330 -0.303920 -0.100000
v 0.161254 -0.295298 0.100000
v 0.161254 -0.295298 -0.100000
v 0.169067 -0.285426 0.100000
v 0.169067 -0.285426 -0.100000
v 0.175743 -0.274546 0.100000
v 0.175743 -0.274546 -0.100000
v 0.181260 -0.262900 0.100000
v 0.181260 -0.262900 -0.100000
v 0.185592 -0.250732 0.100000
v 0.185592 -0.250732 -0.100000
v 0.188716 -0.238284 0.100000
v 0.188716 -0.238284 -0.100000
v 0.190608 -0.225798 0.100000
v 0.190608 -0.225798 -0.100000
v 0.191244 -0.213518 0.100000
v 0.191244 -0.213518 -0.100000
v 0.188933 -0.205260 0.100000
v 0.188933 -0.205260 -0.100000
v 0.182479 -0.198082 0.100000
v 0.182479 -0.198082 -0.100000
v 0.172607 -0.191880 0.100000
v 0.172607 -0.191880 -0.100000
v 0.160039 -0.186551 0.100000
v 0.160039 -0.186551 -0.100000
v 0.145497 -0.181989 0.100000
v 0.145497 -0.181989 -0.100000
v 0.129704 -0.178091 0.100000
v 0.129704 -0.178091 -0.100000
v 0.113384 -0.174754 0.100000
v 0.113384 -0.174754 -0.100000
v 0.097258 -0.171872 0.100000
v 0.097258 -0.171872 -0.100000
v 0.082049 -0.169343 0.100000
v 0.082049 -0.169343 -0.100000
v 0.068481 -0.167061 0.100000
v 0.068481 -0.167061 -0.100000
v 0.057275 -0.164924 0.100000
v 0.057275 -0.164924 -0.100000
v 0.049155 -0.162826 0.100000
v 0.049155 -0.162826 -0.100000
v 0.042438 -0.160441 0.100000
v 0.042438 -0.160441 -0.100000
v 0.035739 -0.157887 0.100000
v 0.035739 -0.157887 -0.100000
v 0.029078 -0.155158 0.100000
v 0.029078 -0.155158 -0.100000
v 0.022473 -0.152244 0.100000
v 0.022473 -0.152244 -0.100000
v 0.015942 -0.149139 0.100000
v 0.015942 -0.149139 -0.100000
v 0.009505 -0.145833 0.100000
v 0.009505 -0.145833 -0.100000
v 0.003179 -0.142320 0.100000
v 0.003179 -0.142320 -0.100000
v -0.003015 -0.138590 0.100000
v -0.003015 -0.138590 -0.100000
v -0.009061 -0.134637 0.100000
v -0.009061 -0.134637 -0.100000
v -0.014938 -0.130451 0.100000
v -0.014938 -0.130451 -0.100000
v -0.020628 -0.126025 0.100000
v -0.020628 -0.126025 -0.100000
v -0.026114 -0.121352 0.100000
v -0.026114 -0.121352 -0.100000
v -0.041984 -0.105891 0.100000
v -0.041984 -0.105891 -0.100000
v -0.055538 -0.089513 0.100000
v -0.055538 -0.089513 -0.100000
v -0.066952 -0.072293 0.100000
v -0.066952 -0.072293 -0.100000
v -0.076407 -0.054304 0.100000
v -0.076407 -0.054304 -0.100000
v -0.084080 -0.035622 0.100000
v -0.084080 -0.035622 -0.100000
v -0.090150 -0.016321 0.100000
v -0.090150 -0.016321 -0.100000
v -0.094796 0.003524 0.100000
v -0.094796 0.003524 -0.100000
v -0.098196 0.023838 0.100000
v -0.098196 0.023838 -0.100000
v -0.100530 0.044547 0.100000
v -0.100530 0.044547 -0.100000
v -0.101976 0.065576 0.100000
v -0.101976 0.065576 -0.100000
v -0.102713 0.086850 0.100000
v -0.102713 0.086850 -0.100000
v -0.102919 0.108295 0.100000
v -0.102919 0.108295 -0.100000
v -0.102843 0.119063 0.100000
v -0.102843 0.119063 -0.100000
v -0.102634 0.129857 0.100000
v -0.102634 0.129857 -0.100000
v -0.102319 0.140673 0.100000
v -0.102319 0.140673 -0.100000
v -0.101923 0.151505 0.100000
v -0.101923 0.151505 -0.100000
v -0.101474 0.162347 0.100000
v -0.101474 0.162347 -0.100000
v -0.100998 0.173195 0.100000
v -0.100998 0.173195 -0.100000
v -0.100523 0.184043 0.100000
v -0.100523 0.184043 -0.100000
v -0.100074 0.194885 0.100000
v -0.100074 0.194885 -0.100000
v -0.099678 0.205717 0.100000
v -0.099678 0.205717 -0.100000
v -0.099363 0.216533 0.100000
v -0.099363 0.216533 -0.100000
v -0.099154 0.227327 0.100000
v -0.099154 0.227327 -0.100000
v -0.099078 0.238095 0.100000
v -0.099078 0.238095 -0.100000
v -0.099196 0.247608 0.100000
v -0.099196 0.247608 -0.100000
v -0.099637 0.256532 0.100000
v -0.099637 0.256532 -0.100000
v -0.100530 0.264821 0.100000
v -0.100530 0.264821 -0.100000
v -0.102008 0.272430 0.100000
v -0.102008 0.272430 -0.100000
v -0.104201 0.279313 0.100000
v -0.104201 0.279313 -0.100000
v -0.107239 0.285426 0.100000
v -0.107239 0.285426 -0.100000
v -0.111253 0.290723 0.100000
v -0.111253 0.290723 -0.100000
v -0.116374 0.295158 0.100000
v -0.116374 0.295158 -0.100000
v -0.122732 0.298687 0.100000
v -0.122732 0.298687 -0.100000
v -0.130458 0.301264 0.100000
v -0.130458 0.301264 -0.100000
v -0.139683 0.302843 0.100000
v -0.139683 0.302843 -0.100000
v -0.150538 0.303379 0.100000
v -0.150538 0.303379 -0.100000
v 0.102903 0.117911 0.100000
v 0.102903 0.117911 -0.100000
v 0.102862 0.112960 0.100000
v 0.102862 0.112960 -0.100000
v 0.102799 0.108031 0.100000
v 0.102799 0.108031 -0.100000
v 0.102719 0.103118 0.100000
v 0.102719 0.103118 -0.100000
v 0.102630 0.098215 0.100000
v 0.102630 0.098215 -0.100000
v 0.102535 0.093318 0.100000
v 0.102535 0.093318 -0.100000
v 0.102439 0.088421 0.100000
v 0.102439 0.088421 -0.100000
v 0.102350 0.083518 0.100000
v 0.102350 0.083518 -0.100000
v 0.102271 0.078605 0.100000
v 0.102271 0.078605 -0.100000
v 0.102207 0.073676 0.100000
v 0.102207 0.073676 -0.100000
v 0.102166 0.068725 0.100000
v 0.102166 0.068725 -0.100000
v 0.102151 0.063748 0.100000
v 0.102151 0.063748 -0.100000
v 0.102505 0.050207 0.100000
v 0.102505 0.050207 -0.100000
v 0.103644 0.036962 0.100000
v 0.103644 0.036962 -0.100000
v 0.105679 0.024182 0.100000
v 0.105679 0.024182 -0.100000
v 0.108722 0.012033 0.100000
v 0.108722 0.012033 -0.100000
v 0.112885 0.000684 0.100000
v 0.112885 0.000684 -0.100000
v 0.118280 -0.009697 0.100000
v 0.118280 -0.009697 -0.100000
v 0.125019 -0.018941 0.100000
v 0.125019 -0.018941 -0.100000
v 0.133214 -0.026882 0.100000
v 0.133214 -0.026882 -0.100000
v 0.142977 -0.033350 0.100000
v 0.142977 -0.033350 -0.100000
v 0.154421 -0.038178 0.100000
v 0.154421 -0.038178 -0.100000
v 0.167656 -0.041199 0.100000
v 0.167656 -0.041199 -0.100000
v 0.182796 -0.042243 0.100000
v 0.182796 -0.042243 -0.100000
v 0.203517 -0.041577 0.100000
v 0.203517 -0.041577 -0.100000
v 0.220939 -0.039540 0.100000
v 0.220939 -0.039540 -0.100000
v 0.235347 -0.036074 0.100000
v 0.235347 -0.036074 -0.100000
v 0.247027 -0.031120 0.100000
v 0.247027 -0.031120 -0.100000
v 0.256265 -0.024619 0.100000
v 0.256265 -0.024619 -0.100000
v 0.263345 -0.016513 0.100000
v 0.263345 -0.016513 -0.100000
v 0.268553 -0.006743 0.100000
v 0.268553 -0.006743 -0.100000
v 0.272174 0.004751 0.100000
v 0.272174 0.004751 -0.100000
v 0.274494 0.018025 0.100000
v 0.274494 0.018025 -0.100000
v 0.275797 0.033140 0.100000
v 0.275797 0.033140 -0.100000
v 0.276370 0.050153 0.100000
v 0.276370 0.050153 -0.100000
v 0.276498 0.069124 0.100000
v 0.276498 0.069124 -0.100000
v 0.276388 0.081087 0.100000
v 0.276388 0.081087 -0.100000
v 0.276007 0.097169 0.100000
v 0.276007 0.097169 -0.100000
v 0.275274 0.116467 0.100000
v 0.275274 0.116467 -0.100000
v 0.274108 0.138078 0.100000
v 0.274108 0.138078 -0.100000
v 0.272431 0.161097 0.100000
v 0.272431 0.161097 -0.100000
v 0.270161 0.184620 0.100000
v 0.270161 0.184620 -0.100000
v 0.267220 0.207743 0.100000
v 0.267220 0.207743 -0.100000
v 0.263526 0.229561 0.100000
v 0.263526 0.229561 -0.100000
v 0.259001 0.249172 0.100000
v 0.259001 0.249172 -0.100000
v 0.253563 0.265670 0.100000
v 0.253563 0.265670 -0.100000
v 0.247133 0.278152 0.100000
v 0.247133 0.278152 -0.100000
v 0.239631 0.285714 0.100000
v 0.239631 0.285714 -0.100000
v 0.235039 0.287998 0.100000
v 0.235039 0.287998 -0.100000
v 0.229451 0.290223 0.100000
v 0.229451 0.290223 -0.100000
v 0.223058 0.292363 0.100000
v 0.223058 0.292363 -0.100000
v 0.216049 0.294390 0.100000
v 0.216049 0.294390 -0.100000
v 0.208614 0.296279 0.100000
v 0.208614 0.296279 -0.100000
v 0.200941 0.298003 0.100000
v 0.200941 0.298003 -0.100000
v 0.193220 0.299535 0.100000
v 0.193220 0.299535 -0.100000
v 0.185640 0.300848 0.100000
v 0.185640 0.300848 -0.100000
v 0.178391 0.301915 0.100000
v 0.178391 0.301915 -0.100000
v 0.171663 0.302711 0.100000
v 0.171663 0.302711 -0.100000
v 0.165643 0.303208 0.100000
v 0.165643 0.303208 -0.100000
v 0.160522 0.303379 0.100000
v 0.160522 0.303379 -0.100000
v 0.150984 0.302963 0.100000
v 0.150984 0.302963 -0.100000
v 0.142331 0.301715 0.100000
v 0.142331 0.301715 -0.100000
v 0.134553 0.299635 0.100000
v 0.134553 0.299635 -0.100000
v 0.127638 0.296723 0.100000
v 0.127638 0.296723 -0.100000
v 0.121578 0.292979 0.100000
v 0.121578 0.292979 -0.100000
v 0.116359 0.288402 0.100000
v 0.116359 0.288402 -0.100000
v 0.111973 0.282994 0.100000
v 0.111973 0.282994 -0.100000
v 0.108409 0.276754 0.100000
v 0.108409 0.276754 -0.100000
v 0.105655 0.269681 0.100000
v 0.105655 0.269681 -0.100000
v 0.103701 0.261777 0.100000
v 0.103701 0.261777 -0.100000
v 0.102536 0.253040 0.100000
v 0.102536 0.253040 -0.100000
v 0.102151 0.243472 0.100000
v 0.102151 0.243472 -0.100000
v 0.102166 0.240591 0.100000
v 0.102166 0.240591 -0.100000
v 0.102207 0.237708 0.100000
v 0.102207 0.237708 -0.100000
v 0.102271 0.234819 0.100000
v 0.102271 0.234819 -0.100000
v 0.102350 0.231922 0.100000
v 0.102350 0.231922 -0.100000
v 0.102439 0.229015 0.100000
v 0.102439 0.229015 -0.100000
v 0.102535 0.226094 0.100000
v 0.102535 0.226094 -0.100000
v 0.102630 0.223158 0.100000
v 0.102630 0.223158 -0.100000
v 0.102719 0.220203 0.100000
v 0.102719 0.220203 -0.100000
v 0.102799 0.217226 0.100000
v 0.102799 0.217226 -0.100000
v 0.102862 0.214225 0.100000
v 0.102862 0.214225 -0.100000
v 0.102903 0.211198 0.100000
v 0.102903 0.211198 -0.100000
v 0.102919 0.208141 0.100000
v 0.102919 0.208141 -0.100000
v 0.102919 0.122888 0.100000
v 0.102919 0.122888 -0.100000
vn -0.0000 -0.0000 -1.0000
vn -0.0000 -0.0000 1.0000
vn -0.0065 1.0000 -0.0000
vn -0.0002 1.0000 -0.0000
vn -0.0197 0.9998 -0.0000
vn -0.0398 0.9992 -0.0000
vn -0.0670 0.9978 -0.0000
vn -0.1014 0.9948 -0.0000
vn -0.1435 0.9896 -0.0000
vn -0.1935 0.9811 -0.0000
vn -0.2516 0.9678 -0.0000
vn -0.3177 0.9482 -0.0000
vn -0.3911 0.9203 -0.0000
vn -0.5413 0.8408 -0.0000
vn -0.7540 0.6569 -0.0000
vn -0.8897 0.4565 -0.0000
vn -0.9459 0.3244 -0.0000
vn -0.9715 0.2370 -0.0000
vn -0.9843 0.1764 -0.0000
vn -0.9912 0.1323 -0.0000
vn -0.9951 0.0988 -0.0000
vn -0.9974 0.0724 -0.0000
vn -0.9987 0.0510 -0.0000
vn -0.9995 0.0328 -0.0000
vn -0.9999 0.0165 -0.0000
vn -0.9998 -0.0193 -0.0000
vn -0.9953 -0.0969 -0.0000
vn -0.9802 -0.1982 -0.0000
vn -0.9533 -0.3020 -0.0000
vn -0.9143 -0.4050 -0.0000
vn -0.8639 -0.5037 -0.0000
vn -0.8038 -0.5949 -0.0000
vn -0.7366 -0.6763 -0.0000
vn -0.6651 -0.7467 -0.0000
vn -0.5921 -0.8059 -0.0000
vn -0.5198 -0.8543 -0.0000
vn -0.4498 -0.8931 -0.0000
vn -0.3995 -0.9167 -0.0000
vn -0.3746 -0.9272 -0.0000
vn -0.3555 -0.9347 -0.0000
vn -0.3339 -0.9426 -0.0000
vn -0.3097 -0.9508 -0.0000
vn -0.2827 -0.9592 -0.0000
vn -0.2528 -0.9675 -0.0000
vn -0.2196 -0.9756 -0.0000
vn -0.1831 -0.9831 -0.0000
vn -0.1429 -0.9897 -0.0000
vn -0.0990 -0.9951 -0.0000
vn -0.0511 -0.9987 -0.0000
vn 0.0321 -0.9995 -0.0000
vn 0.1815 -0.9834 -0.0000
vn 0.3558 -0.9346 -0.0000
vn 0.5106 -0.8598 -0.0000
vn 0.6392 -0.7691 -0.0000
vn 0.7411 -0.6714 -0.0000
vn 0.8197 -0.5728 -0.0000
vn 0.8793 -0.4762 -0.0000
vn 0.9241 -0.3822 -0.0000
vn 0.9571 -0.2897 -0.0000
vn 0.9804 -0.1969 -0.0000
vn 0.9571 -0.2898 -0.0000
vn 0.9949 -0.1009 -0.0000
vn 0.9939 0.1104 -0.0000
vn 0.8763 0.4817 -0.0000
vn 0.6440 0.7650 -0.0000
vn 0.4627 0.8865 -0.0000
vn 0.3453 0.9385 -0.0000
vn 0.2696 0.9630 -0.0000
vn 0.2200 0.9755 -0.0000
vn 0.1881 0.9821 -0.0000
vn 0.1700 0.9854 -0.0000
vn 0.1649 0.9863 -0.0000
vn 0.1766 0.9843 -0.0000
vn 0.2188 0.9758 -0.0000
vn 0.2927 0.9562 -0.0000
vn 0.3454 0.9384 -0.0000
vn 0.3677 0.9299 -0.0000
vn 0.3914 0.9202 -0.0000
vn 0.4166 0.9091 -0.0000
vn 0.4432 0.8964 -0.0000
vn 0.4713 0.8820 -0.0000
vn 0.5008 0.8656 -0.0000
vn 0.5317 0.8470 -0.0000
vn 0.5638 0.8259 -0.0000
vn 0.5971 0.8021 -0.0000
vn 0.6314 0.7755 -0.0000
vn 0.6735 0.7391 -0.0000
vn 0.7352 0.6779 -0.0000
vn 0.8031 0.5959 -0.0000
vn 0.8605 0.5095 -0.0000
vn 0.9061 0.4230 -0.0000
vn 0.9403 0.3403 -0.0000
vn 0.9645 0.2642 -0.0000
vn 0.9805 0.1966 -0.0000
vn 0.9903 0.1386 -0.0000
vn 0.9959 0.0903 -0.0000
vn 0.9987 0.0516 -0.0000
vn 0.9998 0.0221 -0.0000
vn 1.0000 0.0013 -0.0000
vn 0.9999 -0.0132 -0.0000
vn 0.9997 -0.0243 -0.0000
vn 0.9995 -0.0328 -0.0000
vn 0.9992 -0.0389 -0.0000
vn 0.9991 -0.0426 -0.0000
vn 0.9990 -0.0438 -0.0000
vn 1.0000 0.0027 -0.0000
vn 0.9995 0.0308 -0.0000
vn 0.9969 0.0783 -0.0000
vn 0.9888 0.1491 -0.0000
vn 0.9689 0.2475 -0.0000
vn 0.9269 0.3754 -0.0000
vn 0.8500 0.5268 -0.0000
vn 0.7298 0.6836 -0.0000
vn 0.5731 0.8195 -0.0000
vn 0.4025 0.9154 -0.0000
vn 0.2433 0.9700 -0.0000
vn 0.1092 0.9940 -0.0000
vn 0.0252 0.9997 -0.0000
vn -0.9999 0.0106 -0.0000
vn -1.0000 0.0057 -0.0000
vn -0.9999 0.0145 -0.0000
vn -0.9999 0.0172 -0.0000
vn -0.9998 0.0189 -0.0000
vn -0.9998 0.0194 -0.0000
vn -0.9999 -0.0116 -0.0000
vn -0.9984 -0.0559 -0.0000
vn -0.9926 -0.1215 -0.0000
vn -0.9797 -0.2003 -0.0000
vn -0.9558 -0.2941 -0.0000
vn -0.9149 -0.4036 -0.0000
vn -0.8501 -0.5266 -0.0000
vn -0.7547 -0.6560 -0.0000
vn -0.6267 -0.7792 -0.0000
vn -0.4726 -0.8813 -0.0000
vn -0.3068 -0.9518 -0.0000
vn -0.1461 -0.9893 -0.0000
vn -0.0184 -0.9998 -0.0000
vn 0.0742 -0.9972 -0.0000
vn 0.1753 -0.9845 -0.0000
vn 0.3132 -0.9497 -0.0000
vn 0.4857 -0.8741 -0.0000
vn 0.6691 -0.7431 -0.0000
vn 0.8232 -0.5678 -0.0000
vn 0.9220 -0.3871 -0.0000
vn 0.9715 -0.2368 -0.0000
vn 0.9916 -0.1292 -0.0000
vn 0.9982 -0.0598 -0.0000
vn 0.9998 -0.0202 -0.0000
vn 1.0000 0.0012 -0.0000
vn 0.9999 0.0164 -0.0000
vn 0.9989 0.0459 -0.0000
vn 0.9980 0.0633 -0.0000
vn 0.9964 0.0844 -0.0000
vn 0.9938 0.1111 -0.0000
vn 0.9892 0.1466 -0.0000
vn 0.9806 0.1960 -0.0000
vn 0.9631 0.2692 -0.0000
vn 0.9222 0.3867 -0.0000
vn 0.8089 0.5880 -0.0000
vn 0.5854 0.8107 -0.0000
vn 0.4079 0.9130 -0.0000
vn 0.3438 0.9390 -0.0000
vn 0.2977 0.9547 -0.0000
vn 0.2621 0.9650 -0.0000
vn 0.2327 0.9725 -0.0000
vn 0.2069 0.9784 -0.0000
vn 0.1826 0.9832 -0.0000
vn 0.1582 0.9874 -0.0000
vn 0.1316 0.9913 -0.0000
vn 0.0999 0.9950 -0.0000
vn 0.0579 0.9983 -0.0000
vn -0.0050 1.0000 -0.0000
vn -0.0933 0.9956 -0.0000
vn -0.2009 0.9796 -0.0000
vn -0.3240 0.9461 -0.0000
vn -0.4582 0.8888 -0.0000
vn -0.3240 0.9460 -0.0000
vn -0.5945 0.8041 -0.0000
vn -0.7206 0.6933 -0.0000
vn -0.8252 0.5648 -0.0000
vn -0.9025 0.4306 -0.0000
vn -0.9533 0.3020 -0.0000
vn -0.9825 0.1863 -0.0000
vn -0.9963 0.0863 -0.0000
vn -0.9998 0.0175 -0.0000
vn -1.0000 -0.0099 -0.0000
vn -0.9998 -0.0182 -0.0000
vn -0.9997 -0.0246 -0.0000
vn -0.9996 -0.0291 -0.0000
vn -0.9995 -0.0317 -0.0000
vn -0.9995 -0.0325 -0.0000
vn -0.9995 -0.0314 -0.0000
vn -0.9996 -0.0285 -0.0000
vn -0.9997 -0.0238 -0.0000
vn -0.9998 -0.0174 -0.0000
vn -1.0000 -0.0094 -0.0000
vn -1.0000 -0.0025 -0.0000
vn -1.0000 0.0015 -0.0000
vt 0.583333 0.000000
vt 0.004902 0.000000
vt 0.000000 0.000000
vt 0.872549 0.000000
vt 0.882353 0.000000
vt 0.877451 0.000000
vt 0.578431 0.000000
vt 0.009804 0.000000
vt 0.014706 0.000000
vt 0.867647 0.000000
vt 0.019608 0.000000
vt 0.887255 0.000000
vt 0.573529 0.000000
vt 0.024510 0.000000
vt 0.862745 0.000000
vt 0.029412 0.000000
vt 0.857843 0.000000
vt 0.892157 0.000000
vt 0.034314 0.000000
vt 0.568627 0.000000
vt 0.852941 0.000000
vt 0.039216 0.000000
vt 0.897059 0.000000
vt 0.848039 0.000000
vt 0.563725 0.000000
vt 0.044118 0.000000
vt 0.843137 0.000000
vt 0.901961 0.000000
vt 0.049020 0.000000
vt 0.838235 0.000000
vt 0.558824 0.000000
vt 0.833333 0.000000
vt 0.053922 0.000000
vt 0.906863 0.000000
vt 0.828431 0.000000
vt 0.058824 0.000000
vt 0.553922 0.000000
vt 0.823529 0.000000
vt 0.911765 0.000000
vt 0.818627 0.000000
vt 0.813725 0.000000
vt 0.549020 0.000000
vt 0.916667 0.000000
vt 0.063725 0.000000
vt 0.544118 0.000000
vt 0.808824 0.000000
vt 0.921569 0.000000
vt 0.539216 0.000000
vt 0.068627 0.000000
vt 0.926471 0.000000
vt 0.803922 0.000000
vt 0.534314 0.000000
vt 0.931373 0.000000
vt 0.529412 0.000000
vt 0.936275 0.000000
vt 0.073529 0.000000
vt 0.799020 0.000000
vt 0.524510 0.000000
vt 0.941176 0.000000
vt 0.946078 0.000000
vt 0.519608 0.000000
vt 0.950980 0.000000
vt 0.955882 0.000000
vt 0.078431 0.000000
vt 0.960784 0.000000
vt 0.794118 0.000000
vt 0.965686 0.000000
vt 0.514706 0.000000
vt 0.970588 0.000000
vt 0.975490 0.000000
vt 0.980392 0.000000
vt 0.985294 0.000000
vt 0.509804 0.000000
vt 0.990196 0.000000
vt 0.995098 0.000000
vt 0.083333 0.000000
vt 1.000000 0.000000
vt 0.789216 0.000000
vt 0.504902 0.000000
vt 0.500000 0.000000
vt 0.088235 0.000000
vt 0.784314 0.000000
vt 0.495098 0.000000
vt 0.490196 0.000000
vt 0.093137 0.000000
vt 0.485294 0.000000
vt 0.779412 0.000000
vt 0.480392 0.000000
vt 0.475490 0.000000
vt 0.098039 0.000000
vt 0.774510 0.000000
vt 0.470588 0.000000
vt 0.588235 0.000000
vt 0.465686 0.000000
vt 0.593137 0.000000
vt 0.102941 0.000000
vt 0.769608 0.000000
vt 0.598039 0.000000
vt 0.460784 0.000000
vt 0.602941 0.000000
vt 0.607843 0.000000
vt 0.612745 0.000000
vt 0.764706 0.000000
vt 0.107843 0.000000
vt 0.617647 0.000000
vt 0.622549 0.000000
vt 0.455882 0.000000
vt 0.627451 0.000000
vt 0.759804 0.000000
vt 0.112745 0.000000
vt 0.632353 0.000000
vt 0.637255 0.000000
vt 0.754902 0.000000
vt 0.642157 0.000000
vt 0.117647 0.000000
vt 0.450980 0.000000
vt 0.647059 0.000000
vt 0.651961 0.000000
vt 0.750000 0.000000
vt 0.446078 0.000000
vt 0.656863 0.000000
vt 0.745098 0.000000
vt 0.661765 0.000000
vt 0.122549 0.000000
vt 0.441176 0.000000
vt 0.740196 0.000000
vt 0.666667 0.000000
vt 0.735294 0.000000
vt 0.436274 0.000000
vt 0.671569 0.000000
vt 0.730392 0.000000
vt 0.676471 0.000000
vt 0.127451 0.000000
vt 0.431373 0.000000
vt 0.725490 0.000000
vt 0.681373 0.000000
vt 0.720588 0.000000
vt 0.686275 0.000000
vt 0.715686 0.000000
vt 0.691176 0.000000
vt 0.426471 0.000000
vt 0.710784 0.000000
vt 0.696078 0.000000
vt 0.705882 0.000000
vt 0.700980 0.000000
vt 0.132353 0.000000
vt 0.421569 0.000000
vt 0.416667 0.000000
vt 0.137255 0.000000
vt 0.411765 0.000000
vt 0.406863 0.000000
vt 0.401961 0.000000
vt 0.142157 0.000000
vt 0.397059 0.000000
vt 0.392157 0.000000
vt 0.387255 0.000000
vt 0.382353 0.000000
vt 0.377451 0.000000
vt 0.372549 0.000000
vt 0.367647 0.000000
vt 0.362745 0.000000
vt 0.147059 0.000000
vt 0.357843 0.000000
vt 0.352941 0.000000
vt 0.348039 0.000000
vt 0.343137 0.000000
vt 0.338235 0.000000
vt 0.333333 0.000000
vt 0.328431 0.000000
vt 0.323529 0.000000
vt 0.318627 0.000000
vt 0.313726 0.000000
vt 0.151961 0.000000
vt 0.308824 0.000000
vt 0.303922 0.000000
vt 0.299020 0.000000
vt 0.294118 0.000000
vt 0.289216 0.000000
vt 0.156863 0.000000
vt 0.284314 0.000000
vt 0.279412 0.000000
vt 0.161765 0.000000
vt 0.274510 0.000000
vt 0.269608 0.000000
vt 0.166667 0.000000
vt 0.264706 0.000000
vt 0.171569 0.000000
vt 0.259804 0.000000
vt 0.254902 0.000000
vt 0.176471 0.000000
vt 0.181373 0.000000
vt 0.250000 0.000000
vt 0.186275 0.000000
vt 0.191176 0.000000
vt 0.245098 0.000000
vt 0.196078 0.000000
vt 0.200980 0.000000
vt 0.240196 0.000000
vt 0.205882 0.000000
vt 0.210784 0.000000
vt 0.235294 0.000000
vt 0.215686 0.000000
vt 0.220588 0.000000
vt 0.230392 0.000000
vt 0.225490 0.000000
vt 0.008333 1.000000
vt 0.000000 1.000000
vt 0.016667 1.000000
vt 0.008333 0.000000
vt 0.025000 1.000000
vt 0.016667 0.000000
vt 0.033333 1.000000
vt 0.025000 0.000000
vt 0.041667 1.000000
vt 0.033333 0.000000
vt 0.050000 1.000000
vt 0.041667 0.000000
vt 0.058333 1.000000
vt 0.050000 0.000000
vt 0.066667 1.000000
vt 0.058333 0.000000
vt 0.075000 1.000000
vt 0.066667 0.000000
vt 0.083333 1.000000
vt 0.075000 0.000000
vt 0.091667 1.000000
vt 0.100000 1.000000
vt 0.091667 0.000000
vt 0.108333 1.000000
vt 0.100000 0.000000
vt 0.116667 1.000000
vt 0.108333 0.000000
vt 0.125000 1.000000
vt 0.116667 0.000000
vt 0.133333 1.000000
vt 0.125000 0.000000
vt 0.141667 1.000000
vt 0.133333 0.000000
vt 0.150000 1.000000
vt 0.141667 0.000000
vt 0.158333 1.000000
vt 0.150000 0.000000
vt 0.166667 1.000000
vt 0.158333 0.000000
vt 0.175000 1.000000
vt 0.183333 1.000000
vt 0.175000 0.000000
vt 0.191667 1.000000
vt 0.183333 0.000000
vt 0.200000 1.000000
vt 0.191667 0.000000
vt 0.208333 1.000000
vt 0.200000 0.000000
vt 0.216667 1.000000
vt 0.208333 0.000000
vt 0.225000 1.000000
vt 0.216667 0.000000
vt 0.233333 1.000000
vt 0.225000 0.000000
vt 0.241667 1.000000
vt 0.233333 0.000000
vt 0.250000 1.000000
vt 0.241667 0.000000
vt 0.258333 1.000000
vt 0.266667 1.000000
vt 0.258333 0.000000
vt 0.275000 1.000000
vt 0.266667 0.000000
vt 0.283333 1.000000
vt 0.275000 0.000000
vt 0.291667 1.000000
vt 0.283333 0.000000
vt 0.300000 1.000000
vt 0.291667 0.000000
vt 0.308333 1.000000
vt 0.300000 0.000000
vt 0.316667 1.000000
vt 0.308333 0.000000
vt 0.325000 1.000000
vt 0.316667 0.000000
vt 0.333333 1.000000
vt 0.325000 0.000000
vt 0.341667 1.000000
vt 0.350000 1.000000
vt 0.341667 0.000000
vt 0.358333 1.000000
vt 0.350000 0.000000
vt 0.366667 1.000000
vt 0.358333 0.000000
vt 0.375000 1.000000
vt 0.366667 0.000000
vt 0.383333 1.000000
vt 0.375000 0.000000
vt 0.391667 1.000000
vt 0.383333 0.000000
vt 0.400000 1.000000
vt 0.391667 0.000000
vt 0.408333 1.000000
vt 0.400000 0.000000
vt 0.416667 1.000000
vt 0.408333 0.000000
vt 0.425000 1.000000
vt 0.433333 1.000000
vt 0.425000 0.000000
vt 0.441667 1.000000
vt 0.433333 0.000000
vt 0.450000 1.000000
vt 0.441667 0.000000
vt 0.458333 1.000000
vt 0.450000 0.000000
vt 0.466667 1.000000
vt 0.458333 0.000000
vt 0.475000 1.000000
vt 0.466667 0.000000
vt 0.483333 1.000000
vt 0.475000 0.000000
vt 0.491667 1.000000
vt 0.483333 0.000000
vt 0.500000 1.000000
vt 0.491667 0.000000
vt 0.508333 1.000000
vt 0.516667 1.000000
vt 0.508333 0.000000
vt 0.525000 1.000000
vt 0.516667 0.000000
vt 0.533333 1.000000
vt 0.525000 0.000000
vt 0.541667 1.000000
vt 0.533333 0.000000
vt 0.550000 1.000000
vt 0.541667 0.000000
vt 0.558333 1.000000
vt 0.550000 0.000000
vt 0.566667 1.000000
vt 0.558333 0.000000
vt 0.575000 1.000000
vt 0.566667 0.000000
vt 0.583333 1.000000
vt 0.575000 0.000000
vt 0.591667 1.000000
vt 0.600000 1.000000
vt 0.591667 0.000000
vt 0.608333 1.000000
vt 0.600000 0.000000
vt 0.616667 1.000000
vt 0.608333 0.000000
vt 0.625000 1.000000
vt 0.616667 0.000000
vt 0.633333 1.000000
vt 0.625000 0.000000
vt 0.641667 1.000000
vt 0.633333 0.000000
vt 0.650000 1.000000
vt 0.641667 0.000000
vt 0.658333 1.000000
vt 0.650000 0.000000
vt 0.666667 1.000000
vt 0.658333 0.000000
vt 0.675000 1.000000
vt 0.683333 1.000000
vt 0.675000 0.000000
vt 0.691667 1.000000
vt 0.683333 0.000000
vt 0.700000 1.000000
vt 0.691667 0.000000
vt 0.708333 1.000000
vt 0.700000 0.000000
vt 0.716667 1.000000
vt 0.708333 0.000000
vt 0.725000 1.000000
vt 0.716667 0.000000
vt 0.733333 1.000000
vt 0.725000 0.000000
vt 0.741667 1.000000
vt 0.733333 0.000000
vt 0.750000 1.000000
vt 0.741667 0.000000
vt 0.758333 1.000000
vt 0.766667 1.000000
vt 0.758333 0.000000
vt 0.775000 1.000000
vt 0.766667 0.000000
vt 0.783333 1.000000
vt 0.775000 0.000000
vt 0.791667 1.000000
vt 0.783333 0.000000
vt 0.800000 1.000000
vt 0.791667 0.000000
vt 0.808333 1.000000
vt 0.800000 0.000000
vt 0.816667 1.000000
vt 0.808333 0.000000
vt 0.825000 1.000000
vt 0.816667 0.000000
vt 0.833333 1.000000
vt 0.825000 0.000000
vt 0.841667 1.000000
vt 0.850000 1.000000
vt 0.841667 0.000000
vt 0.858333 1.000000
vt 0.850000 0.000000
vt 0.866667 1.000000
vt 0.858333 0.000000
vt 0.875000 1.000000
vt 0.866667 0.000000
vt 0.883333 1.000000
vt 0.875000 0.000000
vt 0.891667 1.000000
vt 0.883333 0.000000
vt 0.900000 1.000000
vt 0.891667 0.000000
vt 0.908333 1.000000
vt 0.900000 0.000000
vt 0.916667 1.000000
vt 0.908333 0.000000
vt 0.925000 1.000000
vt 0.933333 1.000000
vt 0.925000 0.000000
vt 0.941667 1.000000
vt 0.933333 0.000000
vt 0.950000 1.000000
vt 0.941667 0.000000
vt 0.958333 1.000000
vt 0.950000 0.000000
vt 0.966667 1.000000
vt 0.958333 0.000000
vt 0.975000 1.000000
vt 0.966667 0.000000
vt 0.983333 1.000000
vt 0.975000 0.000000
vt 0.991667 1.000000
vt 0.983333 0.000000
vt 1.000000 1.000000
vt 0.991667 0.000000
vt 0.011765 1.000000
vt 0.023529 1.000000
vt 0.011765 0.000000
vt 0.035294 1.000000
vt 0.023529 0.000000
vt 0.047059 1.000000
vt 0.035294 0.000000
vt 0.058824 1.000000
vt 0.047059 0.000000
vt 0.070588 1.000000
vt 0.082353 1.000000
vt 0.070588 0.000000
vt 0.094118 1.000000
vt 0.082353 0.000000
vt 0.105882 1.000000
vt 0.094118 0.000000
vt 0.117647 1.000000
vt 0.105882 0.000000
vt 0.129412 1.000000
vt 0.141176 1.000000
vt 0.129412 0.000000
vt 0.152941 1.000000
vt 0.141176 0.000000
vt 0.164706 1.000000
vt 0.152941 0.000000
vt 0.176471 1.000000
vt 0.164706 0.000000
vt 0.188235 1.000000
vt 0.188235 0.000000
vt 0.211765 1.000000
vt 0.223529 1.000000
vt 0.211765 0.000000
vt 0.235294 1.000000
vt 0.223529 0.000000
vt 0.247059 1.000000
vt 0.258824 1.000000
vt 0.247059 0.000000
vt 0.270588 1.000000
vt 0.258824 0.000000
vt 0.282353 1.000000
vt 0.270588 0.000000
vt 0.294118 1.000000
vt 0.282353 0.000000
vt 0.305882 1.000000
vt 0.317647 1.000000
vt 0.305882 0.000000
vt 0.329412 1.000000
vt 0.317647 0.000000
vt 0.341176 1.000000
vt 0.329412 0.000000
vt 0.352941 1.000000
vt 0.341176 0.000000
vt 0.364706 1.000000
vt 0.376471 1.000000
vt 0.364706 0.000000
vt 0.388235 1.000000
vt 0.376471 0.000000
vt 0.388235 0.000000
vt 0.411765 1.000000
vt 0.423529 1.000000
vt 0.435294 1.000000
vt 0.423529 0.000000
vt 0.447059 1.000000
vt 0.435294 0.000000
vt 0.458824 1.000000
vt 0.447059 0.000000
vt 0.470588 1.000000
vt 0.458824 0.000000
vt 0.482353 1.000000
vt 0.494118 1.000000
vt 0.482353 0.000000
vt 0.505882 1.000000
vt 0.494118 0.000000
vt 0.517647 1.000000
vt 0.505882 0.000000
vt 0.529412 1.000000
vt 0.517647 0.000000
vt 0.541176 1.000000
vt 0.552941 1.000000
vt 0.541176 0.000000
vt 0.564706 1.000000
vt 0.552941 0.000000
vt 0.576471 1.000000
vt 0.564706 0.000000
vt 0.588235 1.000000
vt 0.576471 0.000000
vt 0.611765 1.000000
vt 0.623529 1.000000
vt 0.611765 0.000000
vt 0.635294 1.000000
vt 0.623529 0.000000
vt 0.647059 1.000000
vt 0.635294 0.000000
vt 0.658824 1.000000
vt 0.670588 1.000000
vt 0.658824 0.000000
vt 0.682353 1.000000
vt 0.670588 0.000000
vt 0.694118 1.000000
vt 0.682353 0.000000
vt 0.705882 1.000000
vt 0.694118 0.000000
vt 0.717647 1.000000
vt 0.729412 1.000000
vt 0.717647 0.000000
vt 0.741176 1.000000
vt 0.729412 0.000000
vt 0.752941 1.000000
vt 0.741176 0.000000
vt 0.764706 1.000000
vt 0.752941 0.000000
vt 0.776471 1.000000
vt 0.788235 1.000000
vt 0.776471 0.000000
vt 0.788235 0.000000
vt 0.811765 1.000000
vt 0.823529 1.000000
vt 0.811765 0.000000
vt 0.835294 1.000000
vt 0.847059 1.000000
vt 0.835294 0.000000
vt 0.858824 1.000000
vt 0.847059 0.000000
vt 0.870588 1.000000
vt 0.858824 0.000000
vt 0.882353 1.000000
vt 0.870588 0.000000
vt 0.894118 1.000000
vt 0.905882 1.000000
vt 0.894118 0.000000
vt 0.917647 1.000000
vt 0.905882 0.000000
vt 0.929412 1.000000
vt 0.917647 0.000000
vt 0.941176 1.000000
vt 0.929412 0.000000
vt 0.952941 1.000000
vt 0.964706 1.000000
vt 0.952941 0.000000
vt 0.976471 1.000000
vt 0.964706 0.000000
vt 0.988235 1.000000
vt 0.976471 0.000000
vt 0.988235 0.000000
s 0
usemtl マテリアル.007
f 120/1/1 2/2/1 1/3/1
f 179/4/1 181/5/1 180/6/1
f 119/7/1 2/2/1 120/1/1
f 119/7/1 3/8/1 2/2/1
f 119/7/1 4/9/1 3/8/1
f 178/10/1 181/5/1 179/4/1
f 119/7/1 5/11/1 4/9/1
f 178/10/1 182/12/1 181/5/1
f 118/13/1 5/11/1 119/7/1
f 118/13/1 6/14/1 5/11/1
f 177/15/1 182/12/1 178/10/1
f 118/13/1 7/16/1 6/14/1
f 176/17/1 182/12/1 177/15/1
f 176/17/1 183/18/1 182/12/1
f 118/13/1 8/19/1 7/16/1
f 117/20/1 8/19/1 118/13/1
f 175/21/1 183/18/1 176/17/1
f 117/20/1 9/22/1 8/19/1
f 175/21/1 184/23/1 183/18/1
f 174/24/1 184/23/1 175/21/1
f 116/25/1 9/22/1 117/20/1
f 116/25/1 10/26/1 9/22/1
f 173/27/1 184/23/1 174/24/1
f 173/27/1 185/28/1 184/23/1
f 116/25/1 11/29/1 10/26/1
f 172/30/1 185/28/1 173/27/1
f 115/31/1 11/29/1 116/25/1
f 171/32/1 185/28/1 172/30/1
f 115/31/1 12/33/1 11/29/1
f 171/32/1 186/34/1 185/28/1
f 170/35/1 186/34/1 171/32/1
f 115/31/1 13/36/1 12/33/1
f 114/37/1 13/36/1 115/31/1
f 169/38/1 186/34/1 170/35/1
f 169/38/1 187/39/1 186/34/1
f 168/40/1 187/39/1 169/38/1
f 167/41/1 187/39/1 168/40/1
f 113/42/1 13/36/1 114/37/1
f 167/41/1 188/43/1 187/39/1
f 113/42/1 14/44/1 13/36/1
f 112/45/1 14/44/1 113/42/1
f 166/46/1 188/43/1 167/41/1
f 166/46/1 189/47/1 188/43/1
f 111/48/1 14/44/1 112/45/1
f 111/48/1 15/49/1 14/44/1
f 166/46/1 190/50/1 189/47/1
f 165/51/1 190/50/1 166/46/1
f 110/52/1 15/49/1 111/48/1
f 165/51/1 191/53/1 190/50/1
f 109/54/1 15/49/1 110/52/1
f 165/51/1 192/55/1 191/53/1
f 109/54/1 16/56/1 15/49/1
f 164/57/1 192/55/1 165/51/1
f 108/58/1 16/56/1 109/54/1
f 164/57/1 193/59/1 192/55/1
f 164/57/1 194/60/1 193/59/1
f 107/61/1 16/56/1 108/58/1
f 164/57/1 195/62/1 194/60/1
f 164/57/1 196/63/1 195/62/1
f 107/61/1 17/64/1 16/56/1
f 164/57/1 197/65/1 196/63/1
f 163/66/1 197/65/1 164/57/1
f 163/66/1 198/67/1 197/65/1
f 106/68/1 17/64/1 107/61/1
f 163/66/1 199/69/1 198/67/1
f 163/66/1 200/70/1 199/69/1
f 163/66/1 201/71/1 200/70/1
f 163/66/1 202/72/1 201/71/1
f 105/73/1 17/64/1 106/68/1
f 163/66/1 203/74/1 202/72/1
f 163/66/1 204/75/1 203/74/1
f 105/73/1 18/76/1 17/64/1
f 163/66/1 205/77/1 204/75/1
f 162/78/1 205/77/1 163/66/1
f 104/79/1 18/76/1 105/73/1
f 103/80/1 18/76/1 104/79/1
f 103/80/1 19/81/1 18/76/1
f 161/82/1 205/77/1 162/78/1
f 102/83/1 19/81/1 103/80/1
f 101/84/1 19/81/1 102/83/1
f 101/84/1 20/85/1 19/81/1
f 100/86/1 20/85/1 101/84/1
f 160/87/1 205/77/1 161/82/1
f 99/88/1 20/85/1 100/86/1
f 98/89/1 20/85/1 99/88/1
f 98/89/1 21/90/1 20/85/1
f 159/91/1 205/77/1 160/87/1
f 97/92/1 21/90/1 98/89/1
f 159/91/1 121/93/1 205/77/1
f 96/94/1 21/90/1 97/92/1
f 159/91/1 122/95/1 121/93/1
f 96/94/1 22/96/1 21/90/1
f 158/97/1 122/95/1 159/91/1
f 158/97/1 123/98/1 122/95/1
f 95/99/1 22/96/1 96/94/1
f 158/97/1 124/100/1 123/98/1
f 158/97/1 125/101/1 124/100/1
f 158/97/1 126/102/1 125/101/1
f 157/103/1 126/102/1 158/97/1
f 95/99/1 23/104/1 22/96/1
f 157/103/1 127/105/1 126/102/1
f 157/103/1 128/106/1 127/105/1
f 94/107/1 23/104/1 95/99/1
f 157/103/1 129/108/1 128/106/1
f 156/109/1 129/108/1 157/103/1
f 94/107/1 24/110/1 23/104/1
f 156/109/1 130/111/1 129/108/1
f 156/109/1 131/112/1 130/111/1
f 155/113/1 131/112/1 156/109/1
f 155/113/1 132/114/1 131/112/1
f 94/107/1 25/115/1 24/110/1
f 93/116/1 25/115/1 94/107/1
f 155/113/1 133/117/1 132/114/1
f 155/113/1 134/118/1 133/117/1
f 154/119/1 134/118/1 155/113/1
f 92/120/1 25/115/1 93/116/1
f 154/119/1 135/121/1 134/118/1
f 153/122/1 135/121/1 154/119/1
f 153/122/1 136/123/1 135/121/1
f 92/120/1 26/124/1 25/115/1
f 91/125/1 26/124/1 92/120/1
f 152/126/1 136/123/1 153/122/1
f 152/126/1 137/127/1 136/123/1
f 151/128/1 137/127/1 152/126/1
f 90/129/1 26/124/1 91/125/1
f 151/128/1 138/130/1 137/127/1
f 150/131/1 138/130/1 151/128/1
f 150/131/1 139/132/1 138/130/1
f 90/129/1 27/133/1 26/124/1
f 89/134/1 27/133/1 90/129/1
f 149/135/1 139/132/1 150/131/1
f 149/135/1 140/136/1 139/132/1
f 148/137/1 140/136/1 149/135/1
f 148/137/1 141/138/1 140/136/1
f 147/139/1 141/138/1 148/137/1
f 147/139/1 142/140/1 141/138/1
f 88/141/1 27/133/1 89/134/1
f 146/142/1 142/140/1 147/139/1
f 146/142/1 143/143/1 142/140/1
f 145/144/1 143/143/1 146/142/1
f 145/144/1 144/145/1 143/143/1
f 88/141/1 28/146/1 27/133/1
f 87/147/1 28/146/1 88/141/1
f 86/148/1 28/146/1 87/147/1
f 86/148/1 29/149/1 28/146/1
f 85/150/1 29/149/1 86/148/1
f 84/151/1 29/149/1 85/150/1
f 83/152/1 29/149/1 84/151/1
f 83/152/1 30/153/1 29/149/1
f 82/154/1 30/153/1 83/152/1
f 81/155/1 30/153/1 82/154/1
f 80/156/1 30/153/1 81/155/1
f 79/157/1 30/153/1 80/156/1
f 78/158/1 30/153/1 79/157/1
f 77/159/1 30/153/1 78/158/1
f 76/160/1 30/153/1 77/159/1
f 75/161/1 30/153/1 76/160/1
f 75/161/1 31/162/1 30/153/1
f 74/163/1 31/162/1 75/161/1
f 73/164/1 31/162/1 74/163/1
f 72/165/1 31/162/1 73/164/1
f 71/166/1 31/162/1 72/165/1
f 70/167/1 31/162/1 71/166/1
f 69/168/1 31/162/1 70/167/1
f 68/169/1 31/162/1 69/168/1
f 67/170/1 31/162/1 68/169/1
f 66/171/1 31/162/1 67/170/1
f 65/172/1 31/162/1 66/171/1
f 65/172/1 32/173/1 31/162/1
f 64/174/1 32/173/1 65/172/1
f 63/175/1 32/173/1 64/174/1
f 62/176/1 32/173/1 63/175/1
f 61/177/1 32/173/1 62/176/1
f 60/178/1 32/173/1 61/177/1
f 60/178/1 33/179/1 32/173/1
f 59/180/1 33/179/1 60/178/1
f 58/181/1 33/179/1 59/180/1
f 58/181/1 34/182/1 33/179/1
f 57/183/1 34/182/1 58/181/1
f 56/184/1 34/182/1 57/183/1
f 56/184/1 35/185/1 34/182/1
f 55/186/1 35/185/1 56/184/1
f 55/186/1 36/187/1 35/185/1
f 54/188/1 36/187/1 55/186/1
f 53/189/1 36/187/1 54/188/1
f 53/189/1 37/190/1 36/187/1
f 53/189/1 38/191/1 37/190/1
f 52/192/1 38/191/1 53/189/1
f 52/192/1 39/193/1 38/191/1
f 52/192/1 40/194/1 39/193/1
f 51/195/1 40/194/1 52/192/1
f 51/195/1 41/196/1 40/194/1
f 51/195/1 42/197/1 41/196/1
f 50/198/1 42/197/1 51/195/1
f 50/198/1 43/199/1 42/197/1
f 50/198/1 44/200/1 43/199/1
f 49/201/1 44/200/1 50/198/1
f 49/201/1 45/202/1 44/200/1
f 49/201/1 46/203/1 45/202/1
f 48/204/1 46/203/1 49/201/1
f 48/204/1 47/205/1 46/203/1
f 325/1/2 206/3/2 207/2/2
f 384/4/2 385/6/2 386/5/2
f 324/7/2 325/1/2 207/2/2
f 324/7/2 207/2/2 208/8/2
f 324/7/2 208/8/2 209/9/2
f 383/10/2 384/4/2 386/5/2
f 324/7/2 209/9/2 210/11/2
f 383/10/2 386/5/2 387/12/2
f 323/13/2 324/7/2 210/11/2
f 323/13/2 210/11/2 211/14/2
f 382/15/2 383/10/2 387/12/2
f 323/13/2 211/14/2 212/16/2
f 381/17/2 382/15/2 387/12/2
f 381/17/2 387/12/2 388/18/2
f 323/13/2 212/16/2 213/19/2
f 322/20/2 323/13/2 213/19/2
f 380/21/2 381/17/2 388/18/2
f 322/20/2 213/19/2 214/22/2
f 380/21/2 388/18/2 389/23/2
f 379/24/2 380/21/2 389/23/2
f 321/25/2 322/20/2 214/22/2
f 321/25/2 214/22/2 215/26/2
f 378/27/2 379/24/2 389/23/2
f 378/27/2 389/23/2 390/28/2
f 321/25/2 215/26/2 216/29/2
f 377/30/2 378/27/2 390/28/2
f 320/31/2 321/25/2 216/29/2
f 376/32/2 377/30/2 390/28/2
f 320/31/2 216/29/2 217/33/2
f 376/32/2 390/28/2 391/34/2
f 375/35/2 376/32/2 391/34/2
f 320/31/2 217/33/2 218/36/2
f 319/37/2 320/31/2 218/36/2
f 374/38/2 375/35/2 391/34/2
f 374/38/2 391/34/2 392/39/2
f 373/40/2 374/38/2 392/39/2
f 372/41/2 373/40/2 392/39/2
f 318/42/2 319/37/2 218/36/2
f 372/41/2 392/39/2 393/43/2
f 318/42/2 218/36/2 219/44/2
f 317/45/2 318/42/2 219/44/2
f 371/46/2 372/41/2 393/43/2
f 371/46/2 393/43/2 394/47/2
f 316/48/2 317/45/2 219/44/2
f 316/48/2 219/44/2 220/49/2
f 371/46/2 394/47/2 395/50/2
f 370/51/2 371/46/2 395/50/2
f 315/52/2 316/48/2 220/49/2
f 370/51/2 395/50/2 396/53/2
f 314/54/2 315/52/2 220/49/2
f 370/51/2 396/53/2 397/55/2
f 314/54/2 220/49/2 221/56/2
f 369/57/2 370/51/2 397/55/2
f 313/58/2 314/54/2 221/56/2
f 369/57/2 397/55/2 398/59/2
f 369/57/2 398/59/2 399/60/2
f 312/61/2 313/58/2 221/56/2
f 369/57/2 399/60/2 400/62/2
f 369/57/2 400/62/2 401/63/2
f 312/61/2 221/56/2 222/64/2
f 369/57/2 401/63/2 402/65/2
f 368/66/2 369/57/2 402/65/2
f 368/66/2 402/65/2 403/67/2
f 311/68/2 312/61/2 222/64/2
f 368/66/2 403/67/2 404/69/2
f 368/66/2 404/69/2 405/70/2
f 368/66/2 405/70/2 406/71/2
f 368/66/2 406/71/2 407/72/2
f 310/73/2 311/68/2 222/64/2
f 368/66/2 407/72/2 408/74/2
f 368/66/2 408/74/2 409/75/2
f 310/73/2 222/64/2 223/76/2
f 368/66/2 409/75/2 410/77/2
f 367/78/2 368/66/2 410/77/2
f 309/79/2 310/73/2 223/76/2
f 308/80/2 309/79/2 223/76/2
f 308/80/2 223/76/2 224/81/2
f 366/82/2 367/78/2 410/77/2
f 307/83/2 308/80/2 224/81/2
f 306/84/2 307/83/2 224/81/2
f 306/84/2 224/81/2 225/85/2
f 305/86/2 306/84/2 225/85/2
f 365/87/2 366/82/2 410/77/2
f 304/88/2 305/86/2 225/85/2
f 303/89/2 304/88/2 225/85/2
f 303/89/2 225/85/2 226/90/2
f 364/91/2 365/87/2 410/77/2
f 302/92/2 303/89/2 226/90/2
f 364/91/2 410/77/2 326/93/2
f 301/94/2 302/92/2 226/90/2
f 364/91/2 326/93/2 327/95/2
f 301/94/2 226/90/2 227/96/2
f 363/97/2 364/91/2 327/95/2
f 363/97/2 327/95/2 328/98/2
f 300/99/2 301/94/2 227/96/2
f 363/97/2 328/98/2 329/100/2
f 363/97/2 329/100/2 330/101/2
f 363/97/2 330/101/2 331/102/2
f 362/103/2 363/97/2 331/102/2
f 300/99/2 227/96/2 228/104/2
f 362/103/2 331/102/2 332/105/2
f 362/103/2 332/105/2 333/106/2
f 299/107/2 300/99/2 228/104/2
f 362/103/2 333/106/2 334/108/2
f 361/109/2 362/103/2 334/108/2
f 299/107/2 228/104/2 229/110/2
f 361/109/2 334/108/2 335/111/2
f 361/109/2 335/111/2 336/112/2
f 360/113/2 361/109/2 336/112/2
f 360/113/2 336/112/2 337/114/2
f 299/107/2 229/110/2 230/115/2
f 298/116/2 299/107/2 230/115/2
f 360/113/2 337/114/2 338/117/2
f 360/113/2 338/117/2 339/118/2
f 359/119/2 360/113/2 339/118/2
f 297/120/2 298/116/2 230/115/2
f 359/119/2 339/118/2 340/121/2
f 358/122/2 359/119/2 340/121/2
f 358/122/2 340/121/2 341/123/2
f 297/120/2 230/115/2 231/124/2
f 296/125/2 297/120/2 231/124/2
f 357/126/2 358/122/2 341/123/2
f 357/126/2 341/123/2 342/127/2
f 356/128/2 357/126/2 342/127/2
f 295/129/2 296/125/2 231/124/2
f 356/128/2 342/127/2 343/130/2
f 355/131/2 356/128/2 343/130/2
f 355/131/2 343/130/2 344/132/2
f 295/129/2 231/124/2 232/133/2
f 294/134/2 295/129/2 232/133/2
f 354/135/2 355/131/2 344/132/2
f 354/135/2 344/132/2 345/136/2
f 353/137/2 354/135/2 345/136/2
f 353/137/2 345/136/2 346/138/2
f 352/139/2 353/137/2 346/138/2
f 352/139/2 346/138/2 347/140/2
f 293/141/2 294/134/2 232/133/2
f 351/142/2 352/139/2 347/140/2
f 351/142/2 347/140/2 348/143/2
f 350/144/2 351/142/2 348/143/2
f 350/144/2 348/143/2 349/145/2
f 293/141/2 232/133/2 233/146/2
f 292/147/2 293/141/2 233/146/2
f 291/148/2 292/147/2 233/146/2
f 291/148/2 233/146/2 234/149/2
f 290/150/2 291/148/2 234/149/2
f 289/151/2 290/150/2 234/149/2
f 288/152/2 289/151/2 234/149/2
f 288/152/2 234/149/2 235/153/2
f 287/154/2 288/152/2 235/153/2
f 286/155/2 287/154/2 235/153/2
f 285/156/2 286/155/2 235/153/2
f 284/157/2 285/156/2 235/153/2
f 283/158/2 284/157/2 235/153/2
f 282/159/2 283/158/2 235/153/2
f 281/160/2 282/159/2 235/153/2
f 280/161/2 281/160/2 235/153/2
f 280/161/2 235/153/2 236/162/2
f 279/163/2 280/161/2 236/162/2
f 278/164/2 279/163/2 236/162/2
f 277/165/2 278/164/2 236/162/2
f 276/166/2 277/165/2 236/162/2
f 275/167/2 276/166/2 236/162/2
f 274/168/2 275/167/2 236/162/2
f 273/169/2 274/168/2 236/162/2
f 272/170/2 273/169/2 236/162/2
f 271/171/2 272/170/2 236/162/2
f 270/172/2 271/171/2 236/162/2
f 270/172/2 236/162/2 237/173/2
f 269/174/2 270/172/2 237/173/2
f 268/175/2 269/174/2 237/173/2
f 267/176/2 268/175/2 237/173/2
f 266/177/2 267/176/2 237/173/2
f 265/178/2 266/177/2 237/173/2
f 265/178/2 237/173/2 238/179/2
f 264/180/2 265/178/2 238/179/2
f 263/181/2 264/180/2 238/179/2
f 263/181/2 238/179/2 239/182/2
f 262/183/2 263/181/2 239/182/2
f 261/184/2 262/183/2 239/182/2
f 261/184/2 239/182/2 240/185/2
f 260/186/2 261/184/2 240/185/2
f 260/186/2 240/185/2 241/187/2
f 259/188/2 260/186/2 241/187/2
f 258/189/2 259/188/2 241/187/2
f 258/189/2 241/187/2 242/190/2
f 258/189/2 242/190/2 243/191/2
f 257/192/2 258/189/2 243/191/2
f 257/192/2 243/191/2 244/193/2
f 257/192/2 244/193/2 245/194/2
f 256/195/2 257/192/2 245/194/2
f 256/195/2 245/194/2 246/196/2
f 256/195/2 246/196/2 247/197/2
f 255/198/2 256/195/2 247/197/2
f 255/198/2 247/197/2 248/199/2
f 255/198/2 248/199/2 249/200/2
f 254/201/2 255/198/2 249/200/2
f 254/201/2 249/200/2 250/202/2
f 254/201/2 250/202/2 251/203/2
f 253/204/2 254/201/2 251/203/2
f 253/204/2 251/203/2 252/205/2
s 1
f 414/206/3 411/3/4 412/207/4
f 416/208/5 413/209/3 414/206/3
f 418/210/6 415/211/5 416/208/5
f 420/212/7 417/213/6 418/210/6
f 422/214/8 419/215/7 420/212/7
f 424/216/9 421/217/8 422/214/8
f 426/218/10 423/219/9 424/216/9
f 428/220/11 425/221/10 426/218/10
f 430/222/12 427/223/11 428/220/11
f 432/224/13 429/225/12 430/222/12
f 434/226/14 431/76/13 432/224/13
f 436/227/15 433/228/14 434/226/14
f 438/229/16 435/230/15 436/227/15
f 440/231/17 437/232/16 438/229/16
f 442/233/18 439/234/17 440/231/17
f 444/235/19 441/236/18 442/233/18
f 446/237/20 443/238/19 444/235/19
f 448/239/21 445/240/20 446/237/20
f 450/241/22 447/242/21 448/239/21
f 452/243/23 449/244/22 450/241/22
f 454/245/24 451/185/23 452/243/23
f 456/246/25 453/247/24 454/245/24
f 458/248/26 455/249/25 456/246/25
f 460/250/27 457/251/26 458/248/26
f 462/252/28 459/253/27 460/250/27
f 464/254/29 461/255/28 462/252/28
f 466/256/30 463/257/29 464/254/29
f 468/258/31 465/259/30 466/256/30
f 470/260/32 467/261/31 468/258/31
f 472/262/33 469/263/32 470/260/32
f 474/264/34 471/192/33 472/262/33
f 476/265/35 473/266/34 474/264/34
f 478/267/36 475/268/35 476/265/35
f 480/269/37 477/270/36 478/267/36
f 482/271/38 479/272/37 480/269/37
f 484/273/39 481/274/38 482/271/38
f 486/275/40 483/276/39 484/273/39
f 488/277/41 485/278/40 486/275/40
f 490/279/42 487/280/41 488/277/41
f 492/281/43 489/282/42 490/279/42
f 494/283/44 491/168/43 492/281/43
f 496/284/45 493/285/44 494/283/44
f 498/286/46 495/287/45 496/284/45
f 500/288/47 497/289/46 498/286/46
f 502/290/48 499/291/47 500/288/47
f 504/292/49 501/293/48 502/290/48
f 506/294/50 503/295/49 504/292/49
f 508/296/51 505/297/50 506/294/50
f 510/298/52 507/299/51 508/296/51
f 512/300/53 509/301/52 510/298/52
f 514/302/54 511/148/53 512/300/53
f 516/303/55 513/304/54 514/302/54
f 518/305/56 515/306/55 516/303/55
f 520/307/57 517/308/56 518/305/56
f 522/309/58 519/310/57 520/307/57
f 524/311/59 521/312/58 522/309/58
f 526/313/60 523/314/61 524/311/59
f 528/315/62 525/316/60 526/313/60
f 530/317/63 527/318/62 528/315/62
f 532/319/64 529/320/63 530/317/63
f 534/321/65 531/80/64 532/319/64
f 536/322/66 533/323/65 534/321/65
f 538/324/67 535/325/66 536/322/66
f 540/326/68 537/327/67 538/324/67
f 542/328/69 539/329/68 540/326/68
f 544/330/70 541/331/69 542/328/69
f 546/332/71 543/333/70 544/330/70
f 548/334/72 545/335/71 546/332/71
f 550/336/73 547/337/72 548/334/72
f 552/338/74 549/339/73 550/336/73
f 554/340/75 551/1/74 552/338/74
f 556/341/76 553/342/75 554/340/75
f 558/343/77 555/344/76 556/341/76
f 560/345/78 557/346/77 558/343/77
f 562/347/79 559/348/78 560/345/78
f 564/349/80 561/350/79 562/347/79
f 566/351/81 563/352/80 564/349/80
f 568/353/82 565/354/81 566/351/81
f 570/355/83 567/356/82 568/353/82
f 572/357/84 569/358/83 570/355/83
f 574/359/85 571/127/84 572/357/84
f 576/360/86 573/361/85 574/359/85
f 578/362/87 575/363/86 576/360/86
f 580/364/88 577/365/87 578/362/87
f 582/366/89 579/367/88 580/364/88
f 584/368/90 581/369/89 582/366/89
f 586/370/91 583/371/90 584/368/90
f 588/372/92 585/373/91 586/370/91
f 590/374/93 587/375/92 588/372/92
f 592/376/94 589/377/93 590/374/93
f 594/378/95 591/119/94 592/376/94
f 596/379/96 593/380/95 594/378/95
f 598/381/97 595/382/96 596/379/96
f 600/383/98 597/384/97 598/381/97
f 602/385/99 599/386/98 600/383/98
f 604/387/100 601/388/99 602/385/99
f 606/389/101 603/390/100 604/387/100
f 608/391/102 605/392/101 606/389/101
f 610/393/103 607/394/102 608/391/102
f 612/395/104 609/396/103 610/393/103
f 614/397/105 611/32/104 612/395/104
f 616/398/104 613/399/105 614/397/105
f 618/400/103 615/401/104 616/398/104
f 620/402/102 617/403/103 618/400/103
f 622/404/101 619/405/102 620/402/102
f 624/406/100 621/407/101 622/404/101
f 626/408/106 623/409/100 624/406/100
f 628/410/107 625/411/106 626/408/106
f 630/412/108 627/413/107 628/410/107
f 632/414/109 629/415/108 630/412/108
f 634/416/110 631/43/109 632/414/109
f 636/417/111 633/418/110 634/416/110
f 638/419/112 635/420/111 636/417/111
f 640/421/113 637/422/112 638/419/112
f 642/423/114 639/424/113 640/421/113
f 644/425/115 641/426/114 642/423/114
f 646/427/116 643/428/115 644/425/115
f 648/429/117 645/430/116 646/427/116
f 650/431/118 647/432/117 648/429/117
f 412/433/4 649/434/118 650/431/118
f 654/435/119 651/3/120 652/207/120
f 656/436/121 653/437/119 654/435/119
f 658/438/122 655/439/121 656/436/121
f 660/440/123 657/441/122 658/438/122
f 662/442/124 659/443/123 660/440/123
f 664/444/123 661/36/124 662/442/124
f 666/445/122 663/446/123 664/444/123
f 668/447/121 665/448/122 666/445/122
f 670/449/119 667/450/121 668/447/121
f 672/451/120 669/452/119 670/449/119
f 674/453/125 671/115/120 672/451/120
f 676/454/126 673/455/125 674/453/125
f 678/456/127 675/457/126 676/454/126
f 680/458/128 677/459/127 678/456/127
f 682/460/129 679/461/128 680/458/128
f 684/462/130 681/190/129 682/460/129
f 686/250/131 683/463/130 684/462/130
f 688/464/132 685/253/131 686/250/131
f 690/465/133 687/466/132 688/464/132
f 692/467/134 689/468/133 690/465/133
f 694/469/135 691/201/134 692/467/134
f 696/470/136 693/471/135 694/469/135
f 698/472/137 695/473/136 696/470/136
f 700/474/138 697/475/137 698/472/137
f 702/476/139 699/477/138 700/474/138
f 704/478/140 701/177/139 702/476/139
f 706/479/141 703/480/140 704/478/140
f 708/481/142 705/482/141 706/479/141
f 710/483/143 707/484/142 708/481/142
f 712/485/144 709/486/143 710/483/143
f 714/487/145 711/164/144 712/485/144
f 716/488/146 713/489/145 714/487/145
f 718/490/147 715/491/146 716/488/146
f 720/296/148 717/492/147 718/490/147
f 722/493/149 719/299/148 720/296/148
f 724/494/150 721/150/149 722/493/149
f 726/495/107 723/496/150 724/494/150
f 728/497/151 725/498/107 726/495/107
f 730/499/152 727/500/151 728/497/151
f 732/501/153 729/502/152 730/499/152
f 734/503/154 731/92/153 732/501/153
f 736/504/155 733/505/154 734/503/154
f 738/506/156 735/507/155 736/504/155
f 740/508/157 737/509/156 738/506/156
f 742/510/158 739/511/157 740/508/157
f 744/512/159 741/54/158 742/510/158
f 746/513/160 743/514/159 744/512/159
f 748/515/161 745/516/160 746/513/160
f 750/517/162 747/518/161 748/515/161
f 752/519/163 749/520/162 750/517/162
f 754/341/164 751/93/163 752/519/163
f 756/521/165 753/344/164 754/341/164
f 758/522/166 755/523/165 756/521/165
f 760/524/167 757/525/166 758/522/166
f 762/526/168 759/527/167 760/524/167
f 764/528/169 761/117/168 762/526/168
f 766/529/170 763/530/169 764/528/169
f 768/531/171 765/532/170 766/529/170
f 770/533/172 767/534/171 768/531/171
f 772/535/173 769/536/172 770/533/172
f 774/537/174 771/144/173 772/535/173
f 776/538/175 773/539/174 774/537/174
f 778/540/176 775/541/177 776/538/175
f 780/542/178 777/543/176 778/540/176
f 782/544/179 779/545/178 780/542/178
f 784/546/180 781/103/179 782/544/179
f 786/547/181 783/548/180 784/546/180
f 788/387/182 785/549/181 786/547/181
f 790/550/183 787/390/182 788/387/182
f 792/551/184 789/552/183 790/550/183
f 794/553/185 791/38/184 792/551/184
f 796/554/186 793/555/185 794/553/185
f 798/556/187 795/557/186 796/554/186
f 800/558/188 797/559/187 798/556/187
f 802/560/189 799/561/188 800/558/188
f 804/562/190 801/5/189 802/560/189
f 806/563/191 803/564/190 804/562/190
f 808/565/192 805/566/191 806/563/191
f 810/567/193 807/568/192 808/565/192
f 812/569/194 809/570/193 810/567/193
f 814/571/195 811/59/194 812/569/194
f 816/572/196 813/573/195 814/571/195
f 818/574/197 815/575/196 816/572/196
f 820/576/198 817/577/197 818/574/197
f 652/433/120 819/578/198 820/576/198
f 414/206/3 413/209/3 411/3/4
f 416/208/5 415/211/5 413/209/3
f 418/210/6 417/213/6 415/211/5
f 420/212/7 419/215/7 417/213/6
f 422/214/8 421/217/8 419/215/7
f 424/216/9 423/219/9 421/217/8
f 426/218/10 425/221/10 423/219/9
f 428/220/11 427/223/11 425/221/10
f 430/222/12 429/225/12 427/223/11
f 432/224/13 431/76/13 429/225/12
f 434/226/14 433/228/14 431/76/13
f 436/227/15 435/230/15 433/228/14
f 438/229/16 437/232/16 435/230/15
f 440/231/17 439/234/17 437/232/16
f 442/233/18 441/236/18 439/234/17
f 444/235/19 443/238/19 441/236/18
f 446/237/20 445/240/20 443/238/19
f 448/239/21 447/242/21 445/240/20
f 450/241/22 449/244/22 447/242/21
f 452/243/23 451/185/23 449/244/22
f 454/245/24 453/247/24 451/185/23
f 456/246/25 455/249/25 453/247/24
f 458/248/26 457/251/26 455/249/25
f 460/250/27 459/253/27 457/251/26
f 462/252/28 461/255/28 459/253/27
f 464/254/29 463/257/29 461/255/28
f 466/256/30 465/259/30 463/257/29
f 468/258/31 467/261/31 465/259/30
f 470/260/32 469/263/32 467/261/31
f 472/262/33 471/192/33 469/263/32
f 474/264/34 473/266/34 471/192/33
f 476/265/35 475/268/35 473/266/34
f 478/267/36 477/270/36 475/268/35
f 480/269/37 479/272/37 477/270/36
f 482/271/38 481/274/38 479/272/37
f 484/273/39 483/276/39 481/274/38
f 486/275/40 485/278/40 483/276/39
f 488/277/41 487/280/41 485/278/40
f 490/279/42 489/282/42 487/280/41
f 492/281/43 491/168/43 489/282/42
f 494/283/44 493/285/44 491/168/43
f 496/284/45 495/287/45 493/285/44
f 498/286/46 497/289/46 495/287/45
f 500/288/47 499/291/47 497/289/46
f 502/290/48 501/293/48 499/291/47
f 504/292/49 503/295/49 501/293/48
f 506/294/50 505/297/50 503/295/49
f 508/296/51 507/299/51 505/297/50
f 510/298/52 509/301/52 507/299/51
f 512/300/53 511/148/53 509/301/52
f 514/302/54 513/304/54 511/148/53
f 516/303/55 515/306/55 513/304/54
f 518/305/56 517/308/56 515/306/55
f 520/307/57 519/310/57 517/308/56
f 522/309/58 521/312/58 519/310/57
f 524/311/59 523/314/61 521/312/58
f 526/313/60 525/316/60 523/314/61
f 528/315/62 527/318/62 525/316/60
f 530/317/63 529/320/63 527/318/62
f 532/319/64 531/80/64 529/320/63
f 534/321/65 533/323/65 531/80/64
f 536/322/66 535/325/66 533/323/65
f 538/324/67 537/327/67 535/325/66
f 540/326/68 539/329/68 537/327/67
f 542/328/69 541/331/69 539/329/68
f 544/330/70 543/333/70 541/331/69
f 546/332/71 545/335/71 543/333/70
f 548/334/72 547/337/72 545/335/71
f 550/336/73 549/339/73 547/337/72
f 552/338/74 551/1/74 549/339/73
f 554/340/75 553/342/75 551/1/74
f 556/341/76 555/344/76 553/342/75
f 558/343/77 557/346/77 555/344/76
f 560/345/78 559/348/78 557/346/77
f 562/347/79 561/350/79 559/348/78
f 564/349/80 563/352/80 561/350/79
f 566/351/81 565/354/81 563/352/80
f 568/353/82 567/356/82 565/354/81
f 570/355/83 569/358/83 567/356/82
f 572/357/84 571/127/84 569/358/83
f 574/359/85 573/361/85 571/127/84
f 576/360/86 575/363/86 573/361/85
f 578/362/87 577/365/87 575/363/86
f 580/364/88 579/367/88 577/365/87
f 582/366/89 581/369/89 579/367/88
f 584/368/90 583/371/90 581/369/89
f 586/370/91 585/373/91 583/371/90
f 588/372/92 587/375/92 585/373/91
f 590/374/93 589/377/93 587/375/92
f 592/376/94 591/119/94 589/377/93
f 594/378/95 593/380/95 591/119/94
f 596/379/96 595/382/96 593/380/95
f 598/381/97 597/384/97 595/382/96
f 600/383/98 599/386/98 597/384/97
f 602/385/99 601/388/99 599/386/98
f 604/387/100 603/390/100 601/388/99
f 606/389/101 605/392/101 603/390/100
f 608/391/102 607/394/102 605/392/101
f 610/393/103 609/396/103 607/394/102
f 612/395/104 611/32/104 609/396/103
f 614/397/105 613/399/105 611/32/104
f 616/398/104 615/401/104 613/399/105
f 618/400/103 617/403/103 615/401/104
f 620/402/102 619/405/102 617/403/103
f 622/404/101 621/407/101 619/405/102
f 624/406/100 623/409/100 621/407/101
f 626/408/106 625/411/106 623/409/100
f 628/410/107 627/413/107 625/411/106
f 630/412/108 629/415/108 627/413/107
f 632/414/109 631/43/109 629/415/108
f 634/416/110 633/418/110 631/43/109
f 636/417/111 635/420/111 633/418/110
f 638/419/112 637/422/112 635/420/111
f 640/421/113 639/424/113 637/422/112
f 642/423/114 641/426/114 639/424/113
f 644/425/115 643/428/115 641/426/114
f 646/427/116 645/430/116 643/428/115
f 648/429/117 647/432/117 645/430/116
f 650/431/118 649/434/118 647/432/117
f 412/433/4 411/77/4 649/434/118
f 654/435/119 653/437/119 651/3/120
f 656/436/121 655/439/121 653/437/119
f 658/438/122 657/441/122 655/439/121
f 660/440/123 659/443/123 657/441/122
f 662/442/124 661/36/124 659/443/123
f 664/444/123 663/446/123 661/36/124
f 666/445/122 665/448/122 663/446/123
f 668/447/121 667/450/121 665/448/122
f 670/449/119 669/452/119 667/450/121
f 672/451/120 671/115/120 669/452/119
f 674/453/125 673/455/125 671/115/120
f 676/454/126 675/457/126 673/455/125
f 678/456/127 677/459/127 675/457/126
f 680/458/128 679/461/128 677/459/127
f 682/460/129 681/190/129 679/461/128
f 684/462/130 683/463/130 681/190/129
f 686/250/131 685/253/131 683/463/130
f 688/464/132 687/466/132 685/253/131
f 690/465/133 689/468/133 687/466/132
f 692/467/134 691/201/134 689/468/133
f 694/469/135 693/471/135 691/201/134
f 696/470/136 695/473/136 693/471/135
f 698/472/137 697/475/137 695/473/136
f 700/474/138 699/477/138 697/475/137
f 702/476/139 701/177/139 699/477/138
f 704/478/140 703/480/140 701/177/139
f 706/479/141 705/482/141 703/480/140
f 708/481/142 707/484/142 705/482/141
f 710/483/143 709/486/143 707/484/142
f 712/485/144 711/164/144 709/486/143
f 714/487/145 713/489/145 711/164/144
f 716/488/146 715/491/146 713/489/145
f 718/490/147 717/492/147 715/491/146
f 720/296/148 719/299/148 717/492/147
f 722/493/149 721/150/149 719/299/148
f 724/494/150 723/496/150 721/150/149
f 726/495/107 725/498/107 723/496/150
f 728/497/151 727/500/151 725/498/107
f 730/499/152 729/502/152 727/500/151
f 732/501/153 731/92/153 729/502/152
f 734/503/154 733/505/154 731/92/153
f 736/504/155 735/507/155 733/505/154
f 738/506/156 737/509/156 735/507/155
f 740/508/157 739/511/157 737/509/156
f 742/510/158 741/54/158 739/511/157
f 744/512/159 743/514/159 741/54/158
f 746/513/160 745/516/160 743/514/159
f 748/515/161 747/518/161 745/516/160
f 750/517/162 749/520/162 747/518/161
f 752/519/163 751/93/163 749/520/162
f 754/341/164 753/344/164 751/93/163
f 756/521/165 755/523/165 753/344/164
f 758/522/166 757/525/166 755/523/165
f 760/524/167 759/527/167 757/525/166
f 762/526/168 761/117/168 759/527/167
f 764/528/169 763/530/169 761/117/168
f 766/529/170 765/532/170 763/530/169
f 768/531/171 767/534/171 765/532/170
f 770/533/172 769/536/172 767/534/171
f 772/535/173 771/144/173 769/536/172
f 774/537/174 773/539/174 771/144/173
f 776/538/175 775/541/177 773/539/174
f 778/540/176 777/543/176 775/541/177
f 780/542/178 779/545/178 777/543/176
f 782/544/179 781/103/179 779/545/178
f 784/546/180 783/548/180 781/103/179
f 786/547/181 785/549/181 783/548/180
f 788/387/182 787/390/182 785/549/181
f 790/550/183 789/552/183 787/390/182
f 792/551/184 791/38/184 789/552/183
f 794/553/185 793/555/185 791/38/184
f 796/554/186 795/557/186 793/555/185
f 798/556/187 797/559/187 795/557/186
f 800/558/188 799/561/188 797/559/187
f 802/560/189 801/5/189 799/561/188
f 804/562/190 803/564/190 801/5/189
f 806/563/191 805/566/191 803/564/190
f 808/565/192 807/568/192 805/566/191
f 810/567/193 809/570/193 807/568/192
f 812/569/194 811/59/194 809/570/193
f 814/571/195 813/573/195 811/59/194
f 816/572/196 815/575/196 813/573/195
f 818/574/197 817/577/197 815/575/196
f 820/576/198 819/578/198 817/577/197
f 652/433/120 651/77/120 819/578/198
