# Blender 4.4.0
# www.blender.org
mtllib skydome.mtl
o 球
v 0.000000 8314.696289 -5555.702637
v 0.000000 5555.702637 -8314.696289
v 0.000000 1950.903198 -9807.852539
v 0.000000 0.000000 -10000.000000
v 0.000000 -1950.903198 -9807.852539
v 0.000000 -5555.702637 -8314.696289
v -380.602325 9807.852539 -1913.417114
v -746.578430 9238.794922 -3753.302979
v -1083.863770 8314.696289 -5448.951172
v -1379.496948 7071.067871 -6935.198730
v -1622.116699 5555.702637 -8154.931152
v -1802.399414 3826.834473 -9061.274414
v -1913.417114 1950.903198 -9619.396484
v -1950.903198 0.000000 -9807.852539
v -1913.417114 -1950.903198 -9619.396484
v -1802.399414 -3826.834473 -9061.274414
v -1622.116699 -5555.702637 -8154.931152
v -1379.496948 -7071.067871 -6935.198730
v -1083.863770 -8314.696289 -5448.951172
v -746.578430 -9238.794922 -3753.302979
v -380.602325 -9807.852539 -1913.417114
v -746.578247 9807.852539 -1802.399414
v -1464.466187 9238.794922 -3535.534180
v -2126.075439 8314.696289 -5132.799316
v -2705.980469 7071.067871 -6532.814453
v -3181.896240 5555.702637 -7681.776367
v -3535.533447 3826.834473 -8535.533203
v -3753.302734 1950.903198 -9061.274414
v -3826.834229 0.000000 -9238.794922
v -3753.302734 -1950.903198 -9061.274414
v -3535.533447 -3826.834473 -8535.533203
v -3181.896240 -5555.702637 -7681.776367
v -2705.980469 -7071.067871 -6532.814453
v -2126.075439 -8314.696289 -5132.799316
v -1464.466187 -9238.794922 -3535.534180
v -746.578247 -9807.852539 -1802.399414
v -1083.863647 9807.852539 -1622.116577
v -2126.075439 9238.794922 -3181.896484
v -3086.582764 8314.696289 -4619.396973
v -3928.474854 7071.067871 -5879.377930
v -4619.396973 5555.702637 -6913.416016
v -5132.799316 3826.834473 -7681.776855
v -5448.951172 1950.903198 -8154.931152
v -5555.702637 0.000000 -8314.694336
v -5448.951172 -1950.903198 -8154.931152
v -5132.799316 -3826.834473 -7681.776855
v -4619.396973 -5555.702637 -6913.416016
v -3928.474854 -7071.067871 -5879.377930
v -3086.582764 -8314.696289 -4619.396973
v -2126.075439 -9238.794922 -3181.896484
v -1083.863647 -9807.852539 -1622.116577
v -1379.496704 9807.852539 -1379.496582
v -2705.980469 9238.794922 -2705.980225
v -3928.474365 8314.696289 -3928.473877
v -5000.000000 7071.067871 -5000.000000
v -5879.376953 5555.702637 -5879.376465
v -6532.813965 3826.834473 -6532.814453
v -6935.198730 1950.903198 -6935.198242
v -7071.067871 0.000000 -7071.065918
v -6935.198730 -1950.903198 -6935.198242
v -6532.813965 -3826.834473 -6532.814453
v -5879.376953 -5555.702637 -5879.376465
v -5000.000000 -7071.067871 -5000.000000
v -3928.474365 -8314.696289 -3928.473877
v -2705.980469 -9238.794922 -2705.980225
v -1379.496704 -9807.852539 -1379.496582
v -1622.116577 9807.852539 -1083.863525
v -3181.896484 9238.794922 -2126.074951
v -4619.397461 8314.696289 -3086.582031
v -5879.377930 7071.067871 -3928.474854
v -6913.416504 5555.702637 -4619.396484
v -7681.776367 3826.834473 -5132.799805
v -8154.931152 1950.903198 -5448.949707
v -8314.695312 0.000000 -5555.700195
v -8154.931152 -1950.903198 -5448.949707
v -7681.776367 -3826.834473 -5132.799805
v -6913.416504 -5555.702637 -4619.396484
v -5879.377930 -7071.067871 -3928.474854
v -4619.397461 -8314.696289 -3086.582031
v -3181.896484 -9238.794922 -2126.074951
v -1622.116577 -9807.852539 -1083.863525
v 0.000000 10000.000000 0.000000
v -1802.399170 9807.852539 -746.578125
v -3535.533447 9238.794922 -1464.465820
v -5132.799316 8314.696289 -2126.074463
v -6532.814453 7071.067871 -2705.980469
v -7681.776367 5555.702637 -3181.895020
v -8535.533203 3826.834473 -3535.534180
v -9061.273438 1950.903198 -3753.301514
v -9238.793945 0.000000 -3826.832275
v -9061.273438 -1950.903198 -3753.301514
v -8535.533203 -3826.834473 -3535.534180
v -7681.776367 -5555.702637 -3181.895020
v -6532.814453 -7071.067871 -2705.980469
v -5132.799316 -8314.696289 -2126.074463
v -3535.533447 -9238.794922 -1464.465820
v -1802.399170 -9807.852539 -746.578125
v -1913.416626 9807.852539 -380.602142
v -3753.302490 9238.794922 -746.578125
v -5448.950684 8314.696289 -1083.863159
v -6935.198730 7071.067871 -1379.497070
v -8154.929688 5555.702637 -1622.115723
v -9061.273438 3826.834473 -1802.399902
v -9619.396484 1950.903198 -1913.416138
v -9807.850586 0.000000 -1950.901245
v -9619.396484 -1950.903198 -1913.416138
v -9061.273438 -3826.834473 -1802.399902
v -8154.929688 -5555.702637 -1622.115723
v -6935.198730 -7071.067871 -1379.497070
v -5448.950684 -8314.696289 -1083.863159
v -3753.302490 -9238.794922 -746.578125
v -1913.416626 -9807.852539 -380.602142
v -1950.902588 9807.852539 0.000112
v -3826.833984 9238.794922 0.000224
v -5555.701172 8314.696289 0.000522
v -7071.066895 7071.067871 -0.000149
v -8314.694336 5555.702637 0.000894
v -9238.794922 3826.834473 -0.000447
v -9807.851562 1950.903198 0.000894
v -9999.997070 0.000000 0.001639
v -9807.851562 -1950.903198 0.000894
v -9238.794922 -3826.834473 -0.000447
v -8314.694336 -5555.702637 0.000894
v -7071.066895 -7071.067871 -0.000149
v -5555.701172 -8314.696289 0.000522
v -3826.833984 -9238.794922 0.000224
v -1950.902588 -9807.852539 0.000112
v -1913.416504 9807.852539 380.602325
v -3753.302490 9238.794922 746.578491
v -5448.949707 8314.696289 1083.864014
v -6935.198242 7071.067871 1379.496582
v -8154.929199 5555.702637 1622.117310
v -9061.273438 3826.834473 1802.399048
v -9619.395508 1950.903198 1913.417725
v -9807.848633 0.000000 1950.904297
v -9619.395508 -1950.903198 1913.417725
v -9061.273438 -3826.834473 1802.399048
v -8154.929199 -5555.702637 1622.117310
v -6935.198242 -7071.067871 1379.496582
v -5448.949707 -8314.696289 1083.864014
v -3753.302490 -9238.794922 746.578491
v -1913.416504 -9807.852539 380.602325
v -1802.398804 9807.852539 746.578186
v -3535.533447 9238.794922 1464.466187
v -5132.797852 8314.696289 2126.075439
v -6532.813965 7071.067871 2705.979980
v -7681.774902 5555.702637 3181.896484
v -8535.533203 3826.834473 3535.532959
v -9061.272461 1950.903198 3753.302979
v -9238.791016 0.000000 3826.834473
v -9061.272461 -1950.903198 3753.302979
v -8535.533203 -3826.834473 3535.532959
v -7681.774902 -5555.702637 3181.896484
v -6532.813965 -7071.067871 2705.979980
v -5132.797852 -8314.696289 2126.075439
v -3535.533447 -9238.794922 1464.466187
v -1802.398804 -9807.852539 746.578186
v -1622.115967 9807.852539 1083.863403
v -3181.895996 9238.794922 2126.075195
v -4619.395508 8314.696289 3086.582520
v -5879.376953 7071.067871 3928.474121
v -6913.414551 5555.702637 4619.396973
v -7681.776367 3826.834473 5132.798340
v -8154.929199 1950.903198 5448.950684
v -8314.691406 0.000000 5555.701660
v -8154.929199 -1950.903198 5448.950684
v -7681.776367 -3826.834473 5132.798340
v -6913.414551 -5555.702637 4619.396973
v -5879.376953 -7071.067871 3928.474121
v -4619.395508 -8314.696289 3086.582520
v -3181.895996 -9238.794922 2126.075195
v -1622.115967 -9807.852539 1083.863403
v -1379.496216 9807.852539 1379.496338
v -2705.979736 9238.794922 2705.980225
v -3928.472656 8314.696289 3928.474121
v -4999.999512 7071.067871 4999.999512
v -5879.375488 5555.702637 5879.376465
v -6532.813965 3826.834473 6532.813477
v -6935.197266 1950.903198 6935.198242
v -7071.062500 0.000000 7071.066406
v -6935.197266 -1950.903198 6935.198242
v -6532.813965 -3826.834473 6532.813477
v -5879.375488 -5555.702637 5879.376465
v -4999.999512 -7071.067871 4999.999512
v -3928.472656 -8314.696289 3928.474121
v -2705.979736 -9238.794922 2705.980225
v -1379.496216 -9807.852539 1379.496338
v -1083.863159 9807.852539 1622.115967
v -2126.074463 9238.794922 3181.896240
v -3086.580811 8314.696289 4619.396484
v -3928.474121 7071.067871 5879.376953
v -4619.395508 5555.702637 6913.415039
v -5132.799316 3826.834473 7681.775879
v -5448.948730 1950.903198 8154.929688
v -5555.697266 0.000000 8314.693359
v -5448.948730 -1950.903198 8154.929688
v -5132.799316 -3826.834473 7681.775879
v -4619.395508 -5555.702637 6913.415039
v -3928.474121 -7071.067871 5879.376953
v -3086.580811 -8314.696289 4619.396484
v -2126.074463 -9238.794922 3181.896240
v -1083.863159 -9807.852539 1622.115967
v -746.577820 9807.852539 1802.398560
v -1464.465210 9238.794922 3535.533203
v -2126.073486 8314.696289 5132.797852
v -2705.979980 7071.067871 6532.813965
v -3181.894531 5555.702637 7681.774902
v -3535.533447 3826.834473 8535.532227
v -3753.300293 1950.903198 9061.272461
v -3826.829590 0.000000 9238.791016
v -3753.300293 -1950.903198 9061.272461
v -3535.533447 -3826.834473 8535.532227
v -3181.894531 -5555.702637 7681.774902
v -2705.979980 -7071.067871 6532.813965
v -2126.073486 -8314.696289 5132.797852
v -1464.465210 -9238.794922 3535.533203
v -746.577820 -9807.852539 1802.398560
v -380.602020 9807.852539 1913.415894
v -746.577576 9238.794922 3753.301758
v -1083.862305 8314.696289 5448.948730
v -1379.496582 7071.067871 6935.198242
v -1622.115234 5555.702637 8154.928711
v -1802.399414 3826.834473 9061.272461
v -1913.415161 1950.903198 9619.394531
v -1950.899048 0.000000 9807.847656
v -1913.415161 -1950.903198 9619.394531
v -1802.399414 -3826.834473 9061.272461
v -1622.115234 -5555.702637 8154.928711
v -1379.496582 -7071.067871 6935.198242
v -1083.862305 -8314.696289 5448.948730
v -746.577576 -9238.794922 3753.301758
v -380.602020 -9807.852539 1913.415894
v 0.000075 9807.852539 1950.901855
v 0.000522 9238.794922 3826.833252
v 0.000969 8314.696289 5555.699707
v 0.000149 7071.067871 7071.066406
v 0.001043 5555.702637 8314.693359
v -0.000298 3826.834473 9238.792969
v 0.001341 1950.903198 9807.849609
v 0.003278 0.000000 9999.993164
v 0.001341 -1950.903198 9807.849609
v -0.000298 -3826.834473 9238.792969
v 0.001043 -5555.702637 8314.693359
v 0.000149 -7071.067871 7071.066406
v 0.000969 -8314.696289 5555.699707
v 0.000522 -9238.794922 3826.833252
v 0.000075 -9807.852539 1950.901855
v 380.602142 9807.852539 1913.415771
v 746.578674 9238.794922 3753.301758
v 1083.864258 8314.696289 5448.948242
v 1379.496704 7071.067871 6935.197754
v 1622.117188 5555.702637 8154.928223
v 1802.398682 3826.834473 9061.271484
v 1913.417847 1950.903198 9619.393555
v 1950.905151 0.000000 9807.845703
v 1913.417847 -1950.903198 9619.393555
v 1802.398682 -3826.834473 9061.271484
v 1622.117188 -5555.702637 8154.928223
v 1379.496704 -7071.067871 6935.197754
v 1083.864258 -8314.696289 5448.948242
v 746.578674 -9238.794922 3753.301758
v 380.602142 -9807.852539 1913.415771
v 746.577820 9807.852539 1802.398315
v 1464.466187 9238.794922 3535.532959
v 2126.074951 8314.696289 5132.796387
v 2705.979980 7071.067871 6532.813477
v 3181.896240 5555.702637 7681.773926
v 3535.532471 3826.834473 8535.531250
v 3753.302734 1950.903198 9061.270508
v 3826.834961 0.000000 9238.787109
v 3753.302734 -1950.903198 9061.270508
v 3535.532471 -3826.834473 8535.531250
v 3181.896240 -5555.702637 7681.773926
v 2705.979980 -7071.067871 6532.813477
v 2126.074951 -8314.696289 5132.796387
v 1464.466187 -9238.794922 3535.532959
v 746.577820 -9807.852539 1802.398315
v 1083.863037 9807.852539 1622.115479
v 2126.074951 9238.794922 3181.895264
v 3086.581787 8314.696289 4619.394043
v 3928.474121 7071.067871 5879.376465
v 4619.396484 5555.702637 6913.413574
v 5132.797363 3826.834473 7681.774902
v 5448.950684 1950.903198 8154.927734
v 5555.701172 0.000000 8314.687500
v 5448.950684 -1950.903198 8154.927734
v 5132.797363 -3826.834473 7681.774902
v 4619.396484 -5555.702637 6913.413574
v 3928.474121 -7071.067871 5879.376465
v 3086.581787 -8314.696289 4619.394043
v 2126.074951 -9238.794922 3181.895264
v 1083.863037 -9807.852539 1622.115479
v 1379.495850 9807.852539 1379.495728
v 2705.979980 9238.794922 2705.979248
v 3928.472900 8314.696289 3928.471191
v 4999.999023 7071.067871 4999.999023
v 5879.375977 5555.702637 5879.374023
v 6532.812012 3826.834473 6532.812500
v 6935.197754 1950.903198 6935.195312
v 7071.064941 0.000000 7071.059570
v 6935.197754 -1950.903198 6935.195312
v 6532.812012 -3826.834473 6532.812500
v 5879.375977 -5555.702637 5879.374023
v 4999.999023 -7071.067871 4999.999023
v 3928.472900 -8314.696289 3928.471191
v 2705.979980 -9238.794922 2705.979248
v 1379.495850 -9807.852539 1379.495728
v 0.000000 -10000.000000 0.000000
v 1622.115479 9807.852539 1083.862793
v 3181.895508 9238.794922 2126.074219
v 4619.395020 8314.696289 3086.579346
v 5879.376465 7071.067871 3928.473633
v 6913.414551 5555.702637 4619.394043
v 7681.774414 3826.834473 5132.797852
v 8154.929199 1950.903198 5448.946777
v 8314.691406 0.000000 5555.694336
v 8154.929199 -1950.903198 5448.946777
v 7681.774414 -3826.834473 5132.797852
v 6913.414551 -5555.702637 4619.394043
v 5879.376465 -7071.067871 3928.473633
v 4619.395020 -8314.696289 3086.579346
v 3181.895508 -9238.794922 2126.074219
v 1622.115479 -9807.852539 1083.862793
v 1802.398071 9807.852539 746.577515
v 3535.532715 9238.794922 1464.465088
v 5132.796387 8314.696289 2126.072266
v 6532.813477 7071.067871 2705.979736
v 7681.773926 5555.702637 3181.893311
v 8535.530273 3826.834473 3535.532715
v 9061.271484 1950.903198 3753.298828
v 9238.788086 0.000000 3826.826904
v 9061.271484 -1950.903198 3753.298828
v 8535.530273 -3826.834473 3535.532715
v 7681.773926 -5555.702637 3181.893311
v 6532.813477 -7071.067871 2705.979736
v 5132.796387 -8314.696289 2126.072266
v 3535.532715 -9238.794922 1464.465088
v 1802.398071 -9807.852539 746.577515
v 1913.415527 9807.852539 380.601807
v 3753.301270 9238.794922 746.577515
v 5448.946777 8314.696289 1083.861572
v 6935.197754 7071.067871 1379.496338
v 8154.927734 5555.702637 1622.114380
v 9061.270508 3826.834473 1802.398804
v 9619.393555 1950.903198 1913.413818
v 9807.843750 0.000000 1950.896973
v 9619.393555 -1950.903198 1913.413818
v 9061.270508 -3826.834473 1802.398804
v 8154.927734 -5555.702637 1622.114380
v 6935.197754 -7071.067871 1379.496338
v 5448.946777 -8314.696289 1083.861572
v 3753.301270 -9238.794922 746.577515
v 1913.415527 -9807.852539 380.601807
v 1950.901489 9807.852539 -0.000186
v 3826.832520 9238.794922 -0.000522
v 5555.697754 8314.696289 -0.001490
v 7071.065918 7071.067871 -0.000298
v 8314.691406 5555.702637 -0.001639
v 9238.791016 3826.834473 -0.000149
v 9807.848633 1950.903198 -0.002682
v 9999.990234 0.000000 -0.004470
v 9807.848633 -1950.903198 -0.002682
v 9238.791016 -3826.834473 -0.000149
v 8314.691406 -5555.702637 -0.001639
v 7071.065918 -7071.067871 -0.000298
v 5555.697754 -8314.696289 -0.001490
v 3826.832520 -9238.794922 -0.000522
v 1950.901489 -9807.852539 -0.000186
v 1913.415283 9807.852539 -380.602173
v 3753.301025 9238.794922 -746.578491
v 5448.946289 8314.696289 -1083.864380
v 6935.197266 7071.067871 -1379.496948
v 8154.926270 5555.702637 -1622.117554
v 9061.270508 3826.834473 -1802.399048
v 9619.392578 1950.903198 -1913.418945
v 9807.842773 0.000000 -1950.905762
v 9619.392578 -1950.903198 -1913.418945
v 9061.270508 -3826.834473 -1802.399048
v 8154.926270 -5555.702637 -1622.117554
v 6935.197266 -7071.067871 -1379.496948
v 5448.946289 -8314.696289 -1083.864380
v 3753.301025 -9238.794922 -746.578491
v 1913.415283 -9807.852539 -380.602173
v 1802.397827 9807.852539 -746.577820
v 3535.531982 9238.794922 -1464.465820
v 5132.794434 8314.696289 -2126.074951
v 6532.812500 7071.067871 -2705.979980
v 7681.771973 5555.702637 -3181.896240
v 8535.530273 3826.834473 -3535.532471
v 9061.268555 1950.903198 -3753.303223
v 9238.784180 0.000000 -3826.834961
v 9061.268555 -1950.903198 -3753.303223
v 8535.530273 -3826.834473 -3535.532471
v 7681.771973 -5555.702637 -3181.896240
v 6532.812500 -7071.067871 -2705.979980
v 5132.794434 -8314.696289 -2126.074951
v 3535.531982 -9238.794922 -1464.465820
v 1802.397827 -9807.852539 -746.577820
v 1622.115112 9807.852539 -1083.862915
v 3181.894531 9238.794922 -2126.074463
v 4619.392090 8314.696289 -3086.581543
v 5879.375977 7071.067871 -3928.473877
v 6913.411621 5555.702637 -4619.396484
v 7681.773926 3826.834473 -5132.797363
v 8154.925781 1950.903198 -5448.950684
v 8314.684570 0.000000 -5555.700684
v 8154.925781 -1950.903198 -5448.950684
v 7681.773926 -3826.834473 -5132.797363
v 6913.411621 -5555.702637 -4619.396484
v 5879.375977 -7071.067871 -3928.473877
v 4619.392090 -8314.696289 -3086.581543
v 3181.894531 -9238.794922 -2126.074463
v 1622.115112 -9807.852539 -1083.862915
v 1379.495361 9807.852539 -1379.495728
v 2705.978760 9238.794922 -2705.979248
v 3928.469482 8314.696289 -3928.472412
v 4999.998047 7071.067871 -4999.999023
v 5879.372559 5555.702637 -5879.375488
v 6532.811523 3826.834473 -6532.811523
v 6935.193359 1950.903198 -6935.197266
v 7071.057129 0.000000 -7071.063477
v 6935.193359 -1950.903198 -6935.197266
v 6532.811523 -3826.834473 -6532.811523
v 5879.372559 -5555.702637 -5879.375488
v 4999.998047 -7071.067871 -4999.999023
v 3928.469482 -8314.696289 -3928.472412
v 2705.978760 -9238.794922 -2705.979248
v 1379.495361 -9807.852539 -1379.495728
v 1083.862427 9807.852539 -1622.115234
v 2126.073730 9238.794922 -3181.895020
v 3086.577881 8314.696289 -4619.394043
v 3928.472900 7071.067871 -5879.376465
v 4619.392578 5555.702637 -6913.413574
v 5132.796875 3826.834473 -7681.773926
v 5448.945801 1950.903198 -8154.928223
v 5555.692383 0.000000 -8314.689453
v 5448.945801 -1950.903198 -8154.928223
v 5132.796875 -3826.834473 -7681.773926
v 4619.392578 -5555.702637 -6913.413574
v 3928.472900 -7071.067871 -5879.376465
v 3086.577881 -8314.696289 -4619.394043
v 2126.073730 -9238.794922 -3181.895020
v 1083.862427 -9807.852539 -1622.115234
v 746.577393 9807.852539 -1802.397705
v 1464.464844 9238.794922 -3535.532471
v 2126.071045 8314.696289 -5132.794922
v 2705.979004 7071.067871 -6532.813477
v 3181.892090 5555.702637 -7681.772949
v 3535.531738 3826.834473 -8535.530273
v 3753.297852 1950.903198 -9061.269531
v 3826.825684 0.000000 -9238.786133
v 3753.297852 -1950.903198 -9061.269531
v 3535.531738 -3826.834473 -8535.530273
v 3181.892090 -5555.702637 -7681.772949
v 2705.979004 -7071.067871 -6532.813477
v 2126.071045 -8314.696289 -5132.794922
v 1464.464844 -9238.794922 -3535.532471
v 746.577393 -9807.852539 -1802.397705
v 380.601776 9807.852539 -1913.415039
v 746.577332 9238.794922 -3753.301025
v 1083.860352 8314.696289 -5448.945312
v 1379.495728 7071.067871 -6935.197754
v 1622.113281 5555.702637 -8154.925781
v 1802.398071 3826.834473 -9061.269531
v 1913.413208 1950.903198 -9619.392578
v 1950.896240 0.000000 -9807.841797
v 1913.413208 -1950.903198 -9619.392578
v 1802.398071 -3826.834473 -9061.269531
v 1622.113281 -5555.702637 -8154.925781
v 1379.495728 -7071.067871 -6935.197754
v 1083.860352 -8314.696289 -5448.945312
v 746.577332 -9238.794922 -3753.301025
v 380.601776 -9807.852539 -1913.415039
v -0.000149 9807.852539 -1950.901001
v -0.000671 9238.794922 -3826.832275
v -0.000894 7071.067871 -7071.065918
v -0.000596 3826.834473 -9238.790039
v -0.000596 -3826.834473 -9238.790039
v -0.000894 -7071.067871 -7071.065918
v -0.002161 -8314.696289 -5555.695312
v -0.000671 -9238.794922 -3826.832275
v -0.000149 -9807.852539 -1950.901001
vn -0.0865 0.4696 -0.8786
vn -0.0464 -0.8810 -0.4709
vn -0.0938 0.2890 -0.9527
vn -0.0286 -0.9565 -0.2902
vn -0.0975 0.0975 -0.9904
vn -0.0097 0.9951 -0.0980
vn -0.0097 -0.9951 -0.0980
vn -0.0975 -0.0976 -0.9904
vn -0.0286 0.9565 -0.2902
vn -0.0938 -0.2890 -0.9527
vn -0.0464 0.8810 -0.4709
vn -0.0865 -0.4696 -0.8786
vn -0.0624 0.7715 -0.6332
vn -0.0759 -0.6326 -0.7708
vn -0.0759 0.6326 -0.7708
vn -0.0624 -0.7715 -0.6332
vn -0.2248 0.6326 -0.7412
vn -0.1847 -0.7715 -0.6088
vn -0.2563 0.4696 -0.8448
vn -0.1374 -0.8810 -0.4528
vn -0.2779 0.2890 -0.9161
vn -0.0846 -0.9565 -0.2790
vn -0.2889 0.0976 -0.9524
vn -0.0286 0.9951 -0.0942
vn -0.0286 -0.9951 -0.0942
vn -0.2889 -0.0976 -0.9524
vn -0.0846 0.9565 -0.2790
vn -0.2779 -0.2890 -0.9161
vn -0.1374 0.8810 -0.4528
vn -0.2563 -0.4696 -0.8448
vn -0.1847 0.7715 -0.6088
vn -0.2248 -0.6326 -0.7412
vn -0.4691 -0.0975 -0.8777
vn -0.1374 0.9565 -0.2571
vn -0.4513 -0.2890 -0.8443
vn -0.2231 0.8810 -0.4173
vn -0.4162 -0.4696 -0.7786
vn -0.2999 0.7715 -0.5611
vn -0.3651 -0.6326 -0.6831
vn -0.3651 0.6326 -0.6831
vn -0.2999 -0.7715 -0.5611
vn -0.4162 0.4696 -0.7786
vn -0.2230 -0.8810 -0.4173
vn -0.4513 0.2890 -0.8443
vn -0.1374 -0.9565 -0.2571
vn -0.4691 0.0975 -0.8777
vn -0.0464 0.9951 -0.0869
vn -0.0464 -0.9951 -0.0869
vn -0.4036 -0.7715 -0.4918
vn -0.5601 0.4696 -0.6825
vn -0.3002 -0.8810 -0.3658
vn -0.6073 0.2890 -0.7400
vn -0.1850 -0.9565 -0.2254
vn -0.6314 0.0975 -0.7693
vn -0.0625 0.9951 -0.0761
vn -0.0625 -0.9951 -0.0761
vn -0.6314 -0.0975 -0.7693
vn -0.1850 0.9565 -0.2254
vn -0.6073 -0.2890 -0.7400
vn -0.3002 0.8810 -0.3658
vn -0.5601 -0.4696 -0.6825
vn -0.4036 0.7715 -0.4918
vn -0.4913 -0.6326 -0.5987
vn -0.4913 0.6326 -0.5987
vn -0.2254 0.9565 -0.1850
vn -0.7400 -0.2890 -0.6073
vn -0.3658 0.8810 -0.3002
vn -0.6825 -0.4696 -0.5601
vn -0.4918 0.7715 -0.4036
vn -0.5987 -0.6326 -0.4913
vn -0.5987 0.6326 -0.4913
vn -0.4918 -0.7715 -0.4036
vn -0.6825 0.4696 -0.5601
vn -0.3658 -0.8810 -0.3002
vn -0.7400 0.2890 -0.6073
vn -0.2254 -0.9566 -0.1850
vn -0.7693 0.0975 -0.6314
vn -0.0761 0.9951 -0.0625
vn -0.0761 -0.9951 -0.0625
vn -0.7693 -0.0975 -0.6314
vn -0.7786 0.4696 -0.4162
vn -0.4173 -0.8810 -0.2230
vn -0.8443 0.2890 -0.4513
vn -0.2571 -0.9565 -0.1374
vn -0.8777 0.0975 -0.4691
vn -0.0869 0.9951 -0.0464
vn -0.0869 -0.9951 -0.0464
vn -0.8777 -0.0975 -0.4691
vn -0.2571 0.9565 -0.1374
vn -0.8443 -0.2890 -0.4513
vn -0.4173 0.8810 -0.2230
vn -0.7786 -0.4696 -0.4162
vn -0.5611 0.7715 -0.2999
vn -0.6831 -0.6326 -0.3651
vn -0.6831 0.6326 -0.3651
vn -0.5611 -0.7715 -0.2999
vn -0.9161 -0.2890 -0.2779
vn -0.4528 0.8810 -0.1374
vn -0.8448 -0.4696 -0.2563
vn -0.6088 0.7715 -0.1847
vn -0.7412 -0.6326 -0.2248
vn -0.7412 0.6326 -0.2248
vn -0.6088 -0.7715 -0.1847
vn -0.8448 0.4696 -0.2563
vn -0.4528 -0.8810 -0.1374
vn -0.9161 0.2890 -0.2779
vn -0.2790 -0.9565 -0.0846
vn -0.9524 0.0975 -0.2889
vn -0.0942 0.9951 -0.0286
vn -0.0942 -0.9951 -0.0286
vn -0.9524 -0.0975 -0.2889
vn -0.2790 0.9565 -0.0846
vn -0.4709 -0.8810 -0.0464
vn -0.9527 0.2890 -0.0938
vn -0.2902 -0.9565 -0.0286
vn -0.9904 0.0975 -0.0975
vn -0.0980 0.9951 -0.0097
vn -0.0980 -0.9951 -0.0097
vn -0.9904 -0.0975 -0.0975
vn -0.2902 0.9565 -0.0286
vn -0.9527 -0.2890 -0.0938
vn -0.4709 0.8810 -0.0464
vn -0.8786 -0.4696 -0.0865
vn -0.6332 0.7715 -0.0624
vn -0.7708 -0.6326 -0.0759
vn -0.7708 0.6326 -0.0759
vn -0.6332 -0.7715 -0.0624
vn -0.8786 0.4696 -0.0865
vn -0.8786 -0.4696 0.0865
vn -0.6332 0.7715 0.0624
vn -0.7708 -0.6326 0.0759
vn -0.7708 0.6326 0.0759
vn -0.6332 -0.7715 0.0624
vn -0.8786 0.4696 0.0865
vn -0.4709 -0.8810 0.0464
vn -0.9527 0.2890 0.0938
vn -0.2902 -0.9565 0.0286
vn -0.9904 0.0975 0.0976
vn -0.0980 0.9951 0.0097
vn -0.0980 -0.9951 0.0097
vn -0.9904 -0.0975 0.0976
vn -0.2902 0.9565 0.0286
vn -0.9527 -0.2890 0.0938
vn -0.4709 0.8810 0.0464
vn -0.2790 -0.9565 0.0846
vn -0.9524 0.0975 0.2889
vn -0.0942 0.9951 0.0286
vn -0.0942 -0.9951 0.0286
vn -0.9524 -0.0975 0.2889
vn -0.2790 0.9565 0.0846
vn -0.9161 -0.2890 0.2779
vn -0.4528 0.8810 0.1374
vn -0.8448 -0.4696 0.2563
vn -0.6088 0.7715 0.1847
vn -0.7412 -0.6326 0.2248
vn -0.7412 0.6326 0.2248
vn -0.6088 -0.7715 0.1847
vn -0.8448 0.4696 0.2563
vn -0.4528 -0.8810 0.1374
vn -0.9161 0.2890 0.2779
vn -0.5611 0.7715 0.2999
vn -0.6831 -0.6326 0.3651
vn -0.6831 0.6326 0.3651
vn -0.5611 -0.7715 0.2999
vn -0.7786 0.4696 0.4162
vn -0.4173 -0.8810 0.2230
vn -0.8443 0.2890 0.4513
vn -0.2571 -0.9565 0.1374
vn -0.8777 0.0975 0.4691
vn -0.0869 0.9951 0.0464
vn -0.0869 -0.9951 0.0464
vn -0.8777 -0.0975 0.4691
vn -0.2571 0.9565 0.1374
vn -0.8443 -0.2890 0.4513
vn -0.4173 0.8810 0.2231
vn -0.7786 -0.4696 0.4162
vn -0.7693 0.0975 0.6314
vn -0.0761 0.9951 0.0625
vn -0.0761 -0.9951 0.0625
vn -0.7693 -0.0975 0.6314
vn -0.2254 0.9565 0.1850
vn -0.7400 -0.2890 0.6073
vn -0.3658 0.8810 0.3002
vn -0.6825 -0.4696 0.5601
vn -0.4918 0.7715 0.4036
vn -0.5987 -0.6326 0.4913
vn -0.5987 0.6326 0.4913
vn -0.4918 -0.7715 0.4036
vn -0.6825 0.4696 0.5601
vn -0.3658 -0.8810 0.3002
vn -0.7400 0.2890 0.6073
vn -0.2254 -0.9565 0.1850
vn -0.4913 -0.6326 0.5987
vn -0.4913 0.6326 0.5987
vn -0.4036 -0.7715 0.4918
vn -0.5601 0.4696 0.6825
vn -0.3002 -0.8810 0.3658
vn -0.6073 0.2890 0.7400
vn -0.1850 -0.9565 0.2254
vn -0.6314 0.0975 0.7693
vn -0.0625 0.9951 0.0761
vn -0.0625 -0.9951 0.0761
vn -0.6314 -0.0975 0.7693
vn -0.1850 0.9565 0.2254
vn -0.6073 -0.2890 0.7400
vn -0.3002 0.8810 0.3658
vn -0.5601 -0.4696 0.6825
vn -0.4036 0.7715 0.4918
vn -0.0464 0.9951 0.0869
vn -0.0464 -0.9951 0.0869
vn -0.4691 -0.0975 0.8777
vn -0.1374 0.9565 0.2571
vn -0.4513 -0.2890 0.8443
vn -0.2230 0.8810 0.4173
vn -0.4162 -0.4696 0.7786
vn -0.2999 0.7715 0.5611
vn -0.3651 -0.6326 0.6831
vn -0.3651 0.6326 0.6831
vn -0.2999 -0.7715 0.5611
vn -0.4162 0.4696 0.7786
vn -0.2230 -0.8810 0.4173
vn -0.4513 0.2890 0.8443
vn -0.1374 -0.9565 0.2571
vn -0.4691 0.0975 0.8777
vn -0.2248 0.6326 0.7412
vn -0.1847 -0.7715 0.6088
vn -0.2563 0.4696 0.8448
vn -0.1374 -0.8810 0.4528
vn -0.2779 0.2890 0.9161
vn -0.0846 -0.9565 0.2790
vn -0.2889 0.0975 0.9524
vn -0.0286 0.9951 0.0942
vn -0.0286 -0.9951 0.0942
vn -0.2889 -0.0975 0.9524
vn -0.0846 0.9565 0.2790
vn -0.2779 -0.2890 0.9161
vn -0.1374 0.8810 0.4528
vn -0.2563 -0.4696 0.8448
vn -0.1847 0.7715 0.6088
vn -0.2248 -0.6326 0.7412
vn -0.0975 -0.0975 0.9904
vn -0.0286 0.9565 0.2902
vn -0.0938 -0.2890 0.9527
vn -0.0464 0.8810 0.4709
vn -0.0865 -0.4696 0.8786
vn -0.0624 0.7715 0.6332
vn -0.0759 -0.6326 0.7708
vn -0.0759 0.6326 0.7708
vn -0.0624 -0.7715 0.6332
vn -0.0865 0.4696 0.8786
vn -0.0464 -0.8810 0.4709
vn -0.0938 0.2890 0.9527
vn -0.0286 -0.9565 0.2902
vn -0.0975 0.0975 0.9904
vn -0.0097 0.9951 0.0980
vn -0.0097 -0.9951 0.0980
vn 0.0624 -0.7715 0.6332
vn 0.0865 0.4696 0.8786
vn 0.0464 -0.8810 0.4709
vn 0.0938 0.2890 0.9527
vn 0.0286 -0.9565 0.2902
vn 0.0976 0.0975 0.9904
vn 0.0097 0.9951 0.0980
vn 0.0097 -0.9951 0.0980
vn 0.0975 -0.0975 0.9904
vn 0.0286 0.9565 0.2902
vn 0.0938 -0.2890 0.9527
vn 0.0464 0.8810 0.4709
vn 0.0865 -0.4696 0.8786
vn 0.0624 0.7715 0.6332
vn 0.0759 -0.6326 0.7708
vn 0.0759 0.6326 0.7708
vn 0.2779 -0.2890 0.9161
vn 0.1374 0.8810 0.4528
vn 0.2563 -0.4696 0.8448
vn 0.1847 0.7715 0.6088
vn 0.2248 -0.6326 0.7412
vn 0.2248 0.6326 0.7412
vn 0.1847 -0.7715 0.6088
vn 0.2563 0.4696 0.8448
vn 0.1374 -0.8810 0.4528
vn 0.2779 0.2890 0.9161
vn 0.0846 -0.9565 0.2790
vn 0.2889 0.0975 0.9524
vn 0.0286 0.9951 0.0942
vn 0.0286 -0.9951 0.0942
vn 0.2889 -0.0975 0.9524
vn 0.0846 0.9565 0.2790
vn 0.2230 -0.8810 0.4173
vn 0.4513 0.2890 0.8443
vn 0.1374 -0.9565 0.2571
vn 0.4691 0.0975 0.8777
vn 0.0464 0.9951 0.0869
vn 0.0464 -0.9951 0.0869
vn 0.4691 -0.0975 0.8777
vn 0.1374 0.9565 0.2571
vn 0.4513 -0.2890 0.8443
vn 0.2230 0.8810 0.4173
vn 0.4162 -0.4696 0.7786
vn 0.2999 0.7715 0.5611
vn 0.3651 -0.6326 0.6831
vn 0.3651 0.6326 0.6831
vn 0.2999 -0.7715 0.5611
vn 0.4162 0.4696 0.7786
vn 0.3002 0.8810 0.3658
vn 0.5601 -0.4696 0.6825
vn 0.4036 0.7715 0.4918
vn 0.4913 -0.6326 0.5987
vn 0.4913 0.6326 0.5987
vn 0.4036 -0.7715 0.4918
vn 0.5601 0.4696 0.6825
vn 0.3002 -0.8810 0.3658
vn 0.6073 0.2890 0.7400
vn 0.1850 -0.9565 0.2254
vn 0.6314 0.0975 0.7693
vn 0.0625 0.9951 0.0761
vn 0.0625 -0.9951 0.0761
vn 0.6314 -0.0975 0.7693
vn 0.1850 0.9565 0.2254
vn 0.6073 -0.2890 0.7400
vn 0.7400 0.2890 0.6073
vn 0.2254 -0.9566 0.1850
vn 0.7693 0.0975 0.6314
vn 0.0761 0.9951 0.0625
vn 0.0761 -0.9951 0.0625
vn 0.7693 -0.0975 0.6314
vn 0.2254 0.9565 0.1850
vn 0.7400 -0.2890 0.6073
vn 0.3658 0.8810 0.3002
vn 0.6825 -0.4696 0.5601
vn 0.4918 0.7715 0.4036
vn 0.5987 -0.6326 0.4913
vn 0.5987 0.6326 0.4913
vn 0.4918 -0.7715 0.4036
vn 0.6825 0.4696 0.5601
vn 0.3658 -0.8810 0.3002
vn 0.7786 -0.4696 0.4162
vn 0.5611 0.7715 0.2999
vn 0.6831 -0.6326 0.3651
vn 0.6831 0.6326 0.3651
vn 0.5611 -0.7715 0.2999
vn 0.7786 0.4696 0.4162
vn 0.4173 -0.8810 0.2231
vn 0.8443 0.2890 0.4513
vn 0.2571 -0.9565 0.1374
vn 0.8777 0.0975 0.4691
vn 0.0869 0.9951 0.0464
vn 0.0869 -0.9951 0.0464
vn 0.8777 -0.0975 0.4691
vn 0.2571 0.9565 0.1374
vn 0.8443 -0.2890 0.4513
vn 0.4173 0.8810 0.2230
vn 0.2790 -0.9565 0.0846
vn 0.9524 0.0975 0.2889
vn 0.0942 0.9951 0.0286
vn 0.0942 -0.9951 0.0286
vn 0.9524 -0.0975 0.2889
vn 0.2790 0.9565 0.0846
vn 0.9161 -0.2890 0.2779
vn 0.4528 0.8810 0.1374
vn 0.8448 -0.4696 0.2563
vn 0.6088 0.7715 0.1847
vn 0.7412 -0.6326 0.2248
vn 0.7412 0.6326 0.2248
vn 0.6088 -0.7715 0.1847
vn 0.8448 0.4696 0.2563
vn 0.4528 -0.8810 0.1374
vn 0.9161 0.2890 0.2779
vn 0.6332 0.7715 0.0624
vn 0.7708 -0.6326 0.0759
vn 0.7708 0.6326 0.0759
vn 0.6332 -0.7715 0.0624
vn 0.8786 0.4696 0.0865
vn 0.4709 -0.8810 0.0464
vn 0.9527 0.2890 0.0938
vn 0.2902 -0.9565 0.0286
vn 0.9904 0.0975 0.0975
vn 0.0980 0.9951 0.0097
vn 0.0980 -0.9951 0.0097
vn 0.9904 -0.0975 0.0976
vn 0.2902 0.9565 0.0286
vn 0.9527 -0.2890 0.0938
vn 0.4709 0.8810 0.0464
vn 0.8786 -0.4696 0.0865
vn 0.9904 0.0975 -0.0975
vn 0.0980 0.9951 -0.0097
vn 0.0980 -0.9951 -0.0097
vn 0.9904 -0.0975 -0.0976
vn 0.2902 0.9565 -0.0286
vn 0.9527 -0.2890 -0.0938
vn 0.4709 0.8810 -0.0464
vn 0.8786 -0.4696 -0.0865
vn 0.6332 0.7715 -0.0624
vn 0.7708 -0.6326 -0.0759
vn 0.7708 0.6326 -0.0759
vn 0.6332 -0.7715 -0.0624
vn 0.8786 0.4696 -0.0865
vn 0.4709 -0.8810 -0.0464
vn 0.9527 0.2890 -0.0938
vn 0.2902 -0.9565 -0.0286
vn 0.7412 -0.6326 -0.2248
vn 0.7412 0.6326 -0.2248
vn 0.6088 -0.7715 -0.1847
vn 0.8448 0.4696 -0.2563
vn 0.4528 -0.8810 -0.1374
vn 0.9161 0.2890 -0.2779
vn 0.2790 -0.9565 -0.0846
vn 0.9524 0.0975 -0.2889
vn 0.0942 0.9951 -0.0286
vn 0.0942 -0.9951 -0.0286
vn 0.9524 -0.0975 -0.2889
vn 0.2790 0.9565 -0.0846
vn 0.9161 -0.2890 -0.2779
vn 0.4528 0.8810 -0.1374
vn 0.8448 -0.4696 -0.2563
vn 0.6088 0.7715 -0.1847
vn 0.0869 -0.9951 -0.0464
vn 0.8777 -0.0975 -0.4691
vn 0.2571 0.9565 -0.1374
vn 0.8443 -0.2890 -0.4513
vn 0.4173 0.8810 -0.2231
vn 0.7786 -0.4696 -0.4162
vn 0.5611 0.7715 -0.2999
vn 0.6831 -0.6326 -0.3651
vn 0.6831 0.6326 -0.3651
vn 0.5611 -0.7715 -0.2999
vn 0.7786 0.4696 -0.4162
vn 0.4173 -0.8810 -0.2231
vn 0.8443 0.2890 -0.4513
vn 0.2571 -0.9565 -0.1374
vn 0.8777 0.0975 -0.4691
vn 0.0869 0.9951 -0.0464
vn 0.4918 -0.7715 -0.4036
vn 0.6825 0.4696 -0.5601
vn 0.3658 -0.8810 -0.3002
vn 0.7400 0.2890 -0.6073
vn 0.2254 -0.9565 -0.1850
vn 0.7693 0.0975 -0.6314
vn 0.0761 0.9951 -0.0625
vn 0.0761 -0.9951 -0.0625
vn 0.7693 -0.0975 -0.6314
vn 0.2254 0.9565 -0.1850
vn 0.7400 -0.2890 -0.6073
vn 0.3658 0.8810 -0.3002
vn 0.6825 -0.4696 -0.5601
vn 0.4918 0.7715 -0.4036
vn 0.5987 -0.6326 -0.4913
vn 0.5987 0.6326 -0.4913
vn 0.1850 0.9565 -0.2254
vn 0.6073 -0.2890 -0.7400
vn 0.3002 0.8810 -0.3658
vn 0.5601 -0.4696 -0.6825
vn 0.4036 0.7715 -0.4918
vn 0.4913 -0.6326 -0.5987
vn 0.4913 0.6326 -0.5987
vn 0.4036 -0.7715 -0.4918
vn 0.5601 0.4696 -0.6825
vn 0.3002 -0.8810 -0.3658
vn 0.6073 0.2890 -0.7400
vn 0.1850 -0.9565 -0.2254
vn 0.6314 0.0975 -0.7693
vn 0.0625 0.9951 -0.0761
vn 0.0625 -0.9951 -0.0761
vn 0.6314 -0.0975 -0.7693
vn 0.4162 0.4696 -0.7786
vn 0.2230 -0.8810 -0.4173
vn 0.4513 0.2890 -0.8443
vn 0.1374 -0.9565 -0.2571
vn 0.4691 0.0975 -0.8777
vn 0.0464 0.9951 -0.0869
vn 0.0464 -0.9951 -0.0869
vn 0.4691 -0.0975 -0.8777
vn 0.1374 0.9565 -0.2571
vn 0.4513 -0.2890 -0.8443
vn 0.2230 0.8810 -0.4173
vn 0.4162 -0.4696 -0.7786
vn 0.2999 0.7715 -0.5611
vn 0.3651 -0.6326 -0.6831
vn 0.3651 0.6326 -0.6831
vn 0.2999 -0.7715 -0.5611
vn 0.2779 -0.2890 -0.9161
vn 0.1374 0.8810 -0.4528
vn 0.2563 -0.4696 -0.8448
vn 0.1847 0.7715 -0.6088
vn 0.2248 -0.6326 -0.7412
vn 0.2248 0.6326 -0.7412
vn 0.1847 -0.7715 -0.6088
vn 0.2563 0.4696 -0.8448
vn 0.1374 -0.8810 -0.4528
vn 0.2779 0.2890 -0.9161
vn 0.0846 -0.9565 -0.2790
vn 0.2889 0.0975 -0.9524
vn 0.0286 0.9951 -0.0942
vn 0.0286 -0.9951 -0.0942
vn 0.2889 -0.0975 -0.9524
vn 0.0846 0.9565 -0.2790
vn 0.0464 -0.8810 -0.4709
vn 0.0938 0.2890 -0.9527
vn 0.0286 -0.9565 -0.2902
vn 0.0976 0.0975 -0.9904
vn 0.0097 0.9951 -0.0980
vn 0.0097 -0.9951 -0.0980
vn 0.0976 -0.0975 -0.9904
vn 0.0286 0.9565 -0.2902
vn 0.0938 -0.2890 -0.9527
vn 0.0464 0.8810 -0.4709
vn 0.0865 -0.4696 -0.8786
vn 0.0624 0.7715 -0.6332
vn 0.0759 -0.6326 -0.7708
vn 0.0759 0.6326 -0.7708
vn 0.0624 -0.7715 -0.6332
vn 0.0865 0.4696 -0.8786
vn -0.0975 0.0976 -0.9904
vn -0.0975 -0.0975 -0.9904
vn -0.2230 0.8810 -0.4173
vn -0.2231 -0.8810 -0.4173
vn -0.2254 -0.9565 -0.1850
vn -0.4173 -0.8810 0.2231
vn -0.2571 0.9566 0.1374
vn -0.4173 0.8810 0.2230
vn -0.2231 -0.8810 0.4173
vn 0.0975 0.0975 0.9904
vn 0.0976 -0.0975 0.9904
vn 0.2231 -0.8810 0.4173
vn 0.2231 0.8810 0.4173
vn 0.2254 -0.9565 0.1850
vn 0.4173 -0.8810 0.2230
vn 0.9904 0.0975 0.0976
vn 0.9904 -0.0975 0.0975
vn 0.9904 0.0975 -0.0976
vn 0.9904 -0.0975 -0.0975
vt 0.624975 0.250050
vt 0.687463 0.281294
vt 0.624975 0.281294
vt 0.187562 0.250050
vt 0.125075 0.281294
vt 0.125075 0.250050
vt 0.562487 0.250050
vt 0.562487 0.281294
vt 0.062587 0.281294
vt 0.062587 0.250050
vt 0.500000 0.281294
vt 0.500000 0.250050
vt 0.937413 0.250050
vt 0.999900 0.265672
vt 0.937413 0.281294
vt 0.000100 0.265672
vt 0.437513 0.281294
vt 0.437513 0.250050
vt 0.874925 0.250050
vt 0.874925 0.281294
vt 0.375025 0.281294
vt 0.375025 0.250050
vt 0.812438 0.250050
vt 0.812438 0.281294
vt 0.312537 0.281294
vt 0.312538 0.250050
vt 0.749950 0.250050
vt 0.749950 0.281294
vt 0.250050 0.281294
vt 0.250050 0.250050
vt 0.687463 0.250050
vt 0.187562 0.281294
vt 0.687463 0.312537
vt 0.250050 0.312537
vt 0.187562 0.312537
vt 0.624975 0.312537
vt 0.125075 0.312537
vt 0.562487 0.312537
vt 0.062587 0.312537
vt 0.500000 0.312537
vt 0.999900 0.296916
vt 0.937413 0.312537
vt 0.000100 0.296916
vt 0.437513 0.312537
vt 0.874925 0.312537
vt 0.375025 0.312537
vt 0.812438 0.312537
vt 0.312537 0.312537
vt 0.749950 0.312537
vt 0.500000 0.343781
vt 0.437513 0.343781
vt 0.874925 0.343781
vt 0.375025 0.343781
vt 0.812438 0.343781
vt 0.312537 0.343781
vt 0.749950 0.343781
vt 0.250050 0.343781
vt 0.687463 0.343781
vt 0.187562 0.343781
vt 0.624975 0.343781
vt 0.125075 0.343781
vt 0.562487 0.343781
vt 0.062587 0.343781
vt 0.999900 0.328159
vt 0.937413 0.343781
vt 0.000100 0.328159
vt 0.187563 0.375025
vt 0.624975 0.375025
vt 0.125075 0.375025
vt 0.562488 0.375025
vt 0.062587 0.375025
vt 0.500000 0.375025
vt 0.999900 0.359403
vt 0.937413 0.375025
vt 0.000100 0.359403
vt 0.437513 0.375025
vt 0.874925 0.375025
vt 0.375025 0.375025
vt 0.812438 0.375025
vt 0.312537 0.375025
vt 0.749950 0.375025
vt 0.250050 0.375025
vt 0.687463 0.375025
vt 0.874925 0.406269
vt 0.375025 0.406269
vt 0.812438 0.406269
vt 0.312537 0.406269
vt 0.749950 0.406269
vt 0.250050 0.406269
vt 0.687463 0.406269
vt 0.187563 0.406269
vt 0.624975 0.406269
vt 0.125075 0.406269
vt 0.562488 0.406269
vt 0.062587 0.406269
vt 0.500000 0.406269
vt 0.999900 0.390647
vt 0.937413 0.406269
vt 0.000100 0.390647
vt 0.437513 0.406269
vt 0.624975 0.437512
vt 0.125075 0.437513
vt 0.562488 0.437512
vt 0.062587 0.437513
vt 0.500000 0.437512
vt 0.999900 0.421891
vt 0.937413 0.437512
vt 0.000100 0.421891
vt 0.437513 0.437512
vt 0.874925 0.437512
vt 0.375025 0.437512
vt 0.812438 0.437512
vt 0.312537 0.437512
vt 0.749950 0.437512
vt 0.250050 0.437512
vt 0.687463 0.437512
vt 0.187563 0.437512
vt 0.375025 0.468756
vt 0.812438 0.468756
vt 0.312537 0.468756
vt 0.749950 0.468756
vt 0.250050 0.468756
vt 0.687463 0.468756
vt 0.187563 0.468756
vt 0.624975 0.468756
vt 0.125075 0.468756
vt 0.562488 0.468756
vt 0.062587 0.468756
vt 0.500000 0.468756
vt 0.999900 0.453134
vt 0.937413 0.468756
vt 0.000100 0.453134
vt 0.437513 0.468756
vt 0.874925 0.468756
vt 0.125075 0.500000
vt 0.624975 0.500000
vt 0.562488 0.500000
vt 0.062587 0.500000
vt 0.500000 0.500000
vt 0.999900 0.484378
vt 0.937413 0.500000
vt 0.000100 0.484378
vt 0.437513 0.500000
vt 0.874925 0.500000
vt 0.375025 0.500000
vt 0.812438 0.500000
vt 0.312537 0.500000
vt 0.749950 0.500000
vt 0.250050 0.500000
vt 0.687463 0.500000
vt 0.187563 0.500000
vt 0.375025 0.531244
vt 0.312537 0.531244
vt 0.749950 0.531244
vt 0.250050 0.531244
vt 0.687463 0.531244
vt 0.187563 0.531244
vt 0.624975 0.531244
vt 0.125075 0.531244
vt 0.562488 0.531244
vt 0.062587 0.531244
vt 0.500000 0.531244
vt 0.999900 0.515622
vt 0.937413 0.531244
vt 0.000100 0.515622
vt 0.437513 0.531244
vt 0.874925 0.531244
vt 0.812438 0.531244
vt 0.125075 0.562487
vt 0.062587 0.562487
vt 0.562488 0.562487
vt 0.500000 0.562488
vt 0.999900 0.546866
vt 0.937413 0.562487
vt 0.000100 0.546866
vt 0.437513 0.562487
vt 0.874925 0.562487
vt 0.375025 0.562487
vt 0.812438 0.562487
vt 0.312537 0.562488
vt 0.749950 0.562487
vt 0.250050 0.562487
vt 0.687463 0.562487
vt 0.187563 0.562488
vt 0.624975 0.562487
vt 0.749950 0.593731
vt 0.250050 0.593731
vt 0.687463 0.593731
vt 0.187563 0.593731
vt 0.624975 0.593731
vt 0.125075 0.593731
vt 0.562488 0.593731
vt 0.062587 0.593731
vt 0.500000 0.593731
vt 0.999900 0.578109
vt 0.937413 0.593731
vt 0.000100 0.578109
vt 0.437513 0.593731
vt 0.874925 0.593731
vt 0.375025 0.593731
vt 0.812438 0.593731
vt 0.312537 0.593731
vt 0.562488 0.624975
vt 0.500000 0.624975
vt 0.999900 0.609353
vt 0.937413 0.624975
vt 0.000100 0.609353
vt 0.062587 0.624975
vt 0.437513 0.624975
vt 0.874925 0.624975
vt 0.375025 0.624975
vt 0.812438 0.624975
vt 0.312537 0.624975
vt 0.749950 0.624975
vt 0.250050 0.624975
vt 0.687463 0.624975
vt 0.187563 0.624975
vt 0.624975 0.624975
vt 0.125075 0.624975
vt 0.250050 0.656219
vt 0.749950 0.656219
vt 0.687463 0.656219
vt 0.187563 0.656219
vt 0.624975 0.656219
vt 0.125075 0.656219
vt 0.562488 0.656219
vt 0.062587 0.656219
vt 0.500000 0.656219
vt 0.999900 0.640597
vt 0.937413 0.656219
vt 0.000100 0.640597
vt 0.437513 0.656219
vt 0.874925 0.656219
vt 0.375025 0.656219
vt 0.812438 0.656219
vt 0.312537 0.656219
vt 0.999900 0.671841
vt 0.937413 0.687462
vt 0.000100 0.671841
vt 0.062587 0.687463
vt 0.437513 0.687463
vt 0.874925 0.687462
vt 0.375025 0.687463
vt 0.812438 0.687463
vt 0.312537 0.687463
vt 0.749950 0.687463
vt 0.250050 0.687463
vt 0.687463 0.687463
vt 0.187563 0.687463
vt 0.624975 0.687463
vt 0.125075 0.687463
vt 0.562488 0.687463
vt 0.500000 0.687463
vt 0.749950 0.718706
vt 0.687463 0.718706
vt 0.250050 0.718706
vt 0.187563 0.718706
vt 0.624975 0.718706
vt 0.125075 0.718706
vt 0.562488 0.718706
vt 0.062587 0.718706
vt 0.500000 0.718706
vt 0.999900 0.703084
vt 0.937413 0.718706
vt 0.000100 0.703084
vt 0.437513 0.718706
vt 0.874925 0.718706
vt 0.375025 0.718706
vt 0.812438 0.718706
vt 0.312537 0.718706
vt 0.437513 0.749950
vt 0.874925 0.749950
vt 0.375025 0.749950
vt 0.812438 0.749950
vt 0.312537 0.749950
vt 0.749950 0.749950
vt 0.250050 0.749950
vt 0.687463 0.749950
vt 0.187563 0.749950
vt 0.624975 0.749950
vt 0.125075 0.749950
vt 0.562488 0.749950
vt 0.062587 0.749950
vt 0.500000 0.749950
vt 0.999900 0.734328
vt 0.937413 0.749950
vt 0.000100 0.734328
vt 0.250050 0.781194
vt 0.187563 0.781194
vt 0.624975 0.781194
vt 0.125075 0.781194
vt 0.562488 0.781194
vt 0.062587 0.781194
vt 0.500000 0.781194
vt 0.999900 0.765572
vt 0.937413 0.781194
vt 0.000100 0.765572
vt 0.437513 0.781194
vt 0.874925 0.781194
vt 0.375025 0.781194
vt 0.812438 0.781194
vt 0.312537 0.781194
vt 0.749950 0.781194
vt 0.687463 0.781194
vt 0.375025 0.812437
vt 0.812438 0.812438
vt 0.312537 0.812437
vt 0.749950 0.812437
vt 0.250050 0.812438
vt 0.687463 0.812437
vt 0.187563 0.812438
vt 0.624975 0.812437
vt 0.125075 0.812438
vt 0.562488 0.812438
vt 0.062587 0.812438
vt 0.500000 0.812438
vt 0.999900 0.796816
vt 0.937413 0.812437
vt 0.000100 0.796816
vt 0.437513 0.812438
vt 0.874925 0.812437
vt 0.125075 0.843681
vt 0.624975 0.843681
vt 0.562488 0.843681
vt 0.062587 0.843681
vt 0.500000 0.843681
vt 0.999900 0.828059
vt 0.937413 0.843681
vt 0.000100 0.828059
vt 0.437513 0.843681
vt 0.874925 0.843681
vt 0.375025 0.843681
vt 0.812438 0.843681
vt 0.312537 0.843681
vt 0.749950 0.843681
vt 0.250050 0.843681
vt 0.687463 0.843681
vt 0.187562 0.843681
vt 0.812438 0.874925
vt 0.375025 0.874925
vt 0.312537 0.874925
vt 0.749950 0.874925
vt 0.250050 0.874925
vt 0.687463 0.874925
vt 0.187562 0.874925
vt 0.624975 0.874925
vt 0.125075 0.874925
vt 0.562488 0.874925
vt 0.062587 0.874925
vt 0.500000 0.874925
vt 0.999900 0.859303
vt 0.937413 0.874925
vt 0.000100 0.859303
vt 0.437513 0.874925
vt 0.874925 0.874925
vt 0.624975 0.906169
vt 0.562488 0.906169
vt 0.062587 0.906169
vt 0.500000 0.906169
vt 0.999900 0.890547
vt 0.937413 0.906169
vt 0.000100 0.890547
vt 0.437513 0.906169
vt 0.874925 0.906169
vt 0.375025 0.906169
vt 0.812438 0.906169
vt 0.312537 0.906169
vt 0.749950 0.906169
vt 0.250050 0.906169
vt 0.687463 0.906169
vt 0.187562 0.906169
vt 0.125075 0.906169
vt 0.375025 0.937413
vt 0.312537 0.937413
vt 0.749950 0.937412
vt 0.250050 0.937413
vt 0.687463 0.937413
vt 0.187562 0.937413
vt 0.624975 0.937412
vt 0.125075 0.937413
vt 0.562488 0.937413
vt 0.062587 0.937413
vt 0.500000 0.937413
vt 0.999900 0.921791
vt 0.937413 0.937413
vt 0.000100 0.921791
vt 0.437513 0.937413
vt 0.874925 0.937413
vt 0.812438 0.937413
vt 0.062587 0.968656
vt 0.562488 0.968656
vt 0.500000 0.968656
vt 0.999900 0.953034
vt 0.937413 0.968656
vt 0.000100 0.953034
vt 0.437513 0.968656
vt 0.874925 0.968656
vt 0.375025 0.968656
vt 0.812438 0.968656
vt 0.312537 0.968656
vt 0.749950 0.968656
vt 0.250050 0.968656
vt 0.687463 0.968656
vt 0.187562 0.968656
vt 0.624975 0.968656
vt 0.125075 0.968656
vt 0.749950 0.999900
vt 0.250050 0.999900
vt 0.687463 0.999900
vt 0.187562 0.999900
vt 0.624975 0.999900
vt 0.125075 0.999900
vt 0.562488 0.999900
vt 0.062587 0.999900
vt 0.500000 0.999900
vt 0.999900 0.984278
vt 0.937413 0.999900
vt 0.000100 0.984278
vt 0.437513 0.999900
vt 0.874925 0.999900
vt 0.375025 0.999900
vt 0.812438 0.999900
vt 0.312537 0.999900
vt 0.500000 0.000100
vt 0.562487 0.031344
vt 0.500000 0.031344
vt 0.937413 0.000100
vt 0.999900 0.015722
vt 0.937413 0.031344
vt 0.000100 0.015722
vt 0.062587 0.000100
vt 0.062587 0.031344
vt 0.437512 0.031344
vt 0.437512 0.000100
vt 0.874925 0.031344
vt 0.874925 0.000100
vt 0.375025 0.031344
vt 0.375025 0.000100
vt 0.812438 0.000100
vt 0.812438 0.031344
vt 0.312537 0.000100
vt 0.312537 0.031344
vt 0.749950 0.031344
vt 0.749950 0.000100
vt 0.250050 0.031344
vt 0.250050 0.000100
vt 0.687463 0.000100
vt 0.687463 0.031344
vt 0.187562 0.000100
vt 0.187562 0.031344
vt 0.624975 0.031344
vt 0.624975 0.000100
vt 0.125075 0.031344
vt 0.125075 0.000100
vt 0.562487 0.000100
vt 0.250050 0.062587
vt 0.749950 0.062587
vt 0.687463 0.062588
vt 0.187562 0.062588
vt 0.624975 0.062587
vt 0.125075 0.062587
vt 0.562488 0.062588
vt 0.062587 0.062587
vt 0.500000 0.062588
vt 0.999900 0.046966
vt 0.937413 0.062587
vt 0.000100 0.046966
vt 0.437512 0.062588
vt 0.874925 0.062587
vt 0.375025 0.062587
vt 0.812438 0.062588
vt 0.312537 0.062588
vt 0.000100 0.078209
vt 0.062587 0.093831
vt 0.437512 0.093831
vt 0.937413 0.093831
vt 0.874925 0.093831
vt 0.375025 0.093831
vt 0.812438 0.093831
vt 0.312537 0.093831
vt 0.749950 0.093831
vt 0.250050 0.093831
vt 0.687463 0.093831
vt 0.187562 0.093831
vt 0.624975 0.093831
vt 0.125075 0.093831
vt 0.562488 0.093831
vt 0.500000 0.093831
vt 0.999900 0.078209
vt 0.250050 0.125075
vt 0.187562 0.125075
vt 0.624975 0.125075
vt 0.125075 0.125075
vt 0.562488 0.125075
vt 0.062587 0.125075
vt 0.500000 0.125075
vt 0.999900 0.109453
vt 0.937413 0.125075
vt 0.000100 0.109453
vt 0.437512 0.125075
vt 0.874925 0.125075
vt 0.375025 0.125075
vt 0.812438 0.125075
vt 0.312537 0.125075
vt 0.749950 0.125075
vt 0.687463 0.125075
vt 0.874925 0.156319
vt 0.375025 0.156319
vt 0.812438 0.156319
vt 0.312537 0.156319
vt 0.749950 0.156319
vt 0.250050 0.156319
vt 0.687463 0.156319
vt 0.187562 0.156319
vt 0.624975 0.156319
vt 0.125075 0.156319
vt 0.562488 0.156319
vt 0.062587 0.156319
vt 0.500000 0.156319
vt 0.999900 0.140697
vt 0.937413 0.156319
vt 0.000100 0.140697
vt 0.437512 0.156319
vt 0.624975 0.187562
vt 0.125075 0.187562
vt 0.562488 0.187563
vt 0.062587 0.187562
vt 0.500000 0.187563
vt 0.999900 0.171941
vt 0.937413 0.187562
vt 0.000100 0.171941
vt 0.437513 0.187563
vt 0.874925 0.187562
vt 0.375025 0.187562
vt 0.812438 0.187563
vt 0.312537 0.187563
vt 0.749950 0.187562
vt 0.250050 0.187562
vt 0.687463 0.187563
vt 0.187562 0.187563
vt 0.375025 0.218806
vt 0.874925 0.218806
vt 0.812438 0.218806
vt 0.312537 0.218806
vt 0.749950 0.218806
vt 0.250050 0.218806
vt 0.687463 0.218806
vt 0.187562 0.218806
vt 0.624975 0.218806
vt 0.125075 0.218806
vt 0.562488 0.218806
vt 0.062587 0.218806
vt 0.500000 0.218806
vt 0.999900 0.203184
vt 0.937413 0.218806
vt 0.000100 0.203184
vt 0.437513 0.218806
vt 0.999900 0.234428
vt 0.000100 0.234428
s 0
usemtl マテリアル
f 477/1/1 12/3/1 11/2/1
f 480/4/2 481/6/2 20/5/2
f 3/7/3 13/8/3 12/3/3
f 481/6/4 482/10/4 21/9/4
f 3/7/5 4/12/5 14/11/5
f 474/13/6 7/15/6 82/14/6
f 308/16/7 21/9/7 482/10/7
f 4/12/8 5/18/8 15/17/8
f 475/19/9 8/20/9 7/15/9
f 5/18/10 478/22/10 16/21/10
f 1/23/11 9/24/11 8/20/11
f 478/22/12 6/26/12 17/25/12
f 476/27/13 10/28/13 9/24/13
f 6/26/14 479/30/14 18/29/14
f 2/31/15 11/2/15 10/28/15
f 479/30/16 480/4/16 19/32/16
f 10/28/17 11/2/17 26/33/17
f 19/32/18 34/35/18 33/34/18
f 11/2/19 12/3/19 27/36/19
f 20/5/20 35/37/20 34/35/20
f 13/8/21 28/38/21 27/36/21
f 20/5/22 21/9/22 36/39/22
f 13/8/23 14/11/23 29/40/23
f 7/15/24 22/42/24 82/41/24
f 308/43/25 36/39/25 21/9/25
f 14/11/26 15/17/26 30/44/26
f 7/15/27 8/20/27 23/45/27
f 15/17/28 16/21/28 31/46/28
f 8/20/29 9/24/29 24/47/29
f 16/21/30 17/25/30 32/48/30
f 9/24/31 10/28/31 25/49/31
f 17/25/32 18/29/32 33/34/32
f 30/44/33 45/51/33 44/50/33
f 22/42/34 23/45/34 38/52/34
f 30/44/35 31/46/35 46/53/35
f 23/45/36 24/47/36 39/54/36
f 32/48/37 47/55/37 46/53/37
f 24/47/38 25/49/38 40/56/38
f 33/34/39 48/57/39 47/55/39
f 25/49/40 26/33/40 41/58/40
f 34/35/41 49/59/41 48/57/41
f 26/33/42 27/36/42 42/60/42
f 34/35/43 35/37/43 50/61/43
f 27/36/44 28/38/44 43/62/44
f 35/37/45 36/39/45 51/63/45
f 28/38/46 29/40/46 44/50/46
f 22/42/47 37/65/47 82/64/47
f 308/66/48 51/63/48 36/39/48
f 48/57/49 49/59/49 64/67/49
f 41/58/50 42/60/50 57/68/50
f 49/59/51 50/61/51 65/69/51
f 43/62/52 58/70/52 57/68/52
f 50/61/53 51/63/53 66/71/53
f 44/50/54 59/72/54 58/70/54
f 37/65/55 52/74/55 82/73/55
f 308/75/56 66/71/56 51/63/56
f 44/50/57 45/51/57 60/76/57
f 37/65/58 38/52/58 53/77/58
f 45/51/59 46/53/59 61/78/59
f 38/52/60 39/54/60 54/79/60
f 47/55/61 62/80/61 61/78/61
f 39/54/62 40/56/62 55/81/62
f 47/55/63 48/57/63 63/82/63
f 40/56/64 41/58/64 56/83/64
f 52/74/65 53/77/65 68/84/65
f 60/76/66 61/78/66 76/85/66
f 53/77/67 54/79/67 69/86/67
f 62/80/68 77/87/68 76/85/68
f 54/79/69 55/81/69 70/88/69
f 62/80/70 63/82/70 78/89/70
f 56/83/71 71/90/71 70/88/71
f 63/82/72 64/67/72 79/91/72
f 56/83/73 57/68/73 72/92/73
f 65/69/74 80/93/74 79/91/74
f 58/70/75 73/94/75 72/92/75
f 65/69/76 66/71/76 81/95/76
f 59/72/77 74/96/77 73/94/77
f 52/74/78 67/98/78 82/97/78
f 308/99/79 81/95/79 66/71/79
f 59/72/80 60/76/80 75/100/80
f 71/90/81 72/92/81 88/101/81
f 79/91/82 80/93/82 96/102/82
f 73/94/83 89/103/83 88/101/83
f 81/95/84 97/104/84 96/102/84
f 74/96/85 90/105/85 89/103/85
f 67/98/86 83/107/86 82/106/86
f 308/108/87 97/104/87 81/95/87
f 74/96/88 75/100/88 91/109/88
f 67/98/89 68/84/89 84/110/89
f 75/100/90 76/85/90 92/111/90
f 68/84/91 69/86/91 85/112/91
f 77/87/92 93/113/92 92/111/92
f 69/86/93 70/88/93 86/114/93
f 77/87/94 78/89/94 94/115/94
f 71/90/95 87/116/95 86/114/95
f 78/89/96 79/91/96 95/117/96
f 91/109/97 92/111/97 107/118/97
f 84/110/98 85/112/98 100/119/98
f 93/113/99 108/120/99 107/118/99
f 85/112/100 86/114/100 101/121/100
f 93/113/101 94/115/101 109/122/101
f 87/116/102 102/123/102 101/121/102
f 95/117/103 110/124/103 109/122/103
f 87/116/104 88/101/104 103/125/104
f 96/102/105 111/126/105 110/124/105
f 89/103/106 104/127/106 103/125/106
f 96/102/107 97/104/107 112/128/107
f 90/105/108 105/129/108 104/127/108
f 83/107/109 98/131/109 82/130/109
f 308/132/110 112/128/110 97/104/110
f 90/105/111 91/109/111 106/133/111
f 84/110/112 99/134/112 98/131/112
f 110/124/113 111/126/113 126/135/113
f 104/127/114 119/137/114 118/136/114
f 111/126/115 112/128/115 127/138/115
f 105/129/116 120/139/116 119/137/116
f 98/131/117 113/141/117 82/140/117
f 308/142/118 127/138/118 112/128/118
f 105/129/119 106/133/119 121/143/119
f 99/134/120 114/144/120 113/141/120
f 106/133/121 107/118/121 122/145/121
f 99/134/122 100/119/122 115/146/122
f 108/120/123 123/147/123 122/145/123
f 100/119/124 101/121/124 116/148/124
f 108/120/125 109/122/125 124/149/125
f 102/123/126 117/150/126 116/148/126
f 110/124/127 125/151/127 124/149/127
f 102/123/128 103/125/128 118/136/128
f 123/147/129 138/153/129 137/152/129
f 115/146/130 116/148/130 131/154/130
f 123/147/131 124/149/131 139/155/131
f 117/150/132 132/156/132 131/154/132
f 125/151/133 140/157/133 139/155/133
f 117/150/134 118/136/134 133/158/134
f 125/151/135 126/135/135 141/159/135
f 119/137/136 134/160/136 133/158/136
f 126/135/137 127/138/137 142/161/137
f 120/139/138 135/162/138 134/160/138
f 113/141/139 128/164/139 82/163/139
f 308/165/140 142/161/140 127/138/140
f 120/139/141 121/143/141 136/166/141
f 113/141/142 114/144/142 129/167/142
f 121/143/143 122/145/143 137/152/143
f 114/144/144 115/146/144 130/168/144
f 142/161/145 157/170/145 156/169/145
f 135/162/146 150/172/146 149/171/146
f 128/164/147 143/174/147 82/173/147
f 308/175/148 157/170/148 142/161/148
f 135/162/149 136/166/149 151/176/149
f 128/164/150 129/167/150 144/177/150
f 136/166/151 137/152/151 152/178/151
f 130/168/152 145/179/152 144/177/152
f 138/153/153 153/180/153 152/178/153
f 130/168/154 131/154/154 146/181/154
f 138/153/155 139/155/155 154/182/155
f 132/156/156 147/183/156 146/181/156
f 140/157/157 155/184/157 154/182/157
f 132/156/158 133/158/158 148/185/158
f 140/157/159 141/159/159 156/169/159
f 134/160/160 149/171/160 148/185/160
f 145/179/161 146/181/161 161/186/161
f 153/180/162 154/182/162 169/187/162
f 147/183/163 162/188/163 161/186/163
f 155/184/164 170/189/164 169/187/164
f 147/183/165 148/185/165 163/190/165
f 155/184/166 156/169/166 171/191/166
f 149/171/167 164/192/167 163/190/167
f 156/169/168 157/170/168 172/193/168
f 150/172/169 165/194/169 164/192/169
f 143/174/170 158/196/170 82/195/170
f 308/197/171 172/193/171 157/170/171
f 150/172/172 151/176/172 166/198/172
f 143/174/173 144/177/173 159/199/173
f 151/176/174 152/178/174 167/200/174
f 145/179/175 160/201/175 159/199/175
f 153/180/176 168/202/176 167/200/176
f 165/194/177 180/204/177 179/203/177
f 158/196/178 173/206/178 82/205/178
f 308/207/179 187/208/179 172/193/179
f 165/194/180 166/198/180 181/209/180
f 158/196/181 159/199/181 174/210/181
f 166/198/182 167/200/182 182/211/182
f 159/199/183 160/201/183 175/212/183
f 168/202/184 183/213/184 182/211/184
f 160/201/185 161/186/185 176/214/185
f 168/202/186 169/187/186 184/215/186
f 162/188/187 177/216/187 176/214/187
f 169/187/188 170/189/188 185/217/188
f 162/188/189 163/190/189 178/218/189
f 171/191/190 186/219/190 185/217/190
f 164/192/191 179/203/191 178/218/191
f 172/193/192 187/208/192 186/219/192
f 183/213/193 184/215/193 199/220/193
f 177/216/194 192/222/194 191/221/194
f 185/217/195 200/223/195 199/220/195
f 177/216/196 178/218/196 193/224/196
f 185/217/197 186/219/197 201/225/197
f 179/203/198 194/226/198 193/224/198
f 186/219/199 187/208/199 202/227/199
f 180/204/200 195/228/200 194/226/200
f 173/206/201 188/230/201 82/229/201
f 308/231/202 202/227/202 187/208/202
f 180/204/203 181/209/203 196/232/203
f 174/210/204 189/233/204 188/230/204
f 181/209/205 182/211/205 197/234/205
f 175/212/206 190/235/206 189/233/206
f 183/213/207 198/236/207 197/234/207
f 175/212/208 176/214/208 191/221/208
f 188/230/209 203/238/209 82/237/209
f 308/239/210 217/240/210 202/227/210
f 195/228/211 196/232/211 211/241/211
f 188/230/212 189/233/212 204/242/212
f 196/232/213 197/234/213 212/243/213
f 189/233/214 190/235/214 205/244/214
f 198/236/215 213/245/215 212/243/215
f 190/235/216 191/221/216 206/246/216
f 198/236/217 199/220/217 214/247/217
f 192/222/218 207/248/218 206/246/218
f 200/223/219 215/249/219 214/247/219
f 192/222/220 193/224/220 208/250/220
f 200/223/221 201/225/221 216/251/221
f 194/226/222 209/252/222 208/250/222
f 201/225/223 202/227/223 217/240/223
f 195/228/224 210/253/224 209/252/224
f 207/248/225 222/255/225 221/254/225
f 215/249/226 230/257/226 229/256/226
f 207/248/227 208/250/227 223/258/227
f 215/249/228 216/251/228 231/259/228
f 209/252/229 224/260/229 223/258/229
f 216/251/230 217/240/230 232/261/230
f 210/253/231 225/262/231 224/260/231
f 203/238/232 218/264/232 82/263/232
f 308/265/233 232/261/233 217/240/233
f 210/253/234 211/241/234 226/266/234
f 203/238/235 204/242/235 219/267/235
f 211/241/236 212/243/236 227/268/236
f 204/242/237 205/244/237 220/269/237
f 213/245/238 228/270/238 227/268/238
f 205/244/239 206/246/239 221/254/239
f 213/245/240 214/247/240 229/256/240
f 225/262/241 226/266/241 241/271/241
f 218/264/242 219/267/242 234/272/242
f 226/266/243 227/268/243 242/273/243
f 220/269/244 235/274/244 234/272/244
f 228/270/245 243/275/245 242/273/245
f 220/269/246 221/254/246 236/276/246
f 228/270/247 229/256/247 244/277/247
f 222/255/248 237/278/248 236/276/248
f 230/257/249 245/279/249 244/277/249
f 222/255/250 223/258/250 238/280/250
f 230/257/251 231/259/251 246/281/251
f 224/260/252 239/282/252 238/280/252
f 232/261/253 247/283/253 246/281/253
f 225/262/254 240/284/254 239/282/254
f 218/264/255 233/286/255 82/285/255
f 308/287/256 247/283/256 232/261/256
f 245/279/257 260/289/257 259/288/257
f 237/278/258 238/280/258 253/290/258
f 245/279/259 246/281/259 261/291/259
f 239/282/260 254/292/260 253/290/260
f 246/281/261 247/283/261 262/293/261
f 240/284/262 255/294/262 254/292/262
f 233/286/263 248/296/263 82/295/263
f 308/297/264 262/293/264 247/283/264
f 240/284/265 241/271/265 256/298/265
f 233/286/266 234/272/266 249/299/266
f 241/271/267 242/273/267 257/300/267
f 234/272/268 235/274/268 250/301/268
f 243/275/269 258/302/269 257/300/269
f 235/274/270 236/276/270 251/303/270
f 243/275/271 244/277/271 259/288/271
f 237/278/272 252/304/272 251/303/272
f 256/298/273 257/300/273 272/305/273
f 249/299/274 250/301/274 265/306/274
f 258/302/275 273/307/275 272/305/275
f 250/301/276 251/303/276 266/308/276
f 258/302/277 259/288/277 274/309/277
f 252/304/278 267/310/278 266/308/278
f 260/289/279 275/311/279 274/309/279
f 252/304/280 253/290/280 268/312/280
f 260/289/281 261/291/281 276/313/281
f 254/292/282 269/314/282 268/312/282
f 261/291/283 262/293/283 277/315/283
f 255/294/284 270/316/284 269/314/284
f 248/296/285 263/318/285 82/317/285
f 308/319/286 277/315/286 262/293/286
f 255/294/287 256/298/287 271/320/287
f 249/299/288 264/321/288 263/318/288
f 275/311/289 276/313/289 291/322/289
f 269/314/290 284/324/290 283/323/290
f 277/315/291 292/325/291 291/322/291
f 270/316/292 285/326/292 284/324/292
f 263/318/293 278/328/293 82/327/293
f 308/329/294 292/325/294 277/315/294
f 270/316/295 271/320/295 286/330/295
f 264/321/296 279/331/296 278/328/296
f 271/320/297 272/305/297 287/332/297
f 264/321/298 265/306/298 280/333/298
f 273/307/299 288/334/299 287/332/299
f 265/306/300 266/308/300 281/335/300
f 273/307/301 274/309/301 289/336/301
f 267/310/302 282/337/302 281/335/302
f 275/311/303 290/338/303 289/336/303
f 267/310/304 268/312/304 283/323/304
f 279/331/305 280/333/305 295/339/305
f 288/334/306 303/341/306 302/340/306
f 280/333/307 281/335/307 296/342/307
f 288/334/308 289/336/308 304/343/308
f 282/337/309 297/344/309 296/342/309
f 290/338/310 305/345/310 304/343/310
f 282/337/311 283/323/311 298/346/311
f 290/338/312 291/322/312 306/347/312
f 284/324/313 299/348/313 298/346/313
f 292/325/314 307/349/314 306/347/314
f 285/326/315 300/350/315 299/348/315
f 278/328/316 293/352/316 82/351/316
f 308/353/317 307/349/317 292/325/317
f 285/326/318 286/330/318 301/354/318
f 278/328/319 279/331/319 294/355/319
f 286/330/320 287/332/320 302/340/320
f 299/348/321 315/357/321 314/356/321
f 306/347/322 307/349/322 323/358/322
f 300/350/323 316/359/323 315/357/323
f 293/352/324 309/361/324 82/360/324
f 308/362/325 323/358/325 307/349/325
f 300/350/326 301/354/326 317/363/326
f 293/352/327 294/355/327 310/364/327
f 301/354/328 302/340/328 318/365/328
f 294/355/329 295/339/329 311/366/329
f 303/341/330 319/367/330 318/365/330
f 295/339/331 296/342/331 312/368/331
f 303/341/332 304/343/332 320/369/332
f 297/344/333 313/370/333 312/368/333
f 305/345/334 321/371/334 320/369/334
f 297/344/335 298/346/335 314/356/335
f 305/345/336 306/347/336 322/372/336
f 319/367/337 334/374/337 333/373/337
f 311/366/338 312/368/338 327/375/338
f 319/367/339 320/369/339 335/376/339
f 312/368/340 313/370/340 328/377/340
f 321/371/341 336/378/341 335/376/341
f 313/370/342 314/356/342 329/379/342
f 321/371/343 322/372/343 337/380/343
f 315/357/344 330/381/344 329/379/344
f 322/372/345 323/358/345 338/382/345
f 316/359/346 331/383/346 330/381/346
f 309/361/347 324/385/347 82/384/347
f 308/386/348 338/382/348 323/358/348
f 316/359/349 317/363/349 332/387/349
f 309/361/350 310/364/350 325/388/350
f 317/363/351 318/365/351 333/373/351
f 310/364/352 311/366/352 326/389/352
f 337/380/353 338/382/353 353/390/353
f 331/383/354 346/392/354 345/391/354
f 324/385/355 339/394/355 82/393/355
f 308/395/356 353/390/356 338/382/356
f 331/383/357 332/387/357 347/396/357
f 324/385/358 325/388/358 340/397/358
f 332/387/359 333/373/359 348/398/359
f 325/388/360 326/389/360 341/399/360
f 334/374/361 349/400/361 348/398/361
f 326/389/362 327/375/362 342/401/362
f 334/374/363 335/376/363 350/402/363
f 328/377/364 343/403/364 342/401/364
f 336/378/365 351/404/365 350/402/365
f 328/377/366 329/379/366 344/405/366
f 336/378/367 337/380/367 352/406/367
f 330/381/368 345/391/368 344/405/368
f 341/399/369 342/401/369 357/407/369
f 349/400/370 350/402/370 365/408/370
f 343/403/371 358/409/371 357/407/371
f 351/404/372 366/410/372 365/408/372
f 343/403/373 344/405/373 359/411/373
f 351/404/374 352/406/374 367/412/374
f 345/391/375 360/413/375 359/411/375
f 352/406/376 353/390/376 368/414/376
f 346/392/377 361/415/377 360/413/377
f 339/394/378 354/417/378 82/416/378
f 308/418/379 368/414/379 353/390/379
f 346/392/380 347/396/380 362/419/380
f 339/394/381 340/397/381 355/420/381
f 347/396/382 348/398/382 363/421/382
f 341/399/383 356/422/383 355/420/383
f 349/400/384 364/423/384 363/421/384
f 361/424/385 376/426/385 375/425/385
f 354/427/386 369/429/386 82/428/386
f 308/430/387 383/432/387 368/431/387
f 361/424/388 362/434/388 377/433/388
f 354/427/389 355/436/389 370/435/389
f 362/434/390 363/438/390 378/437/390
f 356/439/391 371/440/391 370/435/391
f 364/441/392 379/442/392 378/437/392
f 356/439/393 357/444/393 372/443/393
f 364/441/394 365/446/394 380/445/394
f 358/447/395 373/448/395 372/443/395
f 366/449/396 381/450/396 380/445/396
f 358/447/397 359/452/397 374/451/397
f 366/449/398 367/454/398 382/453/398
f 360/455/399 375/425/399 374/451/399
f 367/454/400 368/431/400 383/432/400
f 379/442/401 380/445/401 395/456/401
f 373/448/402 388/458/402 387/457/402
f 381/450/403 396/459/403 395/456/403
f 373/448/404 374/451/404 389/460/404
f 381/450/405 382/453/405 397/461/405
f 375/425/406 390/462/406 389/460/406
f 382/453/407 383/432/407 398/463/407
f 376/426/408 391/464/408 390/462/408
f 369/429/409 384/466/409 82/465/409
f 308/467/410 398/463/410 383/432/410
f 376/426/411 377/433/411 392/468/411
f 369/429/412 370/435/412 385/469/412
f 377/433/413 378/437/413 393/470/413
f 371/440/414 386/471/414 385/469/414
f 379/442/415 394/472/415 393/470/415
f 371/440/416 372/443/416 387/457/416
f 308/473/417 413/474/417 398/463/417
f 391/464/418 392/468/418 407/475/418
f 385/469/419 400/477/419 399/476/419
f 392/468/420 393/470/420 408/478/420
f 385/469/421 386/471/421 401/479/421
f 394/472/422 409/480/422 408/478/422
f 386/471/423 387/457/423 402/481/423
f 394/472/424 395/456/424 410/482/424
f 388/458/425 403/483/425 402/481/425
f 396/459/426 411/484/426 410/482/426
f 388/458/427 389/460/427 404/485/427
f 397/461/428 412/486/428 411/484/428
f 390/462/429 405/487/429 404/485/429
f 397/461/430 398/463/430 413/474/430
f 391/464/431 406/488/431 405/487/431
f 384/466/432 399/476/432 82/489/432
f 411/484/433 426/491/433 425/490/433
f 403/483/434 404/485/434 419/492/434
f 411/484/435 412/486/435 427/493/435
f 405/487/436 420/494/436 419/492/436
f 412/486/437 413/474/437 428/495/437
f 406/488/438 421/496/438 420/494/438
f 399/476/439 414/498/439 82/497/439
f 308/499/440 428/495/440 413/474/440
f 406/488/441 407/475/441 422/500/441
f 399/476/442 400/477/442 415/501/442
f 407/475/443 408/478/443 423/502/443
f 401/479/444 416/503/444 415/501/444
f 409/480/445 424/504/445 423/502/445
f 401/479/446 402/481/446 417/505/446
f 409/480/447 410/482/447 425/490/447
f 403/483/448 418/506/448 417/505/448
f 414/498/449 415/501/449 430/507/449
f 422/500/450 423/502/450 438/508/450
f 416/503/451 431/509/451 430/507/451
f 424/504/452 439/510/452 438/508/452
f 416/503/453 417/505/453 432/511/453
f 424/504/454 425/490/454 440/512/454
f 418/506/455 433/513/455 432/511/455
f 426/491/456 441/514/456 440/512/456
f 418/506/457 419/492/457 434/515/457
f 426/491/458 427/493/458 442/516/458
f 420/494/459 435/517/459 434/515/459
f 427/493/460 428/495/460 443/518/460
f 421/496/461 436/519/461 435/517/461
f 414/498/462 429/521/462 82/520/462
f 308/522/463 443/518/463 428/495/463
f 421/496/464 422/500/464 437/523/464
f 433/513/465 434/515/465 449/524/465
f 441/514/466 442/516/466 457/525/466
f 435/517/467 450/526/467 449/524/467
f 442/516/468 443/518/468 458/527/468
f 436/519/469 451/528/469 450/526/469
f 429/521/470 444/530/470 82/529/470
f 308/531/471 458/527/471 443/518/471
f 436/519/472 437/523/472 452/532/472
f 430/507/473 445/533/473 444/530/473
f 437/523/474 438/508/474 453/534/474
f 430/507/475 431/509/475 446/535/475
f 439/510/476 454/536/476 453/534/476
f 431/509/477 432/511/477 447/537/477
f 439/510/478 440/512/478 455/538/478
f 433/513/479 448/539/479 447/537/479
f 441/514/480 456/540/480 455/538/480
f 452/532/481 453/534/481 468/541/481
f 446/535/482 461/543/482 460/542/482
f 454/536/483 469/544/483 468/541/483
f 446/535/484 447/537/484 462/545/484
f 454/536/485 455/538/485 470/546/485
f 448/539/486 463/547/486 462/545/486
f 456/540/487 471/548/487 470/546/487
f 448/539/488 449/524/488 464/549/488
f 456/540/489 457/525/489 472/550/489
f 450/526/490 465/551/490 464/549/490
f 458/527/491 473/552/491 472/550/491
f 451/528/492 466/553/492 465/551/492
f 444/530/493 459/555/493 82/554/493
f 308/556/494 473/552/494 458/527/494
f 451/528/495 452/532/495 467/557/495
f 444/530/496 445/533/496 460/542/496
f 471/548/497 472/550/497 481/6/497
f 465/551/498 3/7/498 477/1/498
f 472/550/499 473/552/499 482/10/499
f 466/553/500 4/12/500 3/7/500
f 459/555/501 474/13/501 82/558/501
f 308/559/502 482/10/502 473/552/502
f 466/553/503 467/557/503 5/18/503
f 460/542/504 475/19/504 474/13/504
f 467/557/505 468/541/505 478/22/505
f 461/543/506 1/23/506 475/19/506
f 468/541/507 469/544/507 6/26/507
f 462/545/508 476/27/508 1/23/508
f 469/544/509 470/546/509 479/30/509
f 463/547/510 2/31/510 476/27/510
f 471/548/511 480/4/511 479/30/511
f 464/549/512 477/1/512 2/31/512
f 477/1/1 11/2/1 2/31/1
f 480/4/2 20/5/2 19/32/2
f 3/7/3 12/3/3 477/1/3
f 481/6/4 21/9/4 20/5/4
f 3/7/513 14/11/513 13/8/513
f 4/12/514 15/17/514 14/11/514
f 475/19/9 7/15/9 474/13/9
f 5/18/10 16/21/10 15/17/10
f 1/23/11 8/20/11 475/19/11
f 478/22/12 17/25/12 16/21/12
f 476/27/13 9/24/13 1/23/13
f 6/26/14 18/29/14 17/25/14
f 2/31/15 10/28/15 476/27/15
f 479/30/16 19/32/16 18/29/16
f 10/28/17 26/33/17 25/49/17
f 19/32/18 33/34/18 18/29/18
f 11/2/19 27/36/19 26/33/19
f 20/5/20 34/35/20 19/32/20
f 13/8/21 27/36/21 12/3/21
f 20/5/22 36/39/22 35/37/22
f 13/8/23 29/40/23 28/38/23
f 14/11/26 30/44/26 29/40/26
f 7/15/27 23/45/27 22/42/27
f 15/17/28 31/46/28 30/44/28
f 8/20/29 24/47/29 23/45/29
f 16/21/30 32/48/30 31/46/30
f 9/24/31 25/49/31 24/47/31
f 17/25/32 33/34/32 32/48/32
f 30/44/33 44/50/33 29/40/33
f 22/42/34 38/52/34 37/65/34
f 30/44/35 46/53/35 45/51/35
f 23/45/515 39/54/515 38/52/515
f 32/48/37 46/53/37 31/46/37
f 24/47/38 40/56/38 39/54/38
f 33/34/39 47/55/39 32/48/39
f 25/49/40 41/58/40 40/56/40
f 34/35/41 48/57/41 33/34/41
f 26/33/42 42/60/42 41/58/42
f 34/35/516 50/61/516 49/59/516
f 27/36/44 43/62/44 42/60/44
f 35/37/45 51/63/45 50/61/45
f 28/38/46 44/50/46 43/62/46
f 48/57/49 64/67/49 63/82/49
f 41/58/50 57/68/50 56/83/50
f 49/59/51 65/69/51 64/67/51
f 43/62/52 57/68/52 42/60/52
f 50/61/53 66/71/53 65/69/53
f 44/50/54 58/70/54 43/62/54
f 44/50/57 60/76/57 59/72/57
f 37/65/58 53/77/58 52/74/58
f 45/51/59 61/78/59 60/76/59
f 38/52/60 54/79/60 53/77/60
f 47/55/61 61/78/61 46/53/61
f 39/54/62 55/81/62 54/79/62
f 47/55/63 63/82/63 62/80/63
f 40/56/64 56/83/64 55/81/64
f 52/74/65 68/84/65 67/98/65
f 60/76/66 76/85/66 75/100/66
f 53/77/67 69/86/67 68/84/67
f 62/80/68 76/85/68 61/78/68
f 54/79/69 70/88/69 69/86/69
f 62/80/70 78/89/70 77/87/70
f 56/83/71 70/88/71 55/81/71
f 63/82/72 79/91/72 78/89/72
f 56/83/73 72/92/73 71/90/73
f 65/69/74 79/91/74 64/67/74
f 58/70/75 72/92/75 57/68/75
f 65/69/517 81/95/517 80/93/517
f 59/72/77 73/94/77 58/70/77
f 59/72/80 75/100/80 74/96/80
f 71/90/81 88/101/81 87/116/81
f 79/91/82 96/102/82 95/117/82
f 73/94/83 88/101/83 72/92/83
f 81/95/84 96/102/84 80/93/84
f 74/96/85 89/103/85 73/94/85
f 74/96/88 91/109/88 90/105/88
f 67/98/89 84/110/89 83/107/89
f 75/100/90 92/111/90 91/109/90
f 68/84/91 85/112/91 84/110/91
f 77/87/92 92/111/92 76/85/92
f 69/86/93 86/114/93 85/112/93
f 77/87/94 94/115/94 93/113/94
f 71/90/95 86/114/95 70/88/95
f 78/89/96 95/117/96 94/115/96
f 91/109/97 107/118/97 106/133/97
f 84/110/98 100/119/98 99/134/98
f 93/113/99 107/118/99 92/111/99
f 85/112/100 101/121/100 100/119/100
f 93/113/101 109/122/101 108/120/101
f 87/116/102 101/121/102 86/114/102
f 95/117/103 109/122/103 94/115/103
f 87/116/104 103/125/104 102/123/104
f 96/102/105 110/124/105 95/117/105
f 89/103/106 103/125/106 88/101/106
f 96/102/107 112/128/107 111/126/107
f 90/105/108 104/127/108 89/103/108
f 90/105/111 106/133/111 105/129/111
f 84/110/112 98/131/112 83/107/112
f 110/124/113 126/135/113 125/151/113
f 104/127/114 118/136/114 103/125/114
f 111/126/115 127/138/115 126/135/115
f 105/129/116 119/137/116 104/127/116
f 105/129/119 121/143/119 120/139/119
f 99/134/120 113/141/120 98/131/120
f 106/133/121 122/145/121 121/143/121
f 99/134/122 115/146/122 114/144/122
f 108/120/123 122/145/123 107/118/123
f 100/119/124 116/148/124 115/146/124
f 108/120/125 124/149/125 123/147/125
f 102/123/126 116/148/126 101/121/126
f 110/124/127 124/149/127 109/122/127
f 102/123/128 118/136/128 117/150/128
f 123/147/129 137/152/129 122/145/129
f 115/146/130 131/154/130 130/168/130
f 123/147/131 139/155/131 138/153/131
f 117/150/132 131/154/132 116/148/132
f 125/151/133 139/155/133 124/149/133
f 117/150/134 133/158/134 132/156/134
f 125/151/135 141/159/135 140/157/135
f 119/137/136 133/158/136 118/136/136
f 126/135/137 142/161/137 141/159/137
f 120/139/138 134/160/138 119/137/138
f 120/139/141 136/166/141 135/162/141
f 113/141/142 129/167/142 128/164/142
f 121/143/143 137/152/143 136/166/143
f 114/144/144 130/168/144 129/167/144
f 142/161/145 156/169/145 141/159/145
f 135/162/146 149/171/146 134/160/146
f 135/162/149 151/176/149 150/172/149
f 128/164/150 144/177/150 143/174/150
f 136/166/151 152/178/151 151/176/151
f 130/168/152 144/177/152 129/167/152
f 138/153/153 152/178/153 137/152/153
f 130/168/154 146/181/154 145/179/154
f 138/153/155 154/182/155 153/180/155
f 132/156/156 146/181/156 131/154/156
f 140/157/157 154/182/157 139/155/157
f 132/156/158 148/185/158 147/183/158
f 140/157/159 156/169/159 155/184/159
f 134/160/160 148/185/160 133/158/160
f 145/179/161 161/186/161 160/201/161
f 153/180/162 169/187/162 168/202/162
f 147/183/163 161/186/163 146/181/163
f 155/184/164 169/187/164 154/182/164
f 147/183/165 163/190/165 162/188/165
f 155/184/518 171/191/518 170/189/518
f 149/171/167 163/190/167 148/185/167
f 156/169/168 172/193/168 171/191/168
f 150/172/169 164/192/169 149/171/169
f 150/172/172 166/198/172 165/194/172
f 143/174/519 159/199/519 158/196/519
f 151/176/174 167/200/174 166/198/174
f 145/179/520 159/199/520 144/177/520
f 153/180/176 167/200/176 152/178/176
f 165/194/177 179/203/177 164/192/177
f 165/194/180 181/209/180 180/204/180
f 158/196/181 174/210/181 173/206/181
f 166/198/182 182/211/182 181/209/182
f 159/199/183 175/212/183 174/210/183
f 168/202/184 182/211/184 167/200/184
f 160/201/185 176/214/185 175/212/185
f 168/202/186 184/215/186 183/213/186
f 162/188/187 176/214/187 161/186/187
f 169/187/188 185/217/188 184/215/188
f 162/188/189 178/218/189 177/216/189
f 171/191/190 185/217/190 170/189/190
f 164/192/191 178/218/191 163/190/191
f 172/193/192 186/219/192 171/191/192
f 183/213/193 199/220/193 198/236/193
f 177/216/194 191/221/194 176/214/194
f 185/217/195 199/220/195 184/215/195
f 177/216/196 193/224/196 192/222/196
f 185/217/197 201/225/197 200/223/197
f 179/203/198 193/224/198 178/218/198
f 186/219/199 202/227/199 201/225/199
f 180/204/200 194/226/200 179/203/200
f 180/204/203 196/232/203 195/228/203
f 174/210/204 188/230/204 173/206/204
f 181/209/205 197/234/205 196/232/205
f 175/212/206 189/233/206 174/210/206
f 183/213/207 197/234/207 182/211/207
f 175/212/208 191/221/208 190/235/208
f 195/228/211 211/241/211 210/253/211
f 188/230/212 204/242/212 203/238/212
f 196/232/213 212/243/213 211/241/213
f 189/233/214 205/244/214 204/242/214
f 198/236/215 212/243/215 197/234/215
f 190/235/216 206/246/216 205/244/216
f 198/236/217 214/247/217 213/245/217
f 192/222/218 206/246/218 191/221/218
f 200/223/219 214/247/219 199/220/219
f 192/222/220 208/250/220 207/248/220
f 200/223/521 216/251/521 215/249/521
f 194/226/222 208/250/222 193/224/222
f 201/225/223 217/240/223 216/251/223
f 195/228/224 209/252/224 194/226/224
f 207/248/225 221/254/225 206/246/225
f 215/249/226 229/256/226 214/247/226
f 207/248/227 223/258/227 222/255/227
f 215/249/228 231/259/228 230/257/228
f 209/252/229 223/258/229 208/250/229
f 216/251/230 232/261/230 231/259/230
f 210/253/231 224/260/231 209/252/231
f 210/253/234 226/266/234 225/262/234
f 203/238/235 219/267/235 218/264/235
f 211/241/236 227/268/236 226/266/236
f 204/242/237 220/269/237 219/267/237
f 213/245/238 227/268/238 212/243/238
f 205/244/239 221/254/239 220/269/239
f 213/245/240 229/256/240 228/270/240
f 225/262/241 241/271/241 240/284/241
f 218/264/242 234/272/242 233/286/242
f 226/266/243 242/273/243 241/271/243
f 220/269/244 234/272/244 219/267/244
f 228/270/245 242/273/245 227/268/245
f 220/269/246 236/276/246 235/274/246
f 228/270/247 244/277/247 243/275/247
f 222/255/248 236/276/248 221/254/248
f 230/257/249 244/277/249 229/256/249
f 222/255/250 238/280/250 237/278/250
f 230/257/251 246/281/251 245/279/251
f 224/260/252 238/280/252 223/258/252
f 232/261/253 246/281/253 231/259/253
f 225/262/254 239/282/254 224/260/254
f 245/279/257 259/288/257 244/277/257
f 237/278/258 253/290/258 252/304/258
f 245/279/259 261/291/259 260/289/259
f 239/282/260 253/290/260 238/280/260
f 246/281/261 262/293/261 261/291/261
f 240/284/522 254/292/522 239/282/522
f 240/284/523 256/298/523 255/294/523
f 233/286/266 249/299/266 248/296/266
f 241/271/267 257/300/267 256/298/267
f 234/272/268 250/301/268 249/299/268
f 243/275/269 257/300/269 242/273/269
f 235/274/270 251/303/270 250/301/270
f 243/275/271 259/288/271 258/302/271
f 237/278/272 251/303/272 236/276/272
f 256/298/273 272/305/273 271/320/273
f 249/299/274 265/306/274 264/321/274
f 258/302/275 272/305/275 257/300/275
f 250/301/276 266/308/276 265/306/276
f 258/302/277 274/309/277 273/307/277
f 252/304/278 266/308/278 251/303/278
f 260/289/279 274/309/279 259/288/279
f 252/304/280 268/312/280 267/310/280
f 260/289/281 276/313/281 275/311/281
f 254/292/282 268/312/282 253/290/282
f 261/291/283 277/315/283 276/313/283
f 255/294/284 269/314/284 254/292/284
f 255/294/287 271/320/287 270/316/287
f 249/299/288 263/318/288 248/296/288
f 275/311/524 291/322/524 290/338/524
f 269/314/290 283/323/290 268/312/290
f 277/315/291 291/322/291 276/313/291
f 270/316/292 284/324/292 269/314/292
f 270/316/295 286/330/295 285/326/295
f 264/321/296 278/328/296 263/318/296
f 271/320/297 287/332/297 286/330/297
f 264/321/525 280/333/525 279/331/525
f 273/307/299 287/332/299 272/305/299
f 265/306/300 281/335/300 280/333/300
f 273/307/301 289/336/301 288/334/301
f 267/310/302 281/335/302 266/308/302
f 275/311/303 289/336/303 274/309/303
f 267/310/304 283/323/304 282/337/304
f 279/331/305 295/339/305 294/355/305
f 288/334/306 302/340/306 287/332/306
f 280/333/307 296/342/307 295/339/307
f 288/334/308 304/343/308 303/341/308
f 282/337/309 296/342/309 281/335/309
f 290/338/310 304/343/310 289/336/310
f 282/337/311 298/346/311 297/344/311
f 290/338/312 306/347/312 305/345/312
f 284/324/313 298/346/313 283/323/313
f 292/325/314 306/347/314 291/322/314
f 285/326/315 299/348/315 284/324/315
f 285/326/318 301/354/318 300/350/318
f 278/328/319 294/355/319 293/352/319
f 286/330/320 302/340/320 301/354/320
f 299/348/321 314/356/321 298/346/321
f 306/347/526 323/358/526 322/372/526
f 300/350/323 315/357/323 299/348/323
f 300/350/326 317/363/326 316/359/326
f 293/352/327 310/364/327 309/361/327
f 301/354/328 318/365/328 317/363/328
f 294/355/329 311/366/329 310/364/329
f 303/341/330 318/365/330 302/340/330
f 295/339/331 312/368/331 311/366/331
f 303/341/332 320/369/332 319/367/332
f 297/344/333 312/368/333 296/342/333
f 305/345/334 320/369/334 304/343/334
f 297/344/335 314/356/335 313/370/335
f 305/345/336 322/372/336 321/371/336
f 319/367/337 333/373/337 318/365/337
f 311/366/338 327/375/338 326/389/338
f 319/367/339 335/376/339 334/374/339
f 312/368/340 328/377/340 327/375/340
f 321/371/341 335/376/341 320/369/341
f 313/370/342 329/379/342 328/377/342
f 321/371/527 337/380/527 336/378/527
f 315/357/344 329/379/344 314/356/344
f 322/372/345 338/382/345 337/380/345
f 316/359/346 330/381/346 315/357/346
f 316/359/349 332/387/349 331/383/349
f 309/361/350 325/388/350 324/385/350
f 317/363/351 333/373/351 332/387/351
f 310/364/352 326/389/352 325/388/352
f 337/380/353 353/390/353 352/406/353
f 331/383/354 345/391/354 330/381/354
f 331/383/357 347/396/357 346/392/357
f 324/385/358 340/397/358 339/394/358
f 332/387/359 348/398/359 347/396/359
f 325/388/360 341/399/360 340/397/360
f 334/374/361 348/398/361 333/373/361
f 326/389/362 342/401/362 341/399/362
f 334/374/363 350/402/363 349/400/363
f 328/377/364 342/401/364 327/375/364
f 336/378/365 350/402/365 335/376/365
f 328/377/366 344/405/366 343/403/366
f 336/378/367 352/406/367 351/404/367
f 330/381/368 344/405/368 329/379/368
f 341/399/369 357/407/369 356/422/369
f 349/400/370 365/408/370 364/423/370
f 343/403/371 357/407/371 342/401/371
f 351/404/372 365/408/372 350/402/372
f 343/403/373 359/411/373 358/409/373
f 351/404/374 367/412/374 366/410/374
f 345/391/375 359/411/375 344/405/375
f 352/406/376 368/414/376 367/412/376
f 346/392/528 360/413/528 345/391/528
f 346/392/529 362/419/529 361/415/529
f 339/394/381 355/420/381 354/417/381
f 347/396/382 363/421/382 362/419/382
f 341/399/383 355/420/383 340/397/383
f 349/400/384 363/421/384 348/398/384
f 361/424/530 375/425/530 360/455/530
f 361/424/531 377/433/531 376/426/531
f 354/427/389 370/435/389 369/429/389
f 362/434/390 378/437/390 377/433/390
f 356/439/391 370/435/391 355/436/391
f 364/441/392 378/437/392 363/438/392
f 356/439/393 372/443/393 371/440/393
f 364/441/394 380/445/394 379/442/394
f 358/447/395 372/443/395 357/444/395
f 366/449/396 380/445/396 365/446/396
f 358/447/397 374/451/397 373/448/397
f 366/449/398 382/453/398 381/450/398
f 360/455/399 374/451/399 359/452/399
f 367/454/400 383/432/400 382/453/400
f 379/442/401 395/456/401 394/472/401
f 373/448/402 387/457/402 372/443/402
f 381/450/403 395/456/403 380/445/403
f 373/448/404 389/460/404 388/458/404
f 381/450/405 397/461/405 396/459/405
f 375/425/406 389/460/406 374/451/406
f 382/453/407 398/463/407 397/461/407
f 376/426/408 390/462/408 375/425/408
f 376/426/411 392/468/411 391/464/411
f 369/429/412 385/469/412 384/466/412
f 377/433/413 393/470/413 392/468/413
f 371/440/414 385/469/414 370/435/414
f 379/442/415 393/470/415 378/437/415
f 371/440/416 387/457/416 386/471/416
f 391/464/418 407/475/418 406/488/418
f 385/469/419 399/476/419 384/466/419
f 392/468/420 408/478/420 407/475/420
f 385/469/421 401/479/421 400/477/421
f 394/472/422 408/478/422 393/470/422
f 386/471/423 402/481/423 401/479/423
f 394/472/424 410/482/424 409/480/424
f 388/458/425 402/481/425 387/457/425
f 396/459/426 410/482/426 395/456/426
f 388/458/427 404/485/427 403/483/427
f 397/461/428 411/484/428 396/459/428
f 390/462/429 404/485/429 389/460/429
f 397/461/430 413/474/430 412/486/430
f 391/464/431 405/487/431 390/462/431
f 411/484/433 425/490/433 410/482/433
f 403/483/434 419/492/434 418/506/434
f 411/484/435 427/493/435 426/491/435
f 405/487/436 419/492/436 404/485/436
f 412/486/437 428/495/437 427/493/437
f 406/488/438 420/494/438 405/487/438
f 406/488/441 422/500/441 421/496/441
f 399/476/442 415/501/442 414/498/442
f 407/475/443 423/502/443 422/500/443
f 401/479/444 415/501/444 400/477/444
f 409/480/445 423/502/445 408/478/445
f 401/479/446 417/505/446 416/503/446
f 409/480/447 425/490/447 424/504/447
f 403/483/448 417/505/448 402/481/448
f 414/498/449 430/507/449 429/521/449
f 422/500/450 438/508/450 437/523/450
f 416/503/451 430/507/451 415/501/451
f 424/504/452 438/508/452 423/502/452
f 416/503/453 432/511/453 431/509/453
f 424/504/454 440/512/454 439/510/454
f 418/506/455 432/511/455 417/505/455
f 426/491/456 440/512/456 425/490/456
f 418/506/457 434/515/457 433/513/457
f 426/491/458 442/516/458 441/514/458
f 420/494/459 434/515/459 419/492/459
f 427/493/460 443/518/460 442/516/460
f 421/496/461 435/517/461 420/494/461
f 421/496/464 437/523/464 436/519/464
f 433/513/465 449/524/465 448/539/465
f 441/514/466 457/525/466 456/540/466
f 435/517/467 449/524/467 434/515/467
f 442/516/468 458/527/468 457/525/468
f 436/519/469 450/526/469 435/517/469
f 436/519/472 452/532/472 451/528/472
f 430/507/473 444/530/473 429/521/473
f 437/523/474 453/534/474 452/532/474
f 430/507/475 446/535/475 445/533/475
f 439/510/476 453/534/476 438/508/476
f 431/509/477 447/537/477 446/535/477
f 439/510/478 455/538/478 454/536/478
f 433/513/479 447/537/479 432/511/479
f 441/514/480 455/538/480 440/512/480
f 452/532/481 468/541/481 467/557/481
f 446/535/482 460/542/482 445/533/482
f 454/536/483 468/541/483 453/534/483
f 446/535/484 462/545/484 461/543/484
f 454/536/485 470/546/485 469/544/485
f 448/539/486 462/545/486 447/537/486
f 456/540/487 470/546/487 455/538/487
f 448/539/488 464/549/488 463/547/488
f 456/540/489 472/550/489 471/548/489
f 450/526/490 464/549/490 449/524/490
f 458/527/491 472/550/491 457/525/491
f 451/528/492 465/551/492 450/526/492
f 451/528/495 467/557/495 466/553/495
f 444/530/496 460/542/496 459/555/496
f 471/548/497 481/6/497 480/4/497
f 465/551/498 477/1/498 464/549/498
f 472/550/499 482/10/499 481/6/499
f 466/553/500 3/7/500 465/551/500
f 466/553/503 5/18/503 4/12/503
f 460/542/504 474/13/504 459/555/504
f 467/557/505 478/22/505 5/18/505
f 461/543/506 475/19/506 460/542/506
f 468/541/507 6/26/507 478/22/507
f 462/545/508 1/23/508 461/543/508
f 469/544/509 479/30/509 6/26/509
f 463/547/510 476/27/510 462/545/510
f 471/548/511 479/30/511 470/546/511
f 464/549/512 2/31/512 463/547/512
