# Blender 4.1.1
# www.blender.org
mtllib ClearText_03.mtl
o ア
v 0.306342 0.204798 -0.100000
v 0.306409 0.213976 -0.100000
v 0.305900 0.222626 -0.100000
v 0.304830 0.230756 -0.100000
v 0.303217 0.238374 -0.100000
v 0.301075 0.245488 -0.100000
v 0.298422 0.252105 -0.100000
v 0.295272 0.258235 -0.100000
v 0.291643 0.263885 -0.100000
v 0.287549 0.269063 -0.100000
v 0.283007 0.273776 -0.100000
v 0.278034 0.278034 -0.100000
v 0.264943 0.284805 -0.100000
v 0.246334 0.289896 -0.100000
v 0.223250 0.293515 -0.100000
v 0.196734 0.295870 -0.100000
v 0.167829 0.297168 -0.100000
v 0.137577 0.297619 -0.100000
v 0.107021 0.297430 -0.100000
v 0.077203 0.296808 -0.100000
v 0.049167 0.295963 -0.100000
v 0.023955 0.295102 -0.100000
v 0.002610 0.294432 -0.100000
v -0.013825 0.294163 -0.100000
v -0.020060 0.294163 -0.100000
v -0.026455 0.294163 -0.100000
v -0.032978 0.294163 -0.100000
v -0.039597 0.294163 -0.100000
v -0.046280 0.294163 -0.100000
v -0.052995 0.294163 -0.100000
v -0.059710 0.294163 -0.100000
v -0.066394 0.294163 -0.100000
v -0.073013 0.294163 -0.100000
v -0.079536 0.294163 -0.100000
v -0.085931 0.294163 -0.100000
v -0.092166 0.294163 -0.100000
v -0.107749 0.294011 -0.100000
v -0.126710 0.293459 -0.100000
v -0.148270 0.292363 -0.100000
v -0.171645 0.290579 -0.100000
v -0.196055 0.287962 -0.100000
v -0.220718 0.284370 -0.100000
v -0.244853 0.279658 -0.100000
v -0.267679 0.273682 -0.100000
v -0.288414 0.266297 -0.100000
v -0.306277 0.257360 -0.100000
v -0.320487 0.246728 -0.100000
v -0.330261 0.234255 -0.100000
v -0.332116 0.230197 -0.100000
v -0.333838 0.225412 -0.100000
v -0.335422 0.220034 -0.100000
v -0.336861 0.214200 -0.100000
v -0.338151 0.208047 -0.100000
v -0.339286 0.201709 -0.100000
v -0.340261 0.195323 -0.100000
v -0.341071 0.189025 -0.100000
v -0.341710 0.182952 -0.100000
v -0.342173 0.177238 -0.100000
v -0.342455 0.172020 -0.100000
v -0.342550 0.167435 -0.100000
v -0.340088 0.147599 -0.100000
v -0.333092 0.124787 -0.100000
v -0.322149 0.099894 -0.100000
v -0.307845 0.073818 -0.100000
v -0.290769 0.047454 -0.100000
v -0.271505 0.021697 -0.100000
v -0.250642 -0.002555 -0.100000
v -0.228765 -0.024407 -0.100000
v -0.206461 -0.042963 -0.100000
v -0.184318 -0.057326 -0.100000
v -0.162921 -0.066602 -0.100000
v -0.142857 -0.069892 -0.100000
v -0.135033 -0.068863 -0.100000
v -0.126351 -0.065946 -0.100000
v -0.117103 -0.061396 -0.100000
v -0.107584 -0.055470 -0.100000
v -0.098085 -0.048424 -0.100000
v -0.088902 -0.040515 -0.100000
v -0.080326 -0.031997 -0.100000
v -0.072652 -0.023127 -0.100000
v -0.066172 -0.014161 -0.100000
v -0.061181 -0.005355 -0.100000
v -0.057971 0.003035 -0.100000
v -0.056836 0.010753 -0.100000
v -0.058528 0.017666 -0.100000
v -0.063208 0.025605 -0.100000
v -0.070276 0.034382 -0.100000
v -0.079138 0.043807 -0.100000
v -0.089193 0.053691 -0.100000
v -0.099846 0.063844 -0.100000
v -0.110500 0.074077 -0.100000
v -0.120555 0.084201 -0.100000
v -0.129416 0.094026 -0.100000
v -0.136485 0.103363 -0.100000
v -0.141165 0.112023 -0.100000
v -0.142857 0.119816 -0.100000
v -0.141590 0.127035 -0.100000
v -0.138032 0.133025 -0.100000
v -0.132548 0.137901 -0.100000
v -0.125505 0.141776 -0.100000
v -0.117267 0.144766 -0.100000
v -0.108199 0.146985 -0.100000
v -0.098667 0.148549 -0.100000
v -0.089037 0.149570 -0.100000
v -0.079673 0.150166 -0.100000
v -0.070941 0.150449 -0.100000
v -0.063207 0.150535 -0.100000
v -0.056836 0.150538 -0.100000
v -0.032895 0.150054 -0.100000
v -0.009060 0.148717 -0.100000
v 0.014689 0.146697 -0.100000
v 0.038374 0.144166 -0.100000
v 0.062016 0.141293 -0.100000
v 0.085637 0.138249 -0.100000
v 0.109259 0.135205 -0.100000
v 0.132901 0.132332 -0.100000
v 0.156586 0.129800 -0.100000
v 0.180335 0.127781 -0.100000
v 0.204170 0.126444 -0.100000
v 0.228111 0.125960 -0.100000
v 0.235959 0.126059 -0.100000
v 0.244044 0.126493 -0.100000
v 0.252220 0.127472 -0.100000
v 0.260340 0.129203 -0.100000
v 0.268258 0.131894 -0.100000
v 0.275826 0.135753 -0.100000
v 0.282898 0.140988 -0.100000
v 0.289327 0.147807 -0.100000
v 0.294967 0.156418 -0.100000
v 0.299671 0.167029 -0.100000
v 0.303292 0.179849 -0.100000
v 0.305684 0.195084 -0.100000
v -0.023448 0.018053 -0.100000
v -0.024247 -0.010980 -0.100000
v -0.024806 -0.038306 -0.100000
v -0.024492 -0.064289 -0.100000
v -0.022675 -0.089289 -0.100000
v -0.018721 -0.113671 -0.100000
v -0.011999 -0.137797 -0.100000
v -0.001877 -0.162030 -0.100000
v 0.012277 -0.186732 -0.100000
v 0.031095 -0.212266 -0.100000
v 0.055210 -0.238995 -0.100000
v 0.085253 -0.267281 -0.100000
v 0.091535 -0.272577 -0.100000
v 0.097741 -0.277330 -0.100000
v 0.103927 -0.281538 -0.100000
v 0.110144 -0.285202 -0.100000
v 0.116447 -0.288322 -0.100000
v 0.122888 -0.290899 -0.100000
v 0.129521 -0.292931 -0.100000
v 0.136400 -0.294419 -0.100000
v 0.143577 -0.295363 -0.100000
v 0.151107 -0.295763 -0.100000
v 0.159041 -0.295619 -0.100000
v 0.167435 -0.294931 -0.100000
v 0.176509 -0.292971 -0.100000
v 0.186263 -0.289174 -0.100000
v 0.196417 -0.283782 -0.100000
v 0.206691 -0.277038 -0.100000
v 0.216805 -0.269185 -0.100000
v 0.226479 -0.260465 -0.100000
v 0.235432 -0.251121 -0.100000
v 0.243386 -0.241395 -0.100000
v 0.250060 -0.231531 -0.100000
v 0.255174 -0.221771 -0.100000
v 0.258447 -0.212357 -0.100000
v 0.259601 -0.203533 -0.100000
v 0.259522 -0.201644 -0.100000
v 0.259291 -0.199817 -0.100000
v 0.258917 -0.198049 -0.100000
v 0.258406 -0.196336 -0.100000
v 0.257767 -0.194677 -0.100000
v 0.257008 -0.193068 -0.100000
v 0.256138 -0.191508 -0.100000
v 0.255163 -0.189993 -0.100000
v 0.254092 -0.188520 -0.100000
v 0.252934 -0.187088 -0.100000
v 0.251695 -0.185692 -0.100000
v 0.250384 -0.184332 -0.100000
v 0.246337 -0.180521 -0.100000
v 0.242263 -0.176762 -0.100000
v 0.238167 -0.173039 -0.100000
v 0.234056 -0.169341 -0.100000
v 0.229934 -0.165653 -0.100000
v 0.225806 -0.161962 -0.100000
v 0.221679 -0.158256 -0.100000
v 0.217557 -0.154520 -0.100000
v 0.213446 -0.150742 -0.100000
v 0.209350 -0.146907 -0.100000
v 0.205276 -0.143003 -0.100000
v 0.201229 -0.139017 -0.100000
v 0.198396 -0.136090 -0.100000
v 0.195657 -0.133072 -0.100000
v 0.193008 -0.129968 -0.100000
v 0.190448 -0.126785 -0.100000
v 0.187972 -0.123527 -0.100000
v 0.185580 -0.120200 -0.100000
v 0.183267 -0.116808 -0.100000
v 0.181032 -0.113358 -0.100000
v 0.178871 -0.109855 -0.100000
v 0.176783 -0.106304 -0.100000
v 0.174764 -0.102710 -0.100000
v 0.172811 -0.099078 -0.100000
v 0.167381 -0.087833 -0.100000
v 0.162592 -0.076385 -0.100000
v 0.158410 -0.064756 -0.100000
v 0.154805 -0.052967 -0.100000
v 0.151743 -0.041039 -0.100000
v 0.149194 -0.028994 -0.100000
v 0.147124 -0.016853 -0.100000
v 0.145503 -0.004637 -0.100000
v 0.144297 0.007632 -0.100000
v 0.143476 0.019934 -0.100000
v 0.143006 0.032246 -0.100000
v 0.142857 0.044547 -0.100000
v 0.142824 0.047634 -0.100000
v 0.142722 0.050745 -0.100000
v 0.142545 0.053871 -0.100000
v 0.142288 0.057006 -0.100000
v 0.141946 0.060141 -0.100000
v 0.141513 0.063268 -0.100000
v 0.140984 0.066379 -0.100000
v 0.140354 0.069466 -0.100000
v 0.139617 0.072521 -0.100000
v 0.138768 0.075535 -0.100000
v 0.137802 0.078502 -0.100000
v 0.136713 0.081413 -0.100000
v 0.132853 0.089001 -0.100000
v 0.128239 0.095327 -0.100000
v 0.122948 0.100506 -0.100000
v 0.117056 0.104654 -0.100000
v 0.110642 0.107884 -0.100000
v 0.103783 0.110311 -0.100000
v 0.096555 0.112050 -0.100000
v 0.089037 0.113216 -0.100000
v 0.081305 0.113923 -0.100000
v 0.073438 0.114286 -0.100000
v 0.065511 0.114420 -0.100000
v 0.057604 0.114439 -0.100000
v 0.043916 0.114431 -0.100000
v 0.031629 0.114244 -0.100000
v 0.020701 0.113635 -0.100000
v 0.011094 0.112363 -0.100000
v 0.002767 0.110184 -0.100000
v -0.004320 0.106855 -0.100000
v -0.010207 0.102134 -0.100000
v -0.014934 0.095779 -0.100000
v -0.018541 0.087546 -0.100000
v -0.021068 0.077193 -0.100000
v -0.022555 0.064477 -0.100000
v -0.023041 0.049155 -0.100000
v 0.306342 0.204798 0.100000
v 0.306409 0.213976 0.100000
v 0.305900 0.222626 0.100000
v 0.304830 0.230756 0.100000
v 0.303217 0.238374 0.100000
v 0.301075 0.245488 0.100000
v 0.298422 0.252105 0.100000
v 0.295272 0.258235 0.100000
v 0.291643 0.263885 0.100000
v 0.287549 0.269063 0.100000
v 0.283007 0.273776 0.100000
v 0.278034 0.278034 0.100000
v 0.264943 0.284805 0.100000
v 0.246334 0.289896 0.100000
v 0.223250 0.293515 0.100000
v 0.196734 0.295870 0.100000
v 0.167829 0.297168 0.100000
v 0.137577 0.297619 0.100000
v 0.107021 0.297430 0.100000
v 0.077203 0.296808 0.100000
v 0.049167 0.295963 0.100000
v 0.023955 0.295102 0.100000
v 0.002610 0.294432 0.100000
v -0.013825 0.294163 0.100000
v -0.020060 0.294163 0.100000
v -0.026455 0.294163 0.100000
v -0.032978 0.294163 0.100000
v -0.039597 0.294163 0.100000
v -0.046280 0.294163 0.100000
v -0.052995 0.294163 0.100000
v -0.059710 0.294163 0.100000
v -0.066394 0.294163 0.100000
v -0.073013 0.294163 0.100000
v -0.079536 0.294163 0.100000
v -0.085931 0.294163 0.100000
v -0.092166 0.294163 0.100000
v -0.107749 0.294011 0.100000
v -0.126710 0.293459 0.100000
v -0.148270 0.292363 0.100000
v -0.171645 0.290579 0.100000
v -0.196055 0.287962 0.100000
v -0.220718 0.284370 0.100000
v -0.244853 0.279658 0.100000
v -0.267679 0.273682 0.100000
v -0.288414 0.266297 0.100000
v -0.306277 0.257360 0.100000
v -0.320487 0.246728 0.100000
v -0.330261 0.234255 0.100000
v -0.332116 0.230197 0.100000
v -0.333838 0.225412 0.100000
v -0.335422 0.220034 0.100000
v -0.336861 0.214200 0.100000
v -0.338151 0.208047 0.100000
v -0.339286 0.201709 0.100000
v -0.340261 0.195323 0.100000
v -0.341071 0.189025 0.100000
v -0.341710 0.182952 0.100000
v -0.342173 0.177238 0.100000
v -0.342455 0.172020 0.100000
v -0.342550 0.167435 0.100000
v -0.340088 0.147599 0.100000
v -0.333092 0.124787 0.100000
v -0.322149 0.099894 0.100000
v -0.307845 0.073818 0.100000
v -0.290769 0.047454 0.100000
v -0.271505 0.021697 0.100000
v -0.250642 -0.002555 0.100000
v -0.228765 -0.024407 0.100000
v -0.206461 -0.042963 0.100000
v -0.184318 -0.057326 0.100000
v -0.162921 -0.066602 0.100000
v -0.142857 -0.069892 0.100000
v -0.135033 -0.068863 0.100000
v -0.126351 -0.065946 0.100000
v -0.117103 -0.061396 0.100000
v -0.107584 -0.055470 0.100000
v -0.098085 -0.048424 0.100000
v -0.088902 -0.040515 0.100000
v -0.080326 -0.031997 0.100000
v -0.072652 -0.023127 0.100000
v -0.066172 -0.014161 0.100000
v -0.061181 -0.005355 0.100000
v -0.057971 0.003035 0.100000
v -0.056836 0.010753 0.100000
v -0.058528 0.017666 0.100000
v -0.063208 0.025605 0.100000
v -0.070276 0.034382 0.100000
v -0.079138 0.043807 0.100000
v -0.089193 0.053691 0.100000
v -0.099846 0.063844 0.100000
v -0.110500 0.074077 0.100000
v -0.120555 0.084201 0.100000
v -0.129416 0.094026 0.100000
v -0.136485 0.103363 0.100000
v -0.141165 0.112023 0.100000
v -0.142857 0.119816 0.100000
v -0.141590 0.127035 0.100000
v -0.138032 0.133025 0.100000
v -0.132548 0.137901 0.100000
v -0.125505 0.141776 0.100000
v -0.117267 0.144766 0.100000
v -0.108199 0.146985 0.100000
v -0.098667 0.148549 0.100000
v -0.089037 0.149570 0.100000
v -0.079673 0.150166 0.100000
v -0.070941 0.150449 0.100000
v -0.063207 0.150535 0.100000
v -0.056836 0.150538 0.100000
v -0.032895 0.150054 0.100000
v -0.009060 0.148717 0.100000
v 0.014689 0.146697 0.100000
v 0.038374 0.144166 0.100000
v 0.062016 0.141293 0.100000
v 0.085637 0.138249 0.100000
v 0.109259 0.135205 0.100000
v 0.132901 0.132332 0.100000
v 0.156586 0.129800 0.100000
v 0.180335 0.127781 0.100000
v 0.204170 0.126444 0.100000
v 0.228111 0.125960 0.100000
v 0.235959 0.126059 0.100000
v 0.244044 0.126493 0.100000
v 0.252220 0.127472 0.100000
v 0.260340 0.129203 0.100000
v 0.268258 0.131894 0.100000
v 0.275826 0.135753 0.100000
v 0.282898 0.140988 0.100000
v 0.289327 0.147807 0.100000
v 0.294967 0.156418 0.100000
v 0.299671 0.167029 0.100000
v 0.303292 0.179849 0.100000
v 0.305684 0.195084 0.100000
v -0.023448 0.018053 0.100000
v -0.024247 -0.010980 0.100000
v -0.024806 -0.038306 0.100000
v -0.024492 -0.064289 0.100000
v -0.022675 -0.089289 0.100000
v -0.018721 -0.113671 0.100000
v -0.011999 -0.137797 0.100000
v -0.001877 -0.162030 0.100000
v 0.012277 -0.186732 0.100000
v 0.031095 -0.212266 0.100000
v 0.055210 -0.238995 0.100000
v 0.085253 -0.267281 0.100000
v 0.091535 -0.272577 0.100000
v 0.097741 -0.277330 0.100000
v 0.103927 -0.281538 0.100000
v 0.110144 -0.285202 0.100000
v 0.116447 -0.288322 0.100000
v 0.122888 -0.290899 0.100000
v 0.129521 -0.292931 0.100000
v 0.136400 -0.294419 0.100000
v 0.143577 -0.295363 0.100000
v 0.151107 -0.295763 0.100000
v 0.159041 -0.295619 0.100000
v 0.167435 -0.294931 0.100000
v 0.176509 -0.292971 0.100000
v 0.186263 -0.289174 0.100000
v 0.196417 -0.283782 0.100000
v 0.206691 -0.277038 0.100000
v 0.216805 -0.269185 0.100000
v 0.226479 -0.260465 0.100000
v 0.235432 -0.251121 0.100000
v 0.243386 -0.241395 0.100000
v 0.250060 -0.231531 0.100000
v 0.255174 -0.221771 0.100000
v 0.258447 -0.212357 0.100000
v 0.259601 -0.203533 0.100000
v 0.259522 -0.201644 0.100000
v 0.259291 -0.199817 0.100000
v 0.258917 -0.198049 0.100000
v 0.258406 -0.196336 0.100000
v 0.257767 -0.194677 0.100000
v 0.257008 -0.193068 0.100000
v 0.256138 -0.191508 0.100000
v 0.255163 -0.189993 0.100000
v 0.254092 -0.188520 0.100000
v 0.252934 -0.187088 0.100000
v 0.251695 -0.185692 0.100000
v 0.250384 -0.184332 0.100000
v 0.246337 -0.180521 0.100000
v 0.242263 -0.176762 0.100000
v 0.238167 -0.173039 0.100000
v 0.234056 -0.169341 0.100000
v 0.229934 -0.165653 0.100000
v 0.225806 -0.161962 0.100000
v 0.221679 -0.158256 0.100000
v 0.217557 -0.154520 0.100000
v 0.213446 -0.150742 0.100000
v 0.209350 -0.146907 0.100000
v 0.205276 -0.143003 0.100000
v 0.201229 -0.139017 0.100000
v 0.198396 -0.136090 0.100000
v 0.195657 -0.133072 0.100000
v 0.193008 -0.129968 0.100000
v 0.190448 -0.126785 0.100000
v 0.187972 -0.123527 0.100000
v 0.185580 -0.120200 0.100000
v 0.183267 -0.116808 0.100000
v 0.181032 -0.113358 0.100000
v 0.178871 -0.109855 0.100000
v 0.176783 -0.106304 0.100000
v 0.174764 -0.102710 0.100000
v 0.172811 -0.099078 0.100000
v 0.167381 -0.087833 0.100000
v 0.162592 -0.076385 0.100000
v 0.158410 -0.064756 0.100000
v 0.154805 -0.052967 0.100000
v 0.151743 -0.041039 0.100000
v 0.149194 -0.028994 0.100000
v 0.147124 -0.016853 0.100000
v 0.145503 -0.004637 0.100000
v 0.144297 0.007632 0.100000
v 0.143476 0.019934 0.100000
v 0.143006 0.032246 0.100000
v 0.142857 0.044547 0.100000
v 0.142824 0.047634 0.100000
v 0.142722 0.050745 0.100000
v 0.142545 0.053871 0.100000
v 0.142288 0.057006 0.100000
v 0.141946 0.060141 0.100000
v 0.141513 0.063268 0.100000
v 0.140984 0.066379 0.100000
v 0.140354 0.069466 0.100000
v 0.139617 0.072521 0.100000
v 0.138768 0.075535 0.100000
v 0.137802 0.078502 0.100000
v 0.136713 0.081413 0.100000
v 0.132853 0.089001 0.100000
v 0.128239 0.095327 0.100000
v 0.122948 0.100506 0.100000
v 0.117056 0.104654 0.100000
v 0.110642 0.107884 0.100000
v 0.103783 0.110311 0.100000
v 0.096555 0.112050 0.100000
v 0.089037 0.113216 0.100000
v 0.081305 0.113923 0.100000
v 0.073438 0.114286 0.100000
v 0.065511 0.114420 0.100000
v 0.057604 0.114439 0.100000
v 0.043916 0.114431 0.100000
v 0.031629 0.114244 0.100000
v 0.020701 0.113635 0.100000
v 0.011094 0.112363 0.100000
v 0.002767 0.110184 0.100000
v -0.004320 0.106855 0.100000
v -0.010207 0.102134 0.100000
v -0.014934 0.095779 0.100000
v -0.018541 0.087546 0.100000
v -0.021068 0.077193 0.100000
v -0.022555 0.064477 0.100000
v -0.023041 0.049155 0.100000
v 0.306342 0.204798 0.100000
v 0.306342 0.204798 -0.100000
v 0.306409 0.213976 0.100000
v 0.306409 0.213976 -0.100000
v 0.305900 0.222626 0.100000
v 0.305900 0.222626 -0.100000
v 0.304830 0.230756 0.100000
v 0.304830 0.230756 -0.100000
v 0.303217 0.238374 0.100000
v 0.303217 0.238374 -0.100000
v 0.301075 0.245488 0.100000
v 0.301075 0.245488 -0.100000
v 0.298422 0.252105 0.100000
v 0.298422 0.252105 -0.100000
v 0.295272 0.258235 0.100000
v 0.295272 0.258235 -0.100000
v 0.291643 0.263885 0.100000
v 0.291643 0.263885 -0.100000
v 0.287549 0.269063 0.100000
v 0.287549 0.269063 -0.100000
v 0.283007 0.273776 0.100000
v 0.283007 0.273776 -0.100000
v 0.278034 0.278034 0.100000
v 0.278034 0.278034 -0.100000
v 0.264943 0.284805 0.100000
v 0.264943 0.284805 -0.100000
v 0.246334 0.289896 0.100000
v 0.246334 0.289896 -0.100000
v 0.223250 0.293515 0.100000
v 0.223250 0.293515 -0.100000
v 0.196734 0.295870 0.100000
v 0.196734 0.295870 -0.100000
v 0.167829 0.297168 0.100000
v 0.167829 0.297168 -0.100000
v 0.137577 0.297619 0.100000
v 0.137577 0.297619 -0.100000
v 0.107021 0.297430 0.100000
v 0.107021 0.297430 -0.100000
v 0.077203 0.296808 0.100000
v 0.077203 0.296808 -0.100000
v 0.049167 0.295963 0.100000
v 0.049167 0.295963 -0.100000
v 0.023955 0.295102 0.100000
v 0.023955 0.295102 -0.100000
v 0.002610 0.294432 0.100000
v 0.002610 0.294432 -0.100000
v -0.013825 0.294163 0.100000
v -0.013825 0.294163 -0.100000
v -0.020060 0.294163 0.100000
v -0.020060 0.294163 -0.100000
v -0.026455 0.294163 0.100000
v -0.026455 0.294163 -0.100000
v -0.032978 0.294163 0.100000
v -0.032978 0.294163 -0.100000
v -0.039597 0.294163 0.100000
v -0.039597 0.294163 -0.100000
v -0.046280 0.294163 0.100000
v -0.046280 0.294163 -0.100000
v -0.052995 0.294163 0.100000
v -0.052995 0.294163 -0.100000
v -0.059710 0.294163 0.100000
v -0.059710 0.294163 -0.100000
v -0.066394 0.294163 0.100000
v -0.066394 0.294163 -0.100000
v -0.073013 0.294163 0.100000
v -0.073013 0.294163 -0.100000
v -0.079536 0.294163 0.100000
v -0.079536 0.294163 -0.100000
v -0.085931 0.294163 0.100000
v -0.085931 0.294163 -0.100000
v -0.092166 0.294163 0.100000
v -0.092166 0.294163 -0.100000
v -0.107749 0.294011 0.100000
v -0.107749 0.294011 -0.100000
v -0.126710 0.293459 0.100000
v -0.126710 0.293459 -0.100000
v -0.148270 0.292363 0.100000
v -0.148270 0.292363 -0.100000
v -0.171645 0.290579 0.100000
v -0.171645 0.290579 -0.100000
v -0.196055 0.287962 0.100000
v -0.196055 0.287962 -0.100000
v -0.220718 0.284370 0.100000
v -0.220718 0.284370 -0.100000
v -0.244853 0.279658 0.100000
v -0.244853 0.279658 -0.100000
v -0.267679 0.273682 0.100000
v -0.267679 0.273682 -0.100000
v -0.288414 0.266297 0.100000
v -0.288414 0.266297 -0.100000
v -0.306277 0.257360 0.100000
v -0.306277 0.257360 -0.100000
v -0.320487 0.246728 0.100000
v -0.320487 0.246728 -0.100000
v -0.330261 0.234255 0.100000
v -0.330261 0.234255 -0.100000
v -0.332116 0.230197 0.100000
v -0.332116 0.230197 -0.100000
v -0.333838 0.225412 0.100000
v -0.333838 0.225412 -0.100000
v -0.335422 0.220034 0.100000
v -0.335422 0.220034 -0.100000
v -0.336861 0.214200 0.100000
v -0.336861 0.214200 -0.100000
v -0.338151 0.208047 0.100000
v -0.338151 0.208047 -0.100000
v -0.339286 0.201709 0.100000
v -0.339286 0.201709 -0.100000
v -0.340261 0.195323 0.100000
v -0.340261 0.195323 -0.100000
v -0.341071 0.189025 0.100000
v -0.341071 0.189025 -0.100000
v -0.341710 0.182952 0.100000
v -0.341710 0.182952 -0.100000
v -0.342173 0.177238 0.100000
v -0.342173 0.177238 -0.100000
v -0.342455 0.172020 0.100000
v -0.342455 0.172020 -0.100000
v -0.342550 0.167435 0.100000
v -0.342550 0.167435 -0.100000
v -0.340088 0.147599 0.100000
v -0.340088 0.147599 -0.100000
v -0.333092 0.124787 0.100000
v -0.333092 0.124787 -0.100000
v -0.322149 0.099894 0.100000
v -0.322149 0.099894 -0.100000
v -0.307845 0.073818 0.100000
v -0.307845 0.073818 -0.100000
v -0.290769 0.047454 0.100000
v -0.290769 0.047454 -0.100000
v -0.271505 0.021697 0.100000
v -0.271505 0.021697 -0.100000
v -0.250642 -0.002555 0.100000
v -0.250642 -0.002555 -0.100000
v -0.228765 -0.024407 0.100000
v -0.228765 -0.024407 -0.100000
v -0.206461 -0.042963 0.100000
v -0.206461 -0.042963 -0.100000
v -0.184318 -0.057326 0.100000
v -0.184318 -0.057326 -0.100000
v -0.162921 -0.066602 0.100000
v -0.162921 -0.066602 -0.100000
v -0.142857 -0.069892 0.100000
v -0.142857 -0.069892 -0.100000
v -0.135033 -0.068863 0.100000
v -0.135033 -0.068863 -0.100000
v -0.126351 -0.065946 0.100000
v -0.126351 -0.065946 -0.100000
v -0.117103 -0.061396 0.100000
v -0.117103 -0.061396 -0.100000
v -0.107584 -0.055470 0.100000
v -0.107584 -0.055470 -0.100000
v -0.098085 -0.048424 0.100000
v -0.098085 -0.048424 -0.100000
v -0.088902 -0.040515 0.100000
v -0.088902 -0.040515 -0.100000
v -0.080326 -0.031997 0.100000
v -0.080326 -0.031997 -0.100000
v -0.072652 -0.023127 0.100000
v -0.072652 -0.023127 -0.100000
v -0.066172 -0.014161 0.100000
v -0.066172 -0.014161 -0.100000
v -0.061181 -0.005355 0.100000
v -0.061181 -0.005355 -0.100000
v -0.057971 0.003035 0.100000
v -0.057971 0.003035 -0.100000
v -0.056836 0.010753 0.100000
v -0.056836 0.010753 -0.100000
v -0.058528 0.017666 0.100000
v -0.058528 0.017666 -0.100000
v -0.063208 0.025605 0.100000
v -0.063208 0.025605 -0.100000
v -0.070276 0.034382 0.100000
v -0.070276 0.034382 -0.100000
v -0.079138 0.043807 0.100000
v -0.079138 0.043807 -0.100000
v -0.089193 0.053691 0.100000
v -0.089193 0.053691 -0.100000
v -0.099846 0.063844 0.100000
v -0.099846 0.063844 -0.100000
v -0.110500 0.074077 0.100000
v -0.110500 0.074077 -0.100000
v -0.120555 0.084201 0.100000
v -0.120555 0.084201 -0.100000
v -0.129416 0.094026 0.100000
v -0.129416 0.094026 -0.100000
v -0.136485 0.103363 0.100000
v -0.136485 0.103363 -0.100000
v -0.141165 0.112023 0.100000
v -0.141165 0.112023 -0.100000
v -0.142857 0.119816 0.100000
v -0.142857 0.119816 -0.100000
v -0.141590 0.127035 0.100000
v -0.141590 0.127035 -0.100000
v -0.138032 0.133025 0.100000
v -0.138032 0.133025 -0.100000
v -0.132548 0.137901 0.100000
v -0.132548 0.137901 -0.100000
v -0.125505 0.141776 0.100000
v -0.125505 0.141776 -0.100000
v -0.117267 0.144766 0.100000
v -0.117267 0.144766 -0.100000
v -0.108199 0.146985 0.100000
v -0.108199 0.146985 -0.100000
v -0.098667 0.148549 0.100000
v -0.098667 0.148549 -0.100000
v -0.089037 0.149570 0.100000
v -0.089037 0.149570 -0.100000
v -0.079673 0.150166 0.100000
v -0.079673 0.150166 -0.100000
v -0.070941 0.150449 0.100000
v -0.070941 0.150449 -0.100000
v -0.063207 0.150535 0.100000
v -0.063207 0.150535 -0.100000
v -0.056836 0.150538 0.100000
v -0.056836 0.150538 -0.100000
v -0.032895 0.150054 0.100000
v -0.032895 0.150054 -0.100000
v -0.009060 0.148717 0.100000
v -0.009060 0.148717 -0.100000
v 0.014689 0.146697 0.100000
v 0.014689 0.146697 -0.100000
v 0.038374 0.144166 0.100000
v 0.038374 0.144166 -0.100000
v 0.062016 0.141293 0.100000
v 0.062016 0.141293 -0.100000
v 0.085637 0.138249 0.100000
v 0.085637 0.138249 -0.100000
v 0.109259 0.135205 0.100000
v 0.109259 0.135205 -0.100000
v 0.132901 0.132332 0.100000
v 0.132901 0.132332 -0.100000
v 0.156586 0.129800 0.100000
v 0.156586 0.129800 -0.100000
v 0.180335 0.127781 0.100000
v 0.180335 0.127781 -0.100000
v 0.204170 0.126444 0.100000
v 0.204170 0.126444 -0.100000
v 0.228111 0.125960 0.100000
v 0.228111 0.125960 -0.100000
v 0.235959 0.126059 0.100000
v 0.235959 0.126059 -0.100000
v 0.244044 0.126493 0.100000
v 0.244044 0.126493 -0.100000
v 0.252220 0.127472 0.100000
v 0.252220 0.127472 -0.100000
v 0.260340 0.129203 0.100000
v 0.260340 0.129203 -0.100000
v 0.268258 0.131894 0.100000
v 0.268258 0.131894 -0.100000
v 0.275826 0.135753 0.100000
v 0.275826 0.135753 -0.100000
v 0.282898 0.140988 0.100000
v 0.282898 0.140988 -0.100000
v 0.289327 0.147807 0.100000
v 0.289327 0.147807 -0.100000
v 0.294967 0.156418 0.100000
v 0.294967 0.156418 -0.100000
v 0.299671 0.167029 0.100000
v 0.299671 0.167029 -0.100000
v 0.303292 0.179849 0.100000
v 0.303292 0.179849 -0.100000
v 0.305684 0.195084 0.100000
v 0.305684 0.195084 -0.100000
v -0.023448 0.018053 0.100000
v -0.023448 0.018053 -0.100000
v -0.024247 -0.010980 0.100000
v -0.024247 -0.010980 -0.100000
v -0.024806 -0.038306 0.100000
v -0.024806 -0.038306 -0.100000
v -0.024492 -0.064289 0.100000
v -0.024492 -0.064289 -0.100000
v -0.022675 -0.089289 0.100000
v -0.022675 -0.089289 -0.100000
v -0.018721 -0.113671 0.100000
v -0.018721 -0.113671 -0.100000
v -0.011999 -0.137797 0.100000
v -0.011999 -0.137797 -0.100000
v -0.001877 -0.162030 0.100000
v -0.001877 -0.162030 -0.100000
v 0.012277 -0.186732 0.100000
v 0.012277 -0.186732 -0.100000
v 0.031095 -0.212266 0.100000
v 0.031095 -0.212266 -0.100000
v 0.055210 -0.238995 0.100000
v 0.055210 -0.238995 -0.100000
v 0.085253 -0.267281 0.100000
v 0.085253 -0.267281 -0.100000
v 0.091535 -0.272577 0.100000
v 0.091535 -0.272577 -0.100000
v 0.097741 -0.277330 0.100000
v 0.097741 -0.277330 -0.100000
v 0.103927 -0.281538 0.100000
v 0.103927 -0.281538 -0.100000
v 0.110144 -0.285202 0.100000
v 0.110144 -0.285202 -0.100000
v 0.116447 -0.288322 0.100000
v 0.116447 -0.288322 -0.100000
v 0.122888 -0.290899 0.100000
v 0.122888 -0.290899 -0.100000
v 0.129521 -0.292931 0.100000
v 0.129521 -0.292931 -0.100000
v 0.136400 -0.294419 0.100000
v 0.136400 -0.294419 -0.100000
v 0.143577 -0.295363 0.100000
v 0.143577 -0.295363 -0.100000
v 0.151107 -0.295763 0.100000
v 0.151107 -0.295763 -0.100000
v 0.159041 -0.295619 0.100000
v 0.159041 -0.295619 -0.100000
v 0.167435 -0.294931 0.100000
v 0.167435 -0.294931 -0.100000
v 0.176509 -0.292971 0.100000
v 0.176509 -0.292971 -0.100000
v 0.186263 -0.289174 0.100000
v 0.186263 -0.289174 -0.100000
v 0.196417 -0.283782 0.100000
v 0.196417 -0.283782 -0.100000
v 0.206691 -0.277038 0.100000
v 0.206691 -0.277038 -0.100000
v 0.216805 -0.269185 0.100000
v 0.216805 -0.269185 -0.100000
v 0.226479 -0.260465 0.100000
v 0.226479 -0.260465 -0.100000
v 0.235432 -0.251121 0.100000
v 0.235432 -0.251121 -0.100000
v 0.243386 -0.241395 0.100000
v 0.243386 -0.241395 -0.100000
v 0.250060 -0.231531 0.100000
v 0.250060 -0.231531 -0.100000
v 0.255174 -0.221771 0.100000
v 0.255174 -0.221771 -0.100000
v 0.258447 -0.212357 0.100000
v 0.258447 -0.212357 -0.100000
v 0.259601 -0.203533 0.100000
v 0.259601 -0.203533 -0.100000
v 0.259522 -0.201644 0.100000
v 0.259522 -0.201644 -0.100000
v 0.259291 -0.199817 0.100000
v 0.259291 -0.199817 -0.100000
v 0.258917 -0.198049 0.100000
v 0.258917 -0.198049 -0.100000
v 0.258406 -0.196336 0.100000
v 0.258406 -0.196336 -0.100000
v 0.257767 -0.194677 0.100000
v 0.257767 -0.194677 -0.100000
v 0.257008 -0.193068 0.100000
v 0.257008 -0.193068 -0.100000
v 0.256138 -0.191508 0.100000
v 0.256138 -0.191508 -0.100000
v 0.255163 -0.189993 0.100000
v 0.255163 -0.189993 -0.100000
v 0.254092 -0.188520 0.100000
v 0.254092 -0.188520 -0.100000
v 0.252934 -0.187088 0.100000
v 0.252934 -0.187088 -0.100000
v 0.251695 -0.185692 0.100000
v 0.251695 -0.185692 -0.100000
v 0.250384 -0.184332 0.100000
v 0.250384 -0.184332 -0.100000
v 0.246337 -0.180521 0.100000
v 0.246337 -0.180521 -0.100000
v 0.242263 -0.176762 0.100000
v 0.242263 -0.176762 -0.100000
v 0.238167 -0.173039 0.100000
v 0.238167 -0.173039 -0.100000
v 0.234056 -0.169341 0.100000
v 0.234056 -0.169341 -0.100000
v 0.229934 -0.165653 0.100000
v 0.229934 -0.165653 -0.100000
v 0.225806 -0.161962 0.100000
v 0.225806 -0.161962 -0.100000
v 0.221679 -0.158256 0.100000
v 0.221679 -0.158256 -0.100000
v 0.217557 -0.154520 0.100000
v 0.217557 -0.154520 -0.100000
v 0.213446 -0.150742 0.100000
v 0.213446 -0.150742 -0.100000
v 0.209350 -0.146907 0.100000
v 0.209350 -0.146907 -0.100000
v 0.205276 -0.143003 0.100000
v 0.205276 -0.143003 -0.100000
v 0.201229 -0.139017 0.100000
v 0.201229 -0.139017 -0.100000
v 0.198396 -0.136090 0.100000
v 0.198396 -0.136090 -0.100000
v 0.195657 -0.133072 0.100000
v 0.195657 -0.133072 -0.100000
v 0.193008 -0.129968 0.100000
v 0.193008 -0.129968 -0.100000
v 0.190448 -0.126785 0.100000
v 0.190448 -0.126785 -0.100000
v 0.187972 -0.123527 0.100000
v 0.187972 -0.123527 -0.100000
v 0.185580 -0.120200 0.100000
v 0.185580 -0.120200 -0.100000
v 0.183267 -0.116808 0.100000
v 0.183267 -0.116808 -0.100000
v 0.181032 -0.113358 0.100000
v 0.181032 -0.113358 -0.100000
v 0.178871 -0.109855 0.100000
v 0.178871 -0.109855 -0.100000
v 0.176783 -0.106304 0.100000
v 0.176783 -0.106304 -0.100000
v 0.174764 -0.102710 0.100000
v 0.174764 -0.102710 -0.100000
v 0.172811 -0.099078 0.100000
v 0.172811 -0.099078 -0.100000
v 0.167381 -0.087833 0.100000
v 0.167381 -0.087833 -0.100000
v 0.162592 -0.076385 0.100000
v 0.162592 -0.076385 -0.100000
v 0.158410 -0.064756 0.100000
v 0.158410 -0.064756 -0.100000
v 0.154805 -0.052967 0.100000
v 0.154805 -0.052967 -0.100000
v 0.151743 -0.041039 0.100000
v 0.151743 -0.041039 -0.100000
v 0.149194 -0.028994 0.100000
v 0.149194 -0.028994 -0.100000
v 0.147124 -0.016853 0.100000
v 0.147124 -0.016853 -0.100000
v 0.145503 -0.004637 0.100000
v 0.145503 -0.004637 -0.100000
v 0.144297 0.007632 0.100000
v 0.144297 0.007632 -0.100000
v 0.143476 0.019934 0.100000
v 0.143476 0.019934 -0.100000
v 0.143006 0.032246 0.100000
v 0.143006 0.032246 -0.100000
v 0.142857 0.044547 0.100000
v 0.142857 0.044547 -0.100000
v 0.142824 0.047634 0.100000
v 0.142824 0.047634 -0.100000
v 0.142722 0.050745 0.100000
v 0.142722 0.050745 -0.100000
v 0.142545 0.053871 0.100000
v 0.142545 0.053871 -0.100000
v 0.142288 0.057006 0.100000
v 0.142288 0.057006 -0.100000
v 0.141946 0.060141 0.100000
v 0.141946 0.060141 -0.100000
v 0.141513 0.063268 0.100000
v 0.141513 0.063268 -0.100000
v 0.140984 0.066379 0.100000
v 0.140984 0.066379 -0.100000
v 0.140354 0.069466 0.100000
v 0.140354 0.069466 -0.100000
v 0.139617 0.072521 0.100000
v 0.139617 0.072521 -0.100000
v 0.138768 0.075535 0.100000
v 0.138768 0.075535 -0.100000
v 0.137802 0.078502 0.100000
v 0.137802 0.078502 -0.100000
v 0.136713 0.081413 0.100000
v 0.136713 0.081413 -0.100000
v 0.132853 0.089001 0.100000
v 0.132853 0.089001 -0.100000
v 0.128239 0.095327 0.100000
v 0.128239 0.095327 -0.100000
v 0.122948 0.100506 0.100000
v 0.122948 0.100506 -0.100000
v 0.117056 0.104654 0.100000
v 0.117056 0.104654 -0.100000
v 0.110642 0.107884 0.100000
v 0.110642 0.107884 -0.100000
v 0.103783 0.110311 0.100000
v 0.103783 0.110311 -0.100000
v 0.096555 0.112050 0.100000
v 0.096555 0.112050 -0.100000
v 0.089037 0.113216 0.100000
v 0.089037 0.113216 -0.100000
v 0.081305 0.113923 0.100000
v 0.081305 0.113923 -0.100000
v 0.073438 0.114286 0.100000
v 0.073438 0.114286 -0.100000
v 0.065511 0.114420 0.100000
v 0.065511 0.114420 -0.100000
v 0.057604 0.114439 0.100000
v 0.057604 0.114439 -0.100000
v 0.043916 0.114431 0.100000
v 0.043916 0.114431 -0.100000
v 0.031629 0.114244 0.100000
v 0.031629 0.114244 -0.100000
v 0.020701 0.113635 0.100000
v 0.020701 0.113635 -0.100000
v 0.011094 0.112363 0.100000
v 0.011094 0.112363 -0.100000
v 0.002767 0.110184 0.100000
v 0.002767 0.110184 -0.100000
v -0.004320 0.106855 0.100000
v -0.004320 0.106855 -0.100000
v -0.010207 0.102134 0.100000
v -0.010207 0.102134 -0.100000
v -0.014934 0.095779 0.100000
v -0.014934 0.095779 -0.100000
v -0.018541 0.087546 0.100000
v -0.018541 0.087546 -0.100000
v -0.021068 0.077193 0.100000
v -0.021068 0.077193 -0.100000
v -0.022555 0.064477 0.100000
v -0.022555 0.064477 -0.100000
v -0.023041 0.049155 0.100000
v -0.023041 0.049155 -0.100000
vn -0.0000 -0.0000 -1.0000
vn 0.0001 -0.0000 -1.0000
vn -0.0000 -0.0000 1.0000
vn 0.0001 -0.0000 1.0000
vn 0.9997 0.0258 -0.0000
vn 0.9993 -0.0375 -0.0000
vn 0.9955 0.0947 -0.0000
vn 0.9856 0.1689 -0.0000
vn 0.9688 0.2479 -0.0000
vn 0.9438 0.3305 -0.0000
vn 0.9098 0.4150 -0.0000
vn 0.8664 0.4993 -0.0000
vn 0.8139 0.5811 -0.0000
vn 0.7532 0.6578 -0.0000
vn 0.8139 0.5810 -0.0000
vn 0.6860 0.7276 -0.0000
vn 0.5586 0.8295 -0.0000
vn 0.3637 0.9315 -0.0000
vn 0.2097 0.9778 -0.0000
vn 0.1217 0.9926 -0.0000
vn 0.0667 0.9978 -0.0000
vn 0.0299 0.9996 -0.0000
vn 0.0044 1.0000 -0.0000
vn -0.0135 0.9999 -0.0000
vn -0.0255 0.9997 -0.0000
vn -0.0321 0.9995 -0.0000
vn -0.0327 0.9995 -0.0000
vn -0.0239 0.9997 -0.0000
vn -0.0082 1.0000 -0.0000
vn -0.0000 1.0000 -0.0000
vn -0.0049 1.0000 -0.0000
vn -0.0194 0.9998 -0.0000
vn -0.0399 0.9992 -0.0000
vn -0.0634 0.9980 -0.0000
vn -0.0913 0.9958 -0.0000
vn -0.1254 0.9921 -0.0000
vn -0.1679 0.9858 -0.0000
vn -0.2226 0.9749 -0.0000
vn -0.2947 0.9556 -0.0000
vn -0.3922 0.9199 -0.0000
vn -0.5254 0.8509 -0.0000
vn -0.6992 0.7149 -0.0000
vn -0.8542 0.5199 -0.0000
vn -0.9260 0.3775 -0.0000
vn -0.9505 0.3106 -0.0000
vn -0.9653 0.2610 -0.0000
vn -0.9750 0.2224 -0.0000
vn -0.9816 0.1907 -0.0000
vn -0.9865 0.1636 -0.0000
vn -0.9903 0.1393 -0.0000
vn -0.9932 0.1161 -0.0000
vn -0.9957 0.0927 -0.0000
vn -0.9977 0.0674 -0.0000
vn -0.9993 0.0373 -0.0000
vn -0.9987 -0.0514 -0.0000
vn -0.9779 -0.2090 -0.0000
vn -0.9373 -0.3484 -0.0000
vn -0.8970 -0.4421 -0.0000
vn -0.8586 -0.5126 -0.0000
vn -0.8205 -0.5716 -0.0000
vn -0.7799 -0.6259 -0.0000
vn -0.7329 -0.6803 -0.0000
vn -0.6738 -0.7389 -0.0000
vn -0.5929 -0.8053 -0.0000
vn -0.4726 -0.8813 -0.0000
vn -0.2819 -0.9594 -0.0000
vn -0.0159 -0.9999 -0.0000
vn 0.2255 -0.9742 -0.0000
vn 0.3808 -0.9246 -0.0000
vn 0.4855 -0.8742 -0.0000
vn 0.5626 -0.8267 -0.0000
vn 0.6246 -0.7809 -0.0000
vn 0.6791 -0.7341 -0.0000
vn 0.7310 -0.6824 -0.0000
vn 0.7841 -0.6206 -0.0000
vn 0.8415 -0.5402 -0.0000
vn 0.9045 -0.4264 -0.0000
vn 0.9675 -0.2530 -0.0000
vn 0.9989 0.0470 -0.0000
vn 0.9263 0.3768 -0.0000
vn 0.8223 0.5690 -0.0000
vn 0.7542 0.6566 -0.0000
vn 0.7149 0.6992 -0.0000
vn 0.6955 0.7186 -0.0000
vn 0.6913 0.7225 -0.0000
vn 0.7012 0.7130 -0.0000
vn 0.7263 0.6874 -0.0000
vn 0.7707 0.6373 -0.0000
vn 0.8410 0.5411 -0.0000
vn 0.9378 0.3473 -0.0000
vn 0.9998 0.0201 -0.0000
vn 0.9377 -0.3475 -0.0000
vn 0.7712 -0.6365 -0.0000
vn 0.5769 -0.8168 -0.0000
vn 0.4128 -0.9108 -0.0000
vn 0.2899 -0.9571 -0.0000
vn 0.1999 -0.9798 -0.0000
vn 0.1337 -0.9910 -0.0000
vn 0.0845 -0.9964 -0.0000
vn 0.0479 -0.9989 -0.0000
vn 0.0218 -0.9998 -0.0000
vn 0.0058 -1.0000 -0.0000
vn -0.0099 -1.0000 -0.0000
vn -0.0381 -0.9993 -0.0000
vn -0.0704 -0.9975 -0.0000
vn -0.0955 -0.9954 -0.0000
vn -0.1135 -0.9935 -0.0000
vn -0.1242 -0.9923 -0.0000
vn -0.1278 -0.9918 -0.0000
vn -0.0038 -1.0000 -0.0000
vn 0.0331 -0.9995 -0.0000
vn 0.0863 -0.9963 -0.0000
vn 0.1638 -0.9865 -0.0000
vn 0.2656 -0.9641 -0.0000
vn 0.3890 -0.9212 -0.0000
vn 0.5264 -0.8502 -0.0000
vn 0.6639 -0.7478 -0.0000
vn 0.7851 -0.6194 -0.0000
vn 0.8783 -0.4782 -0.0000
vn 0.9406 -0.3394 -0.0000
vn 0.9769 -0.2138 -0.0000
vn 0.9938 -0.1115 -0.0000
vn -0.9997 0.0240 -0.0000
vn -0.9998 0.0203 -0.0000
vn -1.0000 0.0042 -0.0000
vn -0.9991 -0.0423 -0.0000
vn -0.9932 -0.1164 -0.0000
vn -0.9767 -0.2146 -0.0000
vn -0.9448 -0.3275 -0.0000
vn -0.8969 -0.4422 -0.0000
vn -0.8377 -0.5461 -0.0000
vn -0.7747 -0.6323 -0.0000
vn -0.7146 -0.6996 -0.0000
vn -0.6653 -0.7466 -0.0000
vn -0.6265 -0.7795 -0.0000
vn -0.5855 -0.8107 -0.0000
vn -0.5354 -0.8446 -0.0000
vn -0.4760 -0.8794 -0.0000
vn -0.4078 -0.9131 -0.0000
vn -0.3324 -0.9431 -0.0000
vn -0.2524 -0.9676 -0.0000
vn -0.1711 -0.9853 -0.0000
vn -0.0918 -0.9958 -0.0000
vn -0.0175 -0.9998 -0.0000
vn 0.0499 -0.9988 -0.0000
vn 0.1467 -0.9892 -0.0000
vn 0.2878 -0.9577 -0.0000
vn 0.4166 -0.9091 -0.0000
vn 0.5094 -0.8605 -0.0000
vn 0.5815 -0.8136 -0.0000
vn 0.6419 -0.7668 -0.0000
vn 0.6962 -0.7178 -0.0000
vn 0.7486 -0.6630 -0.0000
vn 0.8020 -0.5973 -0.0000
vn 0.8584 -0.5130 -0.0000
vn 0.9177 -0.3974 -0.0000
vn 0.9731 -0.2302 -0.0000
vn 0.9990 -0.0442 -0.0000
vn 0.9965 0.0835 -0.0000
vn 0.9861 0.1664 -0.0000
vn 0.9691 0.2467 -0.0000
vn 0.9465 0.3228 -0.0000
vn 0.9195 0.3932 -0.0000
vn 0.8894 0.4572 -0.0000
vn 0.8575 0.5144 -0.0000
vn 0.8252 0.5648 -0.0000
vn 0.8576 0.5144 -0.0000
vn 0.7934 0.6087 -0.0000
vn 0.7628 0.6466 -0.0000
vn 0.7341 0.6790 -0.0000
vn 0.7030 0.7112 -0.0000
vn 0.6818 0.7315 -0.0000
vn 0.6754 0.7374 -0.0000
vn 0.6707 0.7417 -0.0000
vn 0.6678 0.7444 -0.0000
vn 0.6667 0.7454 -0.0000
vn 0.6673 0.7447 -0.0000
vn 0.6698 0.7425 -0.0000
vn 0.6674 0.7447 -0.0000
vn 0.6741 0.7386 -0.0000
vn 0.6801 0.7331 -0.0000
vn 0.6877 0.7260 -0.0000
vn 0.6968 0.7173 -0.0000
vn 0.7102 0.7040 -0.0000
vn 0.7296 0.6838 -0.0000
vn 0.7506 0.6607 -0.0000
vn 0.7700 0.6380 -0.0000
vn 0.7878 0.6159 -0.0000
vn 0.8041 0.5944 -0.0000
vn 0.8191 0.5736 -0.0000
vn 0.8328 0.5536 -0.0000
vn 0.8453 0.5344 -0.0000
vn 0.8566 0.5160 -0.0000
vn 0.8452 0.5344 -0.0000
vn 0.8669 0.4984 -0.0000
vn 0.8763 0.4817 -0.0000
vn 0.8908 0.4543 -0.0000
vn 0.9118 0.4105 -0.0000
vn 0.9321 0.3623 -0.0000
vn 0.9489 0.3155 -0.0000
vn 0.9627 0.2706 -0.0000
vn 0.9737 0.2279 -0.0000
vn 0.9822 0.1876 -0.0000
vn 0.9887 0.1498 -0.0000
vn 0.9934 0.1147 -0.0000
vn 0.9966 0.0822 -0.0000
vn 0.9986 0.0524 -0.0000
vn 0.9997 0.0251 -0.0000
vn 0.9999 0.0114 -0.0000
vn 0.9998 0.0217 -0.0000
vn 0.9990 0.0447 -0.0000
vn 0.9998 0.0218 -0.0000
vn 0.9976 0.0691 -0.0000
vn 0.9955 0.0951 -0.0000
vn 0.9924 0.1229 -0.0000
vn 0.9883 0.1524 -0.0000
vn 0.9924 0.1228 -0.0000
vn 0.9830 0.1839 -0.0000
vn 0.9761 0.2173 -0.0000
vn 0.9675 0.2528 -0.0000
vn 0.9569 0.2904 -0.0000
vn 0.9439 0.3301 -0.0000
vn 0.9154 0.4025 -0.0000
vn 0.8523 0.5230 -0.0000
vn 0.7563 0.6542 -0.0000
vn 0.6396 0.7687 -0.0000
vn 0.5141 0.8577 -0.0000
vn 0.3925 0.9198 -0.0000
vn 0.2842 0.9588 -0.0000
vn 0.1938 0.9810 -0.0000
vn 0.1222 0.9925 -0.0000
vn 0.0686 0.9976 -0.0000
vn 0.0315 0.9995 -0.0000
vn 0.0096 1.0000 -0.0000
vn 0.0009 1.0000 -0.0000
vn -0.0079 1.0000 -0.0000
vn -0.0354 0.9994 -0.0000
vn -0.0935 0.9956 -0.0000
vn -0.1926 0.9813 -0.0000
vn -0.3406 0.9402 -0.0000
vn -0.5291 0.8486 -0.0000
vn -0.7199 0.6941 -0.0000
vn -0.8647 0.5023 -0.0000
vn -0.9473 0.3204 -0.0000
vn -0.9842 0.1770 -0.0000
vn -0.9973 0.0740 -0.0000
vn -0.9997 0.0224 -0.0000
vt 0.063745 0.000000
vt 0.071713 0.000000
vt 0.067729 0.000000
vt 0.075697 0.000000
vt 0.059761 0.000000
vt 0.079681 0.000000
vt 0.083665 0.000000
vt 0.055777 0.000000
vt 0.087649 0.000000
vt 0.091633 0.000000
vt 0.095618 0.000000
vt 0.099602 0.000000
vt 0.103586 0.000000
vt 0.107570 0.000000
vt 0.111554 0.000000
vt 0.115538 0.000000
vt 0.119522 0.000000
vt 0.123506 0.000000
vt 0.127490 0.000000
vt 0.131474 0.000000
vt 0.135458 0.000000
vt 0.139442 0.000000
vt 0.143426 0.000000
vt 0.147410 0.000000
vt 0.051793 0.000000
vt 0.151394 0.000000
vt 0.155378 0.000000
vt 0.159363 0.000000
vt 0.047809 0.000000
vt 0.163347 0.000000
vt 0.043825 0.000000
vt 0.167331 0.000000
vt 0.171315 0.000000
vt 0.039841 0.000000
vt 0.035857 0.000000
vt 0.175299 0.000000
vt 0.031873 0.000000
vt 0.179283 0.000000
vt 0.027888 0.000000
vt 0.023904 0.000000
vt 0.183267 0.000000
vt 0.019920 0.000000
vt 0.187251 0.000000
vt 0.015936 0.000000
vt 0.011952 0.000000
vt 0.191235 0.000000
vt 0.007968 0.000000
vt 0.195219 0.000000
vt 0.199203 0.000000
vt 0.003984 0.000000
vt 0.203187 0.000000
vt 0.207171 0.000000
vt 0.000000 0.000000
vt 0.211155 0.000000
vt 0.521912 0.000000
vt 0.215139 0.000000
vt 0.219124 0.000000
vt 0.517928 0.000000
vt 0.223108 0.000000
vt 0.227092 0.000000
vt 0.513944 0.000000
vt 0.231076 0.000000
vt 0.235060 0.000000
vt 0.239044 0.000000
vt 0.509960 0.000000
vt 0.505976 0.000000
vt 0.426295 0.000000
vt 0.422311 0.000000
vt 0.430279 0.000000
vt 0.418327 0.000000
vt 0.414343 0.000000
vt 0.410359 0.000000
vt 0.434263 0.000000
vt 0.406375 0.000000
vt 0.438247 0.000000
vt 0.402390 0.000000
vt 0.501992 0.000000
vt 0.243028 0.000000
vt 0.398406 0.000000
vt 0.442231 0.000000
vt 0.394422 0.000000
vt 0.446215 0.000000
vt 0.390438 0.000000
vt 0.450199 0.000000
vt 0.498008 0.000000
vt 0.454183 0.000000
vt 0.386454 0.000000
vt 0.494024 0.000000
vt 0.458167 0.000000
vt 0.382470 0.000000
vt 0.462151 0.000000
vt 0.490040 0.000000
vt 0.466135 0.000000
vt 0.486056 0.000000
vt 0.470120 0.000000
vt 0.482072 0.000000
vt 0.378486 0.000000
vt 0.478088 0.000000
vt 0.474104 0.000000
vt 0.247012 0.000000
vt 0.374502 0.000000
vt 0.948207 0.000000
vt 0.956175 0.000000
vt 0.952191 0.000000
vt 0.960159 0.000000
vt 0.944223 0.000000
vt 0.940239 0.000000
vt 0.964143 0.000000
vt 0.936255 0.000000
vt 0.968127 0.000000
vt 0.932271 0.000000
vt 0.972112 0.000000
vt 0.928287 0.000000
vt 0.370518 0.000000
vt 0.924303 0.000000
vt 0.976096 0.000000
vt 0.920319 0.000000
vt 0.980080 0.000000
vt 0.916335 0.000000
vt 0.366534 0.000000
vt 0.984064 0.000000
vt 0.912351 0.000000
vt 0.250996 0.000000
vt 0.988048 0.000000
vt 0.908367 0.000000
vt 0.362550 0.000000
vt 0.904382 0.000000
vt 0.992032 0.000000
vt 0.358566 0.000000
vt 0.900398 0.000000
vt 0.896414 0.000000
vt 0.996016 0.000000
vt 0.892430 0.000000
vt 0.354582 0.000000
vt 0.254980 0.000000
vt 0.888446 0.000000
vt 0.884462 0.000000
vt 0.880478 0.000000
vt 1.000000 0.000000
vt 0.350598 0.000000
vt 0.876494 0.000000
vt 0.872510 0.000000
vt 0.868526 0.000000
vt 0.864542 0.000000
vt 0.346614 0.000000
vt 0.860558 0.000000
vt 0.525896 0.000000
vt 0.856574 0.000000
vt 0.258964 0.000000
vt 0.852590 0.000000
vt 0.342629 0.000000
vt 0.338645 0.000000
vt 0.848606 0.000000
vt 0.334661 0.000000
vt 0.262948 0.000000
vt 0.844622 0.000000
vt 0.529880 0.000000
vt 0.330677 0.000000
vt 0.326693 0.000000
vt 0.840637 0.000000
vt 0.322709 0.000000
vt 0.266932 0.000000
vt 0.836653 0.000000
vt 0.318725 0.000000
vt 0.533865 0.000000
vt 0.314741 0.000000
vt 0.832669 0.000000
vt 0.310757 0.000000
vt 0.270916 0.000000
vt 0.828685 0.000000
vt 0.306773 0.000000
vt 0.537849 0.000000
vt 0.302789 0.000000
vt 0.824701 0.000000
vt 0.274900 0.000000
vt 0.298805 0.000000
vt 0.820717 0.000000
vt 0.294821 0.000000
vt 0.278884 0.000000
vt 0.290837 0.000000
vt 0.541833 0.000000
vt 0.816733 0.000000
vt 0.286853 0.000000
vt 0.282869 0.000000
vt 0.812749 0.000000
vt 0.808765 0.000000
vt 0.545817 0.000000
vt 0.804781 0.000000
vt 0.800797 0.000000
vt 0.796813 0.000000
vt 0.792829 0.000000
vt 0.788845 0.000000
vt 0.549801 0.000000
vt 0.784861 0.000000
vt 0.780877 0.000000
vt 0.776892 0.000000
vt 0.772908 0.000000
vt 0.768924 0.000000
vt 0.764940 0.000000
vt 0.760956 0.000000
vt 0.553785 0.000000
vt 0.756972 0.000000
vt 0.752988 0.000000
vt 0.749004 0.000000
vt 0.745020 0.000000
vt 0.741036 0.000000
vt 0.737052 0.000000
vt 0.733068 0.000000
vt 0.557769 0.000000
vt 0.729084 0.000000
vt 0.725100 0.000000
vt 0.721116 0.000000
vt 0.717131 0.000000
vt 0.713147 0.000000
vt 0.709163 0.000000
vt 0.705179 0.000000
vt 0.561753 0.000000
vt 0.701195 0.000000
vt 0.697211 0.000000
vt 0.693227 0.000000
vt 0.689243 0.000000
vt 0.685259 0.000000
vt 0.681275 0.000000
vt 0.677291 0.000000
vt 0.673307 0.000000
vt 0.669323 0.000000
vt 0.665339 0.000000
vt 0.661355 0.000000
vt 0.565737 0.000000
vt 0.657371 0.000000
vt 0.653386 0.000000
vt 0.649402 0.000000
vt 0.569721 0.000000
vt 0.645418 0.000000
vt 0.641434 0.000000
vt 0.637450 0.000000
vt 0.573705 0.000000
vt 0.633466 0.000000
vt 0.577689 0.000000
vt 0.629482 0.000000
vt 0.581673 0.000000
vt 0.585657 0.000000
vt 0.625498 0.000000
vt 0.589641 0.000000
vt 0.593625 0.000000
vt 0.621514 0.000000
vt 0.597610 0.000000
vt 0.601594 0.000000
vt 0.617530 0.000000
vt 0.605578 0.000000
vt 0.613546 0.000000
vt 0.609562 0.000000
vt 0.007576 1.000000
vt 0.000000 1.000000
vt 0.015152 1.000000
vt 0.007576 0.000000
vt 0.022727 1.000000
vt 0.015152 0.000000
vt 0.030303 1.000000
vt 0.022727 0.000000
vt 0.037879 1.000000
vt 0.030303 0.000000
vt 0.045455 1.000000
vt 0.037879 0.000000
vt 0.053030 1.000000
vt 0.045455 0.000000
vt 0.060606 1.000000
vt 0.053030 0.000000
vt 0.068182 1.000000
vt 0.060606 0.000000
vt 0.075758 1.000000
vt 0.068182 0.000000
vt 0.083333 1.000000
vt 0.075758 0.000000
vt 0.090909 1.000000
vt 0.083333 0.000000
vt 0.098485 1.000000
vt 0.090909 0.000000
vt 0.106061 1.000000
vt 0.098485 0.000000
vt 0.113636 1.000000
vt 0.106061 0.000000
vt 0.121212 1.000000
vt 0.113636 0.000000
vt 0.128788 1.000000
vt 0.121212 0.000000
vt 0.136364 1.000000
vt 0.128788 0.000000
vt 0.143939 1.000000
vt 0.136364 0.000000
vt 0.151515 1.000000
vt 0.143939 0.000000
vt 0.159091 1.000000
vt 0.151515 0.000000
vt 0.166667 1.000000
vt 0.159091 0.000000
vt 0.174242 1.000000
vt 0.166667 0.000000
vt 0.181818 1.000000
vt 0.174242 0.000000
vt 0.189394 1.000000
vt 0.181818 0.000000
vt 0.196970 1.000000
vt 0.189394 0.000000
vt 0.204545 1.000000
vt 0.196970 0.000000
vt 0.212121 1.000000
vt 0.204545 0.000000
vt 0.219697 1.000000
vt 0.212121 0.000000
vt 0.227273 1.000000
vt 0.219697 0.000000
vt 0.234848 1.000000
vt 0.227273 0.000000
vt 0.242424 1.000000
vt 0.234848 0.000000
vt 0.250000 1.000000
vt 0.242424 0.000000
vt 0.257576 1.000000
vt 0.250000 0.000000
vt 0.265152 1.000000
vt 0.257576 0.000000
vt 0.272727 1.000000
vt 0.265152 0.000000
vt 0.280303 1.000000
vt 0.272727 0.000000
vt 0.287879 1.000000
vt 0.280303 0.000000
vt 0.295455 1.000000
vt 0.287879 0.000000
vt 0.303030 1.000000
vt 0.295455 0.000000
vt 0.310606 1.000000
vt 0.303030 0.000000
vt 0.318182 1.000000
vt 0.310606 0.000000
vt 0.325758 1.000000
vt 0.318182 0.000000
vt 0.333333 1.000000
vt 0.325758 0.000000
vt 0.340909 1.000000
vt 0.333333 0.000000
vt 0.348485 1.000000
vt 0.340909 0.000000
vt 0.356061 1.000000
vt 0.348485 0.000000
vt 0.363636 1.000000
vt 0.356061 0.000000
vt 0.371212 1.000000
vt 0.363636 0.000000
vt 0.378788 1.000000
vt 0.371212 0.000000
vt 0.386364 1.000000
vt 0.378788 0.000000
vt 0.393939 1.000000
vt 0.386364 0.000000
vt 0.401515 1.000000
vt 0.393939 0.000000
vt 0.409091 1.000000
vt 0.401515 0.000000
vt 0.416667 1.000000
vt 0.409091 0.000000
vt 0.424242 1.000000
vt 0.416667 0.000000
vt 0.431818 1.000000
vt 0.424242 0.000000
vt 0.439394 1.000000
vt 0.431818 0.000000
vt 0.446970 1.000000
vt 0.439394 0.000000
vt 0.454545 1.000000
vt 0.446970 0.000000
vt 0.462121 1.000000
vt 0.454545 0.000000
vt 0.469697 1.000000
vt 0.462121 0.000000
vt 0.477273 1.000000
vt 0.469697 0.000000
vt 0.484848 1.000000
vt 0.477273 0.000000
vt 0.492424 1.000000
vt 0.484848 0.000000
vt 0.500000 1.000000
vt 0.492424 0.000000
vt 0.507576 1.000000
vt 0.500000 0.000000
vt 0.515152 1.000000
vt 0.507576 0.000000
vt 0.522727 1.000000
vt 0.515152 0.000000
vt 0.530303 1.000000
vt 0.522727 0.000000
vt 0.537879 1.000000
vt 0.530303 0.000000
vt 0.545455 1.000000
vt 0.537879 0.000000
vt 0.553030 1.000000
vt 0.545455 0.000000
vt 0.560606 1.000000
vt 0.553030 0.000000
vt 0.568182 1.000000
vt 0.560606 0.000000
vt 0.575758 1.000000
vt 0.568182 0.000000
vt 0.583333 1.000000
vt 0.575758 0.000000
vt 0.590909 1.000000
vt 0.583333 0.000000
vt 0.598485 1.000000
vt 0.590909 0.000000
vt 0.606061 1.000000
vt 0.598485 0.000000
vt 0.613636 1.000000
vt 0.606061 0.000000
vt 0.621212 1.000000
vt 0.613636 0.000000
vt 0.628788 1.000000
vt 0.621212 0.000000
vt 0.636364 1.000000
vt 0.628788 0.000000
vt 0.643939 1.000000
vt 0.636364 0.000000
vt 0.651515 1.000000
vt 0.643939 0.000000
vt 0.659091 1.000000
vt 0.651515 0.000000
vt 0.666667 1.000000
vt 0.659091 0.000000
vt 0.674242 1.000000
vt 0.666667 0.000000
vt 0.681818 1.000000
vt 0.674242 0.000000
vt 0.689394 1.000000
vt 0.681818 0.000000
vt 0.696970 1.000000
vt 0.689394 0.000000
vt 0.704545 1.000000
vt 0.696970 0.000000
vt 0.712121 1.000000
vt 0.704545 0.000000
vt 0.719697 1.000000
vt 0.712121 0.000000
vt 0.727273 1.000000
vt 0.719697 0.000000
vt 0.734848 1.000000
vt 0.727273 0.000000
vt 0.742424 1.000000
vt 0.734848 0.000000
vt 0.750000 1.000000
vt 0.742424 0.000000
vt 0.757576 1.000000
vt 0.750000 0.000000
vt 0.765152 1.000000
vt 0.757576 0.000000
vt 0.772727 1.000000
vt 0.765152 0.000000
vt 0.780303 1.000000
vt 0.772727 0.000000
vt 0.787879 1.000000
vt 0.780303 0.000000
vt 0.795455 1.000000
vt 0.787879 0.000000
vt 0.803030 1.000000
vt 0.795455 0.000000
vt 0.810606 1.000000
vt 0.803030 0.000000
vt 0.818182 1.000000
vt 0.810606 0.000000
vt 0.825758 1.000000
vt 0.818182 0.000000
vt 0.833333 1.000000
vt 0.825758 0.000000
vt 0.840909 1.000000
vt 0.833333 0.000000
vt 0.848485 1.000000
vt 0.840909 0.000000
vt 0.856061 1.000000
vt 0.848485 0.000000
vt 0.863636 1.000000
vt 0.856061 0.000000
vt 0.871212 1.000000
vt 0.863636 0.000000
vt 0.878788 1.000000
vt 0.871212 0.000000
vt 0.886364 1.000000
vt 0.878788 0.000000
vt 0.893939 1.000000
vt 0.886364 0.000000
vt 0.901515 1.000000
vt 0.893939 0.000000
vt 0.909091 1.000000
vt 0.901515 0.000000
vt 0.916667 1.000000
vt 0.909091 0.000000
vt 0.924242 1.000000
vt 0.916667 0.000000
vt 0.931818 1.000000
vt 0.924242 0.000000
vt 0.939394 1.000000
vt 0.931818 0.000000
vt 0.946970 1.000000
vt 0.939394 0.000000
vt 0.954545 1.000000
vt 0.946970 0.000000
vt 0.962121 1.000000
vt 0.954545 0.000000
vt 0.969697 1.000000
vt 0.962121 0.000000
vt 0.977273 1.000000
vt 0.969697 0.000000
vt 0.984848 1.000000
vt 0.977273 0.000000
vt 0.992424 1.000000
vt 0.984848 0.000000
vt 1.000000 1.000000
vt 0.992424 0.000000
vt 0.008333 1.000000
vt 0.016667 1.000000
vt 0.008333 0.000000
vt 0.025000 1.000000
vt 0.016667 0.000000
vt 0.033333 1.000000
vt 0.025000 0.000000
vt 0.041667 1.000000
vt 0.033333 0.000000
vt 0.050000 1.000000
vt 0.041667 0.000000
vt 0.058333 1.000000
vt 0.050000 0.000000
vt 0.066667 1.000000
vt 0.058333 0.000000
vt 0.075000 1.000000
vt 0.066667 0.000000
vt 0.075000 0.000000
vt 0.091667 1.000000
vt 0.100000 1.000000
vt 0.091667 0.000000
vt 0.108333 1.000000
vt 0.100000 0.000000
vt 0.116667 1.000000
vt 0.108333 0.000000
vt 0.125000 1.000000
vt 0.116667 0.000000
vt 0.133333 1.000000
vt 0.125000 0.000000
vt 0.141667 1.000000
vt 0.133333 0.000000
vt 0.150000 1.000000
vt 0.141667 0.000000
vt 0.158333 1.000000
vt 0.150000 0.000000
vt 0.158333 0.000000
vt 0.175000 1.000000
vt 0.183333 1.000000
vt 0.175000 0.000000
vt 0.191667 1.000000
vt 0.183333 0.000000
vt 0.200000 1.000000
vt 0.191667 0.000000
vt 0.208333 1.000000
vt 0.200000 0.000000
vt 0.216667 1.000000
vt 0.208333 0.000000
vt 0.225000 1.000000
vt 0.216667 0.000000
vt 0.233333 1.000000
vt 0.225000 0.000000
vt 0.241667 1.000000
vt 0.233333 0.000000
vt 0.241667 0.000000
vt 0.258333 1.000000
vt 0.266667 1.000000
vt 0.258333 0.000000
vt 0.275000 1.000000
vt 0.266667 0.000000
vt 0.283333 1.000000
vt 0.275000 0.000000
vt 0.291667 1.000000
vt 0.283333 0.000000
vt 0.300000 1.000000
vt 0.291667 0.000000
vt 0.308333 1.000000
vt 0.300000 0.000000
vt 0.316667 1.000000
vt 0.308333 0.000000
vt 0.325000 1.000000
vt 0.316667 0.000000
vt 0.325000 0.000000
vt 0.341667 1.000000
vt 0.350000 1.000000
vt 0.341667 0.000000
vt 0.358333 1.000000
vt 0.350000 0.000000
vt 0.366667 1.000000
vt 0.358333 0.000000
vt 0.375000 1.000000
vt 0.366667 0.000000
vt 0.383333 1.000000
vt 0.375000 0.000000
vt 0.391667 1.000000
vt 0.383333 0.000000
vt 0.400000 1.000000
vt 0.391667 0.000000
vt 0.408333 1.000000
vt 0.400000 0.000000
vt 0.408333 0.000000
vt 0.425000 1.000000
vt 0.433333 1.000000
vt 0.425000 0.000000
vt 0.441667 1.000000
vt 0.433333 0.000000
vt 0.450000 1.000000
vt 0.441667 0.000000
vt 0.458333 1.000000
vt 0.450000 0.000000
vt 0.466667 1.000000
vt 0.458333 0.000000
vt 0.475000 1.000000
vt 0.466667 0.000000
vt 0.483333 1.000000
vt 0.475000 0.000000
vt 0.491667 1.000000
vt 0.483333 0.000000
vt 0.491667 0.000000
vt 0.508333 1.000000
vt 0.516667 1.000000
vt 0.508333 0.000000
vt 0.525000 1.000000
vt 0.516667 0.000000
vt 0.533333 1.000000
vt 0.525000 0.000000
vt 0.541667 1.000000
vt 0.533333 0.000000
vt 0.550000 1.000000
vt 0.541667 0.000000
vt 0.558333 1.000000
vt 0.550000 0.000000
vt 0.566667 1.000000
vt 0.558333 0.000000
vt 0.575000 1.000000
vt 0.566667 0.000000
vt 0.575000 0.000000
vt 0.591667 1.000000
vt 0.600000 1.000000
vt 0.591667 0.000000
vt 0.608333 1.000000
vt 0.600000 0.000000
vt 0.616667 1.000000
vt 0.608333 0.000000
vt 0.625000 1.000000
vt 0.616667 0.000000
vt 0.633333 1.000000
vt 0.625000 0.000000
vt 0.641667 1.000000
vt 0.633333 0.000000
vt 0.650000 1.000000
vt 0.641667 0.000000
vt 0.658333 1.000000
vt 0.650000 0.000000
vt 0.658333 0.000000
vt 0.675000 1.000000
vt 0.683333 1.000000
vt 0.675000 0.000000
vt 0.691667 1.000000
vt 0.683333 0.000000
vt 0.700000 1.000000
vt 0.691667 0.000000
vt 0.708333 1.000000
vt 0.700000 0.000000
vt 0.716667 1.000000
vt 0.708333 0.000000
vt 0.725000 1.000000
vt 0.716667 0.000000
vt 0.733333 1.000000
vt 0.725000 0.000000
vt 0.741667 1.000000
vt 0.733333 0.000000
vt 0.741667 0.000000
vt 0.758333 1.000000
vt 0.766667 1.000000
vt 0.758333 0.000000
vt 0.775000 1.000000
vt 0.766667 0.000000
vt 0.783333 1.000000
vt 0.775000 0.000000
vt 0.791667 1.000000
vt 0.783333 0.000000
vt 0.800000 1.000000
vt 0.791667 0.000000
vt 0.808333 1.000000
vt 0.800000 0.000000
vt 0.816667 1.000000
vt 0.808333 0.000000
vt 0.825000 1.000000
vt 0.816667 0.000000
vt 0.825000 0.000000
vt 0.841667 1.000000
vt 0.850000 1.000000
vt 0.841667 0.000000
vt 0.858333 1.000000
vt 0.850000 0.000000
vt 0.866667 1.000000
vt 0.858333 0.000000
vt 0.875000 1.000000
vt 0.866667 0.000000
vt 0.883333 1.000000
vt 0.875000 0.000000
vt 0.891667 1.000000
vt 0.883333 0.000000
vt 0.900000 1.000000
vt 0.891667 0.000000
vt 0.908333 1.000000
vt 0.900000 0.000000
vt 0.908333 0.000000
vt 0.925000 1.000000
vt 0.933333 1.000000
vt 0.925000 0.000000
vt 0.941667 1.000000
vt 0.933333 0.000000
vt 0.950000 1.000000
vt 0.941667 0.000000
vt 0.958333 1.000000
vt 0.950000 0.000000
vt 0.966667 1.000000
vt 0.958333 0.000000
vt 0.975000 1.000000
vt 0.966667 0.000000
vt 0.983333 1.000000
vt 0.975000 0.000000
vt 0.991667 1.000000
vt 0.983333 0.000000
vt 0.991667 0.000000
s 0
usemtl マテリアル.008
f 17/1/1 19/2/1 18/3/1
f 17/1/1 20/4/1 19/2/1
f 16/5/1 20/4/1 17/1/1
f 16/5/1 21/6/1 20/4/1
f 16/5/1 22/7/1 21/6/1
f 15/8/1 22/7/1 16/5/1
f 15/8/1 23/9/1 22/7/1
f 15/8/1 24/10/1 23/9/1
f 15/8/1 25/11/1 24/10/1
f 15/8/1 26/12/1 25/11/1
f 15/8/1 27/13/1 26/12/1
f 15/8/1 28/14/1 27/13/1
f 15/8/1 29/15/1 28/14/1
f 15/8/1 30/16/1 29/15/1
f 15/8/1 31/17/1 30/16/1
f 15/8/1 32/18/1 31/17/1
f 15/8/1 33/19/1 32/18/1
f 15/8/1 34/20/1 33/19/1
f 15/8/1 35/21/1 34/20/1
f 15/8/1 36/22/1 35/21/1
f 15/8/1 37/23/1 36/22/1
f 15/8/1 38/24/1 37/23/1
f 14/25/1 38/24/1 15/8/1
f 14/25/1 39/26/1 38/24/1
f 14/25/1 40/27/1 39/26/1
f 14/25/1 41/28/1 40/27/1
f 13/29/1 41/28/1 14/25/1
f 13/29/1 42/30/1 41/28/1
f 12/31/1 42/30/1 13/29/1
f 12/31/1 43/32/1 42/30/1
f 12/31/1 44/33/1 43/32/1
f 11/34/1 44/33/1 12/31/1
f 10/35/1 44/33/1 11/34/1
f 10/35/1 45/36/1 44/33/1
f 9/37/1 45/36/1 10/35/1
f 9/37/1 46/38/1 45/36/1
f 8/39/1 46/38/1 9/37/1
f 7/40/1 46/38/1 8/39/1
f 7/40/1 47/41/1 46/38/1
f 6/42/1 47/41/1 7/40/1
f 6/42/1 48/43/1 47/41/1
f 5/44/1 48/43/1 6/42/1
f 4/45/1 48/43/1 5/44/1
f 4/45/1 49/46/1 48/43/1
f 3/47/1 49/46/1 4/45/1
f 3/47/1 50/48/1 49/46/1
f 3/47/1 51/49/1 50/48/1
f 2/50/1 51/49/1 3/47/1
f 2/50/1 52/51/1 51/49/1
f 2/50/1 53/52/1 52/51/1
f 1/53/1 53/52/1 2/50/1
f 1/53/1 54/54/1 53/52/1
f 132/55/1 54/54/1 1/53/1
f 132/55/1 55/56/1 54/54/1
f 132/55/1 56/57/1 55/56/1
f 131/58/1 56/57/1 132/55/1
f 131/58/1 57/59/1 56/57/1
f 131/58/1 58/60/1 57/59/1
f 130/61/1 58/60/1 131/58/1
f 130/61/1 59/62/1 58/60/1
f 130/61/1 60/63/1 59/62/1
f 130/61/1 61/64/1 60/63/1
f 129/65/1 61/64/1 130/61/1
f 128/66/1 108/67/1 129/65/1
f 108/67/1 107/68/1 129/65/1
f 107/68/1 61/64/1 129/65/1
f 128/66/1 109/69/1 108/67/1
f 106/70/2 61/64/2 107/68/2
f 105/71/1 61/64/1 106/70/1
f 104/72/1 61/64/1 105/71/1
f 128/66/1 110/73/1 109/69/1
f 103/74/1 61/64/1 104/72/1
f 128/66/1 111/75/1 110/73/1
f 102/76/1 61/64/1 103/74/1
f 127/77/1 111/75/1 128/66/1
f 102/76/1 62/78/1 61/64/1
f 101/79/1 62/78/1 102/76/1
f 127/77/1 112/80/1 111/75/1
f 100/81/1 62/78/1 101/79/1
f 127/77/1 113/82/1 112/80/1
f 99/83/1 62/78/1 100/81/1
f 127/77/1 114/84/1 113/82/1
f 126/85/1 114/84/1 127/77/1
f 126/85/1 115/86/1 114/84/1
f 98/87/1 62/78/1 99/83/1
f 125/88/1 115/86/1 126/85/1
f 125/88/1 116/89/1 115/86/1
f 97/90/1 62/78/1 98/87/1
f 125/88/1 117/91/1 116/89/1
f 124/92/1 117/91/1 125/88/1
f 124/92/1 118/93/1 117/91/1
f 123/94/1 118/93/1 124/92/1
f 123/94/1 119/95/1 118/93/1
f 122/96/1 119/95/1 123/94/1
f 96/97/1 62/78/1 97/90/1
f 121/98/1 119/95/1 122/96/1
f 121/98/1 120/99/1 119/95/1
f 96/97/1 63/100/1 62/78/1
f 95/101/1 63/100/1 96/97/1
f 239/102/1 241/103/1 240/104/1
f 239/102/1 242/105/1 241/103/1
f 238/106/1 242/105/1 239/102/1
f 237/107/1 242/105/1 238/106/1
f 237/107/1 243/108/1 242/105/1
f 236/109/1 243/108/1 237/107/1
f 236/109/1 244/110/1 243/108/1
f 235/111/1 244/110/1 236/109/1
f 235/111/1 245/112/1 244/110/1
f 234/113/1 245/112/1 235/111/1
f 94/114/1 63/100/1 95/101/1
f 233/115/1 245/112/1 234/113/1
f 233/115/1 246/116/1 245/112/1
f 232/117/1 246/116/1 233/115/1
f 232/117/1 247/118/1 246/116/1
f 231/119/1 247/118/1 232/117/1
f 93/120/1 63/100/1 94/114/1
f 231/119/1 248/121/1 247/118/1
f 230/122/1 248/121/1 231/119/1
f 93/120/1 64/123/1 63/100/1
f 230/122/1 249/124/1 248/121/1
f 229/125/1 249/124/1 230/122/1
f 92/126/1 64/123/1 93/120/1
f 228/127/1 249/124/1 229/125/1
f 228/127/1 250/128/1 249/124/1
f 91/129/1 64/123/1 92/126/1
f 227/130/1 250/128/1 228/127/1
f 226/131/1 250/128/1 227/130/1
f 226/131/1 251/132/1 250/128/1
f 225/133/1 251/132/1 226/131/1
f 90/134/1 64/123/1 91/129/1
f 90/134/1 65/135/1 64/123/1
f 224/136/1 251/132/1 225/133/1
f 223/137/1 251/132/1 224/136/1
f 222/138/1 251/132/1 223/137/1
f 222/138/1 252/139/1 251/132/1
f 89/140/1 65/135/1 90/134/1
f 221/141/1 252/139/1 222/138/1
f 220/142/1 252/139/1 221/141/1
f 219/143/1 252/139/1 220/142/1
f 218/144/1 252/139/1 219/143/1
f 88/145/1 65/135/1 89/140/1
f 217/146/1 252/139/1 218/144/1
f 217/146/1 133/147/1 252/139/1
f 216/148/1 133/147/1 217/146/1
f 88/145/1 66/149/1 65/135/1
f 215/150/1 133/147/1 216/148/1
f 87/151/1 66/149/1 88/145/1
f 86/152/1 66/149/1 87/151/1
f 214/153/1 133/147/1 215/150/1
f 85/154/1 66/149/1 86/152/1
f 85/154/1 67/155/1 66/149/1
f 213/156/1 133/147/1 214/153/1
f 213/156/1 134/157/1 133/147/1
f 84/158/1 67/155/1 85/154/1
f 83/159/1 67/155/1 84/158/1
f 212/160/1 134/157/1 213/156/1
f 82/161/1 67/155/1 83/159/1
f 82/161/1 68/162/1 67/155/1
f 211/163/1 134/157/1 212/160/1
f 81/164/1 68/162/1 82/161/1
f 211/163/1 135/165/1 134/157/1
f 80/166/1 68/162/1 81/164/1
f 210/167/1 135/165/1 211/163/1
f 79/168/1 68/162/1 80/166/1
f 79/168/1 69/169/1 68/162/1
f 209/170/1 135/165/1 210/167/1
f 78/171/1 69/169/1 79/168/1
f 209/170/1 136/172/1 135/165/1
f 77/173/1 69/169/1 78/171/1
f 208/174/1 136/172/1 209/170/1
f 77/173/1 70/175/1 69/169/1
f 76/176/1 70/175/1 77/173/1
f 207/177/1 136/172/1 208/174/1
f 75/178/1 70/175/1 76/176/1
f 75/178/1 71/179/1 70/175/1
f 74/180/1 71/179/1 75/178/1
f 207/177/1 137/181/1 136/172/1
f 206/182/1 137/181/1 207/177/1
f 73/183/1 71/179/1 74/180/1
f 73/183/1 72/184/1 71/179/1
f 205/185/1 137/181/1 206/182/1
f 204/186/1 137/181/1 205/185/1
f 204/186/1 138/187/1 137/181/1
f 203/188/1 138/187/1 204/186/1
f 202/189/1 138/187/1 203/188/1
f 201/190/1 138/187/1 202/189/1
f 200/191/1 138/187/1 201/190/1
f 199/192/1 138/187/1 200/191/1
f 199/192/1 139/193/1 138/187/1
f 198/194/1 139/193/1 199/192/1
f 197/195/1 139/193/1 198/194/1
f 196/196/1 139/193/1 197/195/1
f 195/197/1 139/193/1 196/196/1
f 194/198/1 139/193/1 195/197/1
f 193/199/1 139/193/1 194/198/1
f 192/200/1 139/193/1 193/199/1
f 192/200/1 140/201/1 139/193/1
f 191/202/1 140/201/1 192/200/1
f 190/203/1 140/201/1 191/202/1
f 189/204/1 140/201/1 190/203/1
f 188/205/1 140/201/1 189/204/1
f 187/206/1 140/201/1 188/205/1
f 186/207/1 140/201/1 187/206/1
f 185/208/1 140/201/1 186/207/1
f 185/208/1 141/209/1 140/201/1
f 184/210/1 141/209/1 185/208/1
f 183/211/1 141/209/1 184/210/1
f 182/212/1 141/209/1 183/211/1
f 181/213/1 141/209/1 182/212/1
f 180/214/1 141/209/1 181/213/1
f 179/215/1 141/209/1 180/214/1
f 178/216/1 141/209/1 179/215/1
f 178/216/1 142/217/1 141/209/1
f 177/218/1 142/217/1 178/216/1
f 176/219/1 142/217/1 177/218/1
f 175/220/1 142/217/1 176/219/1
f 174/221/1 142/217/1 175/220/1
f 173/222/1 142/217/1 174/221/1
f 172/223/1 142/217/1 173/222/1
f 171/224/1 142/217/1 172/223/1
f 170/225/1 142/217/1 171/224/1
f 169/226/1 142/217/1 170/225/1
f 168/227/1 142/217/1 169/226/1
f 167/228/1 142/217/1 168/227/1
f 167/228/1 143/229/1 142/217/1
f 166/230/1 143/229/1 167/228/1
f 165/231/1 143/229/1 166/230/1
f 164/232/1 143/229/1 165/231/1
f 164/232/1 144/233/1 143/229/1
f 163/234/1 144/233/1 164/232/1
f 162/235/1 144/233/1 163/234/1
f 161/236/1 144/233/1 162/235/1
f 161/236/1 145/237/1 144/233/1
f 160/238/1 145/237/1 161/236/1
f 160/238/1 146/239/1 145/237/1
f 159/240/1 146/239/1 160/238/1
f 159/240/1 147/241/1 146/239/1
f 159/240/1 148/242/1 147/241/1
f 158/243/1 148/242/1 159/240/1
f 158/243/1 149/244/1 148/242/1
f 158/243/1 150/245/1 149/244/1
f 157/246/1 150/245/1 158/243/1
f 157/246/1 151/247/1 150/245/1
f 157/246/1 152/248/1 151/247/1
f 156/249/1 152/248/1 157/246/1
f 156/249/1 153/250/1 152/248/1
f 155/251/1 153/250/1 156/249/1
f 155/251/1 154/252/1 153/250/1
f 269/1/3 270/3/3 271/2/3
f 269/1/3 271/2/3 272/4/3
f 268/5/3 269/1/3 272/4/3
f 268/5/3 272/4/3 273/6/3
f 268/5/3 273/6/3 274/7/3
f 267/8/3 268/5/3 274/7/3
f 267/8/3 274/7/3 275/9/3
f 267/8/3 275/9/3 276/10/3
f 267/8/3 276/10/3 277/11/3
f 267/8/3 277/11/3 278/12/3
f 267/8/3 278/12/3 279/13/3
f 267/8/3 279/13/3 280/14/3
f 267/8/3 280/14/3 281/15/3
f 267/8/3 281/15/3 282/16/3
f 267/8/3 282/16/3 283/17/3
f 267/8/3 283/17/3 284/18/3
f 267/8/3 284/18/3 285/19/3
f 267/8/3 285/19/3 286/20/3
f 267/8/3 286/20/3 287/21/3
f 267/8/3 287/21/3 288/22/3
f 267/8/3 288/22/3 289/23/3
f 267/8/3 289/23/3 290/24/3
f 266/25/3 267/8/3 290/24/3
f 266/25/3 290/24/3 291/26/3
f 266/25/3 291/26/3 292/27/3
f 266/25/3 292/27/3 293/28/3
f 265/29/3 266/25/3 293/28/3
f 265/29/3 293/28/3 294/30/3
f 264/31/3 265/29/3 294/30/3
f 264/31/3 294/30/3 295/32/3
f 264/31/3 295/32/3 296/33/3
f 263/34/3 264/31/3 296/33/3
f 262/35/3 263/34/3 296/33/3
f 262/35/3 296/33/3 297/36/3
f 261/37/3 262/35/3 297/36/3
f 261/37/3 297/36/3 298/38/3
f 260/39/3 261/37/3 298/38/3
f 259/40/3 260/39/3 298/38/3
f 259/40/3 298/38/3 299/41/3
f 258/42/3 259/40/3 299/41/3
f 258/42/3 299/41/3 300/43/3
f 257/44/3 258/42/3 300/43/3
f 256/45/3 257/44/3 300/43/3
f 256/45/3 300/43/3 301/46/3
f 255/47/3 256/45/3 301/46/3
f 255/47/3 301/46/3 302/48/3
f 255/47/3 302/48/3 303/49/3
f 254/50/3 255/47/3 303/49/3
f 254/50/3 303/49/3 304/51/3
f 254/50/3 304/51/3 305/52/3
f 253/53/3 254/50/3 305/52/3
f 253/53/3 305/52/3 306/54/3
f 384/55/3 253/53/3 306/54/3
f 384/55/3 306/54/3 307/56/3
f 384/55/3 307/56/3 308/57/3
f 383/58/3 384/55/3 308/57/3
f 383/58/3 308/57/3 309/59/3
f 383/58/3 309/59/3 310/60/3
f 382/61/3 383/58/3 310/60/3
f 382/61/3 310/60/3 311/62/3
f 382/61/3 311/62/3 312/63/3
f 382/61/3 312/63/3 313/64/3
f 381/65/3 382/61/3 313/64/3
f 380/66/3 381/65/3 360/67/3
f 360/67/3 381/65/3 359/68/3
f 359/68/3 381/65/3 313/64/3
f 380/66/3 360/67/3 361/69/3
f 358/70/4 359/68/4 313/64/4
f 357/71/3 358/70/3 313/64/3
f 356/72/3 357/71/3 313/64/3
f 380/66/3 361/69/3 362/73/3
f 355/74/3 356/72/3 313/64/3
f 380/66/3 362/73/3 363/75/3
f 354/76/3 355/74/3 313/64/3
f 379/77/3 380/66/3 363/75/3
f 354/76/3 313/64/3 314/78/3
f 353/79/3 354/76/3 314/78/3
f 379/77/3 363/75/3 364/80/3
f 352/81/3 353/79/3 314/78/3
f 379/77/3 364/80/3 365/82/3
f 351/83/3 352/81/3 314/78/3
f 379/77/3 365/82/3 366/84/3
f 378/85/3 379/77/3 366/84/3
f 378/85/3 366/84/3 367/86/3
f 350/87/3 351/83/3 314/78/3
f 377/88/3 378/85/3 367/86/3
f 377/88/3 367/86/3 368/89/3
f 349/90/3 350/87/3 314/78/3
f 377/88/3 368/89/3 369/91/3
f 376/92/3 377/88/3 369/91/3
f 376/92/3 369/91/3 370/93/3
f 375/94/3 376/92/3 370/93/3
f 375/94/3 370/93/3 371/95/3
f 374/96/3 375/94/3 371/95/3
f 348/97/3 349/90/3 314/78/3
f 373/98/3 374/96/3 371/95/3
f 373/98/3 371/95/3 372/99/3
f 348/97/3 314/78/3 315/100/3
f 347/101/3 348/97/3 315/100/3
f 491/102/3 492/104/3 493/103/3
f 491/102/3 493/103/3 494/105/3
f 490/106/3 491/102/3 494/105/3
f 489/107/3 490/106/3 494/105/3
f 489/107/3 494/105/3 495/108/3
f 488/109/3 489/107/3 495/108/3
f 488/109/3 495/108/3 496/110/3
f 487/111/3 488/109/3 496/110/3
f 487/111/3 496/110/3 497/112/3
f 486/113/3 487/111/3 497/112/3
f 346/114/3 347/101/3 315/100/3
f 485/115/3 486/113/3 497/112/3
f 485/115/3 497/112/3 498/116/3
f 484/117/3 485/115/3 498/116/3
f 484/117/3 498/116/3 499/118/3
f 483/119/3 484/117/3 499/118/3
f 345/120/3 346/114/3 315/100/3
f 483/119/3 499/118/3 500/121/3
f 482/122/3 483/119/3 500/121/3
f 345/120/3 315/100/3 316/123/3
f 482/122/3 500/121/3 501/124/3
f 481/125/3 482/122/3 501/124/3
f 344/126/3 345/120/3 316/123/3
f 480/127/3 481/125/3 501/124/3
f 480/127/3 501/124/3 502/128/3
f 343/129/3 344/126/3 316/123/3
f 479/130/3 480/127/3 502/128/3
f 478/131/3 479/130/3 502/128/3
f 478/131/3 502/128/3 503/132/3
f 477/133/3 478/131/3 503/132/3
f 342/134/3 343/129/3 316/123/3
f 342/134/3 316/123/3 317/135/3
f 476/136/3 477/133/3 503/132/3
f 475/137/3 476/136/3 503/132/3
f 474/138/3 475/137/3 503/132/3
f 474/138/3 503/132/3 504/139/3
f 341/140/3 342/134/3 317/135/3
f 473/141/3 474/138/3 504/139/3
f 472/142/3 473/141/3 504/139/3
f 471/143/3 472/142/3 504/139/3
f 470/144/3 471/143/3 504/139/3
f 340/145/3 341/140/3 317/135/3
f 469/146/3 470/144/3 504/139/3
f 469/146/3 504/139/3 385/147/3
f 468/148/3 469/146/3 385/147/3
f 340/145/3 317/135/3 318/149/3
f 467/150/3 468/148/3 385/147/3
f 339/151/3 340/145/3 318/149/3
f 338/152/3 339/151/3 318/149/3
f 466/153/3 467/150/3 385/147/3
f 337/154/3 338/152/3 318/149/3
f 337/154/3 318/149/3 319/155/3
f 465/156/3 466/153/3 385/147/3
f 465/156/3 385/147/3 386/157/3
f 336/158/3 337/154/3 319/155/3
f 335/159/3 336/158/3 319/155/3
f 464/160/3 465/156/3 386/157/3
f 334/161/3 335/159/3 319/155/3
f 334/161/3 319/155/3 320/162/3
f 463/163/3 464/160/3 386/157/3
f 333/164/3 334/161/3 320/162/3
f 463/163/3 386/157/3 387/165/3
f 332/166/3 333/164/3 320/162/3
f 462/167/3 463/163/3 387/165/3
f 331/168/3 332/166/3 320/162/3
f 331/168/3 320/162/3 321/169/3
f 461/170/3 462/167/3 387/165/3
f 330/171/3 331/168/3 321/169/3
f 461/170/3 387/165/3 388/172/3
f 329/173/3 330/171/3 321/169/3
f 460/174/3 461/170/3 388/172/3
f 329/173/3 321/169/3 322/175/3
f 328/176/3 329/173/3 322/175/3
f 459/177/3 460/174/3 388/172/3
f 327/178/3 328/176/3 322/175/3
f 327/178/3 322/175/3 323/179/3
f 326/180/3 327/178/3 323/179/3
f 459/177/3 388/172/3 389/181/3
f 458/182/3 459/177/3 389/181/3
f 325/183/3 326/180/3 323/179/3
f 325/183/3 323/179/3 324/184/3
f 457/185/3 458/182/3 389/181/3
f 456/186/3 457/185/3 389/181/3
f 456/186/3 389/181/3 390/187/3
f 455/188/3 456/186/3 390/187/3
f 454/189/3 455/188/3 390/187/3
f 453/190/3 454/189/3 390/187/3
f 452/191/3 453/190/3 390/187/3
f 451/192/3 452/191/3 390/187/3
f 451/192/3 390/187/3 391/193/3
f 450/194/3 451/192/3 391/193/3
f 449/195/3 450/194/3 391/193/3
f 448/196/3 449/195/3 391/193/3
f 447/197/3 448/196/3 391/193/3
f 446/198/3 447/197/3 391/193/3
f 445/199/3 446/198/3 391/193/3
f 444/200/3 445/199/3 391/193/3
f 444/200/3 391/193/3 392/201/3
f 443/202/3 444/200/3 392/201/3
f 442/203/3 443/202/3 392/201/3
f 441/204/3 442/203/3 392/201/3
f 440/205/3 441/204/3 392/201/3
f 439/206/3 440/205/3 392/201/3
f 438/207/3 439/206/3 392/201/3
f 437/208/3 438/207/3 392/201/3
f 437/208/3 392/201/3 393/209/3
f 436/210/3 437/208/3 393/209/3
f 435/211/3 436/210/3 393/209/3
f 434/212/3 435/211/3 393/209/3
f 433/213/3 434/212/3 393/209/3
f 432/214/3 433/213/3 393/209/3
f 431/215/3 432/214/3 393/209/3
f 430/216/3 431/215/3 393/209/3
f 430/216/3 393/209/3 394/217/3
f 429/218/3 430/216/3 394/217/3
f 428/219/3 429/218/3 394/217/3
f 427/220/3 428/219/3 394/217/3
f 426/221/3 427/220/3 394/217/3
f 425/222/3 426/221/3 394/217/3
f 424/223/3 425/222/3 394/217/3
f 423/224/3 424/223/3 394/217/3
f 422/225/3 423/224/3 394/217/3
f 421/226/3 422/225/3 394/217/3
f 420/227/3 421/226/3 394/217/3
f 419/228/3 420/227/3 394/217/3
f 419/228/3 394/217/3 395/229/3
f 418/230/3 419/228/3 395/229/3
f 417/231/3 418/230/3 395/229/3
f 416/232/3 417/231/3 395/229/3
f 416/232/3 395/229/3 396/233/3
f 415/234/3 416/232/3 396/233/3
f 414/235/3 415/234/3 396/233/3
f 413/236/3 414/235/3 396/233/3
f 413/236/3 396/233/3 397/237/3
f 412/238/3 413/236/3 397/237/3
f 412/238/3 397/237/3 398/239/3
f 411/240/3 412/238/3 398/239/3
f 411/240/3 398/239/3 399/241/3
f 411/240/3 399/241/3 400/242/3
f 410/243/3 411/240/3 400/242/3
f 410/243/3 400/242/3 401/244/3
f 410/243/3 401/244/3 402/245/3
f 409/246/3 410/243/3 402/245/3
f 409/246/3 402/245/3 403/247/3
f 409/246/3 403/247/3 404/248/3
f 408/249/3 409/246/3 404/248/3
f 408/249/3 404/248/3 405/250/3
f 407/251/3 408/249/3 405/250/3
f 407/251/3 405/250/3 406/252/3
s 1
f 508/253/5 505/53/6 506/254/6
f 510/255/7 507/256/5 508/253/5
f 512/257/8 509/258/7 510/255/7
f 514/259/9 511/260/8 512/257/8
f 516/261/10 513/262/9 514/259/9
f 518/263/11 515/264/10 516/261/10
f 520/265/12 517/266/11 518/263/11
f 522/267/13 519/268/12 520/265/12
f 524/269/14 521/270/15 522/267/13
f 526/271/16 523/272/14 524/269/14
f 528/273/17 525/274/16 526/271/16
f 530/275/18 527/276/17 528/273/17
f 532/277/19 529/278/18 530/275/18
f 534/279/20 531/280/19 532/277/19
f 536/281/21 533/282/20 534/279/20
f 538/283/22 535/284/21 536/281/21
f 540/285/23 537/286/22 538/283/22
f 542/287/24 539/288/23 540/285/23
f 544/289/25 541/290/24 542/287/24
f 546/291/26 543/292/25 544/289/25
f 548/293/27 545/294/26 546/291/26
f 550/295/28 547/296/27 548/293/27
f 552/297/29 549/298/28 550/295/28
f 554/299/30 551/300/29 552/297/29
f 556/301/30 553/302/30 554/299/30
f 558/303/30 555/304/30 556/301/30
f 560/305/30 557/306/30 558/303/30
f 562/307/30 559/308/30 560/305/30
f 564/309/30 561/310/30 562/307/30
f 566/311/30 563/312/30 564/309/30
f 568/313/30 565/314/30 566/311/30
f 570/315/30 567/316/30 568/313/30
f 572/317/30 569/318/30 570/315/30
f 574/319/30 571/320/30 572/317/30
f 576/321/31 573/322/30 574/319/30
f 578/323/32 575/324/31 576/321/31
f 580/325/33 577/326/32 578/323/32
f 582/327/34 579/328/33 580/325/33
f 584/329/35 581/330/34 582/327/34
f 586/331/36 583/332/35 584/329/35
f 588/333/37 585/334/36 586/331/36
f 590/335/38 587/336/37 588/333/37
f 592/337/39 589/338/38 590/335/38
f 594/339/40 591/340/39 592/337/39
f 596/341/41 593/342/40 594/339/40
f 598/343/42 595/344/41 596/341/41
f 600/345/43 597/346/42 598/343/42
f 602/347/44 599/348/43 600/345/43
f 604/349/45 601/350/44 602/347/44
f 606/351/46 603/352/45 604/349/45
f 608/353/47 605/354/46 606/351/46
f 610/355/48 607/356/47 608/353/47
f 612/357/49 609/358/48 610/355/48
f 614/359/50 611/360/49 612/357/49
f 616/361/51 613/362/50 614/359/50
f 618/363/52 615/364/51 616/361/51
f 620/365/53 617/366/52 618/363/52
f 622/367/54 619/368/53 620/365/53
f 624/369/55 621/370/54 622/367/54
f 626/371/56 623/372/55 624/369/55
f 628/373/57 625/374/56 626/371/56
f 630/375/58 627/376/57 628/373/57
f 632/377/59 629/378/58 630/375/58
f 634/379/60 631/380/59 632/377/59
f 636/381/61 633/382/60 634/379/60
f 638/383/62 635/384/61 636/381/61
f 640/385/63 637/386/62 638/383/62
f 642/387/64 639/388/63 640/385/63
f 644/389/65 641/390/64 642/387/64
f 646/391/66 643/392/65 644/389/65
f 648/393/67 645/394/66 646/391/66
f 650/395/68 647/396/67 648/393/67
f 652/397/69 649/398/68 650/395/68
f 654/399/70 651/400/69 652/397/69
f 656/401/71 653/402/70 654/399/70
f 658/403/72 655/404/71 656/401/71
f 660/405/73 657/406/72 658/403/72
f 662/407/74 659/408/73 660/405/73
f 664/409/75 661/410/74 662/407/74
f 666/411/76 663/412/75 664/409/75
f 668/413/77 665/414/76 666/411/76
f 670/415/78 667/416/77 668/413/77
f 672/417/79 669/418/78 670/415/78
f 674/419/80 671/420/79 672/417/79
f 676/421/81 673/422/80 674/419/80
f 678/423/82 675/424/81 676/421/81
f 680/425/83 677/426/82 678/423/82
f 682/427/84 679/428/83 680/425/83
f 684/429/85 681/430/84 682/427/84
f 686/431/86 683/432/85 684/429/85
f 688/433/87 685/434/86 686/431/86
f 690/435/88 687/436/87 688/433/87
f 692/437/89 689/438/88 690/435/88
f 694/439/90 691/440/89 692/437/89
f 696/441/91 693/442/90 694/439/90
f 698/443/92 695/444/91 696/441/91
f 700/445/93 697/446/92 698/443/92
f 702/447/94 699/448/93 700/445/93
f 704/449/95 701/450/94 702/447/94
f 706/451/96 703/452/95 704/449/95
f 708/453/97 705/454/96 706/451/96
f 710/455/98 707/456/97 708/453/97
f 712/457/99 709/458/98 710/455/98
f 714/459/100 711/460/99 712/457/99
f 716/461/101 713/462/100 714/459/100
f 718/463/102 715/464/101 716/461/101
f 720/465/103 717/466/102 718/463/102
f 722/467/104 719/468/103 720/465/103
f 724/469/105 721/470/104 722/467/104
f 726/471/106 723/472/105 724/469/105
f 728/473/107 725/474/106 726/471/106
f 730/475/108 727/476/107 728/473/107
f 732/477/109 729/478/108 730/475/108
f 734/479/108 731/480/109 732/477/109
f 736/481/107 733/482/108 734/479/108
f 738/483/106 735/484/107 736/481/107
f 740/485/105 737/486/106 738/483/106
f 742/487/104 739/488/105 740/485/105
f 744/489/110 741/490/104 742/487/104
f 746/491/111 743/492/110 744/489/110
f 748/493/112 745/494/111 746/491/111
f 750/495/113 747/496/112 748/493/112
f 752/497/114 749/498/113 750/495/113
f 754/499/115 751/500/114 752/497/114
f 756/501/116 753/502/115 754/499/115
f 758/503/117 755/504/116 756/501/116
f 760/505/118 757/506/117 758/503/117
f 762/507/119 759/508/118 760/505/118
f 764/509/120 761/510/119 762/507/119
f 766/511/121 763/512/120 764/509/120
f 768/513/122 765/514/121 766/511/121
f 506/515/6 767/516/122 768/513/122
f 772/517/123 769/53/124 770/254/124
f 774/518/125 771/519/123 772/517/123
f 776/520/126 773/521/125 774/518/125
f 778/522/127 775/523/126 776/520/126
f 780/524/128 777/525/127 778/522/127
f 782/526/129 779/527/128 780/524/128
f 784/528/130 781/529/129 782/526/129
f 786/530/131 783/531/130 784/528/130
f 788/532/132 785/533/131 786/530/131
f 790/273/133 787/534/132 788/532/132
f 792/535/134 789/276/133 790/273/133
f 794/536/135 791/537/134 792/535/134
f 796/538/136 793/539/135 794/536/135
f 798/540/137 795/541/136 796/538/136
f 800/542/138 797/543/137 798/540/137
f 802/544/139 799/545/138 800/542/138
f 804/546/140 801/547/139 802/544/139
f 806/548/141 803/549/140 804/546/140
f 808/550/142 805/551/141 806/548/141
f 810/295/143 807/552/142 808/550/142
f 812/553/144 809/298/143 810/295/143
f 814/554/145 811/555/144 812/553/144
f 816/556/146 813/557/145 814/554/145
f 818/558/147 815/559/146 816/556/146
f 820/560/148 817/561/147 818/558/147
f 822/562/149 819/563/148 820/560/148
f 824/564/150 821/565/149 822/562/149
f 826/566/151 823/567/150 824/564/150
f 828/568/152 825/569/151 826/566/151
f 830/317/153 827/570/152 828/568/152
f 832/571/154 829/320/153 830/317/153
f 834/572/155 831/573/154 832/571/154
f 836/574/156 833/575/155 834/572/155
f 838/576/157 835/577/156 836/574/156
f 840/578/158 837/579/157 838/576/157
f 842/580/159 839/581/158 840/578/158
f 844/582/160 841/583/159 842/580/159
f 846/584/161 843/585/160 844/582/160
f 848/586/162 845/587/161 846/584/161
f 850/339/163 847/588/162 848/586/162
f 852/589/164 849/342/163 850/339/163
f 854/590/165 851/591/164 852/589/164
f 856/592/166 853/593/167 854/590/165
f 858/594/168 855/595/166 856/592/166
f 860/596/169 857/597/168 858/594/168
f 862/598/170 859/599/169 860/596/169
f 864/600/171 861/601/170 862/598/170
f 866/602/172 863/603/171 864/600/171
f 868/604/173 865/605/172 866/602/172
f 870/361/174 867/606/173 868/604/173
f 872/607/175 869/364/174 870/361/174
f 874/608/176 871/609/175 872/607/175
f 876/610/177 873/611/176 874/608/176
f 878/612/178 875/613/179 876/610/177
f 880/614/180 877/615/178 878/612/178
f 882/616/181 879/617/180 880/614/180
f 884/618/182 881/619/181 882/616/181
f 886/620/183 883/621/182 884/618/182
f 888/622/184 885/623/183 886/620/183
f 890/383/185 887/624/184 888/622/184
f 892/625/186 889/386/185 890/383/185
f 894/626/187 891/627/186 892/625/186
f 896/628/188 893/629/187 894/626/187
f 898/630/189 895/631/188 896/628/188
f 900/632/190 897/633/189 898/630/189
f 902/634/191 899/635/190 900/632/190
f 904/636/192 901/637/191 902/634/191
f 906/638/193 903/639/194 904/636/192
f 908/640/195 905/641/193 906/638/193
f 910/405/196 907/642/195 908/640/195
f 912/643/197 909/408/196 910/405/196
f 914/644/198 911/645/197 912/643/197
f 916/646/199 913/647/198 914/644/198
f 918/648/200 915/649/199 916/646/199
f 920/650/201 917/651/200 918/648/200
f 922/652/202 919/653/201 920/650/201
f 924/654/203 921/655/202 922/652/202
f 926/656/204 923/657/203 924/654/203
f 928/658/205 925/659/204 926/656/204
f 930/427/206 927/660/205 928/658/205
f 932/661/207 929/430/206 930/427/206
f 934/662/208 931/663/207 932/661/207
f 936/664/209 933/665/208 934/662/208
f 938/666/210 935/667/209 936/664/209
f 940/668/211 937/669/212 938/666/210
f 942/670/213 939/671/211 940/668/211
f 944/672/214 941/673/213 942/670/213
f 946/674/215 943/675/214 944/672/214
f 948/676/216 945/677/217 946/674/215
f 950/449/218 947/678/216 948/676/216
f 952/679/219 949/452/218 950/449/218
f 954/680/220 951/681/219 952/679/219
f 956/682/221 953/683/220 954/680/220
f 958/684/222 955/685/221 956/682/221
f 960/686/223 957/687/222 958/684/222
f 962/688/224 959/689/223 960/686/223
f 964/690/225 961/691/224 962/688/224
f 966/692/226 963/693/225 964/690/225
f 968/694/227 965/695/226 966/692/226
f 970/471/228 967/696/227 968/694/227
f 972/697/229 969/474/228 970/471/228
f 974/698/230 971/699/229 972/697/229
f 976/700/231 973/701/230 974/698/230
f 978/702/232 975/703/231 976/700/231
f 980/704/233 977/705/232 978/702/232
f 982/706/234 979/707/233 980/704/233
f 984/708/235 981/709/234 982/706/234
f 986/710/236 983/711/235 984/708/235
f 988/712/237 985/713/236 986/710/236
f 990/493/238 987/714/237 988/712/237
f 992/715/239 989/496/238 990/493/238
f 994/716/240 991/717/239 992/715/239
f 996/718/241 993/719/240 994/716/240
f 998/720/242 995/721/241 996/718/241
f 1000/722/243 997/723/242 998/720/242
f 1002/724/244 999/725/243 1000/722/243
f 1004/726/245 1001/727/244 1002/724/244
f 1006/728/246 1003/729/245 1004/726/245
f 1008/730/247 1005/731/246 1006/728/246
f 770/515/124 1007/732/247 1008/730/247
f 508/253/5 507/256/5 505/53/6
f 510/255/7 509/258/7 507/256/5
f 512/257/8 511/260/8 509/258/7
f 514/259/9 513/262/9 511/260/8
f 516/261/10 515/264/10 513/262/9
f 518/263/11 517/266/11 515/264/10
f 520/265/12 519/268/12 517/266/11
f 522/267/13 521/270/15 519/268/12
f 524/269/14 523/272/14 521/270/15
f 526/271/16 525/274/16 523/272/14
f 528/273/17 527/276/17 525/274/16
f 530/275/18 529/278/18 527/276/17
f 532/277/19 531/280/19 529/278/18
f 534/279/20 533/282/20 531/280/19
f 536/281/21 535/284/21 533/282/20
f 538/283/22 537/286/22 535/284/21
f 540/285/23 539/288/23 537/286/22
f 542/287/24 541/290/24 539/288/23
f 544/289/25 543/292/25 541/290/24
f 546/291/26 545/294/26 543/292/25
f 548/293/27 547/296/27 545/294/26
f 550/295/28 549/298/28 547/296/27
f 552/297/29 551/300/29 549/298/28
f 554/299/30 553/302/30 551/300/29
f 556/301/30 555/304/30 553/302/30
f 558/303/30 557/306/30 555/304/30
f 560/305/30 559/308/30 557/306/30
f 562/307/30 561/310/30 559/308/30
f 564/309/30 563/312/30 561/310/30
f 566/311/30 565/314/30 563/312/30
f 568/313/30 567/316/30 565/314/30
f 570/315/30 569/318/30 567/316/30
f 572/317/30 571/320/30 569/318/30
f 574/319/30 573/322/30 571/320/30
f 576/321/31 575/324/31 573/322/30
f 578/323/32 577/326/32 575/324/31
f 580/325/33 579/328/33 577/326/32
f 582/327/34 581/330/34 579/328/33
f 584/329/35 583/332/35 581/330/34
f 586/331/36 585/334/36 583/332/35
f 588/333/37 587/336/37 585/334/36
f 590/335/38 589/338/38 587/336/37
f 592/337/39 591/340/39 589/338/38
f 594/339/40 593/342/40 591/340/39
f 596/341/41 595/344/41 593/342/40
f 598/343/42 597/346/42 595/344/41
f 600/345/43 599/348/43 597/346/42
f 602/347/44 601/350/44 599/348/43
f 604/349/45 603/352/45 601/350/44
f 606/351/46 605/354/46 603/352/45
f 608/353/47 607/356/47 605/354/46
f 610/355/48 609/358/48 607/356/47
f 612/357/49 611/360/49 609/358/48
f 614/359/50 613/362/50 611/360/49
f 616/361/51 615/364/51 613/362/50
f 618/363/52 617/366/52 615/364/51
f 620/365/53 619/368/53 617/366/52
f 622/367/54 621/370/54 619/368/53
f 624/369/55 623/372/55 621/370/54
f 626/371/56 625/374/56 623/372/55
f 628/373/57 627/376/57 625/374/56
f 630/375/58 629/378/58 627/376/57
f 632/377/59 631/380/59 629/378/58
f 634/379/60 633/382/60 631/380/59
f 636/381/61 635/384/61 633/382/60
f 638/383/62 637/386/62 635/384/61
f 640/385/63 639/388/63 637/386/62
f 642/387/64 641/390/64 639/388/63
f 644/389/65 643/392/65 641/390/64
f 646/391/66 645/394/66 643/392/65
f 648/393/67 647/396/67 645/394/66
f 650/395/68 649/398/68 647/396/67
f 652/397/69 651/400/69 649/398/68
f 654/399/70 653/402/70 651/400/69
f 656/401/71 655/404/71 653/402/70
f 658/403/72 657/406/72 655/404/71
f 660/405/73 659/408/73 657/406/72
f 662/407/74 661/410/74 659/408/73
f 664/409/75 663/412/75 661/410/74
f 666/411/76 665/414/76 663/412/75
f 668/413/77 667/416/77 665/414/76
f 670/415/78 669/418/78 667/416/77
f 672/417/79 671/420/79 669/418/78
f 674/419/80 673/422/80 671/420/79
f 676/421/81 675/424/81 673/422/80
f 678/423/82 677/426/82 675/424/81
f 680/425/83 679/428/83 677/426/82
f 682/427/84 681/430/84 679/428/83
f 684/429/85 683/432/85 681/430/84
f 686/431/86 685/434/86 683/432/85
f 688/433/87 687/436/87 685/434/86
f 690/435/88 689/438/88 687/436/87
f 692/437/89 691/440/89 689/438/88
f 694/439/90 693/442/90 691/440/89
f 696/441/91 695/444/91 693/442/90
f 698/443/92 697/446/92 695/444/91
f 700/445/93 699/448/93 697/446/92
f 702/447/94 701/450/94 699/448/93
f 704/449/95 703/452/95 701/450/94
f 706/451/96 705/454/96 703/452/95
f 708/453/97 707/456/97 705/454/96
f 710/455/98 709/458/98 707/456/97
f 712/457/99 711/460/99 709/458/98
f 714/459/100 713/462/100 711/460/99
f 716/461/101 715/464/101 713/462/100
f 718/463/102 717/466/102 715/464/101
f 720/465/103 719/468/103 717/466/102
f 722/467/104 721/470/104 719/468/103
f 724/469/105 723/472/105 721/470/104
f 726/471/106 725/474/106 723/472/105
f 728/473/107 727/476/107 725/474/106
f 730/475/108 729/478/108 727/476/107
f 732/477/109 731/480/109 729/478/108
f 734/479/108 733/482/108 731/480/109
f 736/481/107 735/484/107 733/482/108
f 738/483/106 737/486/106 735/484/107
f 740/485/105 739/488/105 737/486/106
f 742/487/104 741/490/104 739/488/105
f 744/489/110 743/492/110 741/490/104
f 746/491/111 745/494/111 743/492/110
f 748/493/112 747/496/112 745/494/111
f 750/495/113 749/498/113 747/496/112
f 752/497/114 751/500/114 749/498/113
f 754/499/115 753/502/115 751/500/114
f 756/501/116 755/504/116 753/502/115
f 758/503/117 757/506/117 755/504/116
f 760/505/118 759/508/118 757/506/117
f 762/507/119 761/510/119 759/508/118
f 764/509/120 763/512/120 761/510/119
f 766/511/121 765/514/121 763/512/120
f 768/513/122 767/516/122 765/514/121
f 506/515/6 505/139/6 767/516/122
f 772/517/123 771/519/123 769/53/124
f 774/518/125 773/521/125 771/519/123
f 776/520/126 775/523/126 773/521/125
f 778/522/127 777/525/127 775/523/126
f 780/524/128 779/527/128 777/525/127
f 782/526/129 781/529/129 779/527/128
f 784/528/130 783/531/130 781/529/129
f 786/530/131 785/533/131 783/531/130
f 788/532/132 787/534/132 785/533/131
f 790/273/133 789/276/133 787/534/132
f 792/535/134 791/537/134 789/276/133
f 794/536/135 793/539/135 791/537/134
f 796/538/136 795/541/136 793/539/135
f 798/540/137 797/543/137 795/541/136
f 800/542/138 799/545/138 797/543/137
f 802/544/139 801/547/139 799/545/138
f 804/546/140 803/549/140 801/547/139
f 806/548/141 805/551/141 803/549/140
f 808/550/142 807/552/142 805/551/141
f 810/295/143 809/298/143 807/552/142
f 812/553/144 811/555/144 809/298/143
f 814/554/145 813/557/145 811/555/144
f 816/556/146 815/559/146 813/557/145
f 818/558/147 817/561/147 815/559/146
f 820/560/148 819/563/148 817/561/147
f 822/562/149 821/565/149 819/563/148
f 824/564/150 823/567/150 821/565/149
f 826/566/151 825/569/151 823/567/150
f 828/568/152 827/570/152 825/569/151
f 830/317/153 829/320/153 827/570/152
f 832/571/154 831/573/154 829/320/153
f 834/572/155 833/575/155 831/573/154
f 836/574/156 835/577/156 833/575/155
f 838/576/157 837/579/157 835/577/156
f 840/578/158 839/581/158 837/579/157
f 842/580/159 841/583/159 839/581/158
f 844/582/160 843/585/160 841/583/159
f 846/584/161 845/587/161 843/585/160
f 848/586/162 847/588/162 845/587/161
f 850/339/163 849/342/163 847/588/162
f 852/589/164 851/591/164 849/342/163
f 854/590/165 853/593/167 851/591/164
f 856/592/166 855/595/166 853/593/167
f 858/594/168 857/597/168 855/595/166
f 860/596/169 859/599/169 857/597/168
f 862/598/170 861/601/170 859/599/169
f 864/600/171 863/603/171 861/601/170
f 866/602/172 865/605/172 863/603/171
f 868/604/173 867/606/173 865/605/172
f 870/361/174 869/364/174 867/606/173
f 872/607/175 871/609/175 869/364/174
f 874/608/176 873/611/176 871/609/175
f 876/610/177 875/613/179 873/611/176
f 878/612/178 877/615/178 875/613/179
f 880/614/180 879/617/180 877/615/178
f 882/616/181 881/619/181 879/617/180
f 884/618/182 883/621/182 881/619/181
f 886/620/183 885/623/183 883/621/182
f 888/622/184 887/624/184 885/623/183
f 890/383/185 889/386/185 887/624/184
f 892/625/186 891/627/186 889/386/185
f 894/626/187 893/629/187 891/627/186
f 896/628/188 895/631/188 893/629/187
f 898/630/189 897/633/189 895/631/188
f 900/632/190 899/635/190 897/633/189
f 902/634/191 901/637/191 899/635/190
f 904/636/192 903/639/194 901/637/191
f 906/638/193 905/641/193 903/639/194
f 908/640/195 907/642/195 905/641/193
f 910/405/196 909/408/196 907/642/195
f 912/643/197 911/645/197 909/408/196
f 914/644/198 913/647/198 911/645/197
f 916/646/199 915/649/199 913/647/198
f 918/648/200 917/651/200 915/649/199
f 920/650/201 919/653/201 917/651/200
f 922/652/202 921/655/202 919/653/201
f 924/654/203 923/657/203 921/655/202
f 926/656/204 925/659/204 923/657/203
f 928/658/205 927/660/205 925/659/204
f 930/427/206 929/430/206 927/660/205
f 932/661/207 931/663/207 929/430/206
f 934/662/208 933/665/208 931/663/207
f 936/664/209 935/667/209 933/665/208
f 938/666/210 937/669/212 935/667/209
f 940/668/211 939/671/211 937/669/212
f 942/670/213 941/673/213 939/671/211
f 944/672/214 943/675/214 941/673/213
f 946/674/215 945/677/217 943/675/214
f 948/676/216 947/678/216 945/677/217
f 950/449/218 949/452/218 947/678/216
f 952/679/219 951/681/219 949/452/218
f 954/680/220 953/683/220 951/681/219
f 956/682/221 955/685/221 953/683/220
f 958/684/222 957/687/222 955/685/221
f 960/686/223 959/689/223 957/687/222
f 962/688/224 961/691/224 959/689/223
f 964/690/225 963/693/225 961/691/224
f 966/692/226 965/695/226 963/693/225
f 968/694/227 967/696/227 965/695/226
f 970/471/228 969/474/228 967/696/227
f 972/697/229 971/699/229 969/474/228
f 974/698/230 973/701/230 971/699/229
f 976/700/231 975/703/231 973/701/230
f 978/702/232 977/705/232 975/703/231
f 980/704/233 979/707/233 977/705/232
f 982/706/234 981/709/234 979/707/233
f 984/708/235 983/711/235 981/709/234
f 986/710/236 985/713/236 983/711/235
f 988/712/237 987/714/237 985/713/236
f 990/493/238 989/496/238 987/714/237
f 992/715/239 991/717/239 989/496/238
f 994/716/240 993/719/240 991/717/239
f 996/718/241 995/721/241 993/719/240
f 998/720/242 997/723/242 995/721/241
f 1000/722/243 999/725/243 997/723/242
f 1002/724/244 1001/727/244 999/725/243
f 1004/726/245 1003/729/245 1001/727/244
f 1006/728/246 1005/731/246 1003/729/245
f 1008/730/247 1007/732/247 1005/731/246
f 770/515/124 769/139/124 1007/732/247
