# Blender 4.1.1
# www.blender.org
mtllib gall.mtl
o 円柱
v 0.000000 1.000000 -0.034000
v 0.000000 1.000000 0.034000
v 0.195090 0.980785 -0.034000
v 0.195090 0.980785 0.034000
v 0.382683 0.923880 -0.034000
v 0.382683 0.923880 0.034000
v 0.555570 0.831470 -0.034000
v 0.555570 0.831470 0.034000
v 0.707107 0.707107 -0.034000
v 0.707107 0.707107 0.034000
v 0.831470 0.555570 -0.034000
v 0.831470 0.555570 0.034000
v 0.923880 0.382683 -0.034000
v 0.923880 0.382683 0.034000
v 0.980785 0.195090 -0.034000
v 0.980785 0.195090 0.034000
v 1.000000 0.000000 -0.034000
v 1.000000 -0.000000 0.034000
v 0.980785 -0.195090 -0.034000
v 0.980785 -0.195090 0.034000
v 0.923880 -0.382683 -0.034000
v 0.923880 -0.382683 0.034000
v 0.831470 -0.555570 -0.034000
v 0.831470 -0.555570 0.034000
v 0.707107 -0.707107 -0.034000
v 0.707107 -0.707107 0.034000
v 0.555570 -0.831470 -0.034000
v 0.555570 -0.831470 0.034000
v 0.382683 -0.923880 -0.034000
v 0.382683 -0.923880 0.034000
v 0.195090 -0.980785 -0.034000
v 0.195090 -0.980785 0.034000
v 0.000000 -1.000000 -0.034000
v 0.000000 -1.000000 0.034000
v -0.195090 -0.980785 -0.034000
v -0.195090 -0.980785 0.034000
v -0.382683 -0.923880 -0.034000
v -0.382683 -0.923880 0.034000
v -0.555570 -0.831470 -0.034000
v -0.555570 -0.831470 0.034000
v -0.707107 -0.707107 -0.034000
v -0.707107 -0.707107 0.034000
v -0.831470 -0.555570 -0.034000
v -0.831470 -0.555570 0.034000
v -0.923880 -0.382683 -0.034000
v -0.923880 -0.382683 0.034000
v -0.980785 -0.195090 -0.034000
v -0.980785 -0.195090 0.034000
v -1.000000 0.000000 -0.034000
v -1.000000 -0.000000 0.034000
v -0.980785 0.195090 -0.034000
v -0.980785 0.195090 0.034000
v -0.923880 0.382683 -0.034000
v -0.923880 0.382683 0.034000
v -0.831470 0.555570 -0.034000
v -0.831470 0.555570 0.034000
v -0.707107 0.707107 -0.034000
v -0.707107 0.707107 0.034000
v -0.555570 0.831470 -0.034000
v -0.555570 0.831470 0.034000
v -0.382683 0.923880 -0.034000
v -0.382683 0.923880 0.034000
v -0.195090 0.980785 -0.034000
v -0.195090 0.980785 0.034000
vn -0.0000 1.0000 -0.0000
vn 0.1951 0.9808 -0.0000
vn 0.3827 0.9239 -0.0000
vn 0.5556 0.8315 -0.0000
vn 0.7071 0.7071 -0.0000
vn 0.8315 0.5556 -0.0000
vn 0.9239 0.3827 -0.0000
vn 0.9808 0.1951 -0.0000
vn 1.0000 -0.0000 -0.0000
vn 0.9808 -0.1951 -0.0000
vn 0.9239 -0.3827 -0.0000
vn 0.8315 -0.5556 -0.0000
vn 0.7071 -0.7071 -0.0000
vn 0.5556 -0.8315 -0.0000
vn 0.3827 -0.9239 -0.0000
vn 0.1951 -0.9808 -0.0000
vn -0.0000 -1.0000 -0.0000
vn -0.1951 -0.9808 -0.0000
vn -0.3827 -0.9239 -0.0000
vn -0.5556 -0.8315 -0.0000
vn -0.7071 -0.7071 -0.0000
vn -0.8315 -0.5556 -0.0000
vn -0.9239 -0.3827 -0.0000
vn -0.9808 -0.1951 -0.0000
vn -1.0000 -0.0000 -0.0000
vn -0.9808 0.1951 -0.0000
vn -0.9239 0.3827 -0.0000
vn -0.8315 0.5556 -0.0000
vn -0.7071 0.7071 -0.0000
vn -0.5556 0.8315 -0.0000
vn -0.3827 0.9239 -0.0000
vn -0.0000 -0.0000 1.0000
vn -0.1951 0.9808 -0.0000
vn -0.0000 -0.0000 -1.0000
vt 0.091779 0.071540
vt 0.036988 0.091504
vt 0.036988 0.071540
vt 0.091779 0.111468
vt 0.036988 0.111468
vt 0.036988 0.131431
vt 0.091779 0.131431
vt 0.036988 0.151395
vt 0.091779 0.151395
vt 0.036988 0.171359
vt 0.091779 0.171359
vt 0.036988 0.191323
vt 0.091779 0.191323
vt 0.036988 0.211286
vt 0.091779 0.211286
vt 0.036988 0.231250
vt 0.091779 0.231250
vt 0.036988 0.251214
vt 0.091779 0.251214
vt 0.036988 0.271178
vt 0.091779 0.271178
vt 0.036988 0.291142
vt 0.091779 0.291142
vt 0.036988 0.311105
vt 0.091779 0.311105
vt 0.036988 0.331069
vt 0.091779 0.331069
vt 0.036988 0.351033
vt 0.091779 0.370997
vt 0.036988 0.370997
vt 0.036988 0.390960
vt 0.091779 0.390960
vt 0.036988 0.410924
vt 0.091779 0.410924
vt 0.036988 0.430888
vt 0.091779 0.430888
vt 0.036988 0.450852
vt 0.091779 0.450852
vt 0.036988 0.470815
vt 0.091779 0.470815
vt 0.036988 0.490779
vt 0.091779 0.490779
vt 0.036988 0.510743
vt 0.091779 0.510743
vt 0.036988 0.530707
vt 0.091779 0.530707
vt 0.036988 0.550671
vt 0.091779 0.550671
vt 0.036988 0.570634
vt 0.091779 0.570634
vt 0.036988 0.590598
vt 0.091779 0.590598
vt 0.036988 0.610562
vt 0.091779 0.610562
vt 0.036988 0.630526
vt 0.091779 0.630526
vt 0.036988 0.650489
vt 0.091779 0.650489
vt 0.036988 0.670453
vt 0.903493 0.742189
vt 0.238405 0.898286
vt 0.082307 0.233198
vt 0.091779 0.670453
vt 0.036988 0.690417
vt 0.091779 0.690417
vt 0.036988 0.710381
vt 0.151590 0.831531
vt 0.832053 0.852403
vt 0.852925 0.171939
vt 0.091779 0.091504
vt 0.091779 0.351033
vt 0.139846 0.157985
vt 0.210953 0.095443
vt 0.292895 0.047975
vt 0.382523 0.017405
vt 0.476392 0.004908
vt 0.570896 0.010964
vt 0.662403 0.035340
vt 0.747395 0.077101
vt 0.822608 0.134640
vt 0.885150 0.205746
vt 0.932618 0.287688
vt 0.963188 0.377316
vt 0.975685 0.471185
vt 0.969629 0.565690
vt 0.945253 0.657196
vt 0.845954 0.817401
vt 0.774847 0.879943
vt 0.692905 0.927412
vt 0.603277 0.957982
vt 0.509408 0.970479
vt 0.414904 0.964423
vt 0.323397 0.940046
vt 0.163192 0.840747
vt 0.100650 0.769640
vt 0.053182 0.687699
vt 0.022612 0.598071
vt 0.010115 0.504201
vt 0.016170 0.409698
vt 0.040547 0.318191
vt 0.091779 0.710381
vt 0.781847 0.109864
vt 0.700024 0.062849
vt 0.610602 0.032700
vt 0.517016 0.020575
vt 0.422863 0.026941
vt 0.331760 0.051553
vt 0.247210 0.093466
vt 0.172461 0.151068
vt 0.110387 0.222146
vt 0.063371 0.303968
vt 0.033222 0.393390
vt 0.021097 0.486976
vt 0.027463 0.581130
vt 0.052075 0.672232
vt 0.093988 0.756782
vt 0.222668 0.893606
vt 0.304490 0.940621
vt 0.393913 0.970771
vt 0.487499 0.982895
vt 0.581652 0.976529
vt 0.672754 0.951917
vt 0.757304 0.910005
vt 0.894128 0.781325
vt 0.941144 0.699502
vt 0.971293 0.610080
vt 0.983417 0.516494
vt 0.977051 0.422341
vt 0.952439 0.331238
vt 0.910527 0.246688
s 1
usemtl マテリアル
f 2/1/1 3/2/2 1/3/1
f 3/2/2 6/4/3 5/5/3
f 6/4/3 7/6/4 5/5/3
f 8/7/4 9/8/5 7/6/4
f 10/9/5 11/10/6 9/8/5
f 12/11/6 13/12/7 11/10/6
f 14/13/7 15/14/8 13/12/7
f 16/15/8 17/16/9 15/14/8
f 18/17/9 19/18/10 17/16/9
f 20/19/10 21/20/11 19/18/10
f 22/21/11 23/22/12 21/20/11
f 24/23/12 25/24/13 23/22/12
f 26/25/13 27/26/14 25/24/13
f 28/27/14 29/28/15 27/26/14
f 29/28/15 32/29/16 31/30/16
f 32/29/16 33/31/17 31/30/16
f 34/32/17 35/33/18 33/31/17
f 36/34/18 37/35/19 35/33/18
f 38/36/19 39/37/20 37/35/19
f 40/38/20 41/39/21 39/37/20
f 42/40/21 43/41/22 41/39/21
f 44/42/22 45/43/23 43/41/22
f 46/44/23 47/45/24 45/43/23
f 48/46/24 49/47/25 47/45/24
f 50/48/25 51/49/26 49/47/25
f 52/50/26 53/51/27 51/49/26
f 54/52/27 55/53/28 53/51/27
f 56/54/28 57/55/29 55/53/28
f 58/56/29 59/57/30 57/55/29
f 60/58/30 61/59/31 59/57/30
s 0
f 38/60/32 22/61/32 6/62/32
s 1
f 62/63/31 63/64/33 61/59/31
f 64/65/33 1/66/1 63/64/33
s 0
f 31/67/34 47/68/34 63/69/34
s 1
f 2/1/1 4/70/2 3/2/2
f 3/2/2 4/70/2 6/4/3
f 6/4/3 8/7/4 7/6/4
f 8/7/4 10/9/5 9/8/5
f 10/9/5 12/11/6 11/10/6
f 12/11/6 14/13/7 13/12/7
f 14/13/7 16/15/8 15/14/8
f 16/15/8 18/17/9 17/16/9
f 18/17/9 20/19/10 19/18/10
f 20/19/10 22/21/11 21/20/11
f 22/21/11 24/23/12 23/22/12
f 24/23/12 26/25/13 25/24/13
f 26/25/13 28/27/14 27/26/14
f 28/27/14 30/71/15 29/28/15
f 29/28/15 30/71/15 32/29/16
f 32/29/16 34/32/17 33/31/17
f 34/32/17 36/34/18 35/33/18
f 36/34/18 38/36/19 37/35/19
f 38/36/19 40/38/20 39/37/20
f 40/38/20 42/40/21 41/39/21
f 42/40/21 44/42/22 43/41/22
f 44/42/22 46/44/23 45/43/23
f 46/44/23 48/46/24 47/45/24
f 48/46/24 50/48/25 49/47/25
f 50/48/25 52/50/26 51/49/26
f 52/50/26 54/52/27 53/51/27
f 54/52/27 56/54/28 55/53/28
f 56/54/28 58/56/29 57/55/29
f 58/56/29 60/58/30 59/57/30
f 60/58/30 62/63/31 61/59/31
s 0
f 6/62/32 4/72/32 2/73/32
f 2/73/32 64/74/32 62/75/32
f 62/75/32 60/76/32 58/77/32
f 58/77/32 56/78/32 54/79/32
f 54/79/32 52/80/32 50/81/32
f 50/81/32 48/82/32 46/83/32
f 46/83/32 44/84/32 42/85/32
f 42/85/32 40/86/32 38/60/32
f 38/60/32 36/87/32 34/88/32
f 34/88/32 32/89/32 30/90/32
f 30/90/32 28/91/32 26/92/32
f 26/92/32 24/93/32 22/61/32
f 22/61/32 20/94/32 18/95/32
f 18/95/32 16/96/32 14/97/32
f 14/97/32 12/98/32 10/99/32
f 10/99/32 8/100/32 6/62/32
f 6/62/32 2/73/32 62/75/32
f 62/75/32 58/77/32 54/79/32
f 54/79/32 50/81/32 46/83/32
f 46/83/32 42/85/32 38/60/32
f 38/60/32 34/88/32 30/90/32
f 30/90/32 26/92/32 22/61/32
f 22/61/32 18/95/32 14/97/32
f 14/97/32 10/99/32 6/62/32
f 6/62/32 62/75/32 54/79/32
f 54/79/32 46/83/32 38/60/32
f 38/60/32 30/90/32 22/61/32
f 22/61/32 14/97/32 6/62/32
f 6/62/32 54/79/32 38/60/32
s 1
f 62/63/31 64/65/33 63/64/33
f 64/65/33 2/101/1 1/66/1
s 0
f 63/69/34 1/102/34 3/103/34
f 3/103/34 5/104/34 7/105/34
f 7/105/34 9/106/34 11/107/34
f 11/107/34 13/108/34 15/109/34
f 15/109/34 17/110/34 19/111/34
f 19/111/34 21/112/34 23/113/34
f 23/113/34 25/114/34 27/115/34
f 27/115/34 29/116/34 31/67/34
f 31/67/34 33/117/34 35/118/34
f 35/118/34 37/119/34 39/120/34
f 39/120/34 41/121/34 43/122/34
f 43/122/34 45/123/34 47/68/34
f 47/68/34 49/124/34 51/125/34
f 51/125/34 53/126/34 55/127/34
f 55/127/34 57/128/34 59/129/34
f 59/129/34 61/130/34 63/69/34
f 63/69/34 3/103/34 7/105/34
f 7/105/34 11/107/34 15/109/34
f 15/109/34 19/111/34 23/113/34
f 23/113/34 27/115/34 31/67/34
f 31/67/34 35/118/34 39/120/34
f 39/120/34 43/122/34 47/68/34
f 47/68/34 51/125/34 55/127/34
f 55/127/34 59/129/34 63/69/34
f 63/69/34 7/105/34 15/109/34
f 15/109/34 23/113/34 31/67/34
f 31/67/34 39/120/34 47/68/34
f 47/68/34 55/127/34 63/69/34
f 63/69/34 15/109/34 31/67/34
